<?xml version="1.0" encoding="iso-8859-1"?>
<!-- Generator: Adobe Illustrator 19.0.0, SVG Export Plug-In . SVG Version: 6.00 Build 0)  -->
<svg version="1.1" id="Capa_1" xmlns="http://www.w3.org/2000/svg" xmlns:xlink="http://www.w3.org/1999/xlink" x="0px" y="0px"
	 viewBox="0 0 512 512" style="enable-background:new 0 0 512 512;" xml:space="preserve">
<g>
	<g>
		<path d="M390.483,110.212c-44.454-44.454-103.558-68.936-166.426-68.936h-45.069V0L52.581,126.407l126.407,126.407v-41.276h45.069
			c74.554,0,135.208,60.654,135.208,135.208s-60.654,135.208-135.208,135.208V512c62.868,0,121.972-24.482,166.426-68.936
			c44.454-44.454,68.936-103.558,68.936-166.426S434.938,154.667,390.483,110.212z M373.476,417.314
			c10.152-21.411,15.836-45.341,15.836-70.568c0-91.121-74.133-165.254-165.254-165.254h-73.901l-55.085-55.085l55.085-55.085
			h73.901c113.211,0,205.316,92.105,205.316,205.316C429.374,331.026,408.117,380.541,373.476,417.314z"/>
	</g>
</g>
<g>
</g>
<g>
</g>
<g>
</g>
<g>
</g>
<g>
</g>
<g>
</g>
<g>
</g>
<g>
</g>
<g>
</g>
<g>
</g>
<g>
</g>
<g>
</g>
<g>
</g>
<g>
</g>
<g>
</g>
</svg>
