<?xml version="1.0" encoding="UTF-8" standalone="no"?>
<!-- Generator: Adobe Illustrator 19.1.0, SVG Export Plug-In . SVG Version: 6.00 Build 0)  -->

<svg
   xmlns:dc="http://purl.org/dc/elements/1.1/"
   xmlns:cc="http://creativecommons.org/ns#"
   xmlns:rdf="http://www.w3.org/1999/02/22-rdf-syntax-ns#"
   xmlns:svg="http://www.w3.org/2000/svg"
   xmlns="http://www.w3.org/2000/svg"
   xmlns:sodipodi="http://sodipodi.sourceforge.net/DTD/sodipodi-0.dtd"
   xmlns:inkscape="http://www.inkscape.org/namespaces/inkscape"
   version="1.1"
   id="Capa_1"
   x="0px"
   y="0px"
   viewBox="0 0 488.8 488.8"
   style="enable-background:new 0 0 488.8 488.8;"
   xml:space="preserve"
   sodipodi:docname="new Doc.svg"
   inkscape:version="0.92.3 (2405546, 2018-03-11)"><metadata
   id="metadata49"><rdf:RDF><cc:Work
       rdf:about=""><dc:format>image/svg+xml</dc:format><dc:type
         rdf:resource="http://purl.org/dc/dcmitype/StillImage" /></cc:Work></rdf:RDF></metadata><defs
   id="defs47">
	

		
		
	
			
		
			
		</defs><sodipodi:namedview
   pagecolor="#ffffff"
   bordercolor="#666666"
   borderopacity="1"
   objecttolerance="10"
   gridtolerance="10"
   guidetolerance="10"
   inkscape:pageopacity="0"
   inkscape:pageshadow="2"
   inkscape:window-width="1920"
   inkscape:window-height="1017"
   id="namedview45"
   showgrid="false"
   inkscape:zoom="0.48281507"
   inkscape:cx="-60.305814"
   inkscape:cy="-29.161448"
   inkscape:window-x="1912"
   inkscape:window-y="-8"
   inkscape:window-maximized="1"
   inkscape:current-layer="Capa_1"><inkscape:grid
     type="xygrid"
     id="grid57" /></sodipodi:namedview>
<path
   d="m 320.36441,344.25 c -57.375,0 -105.188,47.812 -105.188,105.188 0,57.376 47.813,105.187 105.188,105.187 57.375,0 105.188,-47.812 105.188,-105.188 0,-57.376 -47.813,-105.187 -105.188,-105.187 z"
   id="path40"
   inkscape:connector-curvature="0" /><path
   d="m 272.55241,133.875 h 95.625 L 253.42641,-4.9942066e-6 V 114.75 c 0,11.475 9.563,19.125 19.126,19.125 z"
   id="path36"
   inkscape:connector-curvature="0" /><path
   d="m 320.36441,325.125 c 17.213,0 32.513,3.825 47.812,9.562 V 153 h -95.625 c -21.037,0 -38.25,-17.212 -38.25,-38.25 V -4.9942066e-6 H 43.051405 c -21.038,0 -38.25,17.2119999942066 -38.25,38.2499999942066 V 478.125 c 0,21.037 17.212,38.25 38.25,38.25 H 215.17641 c -11.475,-19.125 -19.125,-42.075 -19.125,-66.938 0.001,-68.849 55.463,-124.312 124.313,-124.312 z"
   id="path6"
   inkscape:connector-curvature="0" />
<g
   id="g14">
</g>
<g
   id="g16">
</g>
<g
   id="g18">
</g>
<g
   id="g20">
</g>
<g
   id="g22">
</g>
<g
   id="g24">
</g>
<g
   id="g26">
</g>
<g
   id="g28">
</g>
<g
   id="g30">
</g>
<g
   id="g32">
</g>
<g
   id="g34">
</g>
<g
   id="g36">
</g>
<g
   id="g38">
</g>
<g
   id="g40">
</g>
<g
   id="g42">
</g>
<path
   inkscape:connector-curvature="0"
   d="m 320.36441,361.855 c -47.77229,0 -87.58292,39.80981 -87.58292,87.58292 0,47.7731 39.81063,87.58208 87.58292,87.58208 47.77227,0 87.58291,-39.80981 87.58291,-87.58292 0,-47.7731 -39.81064,-87.58208 -87.58291,-87.58208 z"
   id="path40-5"
   style="fill:#ffffff;stroke-width:0.83263218" /><path
   d="m 362.73427,506.2191 -42.40448,-42.61217 -42.61217,42.40447 -14.13482,-14.20405 42.61217,-42.40448 -42.40446,-42.61217 14.20405,-14.1348 42.40447,42.61216 42.61217,-42.40446 14.13482,14.20405 -42.61216,42.40446 42.40446,42.61218 z"
   id="path38"
   inkscape:connector-curvature="0"
   style="stroke-width:1.04777372" /></svg>