<?xml version="1.0" encoding="UTF-8" standalone="no"?>
<!-- Generator: Adobe Illustrator 19.0.0, SVG Export Plug-In . SVG Version: 6.00 Build 0)  -->

<svg
   xmlns:dc="http://purl.org/dc/elements/1.1/"
   xmlns:cc="http://creativecommons.org/ns#"
   xmlns:rdf="http://www.w3.org/1999/02/22-rdf-syntax-ns#"
   xmlns:svg="http://www.w3.org/2000/svg"
   xmlns="http://www.w3.org/2000/svg"
   xmlns:sodipodi="http://sodipodi.sourceforge.net/DTD/sodipodi-0.dtd"
   xmlns:inkscape="http://www.inkscape.org/namespaces/inkscape"
   version="1.1"
   id="Capa_1"
   x="0px"
   y="0px"
   viewBox="0 0 512 512"
   style="enable-background:new 0 0 512 512;"
   xml:space="preserve"
   sodipodi:docname="travelPassport.svg"
   inkscape:version="0.92.3 (2405546, 2018-03-11)"><metadata
   id="metadata45"><rdf:RDF><cc:Work
       rdf:about=""><dc:format>image/svg+xml</dc:format><dc:type
         rdf:resource="http://purl.org/dc/dcmitype/StillImage" /></cc:Work></rdf:RDF></metadata><defs
   id="defs43">
	

		
	
			
			
		</defs><sodipodi:namedview
   pagecolor="#ffffff"
   bordercolor="#666666"
   borderopacity="1"
   objecttolerance="10"
   gridtolerance="10"
   guidetolerance="10"
   inkscape:pageopacity="0"
   inkscape:pageshadow="2"
   inkscape:window-width="1920"
   inkscape:window-height="1017"
   id="namedview41"
   showgrid="false"
   inkscape:zoom="1.3037281"
   inkscape:cx="-250.18572"
   inkscape:cy="247.82492"
   inkscape:window-x="1912"
   inkscape:window-y="-8"
   inkscape:window-maximized="1"
   inkscape:current-layer="Capa_1" />
<path
   inkscape:connector-curvature="0"
   id="path2"
   d="m -244.874,292.30917 c 13.195,-5.757 24.998,-14.107 34.785,-24.398 h -23.843 c -3.09,9.107 -6.771,17.288 -10.942,24.398 z m -85.287,-87.163 c 0.665,15.034 2.694,28.957 5.683,41.266 h 74.109 c 2.988,-12.311 5.018,-26.231 5.683,-41.266 z m 218.556,-248.536001 h -351.636 c -26.633,0 -48.302,21.668 -48.302,48.3020005 V 520.30917 c 0,26.633 21.669,48.301 48.302,48.301 h 351.636 c 26.633,0 48.3,-21.668 48.3,-48.302 V 4.9121695 c -10e-4,-26.6340005 -21.667,-48.3020005 -48.3,-48.3020005 z m -175.821,109.502 c 70.735,0 128.282,57.547001 128.282,128.282001 0,70.735 -57.547,128.284 -128.282,128.284 -70.733,0 -128.278,-57.547 -128.278,-128.284 0,-70.732 57.545,-128.282001 128.278,-128.282001 z m 59.33,180.300001 h 33.879 c 6.971,-12.444 11.54,-26.404 13.032,-41.266 h -41.982 c -0.558,14.709 -2.251,28.575 -4.929,41.266 z m -59.33,54.769 c 10.628,0 21.911,-12.548 30.251,-33.267 h -60.499 c 8.34,20.719 19.622,33.267 30.248,33.267 z m 64.26,-117.535 h 41.982 c -1.492,-14.862 -6.061,-28.824 -13.032,-41.266 h -33.879 c 2.677,12.692 4.37,26.557 4.929,41.266 z m -128.514,21.5 h -41.984 c 1.492,14.862 6.061,28.824 13.032,41.266 h 33.881 c -2.678,-12.691 -4.368,-26.557 -4.929,-41.266 z m 64.254,-117.534001 c -10.626,0 -21.908,12.548001 -30.247,33.267001 h 60.499 c -8.341,-20.719 -19.622,-33.267001 -30.252,-33.267001 z m 42.74,96.034001 c -0.665,-15.034 -2.694,-28.955 -5.683,-41.266 h -74.109 c -2.99,12.311 -5.02,26.233 -5.683,41.266 z m -120.075,84.265 c 9.789,10.293 21.592,18.643 34.787,24.4 -4.171,-7.11 -7.852,-15.293 -10.942,-24.4 z m 154.672,-147.03 c -9.789,-10.291 -21.59,-18.641 -34.785,-24.398001 4.171,7.108001 7.852,15.291001 10.942,24.398001 z m -136.661,21.5 h -33.881 c -6.971,12.444 -11.54,26.404 -13.032,41.266 h 41.985 c 0.559,-14.71 2.249,-28.575 4.928,-41.266 z m 16.778,-45.900001 c -13.195,5.757001 -24.998,14.107001 -34.787,24.400001 h 23.845 c 3.09,-9.107 6.771,-17.29 10.942,-24.400001 z"
   sodipodi:nodetypes="cccccccccssssssscsssssscccccsccsccccccccccsccscccccccccccccccccccccc" />
<g
   id="g10">
</g>
<g
   id="g12">
</g>
<g
   id="g14">
</g>
<g
   id="g16">
</g>
<g
   id="g18">
</g>
<g
   id="g20">
</g>
<g
   id="g22">
</g>
<g
   id="g24">
</g>
<g
   id="g26">
</g>
<g
   id="g28">
</g>
<g
   id="g30">
</g>
<g
   id="g32">
</g>
<g
   id="g34">
</g>
<g
   id="g36">
</g>
<g
   id="g38">
</g>
<path
   style="fill:#ffffff;stroke-width:0.90696234"
   d="M -342.20312 444.30859 C -344.36322 444.30859 -346.10156 446.04889 -346.10156 448.20898 L -346.10156 468.85352 L -312.74219 468.85352 A 25.695541 25.695541 0 0 1 -287.42383 447.37695 A 25.695541 25.695541 0 0 1 -262.08594 468.85352 L -228.74609 468.85352 L -228.74609 448.20898 C -228.74609 446.04889 -230.48444 444.30859 -232.64453 444.30859 L -342.20312 444.30859 z M -287.42383 453.5293 A 19.543087 19.543087 0 0 0 -306.9668 473.07227 A 19.543087 19.543087 0 0 0 -287.42383 492.61719 A 19.543087 19.543087 0 0 0 -267.88086 473.07227 A 19.543087 19.543087 0 0 0 -287.42383 453.5293 z M -346.10156 477.29102 L -346.10156 497.9375 C -346.10156 500.09759 -344.36322 501.83594 -342.20312 501.83594 L -232.64453 501.83594 C -230.48444 501.83594 -228.74609 500.09759 -228.74609 497.9375 L -228.74609 477.29102 L -262.10742 477.29102 A 25.695541 25.695541 0 0 1 -287.42383 498.76953 A 25.695541 25.695541 0 0 1 -312.76367 477.29102 L -346.10156 477.29102 z "
   id="rect137" /></svg>