<?xml version="1.0" encoding="UTF-8" standalone="no"?>
<svg
   xmlns:dc="http://purl.org/dc/elements/1.1/"
   xmlns:cc="http://creativecommons.org/ns#"
   xmlns:rdf="http://www.w3.org/1999/02/22-rdf-syntax-ns#"
   xmlns:svg="http://www.w3.org/2000/svg"
   xmlns="http://www.w3.org/2000/svg"
   xmlns:sodipodi="http://sodipodi.sourceforge.net/DTD/sodipodi-0.dtd"
   xmlns:inkscape="http://www.inkscape.org/namespaces/inkscape"
   version="1.1"
   viewBox="0 0 44 44"
   enable-background="new 0 0 44 44"
   id="svg4"
   sodipodi:docname="paidPayment.svg"
   inkscape:version="0.92.3 (2405546, 2018-03-11)">
  <metadata
     id="metadata10">
    <rdf:RDF>
      <cc:Work
         rdf:about="">
        <dc:format>image/svg+xml</dc:format>
        <dc:type
           rdf:resource="http://purl.org/dc/dcmitype/StillImage" />
        <dc:title />
      </cc:Work>
    </rdf:RDF>
  </metadata>
  <defs
     id="defs8" />
  <sodipodi:namedview
     pagecolor="#ffffff"
     bordercolor="#666666"
     borderopacity="1"
     objecttolerance="10"
     gridtolerance="10"
     guidetolerance="10"
     inkscape:pageopacity="0"
     inkscape:pageshadow="2"
     inkscape:window-width="1920"
     inkscape:window-height="1017"
     id="namedview6"
     showgrid="false"
     inkscape:zoom="7.5853273"
     inkscape:cx="28.983217"
     inkscape:cy="44.011022"
     inkscape:window-x="-8"
     inkscape:window-y="-8"
     inkscape:window-maximized="1"
     inkscape:current-layer="svg4" />
  <path
     style="stroke-width:0.05861631"
     d="M 23.23402,7.2587048 21.303312,9.547497 20.263636,8.5918715 19.707599,9.1970798 21.378757,10.732192 23.861688,7.7886607 Z"
     id="path19"
     inkscape:connector-curvature="0" />
  <path
     style="stroke-width:0.05861631"
     d="m 21.78562,5.2093153 c -2.087596,0 -3.78711,1.699748 -3.78711,3.78711 0,2.0878107 1.699457,3.7851557 3.78711,3.7851557 2.08764,0 3.785156,-1.697344 3.785156,-3.7851557 0,-2.087423 -1.69757,-3.78711 -3.785156,-3.78711 z m 0,0.580078 a 3.2051533,3.2051533 0 0 1 3.205078,3.207032 3.2051533,3.2051533 0 0 1 -3.205078,3.2050777 3.2051533,3.2051533 0 0 1 -3.205079,-3.2050777 3.2051533,3.2051533 0 0 1 3.205079,-3.207032 z"
     id="path17"
     inkscape:connector-curvature="0" />
  <path
     style="stroke-width:0.05861631"
     d="M 0.11784958,0.21206278 V 11.906696 H 18.254398 A 4.5509067,4.5509067 0 0 1 17.537971,10.607367 H 2.7167313 c 0,-0.7172891 -0.5821509,-1.2994407 -1.2994405,-1.2994407 V 2.810833 c 0.7172896,0 1.2994405,-0.5820394 1.2994405,-1.299329 H 22.207787 c 0,0.7172896 0.58204,1.299329 1.29933,1.299329 v 2.0446327 a 4.5509067,4.5509067 0 0 1 1.29944,0.7933192 V 0.21206278 H 23.507228 1.4172908 Z"
     id="path13" />
  <path
     style="stroke-width:0.05861631"
     d="m 11.957319,2.1619185 v 0.8613281 h -0.05469 c -0.743249,0 -1.392578,0.532739 -1.392578,1.2382813 v 1.0585937 c 0,0.619813 0.598481,1.1171875 1.314453,1.1171875 h 0.132812 V 8.1599653 C 11.727295,8.1222605 11.54521,7.9440403 11.54521,7.7361372 V 7.3064497 H 10.512007 V 7.857231 c 0,0.7055998 0.646059,1.2382812 1.390625,1.2382812 h 0.05469 v 0.8613281 h 1.011719 V 9.0955122 h 0.05469 c 0.743247,0 1.390625,-0.5418505 1.390624,-1.2382812 V 6.6794966 c 0,-0.5938532 -0.550924,-1.109375 -1.246093,-1.109375 h -0.199224 v -1.609375 c 0.233921,0.038968 0.412109,0.2087376 0.412109,0.4140625 V 4.8201216 H 14.41435 V 4.2615279 C 14.41565,3.5818886 13.766974,3.0232466 13.023726,3.0232466 h -0.05469 V 2.1619185 Z m 0,1.796875 V 5.5564497 C 11.727295,5.5265384 11.54521,5.3822708 11.54521,5.1912153 V 4.3748091 c 0,-0.2065852 0.1873,-0.3796264 0.412109,-0.4160156 z m 1.011719,2.5039062 c 0.23776,0.053292 0.412109,0.2132983 0.412109,0.4042969 v 0.8691406 c 0,0.2131177 -0.178246,0.3848608 -0.412109,0.4238281 z"
     id="path11"
     inkscape:connector-curvature="0" />
</svg>
