<?xml version="1.0" encoding="UTF-8" standalone="no"?>
<!-- Created with Inkscape (http://www.inkscape.org/) -->

<svg
   xmlns:dc="http://purl.org/dc/elements/1.1/"
   xmlns:cc="http://creativecommons.org/ns#"
   xmlns:rdf="http://www.w3.org/1999/02/22-rdf-syntax-ns#"
   xmlns:svg="http://www.w3.org/2000/svg"
   xmlns="http://www.w3.org/2000/svg"
   xmlns:sodipodi="http://sodipodi.sourceforge.net/DTD/sodipodi-0.dtd"
   xmlns:inkscape="http://www.inkscape.org/namespaces/inkscape"
   width="210mm"
   height="297mm"
   viewBox="0 0 210 297"
   version="1.1"
   id="svg183"
   inkscape:version="0.92.3 (2405546, 2018-03-11)"
   sodipodi:docname="paidPayment_new.svg">
  <defs
     id="defs177" />
  <sodipodi:namedview
     id="base"
     pagecolor="#ffffff"
     bordercolor="#666666"
     borderopacity="1.0"
     inkscape:pageopacity="0.0"
     inkscape:pageshadow="2"
     inkscape:zoom="0.7"
     inkscape:cx="152.84545"
     inkscape:cy="911.09235"
     inkscape:document-units="mm"
     inkscape:current-layer="layer1"
     showgrid="false"
     inkscape:window-width="1920"
     inkscape:window-height="1017"
     inkscape:window-x="-8"
     inkscape:window-y="-8"
     inkscape:window-maximized="1" />
  <metadata
     id="metadata180">
    <rdf:RDF>
      <cc:Work
         rdf:about="">
        <dc:format>image/svg+xml</dc:format>
        <dc:type
           rdf:resource="http://purl.org/dc/dcmitype/StillImage" />
        <dc:title />
      </cc:Work>
    </rdf:RDF>
  </metadata>
  <g
     inkscape:label="Layer 1"
     inkscape:groupmode="layer"
     id="layer1">
    <path
       id="path22-2"
       style="fill:#000000;stroke-width:0.05400162"
       d="m 94.729319,86.854291 -5.23507,5.69809 15.733921,14.452989 23.37681,-27.713379 -5.9095,-4.98948 -18.17759,21.54899 z M 109.04967,55.652415 c -19.299729,0 -35.001477,15.70387 -35.001477,35.001483 0,19.301892 15.701177,35.001482 35.001477,35.001482 19.30023,0 35.00148,-15.69959 35.00148,-35.001482 0,-19.298113 -15.70175,-35.001483 -35.00148,-35.001483 z m 0,6.893121 A 28.108571,28.108571 0 0 1 137.15804,90.653898 28.108571,28.108571 0 0 1 109.04967,118.76278 28.108571,28.108571 0 0 1 80.940795,90.653898 28.108571,28.108571 0 0 1 109.04967,62.545536 Z M 58.216601,5.5572834 c -5.164283,0 -50.1275377,0.3239431 -50.8015497,11.2964676 h -0.032039 v 0.244947 12.932026 c 0.0092,3.577174 4.6257292,6.376773 11.4938722,8.460983 -0.09414,0.312378 -0.150713,0.630404 -0.169499,0.954463 h -0.02842 v 0.244946 12.909807 C 11.279899,54.506251 7.5842423,56.987445 7.4016152,60.156018 h -0.018603 v 0.244946 12.932545 c 0.0057,2.490874 2.2517087,4.603141 5.9267702,6.363435 -0.137409,0.379987 -0.225635,0.770313 -0.250114,1.169437 h -0.02842 v 0.24443 12.932542 c 0.01494,6.261947 14.114546,10.149697 29.78061,11.964647 0.114845,0.0213 0.220297,0.0713 0.342616,0.0713 0.03558,0 0.06629,-0.0217 0.101802,-0.0217 3.01988,0.34085 6.088721,0.60619 9.125542,0.79633 0.06404,0.007 0.120137,0.0357 0.186034,0.0357 0.03557,0 0.06432,-0.0212 0.09818,-0.0212 3.855799,0.23553 7.649366,0.35347 11.198283,0.35347 2.520447,0 5.167366,-0.0625 7.869288,-0.18139 a 40.805438,40.805438 0 0 1 -1.412317,-3.69538 c -1.493126,0.0496 -3.015078,0.0842 -4.573881,0.0987 v -9.410791 c 0.517745,-0.006 1.035132,-0.01409 1.552877,-0.02119 0.09976,-0.001 0.199961,-0.0042 0.299722,-0.0062 0.266981,-0.005 0.533517,-0.01423 0.800468,-0.02016 a 40.805438,40.805438 0 0 1 -0.156062,-3.331578 40.805438,40.805438 0 0 1 3.150711,-15.69775 v -2.052071 c 0.336844,-0.02222 0.6687,-0.04958 1.004076,-0.07338 A 40.805438,40.805438 0 0 1 82.689524,59.563806 v -7.374744 c 1.909078,-0.125913 3.795644,-0.27659 5.648235,-0.457338 v 3.819406 a 40.805438,40.805438 0 0 1 3.769278,-1.964737 v -2.256711 c 1.941081,-0.233402 3.825764,-0.498533 5.648235,-0.794266 v 0.926042 a 40.805438,40.805438 0 0 1 3.765148,-0.885735 v -0.711068 c 1.99946,-0.393488 3.88977,-0.826281 5.64823,-1.300694 v 1.351338 a 40.805438,40.805438 0 0 1 1.88102,-0.06666 40.805438,40.805438 0 0 1 1.88257,0.09405 v -2.528531 c 2.23856,-0.779465 4.14396,-1.644089 5.64824,-2.591054 v 5.752103 a 40.805438,40.805438 0 0 1 3.76566,0.901237 V 39.448755 l -0.0212,-0.0026 c -0.18637,-3.221384 -4.01726,-5.738032 -11.6799,-7.658446 0.25794,-0.564989 0.4027,-1.152652 0.40462,-1.762683 v -13.17129 h -0.032 C 108.34362,5.8812265 63.380892,5.5572834 58.216601,5.5572834 Z M 105.28453,22.226033 v 7.790739 c 0,0.286057 -0.15099,0.595109 -0.4315,0.920875 v 0.0026 l -0.0527,-0.01395 -0.68523,0.532783 c -0.99408,0.773774 -2.52077,1.556724 -4.478797,2.313554 v -8.956042 c 2.238557,-0.779466 4.143937,-1.643503 5.648237,-2.59054 z m -94.135857,0.0026 c 1.504291,0.947037 3.409174,1.811589 5.647718,2.591056 v 9.014436 c -3.661876,-1.372481 -5.643945,-2.749108 -5.647718,-3.809068 z m 84.721959,3.742407 v 9.074898 c -1.686909,0.491702 -3.586652,0.959893 -5.648232,1.400432 v -9.174118 c 1.999448,-0.393501 3.889774,-0.826726 5.648232,-1.301212 z m -75.30858,5.17e-4 c 1.758457,0.474628 3.648795,0.90771 5.648234,1.301211 v 9.189622 c -0.231548,-0.0498 -0.470673,-0.09834 -0.696598,-0.146761 -1.001603,-0.219872 -1.978659,-0.44962 -2.912484,-0.692981 -0.711669,-0.18288 -1.387732,-0.369086 -2.039152,-0.555522 z m 65.895202,1.97094 v 9.228892 c -1.784815,0.314529 -3.663857,0.604155 -5.648235,0.866098 v -9.300724 c 1.941079,-0.233402 3.825762,-0.498535 5.648235,-0.794266 z m -56.481823,0.0021 c 1.822463,0.293883 3.707151,0.560292 5.648233,0.792199 v 9.30279 c -0.372796,-0.0498 -0.760638,-0.08831 -1.129647,-0.139525 -0.241009,-0.03557 -0.470797,-0.07134 -0.707967,-0.103352 -1.088215,-0.156546 -2.151612,-0.323638 -3.194637,-0.498679 -0.208989,-0.03557 -0.410763,-0.07327 -0.615982,-0.109553 z m 47.067927,1.198893 v 9.338448 c -1.818708,0.192113 -3.701507,0.359206 -5.648235,0.498676 v -9.379789 c 1.909078,-0.125913 3.795644,-0.276603 5.648235,-0.457335 z m -37.654031,5.16e-4 c 1.852592,0.178599 3.739163,0.331899 5.648233,0.457854 v 9.372036 C 43.120963,38.836552 41.230626,38.680091 39.389327,38.48654 v -5.19e-4 z m 28.240654,0.670242 v 9.392709 c -0.320067,0.01423 -0.626861,0.0359 -0.94878,0.05013 -0.02632,0.0014 -0.05281,0.0012 -0.08113,0.0041 -1.263298,0.05691 -2.550858,0.09828 -3.85558,0.128159 -0.203297,0.0057 -0.407,0.0068 -0.610298,0.01395 -0.670229,0.01423 -1.355355,0.01459 -2.035019,0.0217 v -9.404078 c 0.517745,-0.0057 1.035132,-0.01459 1.552877,-0.0217 0.09976,-0.0014 0.199961,-0.0043 0.299725,-0.0057 v 0.0016 c 1.895888,-0.03557 3.79173,-0.09402 5.678207,-0.18087 z m -18.827276,5.19e-4 c 1.886487,0.08821 3.782316,0.146706 5.678207,0.180867 0.09976,0 0.199959,0.0012 0.299722,0.0041 l -5.16e-4,0.001 c 0.517742,0.0071 1.035654,0.01408 1.553393,0.02119 v 9.40046 c -2.534132,-0.02134 -5.05315,-0.09042 -7.530806,-0.214974 z m -26.35808,15.006836 c 1.504288,0.947036 3.40969,1.811073 5.648232,2.590538 v 8.944157 c -2.959625,-1.142793 -4.868804,-2.309902 -5.490103,-3.349148 l -0.12609,-0.210842 c -0.01138,-0.05691 -0.0299,-0.119909 -0.03204,-0.178284 z m 9.413896,3.740856 c 1.758458,0.474628 3.648276,0.909643 5.647716,1.301213 v 9.173599 c -2.080402,-0.446159 -3.966453,-0.920599 -5.647716,-1.413867 z m 9.413378,1.975072 c 1.822463,0.295307 3.707151,0.56051 5.648235,0.794269 v 9.312092 c -1.152221,-0.152278 -2.280029,-0.31071 -3.362587,-0.480076 -0.04341,-0.0071 -0.08688,-0.01459 -0.130223,-0.0217 l 5.16e-4,-0.001 c -0.745556,-0.118801 -1.446157,-0.246714 -2.155941,-0.37052 z m 9.41338,1.201995 c 1.852588,0.178612 3.739165,0.331395 5.648232,0.457337 v 9.383406 c -0.15249,-0.01423 -0.314076,-0.02131 -0.466638,-0.02842 -0.256026,-0.02134 -0.510444,-0.0355 -0.762743,-0.05684 v -0.0041 c -1.204936,-0.0939 -2.381562,-0.197565 -3.530018,-0.312127 -0.246631,-0.02134 -0.493178,-0.04984 -0.737939,-0.07545 -0.05052,-0.0057 -0.100012,-0.01447 -0.150894,-0.01447 z m 28.240651,0.66766 v 9.390642 c -2.473881,0.122356 -4.989137,0.190187 -7.530807,0.216524 v -9.398394 c 0.517748,-0.0057 1.035648,-0.01459 1.553396,-0.0217 0.09976,-0.0014 0.199445,-0.0043 0.299206,-0.0057 v -0.001 c 1.895891,-0.03557 3.791728,-0.09352 5.678205,-0.18035 z m -18.826758,0.001 c 1.886485,0.08821 3.782317,0.146708 5.678207,0.180869 0.09976,0 0.199443,0.0012 0.299207,0.0041 0.517742,0.0071 1.035653,0.01408 1.553395,0.02119 v 9.400461 c -0.916882,-0.0071 -1.841463,-0.0138 -2.735752,-0.03514 -0.137409,-0.0043 -0.280585,-0.0058 -0.418063,-0.0072 -1.415801,-0.03557 -2.799598,-0.09037 -4.158919,-0.156578 -0.07343,-0.0043 -0.146558,-0.0072 -0.218075,-0.0072 z m -48.950499,13.12323 c 1.504291,0.946967 3.409174,1.81116 5.647718,2.59054 v 8.978781 l -1.07487,-0.418063 -0.02274,0.0217 c -2.955832,-1.225767 -4.546854,-2.4292 -4.550626,-3.378089 l 5.16e-4,0.0016 z m 9.413379,3.744991 c 1.758449,0.47248 3.648788,0.907492 5.648234,1.299147 v 9.186518 c -1.728329,-0.367181 -3.323336,-0.752898 -4.774902,-1.148249 -0.229698,-0.06402 -0.466909,-0.126037 -0.690914,-0.192238 -0.0619,-0.02134 -0.120291,-0.03538 -0.182418,-0.04961 z m 9.413379,1.968873 c 1.822461,0.295305 3.707151,0.563174 5.648233,0.794782 v 9.311577 c -1.990032,-0.261856 -3.87472,-0.549725 -5.648233,-0.861963 z m 9.413896,1.205611 c 1.852592,0.178597 3.739163,0.33138 5.648233,0.457335 v 9.381339 C 43.456079,82.176442 41.89341,82.048629 40.366529,81.89991 v -0.0021 c -0.192056,-0.02134 -0.382442,-0.04261 -0.572577,-0.05684 -0.135559,-0.01423 -0.269071,-0.02866 -0.404625,-0.04289 z m 28.240654,0.66611 v 9.400458 c -0.402897,0.02134 -0.807913,0.04261 -1.216464,0.05685 -1.129631,0.0498 -2.276253,0.08646 -3.44165,0.114204 -0.274881,0.0071 -0.551587,0.01447 -0.828373,0.01447 -0.672156,0.01423 -1.361231,0.01408 -2.042771,0.02119 V 73.32007 c 0.517741,-0.0057 1.035645,-0.01408 1.553395,-0.02119 0.09791,0 0.197892,-0.0018 0.297656,-0.0047 v 0.0031 c 1.895888,-0.03557 3.79173,-0.09351 5.678207,-0.180351 z m -18.82521,5.16e-4 c 1.886487,0.08821 3.782311,0.146706 5.678207,0.180867 0.09791,0 0.197377,0.0012 0.29714,0.0041 v 5.16e-4 c 0.517742,0.0071 1.035654,0.01459 1.553393,0.0217 v 9.409763 c -0.365249,-0.0043 -0.730623,-0.0044 -1.093989,-0.0072 -0.165653,-0.0014 -0.325572,-0.0072 -0.489376,-0.0072 -0.862287,-0.01423 -1.720619,-0.03563 -2.573488,-0.06408 -0.105452,-0.0043 -0.210801,-0.0068 -0.316259,-0.01395 -1.026078,-0.03557 -2.044602,-0.07772 -3.055628,-0.126092 z m -32.00838,13.123746 c 1.504288,0.947039 3.409691,1.81107 5.648234,2.590541 v 9.014436 C 18.78275,96.473652 16.800155,95.097631 16.796391,94.03767 Z m 9.413895,3.74034 c 1.758455,0.474621 3.648795,0.909564 5.648235,1.301213 v 9.189101 c -2.082281,-0.4426 -3.970734,-0.910876 -5.648235,-1.394746 z m 9.413378,1.975073 c 1.822463,0.295312 3.707153,0.560509 5.648235,0.794268 v 9.312093 c -1.990032,-0.26185 -3.87472,-0.55024 -5.648235,-0.86248 z m 9.413896,1.198893 c 1.852588,0.178602 3.738649,0.331904 5.647719,0.457853 v 9.389095 c -1.956142,-0.13729 -3.83843,-0.30558 -5.647719,-0.49558 z m 9.411313,0.66921 0.0021,0.001 c 1.886474,0.0882 3.782316,0.146706 5.678207,0.180867 0.09976,0.001 0.19981,0.0042 0.297656,0.0062 0.517742,0.007 1.035121,0.01409 1.552877,0.02119 v 9.411827 c -2.601921,-0.0213 -5.113401,-0.0997 -7.530807,-0.21859 z" />
  </g>
</svg>
