<?xml version="1.0" encoding="UTF-8" standalone="no"?>
<!-- Created with Inkscape (http://www.inkscape.org/) -->

<svg
   xmlns:dc="http://purl.org/dc/elements/1.1/"
   xmlns:cc="http://creativecommons.org/ns#"
   xmlns:rdf="http://www.w3.org/1999/02/22-rdf-syntax-ns#"
   xmlns:svg="http://www.w3.org/2000/svg"
   xmlns="http://www.w3.org/2000/svg"
   xmlns:sodipodi="http://sodipodi.sourceforge.net/DTD/sodipodi-0.dtd"
   xmlns:inkscape="http://www.inkscape.org/namespaces/inkscape"
   width="210mm"
   height="297mm"
   viewBox="0 0 210 297"
   version="1.1"
   id="svg31"
   inkscape:version="0.92.3 (2405546, 2018-03-11)"
   sodipodi:docname="paymentedit.svg">
  <defs
     id="defs25" />
  <sodipodi:namedview
     id="base"
     pagecolor="#ffffff"
     bordercolor="#666666"
     borderopacity="1.0"
     inkscape:pageopacity="0.0"
     inkscape:pageshadow="2"
     inkscape:zoom="0.49497475"
     inkscape:cx="-483.39906"
     inkscape:cy="368.96108"
     inkscape:document-units="mm"
     inkscape:current-layer="layer1"
     showgrid="false"
     inkscape:window-width="1920"
     inkscape:window-height="1017"
     inkscape:window-x="1912"
     inkscape:window-y="-8"
     inkscape:window-maximized="1" />
  <metadata
     id="metadata28">
    <rdf:RDF>
      <cc:Work
         rdf:about="">
        <dc:format>image/svg+xml</dc:format>
        <dc:type
           rdf:resource="http://purl.org/dc/dcmitype/StillImage" />
        <dc:title></dc:title>
      </cc:Work>
    </rdf:RDF>
  </metadata>
  <g
     inkscape:label="Layer 1"
     inkscape:groupmode="layer"
     id="layer1">
    <path
       d="m 120.32522,68.366517 c -0.18637,-3.221384 -4.01771,-5.738508 -11.68035,-7.658923 0.25794,-0.564987 0.40289,-1.152184 0.40481,-1.762215 V 45.773942 h -0.032 C 108.34367,34.801417 63.380653,34.477657 58.216363,34.477657 c -5.16428,0 -50.1272701,0.32376 -50.8012801,11.296285 h -0.032 v 0.244784 0 0 12.932344 c 0.009,3.577175 4.6258301,6.376728 11.4939701,8.460939 -0.0941,0.31238 -0.15064,0.630449 -0.16942,0.954508 h -0.0285 v 0.244784 0 0 12.909778 C 11.280063,83.42641 7.5843029,85.90782 7.4016729,89.076394 h -0.0185 v 0.244784 0 0 12.932342 c 0.006,2.49088 2.25173,4.60327 5.9267901,6.36357 -0.13741,0.37999 -0.22592,0.77007 -0.2504,1.1692 h -0.0285 v 0.24478 0 0 12.93234 c 0.0149,6.26195 14.11471,10.14972 29.78077,11.96467 0.11485,0.0213 0.22031,0.0711 0.34263,0.0711 0.0356,0 0.0662,-0.0213 0.10168,-0.0213 3.01988,0.34085 6.0887,0.60626 9.12551,0.7964 0.064,0.007 0.12047,0.0356 0.18637,0.0356 0.0356,0 0.064,-0.0213 0.0979,-0.0213 3.8558,0.23553 7.64946,0.35366 11.19838,0.35366 3.54892,0 7.34259,-0.1188 11.19839,-0.35366 0.0342,0.001 0.064,0.0213 0.0979,0.0213 0.0662,0 0.12239,-0.0285 0.18636,-0.0356 3.03682,-0.19 6.10564,-0.45399 9.12552,-0.7964 0.0356,0 0.0662,0.0213 0.10168,0.0213 0.1224,0 0.22778,-0.0498 0.34263,-0.0711 15.666067,-1.81495 29.763827,-5.70465 29.780777,-11.96844 v -13.17143 h -0.0299 c -0.13175,-2.30822 -2.09922,-4.23424 -5.98515,-5.84398 0.23725,-0.54436 0.3671,-1.10892 0.3671,-1.69441 V 89.944383 c 6.75895,-2.078519 11.28688,-4.859292 11.29628,-8.404437 V 68.368649 Z M 20.562043,63.987258 v -9.095385 c 1.75846,0.474628 3.6487,0.907471 5.64814,1.300974 v 9.18953 c -0.23154,-0.0498 -0.47071,-0.09817 -0.69663,-0.146587 -1.0016,-0.219872 -1.97873,-0.449715 -2.91256,-0.693076 -0.71167,-0.18288 -1.38756,-0.369303 -2.03898,-0.555742 z m 84.291017,-4.126868 -0.0526,-0.01423 -0.68532,0.532961 c -0.99408,0.773774 -2.52096,1.557014 -4.478977,2.313845 v -8.956055 c 2.238547,-0.779466 4.143847,-1.6436 5.648147,-2.590637 v 7.790693 c 0,0.286057 -0.15064,0.594879 -0.43115,0.920645 z m -50.072677,42.36297 c 0.51774,0.007 1.03549,0.0142 1.55323,0.0214 v 9.40975 c -0.36525,-0.004 -0.73049,-0.004 -1.09385,-0.007 -0.16566,-10e-4 -0.32569,-0.007 -0.4895,-0.007 -0.86228,-0.0142 -1.7208,-0.0356 -2.57367,-0.064 -0.10545,-0.004 -0.21084,-0.007 -0.31629,-0.0142 -1.02608,-0.0356 -2.04462,-0.0775 -3.05565,-0.12591 v -9.39851 c 1.88649,0.0882 3.78237,0.14658 5.67827,0.18074 0.0979,0 0.19768,10e-4 0.29744,0.004 z m 7.17126,-0.006 c 1.89588,-0.0356 3.79178,-0.0939 5.67826,-0.18075 v 9.40044 c -0.4029,0.0213 -0.80768,0.0427 -1.21623,0.0569 -1.12963,0.0498 -2.2762,0.0868 -3.4416,0.11453 -0.27488,0.007 -0.55162,0.0142 -0.8284,0.0142 -0.67216,0.0142 -1.3612,0.0142 -2.04274,0.0213 v -9.40419 c 0.51774,-0.006 1.03549,-0.0142 1.55324,-0.0213 0.0979,0 0.19767,-0.001 0.29744,-0.004 z m 10.69757,8.90146 c -0.4142,0.0356 -0.83215,0.064 -1.25388,0.0939 v -9.38905 c 1.90908,-0.12591 3.79555,-0.27681 5.64815,-0.45755 v 9.34955 c -1.16353,0.12236 -2.3534,0.23696 -3.57528,0.33729 -0.27297,0.0213 -0.546,0.0427 -0.81899,0.064 z m 8.15969,-10.15911 c 1.94108,-0.23339 3.82568,-0.49882 5.64815,-0.79448 v 9.2441 c -1.77352,0.31238 -3.65812,0.60057 -5.64815,0.86229 z m -40.44259,9.8579 c -0.19205,-0.0214 -0.38218,-0.0427 -0.57232,-0.0569 -0.13556,-0.0142 -0.26926,-0.0285 -0.40481,-0.0427 v -9.34755 c 1.85259,0.1786 3.73907,0.33159 5.64814,0.45754 v 9.38157 c -1.58148,-0.1131 -3.14413,-0.24122 -4.67101,-0.38993 z m -4.74255,-9.8579 v 9.31191 c -1.99003,-0.26186 -3.87463,-0.55005 -5.64815,-0.86229 v -9.2441 c 1.82247,0.29531 3.70707,0.56287 5.64815,0.79448 z m 54.59871,7.7229 v -9.189531 c 1.99945,-0.3935 3.88969,-0.8265 5.64815,-1.30097 v 9.095441 c -1.67749,0.48387 -3.56586,0.95267 -5.64815,1.39506 z M 54.780383,58.920594 c 0.51774,0.0071 1.03549,0.01423 1.55323,0.02134 v 9.400434 c -2.53413,-0.02135 -5.0532,-0.09034 -7.53085,-0.214892 v -9.392894 c 1.88648,0.08821 3.78237,0.146586 5.67826,0.180746 0.0998,0 0.1996,0.0014 0.29936,0.0043 z m 7.17126,-0.0057 c 1.89588,-0.03557 3.79178,-0.0939 5.67826,-0.180746 v 9.392824 c -0.32007,0.01423 -0.62697,0.03557 -0.94889,0.0498 -0.0263,0.0013 -0.0527,0.0013 -0.081,0.0043 -1.26329,0.05691 -2.55107,0.09817 -3.85579,0.128048 -0.2033,0.0057 -0.40667,0.0071 -0.60997,0.01423 -0.67023,0.01423 -1.35555,0.01423 -2.03521,0.02135 v -9.404138 c 0.51774,-0.0057 1.03549,-0.01423 1.55324,-0.02134 0.0998,-0.0014 0.19959,-0.0043 0.29936,-0.0057 z m 11.29628,22.592573 c 1.89589,-0.03557 3.79179,-0.0939 5.67827,-0.180732 v 9.390957 c -2.47389,0.122357 -4.98919,0.189995 -7.53086,0.216329 V 81.53551 c 0.51774,-0.0057 1.03549,-0.01423 1.55324,-0.02135 0.0998,-0.0013 0.1996,-0.0043 0.29936,-0.0057 z m -18.14372,8.903324 c -1.20493,-0.0939 -2.38163,-0.197818 -3.53008,-0.312377 -0.24664,-0.02135 -0.49327,-0.0498 -0.73803,-0.07541 -0.0505,-0.0057 -0.0998,-0.01423 -0.15064,-0.01423 V 80.65922 c 1.85259,0.178612 3.73907,0.331599 5.64814,0.457541 v 9.383429 c -0.15249,-0.01423 -0.31437,-0.02132 -0.46693,-0.02845 -0.25603,-0.02135 -0.5102,-0.03557 -0.7625,-0.05691 z m -11.67659,-1.349858 c -0.74556,-0.118801 -1.44592,-0.246917 -2.15571,-0.370726 v -9.23286 c 1.82246,0.295304 3.70706,0.560718 5.64815,0.794474 v 9.31191 c -1.15222,-0.152275 -2.27998,-0.310957 -3.36254,-0.480319 -0.0434,-0.0071 -0.0866,-0.01423 -0.12993,-0.02135 z m 22.64905,-7.547845 c 0.51774,0.0071 1.0355,0.01423 1.55324,0.02135 v 9.400432 c -0.91688,-0.0071 -1.84129,-0.01424 -2.73558,-0.03557 -0.13741,-0.0043 -0.2805,-0.0057 -0.41798,-0.0071 -1.41581,-0.03557 -2.7996,-0.09034 -4.15892,-0.156544 -0.0734,-0.0043 -0.14687,-0.0071 -0.21838,-0.0071 v -9.400429 c 1.88648,0.08821 3.78237,0.146569 5.67826,0.180729 0.0998,0 0.1996,0.0013 0.29936,0.0043 z m 18.95329,8.807331 c -0.0676,0.0057 -0.13364,0.01423 -0.20145,0.01423 -0.70226,0.05691 -1.4271,0.09604 -2.13877,0.146585 v -9.372119 c 1.90908,-0.125912 3.79555,-0.276796 5.64814,-0.457541 v 9.340093 c -1.09196,0.116665 -2.18394,0.231254 -3.30792,0.325879 z m -45.64077,-22.91417 v -9.34202 c 1.85259,0.178598 3.73908,0.331586 5.64815,0.457541 v 9.372108 c -1.9166,-0.137294 -3.80685,-0.293867 -5.64815,-0.487418 z m 37.6543,-0.0043 c -1.81871,0.192114 -3.70142,0.359344 -5.64815,0.498816 v -9.379622 c 1.90908,-0.125913 3.79555,-0.27681 5.64815,-0.457541 z m 3.76542,-9.744911 c 1.94108,-0.233401 3.82568,-0.498815 5.64815,-0.794547 v 9.22908 c -1.78481,0.314526 -3.66377,0.604126 -5.64815,0.866069 z m 9.41357,7.709657 v -9.174436 c 1.99945,-0.393503 3.88969,-0.826488 5.64815,-1.300974 v 9.074668 c -1.68691,0.491702 -3.58657,0.960213 -5.64815,1.400752 z m -54.59871,-7.709628 v 9.302451 c -0.3728,-0.0498 -0.76062,-0.08821 -1.12963,-0.13943 -0.24101,-0.03557 -0.47071,-0.07114 -0.70788,-0.103148 -1.08821,-0.156546 -2.15194,-0.323773 -3.19497,-0.498813 -0.20898,-0.03557 -0.41043,-0.07327 -0.61565,-0.109554 v -9.244104 c 1.82246,0.293883 3.70706,0.560719 5.64814,0.792627 z m 1.88271,21.125866 v 9.174514 c -2.0804,-0.446162 -3.96688,-0.920647 -5.64814,-1.413912 v -9.060937 c 1.75845,0.474628 3.6487,0.909333 5.64814,1.300903 z m 60.07178,9.948275 c -0.82652,0.143028 -1.66057,0.284633 -2.5172,0.414147 -0.49142,0.0754 -0.99407,0.146584 -1.49864,0.218448 -0.47634,0.06402 -0.97148,0.125912 -1.45534,0.188571 v -9.302449 c 1.94108,-0.233399 3.82568,-0.498813 5.64815,-0.794546 v 9.244171 c -0.0605,0.01423 -0.11866,0.02135 -0.17697,0.02846 z M 28.092893,76.331695 v 8.94474 c -2.95962,-1.142794 -4.86869,-2.310072 -5.48999,-3.349318 l -0.12617,-0.210638 c -0.0114,-0.05691 -0.0299,-0.120221 -0.032,-0.178596 v -7.796327 c 1.50429,0.947037 3.4096,1.811171 5.64814,2.590636 z m -1.88271,23.161124 v 9.189531 c -1.72832,-0.36718 -3.32299,-0.75307 -4.77456,-1.14843 -0.22969,-0.064 -0.46693,-0.12591 -0.69094,-0.19211 -0.0619,-0.0213 -0.12046,-0.0356 -0.18259,-0.0498 v -9.095451 c 1.75845,0.47248 3.6487,0.90747 5.64814,1.29912 z m 5.64815,20.709881 v 9.18952 c -2.08228,-0.4426 -3.97065,-0.91124 -5.64815,-1.39511 v -9.09538 c 1.75846,0.47462 3.64871,0.90932 5.64815,1.30097 z m 3.76543,0.67387 c 1.82246,0.29531 3.70706,0.56072 5.64814,0.79448 v 9.3119 c -1.99003,-0.26185 -3.87463,-0.55004 -5.64814,-0.86228 z m 9.41357,1.19929 c 1.85259,0.1786 3.73907,0.33159 5.64814,0.45754 v 9.38905 c -1.95614,-0.13729 -3.83885,-0.30526 -5.64814,-0.49526 z m 9.41357,0.6703 c 1.88648,0.0882 3.78237,0.14658 5.67826,0.18074 0.0998,10e-4 0.1996,0.004 0.29744,0.006 0.51775,0.007 1.0355,0.0142 1.55325,0.0213 v 9.41168 c -2.60192,-0.0213 -5.11346,-0.0996 -7.53086,-0.21846 v -9.40253 z m 11.29629,0.20707 c 0.51774,-0.006 1.03549,-0.0142 1.55324,-0.0213 0.0998,-10e-4 0.19959,-0.004 0.29936,-0.006 1.89589,-0.0356 3.79178,-0.0939 5.67827,-0.18074 v 9.40043 c -2.41741,0.1188 -4.92896,0.19426 -7.53086,0.21846 z m 11.29629,-0.41983 c 1.90906,-0.12591 3.79555,-0.27681 5.64814,-0.45754 v 9.34955 c -1.80929,0.19 -3.69201,0.35792 -5.64814,0.49526 z m 9.41357,-0.8642 c 1.94107,-0.23341 3.82567,-0.49882 5.64814,-0.79448 v 9.2441 c -1.77353,0.31238 -3.65811,0.60057 -5.64814,0.86228 z m 9.41357,-1.46664 c 1.99944,-0.39351 3.88969,-0.82649 5.648147,-1.30091 v 9.09538 c -1.677507,0.48388 -3.565867,0.95266 -5.648147,1.39505 z m 9.210237,-17.34349 -0.64197,0.56287 c -0.98843,0.87167 -2.6358,1.7509 -4.802807,2.59811 v -8.976751 c 2.238547,-0.77947 4.143847,-1.64362 5.648147,-2.59066 v 7.790711 c 0,0.19426 -0.0716,0.40133 -0.20339,0.61551 z m 1.26519,-16.050179 c -0.93759,0.261855 -1.92978,0.50664 -2.94268,0.74559 -0.46878,0.109551 -0.94701,0.218448 -1.43652,0.32376 -0.14495,0.03557 -0.29936,0.05691 -0.44623,0.09248 V 78.78497 c 1.99946,-0.393491 3.88969,-0.826561 5.64815,-1.300975 v 9.09538 c -0.27111,0.07541 -0.54408,0.152276 -0.82275,0.229844 z M 11.148463,58.945308 v -7.796327 c 1.5043,0.947037 3.40961,1.811171 5.64815,2.590638 v 9.0144 c -3.66188,-1.372481 -5.64437,-2.74875 -5.64815,-3.808711 z m 0,43.302452 v -7.796331 c 1.5043,0.94697 3.40961,1.81119 5.64815,2.59057 v 8.978691 l -1.07503,-0.41769 -0.0228,0.0213 c -2.95583,-1.22576 -4.54672,-2.42882 -4.55049,-3.37771 z m 5.64815,20.70982 v -7.79633 c 1.50429,0.94704 3.4096,1.81117 5.64814,2.59064 v 9.01447 c -3.66187,-1.37257 -5.64438,-2.74882 -5.64814,-3.80878 z m 88.487587,3.80878 v -9.01255 c 2.23856,-0.77947 4.14386,-1.64367 5.64816,-2.59063 v 7.79061 c -0.002,1.05998 -1.98627,2.43815 -5.64816,3.81257 z m 5.64816,-41.419768 v -9.01255 c 2.23855,-0.779465 4.14385,-1.6436 5.64813,-2.590565 v 7.790635 c -0.002,1.059961 -1.98625,2.438146 -5.64813,3.81248 z"
       id="path2-4"
       inkscape:connector-curvature="0"
       style="stroke-width:1.88271427" />
    <circle
       style="fill:#ffffff;stroke-width:1.18233061"
       id="path55-0"
       cx="109.0496"
       cy="119.57404"
       r="40.805439" />
    <path
       inkscape:connector-curvature="0"
       style="fill:#000000;stroke-width:0.02214001"
       d="m 109.04982,84.572672 c -19.29974,0 -35.00158,15.703498 -35.00158,35.001108 0,19.3019 15.70127,35.00163 35.00158,35.00163 19.30023,0 35.00114,-15.69973 35.00114,-35.00163 0,-19.29811 -15.70141,-35.001108 -35.00114,-35.001108 z"
       id="path66-2" />
    <path
       inkscape:connector-curvature="0"
       style="fill:#ffffff;stroke-width:0.02100198"
       d="M 109.04961,91.465424 A 28.108571,28.108571 0 0 1 137.15819,119.574 28.108571,28.108571 0 0 1 109.04961,147.68266 28.108571,28.108571 0 0 1 80.94101,119.574 28.108571,28.108571 0 0 1 109.04961,91.465424 Z"
       id="path64-1" />
    <path
       d="m 126.89708,111.87252 c 1.85512,-1.85756 1.85512,-4.86787 0,-6.7242 l -3.3621,-3.36332 c -1.85756,-1.857564 -4.86909,-1.857564 -6.72633,0 l -2.03346,2.09949 10.08874,10.08752 z M 99.485951,134.5235 c -1.453721,0 -3.576028,0.18808 -4.604623,-0.84022 -1.02829,-1.03103 -0.837791,-3.15091 -0.837791,-4.60463 0,-0.26567 -1.74404,-2.65943 -1.79974,-2.72577 l -2.433018,12.40338 12.369001,-2.43058 c -0.0585,-0.053 -2.40958,-1.80218 -2.693829,-1.80218 z m 13.162979,-28.76534 -0.0365,0.0365 -0.02,-0.02 -18.245074,18.26455 10.621614,10.58843 18.30167,-18.17598 -0.0523,-0.0523 0.0523,-0.0526 z m -15.194595,18.49158 15.412175,-15.38753 1.96742,1.96102 -15.416139,15.38388 z m 7.318845,7.29571 -1.9878,-1.98141 15.41765,-15.38205 1.98841,1.98202 z"
       id="path2"
       inkscape:connector-curvature="0"
       style="stroke-width:0.3043178" />
  </g>
</svg>
