<?xml version="1.0" encoding="UTF-8" standalone="no"?>
<!-- Created with Inkscape (http://www.inkscape.org/) -->

<svg
   xmlns:dc="http://purl.org/dc/elements/1.1/"
   xmlns:cc="http://creativecommons.org/ns#"
   xmlns:rdf="http://www.w3.org/1999/02/22-rdf-syntax-ns#"
   xmlns:svg="http://www.w3.org/2000/svg"
   xmlns="http://www.w3.org/2000/svg"
   xmlns:sodipodi="http://sodipodi.sourceforge.net/DTD/sodipodi-0.dtd"
   xmlns:inkscape="http://www.inkscape.org/namespaces/inkscape"
   width="210mm"
   height="297mm"
   viewBox="0 0 210 297"
   version="1.1"
   id="svg100"
   inkscape:version="0.92.3 (2405546, 2018-03-11)"
   sodipodi:docname="pendingPayment.svg">
  <defs
     id="defs94" />
  <sodipodi:namedview
     id="base"
     pagecolor="#ffffff"
     bordercolor="#666666"
     borderopacity="1.0"
     inkscape:pageopacity="0.0"
     inkscape:pageshadow="2"
     inkscape:zoom="0.98994949"
     inkscape:cx="-104.27161"
     inkscape:cy="1027.6734"
     inkscape:document-units="mm"
     inkscape:current-layer="layer1"
     showgrid="false"
     inkscape:window-width="1920"
     inkscape:window-height="1017"
     inkscape:window-x="-8"
     inkscape:window-y="-8"
     inkscape:window-maximized="1" />
  <metadata
     id="metadata97">
    <rdf:RDF>
      <cc:Work
         rdf:about="">
        <dc:format>image/svg+xml</dc:format>
        <dc:type
           rdf:resource="http://purl.org/dc/dcmitype/StillImage" />
        <dc:title />
      </cc:Work>
    </rdf:RDF>
  </metadata>
  <g
     inkscape:label="Layer 1"
     inkscape:groupmode="layer"
     id="layer1">
    <path
       inkscape:connector-curvature="0"
       style="stroke-width:0.27032721"
       d="M 0.21800076,0.18719629 V 54.120514 H 83.86027 a 20.987908,20.987908 0 0 1 -3.304026,-5.99225 H 12.203548 c 0,-3.30795 -2.6847781,-5.99276 -5.9927821,-5.99276 V 12.172201 c 3.308004,0 5.9927821,-2.6842887 5.9927821,-5.9922377 h 89.889002 c 0,3.307949 2.68426,5.9922377 5.99226,5.9922377 v 9.429529 a 20.987908,20.987908 0 0 1 5.99277,3.658479 V 0.18719629 H 108.08532 6.2107659 Z"
       id="path14" />
    <path
       inkscape:connector-curvature="0"
       style="stroke-width:0.27032721"
       d="m 100.1456,23.233568 c -9.627608,0 -17.465441,7.838829 -17.465441,17.465316 0,9.62859 7.837573,17.45642 17.465441,17.45642 9.62778,0 17.45641,-7.82783 17.45641,-17.45642 0,-9.626663 -7.82886,-17.465316 -17.45641,-17.465316 z"
       id="path12" />
    <path
       inkscape:connector-curvature="0"
       style="fill:#ffffff;stroke-width:0.26255283"
       d="M 100.14109,26.334014 A 14.356447,14.356447 0 0 1 114.4972,40.698754 14.356447,14.356447 0 0 1 100.14109,55.054859 14.356447,14.356447 0 0 1 85.784964,40.698754 14.356447,14.356447 0 0 1 100.14109,26.334014 Z"
       id="path9" />
    <path
       inkscape:connector-curvature="0"
       style="stroke-width:0.19413638"
       d="m 57.147784,14.728383 c -6.861551,0 -12.424725,5.563105 -12.424725,12.424776 0,6.863065 5.563174,12.426165 12.424725,12.426165 6.861565,0 12.424721,-5.5631 12.424721,-12.426165 0,-6.861671 -5.563156,-12.424776 -12.424721,-12.424776 z"
       id="path252-9" />
    <path
       inkscape:connector-curvature="0"
       style="fill:#ffffff;stroke-width:0.19413638"
       d="m 57.147784,35.436454 c -4.568226,0 -8.28419,-3.715998 -8.28419,-8.2826 0,-4.566601 3.715964,-8.282606 8.28419,-8.282606 4.568228,0 8.284191,3.716005 8.284191,8.282606 0,4.566602 -3.715963,8.2826 -8.284191,8.2826 z"
       id="path250-1" />
    <path
       id="path181-1-4"
       style="fill:#000000;stroke-width:0.01099948"
       d="m 96.115581,36.750534 3.891079,2.57134 4.12411,-2.56137 v -2.20881 h -8.015189 z m 8.594179,0.47232 -4.67747,2.90088 -4.459739,-2.89474 v -5.375645 h 9.136469 v 5.369505 z m -4.76594,9.97393 -1.857789,0.75415 -2.204981,0.2966 v 0.84383 h 8.12404 v -0.84383 l -2.00804,-0.24448 z m 4.59814,-2.89502 v 5.21316 h -9.1357 v -5.37869 l 4.60461,-2.85491 z m 1.0856,-12.448617 h 2.02028 v -1.99345 h -2.02028 -0.93884 -9.13648 -0.93883 -1.9789 v 1.99345 h 1.17263 0.80627 v 5.881467 l 4.45825,2.97063 -4.65907,2.88939 0.0206,0.0337 -0.0108,0.006 v 5.9014 H 93.806941 92.63433 v 1.99344 h 15.01333 v -1.99344 h -2.21111 v -5.89374 l -4.51879,-2.93 4.71806,-2.92542 -0.0206,-0.0337 0.0122,-0.007 z"
       inkscape:connector-curvature="0" />
  </g>
</svg>
