<?xml version="1.0" encoding="UTF-8" standalone="no"?>
<!-- Created with Inkscape (http://www.inkscape.org/) -->

<svg
   xmlns:dc="http://purl.org/dc/elements/1.1/"
   xmlns:cc="http://creativecommons.org/ns#"
   xmlns:rdf="http://www.w3.org/1999/02/22-rdf-syntax-ns#"
   xmlns:svg="http://www.w3.org/2000/svg"
   xmlns="http://www.w3.org/2000/svg"
   xmlns:sodipodi="http://sodipodi.sourceforge.net/DTD/sodipodi-0.dtd"
   xmlns:inkscape="http://www.inkscape.org/namespaces/inkscape"
   width="210mm"
   height="297mm"
   viewBox="0 0 210 297"
   version="1.1"
   id="svg138"
   inkscape:version="0.92.3 (2405546, 2018-03-11)"
   sodipodi:docname="pendingPayment_new.svg">
  <defs
     id="defs132" />
  <sodipodi:namedview
     id="base"
     pagecolor="#ffffff"
     bordercolor="#666666"
     borderopacity="1.0"
     inkscape:pageopacity="0.0"
     inkscape:pageshadow="2"
     inkscape:zoom="0.49497475"
     inkscape:cx="517.87322"
     inkscape:cy="779.92233"
     inkscape:document-units="mm"
     inkscape:current-layer="layer1"
     showgrid="false"
     inkscape:window-width="1920"
     inkscape:window-height="1017"
     inkscape:window-x="-8"
     inkscape:window-y="-8"
     inkscape:window-maximized="1" />
  <metadata
     id="metadata135">
    <rdf:RDF>
      <cc:Work
         rdf:about="">
        <dc:format>image/svg+xml</dc:format>
        <dc:type
           rdf:resource="http://purl.org/dc/dcmitype/StillImage" />
        <dc:title />
      </cc:Work>
    </rdf:RDF>
  </metadata>
  <g
     inkscape:label="Layer 1"
     inkscape:groupmode="layer"
     id="layer1">
    <path
       id="path181-1-4-1-7"
       style="fill:#000000;stroke-width:0.02201444"
       d="m 103.41823,84.77533 7.78759,5.146286 8.25404,-5.126303 v -4.420708 h -16.04163 z m 17.20045,0.945369 -9.36153,5.805806 -8.92577,-5.793579 V 74.974084 h 18.28582 v 10.746542 z m -9.53859,19.961861 -3.7182,1.50938 -4.41306,0.59346 v 1.68883 h 16.2595 v -1.68883 l -4.01891,-0.48908 z m 9.20275,-5.794112 V 110.32217 H 101.99857 V 99.557203 l 9.21569,-5.713884 z m 2.17272,-24.914738 h 4.0434 v -3.989703 h -4.0434 -1.87902 -18.28581 -1.879 -3.960561 v 3.989703 h 2.346895 1.613666 v 11.771161 l 8.92277,5.945444 -9.32466,5.78292 0.0417,0.06707 -0.0216,0.0149 v 11.811065 h -1.231759 -2.346867 v 3.9897 H 126.4991 v -3.9894 h -4.42535 V 98.570795 l -9.04392,-5.864101 9.44274,-5.854945 -0.041,-0.06708 0.0247,-0.0149 z M 111.47537,55.996064 c -20.221363,0 -36.673218,16.453032 -36.673218,36.672181 0,20.223625 16.451255,36.673215 36.673218,36.673215 20.2219,0 36.67217,-16.44959 36.67217,-36.673215 0,-20.219747 -16.45081,-36.672181 -36.67217,-36.672181 z m -5.2e-4,6.512264 A 30.160113,30.160113 0 0 1 141.63528,92.668761 30.160113,30.160113 0 0 1 111.47485,122.82868 30.160113,30.160113 0 0 1 81.314932,92.668761 30.160113,30.160113 0 0 1 111.47485,62.508328 Z M 58.214016,3.5088298 c -5.410899,0 -52.52104,0.3389556 -53.2272404,11.8354532 h -0.033073 v 0.256315 13.550077 c 0.00969,3.747918 4.8465541,6.68143 12.0426753,8.865092 -0.09864,0.3273 -0.158083,0.660336 -0.177767,0.99994 h -0.02946 v 0.256831 13.526306 C 9.0367542,54.795149 5.1641692,57.394747 4.972823,60.714641 h -0.01912 v 0.256315 13.550077 c 0.00595,2.609823 2.3588887,4.822933 6.2094403,6.667293 -0.143971,0.398129 -0.236354,0.807064 -0.262,1.225249 h -0.02997 v 0.256312 13.55008 c 0.01565,6.560983 14.788564,10.634563 31.202746,12.536183 0.120332,0.0224 0.230992,0.0744 0.35915,0.0744 0.03727,0 0.06923,-0.0227 0.106456,-0.0227 3.164085,0.35711 6.37985,0.63536 9.561689,0.83457 0.06708,0.007 0.125773,0.0372 0.194821,0.0372 0.03727,0 0.06735,-0.0222 0.102835,-0.0222 4.039926,0.24678 8.014745,0.37052 11.733133,0.37052 2.640756,0 5.414082,-0.0656 8.244975,-0.19017 a 42.754055,42.754055 0 0 1 -1.479497,-3.8716 c -1.564497,0.0518 -3.159664,0.0888 -4.792988,0.10439 v -9.860901 c 0.542468,-0.006 1.085332,-0.01476 1.627807,-0.02222 0.104537,-0.0016 0.209148,-0.0047 0.313677,-0.0062 0.279715,-0.0052 0.559022,-0.01498 0.838708,-0.02119 a 42.754055,42.754055 0 0 1 -0.163814,-3.491259 42.754055,42.754055 0 0 1 3.301608,-16.448093 v -2.149739 c 0.35279,-0.02327 0.70036,-0.05207 1.051616,-0.077 A 42.754055,42.754055 0 0 1 83.856379,60.094005 v -7.726659 c 2.000234,-0.131971 3.976926,-0.290187 5.917986,-0.479557 v 4.001307 a 42.754055,42.754055 0 0 1 3.949112,-2.058273 v -2.363682 c 2.033776,-0.244541 4.008488,-0.522653 5.917986,-0.832506 v 0.969968 a 42.754055,42.754055 0 0 1 3.944977,-0.928627 v -0.743625 c 2.09492,-0.412292 4.07556,-0.866087 5.91799,-1.363223 v 1.415418 a 42.754055,42.754055 0 0 1 1.97042,-0.06976 42.754055,42.754055 0 0 1 1.97301,0.0987 v -2.649966 c 2.34544,-0.816607 4.34134,-1.721861 5.91746,-2.714046 v 6.025989 a 42.754055,42.754055 0 0 1 3.9455,0.944644 V 39.018289 l -0.0217,-0.0026 c -0.19524,-3.375216 -4.20944,-6.012725 -12.23801,-8.024834 0.27026,-0.591973 0.42174,-1.207233 0.42375,-1.8464 v -13.80019 h -0.0336 C 110.73503,3.8477854 63.624917,3.5088298 58.214016,3.5088298 Z M 107.52987,20.973396 v 8.162293 c 0,0.299714 -0.15776,0.623482 -0.45165,0.964798 v 0.0031 l -0.0553,-0.01499 -0.7183,0.558107 c -1.04159,0.810718 -2.6412,1.631683 -4.69274,2.424658 v -9.383923 c 2.34545,-0.816685 4.34187,-1.721783 5.91799,-2.714047 z m -98.6311886,0.0026 c 1.5761236,0.992262 3.5725336,1.897878 5.9179846,2.714563 v 9.444902 C 10.979913,31.697414 8.9026258,30.255056 8.8986814,29.144473 Z m 9.8629636,3.921725 c 1.842428,0.497289 3.823065,0.950931 5.917985,1.363224 v 9.628352 c -0.242603,-0.0522 -0.49288,-0.103293 -0.729671,-0.153995 -1.049439,-0.230378 -2.073594,-0.471072 -3.05201,-0.726054 -0.745646,-0.191608 -1.453777,-0.387056 -2.136304,-0.582393 z m 78.904743,0 v 9.507947 c -1.767464,0.51518 -3.757451,1.005961 -5.917467,1.467609 v -9.612332 c 2.094915,-0.412293 4.075038,-0.866085 5.917467,-1.363224 z m -9.862963,2.065506 v 9.669695 c -1.870043,0.329536 -3.838842,0.633 -5.917985,0.907439 V 27.79572 c 2.033767,-0.244544 4.008487,-0.522656 5.917985,-0.832509 z m -59.1783,0.0015 c 1.9095,0.307917 3.8837,0.587981 5.91747,0.830959 v 9.746691 c -0.390599,-0.05219 -0.796761,-0.09256 -1.183392,-0.146245 -0.252521,-0.03727 -0.493061,-0.07447 -0.741555,-0.108003 -1.140172,-0.164024 -2.254769,-0.339559 -3.347601,-0.522965 -0.218969,-0.03727 -0.4299,-0.07671 -0.644922,-0.114724 z m 9.862965,1.256771 c 1.941058,0.187135 3.917744,0.347594 5.917983,0.479557 v 9.819556 C 42.397944,38.376748 40.417308,38.212873 38.48809,38.010084 v -5.19e-4 z m 39.45237,0 v 9.784416 c -1.905548,0.2013 -3.878289,0.37632 -5.917983,0.522449 v -9.827308 c 2.000242,-0.131955 3.976923,-0.290184 5.917983,-0.479557 z m -9.862963,0.702284 v 9.841259 c -0.335351,0.0149 -0.656963,0.03728 -0.994254,0.05219 -0.02758,0.002 -0.05509,0.0022 -0.08475,0.0041 -1.323637,0.05963 -2.673041,0.102518 -4.040066,0.133842 -0.21308,0.006 -0.426157,0.0075 -0.639236,0.01499 -0.702241,0.01491 -1.420051,0.01477 -2.132169,0.02222 v -9.853146 c 0.542468,-0.006 1.084813,-0.01477 1.627291,-0.02222 0.104534,-0.0019 0.209148,-0.0041 0.313674,-0.0062 v 0.0021 c 1.986434,-0.03728 3.972938,-0.09817 5.949508,-0.189134 z m -19.726444,5.16e-4 c 1.97657,0.09245 3.963075,0.153352 5.949508,0.189137 0.104537,0 0.209148,0.0022 0.313677,0.0041 v 0.0015 c 0.54247,0.0074 1.084813,0.01476 1.627291,0.02222 v 9.84953 c -2.65515,-0.02237 -5.294503,-0.09484 -7.890476,-0.225311 z M 20.734135,44.647921 c 1.576125,0.992262 3.572534,1.897877 5.917984,2.714561 v 9.371521 C 23.551161,55.536639 21.550978,54.313544 20.900016,53.224657 L 20.767724,53.004 c -0.01188,-0.05963 -0.03135,-0.125931 -0.03359,-0.187069 z m 9.86348,3.919141 c 1.842429,0.497287 3.823062,0.952867 5.917985,1.363223 v 9.612849 c -2.179743,-0.467463 -4.156432,-0.964742 -5.917985,-1.481563 z m 9.862965,2.069639 c 1.909498,0.309407 3.884216,0.587592 5.917983,0.832509 v 9.75651 c -1.207243,-0.159549 -2.389036,-0.325887 -3.523297,-0.50333 -0.04549,-0.0074 -0.0905,-0.01476 -0.135911,-0.02222 v -0.0016 c -0.781156,-0.124502 -1.5151,-0.258363 -2.258775,-0.388091 z m 9.862963,1.259356 c 1.94106,0.187134 3.917749,0.347078 5.917986,0.479039 v 9.831443 c -0.159777,-0.0149 -0.329602,-0.02201 -0.489376,-0.02946 -0.268253,-0.02236 -0.534575,-0.03758 -0.798918,-0.05994 v -0.0041 c -1.262485,-0.09843 -2.495182,-0.207076 -3.698483,-0.327112 -0.258411,-0.02236 -0.516628,-0.05222 -0.773078,-0.07906 -0.05294,-0.006 -0.104833,-0.01499 -0.158131,-0.01499 z M 79.91295,52.59524 v 9.839192 c -2.592025,0.128244 -5.227431,0.199274 -7.890473,0.226859 V 52.81383 c 0.542467,-0.006 1.084815,-0.01476 1.627291,-0.02222 0.104523,-0.0019 0.20915,-0.0041 0.313676,-0.0062 v -0.001 c 1.986434,-0.03728 3.972936,-0.09819 5.949506,-0.189134 z m -19.725926,0.0016 c 1.976562,0.09245 3.962554,0.153347 5.94899,0.189135 0.104513,0 0.209148,0.0022 0.313677,0.0041 v 5.18e-4 c 0.542467,0.0074 1.085331,0.01477 1.627806,0.02222 v 9.849527 c -0.960665,-0.0074 -1.929495,-0.01483 -2.86649,-0.03721 -0.143973,-0.0039 -0.293659,-0.0064 -0.437701,-0.0078 -1.483415,-0.03727 -2.933641,-0.09448 -4.357872,-0.163814 -0.07693,-0.0039 -0.153482,-0.0072 -0.22841,-0.0072 z M 8.8986814,66.346336 c 1.5761236,0.992188 3.5725336,1.897878 5.9179846,2.714565 v 9.407178 l -1.126546,-0.4377 -0.02377,0.02222 C 10.570348,76.768808 8.9037442,75.508876 8.8986814,74.514831 Z m 9.8629636,3.924308 c 1.842429,0.495052 3.823066,0.950878 5.917985,1.36116 v 9.625766 c -1.810862,-0.384707 -3.481901,-0.78931 -5.002795,-1.203542 -0.240665,-0.0671 -0.488769,-0.131693 -0.72347,-0.201022 -0.06487,-0.02236 -0.126625,-0.03728 -0.19172,-0.05219 z m 9.86348,2.062925 c 1.9095,0.309406 3.883702,0.589309 5.91747,0.83199 v 9.75651 c -2.085065,-0.274365 -4.059256,-0.576154 -5.91747,-0.903303 z m 9.862965,1.262454 c 1.941058,0.187137 3.917749,0.347596 5.917983,0.479557 v 9.829374 c -1.657,-0.118552 -3.29448,-0.252936 -4.894273,-0.40876 v -0.0021 c -0.201226,-0.02237 -0.400232,-0.04451 -0.599448,-0.05943 -0.142033,-0.01491 -0.282236,-0.03005 -0.424262,-0.04496 z m 9.865029,0.698151 c 1.976562,0.09245 3.963075,0.153865 5.949509,0.18965 0.102589,0 0.207081,0.0016 0.31161,0.0036 v 0.0021 c 0.54247,0.0074 1.084813,0.01477 1.627291,0.02222 v 9.859346 c -0.382699,-0.0039 -0.765472,-0.0043 -1.146183,-0.0078 -0.173567,-0.002 -0.341006,-0.0072 -0.512631,-0.0072 -0.903459,-0.0149 -1.802873,-0.03734 -2.696477,-0.06718 -0.11049,-0.0039 -0.221271,-0.0075 -0.331763,-0.01499 -1.075079,-0.03727 -2.142059,-0.08105 -3.201356,-0.131773 z m 19.724378,0 v 9.849008 c -0.422135,0.02236 -0.846285,0.04503 -1.274339,0.05995 -1.183574,0.05218 -2.38493,0.09081 -3.605982,0.119888 -0.28801,0.0074 -0.578165,0.01499 -0.868164,0.01499 -0.704255,0.0149 -1.426351,0.01475 -2.140437,0.02222 v -9.853147 c 0.542464,-0.006 1.085339,-0.01477 1.627806,-0.02222 0.10259,0 0.207082,-0.0022 0.311608,-0.0041 v 0.0026 c 1.986434,-0.03727 3.972938,-0.09819 5.949508,-0.189134 z M 14.816666,88.04527 c 1.576123,0.992188 3.572536,1.897375 5.917986,2.714046 v 9.444904 c -3.836749,-1.438038 -5.914043,-2.879803 -5.917986,-3.990455 z m 9.862964,3.919657 c 1.842431,0.497295 3.823067,0.952944 5.917985,1.363226 v 9.628347 c -2.181717,-0.46373 -4.160375,-0.95494 -5.917985,-1.46192 z m 9.862965,2.069126 c 1.909498,0.309407 3.884213,0.588333 5.917985,0.832506 v 9.756511 c -2.085067,-0.27437 -4.059772,-0.57592 -5.917985,-0.90382 z m 9.863478,1.256252 c 1.94106,0.187143 3.917228,0.347605 5.91747,0.479558 v 9.837637 c -2.049552,-0.14384 -4.021786,-0.31975 -5.91747,-0.51882 z m 9.860899,0.701249 0.0021,0.001 c 1.976569,0.09243 3.963072,0.153876 5.949508,0.189653 0.104534,0.0016 0.209092,0.0047 0.311608,0.0062 0.542467,0.0074 1.084823,0.01476 1.62729,0.02222 v 9.860896 c -2.726161,-0.0224 -5.357627,-0.10441 -7.890473,-0.22893 z" />
  </g>
</svg>
