<?xml version="1.0" encoding="UTF-8" standalone="no"?>
<!-- Created with Inkscape (http://www.inkscape.org/) -->

<svg
   xmlns:dc="http://purl.org/dc/elements/1.1/"
   xmlns:cc="http://creativecommons.org/ns#"
   xmlns:rdf="http://www.w3.org/1999/02/22-rdf-syntax-ns#"
   xmlns:svg="http://www.w3.org/2000/svg"
   xmlns="http://www.w3.org/2000/svg"
   xmlns:sodipodi="http://sodipodi.sourceforge.net/DTD/sodipodi-0.dtd"
   xmlns:inkscape="http://www.inkscape.org/namespaces/inkscape"
   width="210mm"
   height="297mm"
   viewBox="0 0 210 297"
   version="1.1"
   id="svg5008"
   inkscape:version="0.92.3 (2405546, 2018-03-11)"
   sodipodi:docname="A+.svg">
  <defs
     id="defs5002" />
  <sodipodi:namedview
     id="base"
     pagecolor="#ffffff"
     bordercolor="#666666"
     borderopacity="1.0"
     inkscape:pageopacity="0.0"
     inkscape:pageshadow="2"
     inkscape:zoom="0.35"
     inkscape:cx="-111.42857"
     inkscape:cy="560"
     inkscape:document-units="mm"
     inkscape:current-layer="layer1"
     showgrid="false"
     inkscape:window-width="1920"
     inkscape:window-height="1017"
     inkscape:window-x="-8"
     inkscape:window-y="-8"
     inkscape:window-maximized="1" />
  <metadata
     id="metadata5005">
    <rdf:RDF>
      <cc:Work
         rdf:about="">
        <dc:format>image/svg+xml</dc:format>
        <dc:type
           rdf:resource="http://purl.org/dc/dcmitype/StillImage" />
        <dc:title></dc:title>
      </cc:Work>
    </rdf:RDF>
  </metadata>
  <g
     inkscape:label="Layer 1"
     inkscape:groupmode="layer"
     id="layer1">
    <path
       inkscape:connector-curvature="0"
       style="fill:#000000;stroke-width:0.56782407"
       d="m 6.6776099,-0.14107257 c -3.6212274,0 -6.53568371,2.91445107 -6.53568371,6.53568107 V 39.53109 c 0,3.621238 2.91445631,6.536996 6.53568371,6.536996 H 203.47715 c 3.62123,0 6.53569,-2.915758 6.53569,-6.536996 V 6.3946085 c 0,-3.62123 -2.91446,-6.53568107 -6.53569,-6.53568107 z M 60.765184,9.662458 c 0.477275,0 0.878601,0.1627387 1.204028,0.488143 0.325401,0.325409 0.48814,0.715731 0.48814,1.171295 0,0.31456 -0.129664,0.688996 -0.390006,1.122872 -1.17146,1.919896 -2.029244,3.719775 -2.571605,5.401038 -0.531497,1.681264 -0.797005,3.384545 -0.797005,5.109196 0,1.735497 0.265508,3.443629 0.797005,5.1249 0.542361,1.681256 1.400145,3.482447 2.571605,5.402345 0.260342,0.42302 0.390006,0.797463 0.390006,1.12287 0,0.455567 -0.16284,0.845881 -0.48814,1.171288 -0.325427,0.325409 -0.726753,0.488153 -1.204028,0.488153 -0.401326,0 -0.753724,-0.130982 -1.057422,-0.391303 -0.433894,-0.37964 -1.009,-1.231285 -1.724889,-2.554597 -1.03045,-1.919897 -1.735221,-3.503218 -2.114868,-4.750613 -0.596582,-1.909042 -0.895165,-3.779926 -0.895165,-5.613043 0,-1.898203 0.314461,-3.818034 0.943586,-5.759621 0.466411,-1.431789 1.188403,-3.026137 2.164607,-4.783333 0.705049,-1.258236 1.225023,-2.029158 1.561289,-2.311171 0.33624,-0.292871 0.710696,-0.438419 1.122862,-0.438419 z m 50.974166,0 c 0.40135,0 0.75504,0.1296642 1.05876,0.389993 0.43387,0.368793 1.00766,1.220431 1.72355,2.554597 1.03045,1.919892 1.73656,3.498361 2.11618,4.734907 0.59659,1.919891 0.89385,3.790776 0.89385,5.613047 0,1.8982 -0.31446,3.822889 -0.94356,5.775326 -0.46641,1.431786 -1.18709,3.021272 -2.16331,4.767618 -0.70505,1.258234 -1.22634,2.034021 -1.56259,2.326885 -0.33626,0.292862 -0.71069,0.439727 -1.12288,0.439727 -0.47725,0 -0.87729,-0.162739 -1.20269,-0.488153 -0.3254,-0.325407 -0.48816,-0.715721 -0.48816,-1.171288 0,-0.325407 0.12966,-0.69985 0.39,-1.12287 1.17146,-1.919898 2.02309,-3.721089 2.55459,-5.402345 0.54234,-1.681271 0.81271,-3.389403 0.81271,-5.1249 0,-1.724651 -0.27037,-3.427932 -0.81271,-5.109196 -0.5315,-1.681263 -1.38313,-3.481142 -2.55459,-5.401038 -0.26031,-0.433876 -0.39,-0.808312 -0.39,-1.122872 0,-0.455564 0.16284,-0.845886 0.48816,-1.171295 0.3254,-0.3254069 0.72544,-0.488143 1.20269,-0.488143 z m 36.98279,0.29315 h 3.90517 v 7.108896 c 0.69421,-0.412178 1.39412,-0.715615 2.09917,-0.910856 0.71588,-0.206095 1.43656,-0.308856 2.16329,-0.308856 1.14978,0 2.17516,0.195813 3.07547,0.5863 0.90028,0.390489 1.64299,1.008384 2.22873,1.854441 0.59658,0.835207 0.89514,1.892378 0.89514,3.172303 v 6.264783 c 0.84606,0 1.39913,0.08071 1.65945,0.243424 0.52065,0.336256 0.7813,0.813458 0.7813,1.431726 0,0.488113 -0.16892,0.889456 -0.50516,1.204016 -0.33624,0.30371 -0.90519,0.455433 -1.70787,0.455433 h -3.80701 c -0.79184,0 -1.36208,-0.151723 -1.70919,-0.455433 -0.33624,-0.31456 -0.50384,-0.720761 -0.50384,-1.219715 0,-0.607428 0.26065,-1.079771 0.7813,-1.416027 0.27116,-0.173552 0.82423,-0.25426 1.65943,-0.243424 v -6.037063 c 0,-0.856906 -0.19577,-1.45892 -0.5863,-1.806022 -0.5098,-0.466414 -1.26355,-0.698845 -2.26145,-0.698845 -0.7376,0 -1.39341,0.145543 -1.96829,0.438412 -0.56404,0.282022 -1.32881,0.90123 -2.29417,1.855748 v 6.24777 c 0.8569,0 1.40997,0.08071 1.65945,0.243424 0.53149,0.336256 0.797,0.813458 0.797,1.431726 0,0.488113 -0.17373,0.889456 -0.52088,1.204016 -0.33624,0.30371 -0.9052,0.455433 -1.70785,0.455433 h -3.79133 c -0.80266,0 -1.37776,-0.151723 -1.72487,-0.455433 -0.33626,-0.31456 -0.50386,-0.720761 -0.50386,-1.219715 0,-0.607428 0.2655,-1.079771 0.797,-1.416027 0.26032,-0.173552 0.81339,-0.25426 1.65945,-0.243424 V 13.290194 h -0.56928 c -0.80268,0 -1.37779,-0.151722 -1.72489,-0.455433 -0.33624,-0.314552 -0.50384,-0.720756 -0.50384,-1.219715 0,-0.488102 0.16765,-0.884591 0.50384,-1.188306 0.3471,-0.314552 0.92221,-0.471132 1.72489,-0.471132 z m -117.910654,1.366288 7.208367,0.0157 6.637769,16.385016 c 0.780974,0 1.296085,0.08689 1.545588,0.26044 0.498954,0.357937 0.748557,0.828983 0.748557,1.414708 0,0.488109 -0.167652,0.889456 -0.503842,1.204013 -0.33624,0.30371 -0.906509,0.455433 -1.709161,0.455433 h -4.49018 c -0.802678,0 -1.377784,-0.151723 -1.724889,-0.455433 -0.33624,-0.314557 -0.503842,-0.720761 -0.503842,-1.219712 0,-0.488113 0.167652,-0.884599 0.503842,-1.188309 0.347105,-0.314565 0.922211,-0.47114 1.724889,-0.47114 h 0.812705 L 40.264285,25.688887 H 32.16207 l -0.813997,2.033727 h 0.813997 c 0.802678,0 1.371605,0.156585 1.70787,0.47114 0.347105,0.30371 0.520861,0.705054 0.520861,1.204008 0,0.488109 -0.17373,0.889456 -0.520861,1.204013 -0.336265,0.30371 -0.905192,0.455433 -1.70787,0.455433 h -4.49018 c -0.802652,0 -1.372921,-0.151723 -1.709161,-0.455433 -0.347105,-0.314557 -0.52086,-0.720761 -0.52086,-1.219712 0,-0.498959 0.179807,-0.90647 0.537878,-1.221029 0.357944,-0.314558 0.948929,-0.460108 1.773285,-0.43842 l 5.238763,-13.049098 h -2.180309 c -0.802652,0 -1.377783,-0.151722 -1.724863,-0.455425 -0.336266,-0.314565 -0.503867,-0.722068 -0.503867,-1.221027 0,-0.498951 0.167652,-0.900297 0.503867,-1.204008 0.34708,-0.314557 0.922211,-0.471137 1.724863,-0.471137 z m 40.301661,0 10.071819,0.0157 c 0.802652,0 1.371604,0.151722 1.70787,0.455433 0.34708,0.30371 0.52086,0.705054 0.52086,1.204008 0,0.498959 -0.17373,0.906462 -0.52086,1.221026 -0.336266,0.303711 -0.905218,0.455426 -1.70787,0.455426 H 77.81633 v 13.049123 h 3.368636 c 0.802652,0 1.371604,0.156585 1.70787,0.47114 0.34708,0.30371 0.52086,0.705054 0.52086,1.204008 0,0.488109 -0.17373,0.889456 -0.52086,1.204013 -0.336266,0.30371 -0.905218,0.455433 -1.70787,0.455433 H 71.113147 c -0.802677,0 -1.377784,-0.151723 -1.724889,-0.455433 -0.33624,-0.314557 -0.503841,-0.720761 -0.503841,-1.219712 0,-0.488113 0.167651,-0.884599 0.503841,-1.188309 0.347105,-0.314565 0.922212,-0.47114 1.724889,-0.47114 H 74.48044 V 14.673493 h -3.367293 c -0.802677,0 -1.377784,-0.151722 -1.724889,-0.455425 -0.33624,-0.314565 -0.503841,-0.722068 -0.503841,-1.221027 0,-0.498951 0.167651,-0.900297 0.503841,-1.204008 0.347105,-0.314559 0.922212,-0.471137 1.724889,-0.471137 z m 19.980038,0 10.070505,0.0157 c 0.80267,0 1.37292,0.151722 1.70918,0.455433 0.34711,0.30371 0.52086,0.705054 0.52086,1.204008 0,0.498959 -0.17373,0.906462 -0.52086,1.221026 -0.33626,0.303711 -0.90651,0.455426 -1.70918,0.455426 h -3.367296 v 13.049123 h 3.367296 c 0.80267,0 1.37292,0.156585 1.70918,0.47114 0.34711,0.30371 0.52086,0.705054 0.52086,1.204008 0,0.488109 -0.17373,0.889456 -0.52086,1.204013 -0.33626,0.30371 -0.90651,0.455433 -1.70918,0.455433 H 91.093185 c -0.802677,0 -1.377783,-0.151723 -1.724888,-0.455433 -0.336241,-0.314557 -0.503842,-0.720761 -0.503842,-1.219712 0,-0.488113 0.167652,-0.884599 0.503842,-1.188309 0.347105,-0.314565 0.922211,-0.47114 1.724888,-0.47114 h 3.367293 V 14.673493 h -3.367293 c -0.802677,0 -1.377783,-0.151722 -1.724888,-0.455425 -0.336241,-0.314565 -0.503842,-0.722068 -0.503842,-1.221027 0,-0.498951 0.167652,-0.900297 0.503842,-1.204008 0.347105,-0.314559 0.922211,-0.471137 1.724888,-0.471137 z m 37.698625,0 7.54864,0.0157 c 2.35376,0 4.17569,0.586133 5.46646,1.757591 1.30163,1.160621 1.95261,2.576346 1.95261,4.246761 0,1.041299 -0.30345,1.989537 -0.91087,2.846435 -0.60742,0.846057 -1.52391,1.601097 -2.74959,2.26276 0.70503,0.61827 1.45877,1.409931 2.26145,2.375304 0.49896,0.618265 1.17197,1.583695 2.01803,2.896165 0.84603,0 1.40397,0.08689 1.67515,0.26044 0.48809,0.336241 0.73285,0.807287 0.73285,1.414708 0,0.488109 -0.16891,0.889456 -0.50515,1.204013 -0.33625,0.30371 -0.9052,0.455433 -1.70787,0.455433 h -1.90417 c -2.70086,-4.176044 -4.94003,-6.686863 -6.71891,-7.53292 h -3.30317 v 4.198329 h 1.204 c 0.80268,0 1.37163,0.156584 1.70787,0.471139 0.34711,0.303711 0.52086,0.705054 0.52086,1.204008 0,0.48811 -0.17373,0.889456 -0.52086,1.204013 -0.33624,0.303711 -0.90519,0.455433 -1.70787,0.455433 h -5.05946 c -0.80265,0 -1.37776,-0.151722 -1.72486,-0.455433 -0.33627,-0.314557 -0.50516,-0.72076 -0.50516,-1.219712 0,-0.488112 0.17373,-0.884598 0.52086,-1.188309 0.3471,-0.314565 0.91735,-0.471139 1.70916,-0.471139 h 0.51957 V 14.673493 h -0.51957 c -0.80265,0 -1.37776,-0.151722 -1.72486,-0.455425 -0.33627,-0.314565 -0.50516,-0.722068 -0.50516,-1.221027 0,-0.498951 0.16892,-0.900297 0.50516,-1.204008 0.3471,-0.314559 0.92221,-0.471137 1.72486,-0.471137 z m 47.2653,0.797002 c 0.49896,0 0.90029,0.173755 1.20401,0.52087 0.31456,0.336249 0.47113,0.905196 0.47113,1.707865 l -0.0157,5.564621 h 4.76631 c 0.80267,0 1.37293,0.151722 1.70918,0.45543 0.3471,0.303711 0.51955,0.705057 0.51955,1.204016 0,0.498951 -0.17246,0.906461 -0.51955,1.221019 -0.33625,0.30371 -0.90651,0.455433 -1.70918,0.455433 h -4.76631 v 5.580326 c 0,0.802674 -0.15172,1.37778 -0.45543,1.724875 -0.30371,0.336251 -0.70505,0.50386 -1.20401,0.50386 -0.49896,0 -0.90647,-0.167601 -1.22103,-0.50386 -0.30368,-0.347095 -0.4554,-0.922201 -0.4554,-1.724875 v -5.580326 h -4.76761 c -0.80268,0 -1.37779,-0.151723 -1.72489,-0.455433 -0.33624,-0.314558 -0.50384,-0.722068 -0.50384,-1.221019 0,-0.498959 0.16765,-0.900305 0.50384,-1.204016 0.3471,-0.314557 0.92221,-0.466272 1.72489,-0.45543 h 4.76761 v -5.564621 c 0,-0.791822 0.15172,-1.36077 0.45543,-1.707865 0.31456,-0.347105 0.72206,-0.52087 1.22102,-0.52087 z m -43.40984,2.554598 v 5.514894 h 2.60301 c 0.96539,0 1.82804,-0.145543 2.58733,-0.438411 1.01959,-0.390492 1.70233,-0.802857 2.04943,-1.236734 0.35794,-0.433876 0.53788,-0.862125 0.53788,-1.285152 0,-0.629119 -0.33649,-1.20908 -1.00903,-1.740577 -0.6725,-0.542346 -1.6538,-0.81402 -2.94459,-0.81402 z m -96.45044,1.073143 -2.701194,6.606353 h 5.386662 z"
       id="rect276-2-6-7-0-2-7-5" />
  </g>
</svg>
