<?xml version="1.0" encoding="UTF-8" standalone="no"?>
<!-- Created with Inkscape (http://www.inkscape.org/) -->

<svg
   xmlns:dc="http://purl.org/dc/elements/1.1/"
   xmlns:cc="http://creativecommons.org/ns#"
   xmlns:rdf="http://www.w3.org/1999/02/22-rdf-syntax-ns#"
   xmlns:svg="http://www.w3.org/2000/svg"
   xmlns="http://www.w3.org/2000/svg"
   xmlns:sodipodi="http://sodipodi.sourceforge.net/DTD/sodipodi-0.dtd"
   xmlns:inkscape="http://www.inkscape.org/namespaces/inkscape"
   width="210mm"
   height="297mm"
   viewBox="0 0 210 297"
   version="1.1"
   id="svg237"
   inkscape:version="0.92.3 (2405546, 2018-03-11)"
   sodipodi:docname="abc.svg">
  <defs
     id="defs231" />
  <sodipodi:namedview
     id="base"
     pagecolor="#ffffff"
     bordercolor="#666666"
     borderopacity="1.0"
     inkscape:pageopacity="0.0"
     inkscape:pageshadow="2"
     inkscape:zoom="0.35"
     inkscape:cx="-377.14286"
     inkscape:cy="560"
     inkscape:document-units="mm"
     inkscape:current-layer="layer1"
     showgrid="false"
     inkscape:window-width="1920"
     inkscape:window-height="1017"
     inkscape:window-x="-8"
     inkscape:window-y="-8"
     inkscape:window-maximized="1" />
  <metadata
     id="metadata234">
    <rdf:RDF>
      <cc:Work
         rdf:about="">
        <dc:format>image/svg+xml</dc:format>
        <dc:type
           rdf:resource="http://purl.org/dc/dcmitype/StillImage" />
        <dc:title />
      </cc:Work>
    </rdf:RDF>
  </metadata>
  <g
     inkscape:label="Layer 1"
     inkscape:groupmode="layer"
     id="layer1">
    <path
       style="fill:#3b88c3;fill-opacity:1;stroke-width:0.58669347"
       d="M 31.384766 2.3613281 C 16.217591 2.3613281 4.0058594 14.571107 4.0058594 29.738281 L 4.0058594 381.01562 C 4.0058594 396.18279 16.217591 408.39258 31.384766 408.39258 L 770.87305 408.39258 C 786.04022 408.39258 798.25 396.18279 798.25 381.01562 L 798.25 29.738281 C 798.25 14.571107 786.04022 2.3613281 770.87305 2.3613281 L 31.384766 2.3613281 z M 665.07617 61.34375 C 693.65507 61.34375 749.22266 70.736431 749.22266 105.18555 C 749.22266 119.27363 739.43951 131.4043 724.96094 131.4043 C 708.91684 131.4043 697.95984 117.70703 665.07617 117.70703 C 616.55229 117.70703 591.49414 158.80907 591.49414 206.55078 C 591.49414 253.11867 616.93062 293.04688 665.07617 293.04688 C 697.95984 293.04688 711.25233 276.62305 727.30859 276.62305 C 744.93034 276.62305 753.14844 294.22066 753.14844 303.2207 C 753.14844 340.80076 694.04475 349.41016 665.07422 349.41016 C 585.62265 349.41016 530.43359 286.39286 530.43359 205.37695 C 530.43446 123.96719 585.23297 61.34375 665.07617 61.34375 z M 342.7168 63.033203 L 417.86328 63.033203 C 458.56093 63.033203 491.45703 91.184212 491.45703 133.82422 C 491.45703 161.97422 480.08429 180.88626 455.03906 192.9375 L 455.03906 193.75586 C 488.32657 198.58206 514.5332 227.13287 514.5332 262.11914 C 514.5332 318.83416 477.74871 349.41016 423.7207 349.41016 L 343.10742 349.41016 C 325.09407 349.41016 311.80078 337.73405 311.80078 318.83398 L 311.80078 93.193359 L 311.80273 93.193359 C 311.80273 73.890843 324.71561 63.033203 342.7168 63.033203 z M 172.40039 63.691406 C 193.14087 63.691406 207.63129 77.388504 214.27148 96.171875 L 290.99609 309.08984 C 293.33153 315.3506 294.12695 320.84274 294.12695 323.58203 C 294.12695 338.84393 281.59337 349.4082 267.12695 349.4082 C 250.67902 349.4082 242.45998 340.79988 238.54688 329.06055 L 226.80859 292.26367 L 117.99609 292.26367 L 106.25586 328.66992 C 102.34275 340.80089 94.113554 349.41016 78.068359 349.41016 C 62.415922 349.41016 49.109375 337.67113 49.109375 322.01758 C 49.109375 315.75682 51.067429 311.05916 51.849609 309.08984 L 130.51758 96.171875 C 137.16997 78.170681 152.43099 63.691406 172.40039 63.691406 z M 370.5 116.11523 L 370.5 176.44922 L 401.03711 176.44922 C 420.21213 176.44922 432.73437 164.78798 432.73438 144.68164 C 432.73438 125.78158 418.25615 116.11523 401.03711 116.11523 L 370.5 116.11523 z M 172.00977 124.75195 L 134.82227 238.25977 L 209.18555 238.25977 L 172.79297 124.75195 L 172.00977 124.75195 z M 370.5 229.54297 L 370.5 296.3125 L 416.68945 296.3125 C 437.83379 296.3125 453.48633 283.84619 453.48633 261.32617 C 453.48633 242.41243 439.38507 229.54297 411.99219 229.54297 L 370.5 229.54297 z "
       transform="scale(0.26458333)"
       id="rect157" />
  </g>
</svg>
