<?xml version="1.0" encoding="UTF-8" standalone="no"?>
<svg
   xmlns:dc="http://purl.org/dc/elements/1.1/"
   xmlns:cc="http://creativecommons.org/ns#"
   xmlns:rdf="http://www.w3.org/1999/02/22-rdf-syntax-ns#"
   xmlns:svg="http://www.w3.org/2000/svg"
   xmlns="http://www.w3.org/2000/svg"
   xmlns:sodipodi="http://sodipodi.sourceforge.net/DTD/sodipodi-0.dtd"
   xmlns:inkscape="http://www.inkscape.org/namespaces/inkscape"
   id="Layer_3"
   enable-background="new 0 0 64 64"
   height="512"
   viewBox="0 0 64 64"
   width="512"
   version="1.1"
   sodipodi:docname="approval_combined.svg"
   inkscape:version="0.92.3 (2405546, 2018-03-11)">
  <metadata
     id="metadata25">
    <rdf:RDF>
      <cc:Work
         rdf:about="">
        <dc:format>image/svg+xml</dc:format>
        <dc:type
           rdf:resource="http://purl.org/dc/dcmitype/StillImage" />
        <dc:title></dc:title>
      </cc:Work>
    </rdf:RDF>
  </metadata>
  <defs
     id="defs23" />
  <sodipodi:namedview
     pagecolor="#ffffff"
     bordercolor="#666666"
     borderopacity="1"
     objecttolerance="10"
     gridtolerance="10"
     guidetolerance="10"
     inkscape:pageopacity="0"
     inkscape:pageshadow="2"
     inkscape:window-width="1920"
     inkscape:window-height="1017"
     id="namedview21"
     showgrid="false"
     inkscape:zoom="0.4609375"
     inkscape:cx="-14.101695"
     inkscape:cy="256"
     inkscape:window-x="-8"
     inkscape:window-y="-8"
     inkscape:window-maximized="1"
     inkscape:current-layer="Layer_3" />
  <path
     id="path18"
     d="m 43,53 v -1 c 0,-1.654 1.346,-3 3,-3 h 2 v -1.751 c 0,-2.625 -0.621,-5.254 -1.795,-7.603 l -0.1,-0.199 C 46.036,39.309 46,39.155 46,39 v -1 c 0,-2.757 2.243,-5 5,-5 1.13,0 2.162,0.391 3,1.026 V 11 h -7 c -0.552,0 -1,-0.447 -1,-1 V 3 H 10 v 42 h 6.586 L 20,41.586 V 36 c 0,-0.553 0.448,-1 1,-1 h 1 c 2.206,0 4,1.794 4,4 v 6 h 9 c 0.552,0 1,0.447 1,1 v 4 4 1 h 3.184 C 39.598,53.839 40.698,53 42,53 Z M 12,5 H 44 V 7 H 12 Z m 0,4 h 32 v 2 H 12 Z m 0,6 v -2 h 32 v 2 z m 24,24 c -6.065,0 -11,-4.935 -11,-11 0,-6.065 4.935,-11 11,-11 6.065,0 11,4.935 11,11 0,6.065 -4.935,11 -11,11 z m 7,20 h 16 v 2 H 43 Z M 60,55 H 42 c -0.551,0 -1,0.448 -1,1 v 1 h 20 v -1 c 0,-0.552 -0.449,-1 -1,-1 z M 45,52 v 1 h 12 v -1 c 0,-0.552 -0.449,-1 -1,-1 H 46 c -0.551,0 -1,0.448 -1,1 z M 24,46 v -7 c 0,-1.103 -0.897,-2 -2,-2 v 5 c 0,0.266 -0.105,0.52 -0.293,0.707 l -4,4 C 17.52,46.895 17.265,47 17,47 h -2 v 12 h 2 c 0.155,0 0.309,0.036 0.447,0.105 L 21.236,61 H 33 c 0.551,0 1,-0.448 1,-1 v -1 h -8 v -2 h 8 v -2 h -8 v -2 h 8 v -2 h -8 v -2 h 8 v -2 h -9 c -0.552,0 -1,-0.447 -1,-1 z M 48,4.414 V 9 h 4.586 z M 3,47 H 13 V 59 H 3 Z M 36,19 c -4.962,0 -9,4.037 -9,9 0,4.963 4.038,9 9,9 4.962,0 9,-4.037 9,-9 0,-4.963 -4.038,-9 -9,-9 z m 0.929,14.371 c -0.125,0.312 -0.398,0.541 -0.728,0.608 C 36.134,33.993 36.067,34 36,34 35.737,34 35.482,33.896 35.293,33.707 l -4,-4 1.414,-1.414 2.928,2.928 3.437,-8.592 1.857,0.742 z M 52,49 v -1.751 c 0,-2.93 0.691,-5.863 2,-8.485 V 38 c 0,-1.654 -1.346,-3 -3,-3 -1.654,0 -3,1.346 -3,3 v 0.764 c 1.309,2.622 2,5.556 2,8.485 V 49 Z" />
</svg>
