<svg id="Layer_3" enable-background="new 0 0 64 64" height="512" viewBox="0 0 64 64" width="512" xmlns="http://www.w3.org/2000/svg">
<path d="m52 49v-1.751c0-2.93.691-5.863 2-8.485v-.764c0-1.654-1.346-3-3-3s-3 1.346-3 3v.764c1.309 2.622 2 5.556 2 8.485v1.751z"/>
<path d="m36 19c-4.962 0-9 4.037-9 9s4.038 9 9 9 9-4.037 9-9-4.038-9-9-9zm.929 14.371c-.125.312-.398.541-.728.608-.067.014-.134.021-.201.021-.263 0-.518-.104-.707-.293l-4-4 1.414-1.414 2.928 2.928 3.437-8.592 1.857.742z"/><path d="m3 47h10v12h-10z"/><path d="m48 4.414v4.586h4.586z"/><path d="m24 46v-7c0-1.103-.897-2-2-2v5c0 .266-.105.52-.293.707l-4 4c-.187.188-.442.293-.707.293h-2v12h2c.155 0 .309.036.447.105l3.789 1.895h11.764c.551 0 1-.448 1-1v-1h-8v-2h8v-2h-8v-2h8v-2h-8v-2h8v-2h-9c-.552 0-1-.447-1-1z"/><path d="m45 52v1h12v-1c0-.552-.449-1-1-1h-10c-.551 0-1 .448-1 1z"/><path d="m60 55h-18c-.551 0-1 .448-1 1v1h20v-1c0-.552-.449-1-1-1z"/><path d="m43 59h16v2h-16z"/><path d="m43 53v-1c0-1.654 1.346-3 3-3h2v-1.751c0-2.625-.621-5.254-1.795-7.603l-.1-.199c-.069-.138-.105-.292-.105-.447v-1c0-2.757 2.243-5 5-5 1.13 0 2.162.391 3 1.026v-23.026h-7c-.552 0-1-.447-1-1v-7h-36v42h6.586l3.414-3.414v-5.586c0-.553.448-1 1-1h1c2.206 0 4 1.794 4 4v6h9c.552 0 1 .447 1 1v4 4 1h3.184c.414-1.161 1.514-2 2.816-2zm-31-48h32v2h-32zm0 4h32v2h-32zm0 6v-2h32v2zm24 24c-6.065 0-11-4.935-11-11s4.935-11 11-11 11 4.935 11 11-4.935 11-11 11z"/></svg>