<?xml version="1.0" encoding="iso-8859-1"?>
<!-- Generator: Adobe Illustrator 19.0.0, SVG Export Plug-In . SVG Version: 6.00 Build 0)  -->
<svg version="1.1" id="Layer_1" xmlns="http://www.w3.org/2000/svg" xmlns:xlink="http://www.w3.org/1999/xlink" x="0px" y="0px"
	 viewBox="0 0 512 512" style="enable-background:new 0 0 512 512;" xml:space="preserve">
<g>
	<g>
		<path d="M0,117.336v277.328h512V117.336H0z M490.672,373.336H21.328V138.664h469.344V373.336z"/>
	</g>
</g>
<g>
	<g>
		<path d="M448,149.336H63.938c0.031,0.656,0.062,1.328,0.062,2c0,17.672-14.328,32-32,32v149.328c17,0,30.891,13.25,31.938,30H448
			c0-17.672,14.328-32,32-32V181.336C462.328,181.336,448,167.008,448,149.336z M458.672,313.789
			c-12.297,5.375-22.172,15.25-27.547,27.547H79.953c-5.562-11.391-15.031-20.453-26.625-25.547V200.211
			c12.953-5.672,23.219-16.336,28.375-29.547h349.422c5.375,12.289,15.25,22.164,27.547,27.547V313.789z"/>
	</g>
</g>
<g>
	<g>
		<path d="M256,192c-35.344,0-64,28.656-64,64c0,35.352,28.656,64.008,64,64.008s64-28.656,64-64.008
			C320,220.656,291.344,192,256,192z M256,298.664c-23.531,0-42.672-19.141-42.672-42.664s19.141-42.664,42.672-42.664
			s42.672,19.141,42.672,42.664S279.531,298.664,256,298.664z"/>
	</g>
</g>
<g>
</g>
<g>
</g>
<g>
</g>
<g>
</g>
<g>
</g>
<g>
</g>
<g>
</g>
<g>
</g>
<g>
</g>
<g>
</g>
<g>
</g>
<g>
</g>
<g>
</g>
<g>
</g>
<g>
</g>
</svg>
