<?xml version="1.0" encoding="UTF-8" standalone="no"?>
<!-- Generator: Adobe Illustrator 18.0.0, SVG Export Plug-In . SVG Version: 6.00 Build 0)  -->

<svg
   xmlns:dc="http://purl.org/dc/elements/1.1/"
   xmlns:cc="http://creativecommons.org/ns#"
   xmlns:rdf="http://www.w3.org/1999/02/22-rdf-syntax-ns#"
   xmlns:svg="http://www.w3.org/2000/svg"
   xmlns="http://www.w3.org/2000/svg"
   xmlns:sodipodi="http://sodipodi.sourceforge.net/DTD/sodipodi-0.dtd"
   xmlns:inkscape="http://www.inkscape.org/namespaces/inkscape"
   version="1.1"
   id="Capa_1"
   x="0px"
   y="0px"
   viewBox="0 0 424.239 424.239"
   style="enable-background:new 0 0 424.239 424.239;"
   xml:space="preserve"
   sodipodi:docname="boy-smiling - Copy.svg"
   inkscape:version="0.92.3 (2405546, 2018-03-11)"><metadata
   id="metadata51"><rdf:RDF><cc:Work
       rdf:about=""><dc:format>image/svg+xml</dc:format><dc:type
         rdf:resource="http://purl.org/dc/dcmitype/StillImage" /></cc:Work></rdf:RDF></metadata><defs
   id="defs49">
	
	
	
	
	
	
</defs><sodipodi:namedview
   pagecolor="#ffffff"
   bordercolor="#666666"
   borderopacity="1"
   objecttolerance="10"
   gridtolerance="10"
   guidetolerance="10"
   inkscape:pageopacity="0"
   inkscape:pageshadow="2"
   inkscape:window-width="663"
   inkscape:window-height="480"
   id="namedview47"
   showgrid="false"
   inkscape:zoom="0.55629019"
   inkscape:cx="-11.684549"
   inkscape:cy="212.11951"
   inkscape:window-x="0"
   inkscape:window-y="0"
   inkscape:window-maximized="0"
   inkscape:current-layer="Capa_1" />
<path
   style=""
   d="m 144.261,261.896 a 14.974,14.974 0 0 1 -14.974,14.974 14.974,14.974 0 0 1 -14.974,-14.974 14.974,14.974 0 0 1 14.974,-14.974 14.974,14.974 0 0 1 14.974,14.974 z"
   id="circle2" /><circle
   id="circle4"
   r="14.974"
   cy="261.896"
   cx="294.952" /><path
   inkscape:connector-curvature="0"
   id="path6"
   d="m 129.287,213.875 c -8.179,0 -15.869,3.185 -21.653,8.969 -3.125,3.124 -3.125,8.189 0,11.314 3.125,3.125 8.19,3.124 11.313,0 2.762,-2.762 6.434,-4.283 10.34,-4.283 3.906,0 7.578,1.521 10.34,4.283 1.562,1.562 3.609,2.344 5.657,2.343 2.047,0 4.095,-0.781 5.657,-2.343 3.125,-3.124 3.125,-8.189 0,-11.314 -5.785,-5.783 -13.475,-8.969 -21.654,-8.969 z" /><path
   inkscape:connector-curvature="0"
   id="path8"
   d="m 273.298,222.844 c -3.125,3.124 -3.125,8.189 0,11.314 3.124,3.125 8.189,3.124 11.313,0 5.701,-5.702 14.979,-5.701 20.68,0 1.562,1.562 3.609,2.343 5.657,2.343 2.048,0 4.095,-0.781 5.657,-2.343 3.125,-3.124 3.125,-8.189 0,-11.314 -11.938,-11.938 -31.366,-11.939 -43.307,0 z" /><path
   inkscape:connector-curvature="0"
   id="path10"
   d="m 227.527,325.475 c -4.116,4.115 -9.587,6.382 -15.408,6.382 -5.82,0 -11.292,-2.266 -15.407,-6.382 -3.124,-3.124 -8.189,-3.124 -11.313,0 -3.125,3.124 -3.125,8.189 0,11.314 7.137,7.138 16.627,11.068 26.721,11.068 10.094,0 19.584,-3.931 26.721,-11.068 3.125,-3.124 3.125,-8.189 0,-11.314 -3.125,-3.124 -8.19,-3.124 -11.314,0 z" /><path
   inkscape:connector-curvature="0"
   id="path12"
   d="m 400.881,254.178 c 0,-21.731 -15.71,-39.851 -36.366,-43.63 V 76.715 c 0,-17.362 -8.637,-33.458 -23.104,-43.057 C 327.823,24.643 310.953,22.597 295.7,27.972 L 245.474,10.924 C 206.88,-2.177 166.255,-3.521 127.992,7.036 77.9,20.857 49.182,50.083 44.749,91.627 c -3.923,5.174 -7.04,10.985 -9.158,17.255 l -3.896,11.531 c -2.091,6.191 0.214,12.697 5.738,16.189 5.522,3.492 12.389,2.786 17.086,-1.759 1.604,-1.553 3.358,-2.861 5.204,-3.955 v 79.661 c -20.656,3.779 -36.366,21.898 -36.366,43.63 0,22.601 16.991,41.296 38.868,44.014 5.494,30.336 19.931,58.319 42.006,80.712 28.821,29.236 67.135,45.336 107.888,45.336 0.005,0 0.01,0 0.015,0 40.701,-0.004 78.965,-15.856 107.745,-44.635 22.481,-22.481 37.073,-50.749 42.386,-81.445 21.755,-2.832 38.616,-21.47 38.616,-43.983 z M 332.565,46.991 c 10.137,6.725 15.95,17.559 15.95,29.724 v 104.689 c -24.831,-3.859 -43.897,-25.383 -43.897,-51.279 l -0.662,-87.96 c 9.769,-2.575 19.956,-0.915 28.609,4.826 z m -283.37,71.613 1.555,-4.601 c 4.073,-12.055 13.118,-21.842 24.815,-26.85 11.696,-5.008 25.021,-4.8 36.556,0.573 24.226,11.283 53.513,5.183 71.219,-14.833 l 1.982,-2.241 c 2.928,-3.309 2.618,-8.365 -0.691,-11.292 -3.311,-2.927 -8.366,-2.618 -11.293,0.691 l -1.982,2.241 c -13.048,14.75 -34.629,19.244 -52.48,10.93 -15.653,-7.291 -33.736,-7.574 -49.609,-0.777 -1.445,0.619 -2.85,1.31 -4.233,2.033 9.299,-24.791 31.805,-42.249 67.215,-52.019 35.161,-9.702 72.535,-8.451 108.084,3.615 l 47.623,16.165 0.624,41.337 c -21.205,28.831 -52.131,48.348 -87.373,55.059 -36.086,6.871 -72.901,-0.4 -103.663,-20.474 -15.032,-9.807 -33.982,-9.388 -48.349,0.443 z m -9.838,135.574 c 0,-12.863 8.609,-23.747 20.366,-27.21 v 43.362 c 0,3.746 0.135,7.471 0.398,11.172 C 48.162,278.169 39.357,267.186 39.357,254.178 Z M 308.566,368.29 c -25.758,25.758 -60.005,39.945 -96.433,39.949 -0.006,0 -0.007,0 -0.014,0 -36.433,0 -70.705,-14.409 -96.494,-40.568 C 89.894,341.569 75.723,306.999 75.723,270.329 V 127.116 c 4.531,0.338 9.027,1.804 13.075,4.445 34.246,22.347 75.228,30.442 115.4,22.792 32.609,-6.21 61.903,-22.263 84.419,-45.938 v 21.709 c 0,34.731 26.217,63.437 59.897,67.41 v 74.308 c 10e-4,36.434 -14.186,70.687 -39.948,96.448 z m 55.64,-86.814 c 0.198,-3.194 0.309,-6.405 0.309,-9.633 v -44.875 c 11.757,3.463 20.366,14.347 20.366,27.21 0,12.975 -8.76,23.936 -20.675,27.298 z" />
<g
   id="g16">
</g>
<g
   id="g18">
</g>
<g
   id="g20">
</g>
<g
   id="g22">
</g>
<g
   id="g24">
</g>
<g
   id="g26">
</g>
<g
   id="g28">
</g>
<g
   id="g30">
</g>
<g
   id="g32">
</g>
<g
   id="g34">
</g>
<g
   id="g36">
</g>
<g
   id="g38">
</g>
<g
   id="g40">
</g>
<g
   id="g42">
</g>
<g
   id="g44">
</g>
</svg>