<?xml version="1.0" encoding="UTF-8" standalone="no"?>
<!-- Generator: Adobe Illustrator 19.0.0, SVG Export Plug-In . SVG Version: 6.00 Build 0)  -->

<svg
   xmlns:dc="http://purl.org/dc/elements/1.1/"
   xmlns:cc="http://creativecommons.org/ns#"
   xmlns:rdf="http://www.w3.org/1999/02/22-rdf-syntax-ns#"
   xmlns:svg="http://www.w3.org/2000/svg"
   xmlns="http://www.w3.org/2000/svg"
   xmlns:sodipodi="http://sodipodi.sourceforge.net/DTD/sodipodi-0.dtd"
   xmlns:inkscape="http://www.inkscape.org/namespaces/inkscape"
   version="1.1"
   id="Capa_1"
   x="0px"
   y="0px"
   viewBox="0 0 58 58"
   style="enable-background:new 0 0 58 58;"
   xml:space="preserve"
   sodipodi:docname="calendar.svg"
   inkscape:version="0.92.3 (2405546, 2018-03-11)"><metadata
   id="metadata47"><rdf:RDF><cc:Work
       rdf:about=""><dc:format>image/svg+xml</dc:format><dc:type
         rdf:resource="http://purl.org/dc/dcmitype/StillImage" /></cc:Work></rdf:RDF></metadata><defs
   id="defs45">
	
	
	
	
</defs><sodipodi:namedview
   pagecolor="#ffffff"
   bordercolor="#666666"
   borderopacity="1"
   objecttolerance="10"
   gridtolerance="10"
   guidetolerance="10"
   inkscape:pageopacity="0"
   inkscape:pageshadow="2"
   inkscape:window-width="1920"
   inkscape:window-height="1017"
   id="namedview43"
   showgrid="false"
   inkscape:zoom="5.7543862"
   inkscape:cx="-130.85356"
   inkscape:cy="20.734085"
   inkscape:window-x="-8"
   inkscape:window-y="-8"
   inkscape:window-maximized="1"
   inkscape:current-layer="Capa_1" />
<path
   id="path8"
   d="m -39.056576,27.243017 c 0.195,0.195 0.451,0.293 0.707,0.293 0.256,0 0.512,-0.098 0.707,-0.293 l 3.293,-3.293 3.293,3.293 c 0.195,0.195 0.451,0.293 0.707,0.293 0.256,0 0.512,-0.098 0.707,-0.293 0.391,-0.391 0.391,-1.023 0,-1.414 l -3.293,-3.293 3.293,-3.293 c 0.391,-0.391 0.391,-1.023 0,-1.414 -0.391,-0.391 -1.023,-0.391 -1.414,0 l -3.293,3.293 -3.293,-3.293 c -0.391,-0.391 -1.023,-0.391 -1.414,0 -0.391,0.391 -0.391,1.023 0,1.414 l 3.293,3.293 -3.293,3.293 c -0.391,0.391 -0.391,1.023 0,1.414 z m 11.606,-35.707 v 2 h 13.101 v 7 h -12 -2 -12 -2 -12 -2 -12 v -7 h 40.899 v -2 c -14.299667,0 -28.599333,0 -42.899,0 v 9 3 11 2 12 2 14 h 14 2 12 2 12 2 14 v -14 -2 -12 -2 -11 -3 -9 z m -12.899,11 h 12 v 12 h -12 z m 12,26 h -12 v -12 h 12 z m -26,-12 h 12 v 12 h -12 z m 0,-14 h 12 v 12 h -12 z m -14,1 v -1 h 12 v 12 h -12 z m 0,13 h 12 v 12 h -12 z m 0,26 v -12 h 12 v 12 z m 14,0 v -12 h 12 v 12 z m 14,0 v -12 h 12 v 12 z m 26,0 h -12 v -12 h 12 z m 0,-14 h -12 v -12 h 12 z m -12,-14 v -12 h 12 v 1 11 z" />
<g
   id="g12">
</g>
<g
   id="g14">
</g>
<g
   id="g16">
</g>
<g
   id="g18">
</g>
<g
   id="g20">
</g>
<g
   id="g22">
</g>
<g
   id="g24">
</g>
<g
   id="g26">
</g>
<g
   id="g28">
</g>
<g
   id="g30">
</g>
<g
   id="g32">
</g>
<g
   id="g34">
</g>
<g
   id="g36">
</g>
<g
   id="g38">
</g>
<g
   id="g40">
</g>
<ellipse
   style="fill:#ffffff"
   id="path87"
   cx="-67.584747"
   cy="-15.022245"
   rx="5.4682202"
   ry="2.2425847" /><circle
   style="fill:#000000;stroke-width:0.87192124"
   id="path89"
   cx="-24.961161"
   cy="-2.9566078"
   r="3" /><circle
   style="fill:#000000;stroke-width:0.87192124"
   id="path89-0"
   cx="-35.886772"
   cy="-2.9566078"
   r="3" /><circle
   style="fill:#000000;stroke-width:0.87192124"
   id="path89-9"
   cx="-57.737991"
   cy="-2.9566078"
   r="3" /><circle
   style="fill:#000000;stroke-width:0.87192124"
   id="path89-8"
   cx="-46.812378"
   cy="-2.9566078"
   r="3" /></svg>