<?xml version="1.0" encoding="UTF-8" standalone="no"?>
<!-- Generator: Adobe Illustrator 19.0.0, SVG Export Plug-In . SVG Version: 6.00 Build 0)  -->

<svg
   xmlns:dc="http://purl.org/dc/elements/1.1/"
   xmlns:cc="http://creativecommons.org/ns#"
   xmlns:rdf="http://www.w3.org/1999/02/22-rdf-syntax-ns#"
   xmlns:svg="http://www.w3.org/2000/svg"
   xmlns="http://www.w3.org/2000/svg"
   xmlns:sodipodi="http://sodipodi.sourceforge.net/DTD/sodipodi-0.dtd"
   xmlns:inkscape="http://www.inkscape.org/namespaces/inkscape"
   version="1.1"
   id="Layer_1"
   x="0px"
   y="0px"
   viewBox="0 0 511.746 511.746"
   style="enable-background:new 0 0 511.746 511.746;"
   xml:space="preserve"
   width="512"
   height="512"
   sodipodi:docname="calendar2.svg"
   inkscape:version="0.92.3 (2405546, 2018-03-11)"><metadata
   id="metadata17"><rdf:RDF><cc:Work
       rdf:about=""><dc:format>image/svg+xml</dc:format><dc:type
         rdf:resource="http://purl.org/dc/dcmitype/StillImage" /></cc:Work></rdf:RDF></metadata><defs
   id="defs15">
	
	
	
	
</defs><sodipodi:namedview
   pagecolor="#ffffff"
   bordercolor="#666666"
   borderopacity="1"
   objecttolerance="10"
   gridtolerance="10"
   guidetolerance="10"
   inkscape:pageopacity="0"
   inkscape:pageshadow="2"
   inkscape:window-width="1920"
   inkscape:window-height="1017"
   id="namedview13"
   showgrid="false"
   inkscape:zoom="0.4609375"
   inkscape:cx="-11.932203"
   inkscape:cy="256"
   inkscape:window-x="-8"
   inkscape:window-y="-8"
   inkscape:window-maximized="1"
   inkscape:current-layer="Layer_1" />
<path
   id="rect8"
   style=""
   d="m 391.73999,9.3879995 h 30 V 39.388 h -30 z m -301.733993,0 H 120.006 V 39.388 H 90.005997 Z M 421.74,99.394 h -30 V 39.391 H 120.006 v 60.003 h -30 V 39.391 H 0 v 90.005 H 511.746 V 39.391 H 421.74 Z M 0,502.358 H 511.746 V 159.396 H 0 Z M 379.411,209.402 h 52.942 v 52.941 h -52.942 z m 0,90.005 h 52.942 v 52.942 h -52.942 z m 0,90.006 h 52.942 v 52.941 H 379.411 Z M 279.405,209.402 h 52.941 v 52.941 h -52.941 z m 0,90.005 h 52.941 v 52.942 h -52.941 z m 0,90.006 h 52.941 v 52.941 H 279.405 Z M 179.398,209.402 h 52.942 v 52.941 h -52.942 z m 0,90.005 h 52.942 v 52.942 h -52.942 z m 0,90.006 h 52.942 v 52.941 H 179.398 Z M 79.393,209.402 h 52.941 v 52.941 H 79.393 Z m 0,90.005 h 52.941 v 52.942 H 79.393 Z m 52.941,90.006 v 52.941 H 79.393 v -52.941 z" />















</svg>