<?xml version="1.0" encoding="UTF-8" standalone="no"?>
<!-- Created with Inkscape (http://www.inkscape.org/) -->

<svg
   xmlns:dc="http://purl.org/dc/elements/1.1/"
   xmlns:cc="http://creativecommons.org/ns#"
   xmlns:rdf="http://www.w3.org/1999/02/22-rdf-syntax-ns#"
   xmlns:svg="http://www.w3.org/2000/svg"
   xmlns="http://www.w3.org/2000/svg"
   xmlns:sodipodi="http://sodipodi.sourceforge.net/DTD/sodipodi-0.dtd"
   xmlns:inkscape="http://www.inkscape.org/namespaces/inkscape"
   width="210mm"
   height="297mm"
   viewBox="0 0 210 297"
   version="1.1"
   id="svg47"
   inkscape:version="0.92.3 (2405546, 2018-03-11)"
   sodipodi:docname="camera_denied_FULL2.svg">
  <defs
     id="defs41" />
  <sodipodi:namedview
     id="base"
     pagecolor="#ffffff"
     bordercolor="#666666"
     borderopacity="1.0"
     inkscape:pageopacity="0.0"
     inkscape:pageshadow="2"
     inkscape:zoom="0.35"
     inkscape:cx="11.428571"
     inkscape:cy="560"
     inkscape:document-units="mm"
     inkscape:current-layer="layer1"
     showgrid="false"
     inkscape:window-width="1920"
     inkscape:window-height="1017"
     inkscape:window-x="-8"
     inkscape:window-y="-8"
     inkscape:window-maximized="1" />
  <metadata
     id="metadata44">
    <rdf:RDF>
      <cc:Work
         rdf:about="">
        <dc:format>image/svg+xml</dc:format>
        <dc:type
           rdf:resource="http://purl.org/dc/dcmitype/StillImage" />
        <dc:title></dc:title>
      </cc:Work>
    </rdf:RDF>
  </metadata>
  <g
     inkscape:label="Layer 1"
     inkscape:groupmode="layer"
     id="layer1">
    <path
       inkscape:connector-curvature="0"
       id="path2-9"
       style="fill:#000000;stroke-width:3.5669539"
       d="m 52.747731,33.016148 -0.628433,2.599656 2.207142,2.205946 0.514964,-2.140979 h 13.087188 l 0.68502,2.846355 H 55.032421 l 1.691582,1.690689 h 15.042543 l -1.737091,-7.201667 z m 19.018815,7.201667 0.228444,0.973935 H 57.698537 L 86.894123,70.37057 V 59.853989 c 0,-1.562326 1.269959,-2.82869 2.832284,-2.82869 1.562325,0 2.824799,1.266364 2.824799,2.82869 v 16.170367 l 7.205259,7.200769 c 0.0012,-0.0489 0.0035,-0.0975 0.0035,-0.146701 V 45.497062 c -0.0035,-2.921336 -2.364741,-5.279247 -5.278948,-5.279247 z M 26.46108,42.815074 c -0.465011,0.785547 -0.733223,1.701753 -0.733223,2.681988 v 37.581362 c 0,2.917764 2.372232,5.282534 5.286427,5.282534 h 9.231274 c -5.436043,-3.870143 -8.995941,-10.219331 -8.995941,-17.388902 0,-6.399974 2.834804,-12.149658 7.313346,-16.061989 z m 53.652326,3.323893 h 13.885978 v 6.302881 H 80.113406 Z M 39.27282,55.619335 c -4.139265,3.668371 -6.749878,9.024565 -6.749878,14.992547 0,7.711753 4.358943,14.399986 10.740228,17.745785 h -3.017612 c 3.48848,2.47547 7.740246,3.937657 12.330918,3.937657 4.590667,0 8.838841,-1.458624 12.327321,-3.937657 h -3.081684 c 2.172131,-1.139457 4.108303,-2.665873 5.719063,-4.486444 l -0.785615,-0.785319 c -3.426644,4.003206 -8.513399,6.545094 -14.179085,6.545094 -10.290662,0.0035 -18.665824,-8.368007 -18.665824,-18.662238 0,-5.665489 2.539072,-10.748582 6.538194,-14.173997 z m 7.207061,7.202864 c -2.394231,1.827489 -3.940954,4.71012 -3.940954,7.957346 0,5.528776 4.480274,10.005209 10.001918,10.005209 3.251015,0 6.137319,-1.54685 7.966025,-3.943648 z m -1.265551,4.140643 c -0.124847,1.045119 -0.239185,2.04036 -0.192807,2.989171 0.03569,0.94881 0.221388,1.844221 0.570942,2.664621 0.356705,0.823969 0.877213,1.572811 1.5371,2.246968 0.659886,0.681288 1.444823,1.2915 2.347267,1.858647 -1.216339,-0.09988 -2.29002,-0.538758 -3.192459,-1.138003 -0.898869,-0.606382 -1.612196,-1.426672 -2.01883,-2.386183 -0.420898,-0.955943 -0.520903,-2.036797 -0.349694,-3.114019 0.181921,-1.077215 0.617193,-2.143852 1.298481,-3.121202 z m 23.430718,18.011656 c -1.107783,1.26949 -2.362476,2.407412 -3.737659,3.38646 h 7.12592 z M 4.4357241,62.769586 C 4.4988055,94.920455 30.708222,121.02579 62.861316,120.96269 95.011183,120.89693 121.11546,94.688437 121.05239,62.54076 120.9893,30.39049 94.782021,4.2858761 62.631765,4.3489859 30.47939,4.4120679 4.3726311,30.619335 4.4357067,62.769604 Z M 15.058874,62.748729 C 15.036858,51.511554 18.926566,41.164367 25.438475,32.992274 l 67.114249,66.85207 C 84.40695,106.38685 74.075825,110.31645 62.840082,110.33958 36.544949,110.3912 15.110443,89.04202 15.058856,62.748752 Z M 110.42924,62.5616 c 0.022,11.236802 -3.8677,21.584631 -10.37961,29.757061 L 32.935735,25.46593 c 8.146822,-6.542516 18.479367,-10.472125 29.716882,-10.494176 26.292636,-0.05122 47.725023,21.297201 47.776623,47.589851 z" />
  </g>
</svg>
