<?xml version="1.0" encoding="UTF-8" standalone="no"?>
<!-- Created with Inkscape (http://www.inkscape.org/) -->

<svg
   xmlns:dc="http://purl.org/dc/elements/1.1/"
   xmlns:cc="http://creativecommons.org/ns#"
   xmlns:rdf="http://www.w3.org/1999/02/22-rdf-syntax-ns#"
   xmlns:svg="http://www.w3.org/2000/svg"
   xmlns="http://www.w3.org/2000/svg"
   xmlns:sodipodi="http://sodipodi.sourceforge.net/DTD/sodipodi-0.dtd"
   xmlns:inkscape="http://www.inkscape.org/namespaces/inkscape"
   width="210mm"
   height="297mm"
   viewBox="0 0 210 297"
   version="1.1"
   id="svg1734"
   inkscape:version="0.92.3 (2405546, 2018-03-11)"
   sodipodi:docname="chart.svg">
  <defs
     id="defs1728" />
  <sodipodi:namedview
     id="base"
     pagecolor="#ffffff"
     bordercolor="#666666"
     borderopacity="1.0"
     inkscape:pageopacity="0.0"
     inkscape:pageshadow="2"
     inkscape:zoom="0.7"
     inkscape:cx="321.80415"
     inkscape:cy="558.41614"
     inkscape:document-units="mm"
     inkscape:current-layer="layer1"
     showgrid="false"
     inkscape:window-width="2560"
     inkscape:window-height="1017"
     inkscape:window-x="1912"
     inkscape:window-y="-8"
     inkscape:window-maximized="1" />
  <metadata
     id="metadata1731">
    <rdf:RDF>
      <cc:Work
         rdf:about="">
        <dc:format>image/svg+xml</dc:format>
        <dc:type
           rdf:resource="http://purl.org/dc/dcmitype/StillImage" />
        <dc:title></dc:title>
      </cc:Work>
    </rdf:RDF>
  </metadata>
  <g
     inkscape:label="Layer 1"
     inkscape:groupmode="layer"
     id="layer1">
    <path
       id="path2425"
       style="fill:#000000;fill-opacity:1;stroke:#ffffff;stroke-width:0;stroke-linecap:butt;stroke-linejoin:miter;stroke-miterlimit:6.19999981;stroke-dasharray:none;stroke-opacity:1;paint-order:fill markers stroke"
       d="m 54.190453,114.34001 a 7.1791455,7.1791455 0 0 1 -7.179146,7.17914 7.1791455,7.1791455 0 0 1 -7.179146,-7.17914 7.1791455,7.1791455 0 0 1 7.179146,-7.17915 7.1791455,7.1791455 0 0 1 7.179146,7.17915 z M 6.1203232,0.36594272 c -3.1383926,0 -5.66483237,2.52691998 -5.66483237,5.66531498 V 204.32308 c 0,3.1384 2.52643977,5.66484 5.66483237,5.66484 H 204.41215 c 3.1384,0 5.66532,-2.52644 5.66532,-5.66484 V 6.0312577 c 0,-3.138395 -2.52692,-5.66531498 -5.66532,-5.66531498 z M 163.5933,53.833501 a 10.481521,10.393235 0 0 1 10.48136,10.393493 10.481521,10.393235 0 0 1 -10.48136,10.39301 10.481521,10.393235 0 0 1 -5.66629,-1.649767 L 133.3683,99.614216 a 10.48152,10.393235 0 0 1 1.79799,5.814984 10.48152,10.393235 0 0 1 -10.48136,10.39301 10.48152,10.393235 0 0 1 -10.48185,-10.39301 10.48152,10.393235 0 0 1 0.44322,-2.96351 L 93.63095,89.164709 a 10.48152,10.393234 0 0 1 -7.657878,3.309686 10.48152,10.393234 0 0 1 -7.029742,-2.699888 l 0.107668,0.215337 -0.25734,0.127457 -22.589323,19.252129 a 10.481518,10.393232 0 0 1 1.288626,4.97055 10.481518,10.393232 0 0 1 -10.481846,10.39349 10.481518,10.393232 0 0 1 -10.481364,-10.39349 10.481518,10.393232 0 0 1 10.481364,-10.39301 10.481518,10.393232 0 0 1 5.901411,1.80523 l 23.163865,-19.740732 0.168505,-0.08401 a 10.48152,10.393234 0 0 1 -0.75367,-3.846079 10.48152,10.393234 0 0 1 10.481846,-10.393492 10.48152,10.393234 0 0 1 10.481364,10.393492 10.48152,10.393234 0 0 1 -0.306104,2.445925 l 21.248558,13.446801 a 10.48152,10.393235 0 0 1 7.28804,-2.938396 10.48152,10.393235 0 0 1 5.0898,1.321453 l -0.10959,-0.100904 24.81025,-26.917253 A 10.481521,10.393235 0 0 1 153.11193,64.22699 10.481521,10.393235 0 0 1 163.5933,53.833498 Z m 0,3.214081 a 7.1791454,7.1791454 0 0 0 -7.17942,7.179412 7.1791454,7.1791454 0 0 0 7.17942,7.178932 7.1791454,7.1791454 0 0 0 7.17893,-7.178932 7.1791454,7.1791454 0 0 0 -7.17893,-7.179412 z M 85.973072,74.901967 a 7.1791454,7.1791454 0 0 0 -7.179414,7.179413 7.1791454,7.1791454 0 0 0 7.179414,7.178927 7.1791454,7.1791454 0 0 0 7.178931,-7.178927 7.1791454,7.1791454 0 0 0 -7.178931,-7.179413 z m 65.623798,8.242083 h 23.84898 v 99.95172 h 19.17438 v 17.53622 H 15.912232 v -17.53622 h 19.174394 v -49.27578 h 23.848978 v 49.27578 h 14.987931 v -82.29432 h 23.848972 v 82.29432 h 14.987933 v -58.81036 h 23.84898 v 58.81036 h 14.98745 z m -26.91194,15.105736 a 7.1791454,7.1791454 0 0 0 -7.17941,7.179414 7.1791454,7.1791454 0 0 0 7.17941,7.17893 7.1791454,7.1791454 0 0 0 7.17893,-7.17893 7.1791454,7.1791454 0 0 0 -7.17893,-7.179414 z"
       inkscape:connector-curvature="0" />
  </g>
</svg>
