<?xml version="1.0" encoding="UTF-8" standalone="no"?>
<!-- Created with Inkscape (http://www.inkscape.org/) -->

<svg
   xmlns:dc="http://purl.org/dc/elements/1.1/"
   xmlns:cc="http://creativecommons.org/ns#"
   xmlns:rdf="http://www.w3.org/1999/02/22-rdf-syntax-ns#"
   xmlns:svg="http://www.w3.org/2000/svg"
   xmlns="http://www.w3.org/2000/svg"
   xmlns:sodipodi="http://sodipodi.sourceforge.net/DTD/sodipodi-0.dtd"
   xmlns:inkscape="http://www.inkscape.org/namespaces/inkscape"
   width="210mm"
   height="297mm"
   viewBox="0 0 210 297"
   version="1.1"
   id="svg183"
   inkscape:version="0.92.3 (2405546, 2018-03-11)"
   sodipodi:docname="checkInCircle.svg">
  <defs
     id="defs177" />
  <sodipodi:namedview
     id="base"
     pagecolor="#ffffff"
     bordercolor="#666666"
     borderopacity="1.0"
     inkscape:pageopacity="0.0"
     inkscape:pageshadow="2"
     inkscape:zoom="0.7"
     inkscape:cx="-41.440264"
     inkscape:cy="796.80664"
     inkscape:document-units="mm"
     inkscape:current-layer="layer1"
     showgrid="false"
     inkscape:window-width="1920"
     inkscape:window-height="1017"
     inkscape:window-x="-8"
     inkscape:window-y="-8"
     inkscape:window-maximized="1" />
  <metadata
     id="metadata180">
    <rdf:RDF>
      <cc:Work
         rdf:about="">
        <dc:format>image/svg+xml</dc:format>
        <dc:type
           rdf:resource="http://purl.org/dc/dcmitype/StillImage" />
        <dc:title></dc:title>
      </cc:Work>
    </rdf:RDF>
  </metadata>
  <g
     inkscape:label="Layer 1"
     inkscape:groupmode="layer"
     id="layer1">
    <path
       id="path68"
       style="fill:#000000;stroke-width:0.05400162"
       d="m 20.268064,32.047699 -5.23507,5.69809 15.733921,14.45299 23.37681,-27.71338 -5.9095,-4.98948 -18.17759,21.54899 z M 34.588615,7.738729 a 28.108571,28.108571 0 0 1 28.10837,28.10836 28.108571,28.108571 0 0 1 -28.10837,28.10888 A 28.108571,28.108571 0 0 1 6.4797342,35.847089 28.108571,28.108571 0 0 1 34.588615,7.738729 Z M 34.58836,0.84586905 c -19.299729,0 -35.00147681,15.70386995 -35.00147681,35.00147995 0,19.30189 15.70117681,35.00148 35.00147681,35.00148 19.30023,0 35.001476,-15.69959 35.001476,-35.00148 0,-19.29811 -15.701746,-35.00147995 -35.001476,-35.00147995 z" />
  </g>
</svg>
