<?xml version="1.0" encoding="UTF-8" standalone="no"?>
<!-- Generator: Adobe Illustrator 16.0.0, SVG Export Plug-In . SVG Version: 6.00 Build 0)  -->

<svg
   xmlns:dc="http://purl.org/dc/elements/1.1/"
   xmlns:cc="http://creativecommons.org/ns#"
   xmlns:rdf="http://www.w3.org/1999/02/22-rdf-syntax-ns#"
   xmlns:svg="http://www.w3.org/2000/svg"
   xmlns="http://www.w3.org/2000/svg"
   xmlns:sodipodi="http://sodipodi.sourceforge.net/DTD/sodipodi-0.dtd"
   xmlns:inkscape="http://www.inkscape.org/namespaces/inkscape"
   version="1.1"
   id="Layer_1"
   x="0px"
   y="0px"
   width="512px"
   height="512px"
   viewBox="0 0 512 512"
   enable-background="new 0 0 512 512"
   xml:space="preserve"
   sodipodi:docname="cloud-upload-raw.svg"
   inkscape:version="0.92.3 (2405546, 2018-03-11)"><metadata
   id="metadata9"><rdf:RDF><cc:Work
       rdf:about=""><dc:format>image/svg+xml</dc:format><dc:type
         rdf:resource="http://purl.org/dc/dcmitype/StillImage" /><dc:title /></cc:Work></rdf:RDF></metadata><defs
   id="defs7" /><sodipodi:namedview
   pagecolor="#ffffff"
   bordercolor="#666666"
   borderopacity="1"
   objecttolerance="10"
   gridtolerance="10"
   guidetolerance="10"
   inkscape:pageopacity="0"
   inkscape:pageshadow="2"
   inkscape:window-width="1920"
   inkscape:window-height="1017"
   id="namedview5"
   showgrid="false"
   inkscape:zoom="0.4609375"
   inkscape:cx="-370.46319"
   inkscape:cy="91.617078"
   inkscape:window-x="1912"
   inkscape:window-y="-8"
   inkscape:window-maximized="1"
   inkscape:current-layer="Layer_1" />
<path
   d="m 257.56724,35.253678 c 0.718,-5.563 1.687,-11.063 1.687,-16.813 0,-70.688 -57.281,-127.999998 -128,-127.999998 -41.813003,0 -78.594003,20.343998 -101.938003,51.374998 -8.406,-2.031 -17.062,-3.375 -26.0619997,-3.375 -61.8750003,0 -111.9999973,50.125 -111.9999973,112 0,1.75 0.438,3.313 0.5,5.063 -46.406,13.656 -80.5,56.093002 -80.5,106.937002 0,61.875 50.125,112 111.999997,112 H 195.25424 c 70.719,0 128,-57.281 128,-128 0,-47.937002 -26.656,-89.250002 -65.687,-111.187002 z M 99.254237,114.44068 v 96 h -64 v -96 h -64 l 96,-96.000002 96.000003,96.000002 z"
   id="path2"
   inkscape:connector-curvature="0" />
<path
   inkscape:connector-curvature="0"
   style="fill:#ffffff;stroke-width:0.0848984"
   d="m 280.95009,88.62206 c -78.13645,0 -141.70641,64.5502 -141.70641,143.87441 0,79.34128 63.5677,143.87584 141.70641,143.87584 78.13861,0 141.70453,-64.53456 141.70453,-143.87584 0,-79.32652 -63.56814,-143.87441 -141.70453,-143.87441 z"
   id="path28-2" /><path
   inkscape:connector-curvature="0"
   style="fill:#000000;stroke-width:0.07114086"
   d="m 279.03026,111.28695 c -65.47467,0 -118.74328,54.09003 -118.74328,120.55995 0,66.48426 53.26675,120.56112 118.74328,120.56112 65.47647,0 118.7417,-54.07686 118.7417,-120.56112 0,-66.47186 -53.2671,-120.55995 -118.7417,-120.55995 z"
   id="path28" /><path
   inkscape:connector-curvature="0"
   style="fill:#ffffff;stroke-width:0.06801529"
   d="m 279.02943,134.26684 a 96.109135,97.580566 0 0 1 96.10916,97.5808 96.109135,97.580566 0 0 1 -96.10916,97.58049 96.109135,97.580566 0 0 1 -96.10908,-97.58049 96.109135,97.580566 0 0 1 96.10908,-97.5808 z"
   id="path26" /><path
   inkscape:connector-curvature="0"
   style="fill:#000000;stroke-width:0.18197584"
   d="m 227.2985,218.29602 -17.50774,19.34797 52.61924,49.07542 78.17949,-94.10134 -19.76325,-16.94187 -60.79165,73.17002 z"
   id="path22-2" /></svg>