<?xml version="1.0" encoding="UTF-8" standalone="no"?>
<!-- Generator: Adobe Illustrator 16.0.0, SVG Export Plug-In . SVG Version: 6.00 Build 0)  -->

<svg
   xmlns:dc="http://purl.org/dc/elements/1.1/"
   xmlns:cc="http://creativecommons.org/ns#"
   xmlns:rdf="http://www.w3.org/1999/02/22-rdf-syntax-ns#"
   xmlns:svg="http://www.w3.org/2000/svg"
   xmlns="http://www.w3.org/2000/svg"
   xmlns:sodipodi="http://sodipodi.sourceforge.net/DTD/sodipodi-0.dtd"
   xmlns:inkscape="http://www.inkscape.org/namespaces/inkscape"
   version="1.1"
   id="Layer_1"
   x="0px"
   y="0px"
   width="512px"
   height="512px"
   viewBox="0 0 512 512"
   enable-background="new 0 0 512 512"
   xml:space="preserve"
   sodipodi:docname="cloud-upload-final.svg"
   inkscape:version="0.92.3 (2405546, 2018-03-11)"><metadata
   id="metadata9"><rdf:RDF><cc:Work
       rdf:about=""><dc:format>image/svg+xml</dc:format><dc:type
         rdf:resource="http://purl.org/dc/dcmitype/StillImage" /><dc:title></dc:title></cc:Work></rdf:RDF></metadata><defs
   id="defs7" /><sodipodi:namedview
   pagecolor="#ffffff"
   bordercolor="#666666"
   borderopacity="1"
   objecttolerance="10"
   gridtolerance="10"
   guidetolerance="10"
   inkscape:pageopacity="0"
   inkscape:pageshadow="2"
   inkscape:window-width="1920"
   inkscape:window-height="1017"
   id="namedview5"
   showgrid="false"
   inkscape:zoom="0.921875"
   inkscape:cx="294.18966"
   inkscape:cy="270.21244"
   inkscape:window-x="-8"
   inkscape:window-y="-8"
   inkscape:window-maximized="1"
   inkscape:current-layer="Layer_1" />

<path
   id="path22-2"
   style="fill:#000000;stroke-width:0.18197584"
   d="m 418.41187,330.04207 -17.50774,19.34797 52.61924,49.07542 78.17949,-94.10134 -19.76325,-16.94187 -60.79165,73.17002 z M 470.14453,223.0332 c -65.47467,0 -118.74414,54.09063 -118.74414,120.56055 0,66.48426 53.26761,120.56055 118.74414,120.56055 65.47647,0 118.74024,-54.07629 118.74024,-120.56055 0,-66.47186 -53.26564,-120.56055 -118.74024,-120.56055 z m -0.002,22.98047 a 96.109135,97.580566 0 0 1 96.10937,97.58008 96.109135,97.580566 0 0 1 -96.10937,97.58008 96.109135,97.580566 0 0 1 -96.10938,-97.58008 96.109135,97.580566 0 0 1 96.10938,-97.58008 z M 322.36719,2.1875 c -41.813,0 -78.5935,20.344 -101.9375,51.375 -8.406,-2.031 -17.0625,-3.375 -26.0625,-3.375 -61.875,0 -112.000003,50.125 -112.000002,112 0,1.75 0.437999,3.3125 0.5,5.0625 -46.406,13.656 -80.5000005,56.0935 -80.5000005,106.9375 0,61.875 50.1249955,112 112.0000025,112 h 222.13867 c -3.99247,-13.27641 -6.14844,-27.35905 -6.14844,-41.94531 0,-79.32421 63.56863,-143.875 141.70508,-143.875 10.26177,0 20.26974,1.12438 29.91797,3.23828 C 490.50743,179.72078 471.75915,159.97159 448.67969,147 c 0.718,-5.563 1.6875,-11.0625 1.6875,-16.8125 0,-70.688004 -57.281,-128 -128,-128 z m -64,128 96,96 h -64 v 96 h -64 v -96 h -64 z" /></svg>