<?xml version="1.0" standalone="no"?>
<!DOCTYPE svg PUBLIC "-//W3C//DTD SVG 20010904//EN"
 "http://www.w3.org/TR/2001/REC-SVG-20010904/DTD/svg10.dtd">
<svg version="1.0" xmlns="http://www.w3.org/2000/svg"
 width="512.000000pt" height="512.000000pt" viewBox="0 0 512.000000 512.000000"
 preserveAspectRatio="xMidYMid meet">
<metadata>
Created by potrace 1.15, written by Peter Selinger 2001-2017
</metadata>
<g transform="translate(0.000000,512.000000) scale(0.100000,-0.100000)"
fill="#000000" stroke="none">
<path d="M203 4958 c-174 -172 -196 -198 -191 -231 3 -19 32 5 192 163 103
102 192 193 197 203 8 14 5 17 -17 17 -21 0 -60 -33 -181 -152z"/>
<path d="M303 4858 c-140 -139 -264 -265 -275 -281 -10 -15 -18 -37 -16 -50 3
-18 49 23 292 263 158 157 292 293 297 303 8 14 5 17 -17 17 -22 0 -75 -47
-281 -252z"/>
<path d="M402 4758 c-194 -194 -362 -365 -373 -381 -11 -15 -19 -37 -17 -50 4
-18 67 40 392 363 213 212 392 393 397 403 8 14 5 17 -18 17 -22 0 -89 -62
-381 -352z"/>
<path d="M801 4956 c-134 -133 -162 -156 -199 -164 -77 -18 -123 -64 -137
-141 -5 -30 -43 -73 -231 -262 -179 -181 -224 -231 -224 -252 0 -15 3 -27 7
-27 4 0 105 98 225 217 l218 217 0 -64 0 -64 -225 -226 c-180 -182 -225 -232
-225 -253 0 -15 3 -27 7 -27 4 0 105 98 225 217 l218 217 0 -64 0 -64 -225
-226 c-180 -182 -225 -232 -225 -253 0 -15 3 -27 7 -27 4 0 105 98 225 217
l218 217 0 -64 0 -64 -225 -226 c-180 -182 -225 -232 -225 -253 0 -15 3 -27 7
-27 4 0 105 98 225 217 l218 217 0 -64 0 -64 -225 -226 c-180 -182 -225 -232
-225 -253 0 -15 3 -27 7 -27 4 0 105 98 225 217 l218 217 0 -64 0 -64 -225
-226 c-180 -182 -225 -232 -225 -253 0 -15 3 -27 7 -27 4 0 105 98 225 217
l218 217 0 -64 0 -64 -225 -226 c-180 -182 -225 -232 -225 -253 0 -15 3 -27 7
-27 4 0 105 98 225 217 l218 217 0 -64 0 -64 -225 -226 c-180 -182 -225 -232
-225 -253 0 -15 3 -27 7 -27 4 0 105 98 225 217 l218 217 0 -64 0 -64 -225
-226 c-180 -182 -225 -232 -225 -253 0 -15 3 -27 7 -27 4 0 104 97 224 216
234 233 228 230 229 134 0 -31 -19 -53 -230 -265 -184 -186 -230 -237 -230
-258 0 -15 3 -27 7 -27 4 0 109 102 234 226 l227 227 9 -54 10 -54 -244 -246
c-195 -197 -243 -251 -243 -272 0 -15 3 -27 7 -27 4 0 116 109 249 241 l242
242 15 -49 14 -49 -264 -266 c-214 -216 -263 -271 -263 -293 0 -22 3 -25 18
-17 9 5 129 123 267 260 137 138 253 251 256 251 3 0 13 -19 23 -42 l16 -42
-290 -291 c-237 -238 -290 -296 -290 -319 0 -22 3 -25 18 -17 9 5 145 138 301
295 l285 285 24 -40 24 -41 -326 -327 c-266 -267 -326 -332 -326 -354 0 -15 3
-27 7 -27 4 0 157 150 340 332 l333 333 32 -33 33 -32 -373 -373 c-305 -306
-372 -378 -372 -400 0 -15 3 -27 7 -27 4 0 179 172 389 381 l382 382 37 -28
36 -28 -425 -427 c-351 -351 -426 -431 -426 -453 0 -15 3 -27 7 -27 4 0 206
198 448 440 l440 439 47 -17 48 -17 -495 -495 c-413 -413 -495 -500 -495 -523
0 -23 3 -26 18 -18 9 5 244 237 521 515 480 480 506 505 535 500 87 -15 125
31 -497 -592 -479 -480 -577 -582 -577 -605 0 -15 3 -27 7 -27 4 0 274 267
600 592 l593 593 0 -65 0 -65 -600 -600 c-498 -499 -600 -605 -600 -628 0 -15
3 -27 7 -27 4 0 274 267 600 592 l593 593 0 -65 0 -65 -600 -600 c-498 -499
-600 -605 -600 -628 0 -15 3 -27 7 -27 4 0 274 267 600 592 l593 593 0 -65 0
-65 -600 -600 c-498 -499 -600 -605 -600 -628 0 -15 3 -27 7 -27 4 0 274 267
600 592 l593 593 0 -65 0 -65 -566 -565 c-311 -311 -570 -573 -575 -582 -8
-15 -5 -18 18 -18 23 0 117 90 575 547 l548 548 0 -65 0 -65 -466 -465 c-256
-256 -470 -473 -475 -482 -8 -15 -5 -18 18 -18 22 0 103 76 475 447 l448 447
0 -64 0 -65 -366 -365 c-201 -201 -370 -373 -375 -382 -8 -15 -5 -18 18 -18
22 0 88 61 375 347 l348 347 0 -64 0 -65 -266 -265 c-146 -146 -270 -273 -275
-282 -8 -15 -5 -18 17 -18 22 0 76 48 285 257 142 141 260 255 262 252 2 -2
14 -19 27 -37 l23 -34 -212 -212 c-116 -117 -211 -215 -211 -219 0 -4 12 -7
26 -7 22 0 69 41 230 201 l202 201 34 -23 c18 -13 35 -25 37 -27 3 -1 -70 -78
-162 -170 -92 -93 -167 -171 -167 -175 0 -4 12 -7 26 -7 21 0 63 36 195 166
l168 166 57 -7 56 -7 -151 -152 c-83 -84 -151 -156 -151 -159 0 -4 12 -7 26
-7 21 0 62 35 188 160 l162 160 64 0 64 0 -152 -153 c-84 -85 -152 -157 -152
-160 0 -4 12 -7 26 -7 21 0 62 35 188 160 l162 160 64 0 64 0 -152 -153 c-84
-85 -152 -157 -152 -160 0 -4 12 -7 26 -7 21 0 62 35 188 160 l162 160 64 0
64 0 -152 -153 c-84 -85 -152 -157 -152 -160 0 -4 12 -7 26 -7 21 0 62 35 188
160 l162 160 64 0 64 0 -152 -153 c-84 -85 -152 -157 -152 -160 0 -4 12 -7 26
-7 21 0 62 35 188 160 l162 160 64 0 64 0 -152 -153 c-84 -85 -152 -157 -152
-160 0 -4 12 -7 26 -7 21 0 62 35 188 160 l162 160 64 0 64 0 -152 -153 c-84
-85 -152 -157 -152 -160 0 -4 12 -7 26 -7 21 0 62 35 188 160 l162 160 64 0
64 0 -152 -153 c-84 -85 -152 -157 -152 -160 0 -4 12 -7 26 -7 21 0 62 35 188
160 l162 160 64 0 64 0 -152 -153 c-84 -85 -152 -157 -152 -160 0 -4 12 -7 26
-7 21 0 62 35 188 160 l162 160 64 0 64 0 -152 -153 c-84 -85 -152 -157 -152
-160 0 -4 12 -7 26 -7 21 0 62 35 188 160 l162 160 64 0 64 0 -152 -153 c-84
-85 -152 -157 -152 -160 0 -4 12 -7 26 -7 21 0 62 35 188 160 l162 160 64 0
64 0 -152 -153 c-84 -85 -152 -157 -152 -160 0 -4 12 -7 26 -7 21 0 62 35 188
160 l162 160 64 0 64 0 -152 -153 c-84 -85 -152 -157 -152 -160 0 -4 12 -7 26
-7 21 0 62 35 188 160 l162 160 64 0 64 0 -152 -153 c-84 -85 -152 -157 -152
-160 0 -4 12 -7 26 -7 21 0 62 35 188 159 l161 159 68 4 67 4 -155 -156 c-85
-86 -155 -159 -155 -163 0 -4 12 -7 26 -7 21 0 67 40 214 185 103 102 192 185
199 185 17 0 88 68 112 108 12 21 132 148 266 283 195 197 243 251 243 272 0
15 -3 27 -7 27 -4 0 -107 -100 -230 -222 l-223 -222 0 64 0 64 230 231 c184
186 230 237 230 258 0 15 -3 27 -7 27 -4 0 -107 -100 -230 -222 l-223 -222 0
64 0 64 230 231 c184 186 230 237 230 258 0 15 -3 27 -7 27 -4 0 -107 -100
-230 -222 l-223 -222 0 64 0 64 230 231 c184 186 230 237 230 258 0 15 -3 27
-7 27 -4 0 -107 -100 -230 -222 l-223 -222 0 64 0 64 230 231 c184 186 230
237 230 258 0 15 -3 27 -7 27 -4 0 -107 -100 -230 -222 l-223 -222 0 64 0 64
230 231 c184 186 230 237 230 258 0 15 -3 27 -7 27 -4 0 -107 -100 -230 -222
l-223 -222 0 64 0 64 230 231 c184 186 230 237 230 258 0 15 -3 27 -7 27 -4 0
-107 -100 -230 -222 l-223 -222 0 64 0 64 230 231 c184 186 230 237 230 258 0
15 -3 27 -7 27 -4 0 -107 -100 -230 -222 l-223 -222 0 64 0 64 230 231 c184
186 230 237 230 258 0 15 -3 27 -7 27 -4 0 -107 -100 -230 -222 l-223 -222 0
64 0 64 230 231 c184 186 230 237 230 258 0 15 -3 27 -7 27 -4 0 -111 -103
-238 -230 l-230 -229 -19 45 -19 46 257 257 c206 208 256 263 256 284 0 15 -3
27 -7 27 -4 0 -127 -120 -274 -267 l-268 -266 -34 29 -34 29 308 311 c251 252
309 315 309 337 0 15 -3 27 -7 27 -4 0 -154 -146 -333 -325 l-326 -326 -52 13
-53 12 386 386 c318 319 385 391 385 413 0 23 -3 26 -17 18 -10 -5 -200 -192
-423 -415 l-405 -406 -65 0 -65 0 488 488 c406 406 487 492 487 515 0 23 -3
26 -17 18 -10 -5 -245 -237 -523 -515 l-505 -506 -65 0 -65 0 588 588 c491
492 587 592 587 615 0 23 -3 26 -17 18 -10 -5 -290 -282 -623 -615 l-605 -606
-65 0 -65 0 688 688 c577 577 687 692 687 715 0 23 -3 26 -17 18 -10 -5 -335
-327 -723 -715 l-705 -706 -65 0 -65 0 788 788 c662 663 787 792 787 815 0 23
-3 26 -17 18 -10 -5 -380 -372 -823 -815 l-805 -806 -65 0 -65 0 888 888 c747
748 887 892 887 915 0 23 -3 26 -17 18 -10 -5 -425 -417 -923 -915 l-905 -906
-65 0 -65 0 988 988 c833 833 987 992 987 1015 0 23 -3 26 -17 18 -10 -5 -470
-462 -1023 -1015 l-1005 -1006 -65 0 -65 0 1088 1088 c918 919 1087 1092 1087
1115 0 23 -3 26 -17 18 -10 -5 -515 -507 -1123 -1115 l-1105 -1106 -65 0 -65
0 1188 1188 c1004 1004 1187 1192 1187 1215 0 23 -3 26 -17 18 -10 -5 -560
-552 -1223 -1215 l-1205 -1206 -65 0 -65 0 1233 1233 c677 678 1232 1236 1232
1240 0 4 -12 7 -27 7 -23 0 -226 -198 -1268 -1240 l-1240 -1240 -65 0 -65 0
1233 1233 c677 678 1232 1236 1232 1240 0 4 -12 7 -27 7 -23 0 -226 -198
-1268 -1240 l-1240 -1240 -65 0 -65 0 1233 1233 c677 678 1232 1236 1232 1240
0 4 -12 7 -27 7 -23 0 -226 -198 -1268 -1240 l-1240 -1240 -65 0 -65 0 1233
1233 c677 678 1232 1236 1232 1240 0 4 -12 7 -27 7 -23 0 -219 -192 -1223
-1195 -657 -657 -1199 -1195 -1203 -1195 -4 0 -7 26 -7 58 l0 57 1121 1120
c616 616 1125 1128 1130 1138 8 14 5 17 -18 17 -23 0 -199 -171 -1133 -1105
-608 -608 -1108 -1105 -1112 -1105 -3 0 -9 23 -13 51 l-7 52 1046 1046 c575
575 1046 1050 1046 1054 0 4 -12 7 -27 7 -23 0 -194 -166 -1053 -1025 l-1026
-1026 -16 49 -15 50 959 958 c528 528 964 967 969 977 8 14 5 17 -18 17 -23 0
-176 -149 -978 -950 l-951 -951 -17 36 c-9 20 -17 41 -17 48 0 7 399 410 886
897 487 487 890 893 895 903 8 14 5 17 -18 17 -23 0 -166 -139 -909 -881
l-882 -882 -22 43 -22 43 831 831 c457 457 831 835 831 839 0 4 -12 7 -27 7
-23 0 -162 -134 -843 -815 l-816 -816 -23 42 -24 41 767 767 c421 421 766 770
766 774 0 4 -12 7 -27 7 -23 0 -152 -124 -779 -751 l-752 -751 -26 38 -26 39
705 705 c388 388 705 709 705 713 0 4 -12 7 -27 7 -23 0 -143 -115 -718 -690
-544 -543 -693 -687 -705 -680 -24 16 -76 11 -92 -7 -8 -10 -30 -56 -48 -103
l-33 -85 -286 -288 -286 -288 -3 63 -3 62 1000 1001 c551 550 1001 1004 1001
1008 0 4 -12 7 -27 7 -23 0 -186 -158 -1000 -972 l-973 -973 0 65 0 65 891
890 c489 490 895 898 900 908 8 14 5 17 -18 17 -23 0 -165 -137 -900 -872
l-873 -873 0 65 0 65 791 790 c434 435 795 798 800 808 8 14 5 17 -18 17 -23
0 -150 -123 -800 -772 l-773 -773 0 65 0 65 691 690 c379 380 695 698 700 708
8 14 5 17 -18 17 -23 0 -136 -108 -700 -672 l-673 -673 0 65 0 65 591 590
c324 325 595 598 600 608 8 14 5 17 -18 17 -23 0 -121 -94 -600 -572 l-573
-573 0 65 0 65 491 490 c269 270 495 498 500 508 8 14 5 17 -18 17 -23 0 -106
-79 -500 -472 l-473 -473 0 65 0 65 391 390 c214 215 395 398 400 408 8 14 5
17 -18 17 -22 0 -92 -65 -400 -372 l-373 -372 0 64 0 65 291 290 c159 160 295
298 300 308 8 14 5 17 -17 17 -22 0 -78 -50 -299 -271 l-272 -271 -6 59 -5 58
204 206 c112 113 204 208 204 212 0 4 -12 7 -26 7 -21 0 -67 -40 -219 -190
-189 -187 -192 -190 -210 -170 -10 11 -27 22 -37 26 -17 5 4 31 136 163 86 87
156 160 156 164 0 4 -12 7 -26 7 -21 0 -61 -34 -183 -154z m509 -1596 c-11
-27 -29 -74 -41 -102 -17 -45 -54 -87 -232 -266 l-212 -212 -7 57 -7 58 257
258 c141 141 258 257 259 257 2 0 -6 -22 -17 -50z m-140 -349 c-17 -39 -30
-80 -30 -93 0 -17 -40 -64 -140 -163 -76 -76 -141 -137 -144 -135 -2 3 -8 25
-14 50 l-9 45 181 183 c99 100 182 182 183 182 1 0 -11 -31 -27 -69z m116
-369 l-287 -287 -31 34 -30 34 266 266 c212 212 275 270 309 282 l42 14 9 -28
c9 -28 0 -38 -278 -315z m-156 43 l-215 -215 -17 33 c-9 17 -17 39 -18 47 0 8
66 82 148 163 132 132 151 147 182 148 19 0 53 9 75 19 22 10 44 19 50 19 5 1
-87 -96 -205 -214z m469 127 l8 -51 -71 -68 c-44 -43 -86 -74 -111 -82 -92
-31 -169 -108 -200 -200 -9 -29 -32 -64 -60 -91 l-44 -43 -41 18 c-22 10 -40
21 -40 24 0 8 543 551 547 547 2 -2 7 -26 12 -54z m627 -610 c10 -5 -42 -63
-171 -192 -101 -101 -187 -182 -190 -179 -3 3 -8 27 -11 53 l-7 48 144 145
144 144 39 -6 c22 -3 45 -9 52 -13z m104 -59 l32 -26 -203 -203 -203 -204 -33
32 -33 32 197 198 c109 109 201 198 205 198 3 0 21 -12 38 -27z m875 -183
c-71 -71 -137 -130 -146 -130 -9 0 -29 10 -44 21 l-27 22 108 108 109 109 65
0 65 0 -130 -130z m195 -5 l-135 -135 -65 0 -65 0 135 135 135 135 65 0 65 0
-135 -135z m200 0 l-135 -135 -65 0 -65 0 135 135 135 135 65 0 65 0 -135
-135z m200 0 l-135 -135 -65 0 -65 0 135 135 135 135 65 0 65 0 -135 -135z
m200 0 l-135 -135 -65 0 -65 0 135 135 135 135 65 0 65 0 -135 -135z m249 104
l34 -21 -109 -109 -109 -109 -65 0 -65 0 130 130 c71 72 134 130 140 130 5 0
25 -9 44 -21z m-1839 -43 l12 -39 -165 -165 c-160 -160 -166 -164 -198 -158
-76 14 -77 13 131 221 107 107 197 191 201 187 4 -4 12 -24 19 -46z m-1 -173
c-32 -100 -113 -171 -224 -197 -25 -6 -9 14 100 124 71 71 131 126 133 120 2
-5 -2 -27 -9 -47z m-319 -396 c0 -1 -104 -106 -231 -232 l-231 -230 6 45 c13
85 42 130 163 252 119 119 149 138 244 157 24 5 45 9 47 10 1 1 2 0 2 -2z
m164 -14 c15 -4 -46 -69 -300 -324 -339 -339 -332 -334 -333 -244 -1 39 4 45
272 313 270 270 272 273 307 267 19 -3 43 -9 54 -12z m914 -110 l-126 -126
-27 17 c-48 31 -43 42 56 142 l94 94 65 0 65 0 -127 -127z m197 -3 l-130 -130
-65 0 -65 0 130 130 130 130 65 0 65 0 -130 -130z m200 0 l-130 -130 -65 0
-65 0 130 130 130 130 65 0 65 0 -130 -130z m200 0 l-130 -130 -65 0 -65 0
130 130 130 130 65 0 65 0 -130 -130z m200 0 l-130 -130 -65 0 -65 0 130 130
130 130 65 0 65 0 -130 -130z m262 115 l37 -16 -114 -114 -115 -115 -65 0 -65
0 130 130 c71 72 136 130 143 130 7 0 29 -7 49 -15z m-1855 -46 l41 -21 -339
-339 c-186 -186 -344 -339 -351 -339 -6 0 -25 11 -40 25 l-28 24 335 336 c184
184 336 335 338 335 1 0 21 -9 44 -21z m1932 -49 c8 -44 -19 -106 -59 -130
-22 -13 -50 -20 -86 -20 l-54 0 90 90 c49 50 92 90 96 90 4 0 9 -14 13 -30z
m-2081 -362 l-298 -298 -65 0 -65 0 330 330 329 330 33 -32 33 -32 -297 -298z
m355 214 l21 -38 -237 -237 -237 -237 -65 0 -65 0 275 275 c151 151 277 275
281 275 3 0 15 -17 27 -38z m58 -148 l7 -46 -159 -159 -159 -159 -65 0 -65 0
209 209 c116 116 213 208 217 205 4 -2 11 -25 15 -50z m-49 -301 l-65 -63 -63
0 -64 0 125 125 125 125 3 -62 3 -63 -64 -62z"/>
<path d="M4696 450 c-229 -228 -422 -423 -427 -432 -8 -15 -5 -18 18 -18 22 0
93 66 411 383 211 210 392 394 403 410 11 15 19 37 17 50 -4 18 -72 -45 -422
-393z"/>
<path d="M4796 350 c-174 -173 -322 -323 -327 -332 -8 -15 -5 -18 17 -18 23 0
80 52 312 282 156 156 293 295 303 311 11 15 19 37 17 50 -4 18 -54 -28 -322
-293z"/>
<path d="M4896 250 c-119 -118 -222 -223 -227 -232 -8 -15 -5 -18 17 -18 21 0
65 37 211 183 205 202 226 227 221 260 -3 19 -37 -11 -222 -193z"/>
<path d="M4996 150 c-136 -133 -149 -150 -111 -150 18 0 49 23 111 82 102 98
127 130 122 161 -3 19 -19 7 -122 -93z"/>
</g>
</svg>
