<?xml version="1.0" encoding="UTF-8" standalone="no"?>
<svg
   xmlns:dc="http://purl.org/dc/elements/1.1/"
   xmlns:cc="http://creativecommons.org/ns#"
   xmlns:rdf="http://www.w3.org/1999/02/22-rdf-syntax-ns#"
   xmlns:svg="http://www.w3.org/2000/svg"
   xmlns="http://www.w3.org/2000/svg"
   xmlns:sodipodi="http://sodipodi.sourceforge.net/DTD/sodipodi-0.dtd"
   xmlns:inkscape="http://www.inkscape.org/namespaces/inkscape"
   version="1.1"
   viewBox="0 0 44 44"
   enable-background="new 0 0 44 44"
   id="svg4"
   sodipodi:docname="plus.svg"
   inkscape:version="0.92.3 (2405546, 2018-03-11)">
  <metadata
     id="metadata10">
    <rdf:RDF>
      <cc:Work
         rdf:about="">
        <dc:format>image/svg+xml</dc:format>
        <dc:type
           rdf:resource="http://purl.org/dc/dcmitype/StillImage" />
      </cc:Work>
    </rdf:RDF>
  </metadata>
  <defs
     id="defs8" />
  <sodipodi:namedview
     pagecolor="#ffffff"
     bordercolor="#666666"
     borderopacity="1"
     objecttolerance="10"
     gridtolerance="10"
     guidetolerance="10"
     inkscape:pageopacity="0"
     inkscape:pageshadow="2"
     inkscape:window-width="1920"
     inkscape:window-height="1017"
     id="namedview6"
     showgrid="false"
     inkscape:zoom="5.3636364"
     inkscape:cx="22"
     inkscape:cy="22"
     inkscape:window-x="-8"
     inkscape:window-y="-8"
     inkscape:window-maximized="1"
     inkscape:current-layer="svg4" />
  <path
     id="path2"
     d="M64.849,50l32.534-32.534c0.781-0.781,0.781-2.047,0-2.828L85.363,2.616c-0.375-0.375-0.884-0.586-1.414-0.586 s-1.039,0.211-1.414,0.586L50,35.151L17.465,2.616c-0.75-0.75-2.078-0.75-2.828,0L2.617,14.638c-0.781,0.781-0.781,2.047,0,2.828 L35.151,50L2.617,82.534c-0.781,0.781-0.781,2.047,0,2.828l12.02,12.021c0.375,0.375,0.884,0.586,1.414,0.586 s1.039-0.211,1.414-0.586L50,64.849l32.535,32.535c0.375,0.375,0.884,0.586,1.414,0.586s1.039-0.211,1.414-0.586l12.02-12.021	c0.781-0.781,0.781-2.047,0-2.828L64.849,50z" />
</svg>
