<?xml version="1.0" encoding="UTF-8" standalone="no"?>
<!-- Generator: Adobe Illustrator 16.0.0, SVG Export Plug-In . SVG Version: 6.00 Build 0)  -->

<svg
   xmlns:dc="http://purl.org/dc/elements/1.1/"
   xmlns:cc="http://creativecommons.org/ns#"
   xmlns:rdf="http://www.w3.org/1999/02/22-rdf-syntax-ns#"
   xmlns:svg="http://www.w3.org/2000/svg"
   xmlns="http://www.w3.org/2000/svg"
   xmlns:sodipodi="http://sodipodi.sourceforge.net/DTD/sodipodi-0.dtd"
   xmlns:inkscape="http://www.inkscape.org/namespaces/inkscape"
   version="1.1"
   id="Capa_1"
   x="0px"
   y="0px"
   width="900.5px"
   height="900.5px"
   viewBox="0 0 900.5 900.5"
   style="enable-background:new 0 0 900.5 900.5;"
   xml:space="preserve"
   sodipodi:docname="delete-photo.svg"
   inkscape:version="0.92.3 (2405546, 2018-03-11)"><metadata
   id="metadata43"><rdf:RDF><cc:Work
       rdf:about=""><dc:format>image/svg+xml</dc:format><dc:type
         rdf:resource="http://purl.org/dc/dcmitype/StillImage" /></cc:Work></rdf:RDF></metadata><defs
   id="defs41">
	
	
</defs><sodipodi:namedview
   pagecolor="#ffffff"
   bordercolor="#666666"
   borderopacity="1"
   objecttolerance="10"
   gridtolerance="10"
   guidetolerance="10"
   inkscape:pageopacity="0"
   inkscape:pageshadow="2"
   inkscape:window-width="1920"
   inkscape:window-height="1017"
   id="namedview39"
   showgrid="false"
   inkscape:zoom="0.26207662"
   inkscape:cx="-24.801907"
   inkscape:cy="450.25"
   inkscape:window-x="-8"
   inkscape:window-y="-8"
   inkscape:window-maximized="1"
   inkscape:current-layer="Capa_1" />
<path
   id="path4"
   d="M 618.825,91.911 V 20 c 0,-11.046 -8.954,-20 -20,-20 h -297.15 c -11.046,0 -20,8.954 -20,20 v 71.911 12.5 12.5 H 141.874 c -11.046,0 -20,8.954 -20,20 v 50.576 c 0,11.045 8.954,20 20,20 h 34.541 547.67 34.541 c 11.046,0 20,-8.955 20,-20 v -50.576 c 0,-11.046 -8.954,-20 -20,-20 H 618.825 v -12.5 z m -75,20.888 H 356.675 V 104.41 91.91 75 h 187.15 v 16.911 12.5 z M 176.415,880.5 c 0,11.046 8.954,20 20,20 h 507.67 c 11.046,0 20,-8.954 20,-20 V 232.487 H 176.415 Z M 562.75,342.766 h 75 v 436.029 h -75 z m -150,0 h 75 v 436.029 h -75 z m -150,0 h 75 v 436.029 h -75 z" />
<g
   id="g8">
</g>
<g
   id="g10">
</g>
<g
   id="g12">
</g>
<g
   id="g14">
</g>
<g
   id="g16">
</g>
<g
   id="g18">
</g>
<g
   id="g20">
</g>
<g
   id="g22">
</g>
<g
   id="g24">
</g>
<g
   id="g26">
</g>
<g
   id="g28">
</g>
<g
   id="g30">
</g>
<g
   id="g32">
</g>
<g
   id="g34">
</g>
<g
   id="g36">
</g>
</svg>