<?xml version="1.0" encoding="UTF-8" standalone="no"?>
<!-- Generator: Adobe Illustrator 18.1.1, SVG Export Plug-In . SVG Version: 6.00 Build 0)  -->

<svg
   xmlns:dc="http://purl.org/dc/elements/1.1/"
   xmlns:cc="http://creativecommons.org/ns#"
   xmlns:rdf="http://www.w3.org/1999/02/22-rdf-syntax-ns#"
   xmlns:svg="http://www.w3.org/2000/svg"
   xmlns="http://www.w3.org/2000/svg"
   xmlns:sodipodi="http://sodipodi.sourceforge.net/DTD/sodipodi-0.dtd"
   xmlns:inkscape="http://www.inkscape.org/namespaces/inkscape"
   version="1.1"
   id="Capa_1"
   x="0px"
   y="0px"
   viewBox="0 0 20.755 20.755"
   style="enable-background:new 0 0 20.755 20.755;"
   xml:space="preserve"
   sodipodi:docname="digital-photo-camera - Copy.svg"
   inkscape:version="0.92.3 (2405546, 2018-03-11)"><metadata
   id="metadata41"><rdf:RDF><cc:Work
       rdf:about=""><dc:format>image/svg+xml</dc:format><dc:type
         rdf:resource="http://purl.org/dc/dcmitype/StillImage" /></cc:Work></rdf:RDF></metadata><defs
   id="defs39">
	
</defs><sodipodi:namedview
   pagecolor="#ffffff"
   bordercolor="#666666"
   borderopacity="1"
   objecttolerance="10"
   gridtolerance="10"
   guidetolerance="10"
   inkscape:pageopacity="0"
   inkscape:pageshadow="2"
   inkscape:window-width="1920"
   inkscape:window-height="1017"
   id="namedview37"
   showgrid="false"
   inkscape:zoom="11.370754"
   inkscape:cx="-0.57164193"
   inkscape:cy="10.3775"
   inkscape:window-x="-8"
   inkscape:window-y="-8"
   inkscape:window-maximized="1"
   inkscape:current-layer="Capa_1" />
<path
   inkscape:connector-curvature="0"
   id="path2"
   d="M 10.324,12.655 C 10.323,11.105 9.067,9.85 7.517,9.85 c -1.548,0 -2.804,1.255 -2.804,2.805 0,1.55 1.256,2.805 2.804,2.805 1.551,0 2.807,-1.255 2.807,-2.805 z M 5.763,14.002 C 5.511,13.832 5.311,13.602 5.197,13.333 5.079,13.065 5.051,12.762 5.099,12.46 5.15,12.158 5.272,11.859 5.463,11.585 c -0.035,0.293 -0.067,0.572 -0.054,0.838 0.01,0.266 0.062,0.517 0.16,0.747 0.1,0.231 0.246,0.441 0.431,0.63 0.185,0.191 0.405,0.362 0.658,0.521 C 6.317,14.293 6.016,14.17 5.763,14.002 Z M 19.275,4.087 H 12.907 L 12.971,4.36 H 7.021 L 7.087,4.087 H 4.406 V 3.214 H 1.904 V 4.087 H 1.482 C 0.665,4.087 0,4.748 0,5.567 v 10.536 c 0,0.818 0.665,1.481 1.482,1.481 H 4.07 C 2.546,16.499 1.548,14.719 1.548,12.709 1.548,9.412 4.231,6.73 7.527,6.73 c 3.296,0 5.979,2.683 5.979,5.979 0,2.01 -0.998,3.79 -2.522,4.875 h 8.292 c 0.816,0 1.479,-0.663 1.479,-1.481 V 5.567 c -10e-4,-0.819 -0.663,-1.48 -1.48,-1.48 z m -0.541,11.382 c 0,0.438 -0.354,0.793 -0.792,0.793 -0.438,0 -0.794,-0.355 -0.794,-0.793 V 9.592 c 0,-0.438 0.356,-0.793 0.794,-0.793 0.438,0 0.792,0.355 0.792,0.793 z M 19.14,7.514 H 15.247 V 5.747 H 19.14 Z M 12.42,2.068 H 7.575 L 7.087,4.087 h 5.82 z M 7.97,3.613 8.162,2.815 h 3.669 l 0.192,0.798 z m 3.013,13.97 h -0.864 c 1.79,-0.939 3.011,-2.813 3.011,-4.975 0,-3.101 -2.512,-5.614 -5.613,-5.614 -3.099,0 -5.612,2.513 -5.612,5.614 0,2.162 1.222,4.037 3.011,4.975 H 4.07 c 0.978,0.694 2.17,1.104 3.457,1.104 1.287,0 2.478,-0.409 3.456,-1.104 z M 2.294,12.708 c 0,-2.885 2.348,-5.232 5.233,-5.232 2.884,0 5.232,2.347 5.232,5.232 0,2.885 -2.349,5.232 -5.232,5.232 -2.885,10e-4 -5.233,-2.346 -5.233,-5.232 z"
   style="fill:#010002" />
<g
   id="g6">
</g>
<g
   id="g8">
</g>
<g
   id="g10">
</g>
<g
   id="g12">
</g>
<g
   id="g14">
</g>
<g
   id="g16">
</g>
<g
   id="g18">
</g>
<g
   id="g20">
</g>
<g
   id="g22">
</g>
<g
   id="g24">
</g>
<g
   id="g26">
</g>
<g
   id="g28">
</g>
<g
   id="g30">
</g>
<g
   id="g32">
</g>
<g
   id="g34">
</g>
</svg>