<?xml version="1.0" encoding="UTF-8" standalone="no"?>
<!-- Generator: Adobe Illustrator 19.1.0, SVG Export Plug-In . SVG Version: 6.00 Build 0)  -->

<svg
   xmlns:dc="http://purl.org/dc/elements/1.1/"
   xmlns:cc="http://creativecommons.org/ns#"
   xmlns:rdf="http://www.w3.org/1999/02/22-rdf-syntax-ns#"
   xmlns:svg="http://www.w3.org/2000/svg"
   xmlns="http://www.w3.org/2000/svg"
   xmlns:sodipodi="http://sodipodi.sourceforge.net/DTD/sodipodi-0.dtd"
   xmlns:inkscape="http://www.inkscape.org/namespaces/inkscape"
   version="1.1"
   id="Capa_1"
   x="0px"
   y="0px"
   viewBox="0 0 488.8 488.8"
   style="enable-background:new 0 0 488.8 488.8;"
   xml:space="preserve"
   sodipodi:docname="zoomout.svg"
   inkscape:version="0.92.3 (2405546, 2018-03-11)"><metadata
   id="metadata49"><rdf:RDF><cc:Work
       rdf:about=""><dc:format>image/svg+xml</dc:format><dc:type
         rdf:resource="http://purl.org/dc/dcmitype/StillImage" /><dc:title /></cc:Work></rdf:RDF></metadata><defs
   id="defs47" /><sodipodi:namedview
   pagecolor="#ffffff"
   bordercolor="#666666"
   borderopacity="1"
   objecttolerance="10"
   gridtolerance="10"
   guidetolerance="10"
   inkscape:pageopacity="0"
   inkscape:pageshadow="2"
   inkscape:window-width="1920"
   inkscape:window-height="1017"
   id="namedview45"
   showgrid="false"
   inkscape:zoom="0.96563014"
   inkscape:cx="-109.44356"
   inkscape:cy="194.17106"
   inkscape:window-x="-8"
   inkscape:window-y="-8"
   inkscape:window-maximized="1"
   inkscape:current-layer="Capa_1" />
<g
   id="g12">
	<g
   id="g10">
		<g
   id="g4">
			
		</g>
		<g
   id="g8">
			
		</g>
	</g>
</g>
<g
   id="g14">
</g>
<g
   id="g16">
</g>
<g
   id="g18">
</g>
<g
   id="g20">
</g>
<g
   id="g22">
</g>
<g
   id="g24">
</g>
<g
   id="g26">
</g>
<g
   id="g28">
</g>
<g
   id="g30">
</g>
<g
   id="g32">
</g>
<g
   id="g34">
</g>
<g
   id="g36">
</g>
<g
   id="g38">
</g>
<g
   id="g40">
</g>
<g
   id="g42">
</g>
<path
   id="rect26-2"
   transform="rotate(90)"
   style=""
   d="M 382.5,114.75 382.5,0 191.25,0 C 170.212,0 153,17.212 153,38.25 c -21.038,0 -38.25,17.212 -38.25,38.25 -21.038,0 -38.25,17.212 -38.25,38.25 l 0,439.875 c 0,21.037 17.212,38.25 38.25,38.25 l 286.875,0 c 21.037,0 38.25,-17.213 38.25,-38.25 21.037,0 38.25,-17.213 38.25,-38.25 21.037,0 38.25,-17.213 38.25,-38.25 l 0,-325.125 -95.625,0 c -21.037,0 -38.25,-17.212 -38.25,-38.25 z m 19.125,459 -286.875,0 c -9.562,0 -19.125,-7.65 -19.125,-19.125 l 0,-439.875 c 0,-9.562 7.65,-19.125 19.125,-19.125 l 0,420.75 c 0,21.037 17.212,38.25 38.25,38.25 l 267.75,0 c 0,9.563 -7.65,19.125 -19.125,19.125 z m 38.25,-38.25 -286.875,0 c -9.562,0 -19.125,-7.65 -19.125,-19.125 l 0,-439.875 c 0,-9.562 7.65,-19.125 19.125,-19.125 l 0,420.75 c 0,21.037 17.212,38.25 38.25,38.25 l 267.75,0 c 0,9.563 -7.65,19.125 -19.125,19.125 z m -19.125,-401.625 95.625,0 L 401.625,0 l 0,114.75 c 0,11.475 9.563,19.125 19.125,19.125 z" /></svg>