<?xml version="1.0" encoding="iso-8859-1"?>
<!-- Generator: Adobe Illustrator 16.0.0, SVG Export Plug-In . SVG Version: 6.00 Build 0)  -->
<!DOCTYPE svg PUBLIC "-//W3C//DTD SVG 1.1//EN" "http://www.w3.org/Graphics/SVG/1.1/DTD/svg11.dtd">
<svg version="1.1" id="Capa_1" xmlns="http://www.w3.org/2000/svg" xmlns:xlink="http://www.w3.org/1999/xlink" x="0px" y="0px"
	 width="528.899px" height="528.899px" viewBox="0 0 528.899 528.899" style="enable-background:new 0 0 528.899 528.899;"
	 xml:space="preserve">
<g>
	<path d="M123.057,37.726c6.096-6.104,6.096-15.996,0-22.096L112.009,4.578c-6.104-6.104-16-6.104-22.103,0l-6.682,6.899l33.152,33.148L123.057,37.726zM32.983,112.158c-4.777,0-11.751,0.618-15.131-2.761c-3.379-3.388-2.753-10.354-2.753-15.131c0-0.873-5.731-8.739-5.914-8.957L1.19,126.067l40.645-7.987C41.643,117.906,33.917,112.158,32.983,112.158zM76.237,17.634l-0.12,0.12l-0.066-0.066L16.097,77.706L51,112.5l60.14-59.727l-0.172-0.172l0.172-0.173L76.237,17.634zM26.307,78.398l50.645-50.564l6.465,6.444L32.759,84.83L26.307,78.398z M50.357,102.372l-6.532-6.511l50.663-50.546l6.534,6.513L50.357,102.372z"/>
</g>
<g>
</g>
<g>
</g>
<g>
</g>
<g>
</g>
<g>
</g>
<g>
</g>
<g>
</g>
<g>
</g>
<g>
</g>
<g>
</g>
<g>
</g>
<g>
</g>
<g>
</g>
<g>
</g>
<g>
</g>
</svg>
