<?xml version="1.0" encoding="iso-8859-1"?>
<!-- Generator: Adobe Illustrator 18.0.0, SVG Export Plug-In . SVG Version: 6.00 Build 0)  -->
<!DOCTYPE svg PUBLIC "-//W3C//DTD SVG 1.1//EN" "http://www.w3.org/Graphics/SVG/1.1/DTD/svg11.dtd">
<svg version="1.1" id="Capa_1" xmlns="http://www.w3.org/2000/svg" xmlns:xlink="http://www.w3.org/1999/xlink" x="0px" y="0px"
	 viewBox="0 0 59 59" style="enable-background:new 0 0 59 59;" xml:space="preserve">
<g>
	<path d="M50.95,40.63c-0.391-0.391-1.023-0.391-1.414,0L46,44.166l-3.536-3.536c-0.391-0.391-1.023-0.391-1.414,0
		s-0.391,1.023,0,1.414l3.536,3.536l-3.536,3.536c-0.391,0.391-0.391,1.023,0,1.414c0.195,0.195,0.451,0.293,0.707,0.293
		s0.512-0.098,0.707-0.293L46,46.994l3.536,3.536c0.195,0.195,0.451,0.293,0.707,0.293s0.512-0.098,0.707-0.293
		c0.391-0.391,0.391-1.023,0-1.414l-3.536-3.536l3.536-3.536C51.34,41.653,51.34,41.021,50.95,40.63z"/>
	<path d="M46,32.5c-7.168,0-13,5.832-13,13s5.832,13,13,13s13-5.832,13-13S53.168,32.5,46,32.5z M46,56.5c-6.065,0-11-4.935-11-11
		s4.935-11,11-11s11,4.935,11,11S52.065,56.5,46,56.5z"/>
	<path d="M52,5.5c0-0.552-0.448-1-1-1h-5v-3c0-0.553-0.448-1-1-1h-7c-0.552,0-1,0.447-1,1v3H15v-3c0-0.553-0.448-1-1-1H7
		c-0.552,0-1,0.447-1,1v3H1c-0.552,0-1,0.448-1,1v9h52V5.5z M13,5.5v3H8v-3v-3h5V5.5z M44,5.5v3h-5v-3v-3h5V5.5z"/>
	<path d="M30,45.5c0-6.882,4.376-12.746,10.485-15H37v-8h8v7.051c0.332-0.021,0.662-0.051,1-0.051c2.122,0,4.145,0.424,6,1.178V17.5
		c0-0.553-0.448-1-1-1H1c-0.552,0-1,0.447-1,1v39c0,0.553,0.448,1,1,1h34.453C32.118,54.566,30,50.28,30,45.5z M15,50.5H7v-8h8V50.5
		z M15,40.5H7v-8h8V40.5z M15,30.5H7v-8h8V30.5z M25,50.5h-7h-1v-8h8V50.5z M25,40.5h-8v-8h8V40.5z M25,30.5h-8v-8h1h7V30.5z
		 M27,22.5h7h1v8h-8V22.5z"/>
</g>
<g>
</g>
<g>
</g>
<g>
</g>
<g>
</g>
<g>
</g>
<g>
</g>
<g>
</g>
<g>
</g>
<g>
</g>
<g>
</g>
<g>
</g>
<g>
</g>
<g>
</g>
<g>
</g>
<g>
</g>
</svg>
