<?xml version="1.0" encoding="UTF-8" standalone="no"?>
<!-- Generator: Adobe Illustrator 19.0.0, SVG Export Plug-In . SVG Version: 6.00 Build 0)  -->

<svg
   xmlns:dc="http://purl.org/dc/elements/1.1/"
   xmlns:cc="http://creativecommons.org/ns#"
   xmlns:rdf="http://www.w3.org/1999/02/22-rdf-syntax-ns#"
   xmlns:svg="http://www.w3.org/2000/svg"
   xmlns="http://www.w3.org/2000/svg"
   xmlns:sodipodi="http://sodipodi.sourceforge.net/DTD/sodipodi-0.dtd"
   xmlns:inkscape="http://www.inkscape.org/namespaces/inkscape"
   version="1.1"
   id="Layer_1"
   x="0px"
   y="0px"
   viewBox="0 0 340.111 340.111"
   style="enable-background:new 0 0 340.111 340.111;"
   xml:space="preserve"
   sodipodi:docname="font.svg"
   inkscape:version="0.92.3 (2405546, 2018-03-11)"><metadata
   id="metadata47"><rdf:RDF><cc:Work
       rdf:about=""><dc:format>image/svg+xml</dc:format><dc:type
         rdf:resource="http://purl.org/dc/dcmitype/StillImage" /></cc:Work></rdf:RDF></metadata><defs
   id="defs45">
	
	

		
		
	














</defs><sodipodi:namedview
   pagecolor="#ffffff"
   bordercolor="#666666"
   borderopacity="1"
   objecttolerance="10"
   gridtolerance="10"
   guidetolerance="10"
   inkscape:pageopacity="0"
   inkscape:pageshadow="2"
   inkscape:window-width="1920"
   inkscape:window-height="1017"
   id="namedview43"
   showgrid="false"
   inkscape:zoom="0.69389113"
   inkscape:cx="-205.36363"
   inkscape:cy="170.0555"
   inkscape:window-x="1912"
   inkscape:window-y="-8"
   inkscape:window-maximized="1"
   inkscape:current-layer="Layer_1" />
<path
   style="fill:#1e252b"
   d="M 234.37891 127.79297 C 218.06391 127.79297 206.11203 130.09056 195.08203 134.22656 C 189.56803 136.29556 185.66406 141.58016 185.66406 147.78516 C 185.66406 155.82716 192.09867 162.03125 200.13867 162.03125 C 201.74967 162.03125 203.12831 161.80228 205.19531 161.11328 C 211.85931 159.04428 219.67322 157.66602 229.32422 157.66602 C 246.78822 157.66602 255.75195 165.70755 255.75195 180.18555 L 255.75195 182.25391 C 247.01995 179.26591 238.05648 177.19727 225.64648 177.19727 C 196.46348 177.19727 176.01172 189.60523 176.01172 216.49023 L 176.01172 216.95117 C 176.01172 241.31117 195.08392 254.63677 218.29492 254.63477 C 235.29692 254.63477 247.01753 248.43077 255.51953 239.00977 L 255.51953 239.24023 C 255.51953 246.59423 262.18392 253.7168 272.29492 253.7168 C 281.71692 253.7168 289.29883 246.36441 289.29883 236.94141 L 289.29883 180.87305 C 289.29883 164.32805 285.16366 150.76913 275.97266 141.57812 C 267.23966 132.84612 253.44991 127.79297 234.37891 127.79297 z M 233.91992 198.10742 C 242.42192 198.10742 250.23303 199.94612 256.20703 202.70312 L 256.20703 208.9082 C 256.20703 221.5482 245.17828 230.50881 228.86328 230.50781 C 217.60428 230.50781 209.79102 224.99427 209.79102 215.57227 L 209.79102 215.11133 C 209.79102 204.08233 218.98192 198.10742 233.91992 198.10742 z "
   id="path13" /><path
   style="fill:#1e252b"
   d="M 78.818359 88.957031 C 69.164359 88.957031 62.043766 94.243609 58.134766 102.97461 L 2.0664062 229.58984 C 0.91740625 232.11784 0 234.64583 0 237.17383 C -2.3684758e-015 246.36583 7.1214063 253.71875 16.316406 253.71875 C 23.670406 253.71875 29.642859 249.58245 32.630859 242.68945 L 43.890625 216.26367 L 114.66797 216.26367 L 125.4668 241.53711 C 128.6828 248.89211 134.1987 253.71875 142.4707 253.71875 C 151.8927 253.71875 159.24609 246.13584 159.24609 236.71484 C 159.24609 234.41584 158.55525 232.11784 157.40625 229.58984 L 101.33594 102.97461 C 97.430937 94.242609 90.534719 88.957031 80.886719 88.957031 L 78.818359 88.957031 z M 79.277344 131.92969 L 101.56836 185.01172 L 56.988281 185.01172 L 79.277344 131.92969 z "
   id="path9" />















</svg>