<?xml version="1.0" encoding="UTF-8" standalone="no"?>
<svg
   xmlns:dc="http://purl.org/dc/elements/1.1/"
   xmlns:cc="http://creativecommons.org/ns#"
   xmlns:rdf="http://www.w3.org/1999/02/22-rdf-syntax-ns#"
   xmlns:svg="http://www.w3.org/2000/svg"
   xmlns="http://www.w3.org/2000/svg"
   xmlns:sodipodi="http://sodipodi.sourceforge.net/DTD/sodipodi-0.dtd"
   xmlns:inkscape="http://www.inkscape.org/namespaces/inkscape"
   width="210mm"
   height="297mm"
   viewBox="0 0 210 297"
   version="1.1"
   id="svg8"
   inkscape:version="1.0.1 (3bc2e813f5, 2020-09-07)"
   sodipodi:docname="1 - Copy.svg">
  <defs
     id="defs2" />
  <sodipodi:namedview
     id="base"
     pagecolor="#ffffff"
     bordercolor="#666666"
     borderopacity="1.0"
     inkscape:pageopacity="0.0"
     inkscape:pageshadow="2"
     inkscape:zoom="0.175"
     inkscape:cx="476.81736"
     inkscape:cy="867.19686"
     inkscape:document-units="mm"
     inkscape:current-layer="layer1"
     showgrid="false"
     inkscape:window-width="2560"
     inkscape:window-height="1017"
     inkscape:window-x="1912"
     inkscape:window-y="-8"
     inkscape:window-maximized="1"
     inkscape:document-rotation="0" />
  <metadata
     id="metadata5">
    <rdf:RDF>
      <cc:Work
         rdf:about="">
        <dc:format>image/svg+xml</dc:format>
        <dc:type
           rdf:resource="http://purl.org/dc/dcmitype/StillImage" />
        <dc:title />
      </cc:Work>
    </rdf:RDF>
  </metadata>
  <g
     inkscape:label="Layer 1"
     inkscape:groupmode="layer"
     id="layer1">
    <path
       style="fill:#000000;stroke-width:0.0920236"
       d="M 0,16.804585 V 44.811994 H 11.202824 V 16.804585 c 0,-3.086429 2.514984,-5.601413 5.601413,-5.601413 H 44.811646 V 0 H 16.804585 C 7.5397339,0 0,7.5397339 0,16.804585 Z M 196.05291,0 H 168.0455 v 11.202824 h 28.00741 c 3.08642,0 5.60106,2.514984 5.60106,5.601413 v 28.007409 h 11.20317 V 16.804585 C 212.85714,7.5397339 205.31741,0 196.05291,0 Z M 11.202824,196.05291 V 168.0455 H 0 v 28.00741 c 0,9.2645 7.5397339,16.80423 16.804585,16.80423 H 44.811994 V 201.65397 H 16.804585 c -3.086429,0 -5.601761,-2.51464 -5.601761,-5.60106 z m 190.451146,0 c 0,3.08642 -2.51464,5.60106 -5.60106,5.60106 H 168.0455 v 11.20317 h 28.00741 c 9.2645,0 16.80423,-7.53973 16.80423,-16.80423 V 168.0455 H 201.65397 Z M 112.02998,72.819402 H 100.82681 V 100.82681 H 72.819402 v 11.20317 h 28.007408 v 28.00741 h 11.20317 v -28.00741 h 28.00741 v -11.20317 h -28.00741 z"
       id="path12" />
  </g>
</svg>
