<?xml version="1.0" encoding="UTF-8" standalone="no"?>
<svg
   xmlns:dc="http://purl.org/dc/elements/1.1/"
   xmlns:cc="http://creativecommons.org/ns#"
   xmlns:rdf="http://www.w3.org/1999/02/22-rdf-syntax-ns#"
   xmlns:svg="http://www.w3.org/2000/svg"
   xmlns="http://www.w3.org/2000/svg"
   xmlns:sodipodi="http://sodipodi.sourceforge.net/DTD/sodipodi-0.dtd"
   xmlns:inkscape="http://www.inkscape.org/namespaces/inkscape"
   height="512pt"
   viewBox="0 0 512 512"
   width="512pt"
   version="1.1"
   id="svg4"
   sodipodi:docname="gear.svg"
   inkscape:version="0.92.3 (2405546, 2018-03-11)">
  <metadata
     id="metadata10">
    <rdf:RDF>
      <cc:Work
         rdf:about="">
        <dc:format>image/svg+xml</dc:format>
        <dc:type
           rdf:resource="http://purl.org/dc/dcmitype/StillImage" />
      </cc:Work>
    </rdf:RDF>
  </metadata>
  <defs
     id="defs8" />
  <sodipodi:namedview
     pagecolor="#ffffff"
     bordercolor="#666666"
     borderopacity="1"
     objecttolerance="10"
     gridtolerance="10"
     guidetolerance="10"
     inkscape:pageopacity="0"
     inkscape:pageshadow="2"
     inkscape:window-width="1920"
     inkscape:window-height="1017"
     id="namedview6"
     showgrid="false"
     inkscape:zoom="0.34570313"
     inkscape:cx="-15.909605"
     inkscape:cy="341.33333"
     inkscape:window-x="-8"
     inkscape:window-y="-8"
     inkscape:window-maximized="1"
     inkscape:current-layer="svg4" />
  <path
     d="m 491.27516,202.04211 -39.35156,-8.55469 c -3.42188,-10.47656 -7.66016,-20.69531 -12.66407,-30.53906 l 21.78516,-33.88672 c 3.89063,-6.05469 3.03516,-14.00391 -2.05078,-19.08985 L 397.68922,48.667108 c -5.08594,-5.085937 -13.03515,-5.941406 -19.08984,-2.050781 L 344.71266,68.401483 C 334.86891,63.397577 324.65016,59.159295 314.1736,55.737421 L 305.61891,16.385858 C 304.09157,9.3546079 297.865,4.3389829 290.66969,4.3389829 h -86.69531 c -7.19531,0 -13.42188,5.015625 -14.94922,12.0468751 l -8.55469,39.351563 c -10.47656,3.421874 -20.69531,7.660156 -30.53906,12.664062 L 116.04469,46.616327 C 109.99,42.725702 102.04078,43.581171 96.954846,48.667108 L 35.650159,109.97179 c -5.085937,5.08594 -5.941406,13.03516 -2.050781,19.08985 l 21.785156,33.88672 c -5.003906,9.84375 -9.242188,20.0625 -12.664062,30.53906 l -39.3515628,8.55469 c -7.03125,1.53125 -12.046875,7.7539 -12.046875,14.94922 v 86.69531 c 0,7.19531 5.015625,13.41797 12.046875,14.94922 l 39.3515628,8.55468 c 3.421874,10.47657 7.660156,20.69532 12.664062,30.53907 l -21.785156,33.88672 c -3.890625,6.05468 -3.035156,14.0039 2.050781,19.08984 l 61.304687,61.30469 c 5.085934,5.08593 13.035154,5.9414 19.089844,2.05078 l 33.88672,-21.78516 c 9.84375,5.00391 20.0625,9.24219 30.53906,12.66406 l 8.55469,39.35157 c 1.52734,7.03125 7.75391,12.04687 14.94922,12.04687 h 86.69531 c 7.19531,0 13.42188,-5.01562 14.94922,-12.04687 l 8.55469,-39.35157 c 10.47656,-3.42187 20.69531,-7.66015 30.53906,-12.66406 l 33.88672,21.78516 c 6.05469,3.89062 14.0039,3.03906 19.08984,-2.05078 l 61.30469,-61.30469 c 5.08594,-5.08594 5.94141,-13.03516 2.05078,-19.08984 l -21.78516,-33.88672 c 5.00391,-9.84375 9.24219,-20.0625 12.66407,-30.53907 l 39.35156,-8.55468 c 7.03125,-1.53125 12.04687,-7.75391 12.04687,-14.94922 v -86.69531 c 0,-7.19532 -5.01562,-13.41797 -12.04687,-14.94922 z M 339.115,260.33898 c 0,50.61328 -41.17968,91.79297 -91.79297,91.79297 -50.61328,0 -91.79296,-41.17969 -91.79296,-91.79297 0,-50.61328 41.17968,-91.79297 91.79296,-91.79297 50.61329,0 91.79297,41.17969 91.79297,91.79297 z m 0,0"
     id="path2"
     inkscape:connector-curvature="0" />
</svg>
