<?xml version="1.0" encoding="UTF-8" standalone="no"?>
<!-- Generator: Adobe Illustrator 17.1.0, SVG Export Plug-In . SVG Version: 6.00 Build 0)  -->

<svg
   xmlns:dc="http://purl.org/dc/elements/1.1/"
   xmlns:cc="http://creativecommons.org/ns#"
   xmlns:rdf="http://www.w3.org/1999/02/22-rdf-syntax-ns#"
   xmlns:svg="http://www.w3.org/2000/svg"
   xmlns="http://www.w3.org/2000/svg"
   xmlns:sodipodi="http://sodipodi.sourceforge.net/DTD/sodipodi-0.dtd"
   xmlns:inkscape="http://www.inkscape.org/namespaces/inkscape"
   version="1.1"
   id="Capa_1"
   x="0px"
   y="0px"
   viewBox="0 0 470.294 470.294"
   style="enable-background:new 0 0 470.294 470.294;"
   xml:space="preserve"
   sodipodi:docname="giving-a-presentation-card.svg"
   inkscape:version="0.92.3 (2405546, 2018-03-11)"><metadata
   id="metadata47"><rdf:RDF><cc:Work
       rdf:about=""><dc:format>image/svg+xml</dc:format><dc:type
         rdf:resource="http://purl.org/dc/dcmitype/StillImage" /></cc:Work></rdf:RDF></metadata><defs
   id="defs45">
	
	
	
	
</defs><sodipodi:namedview
   pagecolor="#ffffff"
   bordercolor="#666666"
   borderopacity="1"
   objecttolerance="10"
   gridtolerance="10"
   guidetolerance="10"
   inkscape:pageopacity="0"
   inkscape:pageshadow="2"
   inkscape:window-width="1920"
   inkscape:window-height="1017"
   id="namedview43"
   showgrid="false"
   inkscape:zoom="0.50181375"
   inkscape:cx="-12.953013"
   inkscape:cy="235.147"
   inkscape:window-x="-8"
   inkscape:window-y="-8"
   inkscape:window-maximized="1"
   inkscape:current-layer="Capa_1" />
<path
   inkscape:connector-curvature="0"
   id="path2"
   d="m 12.5,391.843 c 6.893,0 12.5,-5.607 12.5,-12.5 0,-6.893 -5.607,-12.5 -12.5,-12.5 -6.893,0 -12.5,5.608 -12.5,12.5 0,6.892 5.607,12.5 12.5,12.5 z" /><path
   inkscape:connector-curvature="0"
   id="path4"
   d="m 470.294,166.379 c 0,-2.652 -1.054,-5.195 -2.929,-7.071 L 349.436,41.379 c -3.906,-3.904 -10.236,-3.904 -14.143,0 L 154.981,221.691 c -1.875,1.876 -2.929,4.419 -2.929,7.071 0,2.652 1.054,5.195 2.929,7.071 l 5.968,5.968 c -0.937,0.026 -1.876,0.042 -2.818,0.042 -28.512,0 -55.661,12.992 -73.632,35 H 65 v -15 c 0,-5.522 -4.477,-10 -10,-10 H 10 c -5.523,0 -10,4.478 -10,10 0,5.522 4.477,10 10,10 h 35 v 140 H 10 c -5.523,0 -10,4.478 -10,10 0,5.522 4.477,10 10,10 h 45 c 5.523,0 10,-4.478 10,-10 v -25 h 19.5 c 17.97,22.008 45.12,35 73.632,35 h 148.757 c 17.231,0 31.25,-14.019 31.25,-31.25 0,-5.901 -1.645,-11.425 -4.5,-16.139 8.708,-5.553 14.5,-15.29 14.5,-26.361 0,-4.434 -0.934,-8.651 -2.606,-12.476 13.039,-3.76 22.606,-15.792 22.606,-30.024 0,-3.965 -0.75,-7.757 -2.103,-11.25 h 0.853 c 17.231,0 31.25,-14.019 31.25,-31.25 0,-8.404 -3.341,-16.038 -8.756,-21.66 l 77.983,-77.983 c 1.875,-1.875 2.928,-4.418 2.928,-7.071 z M 97.491,380.954 c -1.882,-2.583 -4.886,-4.11 -8.082,-4.11 H 65 v -80 h 24.409 c 3.196,0 6.199,-1.527 8.081,-4.11 14.098,-19.342 36.768,-30.89 60.641,-30.89 0.002,0 0.002,0 0.004,0 32.251,0 62.574,-12.561 85.38,-35.366 4.386,-4.387 11.521,-4.387 15.909,0 4.387,4.386 4.387,11.523 0,15.909 -27.056,27.057 -63.029,41.957 -101.293,41.958 -4.089,0 -7.766,2.489 -9.285,6.286 l -20,50 c -2.051,5.128 0.443,10.947 5.571,12.999 1.218,0.487 2.475,0.718 3.711,0.718 3.968,-0.001 7.724,-2.379 9.288,-6.289 l 17.542,-43.854 c 16.885,-0.69 33.311,-3.942 48.835,-9.558 l 32.197,32.197 h -8.052 c -5.523,0 -10,4.478 -10,10 0,5.522 4.477,10 10,10 h 25.353 c -1.353,3.493 -2.103,7.285 -2.103,11.25 0,3.965 0.75,7.757 2.103,11.25 h -25.353 c -5.523,0 -10,4.478 -10,10 0,5.522 4.477,10 10,10 h 25.353 c -1.353,3.493 -2.103,7.285 -2.103,11.25 0,3.965 0.75,7.757 2.103,11.25 h -105.16 c -23.874,-10e-4 -46.544,-11.549 -60.64,-30.89 z m 230.648,-22.861 c 0,6.203 -5.047,11.25 -11.25,11.25 h -10 -14.45 c -6.203,0 -11.25,-5.047 -11.25,-11.25 0,-6.203 5.047,-11.25 11.25,-11.25 h 20 4.45 c 6.203,0 11.25,5.047 11.25,11.25 z m -21.25,53.75 h -14.45 c -6.203,0 -11.25,-5.047 -11.25,-11.25 0,-6.203 5.047,-11.25 11.25,-11.25 h 14.45 c 6.203,0 11.25,5.047 11.25,11.25 0,6.203 -5.047,11.25 -11.25,11.25 z m 30,-85 h -20 -4.45 c -6.203,0 -11.25,-5.047 -11.25,-11.25 0,-6.203 5.047,-11.25 11.25,-11.25 h 24.45 c 6.203,0 11.25,5.047 11.25,11.25 0,6.203 -5.047,11.25 -11.25,11.25 z m 30,-42.5 h -24.45 c -6.203,0 -11.25,-5.047 -11.25,-11.25 0,-6.203 5.047,-11.25 11.25,-11.25 h 24.45 c 1.163,0 2.285,0.177 3.341,0.506 0.002,0.001 0.004,0.001 0.006,0.002 4.574,1.428 7.903,5.703 7.903,10.741 0,6.204 -5.047,11.251 -11.25,11.251 z m 3.587,-42.288 c -1.178,-0.135 -2.373,-0.212 -3.587,-0.212 h -24.45 c -17.231,0 -31.25,14.019 -31.25,31.25 0,3.965 0.75,7.757 2.103,11.25 h -0.853 c -17.231,0 -31.25,14.019 -31.25,31.25 0,4.434 0.934,8.651 2.606,12.476 -2.065,0.595 -4.044,1.396 -5.911,2.383 l -0.677,-0.677 c -0.002,-0.002 -0.004,-0.004 -0.005,-0.005 l -43.754,-43.754 c 14.612,-7.615 28.135,-17.503 40.119,-29.487 5.902,-5.902 9.152,-13.75 9.152,-22.098 0,-8.347 -3.25,-16.194 -9.152,-22.097 -12.186,-12.184 -32.01,-12.182 -44.194,0 -12.387,12.388 -27.433,21.148 -43.849,25.757 l -9.329,-9.329 166.17,-166.17 103.787,103.787 z" /><path
   inkscape:connector-curvature="0"
   id="path6"
   d="m 295.625,241.404 c 1.953,1.952 4.512,2.929 7.071,2.929 2.559,0 5.118,-0.977 7.071,-2.929 l 53.016,-53.016 c 3.905,-3.905 3.905,-10.237 0,-14.143 -3.906,-3.904 -10.236,-3.904 -14.143,0 l -53.016,53.016 c -3.905,3.906 -3.905,10.238 10e-4,14.143 z" /><path
   inkscape:connector-curvature="0"
   id="path8"
   d="m 334.499,145.961 c -3.906,-3.904 -10.236,-3.904 -14.143,0 l -42.54,42.54 c -3.905,3.905 -3.905,10.237 0,14.143 1.953,1.952 4.512,2.929 7.071,2.929 2.559,0 5.118,-0.977 7.071,-2.929 l 42.54,-42.54 c 3.906,-3.905 3.906,-10.237 0.001,-14.143 z" />
<g
   id="g12">
</g>
<g
   id="g14">
</g>
<g
   id="g16">
</g>
<g
   id="g18">
</g>
<g
   id="g20">
</g>
<g
   id="g22">
</g>
<g
   id="g24">
</g>
<g
   id="g26">
</g>
<g
   id="g28">
</g>
<g
   id="g30">
</g>
<g
   id="g32">
</g>
<g
   id="g34">
</g>
<g
   id="g36">
</g>
<g
   id="g38">
</g>
<g
   id="g40">
</g>
</svg>