<?xml version="1.0" encoding="UTF-8" standalone="no"?>
<!-- Created with Inkscape (http://www.inkscape.org/) -->

<svg
   xmlns:dc="http://purl.org/dc/elements/1.1/"
   xmlns:cc="http://creativecommons.org/ns#"
   xmlns:rdf="http://www.w3.org/1999/02/22-rdf-syntax-ns#"
   xmlns:svg="http://www.w3.org/2000/svg"
   xmlns="http://www.w3.org/2000/svg"
   xmlns:sodipodi="http://sodipodi.sourceforge.net/DTD/sodipodi-0.dtd"
   xmlns:inkscape="http://www.inkscape.org/namespaces/inkscape"
   width="210mm"
   height="297mm"
   viewBox="0 0 210 297"
   version="1.1"
   id="svg636"
   inkscape:version="0.92.3 (2405546, 2018-03-11)"
   sodipodi:docname="idcardabsent.svg">
  <defs
     id="defs630" />
  <sodipodi:namedview
     id="base"
     pagecolor="#ffffff"
     bordercolor="#666666"
     borderopacity="1.0"
     inkscape:pageopacity="0.0"
     inkscape:pageshadow="2"
     inkscape:zoom="0.35"
     inkscape:cx="11.428571"
     inkscape:cy="560"
     inkscape:document-units="mm"
     inkscape:current-layer="layer1"
     showgrid="false"
     inkscape:window-width="1920"
     inkscape:window-height="1017"
     inkscape:window-x="-8"
     inkscape:window-y="-8"
     inkscape:window-maximized="1" />
  <metadata
     id="metadata633">
    <rdf:RDF>
      <cc:Work
         rdf:about="">
        <dc:format>image/svg+xml</dc:format>
        <dc:type
           rdf:resource="http://purl.org/dc/dcmitype/StillImage" />
        <dc:title></dc:title>
      </cc:Work>
    </rdf:RDF>
  </metadata>
  <g
     inkscape:label="Layer 1"
     inkscape:groupmode="layer"
     id="layer1">
    <path
       inkscape:connector-curvature="0"
       id="rect578"
       style="fill:#000000;stroke-width:0.09785154"
       d="m 129.39583,72.447204 c -0.30879,0 -0.77168,0.15463 -1.08114,0.463434 l -2.16227,2.16249 c -0.3094,0.308885 -0.46115,0.77232 -0.46115,1.081131 0,0.308959 0.15175,0.772541 0.46115,1.081352 l 11.58452,11.584301 c 0.30947,0.308892 0.30947,0.77236 0,1.081178 l -11.58452,11.5843 c -0.3094,0.30892 -0.46115,0.77236 -0.46115,1.08117 0,0.30896 0.15175,0.77251 0.46115,1.08131 l 2.16227,2.16231 c 0.30886,0.30884 0.61999,0.46366 1.08114,0.46366 0.30886,0 0.77174,-0.15482 1.08114,-0.46366 L 142.0615,94.225829 c 0.30885,-0.308805 0.77174,-0.308805 1.08113,0 l 11.58453,11.584351 c 0.30879,0.30884 0.61993,0.46366 1.08121,0.46366 0.30872,0 0.77174,-0.15482 1.08107,-0.46366 l 2.16227,-2.16231 c 0.30946,-0.30891 0.46142,-0.7725 0.46142,-1.08131 0,-0.30892 -0.15196,-0.77236 -0.46142,-1.08117 l -11.58432,-11.5843 c -0.3094,-0.308965 -0.3094,-0.926474 0,-1.081178 l 11.58432,-11.584301 c 0.3094,-0.308885 0.46142,-0.772507 0.46142,-1.081352 0,-0.308851 -0.15202,-0.772326 -0.46142,-1.081131 l -2.16227,-2.16249 c -0.30873,-0.308804 -0.61999,-0.463434 -1.08107,-0.463434 -0.30879,0 -0.77181,0.15463 -1.08121,0.463434 l -11.58453,11.584348 c -0.30879,0.308845 -0.77167,0.308845 -1.08113,0 L 130.47697,72.910638 c -0.30879,-0.308804 -0.77168,-0.463434 -1.08114,-0.463434 z m 13.2066,-16.931765 c -18.66223,0 -33.84535,15.184721 -33.84535,33.844881 0,18.66417 15.18259,33.84528 33.84535,33.84528 18.66263,0 33.84482,-15.18111 33.84482,-33.84528 0,-18.660696 -15.18265,-33.844881 -33.84482,-33.844881 z m 0,5.192353 A 28.652743,28.652743 0 0 1 171.25516,89.360521 28.652743,28.652743 0 0 1 142.60243,118.01325 28.652743,28.652743 0 0 1 113.94964,89.360521 28.652743,28.652743 0 0 1 142.60243,60.707792 Z M 18.027183,0.43132238 c -8.8732828,0 -16.0696678,7.06803462 -16.0696678,15.78530162 v 78.935907 c 0,8.716699 7.196385,15.785319 16.0696678,15.785319 h 90.109437 a 40.68322,40.68322 0 0 1 -6.2176,-21.577382 40.68322,40.68322 0 0 1 0.17679,-3.537713 h -4.700683 c -2.77611,0 -5.022394,-2.249585 -5.022394,-5.023432 0,-2.773854 2.246284,-5.022749 5.022394,-5.022749 h 6.910753 a 40.68322,40.68322 0 0 1 9.45706,-15.068902 H 97.395127 c -2.77611,0 -5.022394,-2.249022 -5.022394,-5.023439 0,-2.773854 2.246284,-5.022749 5.022394,-5.022749 h 32.814883 a 40.68322,40.68322 0 0 1 12.39222,-1.984183 40.68322,40.68322 0 0 1 20.09232,5.340999 V 16.216624 c 0,-8.717267 -7.19631,-15.78530162 -16.07522,-15.78530162 z M 47.15043,15.500587 c 7.097983,0 15.053996,5.228849 15.053996,16.074487 v 8.034673 c 0,10.850685 -11.026788,16.074486 -15.053996,16.074486 -3.816147,0 -15.054397,-5.223801 -15.054397,-16.074486 v -8.034673 c 0,-10.845638 8.192174,-16.074487 15.054397,-16.074487 z m 50.244697,10.045826 h 45.207443 c 2.77611,0 5.02206,2.248875 5.02206,5.022729 5.3e-4,2.773847 -2.24595,5.023439 -5.02206,5.023439 H 97.395127 c -2.77611,0 -5.022394,-2.249592 -5.022394,-5.023439 0,-2.773854 2.246284,-5.022729 5.022394,-5.022729 z M 31.021924,60.713904 c 3.208337,0.06005 6.970129,3.318821 11.124453,6.978556 l 1.467379,1.467043 c 0.04887,0.0488 1.667459,1.593994 3.595448,1.593994 1.956636,0 3.526633,-1.611298 3.526633,-1.611298 v 0.0027 l 1.451849,-1.452872 c 5.317597,-4.683881 9.339984,-8.633123 13.685955,-6.215119 9.398692,5.229464 11.428762,13.80437 11.428762,19.322337 0,0.08869 0.01071,4.944852 0,5.023432 0,7.28937 -2.452457,10.045833 -10.045459,10.045833 H 27.077787 c -7.593535,0 -10.046528,-2.756463 -10.046528,-10.045833 -0.01004,-0.07858 0,-4.934738 0,-5.023432 0,-5.518516 2.51692,-13.298317 11.429497,-19.321989 0.808025,-0.546118 1.66284,-0.780259 2.561168,-0.76343 z" />
  </g>
</svg>
