<?xml version="1.0" encoding="UTF-8" standalone="no"?>
<!-- Generator: Adobe Illustrator 16.0.0, SVG Export Plug-In . SVG Version: 6.00 Build 0)  -->

<svg
   xmlns:dc="http://purl.org/dc/elements/1.1/"
   xmlns:cc="http://creativecommons.org/ns#"
   xmlns:rdf="http://www.w3.org/1999/02/22-rdf-syntax-ns#"
   xmlns:svg="http://www.w3.org/2000/svg"
   xmlns="http://www.w3.org/2000/svg"
   xmlns:sodipodi="http://sodipodi.sourceforge.net/DTD/sodipodi-0.dtd"
   xmlns:inkscape="http://www.inkscape.org/namespaces/inkscape"
   version="1.1"
   id="Capa_1"
   x="0px"
   y="0px"
   width="31.939px"
   height="31.939px"
   viewBox="0 0 31.939 31.939"
   style="enable-background:new 0 0 31.939 31.939;"
   xml:space="preserve"
   sodipodi:docname="idcard.svg"
   inkscape:version="0.92.3 (2405546, 2018-03-11)"><metadata
   id="metadata43"><rdf:RDF><cc:Work
       rdf:about=""><dc:format>image/svg+xml</dc:format><dc:type
         rdf:resource="http://purl.org/dc/dcmitype/StillImage" /></cc:Work></rdf:RDF></metadata><defs
   id="defs41">
	

		
	</defs><sodipodi:namedview
   pagecolor="#ffffff"
   bordercolor="#666666"
   borderopacity="1"
   objecttolerance="10"
   gridtolerance="10"
   guidetolerance="10"
   inkscape:pageopacity="0"
   inkscape:pageshadow="2"
   inkscape:window-width="1920"
   inkscape:window-height="1017"
   id="namedview39"
   showgrid="false"
   inkscape:zoom="14.778171"
   inkscape:cx="20.221565"
   inkscape:cy="1.9908857"
   inkscape:window-x="-8"
   inkscape:window-y="-8"
   inkscape:window-maximized="1"
   inkscape:current-layer="Capa_1" />


<path
   style="fill:#000000;stroke-width:0.07278294"
   d="M 17.058033,44.746 H 1.894859 C 0.84855001,44.746 0,45.57946 0,46.60737 v 9.307841 c 0,1.027843 0.84855001,1.861369 1.894859,1.861369 h 15.163174 c 1.046971,0 1.895521,-0.833526 1.895521,-1.861369 V 46.60737 c 0,-1.02791 -0.84855,-1.86137 -1.895521,-1.86137 z M 3.5538368,48.418373 c 0,-1.278881 0.9659611,-1.895455 1.7751314,-1.895455 0.8369677,0 1.7751314,0.616574 1.7751314,1.895455 v 0.94743 c 0,1.279476 -1.3002584,1.895454 -1.7751314,1.895454 -0.4499876,0 -1.7751314,-0.615978 -1.7751314,-1.895454 z m 5.3305566,6.396721 c 0,0.859537 -0.2891596,1.184568 -1.1845019,1.184568 H 2.9620822 c -0.8954086,0 -1.1846343,-0.325031 -1.1846343,-1.184568 -0.00119,-0.0093 0,-0.581893 0,-0.59235 0,-0.650725 0.2967708,-1.568107 1.3477126,-2.278398 0.4355595,-0.294388 0.986743,0.180485 1.6137739,0.73286 l 0.173006,0.173006 c 0.00576,0.0058 0.1966338,0.187964 0.4239772,0.187964 0.2307187,0 0.4158365,-0.190016 0.4158365,-0.190016 v 3.31e-4 l 0.171219,-0.171285 c 0.6270308,-0.552309 1.1013081,-1.017982 1.6137738,-0.73286 1.1082576,0.61664 1.3476465,1.627739 1.3476465,2.278398 0,0.01046 0.00126,0.583084 0,0.59235 z m 7.6999576,0 h -5.330689 c -0.327348,0 -0.592218,-0.265267 -0.592218,-0.59235 0,-0.327084 0.26487,-0.592284 0.592218,-0.592284 h 5.330689 c 0.327348,0 0.592218,0.2652 0.592218,0.592284 6.6e-5,0.327083 -0.26487,0.59235 -0.592218,0.59235 z m 0,-2.961487 h -5.330689 c -0.327348,0 -0.592218,-0.2652 -0.592218,-0.59235 0,-0.327083 0.26487,-0.592284 0.592218,-0.592284 h 5.330689 c 0.327348,0 0.592218,0.265201 0.592218,0.592284 6.6e-5,0.327083 -0.26487,0.59235 -0.592218,0.59235 z m 0,-2.961486 h -5.330689 c -0.327348,0 -0.592218,-0.265267 -0.592218,-0.59235 0,-0.327084 0.26487,-0.592284 0.592218,-0.592284 h 5.330689 c 0.327348,0 0.592218,0.2652 0.592218,0.592284 6.6e-5,0.327083 -0.26487,0.59235 -0.592218,0.59235 z"
   id="rect24"
   inkscape:connector-curvature="0" />
 </svg>