<?xml version="1.0" encoding="UTF-8" standalone="no"?>
<!-- Created with Inkscape (http://www.inkscape.org/) -->

<svg
   xmlns:dc="http://purl.org/dc/elements/1.1/"
   xmlns:cc="http://creativecommons.org/ns#"
   xmlns:rdf="http://www.w3.org/1999/02/22-rdf-syntax-ns#"
   xmlns:svg="http://www.w3.org/2000/svg"
   xmlns="http://www.w3.org/2000/svg"
   xmlns:sodipodi="http://sodipodi.sourceforge.net/DTD/sodipodi-0.dtd"
   xmlns:inkscape="http://www.inkscape.org/namespaces/inkscape"
   width="210mm"
   height="297mm"
   viewBox="0 0 210 297"
   version="1.1"
   id="svg613"
   inkscape:version="0.92.3 (2405546, 2018-03-11)"
   sodipodi:docname="idCardEst.svg">
  <defs
     id="defs607" />
  <sodipodi:namedview
     id="base"
     pagecolor="#ffffff"
     bordercolor="#666666"
     borderopacity="1.0"
     inkscape:pageopacity="0.0"
     inkscape:pageshadow="2"
     inkscape:zoom="0.35"
     inkscape:cx="11.428571"
     inkscape:cy="560"
     inkscape:document-units="mm"
     inkscape:current-layer="layer1"
     showgrid="false"
     inkscape:window-width="1920"
     inkscape:window-height="1017"
     inkscape:window-x="-8"
     inkscape:window-y="-8"
     inkscape:window-maximized="1" />
  <metadata
     id="metadata610">
    <rdf:RDF>
      <cc:Work
         rdf:about="">
        <dc:format>image/svg+xml</dc:format>
        <dc:type
           rdf:resource="http://purl.org/dc/dcmitype/StillImage" />
        <dc:title></dc:title>
      </cc:Work>
    </rdf:RDF>
  </metadata>
  <g
     inkscape:label="Layer 1"
     inkscape:groupmode="layer"
     id="layer1">
    <path
       style="stroke-width:0.58004427"
       inkscape:connector-curvature="0"
       id="polygon22-4-8-52"
       d="m 163.35394,77.183019 -19.10549,22.648984 -10.28825,-9.456462 -5.5023,5.988963 16.53706,15.190776 24.57009,-29.128081 z M 149.01175,58.617863 c -19.71331,0 -35.75155,16.039938 -35.75155,35.751051 0,19.715346 16.03768,35.751476 35.75155,35.751476 19.71371,0 35.75097,-16.03613 35.75097,-35.751476 0,-19.711679 -16.03775,-35.751051 -35.75097,-35.751051 z m 0,5.48479 A 30.266484,30.266484 0 0 1 179.27821,94.369126 30.266484,30.266484 0 0 1 149.01175,124.6356 30.266484,30.266484 0 0 1 118.7452,94.369126 30.266484,30.266484 0 0 1 149.01175,64.102653 Z M 17.420344,0.43121467 c -9.3730385,0 -16.97470708,7.46611293 -16.97472829,16.67434233 v 83.381633 c 0,9.20763 7.60168979,16.67471 16.97472829,16.67471 h 95.184806 a 42.974526,42.974526 0 0 1 -6.56808,-22.792611 42.974526,42.974526 0 0 1 0.18671,-3.736959 h -4.96544 c -2.932444,0 -5.305248,-2.376276 -5.305248,-5.306355 0,-2.930079 2.372804,-5.306009 5.305248,-5.306009 h 7.3 a 42.974526,42.974526 0 0 1 9.98933,-15.917228 h -17.28933 c -2.932444,0 -5.305248,-2.375682 -5.305248,-5.306355 0,-2.930079 2.372804,-5.305994 5.305248,-5.305994 h 34.66379 a 42.974526,42.974526 0 0 1 13.08941,-2.095574 42.974526,42.974526 0 0 1 21.22396,5.641426 V 17.105557 c 0,-9.2082294 -7.6016,-16.67434233 -16.98056,-16.67434233 z M 48.183825,16.349185 c 7.497747,0 15.901903,5.523348 15.901903,16.97982 v 8.487184 c 0,11.46181 -11.647882,16.980194 -15.901903,16.980194 -4.031075,0 -15.902257,-5.518384 -15.902257,-16.980194 v -8.487184 c 0,-11.456472 8.653556,-16.97982 15.902257,-16.97982 z m 53.074515,10.611621 h 47.75356 c 2.93247,0 5.3049,2.375908 5.3049,5.305987 5.5e-4,2.930072 -2.37243,5.306355 -5.3049,5.306355 h -47.75356 c -2.932444,0 -5.305248,-2.376283 -5.305248,-5.306355 0,-2.930079 2.372804,-5.305987 5.305248,-5.305987 z M 31.147006,64.109307 c 3.388998,0.06343 7.362635,3.505399 11.750927,7.371242 l 1.550043,1.550043 c 0.05162,0.05155 1.761408,1.683769 3.79796,1.683769 2.066844,0 3.725285,-1.702408 3.725285,-1.702408 v 0.0028 l 1.533574,-1.534324 c 5.617088,-4.947705 9.866004,-9.11935 14.456744,-6.565169 9.928026,5.523998 12.072495,14.581477 12.072495,20.410212 0,0.0937 0.01131,5.223356 0,5.306362 v 3.75e-4 c 0,7.699912 -2.59061,10.611621 -10.611263,10.611621 H 26.980686 c -8.021188,0 -10.612343,-2.911709 -10.612343,-10.611621 -0.01061,-0.08301 0,-5.212686 0,-5.306355 0,-5.829322 2.65869,-14.047647 12.073221,-20.410587 0.85352,-0.576883 1.756507,-0.823836 2.705442,-0.806081 z" />
  </g>
</svg>
