<?xml version="1.0" encoding="UTF-8" standalone="no"?>
<!-- Created with Inkscape (http://www.inkscape.org/) -->

<svg
   xmlns:dc="http://purl.org/dc/elements/1.1/"
   xmlns:cc="http://creativecommons.org/ns#"
   xmlns:rdf="http://www.w3.org/1999/02/22-rdf-syntax-ns#"
   xmlns:svg="http://www.w3.org/2000/svg"
   xmlns="http://www.w3.org/2000/svg"
   xmlns:sodipodi="http://sodipodi.sourceforge.net/DTD/sodipodi-0.dtd"
   xmlns:inkscape="http://www.inkscape.org/namespaces/inkscape"
   width="210mm"
   height="297mm"
   viewBox="0 0 210 297"
   version="1.1"
   id="svg8"
   inkscape:version="0.92.3 (2405546, 2018-03-11)"
   sodipodi:docname="information.svg">
  <defs
     id="defs2" />
  <sodipodi:namedview
     id="base"
     pagecolor="#ffffff"
     bordercolor="#666666"
     borderopacity="1.0"
     inkscape:pageopacity="0.0"
     inkscape:pageshadow="2"
     inkscape:zoom="0.35"
     inkscape:cx="-543.60462"
     inkscape:cy="497.49345"
     inkscape:document-units="mm"
     inkscape:current-layer="layer1"
     showgrid="false"
     inkscape:window-width="2560"
     inkscape:window-height="1017"
     inkscape:window-x="1912"
     inkscape:window-y="-8"
     inkscape:window-maximized="1" />
  <metadata
     id="metadata5">
    <rdf:RDF>
      <cc:Work
         rdf:about="">
        <dc:format>image/svg+xml</dc:format>
        <dc:type
           rdf:resource="http://purl.org/dc/dcmitype/StillImage" />
        <dc:title></dc:title>
      </cc:Work>
    </rdf:RDF>
  </metadata>
  <g
     inkscape:label="Layer 1"
     inkscape:groupmode="layer"
     id="layer1">
    <path
       style="fill:#000000;stroke:#000000;stroke-width:0;stroke-miterlimit:4;stroke-dasharray:none;stroke-opacity:1"
       d="M 89.64783,0.66640502 A 88.824407,88.824407 0 0 0 0.82327937,89.490955 88.824407,88.824407 0 0 0 89.64783,178.31551 88.824407,88.824407 0 0 0 178.47238,89.490955 88.824407,88.824407 0 0 0 89.64783,0.66640502 Z M 89.76617,28.065247 c 3.636526,0 6.759607,1.34393 9.368419,4.031795 2.687871,2.608813 4.031791,5.731378 4.031791,9.367903 0,3.241252 -1.30464,6.008193 -3.91345,8.300787 -2.608813,2.213538 -5.692093,3.320727 -9.249566,3.320727 -3.557472,0 -6.640235,-1.225558 -9.249048,-3.676261 -2.529758,-2.529758 -3.794598,-5.533954 -3.794598,-9.01237 0,-3.320306 1.26484,-6.205617 3.794598,-8.65632 2.608813,-2.4507 5.612493,-3.676261 9.011854,-3.676261 z M 71.504753,68.146005 c 1.343932,0 3.240939,0.277056 5.691642,0.830439 2.529758,0.553384 4.387996,0.829924 5.573819,0.829924 1.343935,0 3.39911,-0.197453 6.166032,-0.592727 2.766923,-0.395274 4.822616,-0.593246 6.166548,-0.593246 2.925033,0 4.387329,2.451118 4.387329,7.352522 0,0.790551 -0.03928,1.857422 -0.118337,3.201355 -0.07905,1.26488 -0.118856,2.134814 -0.118856,2.609143 v 49.448665 c 0,3.87369 0.711763,6.40337 2.13475,7.5892 1.42299,1.18582 3.32,1.97667 5.69165,2.37195 2.37164,0.31622 4.03191,0.79021 4.98057,1.42265 1.02771,0.63244 1.54151,1.93708 1.54151,3.91345 0,2.60881 -2.29243,3.91294 -6.87762,3.91294 -1.97637,0 -4.94129,-0.23725 -8.89403,-0.71158 -3.952746,-0.47433 -6.877339,-0.71107 -8.774658,-0.71107 -1.897319,0 -4.66426,0.31582 -8.300786,0.94826 -3.636526,0.63244 -6.364181,0.94878 -8.182446,0.94878 -1.818261,0 -3.399446,-0.51379 -4.743378,-1.54151 -1.264881,-1.02771 -1.897044,-2.37164 -1.897042,-4.03179 0,-1.02771 0.355624,-1.89713 1.067118,-2.60863 0.711494,-0.79055 2.529933,-1.42323 5.454965,-1.89756 2.925032,-0.47433 4.940921,-1.42283 6.047692,-2.84582 1.185823,-1.42298 1.778701,-4.86189 1.778701,-10.31668 V 87.593914 c 0,-3.399361 -0.711763,-5.652508 -2.134753,-6.759279 -1.422988,-1.106768 -3.517964,-1.936903 -6.284886,-2.490287 -2.766923,-0.553384 -4.505759,-1.265148 -5.217253,-2.134754 -0.632439,-0.869603 -0.94878,-1.936474 -0.94878,-3.201355 0,-1.422987 0.553077,-2.569461 1.659848,-3.439064 1.185823,-0.948661 2.569551,-1.42317 4.150651,-1.42317 z"
       id="path817"
       inkscape:connector-curvature="0" />
  </g>
</svg>
