<?xml version="1.0" encoding="UTF-8" standalone="no"?>
<!-- Generator: Adobe Illustrator 19.0.0, SVG Export Plug-In . SVG Version: 6.00 Build 0)  -->

<svg
   xmlns:dc="http://purl.org/dc/elements/1.1/"
   xmlns:cc="http://creativecommons.org/ns#"
   xmlns:rdf="http://www.w3.org/1999/02/22-rdf-syntax-ns#"
   xmlns:svg="http://www.w3.org/2000/svg"
   xmlns="http://www.w3.org/2000/svg"
   xmlns:sodipodi="http://sodipodi.sourceforge.net/DTD/sodipodi-0.dtd"
   xmlns:inkscape="http://www.inkscape.org/namespaces/inkscape"
   version="1.1"
   id="Capa_1"
   x="0px"
   y="0px"
   viewBox="0 0 512 512"
   style="enable-background:new 0 0 512 512;"
   xml:space="preserve"
   sodipodi:docname="letter-b.svg"
   inkscape:version="0.92.3 (2405546, 2018-03-11)"><metadata
   id="metadata47"><rdf:RDF><cc:Work
       rdf:about=""><dc:format>image/svg+xml</dc:format><dc:type
         rdf:resource="http://purl.org/dc/dcmitype/StillImage" /></cc:Work></rdf:RDF></metadata><defs
   id="defs45" /><sodipodi:namedview
   pagecolor="#ffffff"
   bordercolor="#666666"
   borderopacity="1"
   objecttolerance="10"
   gridtolerance="10"
   guidetolerance="10"
   inkscape:pageopacity="0"
   inkscape:pageshadow="2"
   inkscape:window-width="1920"
   inkscape:window-height="1017"
   id="namedview43"
   showgrid="false"
   inkscape:zoom="0.4609375"
   inkscape:cx="-14.101695"
   inkscape:cy="256"
   inkscape:window-x="-8"
   inkscape:window-y="-8"
   inkscape:window-maximized="1"
   inkscape:current-layer="Capa_1" />
<g
   id="g10"
   transform="matrix(1,0,0,-1,0,0)">
	<g
   id="g8">
		<g
   id="g6">
			<path
   style="fill:#3b88c3"
   d="m 409.6,-328.089 c 0,-25.134 -20.378,-45.511 -45.511,-45.511 H 45.511 C 20.378,-373.6 0,-353.222 0,-328.089 V -9.511 C 0,15.622 20.378,36 45.511,36 H 364.089 C 389.222,36 409.6,15.622 409.6,-9.511 Z"
   id="path2"
   inkscape:connector-curvature="0" />
			<path
   style="fill:#ffffff"
   d="m 172.373,-247.42 h 41.631 c 19.058,0 33.166,10.934 33.166,30.686 0,16.589 -12.709,27.876 -37.399,27.876 h -37.399 v -58.562 z m 0,105.13 h 27.523 c 17.283,0 28.57,10.229 28.57,27.864 0,16.577 -13.05,25.054 -28.57,25.054 h -27.523 z m -52.906,73.023 c 0,16.93 11.639,26.453 27.864,26.453 h 67.732 c 36.682,0 66.332,-24.69 66.332,-62.089 0,-24.69 -10.251,-41.279 -32.825,-51.849 v -0.717 c 30.003,-4.233 53.623,-29.275 53.623,-59.961 0,-49.744 -33.155,-76.561 -81.852,-76.561 h -72.658 c -16.236,0 -28.217,10.24 -28.217,26.817 v 197.907 z"
   id="path4"
   inkscape:connector-curvature="0" />
		</g>
	</g>
</g>
<g
   id="g12">
</g>
<g
   id="g14">
</g>
<g
   id="g16">
</g>
<g
   id="g18">
</g>
<g
   id="g20">
</g>
<g
   id="g22">
</g>
<g
   id="g24">
</g>
<g
   id="g26">
</g>
<g
   id="g28">
</g>
<g
   id="g30">
</g>
<g
   id="g32">
</g>
<g
   id="g34">
</g>
<g
   id="g36">
</g>
<g
   id="g38">
</g>
<g
   id="g40">
</g>
</svg>