<?xml version="1.0" encoding="UTF-8" standalone="no"?>
<svg
   xmlns:dc="http://purl.org/dc/elements/1.1/"
   xmlns:cc="http://creativecommons.org/ns#"
   xmlns:rdf="http://www.w3.org/1999/02/22-rdf-syntax-ns#"
   xmlns:svg="http://www.w3.org/2000/svg"
   xmlns="http://www.w3.org/2000/svg"
   xmlns:sodipodi="http://sodipodi.sourceforge.net/DTD/sodipodi-0.dtd"
   xmlns:inkscape="http://www.inkscape.org/namespaces/inkscape"
   id="Layer_1"
   enable-background="new 0 0 128 128"
   viewBox="0 0 128 128"
   version="1.1"
   sodipodi:docname="log.svg"
   inkscape:version="0.92.3 (2405546, 2018-03-11)">
  <metadata
     id="metadata45">
    <rdf:RDF>
      <cc:Work
         rdf:about="">
        <dc:format>image/svg+xml</dc:format>
        <dc:type
           rdf:resource="http://purl.org/dc/dcmitype/StillImage" />
      </cc:Work>
    </rdf:RDF>
  </metadata>
  <defs
     id="defs43" />
  <sodipodi:namedview
     pagecolor="#ffffff"
     bordercolor="#666666"
     borderopacity="1"
     objecttolerance="10"
     gridtolerance="10"
     guidetolerance="10"
     inkscape:pageopacity="0"
     inkscape:pageshadow="2"
     inkscape:window-width="2560"
     inkscape:window-height="1017"
     id="namedview41"
     showgrid="false"
     inkscape:zoom="5.2149125"
     inkscape:cx="-4.0359909"
     inkscape:cy="71.221436"
     inkscape:window-x="1912"
     inkscape:window-y="-8"
     inkscape:window-maximized="1"
     inkscape:current-layer="Layer_1" />
  <path
     id="path32"
     style="fill:#000000;stroke-width:1.09945941"
     d="m 64.721238,98.419195 c 1.442491,0.765224 3.147753,1.147836 5.117984,1.147836 0.79271,0 1.631598,-0.06157 2.519961,-0.184709 0.889463,-0.12314 1.675576,-0.290257 2.361639,-0.501354 0.562923,-0.158322 0.985115,-0.351827 1.266577,-0.580514 0.281462,-0.228688 0.479364,-0.536536 0.593708,-0.923546 0.114344,-0.38701 0.170416,-0.932342 0.170416,-1.635996 v -5.14547 c 0,-0.474966 -0.145128,-0.848783 -0.435386,-1.121449 -0.290257,-0.272665 -0.681664,-0.408998 -1.174222,-0.408998 h -4.512182 c -0.511248,0 -0.905954,0.123139 -1.187416,0.369418 -0.281462,0.246279 -0.422192,0.598106 -0.422192,1.055481 0,0.458475 0.14073,0.809202 0.422192,1.055481 0.281462,0.246279 0.676168,0.369418 1.187416,0.369418 h 2.427607 v 4.089989 c -1.002707,0.263871 -2.01421,0.395806 -3.035608,0.395806 -1.882274,0 -3.288483,-0.527741 -4.221924,-1.583222 -0.932342,-1.055481 -1.397413,-2.656294 -1.397413,-4.802438 0,-4.169151 1.794318,-6.253726 5.382953,-6.253726 0.738837,0 1.416104,0.09675 2.032901,0.290258 0.615697,0.193504 1.292964,0.518944 2.031801,0.97632 0.26387,0.158322 0.48816,0.272666 0.672869,0.343031 0.184709,0.07036 0.390308,0.105548 0.618996,0.105548 0.351827,0 0.655277,-0.161621 0.910352,-0.48816 0.253975,-0.32544 0.382612,-0.716848 0.382612,-1.174223 0,-0.316644 -0.05277,-0.580514 -0.158322,-0.79161 -0.105548,-0.211097 -0.290257,-0.422193 -0.554128,-0.633289 -1.600813,-1.266577 -3.623818,-1.899866 -6.070115,-1.899866 -1.899866,0 -3.561149,0.388109 -4.986049,1.161029 -1.425999,0.77402 -2.519961,1.877877 -3.285184,3.311572 -0.765224,1.433695 -1.147836,3.118067 -1.147836,5.053116 0,1.970231 0.38701,3.672194 1.161029,5.105889 0.775119,1.434795 1.883374,2.534254 3.326964,3.298378 z m -20.990879,-0.02639 c 1.36223,0.782815 2.96854,1.174223 4.815632,1.174223 1.847092,0 3.452303,-0.390308 4.815632,-1.174223 1.36333,-0.782815 2.414413,-1.89107 3.15325,-3.324765 0.738837,-1.433695 1.108255,-3.118067 1.108255,-5.053115 0,-1.935049 -0.369418,-3.619421 -1.108255,-5.053116 -0.738837,-1.433695 -1.78992,-2.537552 -3.15325,-3.311572 -1.363329,-0.774019 -2.96854,-1.161029 -4.815632,-1.161029 -1.847092,0 -3.453402,0.388109 -4.815632,1.161029 -1.36333,0.77402 -2.414413,1.877877 -3.15325,3.311572 -0.738836,1.433695 -1.108255,3.118067 -1.108255,5.053116 0,1.935048 0.369419,3.61942 1.108255,5.053115 0.738837,1.434795 1.78992,2.54195 3.15325,3.324765 z m 1.161029,-13.086865 c 0.870772,-1.081868 2.088973,-1.622802 3.654603,-1.622802 1.56563,0 2.788229,0.540934 3.667797,1.622802 0.879567,1.081868 1.319351,2.651896 1.319351,4.710084 0,2.058188 -0.444181,3.632614 -1.332545,4.723278 -0.889462,1.090663 -2.107663,1.635995 -3.654603,1.635995 -1.548039,0 -2.761842,-0.545332 -3.642509,-1.635995 -0.879567,-1.090664 -1.318252,-2.66509 -1.318252,-4.723278 0,-2.058188 0.435386,-3.629316 1.306158,-4.710084 z M 28.122433,99.329548 h 8.946301 c 1.283069,0 1.926253,-0.554128 1.926253,-1.662383 0,-1.124747 -0.643184,-1.68877 -1.926253,-1.68877 H 30.312556 V 82.62766 c 0,-0.615698 -0.184709,-1.108255 -0.554127,-1.477674 -0.369419,-0.369418 -0.870772,-0.554127 -1.504061,-0.554127 -0.633289,0 -1.134642,0.184709 -1.50406,0.554127 -0.369419,0.369419 -0.554128,0.861976 -0.554128,1.477674 v 14.776734 c 0,0.615698 0.167118,1.090664 0.501353,1.4249 0.334236,0.334235 0.809203,0.500254 1.4249,0.500254 z M 108.209,36.085 80.751,8.626 C 80.563,8.438 80.31,8.333 80.044,8.333 H 30.879 c -2.757,0 -5,2.243 -5,5 v 60.401 h -5.424 c -2.757,0 -5,2.243 -5,5 v 22.778 c 0,2.757 2.243,5 5,5 h 5.424 v 4.153 c 0,2.757 2.243,5 5,5 h 72.666 c 2.757,0 5,-2.243 5,-5 v -26.29 c 0,-0.552 -0.447,-1 -1,-1 -0.553,0 -1,0.448 -1,1 v 26.292 c 0,1.654 -1.346,3 -3,3 H 30.879 c -1.654,0 -3,-1.346 -3,-3 v -4.153 h 53.493 c 2.757,0 5,-2.243 5,-5 V 78.735 c 0,-2.757 -2.243,-5 -5,-5 H 27.879 V 13.333 c 0,-1.654 1.346,-3 3,-3 h 48.165 v 22.5 c 0,2.757 2.243,5 5,5 h 22.501 V 65 c 0,0.552 0.447,1 1,1 0.553,0 1,-0.448 1,-1 V 36.831 c 0,-0.291 -0.126,-0.56 -0.336,-0.746 z m -23.837,42.65 v 22.778 c 0,1.654 -1.346,3 -3,3 H 20.455 c -1.654,0 -3,-1.346 -3,-3 V 78.735 c 0,-1.654 1.346,-3 3,-3 h 60.917 c 1.654,0 3,1.346 3,3 z M 81.044,32.833 V 11.748 l 24.085,24.085 H 84.044 c -1.654,0 -3,-1.346 -3,-3 z m 26.501,35.5 c -0.553,0 -1,0.448 -1,1 V 80 c 0,0.552 0.447,1 1,1 0.553,0 1,-0.448 1,-1 V 69.333 c 0,-0.552 -0.447,-1 -1,-1 z M 96.286,65.83 H 38.138 c -0.553,0 -1,0.448 -1,1 0,0.552 0.447,1 1,1 h 58.148 c 0.553,0 1,-0.448 1,-1 0,-0.552 -0.447,-1 -1,-1 z m 0,-10 H 38.138 c -0.553,0 -1,0.448 -1,1 0,0.552 0.447,1 1,1 h 58.148 c 0.553,0 1,-0.448 1,-1 0,-0.552 -0.447,-1 -1,-1 z m 0,-10 H 38.138 c -0.553,0 -1,0.448 -1,1 0,0.552 0.447,1 1,1 h 58.148 c 0.553,0 1,-0.448 1,-1 0,-0.552 -0.447,-1 -1,-1 z m -58.148,-8 h 33.148 c 0.553,0 1,-0.448 1,-1 0,-0.552 -0.447,-1 -1,-1 H 38.138 c -0.553,0 -1,0.448 -1,1 0,0.552 0.447,1 1,1 z m 0,-10 h 33.148 c 0.553,0 1,-0.448 1,-1 0,-0.552 -0.447,-1 -1,-1 H 38.138 c -0.553,0 -1,0.448 -1,1 0,0.552 0.447,1 1,1 z" />
</svg>
