<?xml version="1.0" encoding="UTF-8" standalone="no"?>
<!-- Created with Inkscape (http://www.inkscape.org/) -->

<svg
   xmlns:dc="http://purl.org/dc/elements/1.1/"
   xmlns:cc="http://creativecommons.org/ns#"
   xmlns:rdf="http://www.w3.org/1999/02/22-rdf-syntax-ns#"
   xmlns:svg="http://www.w3.org/2000/svg"
   xmlns="http://www.w3.org/2000/svg"
   xmlns:sodipodi="http://sodipodi.sourceforge.net/DTD/sodipodi-0.dtd"
   xmlns:inkscape="http://www.inkscape.org/namespaces/inkscape"
   width="210mm"
   height="297mm"
   viewBox="0 0 210 297"
   version="1.1"
   id="svg8"
   inkscape:version="0.92.3 (2405546, 2018-03-11)"
   sodipodi:docname="log2.svg">
  <defs
     id="defs2" />
  <sodipodi:namedview
     id="base"
     pagecolor="#ffffff"
     bordercolor="#666666"
     borderopacity="1.0"
     inkscape:pageopacity="0.0"
     inkscape:pageshadow="2"
     inkscape:zoom="0.49497475"
     inkscape:cx="92.640329"
     inkscape:cy="745.20935"
     inkscape:document-units="mm"
     inkscape:current-layer="layer1"
     showgrid="false"
     inkscape:window-width="2560"
     inkscape:window-height="1017"
     inkscape:window-x="1912"
     inkscape:window-y="-8"
     inkscape:window-maximized="1" />
  <metadata
     id="metadata5">
    <rdf:RDF>
      <cc:Work
         rdf:about="">
        <dc:format>image/svg+xml</dc:format>
        <dc:type
           rdf:resource="http://purl.org/dc/dcmitype/StillImage" />
        <dc:title />
      </cc:Work>
    </rdf:RDF>
  </metadata>
  <g
     inkscape:label="Layer 1"
     inkscape:groupmode="layer"
     id="layer1">
    <path
       style="fill:#000000;stroke:#000000;stroke-width:0;stroke-miterlimit:4;stroke-dasharray:none;stroke-opacity:1"
       d="M 42.939453 9.3320312 C 24.747402 9.3320312 10.101562 23.977871 10.101562 42.169922 L 10.101562 293.6582 C 10.101563 311.85025 24.747402 326.49414 42.939453 326.49414 L 744.98047 326.49414 C 763.17252 326.49414 777.81836 311.85025 777.81836 293.6582 L 777.81836 42.169922 C 777.81836 23.977871 763.17252 9.3320314 744.98047 9.3320312 L 42.939453 9.3320312 z M 363.9375 44.216797 C 402.00608 44.216797 431.93923 55.32834 453.73828 77.552734 C 475.53731 99.670792 486.4375 129.81727 486.4375 167.99219 C 486.4375 205.84809 475.59114 235.94271 453.89844 258.27344 C 432.20571 280.49783 402.21874 291.60937 363.9375 291.60938 C 325.76258 291.60938 295.82747 280.49783 274.13477 258.27344 C 252.44205 235.94271 241.5957 205.84809 241.5957 167.99219 C 241.5957 129.81727 252.44205 99.670792 274.13477 77.552734 C 295.82747 55.32834 325.76258 44.216797 363.9375 44.216797 z M 650.24805 44.535156 C 665.87954 44.535156 680.76734 45.970701 694.91016 48.841797 C 709.05295 51.606554 724.79016 57.189237 742.12305 65.589844 L 742.12305 121.25781 L 735.26562 121.25781 C 732.28819 119.02474 727.92773 115.88845 722.18555 111.84766 C 716.44336 107.70052 710.91449 104.19141 705.59766 101.32031 C 699.43012 97.917536 692.19857 94.992622 683.9043 92.546875 C 675.71635 90.101128 666.99739 88.878906 657.74609 88.878906 C 646.89973 88.878906 637.06228 90.473957 628.23633 93.664062 C 619.41038 96.854168 611.48893 101.74501 604.4707 108.33789 C 597.77149 114.7181 592.45399 122.85286 588.51953 132.74219 C 584.6914 142.52517 582.77734 153.85004 582.77734 166.7168 C 582.77734 192.98199 589.7437 213.07964 603.67383 227.00977 C 617.60396 240.93989 638.18012 247.9043 665.40234 247.9043 C 667.74175 247.9043 670.29384 247.85242 673.05859 247.74609 C 675.9297 247.63976 678.53365 247.48026 680.87305 247.26758 L 680.87305 200.69141 L 633.5 200.69141 L 633.5 155.87109 L 743.08008 155.87109 L 743.08008 273.10742 C 732.4464 277.25456 718.35807 281.40169 700.8125 285.54883 C 683.26693 289.58963 665.77323 291.60937 648.33398 291.60938 C 607.926 291.60938 576.2921 280.65734 553.42969 258.75195 C 530.56725 236.74023 519.13477 206.38043 519.13477 167.67383 C 519.13477 130.77495 530.67295 101.05317 553.74805 78.509766 C 576.82315 55.860022 608.98936 44.535156 650.24805 44.535156 z M 47.478516 49.162109 L 108.72852 49.162109 L 108.72852 240.72656 L 218.78711 240.72656 L 218.78711 286.66406 L 47.478516 286.66406 L 47.478516 49.162109 z M 364.0957 89.037109 C 356.33312 89.037109 348.99588 90.42079 342.08398 93.185547 C 335.27843 95.950304 329.00586 100.52214 323.26367 106.90234 C 317.94683 112.85721 313.58637 121.09766 310.18359 131.625 C 306.88715 142.04601 305.23828 154.1684 305.23828 167.99219 C 305.23828 182.13498 306.83333 194.20551 310.02344 204.20117 C 313.31988 214.09049 317.62652 222.17144 322.94336 228.44531 C 328.2602 234.71919 334.4809 239.34484 341.60547 242.32227 C 348.73004 245.2997 356.22678 246.78906 364.0957 246.78906 C 371.96463 246.78906 379.46138 245.2997 386.58594 242.32227 C 393.71052 239.2385 399.93121 234.50716 405.24805 228.12695 C 411.20289 220.89605 415.61718 212.38846 418.48828 202.60547 C 421.35939 192.71614 422.79492 181.12609 422.79492 167.83398 C 422.79492 153.58485 421.14606 141.46246 417.84961 131.4668 C 414.55316 121.47114 410.24653 113.38824 404.92969 107.2207 C 399.50652 100.8405 393.23198 96.214845 386.10742 93.34375 C 379.08919 90.472657 371.75196 89.037109 364.0957 89.037109 z "
       transform="scale(0.26458333)"
       id="rect816" />
  </g>
</svg>
