<?xml version="1.0" encoding="UTF-8" standalone="no"?>
<svg
   xmlns:dc="http://purl.org/dc/elements/1.1/"
   xmlns:cc="http://creativecommons.org/ns#"
   xmlns:rdf="http://www.w3.org/1999/02/22-rdf-syntax-ns#"
   xmlns:svg="http://www.w3.org/2000/svg"
   xmlns="http://www.w3.org/2000/svg"
   xmlns:sodipodi="http://sodipodi.sourceforge.net/DTD/sodipodi-0.dtd"
   xmlns:inkscape="http://www.inkscape.org/namespaces/inkscape"
   height="467pt"
   viewBox="-43 0 467 467.484"
   width="467pt"
   version="1.1"
   id="svg16"
   sodipodi:docname="login.svg"
   inkscape:version="0.92.3 (2405546, 2018-03-11)">
  <metadata
     id="metadata22">
    <rdf:RDF>
      <cc:Work
         rdf:about="">
        <dc:format>image/svg+xml</dc:format>
        <dc:type
           rdf:resource="http://purl.org/dc/dcmitype/StillImage" />
      </cc:Work>
    </rdf:RDF>
  </metadata>
  <defs
     id="defs20" />
  <sodipodi:namedview
     pagecolor="#ffffff"
     bordercolor="#666666"
     borderopacity="1"
     objecttolerance="10"
     gridtolerance="10"
     guidetolerance="10"
     inkscape:pageopacity="0"
     inkscape:pageshadow="2"
     inkscape:window-width="1920"
     inkscape:window-height="1017"
     id="namedview18"
     showgrid="false"
     inkscape:zoom="0.37901499"
     inkscape:cx="311.33333"
     inkscape:cy="311.33333"
     inkscape:window-x="-8"
     inkscape:window-y="-8"
     inkscape:window-maximized="1"
     inkscape:current-layer="svg16" />
  <path
     id="path14"
     d="m 307.80078,297.10156 -7.33203,-8.3789 -6.64844,5.17187 15.23047,29.07422 29.07813,15.23047 5.17187,-6.64844 -8.37891,-7.32812 c -9.6289,-8.4336 -18.6914,-17.49219 -27.12109,-27.1211 z m 0,0 m -50.99219,44.5 c -2.14062,-2.38672 -4.2539,-4.79687 -6.33984,-7.23437 l -59.92578,-19.98438 c -27.93359,14.02735 -60.85547,14.02344 -88.78516,-0.0156 l -69.964841,22.6875 c -14.863281,4.8164 -26.109375,16.34375 -30.089844,30.84375 -0.15625,0.57031 -0.304687,1.14062 -0.4375,1.71484 -0.710937,3.17969 -1.054687,6.42578 -1.019531,9.68359 v 43.39844 H 175.71094 Z m 0,0 m 48.5625,-91.40234 -65.8125,51.1875 c 9.3086,12.65625 19.30469,24.79297 29.94922,36.34765 2.17969,2.36719 2.10547,6.03125 -0.16797,8.30469 l -104.80078,104.80078 2.77344,13.8711 13.87109,2.77343 10.23829,-10.24218 c 1.28906,-1.28125 3.08203,-1.91407 4.88671,-1.72266 l 9.4336,1.01953 -0.78516,-9.85156 c -0.13281,-1.6875 0.45313,-3.35156 1.61328,-4.58594 1.15625,-1.24219 2.78516,-1.92969 4.48047,-1.88672 l 10.89063,0.19922 -1.4336,-8.71484 c -0.3125,-1.90625 0.3125,-3.84766 1.67969,-5.21485 l 63.79687,-63.79687 c 2.27735,-2.27734 5.94141,-2.35156 8.3086,-0.17188 11.55469,10.64454 23.6914,20.64063 36.34765,29.94922 L 381.75,326.75 c -9.54297,-6.50781 -27.36328,-19.30859 -40.76563,-32.71094 -13.66796,-13.66015 -28.13281,-33.26172 -35.61328,-43.83984 z m 50.09375,76.05469 c 2.39063,2.08984 2.73828,5.6875 0.78516,8.19921 l -11.72656,15.07422 c -1.78125,2.29297 -4.94922,2.98047 -7.51953,1.63282 l -35.17969,-18.42579 c -1.08203,-0.57031 -1.96485,-1.45312 -2.53125,-2.53125 l -18.42969,-35.17968 c -1.34766,-2.57422 -0.66016,-5.73828 1.63281,-7.51953 l 15.07813,-11.73047 c 2.50781,-1.94922 6.10547,-1.60547 8.19922,0.78906 l 11.05859,12.63672 c 8.07813,9.23047 16.76172,17.91406 25.99219,25.99219 z m 0,0 m -247.0664,-21.98438 c 23.85937,11.51563 51.67187,11.51563 75.53125,0 v -26.57031 c -24.15625,10.13672 -51.375,10.13672 -75.53125,0 z m 0,0 M 238.58594,131.875 c -48.52735,-4.79297 -75.48828,-29.48828 -83.6875,-38.3125 -10.95313,2.753906 -22.0586,4.851562 -33.26172,6.285156 -0.80078,0.101563 -1.59375,0.203124 -2.37891,0.300784 44.5,32.35156 101.27735,36.16406 119.32813,36.52343 z m 0,0 m -8.20313,71.56641 c 0.0391,-0.19141 0.082,-0.37891 0.13672,-0.56641 l 4.9375,-16.98438 c 0.41797,-2.51171 2.375,-4.48828 4.88281,-4.92578 5.10547,-0.90625 9.60547,-3.88672 12.4336,-8.22656 2.83203,-4.34375 3.73828,-9.66016 2.51172,-14.69531 -1.17579,-4.83594 -5.08594,-8.52735 -9.98438,-9.42188 -0.16016,0.0195 -0.32031,0.0391 -0.48828,0.043 -0.88281,0.0352 -22.04297,0.77344 -50.46875,-4.76953 -25.78516,-5.02734 -62.47656,-16.40234 -92.28906,-42.07031 -11.761721,0.84766 -21.281252,0.9375 -27.042971,0.86328 l -1.359375,29.84766 c -0.273438,6.48046 -3.804688,12.3789 -9.390625,15.67578 -5.582031,3.29687 -12.453125,3.54687 -18.257813,0.65625 -4.449218,1.17578 -7.890625,4.69922 -8.957031,9.17578 -1.230469,5.03515 -0.324219,10.35547 2.503906,14.69531 2.832031,4.34375 7.332031,7.32031 12.4375,8.22656 2.507813,0.4375 4.464844,2.41407 4.882813,4.92578 l 4.9375,16.98438 c 0.05469,0.18359 0.101562,0.375 0.136718,0.56641 7.625,40.5039 43.003908,69.83984 84.218748,69.83984 41.21485,0 76.59375,-29.33594 84.21875,-69.83984 z m 0,0 M 146.18359,0 C 95.175781,0.0546875 53.839844,41.390625 53.785156,92.398438 v 46.441402 c 1.960938,0.17578 3.914063,-0.45312 5.402344,-1.74609 1.484375,-1.29297 2.382812,-3.13281 2.480469,-5.10156 l 1.625,-35.726565 c 0.07422,-1.597656 0.777343,-3.097656 1.960937,-4.171875 C 66.4375,91.019531 68,90.460938 69.59375,90.542969 c 16.945312,0.496093 33.90234,-0.378907 50.70703,-2.621094 25.67188,-3.375 61.64063,-11.515625 87.20703,-31.121094 1.69922,-1.359375 3.9961,-1.691406 6.00781,-0.875 2.01172,0.820313 3.42579,2.664063 3.69532,4.820313 0.26562,2.15625 -0.65235,4.289062 -2.40235,5.574218 -12.65234,9.699219 -28.24609,17.53125 -46.60156,23.433594 10.45703,9.460938 33.62109,26.070314 70.37891,30.039064 V 92.398438 C 238.53125,41.390625 197.19531,0.0546875 146.18359,0 Z m 0,0" />
</svg>
