<?xml version="1.0" encoding="UTF-8" standalone="no"?>
<!-- Generator: Adobe Illustrator 16.0.0, SVG Export Plug-In . SVG Version: 6.00 Build 0)  -->

<svg
   xmlns:dc="http://purl.org/dc/elements/1.1/"
   xmlns:cc="http://creativecommons.org/ns#"
   xmlns:rdf="http://www.w3.org/1999/02/22-rdf-syntax-ns#"
   xmlns:svg="http://www.w3.org/2000/svg"
   xmlns="http://www.w3.org/2000/svg"
   xmlns:sodipodi="http://sodipodi.sourceforge.net/DTD/sodipodi-0.dtd"
   xmlns:inkscape="http://www.inkscape.org/namespaces/inkscape"
   version="1.1"
   id="Capa_1"
   x="0px"
   y="0px"
   width="31.82px"
   height="31.82px"
   viewBox="0 0 31.82 31.82"
   style="enable-background:new 0 0 31.82 31.82;"
   xml:space="preserve"
   sodipodi:docname="minus-sign-on-business-card.svg"
   inkscape:version="0.92.3 (2405546, 2018-03-11)"><metadata
   id="metadata53"><rdf:RDF><cc:Work
       rdf:about=""><dc:format>image/svg+xml</dc:format><dc:type
         rdf:resource="http://purl.org/dc/dcmitype/StillImage" /></cc:Work></rdf:RDF></metadata><defs
   id="defs51">
	

		
		
		
		
		
		
	</defs><sodipodi:namedview
   pagecolor="#ffffff"
   bordercolor="#666666"
   borderopacity="1"
   objecttolerance="10"
   gridtolerance="10"
   guidetolerance="10"
   inkscape:pageopacity="0"
   inkscape:pageshadow="2"
   inkscape:window-width="1920"
   inkscape:window-height="1017"
   id="namedview49"
   showgrid="false"
   inkscape:zoom="7.4167191"
   inkscape:cx="35.643409"
   inkscape:cy="-9.3465513"
   inkscape:window-x="-8"
   inkscape:window-y="-8"
   inkscape:window-maximized="1"
   inkscape:current-layer="Capa_1" />
<path
   d="m 59.769779,12.882559 c 0,0.376 -0.305,0.681 -0.681,0.681 h -0.726 c -1.551,0 -2.808,1.256 -2.808,2.807 v 0.779 c 0,0.489 0.397,0.887 0.887,0.887 h 9.371 c 0.491,0 0.887,-0.397 0.887,-0.887 v -0.779 c 0,-1.551 -1.257,-2.807 -2.808,-2.807 h -0.725 c -0.376,0 -0.681,-0.305 -0.681,-0.681 0,-0.14 0.056,-0.273 0.156,-0.371 0.422,-0.411 0.776,-0.962 1.033,-1.557 0.052,0.039 0.108,0.066 0.171,0.066 0.407,0 0.885,-0.9 0.885,-1.5129997 0,-0.613 -0.056,-1.11 -0.464,-1.11 -0.048,0 -0.099,0.008 -0.152,0.021 -0.029,-1.663 -0.449,-3.738 -2.988,-3.738 -2.649,0 -2.959,2.07 -2.988,3.732 -0.037,-0.007 -0.075,-0.015 -0.11,-0.015 -0.407,0 -0.464,0.497 -0.464,1.11 0,0.6129997 0.478,1.5129997 0.885,1.5129997 0.05,0 0.097,-0.014 0.141,-0.039 0.256,0.584 0.606,1.125 1.021,1.53 0.101,0.097 0.158,0.231 0.158,0.371 z"
   id="path2"
   inkscape:connector-curvature="0" /><path
   d="m 72.955779,6.5165593 c 0,-0.363 -0.294,-0.657 -0.656,-0.657 h -7.859 c 0.227,0.502 0.389,1.12 0.456,1.884 0.168,0.103 0.294,0.271 0.397,0.472 h 7.006 c 0.362,0 0.656,-0.294 0.656,-0.657 z"
   id="path4"
   inkscape:connector-curvature="0" /><path
   d="m 72.879779,12.144559 c 0.045,-0.089 0.076,-0.186 0.076,-0.292 v -1.042 c 0,-0.363 -0.294,-0.657 -0.656,-0.657 h -6.846 c -0.186,0.702 -0.644,1.436 -1.276,1.633 -0.019,0.035 -0.041,0.065 -0.06,0.099 v 0.624 h 7.941 c 0.266,-0.137 0.54,-0.258 0.821,-0.365 z"
   id="path6"
   inkscape:connector-curvature="0" /><path
   d="m 68.225779,16.802559 c 0.332,-0.867 0.804,-1.663 1.395,-2.355 h -2.665 c 0.353,0.558 0.56,1.217 0.56,1.924 v 0.433 z"
   id="path8"
   inkscape:connector-curvature="0" /><path
   d="m 54.888779,22.252559 c -1.526,0 -2.767,-1.679 -2.767,-3.743 V 5.4065593 c 0,-2.064 1.241,-3.743 2.767,-3.743 h 19.965 c 1.525,0 2.767,1.679 2.767,3.743 v 6.4209997 c 0.644,0.152 1.257,0.378 1.83,0.674 V 5.4065593 c 0,-3.073 -2.062,-5.57299995 -4.597,-5.57299995 h -19.965 c -2.535,0 -4.597,2.49999995 -4.597,5.57299995 V 18.509559 c 0,3.073 2.062,5.573 4.597,5.573 h 14.112 c -0.369,-0.565 -0.666,-1.179 -0.885,-1.83 z"
   id="path10"
   inkscape:connector-curvature="0" /><path
   d="m 75.764779,13.628559 c -3.506,0 -6.349,2.842 -6.349,6.348 0,3.506 2.843,6.348 6.349,6.348 3.506,0 6.348,-2.842 6.348,-6.348 0,-3.506 -2.842,-6.348 -6.348,-6.348 z"
   id="path12"
   inkscape:connector-curvature="0"
   sodipodi:nodetypes="sssss" />
<g
   id="g18">
</g>
<g
   id="g20">
</g>
<g
   id="g22">
</g>
<g
   id="g24">
</g>
<g
   id="g26">
</g>
<g
   id="g28">
</g>
<g
   id="g30">
</g>
<g
   id="g32">
</g>
<g
   id="g34">
</g>
<g
   id="g36">
</g>
<g
   id="g38">
</g>
<g
   id="g40">
</g>
<g
   id="g42">
</g>
<g
   id="g44">
</g>
<g
   id="g46">
</g>
<g
   transform="matrix(0.3372562,0,0,0.3372562,71.380766,15.903275)"
   id="g8"
   style="fill:#ffffff"><g
     id="g6"
     style="fill:#ffffff"><g
       id="g4"
       style="fill:#ffffff"><path
         inkscape:connector-curvature="0"
         style="fill:#ffffff"
         d="M 0.3,14 C 0.1,13.8 0,13.5 0,13.3 0,13.1 0.1,12.8 0.3,12.6 l 1.4,-1.4 c 0.4,-0.4 1,-0.4 1.4,0 l 0.1,0.1 5.5,5.9 c 0.2,0.2 0.5,0.2 0.7,0 L 22.8,3.3 h 0.1 v 0 c 0.4,-0.4 1,-0.4 1.4,0 l 1.4,1.4 c 0.4,0.4 0.4,1 0,1.4 v 0 L 9.7,22.7 C 9.5,22.9 9.3,23 9,23 8.7,23 8.5,22.9 8.3,22.7 L 0.5,14.3 Z"
         id="path2-4" /></g></g></g></svg>