<?xml version="1.0" encoding="UTF-8" standalone="no"?>
<!-- Generator: Adobe Illustrator 16.0.0, SVG Export Plug-In . SVG Version: 6.00 Build 0)  -->

<svg
   xmlns:dc="http://purl.org/dc/elements/1.1/"
   xmlns:cc="http://creativecommons.org/ns#"
   xmlns:rdf="http://www.w3.org/1999/02/22-rdf-syntax-ns#"
   xmlns:svg="http://www.w3.org/2000/svg"
   xmlns="http://www.w3.org/2000/svg"
   xmlns:sodipodi="http://sodipodi.sourceforge.net/DTD/sodipodi-0.dtd"
   xmlns:inkscape="http://www.inkscape.org/namespaces/inkscape"
   version="1.1"
   id="Capa_1"
   x="0px"
   y="0px"
   width="31.82px"
   height="31.82px"
   viewBox="0 0 31.82 31.82"
   style="enable-background:new 0 0 31.82 31.82;"
   xml:space="preserve"
   sodipodi:docname="noIDCard.svg"
   inkscape:version="0.92.3 (2405546, 2018-03-11)"><metadata
   id="metadata53"><rdf:RDF><cc:Work
       rdf:about=""><dc:format>image/svg+xml</dc:format><dc:type
         rdf:resource="http://purl.org/dc/dcmitype/StillImage" /><dc:title /></cc:Work></rdf:RDF></metadata><defs
   id="defs51">
	

		
		
		
		
		
		
	</defs>
<sodipodi:namedview
   pagecolor="#ffffff"
   bordercolor="#666666"
   borderopacity="1"
   objecttolerance="10"
   gridtolerance="10"
   guidetolerance="10"
   inkscape:pageopacity="0"
   inkscape:pageshadow="2"
   inkscape:window-width="1920"
   inkscape:window-height="1017"
   id="namedview49"
   showgrid="false"
   inkscape:zoom="10.488825"
   inkscape:cx="-31.456907"
   inkscape:cy="18.081937"
   inkscape:window-x="-8"
   inkscape:window-y="-8"
   inkscape:window-maximized="1"
   inkscape:current-layer="Capa_1" />

<path
   id="path5"
   style="stroke-width:1.53625119"
   d="m 39.232514,21.328902 c -5.386096,0 -9.754594,4.365499 -9.754594,9.751596 0,5.386097 4.368498,9.751594 9.754594,9.751594 5.386097,0 9.751596,-4.365497 9.751596,-9.751594 0,-5.386097 -4.365499,-9.751596 -9.751596,-9.751596 z m 4.200687,3.675602 c 0.06612,0 0.127248,0.02522 0.17403,0.072 l 1.500244,1.500247 c 0.09741,0.09741 0.09741,0.253644 0,0.351058 l -4.056663,4.059663 4.056663,4.056664 c 0.09741,0.09741 0.09741,0.256643 0,0.354056 l -1.500244,1.500246 c -0.04678,0.04675 -0.107922,0.07201 -0.17403,0.07201 -0.06611,0 -0.130243,-0.02527 -0.177028,-0.07201 l -4.059664,-4.059663 -4.056663,4.059663 c -0.04678,0.04676 -0.110933,0.07201 -0.17703,0.07201 -0.06611,0 -0.130243,-0.02527 -0.177028,-0.07201 l -1.497245,-1.500246 c -0.09741,-0.09743 -0.09741,-0.256627 0,-0.354056 l 4.056664,-4.056664 -4.056664,-4.059663 c -0.09741,-0.09741 -0.09741,-0.253645 0,-0.351058 l 1.497245,-1.500241 c 0.09356,-0.09354 0.2605,-0.09354 0.354058,0 l 4.056663,4.059666 4.059664,-4.059666 c 0.04678,-0.04678 0.110917,-0.072 0.177028,-0.072 z M 7.1614161,34.577152 c -2.344319,0 -4.250807,-2.579366 -4.250807,-5.750189 V 8.6974636 c 0,-3.1708225 1.906488,-5.7501878 4.250807,-5.7501878 H 37.832672 c 2.342783,0 4.250807,2.5793653 4.250807,5.7501878 v 9.8642694 c 0.989345,0.23351 1.931067,0.580703 2.811339,1.035433 V 8.6974636 c 0,-4.7208998 -3.16775,-8.56152783 -7.062146,-8.56152783 H 7.1614161 c -3.894396,0 -7.06214604,3.84062803 -7.06214604,8.56152783 V 28.826963 c 0,4.7209 3.16775004,8.561528 7.06214604,8.561528 H 28.840993 C 28.274117,36.520509 27.81785,35.577251 27.481411,34.577152 Z M 27.650399,26.204583 c 0.510035,-1.33193 1.235146,-2.554786 2.14307,-3.617872 H 25.69936 c 0.542296,0.857228 0.8603,1.869617 0.8603,2.955747 v 0.665197 z m 7.149713,-7.155859 c 0.06913,-0.136726 0.116755,-0.285742 0.116755,-0.448585 v -1.600774 c 0,-0.557659 -0.451658,-1.009317 -1.007781,-1.009317 H 23.39191 c -0.285742,1.078448 -0.989345,2.206057 -1.960256,2.508698 -0.02919,0.05377 -0.06299,0.09986 -0.09217,0.152089 v 0.958621 h 12.19937 c 0.408643,-0.210466 0.829576,-0.396353 1.261263,-0.560732 z m 0.116755,-8.646022 c 0,-0.5576588 -0.451658,-1.0093166 -1.007781,-1.0093166 H 21.835688 c 0.348729,0.7711976 0.597602,1.7206016 0.70053,2.8942976 0.258091,0.158233 0.451658,0.416324 0.609892,0.72511 h 10.762976 c 0.556123,0 1.007781,-0.451658 1.007781,-1.009317 z m -20.257008,9.779776 c 0,0.57763 -0.468557,1.046187 -1.046188,1.046187 h -1.115318 c -2.382726,0 -4.3137929,1.929531 -4.3137929,4.312257 v 1.19674 c 0,0.751227 0.609891,1.362655 1.362655,1.362655 H 23.943424 c 0.7543,0 1.362655,-0.609892 1.362655,-1.362655 v -1.19674 c 0,-2.382726 -1.931067,-4.312257 -4.313793,-4.312257 h -1.113782 c -0.577631,0 -1.046187,-0.468557 -1.046187,-1.046187 0,-0.215076 0.08603,-0.419397 0.239655,-0.56995 0.648298,-0.631399 1.192131,-1.477873 1.586947,-2.391943 0.07988,0.05991 0.165916,0.101393 0.262699,0.101393 0.625255,0 1.359583,-1.382626 1.359583,-2.324348 0,-0.941722 -0.08603,-1.705239 -0.712821,-1.705239 -0.07374,0 -0.152089,0.01229 -0.23351,0.03226 -0.04455,-2.554786 -0.689777,-5.7425071 -4.590319,-5.7425071 -4.069529,0 -4.545767,3.1800401 -4.590318,5.7332891 -0.05684,-0.01075 -0.115219,-0.02304 -0.168988,-0.02304 -0.625254,0 -0.71282,0.763517 -0.71282,1.705239 0,0.941722 0.734328,2.324348 1.359582,2.324348 0.07681,0 0.149016,-0.02151 0.216611,-0.05991 0.393281,0.897171 0.930969,1.728283 1.568513,2.350465 0.155161,0.149016 0.242728,0.354874 0.242728,0.56995 z" /></svg>