<?xml version="1.0" encoding="UTF-8" standalone="no"?>
<!-- Generator: Adobe Illustrator 16.0.0, SVG Export Plug-In . SVG Version: 6.00 Build 0)  -->

<svg
   xmlns:dc="http://purl.org/dc/elements/1.1/"
   xmlns:cc="http://creativecommons.org/ns#"
   xmlns:rdf="http://www.w3.org/1999/02/22-rdf-syntax-ns#"
   xmlns:svg="http://www.w3.org/2000/svg"
   xmlns="http://www.w3.org/2000/svg"
   xmlns:sodipodi="http://sodipodi.sourceforge.net/DTD/sodipodi-0.dtd"
   xmlns:inkscape="http://www.inkscape.org/namespaces/inkscape"
   version="1.1"
   id="Capa_1"
   x="0px"
   y="0px"
   width="974.9px"
   height="974.9px"
   viewBox="0 0 974.9 974.9"
   style="enable-background:new 0 0 974.9 974.9;"
   xml:space="preserve"
   sodipodi:docname="paper.svg"
   inkscape:version="0.92.3 (2405546, 2018-03-11)"><metadata
   id="metadata47"><rdf:RDF><cc:Work
       rdf:about=""><dc:format>image/svg+xml</dc:format><dc:type
         rdf:resource="http://purl.org/dc/dcmitype/StillImage" /></cc:Work></rdf:RDF></metadata><defs
   id="defs45">
	
	
	
	
</defs><sodipodi:namedview
   pagecolor="#ffffff"
   bordercolor="#666666"
   borderopacity="1"
   objecttolerance="10"
   gridtolerance="10"
   guidetolerance="10"
   inkscape:pageopacity="0"
   inkscape:pageshadow="2"
   inkscape:window-width="2560"
   inkscape:window-height="1017"
   id="namedview43"
   showgrid="false"
   inkscape:zoom="0.2420761"
   inkscape:cx="-710.63406"
   inkscape:cy="-261.19712"
   inkscape:window-x="1912"
   inkscape:window-y="-8"
   inkscape:window-maximized="1"
   inkscape:current-layer="Capa_1" />
<g
   id="g882"
   transform="translate(-371.78391,45.440248)" /><g
   id="g887"
   transform="translate(-917.06697,-61.963985)" />
<g
   id="g12">
</g>
<g
   id="g14">
</g>
<g
   id="g16">
</g>
<g
   id="g18">
</g>
<g
   id="g20">
</g>
<g
   id="g22">
</g>
<g
   id="g24">
</g>
<g
   id="g26">
</g>
<g
   id="g28">
</g>
<g
   id="g30">
</g>
<g
   id="g32">
</g>
<g
   id="g34">
</g>
<g
   id="g36">
</g>
<g
   id="g38">
</g>
<g
   id="g40">
</g>
<path
   inkscape:connector-curvature="0"
   d="m 374.93486,458.29279 h 51.3 123.8 c 9,0 14.9,-7.3 15,-15 0,-3.7 -1.3,-7.5 -4.4,-10.601 l -134.301,-134.399 -40.7,-40.7 c -3.1,-3.1 -6.8,-4.4 -10.5,-4.4 -7.699,0 -15.1,6 -15.1,15 v 175.1 0 c -0.099,8.3 6.701,15 14.901,15 z m -321.401,529 v 0 h 466.5 v 0 c 24.9,0 45,-20.101 45,-45 v -195.8 -197 c 0,-16.601 -13.4,-30 -30,-30 h -108.7 -96.5 c -16.6,0 -30,-13.4 -30,-30 v -46.1 -160.2 c 0,-16.6 -13.4,-30 -30,-30 h -216.3 c -24.9,0 -44.9999993,20.1 -44.9999993,36 v 644.1 c 0,9 1.4,17 4.0000003,24 7.100999,19.1 22.799999,30 40.999999,30 z M 782.67923,8.63093 c -9.399,-9.4 -25.6,-2.8 -25.6,10.6 v 175.1 c 0,8.30001 6.7,15 15,15 h 175.1 c 13.4,0 20.101,-16.19999 10.601,-25.59999 z m 187.7618,296.06186 c 0,-16.6 -13.399,-30 -30,-30 h -206.3 c -16.6,0 -30,-13.39999 -30,-29.99999 V 42.392795 c 0,-16.599995 -13.4,-29.999995 -30,-29.999995 h -215.2 c -24.899,0 -45,20.1 -45,44.999995 V 214.19279 c 0.4,0.40001 0.9,0.8 1.3,1.3 l 175.101,175.1 c 14.3,14.3 21.899,33.3 21.8,52.7 h 0.1 V 746.4928 h 313.101 c 24.899,0 45,-20.10101 45,-45 V 304.69279 Z"
   id="path8" /></svg>