<?xml version="1.0" encoding="UTF-8" standalone="no"?>
<svg
   xmlns:dc="http://purl.org/dc/elements/1.1/"
   xmlns:cc="http://creativecommons.org/ns#"
   xmlns:rdf="http://www.w3.org/1999/02/22-rdf-syntax-ns#"
   xmlns:svg="http://www.w3.org/2000/svg"
   xmlns="http://www.w3.org/2000/svg"
   xmlns:sodipodi="http://sodipodi.sourceforge.net/DTD/sodipodi-0.dtd"
   xmlns:inkscape="http://www.inkscape.org/namespaces/inkscape"
   version="1.1"
   viewBox="0 0 44 44"
   enable-background="new 0 0 44 44"
   id="svg4"
   sodipodi:docname="plus.svg"
   inkscape:version="0.92.3 (2405546, 2018-03-11)">
  <metadata
     id="metadata10">
    <rdf:RDF>
      <cc:Work
         rdf:about="">
        <dc:format>image/svg+xml</dc:format>
        <dc:type
           rdf:resource="http://purl.org/dc/dcmitype/StillImage" />
      </cc:Work>
    </rdf:RDF>
  </metadata>
  <defs
     id="defs8" />
  <sodipodi:namedview
     pagecolor="#ffffff"
     bordercolor="#666666"
     borderopacity="1"
     objecttolerance="10"
     gridtolerance="10"
     guidetolerance="10"
     inkscape:pageopacity="0"
     inkscape:pageshadow="2"
     inkscape:window-width="1920"
     inkscape:window-height="1017"
     id="namedview6"
     showgrid="false"
     inkscape:zoom="5.3636364"
     inkscape:cx="22"
     inkscape:cy="22"
     inkscape:window-x="-8"
     inkscape:window-y="-8"
     inkscape:window-maximized="1"
     inkscape:current-layer="svg4" />
  <path
     id="path2"
     d="m 533.32085,1.9474286 0,0 0,0 -385.477,0 0,0 0,0 -22.676,0 0,45.3500004 22.675,0 0,0 c 12.517,0 22.675,-10.158 22.675,-22.675 l 340.127,0 c 0,12.517 10.158,22.675 22.675,22.675 l 0,124.713001 c -12.517,0 -22.675,10.158 -22.675,22.675 l 0,22.675 45.35,0 0,-215.4130014 -22.674,0 z m -250.923,117.0940014 -0.952,0 0,-15.056 -17.664,0 0,15.056 -0.952,0 c -12.97,0 -24.285,9.297 -24.285,21.609 l 0,18.458 c 0,10.816 10.453,19.501 22.947,19.501 l 2.29,0 0,30.045 c -4.014,-0.658 -7.188,-3.764 -7.188,-7.392 l 0,-7.483 -18.027,0 0,9.592 c 0,12.313 11.292,21.609 24.285,21.609 l 0.952,0 0,15.056 17.664,0 0,-15.056 0.952,0 c 12.97,0 24.262,-9.456 24.262,-21.609 l 0,-20.544 c 0,-10.363 -9.614,-19.365 -21.745,-19.365 l -3.492,0 0,-28.072 c 4.082,0.68 7.188,3.628 7.188,7.211 l 0,7.8 18.027,0 0,-9.75 c 0.023,-11.86 -11.292,-21.61 -24.262,-21.61 z m -18.616,44.194 c -4.014,-0.522 -7.188,-3.038 -7.188,-6.372 l 0,-14.262 c 0,-3.605 3.265,-6.598 7.188,-7.233 l 0,27.867 z m 24.852,22.879 0,15.17 c 0,3.719 -3.107,6.689 -7.188,7.369 l 0,-29.614 c 4.149,0.93 7.188,3.742 7.188,7.075 z m 176.662,-116.142001 0,0 -385.477993,0 0,0 0,0 -22.675,0 0,204.076001 430.827993,0 0,-204.076001 -22.675,0 0,0 z m 0,158.726001 c -12.517,0 -22.675,10.158 -22.675,22.675 l -340.12799,0 c 0,-12.517 -10.158003,-22.675 -22.675003,-22.675 l 0,-113.376 c 12.517,0 22.675003,-10.158 22.675003,-22.675001 l 340.12699,0 c 0,12.517001 10.158,22.675001 22.675,22.675001 l 0,113.376 z" />
</svg>
