<?xml version="1.0" encoding="UTF-8" standalone="no"?>
<svg
   xmlns:dc="http://purl.org/dc/elements/1.1/"
   xmlns:cc="http://creativecommons.org/ns#"
   xmlns:rdf="http://www.w3.org/1999/02/22-rdf-syntax-ns#"
   xmlns:svg="http://www.w3.org/2000/svg"
   xmlns="http://www.w3.org/2000/svg"
   xmlns:sodipodi="http://sodipodi.sourceforge.net/DTD/sodipodi-0.dtd"
   xmlns:inkscape="http://www.inkscape.org/namespaces/inkscape"
   version="1.1"
   viewBox="0 0 44 44"
   enable-background="new 0 0 44 44"
   id="svg4"
   sodipodi:docname="pendingPayment2.svg"
   inkscape:version="0.92.3 (2405546, 2018-03-11)">
  <metadata
     id="metadata10">
    <rdf:RDF>
      <cc:Work
         rdf:about="">
        <dc:format>image/svg+xml</dc:format>
        <dc:type
           rdf:resource="http://purl.org/dc/dcmitype/StillImage" />
        <dc:title />
      </cc:Work>
    </rdf:RDF>
  </metadata>
  <defs
     id="defs8" />
  <sodipodi:namedview
     pagecolor="#ffffff"
     bordercolor="#666666"
     borderopacity="1"
     objecttolerance="10"
     gridtolerance="10"
     guidetolerance="10"
     inkscape:pageopacity="0"
     inkscape:pageshadow="2"
     inkscape:window-width="1920"
     inkscape:window-height="1017"
     id="namedview6"
     showgrid="false"
     inkscape:zoom="1.8963319"
     inkscape:cx="51.104707"
     inkscape:cy="48.167473"
     inkscape:window-x="-8"
     inkscape:window-y="-8"
     inkscape:window-maximized="1"
     inkscape:current-layer="svg4" />
  <path
     id="path11"
     style="stroke-width:0.0160304"
     d="m 28.946914,10.524358 v 0.610466 h 0.359189 0.246854 v 1.801261 l 1.365399,0.90972 -1.426825,0.884987 0.0063,0.01049 -0.0033,0.0018 v 1.807304 h -0.18846 -0.359189 v 0.610634 h 4.598073 V 16.550395 H 32.86761 v -1.805022 l -1.383911,-0.897275 1.445009,-0.895959 -0.0063,-0.01049 0.0037,-0.0022 v -1.804602 h 0.618839 V 10.524381 H 32.92613 32.638664 29.840546 29.552925 Z m 0.893668,0.610466 h 2.798117 v 1.644506 l -1.432226,0.888429 -1.365891,-0.886624 z m 1.351965,2.893943 1.387677,0.924951 v 1.596515 H 29.78227 v -1.64713 z m 0.01206,-0.606594 1.263024,-0.784435 V 11.96128 h -2.45455 v 0.67341 z m -1.263503,2.991982 h 2.488032 v -0.258451 l -0.614967,-0.07487 -0.628813,-0.246909 -0.568964,0.230959 -0.675288,0.09082 z M 17.603835,4.3564099 v 1.1956792 h -0.07592 c -1.031762,0 -1.933152,0.7395392 -1.933152,1.7189613 v 1.469519 c 0,0.8604117 0.830805,1.5508576 1.824703,1.5508576 h 0.184369 v 2.391359 c -0.319312,-0.05247 -0.572082,-0.299742 -0.572082,-0.588351 v -0.596484 h -1.434272 v 0.764587 c 0,0.979501 0.896846,1.718956 1.930439,1.718956 h 0.07592 v 1.19568 h 1.404449 v -1.19568 h 0.07592 c 1.031764,0 1.930439,-0.752183 1.930439,-1.718956 v -1.634909 c 0,-0.8243782 -0.764782,-1.5400136 -1.7298,-1.5400136 H 19.008295 V 6.85351 c 0.324717,0.054093 0.57208,0.2897735 0.57208,0.5747937 v 0.6181731 h 1.434277 V 7.2710504 c 0.0019,-0.9434665 -0.898675,-1.7189613 -1.930439,-1.7189613 h -0.07592 V 4.3564099 Z m 0,2.4943874 V 9.0686331 C 17.284523,9.0271845 17.031753,8.8268666 17.031753,8.5616475 V 7.4283037 c 0,-0.2867831 0.260025,-0.5269913 0.572082,-0.5775064 z m 1.404449,3.4758767 c 0.330069,0.07398 0.57208,0.296122 0.57208,0.561237 v 1.206524 c 0,0.29586 -0.247431,0.534258 -0.57208,0.588351 z M 1.1685041,1.649658 V 17.883931 H 26.345322 A 6.3174844,6.3174844 0 0 1 25.350795,16.080225 H 4.7762245 c 0,-0.995729 -0.8081289,-1.803863 -1.8038575,-1.803863 V 5.2572212 c 0.9957286,0 1.8038575,-0.8079769 1.8038575,-1.8037055 H 31.833344 c 0,0.9957286 0.807978,1.8037055 1.803705,1.8037055 v 2.8383226 a 6.3174844,6.3174844 0 0 1 1.803864,1.1012706 V 1.649658 H 33.637208 2.972367 Z M 31.247303,8.5867475 c -2.897962,0 -5.257196,2.3595585 -5.257196,5.2571945 0,2.898261 2.359155,5.254488 5.257196,5.254488 2.898023,0 5.254481,-2.356222 5.254481,-5.254488 0,-2.89772 -2.356538,-5.2571945 -5.254481,-5.2571945 z m 0,0.8052535 a 4.4493342,4.4493342 0 0 1 4.449227,4.451941 4.4493342,4.4493342 0 0 1 -4.449227,4.449234 4.4493342,4.4493342 0 0 1 -4.449235,-4.449234 4.4493342,4.4493342 0 0 1 4.449235,-4.451941 z"
     inkscape:connector-curvature="0" />
</svg>
