<?xml version="1.0" encoding="UTF-8" standalone="no"?>
<!-- Generator: Adobe Illustrator 19.0.0, SVG Export Plug-In . SVG Version: 6.00 Build 0)  -->

<svg
   xmlns:dc="http://purl.org/dc/elements/1.1/"
   xmlns:cc="http://creativecommons.org/ns#"
   xmlns:rdf="http://www.w3.org/1999/02/22-rdf-syntax-ns#"
   xmlns:svg="http://www.w3.org/2000/svg"
   xmlns="http://www.w3.org/2000/svg"
   xmlns:sodipodi="http://sodipodi.sourceforge.net/DTD/sodipodi-0.dtd"
   xmlns:inkscape="http://www.inkscape.org/namespaces/inkscape"
   version="1.1"
   id="Layer_1"
   x="0px"
   y="0px"
   viewBox="0 0 512 512"
   style="enable-background:new 0 0 512 512;"
   xml:space="preserve"
   sodipodi:docname="printing.svg"
   inkscape:version="0.92.3 (2405546, 2018-03-11)"><metadata
   id="metadata55"><rdf:RDF><cc:Work
       rdf:about=""><dc:format>image/svg+xml</dc:format><dc:type
         rdf:resource="http://purl.org/dc/dcmitype/StillImage" /></cc:Work></rdf:RDF></metadata><defs
   id="defs53" /><sodipodi:namedview
   pagecolor="#ffffff"
   bordercolor="#666666"
   borderopacity="1"
   objecttolerance="10"
   gridtolerance="10"
   guidetolerance="10"
   inkscape:pageopacity="0"
   inkscape:pageshadow="2"
   inkscape:window-width="1920"
   inkscape:window-height="1017"
   id="namedview51"
   showgrid="false"
   inkscape:zoom="0.4609375"
   inkscape:cx="-14.101695"
   inkscape:cy="256"
   inkscape:window-x="-8"
   inkscape:window-y="-8"
   inkscape:window-maximized="1"
   inkscape:current-layer="Layer_1" />
<g
   id="g6">
	<g
   id="g4">
		
	</g>
</g>
<g
   id="g12">
	<g
   id="g10">
		
	</g>
</g>
<g
   id="g18">
	<g
   id="g16">
		<path
   id="path14"
   d="M 472.178,133.907 H 417.875 V 35.132 c 0,-9.425 -7.641,-17.067 -17.067,-17.067 H 111.192 c -9.425,0 -17.067,7.641 -17.067,17.067 v 98.775 H 39.822 C 17.864,133.907 0,151.772 0,173.73 v 171.702 c 0,21.958 17.864,39.822 39.822,39.822 h 54.306 v 91.614 c 0,9.425 7.641,17.067 17.067,17.067 h 289.61 c 9.425,0 17.067,-7.641 17.067,-17.067 v -91.614 h 54.306 C 494.136,385.254 512,367.39 512,345.432 V 173.73 c 0,-21.957 -17.864,-39.823 -39.822,-39.823 z M 128.258,52.199 h 255.483 v 81.708 H 128.258 Z m 255.48,407.602 H 128.262 c 0,-3.335 0,-135.503 0,-139.628 h 255.477 c -10e-4,4.229 -10e-4,136.421 -10e-4,139.628 z m 17.07,-225.679 h -43.443 c -9.425,0 -17.067,-7.641 -17.067,-17.067 0,-9.426 7.641,-17.067 17.067,-17.067 h 43.443 c 9.425,0 17.067,7.641 17.067,17.067 0,9.426 -7.641,17.067 -17.067,17.067 z M 329.956,346.006 H 182.044 c -9.425,0 -17.067,7.641 -17.067,17.067 0,9.426 7.641,17.067 17.067,17.067 h 147.911 c 9.425,0 17.067,-7.641 17.067,-17.067 0,-9.426 -7.641,-17.067 -17.066,-17.067 z m 0,53.828 H 182.044 c -9.425,0 -17.067,7.641 -17.067,17.067 0,9.426 7.641,17.067 17.067,17.067 h 147.911 c 9.425,0 17.067,-7.641 17.067,-17.067 0,-9.426 -7.641,-17.067 -17.066,-17.067 z" />
	</g>
</g>
<g
   id="g20">
</g>
<g
   id="g22">
</g>
<g
   id="g24">
</g>
<g
   id="g26">
</g>
<g
   id="g28">
</g>
<g
   id="g30">
</g>
<g
   id="g32">
</g>
<g
   id="g34">
</g>
<g
   id="g36">
</g>
<g
   id="g38">
</g>
<g
   id="g40">
</g>
<g
   id="g42">
</g>
<g
   id="g44">
</g>
<g
   id="g46">
</g>
<g
   id="g48">
</g>
</svg>