<?xml version="1.0" encoding="UTF-8" standalone="no"?>
<!-- Generator: Adobe Illustrator 19.0.0, SVG Export Plug-In . SVG Version: 6.00 Build 0)  -->

<svg
   xmlns:dc="http://purl.org/dc/elements/1.1/"
   xmlns:cc="http://creativecommons.org/ns#"
   xmlns:rdf="http://www.w3.org/1999/02/22-rdf-syntax-ns#"
   xmlns:svg="http://www.w3.org/2000/svg"
   xmlns="http://www.w3.org/2000/svg"
   xmlns:sodipodi="http://sodipodi.sourceforge.net/DTD/sodipodi-0.dtd"
   xmlns:inkscape="http://www.inkscape.org/namespaces/inkscape"
   version="1.1"
   id="Layer_1"
   x="0px"
   y="0px"
   viewBox="0 0 512 512"
   style="enable-background:new 0 0 512 512;"
   xml:space="preserve"
   sodipodi:docname="printer.svg"
   inkscape:version="0.92.3 (2405546, 2018-03-11)"><metadata
   id="metadata79"><rdf:RDF><cc:Work
       rdf:about=""><dc:format>image/svg+xml</dc:format><dc:type
         rdf:resource="http://purl.org/dc/dcmitype/StillImage" /></cc:Work></rdf:RDF></metadata><defs
   id="defs77">
	

		
	
	

		
	
	

		
	</defs><sodipodi:namedview
   pagecolor="#ffffff"
   bordercolor="#666666"
   borderopacity="1"
   objecttolerance="10"
   gridtolerance="10"
   guidetolerance="10"
   inkscape:pageopacity="0"
   inkscape:pageshadow="2"
   inkscape:window-width="1920"
   inkscape:window-height="1017"
   id="namedview75"
   showgrid="false"
   inkscape:zoom="0.4609375"
   inkscape:cx="-14.101695"
   inkscape:cy="256"
   inkscape:window-x="-8"
   inkscape:window-y="-8"
   inkscape:window-maximized="1"
   inkscape:current-layer="Layer_1" />
<g
   id="g6">
	<g
   id="g4">
		<path
   d="M324.267,366.933H187.733c-5.12,0-8.533,3.413-8.533,8.533s3.413,8.533,8.533,8.533h136.533    c5.12,0,8.533-3.413,8.533-8.533S329.387,366.933,324.267,366.933z"
   id="path2" />
	</g>
</g>
<g
   id="g12">
	<g
   id="g10">
		<path
   d="M349.867,409.6H162.133c-5.12,0-8.533,3.413-8.533,8.533s3.413,8.533,8.533,8.533h187.733c5.12,0,8.533-3.413,8.533-8.533    S354.987,409.6,349.867,409.6z"
   id="path8" />
	</g>
</g>
<g
   id="g18">
	<g
   id="g16">
		<path
   d="M375.467,452.267H136.533c-5.12,0-8.533,3.413-8.533,8.533c0,5.12,3.413,8.533,8.533,8.533h238.933    c5.12,0,8.533-3.413,8.533-8.533C384,455.68,380.587,452.267,375.467,452.267z"
   id="path14" />
	</g>
</g>
<path
   d="m 0,307.2 v 93.867 c 0,14.507 11.093,25.6 25.6,25.6 h 58.027 l -12.8,64.853 c -0.853,5.12 0,10.24 3.413,14.507 3.413,4.267 7.68,5.973 12.8,5.973 h 337.92 c 5.12,0 10.24,-2.56 12.8,-5.973 3.413,-4.267 4.267,-9.387 3.413,-14.507 l -12.8,-64.853 H 486.4 c 14.507,0 25.6,-11.093 25.6,-25.6 V 307.2 Z m 87.04,187.733 15.36,-75.093 15.36,-78.507 h 276.48 l 15.36,78.507 15.36,75.093 z"
   id="path20"
   inkscape:connector-curvature="0" />
<path
   d="m 486.4,85.333 h -59.733 v 102.4 c 0,23.893 -18.773,42.667 -42.667,42.667 H 128 c -23.893,0 -42.667,-18.773 -42.667,-42.667 V 85.333 H 25.6 C 11.093,85.333 0,96.426 0,110.933 v 179.2 h 512 v -179.2 c 0,-14.506 -11.093,-25.6 -25.6,-25.6 z"
   id="path26"
   inkscape:connector-curvature="0" />
<g
   id="g36">
	<g
   id="g34">
		<rect
   x="290.133"
   y="145.067"
   width="85.333"
   height="34.133"
   id="rect32" />
	</g>
</g>
<path
   d="M 401.067,85.333 V 17.067 C 401.067,7.68 393.387,0 384,0 H 128 c -9.387,0 -17.067,7.68 -17.067,17.067 V 85.334 H 102.4 v 102.4 c 0,14.507 11.093,25.6 25.6,25.6 h 256 c 14.507,0 25.6,-11.093 25.6,-25.6 v -102.4 h -8.533 z M 128,17.067 H 384 V 85.334 H 128 Z m 264.533,170.666 c 0,5.12 -3.413,8.533 -8.533,8.533 H 281.6 c -5.12,0 -8.533,-3.413 -8.533,-8.533 v -51.2 c 0,-5.12 3.413,-8.533 8.533,-8.533 H 384 c 5.12,0 8.533,3.413 8.533,8.533 z"
   id="path38"
   inkscape:connector-curvature="0" />
<g
   id="g44">
</g>
<g
   id="g46">
</g>
<g
   id="g48">
</g>
<g
   id="g50">
</g>
<g
   id="g52">
</g>
<g
   id="g54">
</g>
<g
   id="g56">
</g>
<g
   id="g58">
</g>
<g
   id="g60">
</g>
<g
   id="g62">
</g>
<g
   id="g64">
</g>
<g
   id="g66">
</g>
<g
   id="g68">
</g>
<g
   id="g70">
</g>
<g
   id="g72">
</g>
</svg>