<?xml version="1.0" encoding="UTF-8" standalone="no"?>
<!-- Created with Inkscape (http://www.inkscape.org/) -->

<svg
   xmlns:dc="http://purl.org/dc/elements/1.1/"
   xmlns:cc="http://creativecommons.org/ns#"
   xmlns:rdf="http://www.w3.org/1999/02/22-rdf-syntax-ns#"
   xmlns:svg="http://www.w3.org/2000/svg"
   xmlns="http://www.w3.org/2000/svg"
   xmlns:sodipodi="http://sodipodi.sourceforge.net/DTD/sodipodi-0.dtd"
   xmlns:inkscape="http://www.inkscape.org/namespaces/inkscape"
   width="210mm"
   height="297mm"
   viewBox="0 0 210 297"
   version="1.1"
   id="svg3773"
   inkscape:version="0.92.3 (2405546, 2018-03-11)"
   sodipodi:docname="privelege.svg">
  <defs
     id="defs3767" />
  <sodipodi:namedview
     id="base"
     pagecolor="#ffffff"
     bordercolor="#666666"
     borderopacity="1.0"
     inkscape:pageopacity="0.0"
     inkscape:pageshadow="2"
     inkscape:zoom="0.061871843"
     inkscape:cx="-7880.698"
     inkscape:cy="651.24097"
     inkscape:document-units="mm"
     inkscape:current-layer="layer1"
     showgrid="false"
     inkscape:window-width="1920"
     inkscape:window-height="1017"
     inkscape:window-x="-8"
     inkscape:window-y="-8"
     inkscape:window-maximized="1" />
  <metadata
     id="metadata3770">
    <rdf:RDF>
      <cc:Work
         rdf:about="">
        <dc:format>image/svg+xml</dc:format>
        <dc:type
           rdf:resource="http://purl.org/dc/dcmitype/StillImage" />
        <dc:title></dc:title>
      </cc:Work>
    </rdf:RDF>
  </metadata>
  <g
     inkscape:label="Layer 1"
     inkscape:groupmode="layer"
     id="layer1">
    <path
       style="fill:#000000;stroke-width:0.26458332"
       d="m -30.901219,59.34918 a 98.273803,98.273803 0 0 0 -98.273601,98.2741 98.273803,98.273803 0 0 0 98.273601,98.27359 98.273803,98.273803 0 0 0 98.2736,-98.27359 98.273803,98.273803 0 0 0 -98.2736,-98.2741 z m -30.2798,36.20089 c 19.392,0 29.5362,14.37736 29.5362,28.57965 0,7.45929 -2.6385,14.42671 -7.4275,19.62103 -5.4038,5.86218 -13.0504,8.95951 -22.1087,8.95914 -19.3064,0 -29.408,-14.37632 -29.408,-28.58017 0,-7.45463 2.624,-14.42076 7.3897,-19.61586 5.3802,-5.86413 12.9937,-8.96379 22.0183,-8.96379 z m 81.0064,10.79883 c 2.9038,-7.8e-4 2.9814,2.1303 1.8087,3.44009 l -86.697,96.97186 c -1.1732,1.30865 -3.57,2.38022 -5.3274,2.38022 h -11.4179 c -1.7574,0 -2.5899,-1.83291 -1.4149,-3.14038 L 4.0134807,109.0092 c 1.1754,-1.30671 3.5746,-2.4022 5.3319,-2.43396 z m -81.0064,2.48976 c -10.8339,0 -15.6843,7.58935 -15.6843,15.10864 0,7.36868 4.9625,15.29933 15.8564,15.29933 4.7816,0 8.7563,-1.6112 11.4913,-4.65863 2.4515,-2.72842 3.8008,-6.43966 3.8008,-10.44846 0,-7.36945 -4.839,-15.30088 -15.4642,-15.30088 z m 60.99159969,54.78477 c 19.02300031,0 28.97560031,14.10499 28.97600031,28.03705 0,7.31564 -2.5875,14.15038 -7.2858,19.24637 -5.302,5.74991 -12.8013003,8.78965 -21.68970031,8.78965 -18.93889969,0 -28.84829969,-14.10398 -28.84829969,-28.03602 0,-7.31295 2.5755,-14.14779 7.2502,-19.24223 5.2783,-5.75223 12.7471997,-8.79482 21.59759969,-8.79482 z m 5e-4,12.69535 c -4.76649999,0 -8.72899999,1.61521 -11.45969969,4.67155 -2.4497,2.73887 -3.7977,6.46384 -3.7977,10.48928 0,7.39153 4.8291,15.35101 15.42799969,15.35101 4.76530001,0 8.72820001,-1.61548 11.45970031,-4.67104 2.4478,-2.73887 3.7962,-6.46461 3.7962,-10.48928 0,-7.39385 -4.8268,-15.35152 -15.42650031,-15.35152 z"
       id="path3791"
       inkscape:connector-curvature="0" />
    <path
       style="fill:#000000;stroke-width:0.26458332"
       d="m 205.98588,61.18558 a 98.273803,98.273803 0 0 0 -98.2736,98.2736 98.273803,98.273803 0 0 0 98.2736,98.27411 98.273803,98.273803 0 0 0 98.27412,-98.27411 98.273803,98.273803 0 0 0 -98.27412,-98.2736 z m -30.2798,36.2004 c 19.392,0 29.5362,14.37735 29.5362,28.57963 0,7.45929 -2.6386,14.42672 -7.4275,19.62102 -5.4038,5.86219 -13.0504,8.95993 -22.1087,8.95967 -19.3064,0 -29.408,-14.37683 -29.408,-28.58069 0,-7.45461 2.624,-14.42075 7.3897,-19.61584 5.3802,-5.86415 12.9937,-8.96379 22.0183,-8.96379 z m 81.00645,10.79934 c 2.9038,-8e-4 2.98138,2.13029 1.80866,3.44008 l -86.69701,96.97186 c -1.1731,1.30865 -3.5699,2.38021 -5.3273,2.38021 h -11.418 c -1.7573,0 -2.5899,-1.8329 -1.4148,-3.14036 l 87.2365,-96.99151 c 1.17549,-1.3067 3.57508,-2.40266 5.33249,-2.43446 z m -81.00645,2.48925 c -10.8339,0 -15.6843,7.58933 -15.6843,15.10863 0,7.36868 4.9625,15.29985 15.8564,15.29985 4.7816,0 8.7563,-1.61173 11.4913,-4.65915 2.4516,-2.72844 3.8008,-6.43914 3.8008,-10.44795 0,-7.36944 -4.839,-15.30138 -15.4642,-15.30138 z m 60.99165,54.78529 c 19.02301,0 28.97552,14.10446 28.976,28.03651 0,7.31565 -2.58755,14.1509 -7.28586,19.24688 -5.30199,5.74993 -12.80123,8.78914 -21.68962,8.78914 -18.93907,0 -28.84837,-14.10398 -28.84837,-28.03602 0,-7.31295 2.5755,-14.1478 7.2502,-19.24224 5.2784,-5.75223 12.7473,-8.79427 21.59765,-8.79427 z m 5.2e-4,12.69534 c -4.76649,0 -8.72857,1.6152 -11.45927,4.67153 -2.4498,2.73889 -3.7982,6.46385 -3.7982,10.4893 0,7.39151 4.8296,15.35047 15.42853,15.35047 4.76528,0 8.72773,-1.61494 11.45923,-4.67051 2.44769,-2.73886 3.79617,-6.46461 3.79617,-10.48927 0,-7.39386 -4.82677,-15.35152 -15.42646,-15.35152 z"
       id="path3791-6-5"
       inkscape:connector-curvature="0" />
    <g
       id="g3902"
       transform="matrix(1.1587051,0,0,1.1587051,1382.1586,-572.37559)">
      <ellipse
         ry="37.396259"
         rx="37.049416"
         cy="686.71582"
         cx="-965.64874"
         id="path3865-3"
         style="fill:#ffffff;stroke-width:0.11166158" />
      <circle
         r="32.67934"
         cy="686.71582"
         cx="-965.64874"
         id="path3863"
         style="fill:#000000;stroke-width:0.08696477" />
      <circle
         r="27.933737"
         cy="686.71582"
         cx="-965.64874"
         id="path3865"
         style="fill:#ffffff;stroke-width:0.08379693" />
      <path
         style="stroke-width:0.40034533"
         d="m -959.70399,686.71581 13.02475,-13.02483 c 0.31283,-0.31267 0.31283,-0.81952 0,-1.13217 l -4.81211,-4.81297 c -0.14985,-0.15009 -0.35395,-0.23459 -0.56604,-0.23459 -0.2122,0 -0.41598,0.0844 -0.56616,0.23459 l -13.02518,13.02524 -13.02519,-13.02524 c -0.30036,-0.30025 -0.83195,-0.30025 -1.1322,0 l -4.81221,4.81297 c -0.31261,0.31265 -0.31261,0.8195 0,1.13217 l 13.02486,13.02483 -13.02486,13.02485 c -0.31261,0.31265 -0.31261,0.8195 0,1.13217 l 4.81221,4.81254 c 0.14974,0.1501 0.35385,0.23461 0.56594,0.23461 0.21241,0 0.41597,-0.0844 0.56626,-0.23461 l 13.02519,-13.02483 13.02518,13.02524 c 0.14985,0.15011 0.35396,0.23459 0.56616,0.23459 0.21209,0 0.41586,-0.0844 0.56604,-0.23459 l 4.81211,-4.81256 c 0.31283,-0.31266 0.31283,-0.8195 0,-1.13217 z"
         id="path2-3"
         inkscape:connector-curvature="0" />
    </g>
  </g>
</svg>
