<?xml version="1.0" encoding="UTF-8" standalone="no"?>
<svg
   xmlns:dc="http://purl.org/dc/elements/1.1/"
   xmlns:cc="http://creativecommons.org/ns#"
   xmlns:rdf="http://www.w3.org/1999/02/22-rdf-syntax-ns#"
   xmlns:svg="http://www.w3.org/2000/svg"
   xmlns="http://www.w3.org/2000/svg"
   xmlns:sodipodi="http://sodipodi.sourceforge.net/DTD/sodipodi-0.dtd"
   xmlns:inkscape="http://www.inkscape.org/namespaces/inkscape"
   id="Layer_1"
   enable-background="new 0 0 512 512"
   height="512"
   viewBox="0 0 512 512"
   width="512"
   version="1.1"
   sodipodi:docname="processor.svg"
   inkscape:version="0.92.3 (2405546, 2018-03-11)">
  <metadata
     id="metadata13">
    <rdf:RDF>
      <cc:Work
         rdf:about="">
        <dc:format>image/svg+xml</dc:format>
        <dc:type
           rdf:resource="http://purl.org/dc/dcmitype/StillImage" />
      </cc:Work>
    </rdf:RDF>
  </metadata>
  <defs
     id="defs11" />
  <sodipodi:namedview
     pagecolor="#ffffff"
     bordercolor="#666666"
     borderopacity="1"
     objecttolerance="10"
     gridtolerance="10"
     guidetolerance="10"
     inkscape:pageopacity="0"
     inkscape:pageshadow="2"
     inkscape:window-width="2560"
     inkscape:window-height="1017"
     id="namedview9"
     showgrid="false"
     inkscape:zoom="0.4609375"
     inkscape:cx="-411.11864"
     inkscape:cy="256"
     inkscape:window-x="1912"
     inkscape:window-y="-8"
     inkscape:window-maximized="1"
     inkscape:current-layer="Layer_1" />
  <path
     id="path4"
     d="m 493.83051,201.49153 c 8.837,0 16,-7.164 16,-16 0,-8.836 -7.163,-16 -16,-16 h -24 v -32 h 24 c 8.837,0 16,-7.164 16,-16 0,-8.836 -7.163,-16 -16,-16 h -24 V 79.491525 c 0,-25.364 -20.636,-46 -46,-46 h -26 V 9.4915254 c 0,-8.836 -7.163,-16 -16,-16 -8.837,0 -16,7.164 -16,16 V 33.491525 h -32 V 9.4915254 c 0,-8.836 -7.163,-16 -16,-16 -8.837,0 -16,7.164 -16,16 V 33.491525 h -32 V 9.4915254 c 0,-8.836 -7.163,-16 -16,-16 -8.836,0 -16,7.164 -16,16 V 33.491525 h -32 V 9.4915254 c 0,-8.836 -7.164,-16 -16,-16 -8.836,0 -16,7.164 -16,16 V 33.491525 h -32 V 9.4915254 c 0,-8.836 -7.164,-16 -16,-16 -8.836,0 -16,7.164 -16,16 V 33.491525 H 83.830508 c -25.363999,0 -46,20.636 -46,46 V 105.49153 H 13.830509 c -8.8360005,0 -16.0000005,7.164 -16.0000005,16 0,8.836 7.164,16 16.0000005,16 h 23.999999 v 32 H 13.830509 c -8.8360005,0 -16.0000005,7.164 -16.0000005,16 0,8.836 7.164,16 16.0000005,16 h 23.999999 v 32 H 13.830509 c -8.8360005,0 -16.0000005,7.164 -16.0000005,16 0,8.836 7.164,16 16.0000005,16 h 23.999999 v 32 H 13.830509 c -8.8360005,0 -16.0000005,7.164 -16.0000005,16 0,8.836 7.164,16 16.0000005,16 h 23.999999 v 32 H 13.830509 c -8.8360005,0 -16.0000005,7.164 -16.0000005,16 0,8.836 7.164,16 16.0000005,16 h 23.999999 v 26 c 0,25.364 20.636,46 46,46 h 26.000002 v 24 c 0,8.836 7.164,16 16,16 8.836,0 16,-7.164 16,-16 v -24 h 32 v 24 c 0,8.836 7.164,16 16,16 8.836,0 16,-7.164 16,-16 v -24 h 32 v 24 c 0,8.836 7.164,16 16,16 8.837,0 16,-7.164 16,-16 v -24 h 32 v 24 c 0,8.836 7.163,16 16,16 8.837,0 16,-7.164 16,-16 v -24 h 32 v 24 c 0,8.836 7.163,16 16,16 8.837,0 16,-7.164 16,-16 v -24 h 26 c 25.364,0 46,-20.636 46,-46 v -26 h 24 c 8.837,0 16,-7.164 16,-16 0,-8.836 -7.163,-16 -16,-16 h -24 v -32 h 24 c 8.837,0 16,-7.164 16,-16 0,-8.836 -7.163,-16 -16,-16 h -24 v -32 h 24 c 8.837,0 16,-7.164 16,-16 0,-8.836 -7.163,-16 -16,-16 h -24 v -32 z m -80,162 c 0,25.364 -20.636,46 -46,46 h -228 c -25.364,0 -46.000002,-20.636 -46.000002,-46 v -228 c 0,-25.364 20.636002,-46.000005 46.000002,-46.000005 h 228 c 25.364,0 46,20.636005 46,46.000005 z m -46,-242 h -228 c -7.72,0 -14,6.28 -14,14 v 228 c 0,7.72 6.28,14 14,14 h 228 c 7.72,0 14,-6.28 14,-14 v -228 c 0,-7.72 -6.28,-14 -14,-14 z m -201.98,232 c -8.836,0 -16.005,-7.164 -16.005,-16 0,-8.836 7.158,-16 15.995,-16 h 0.01 c 8.836,0 16,7.164 16,16 0,8.836 -7.164,16 -16,16 z m 0,-176 c -8.836,0 -16.005,-7.164 -16.005,-16 0,-8.836 7.158,-16 15.995,-16 h 0.01 c 8.836,0 16,7.164 16,16 0,8.836 -7.164,16 -16,16 z m 176,176 c -8.836,0 -16.005,-7.164 -16.005,-16 0,-8.836 7.159,-16 15.995,-16 h 0.01 c 8.837,0 16,7.164 16,16 0,8.836 -7.164,16 -16,16 z m 0,-176 c -8.836,0 -16.005,-7.164 -16.005,-16 0,-8.836 7.159,-16 15.995,-16 h 0.01 c 8.837,0 16,7.164 16,16 0,8.836 -7.164,16 -16,16 z" />
</svg>
