<?xml version="1.0" encoding="iso-8859-1"?>
<!-- Generator: Adobe Illustrator 19.1.0, SVG Export Plug-In . SVG Version: 6.00 Build 0)  -->
<svg version="1.1" id="Capa_1" xmlns="http://www.w3.org/2000/svg" xmlns:xlink="http://www.w3.org/1999/xlink" x="0px" y="0px"
	 viewBox="0 0 491.86 491.86" style="enable-background:new 0 0 491.86 491.86;" xml:space="preserve">
<g>
	<g>
		<path d="m -3622.5799,-1829.2193 113.1018,-134.0835 -28.5911,-24.1401 -87.9471,104.2585 -47.3592,-43.5302 -25.3285,27.5686 z m -277.0164,-525.7069 c 0.887,2.0356 2.9568,3.3639 5.2537,3.3639 h 62.3042 v 136.0828 c 0,3.0048 2.5473,5.4436 5.6858,5.4436 h 90.9719 c 3.1385,0 5.6859,-2.4388 5.6859,-5.4436 v -136.0833 h 62.5429 c 2.2969,0 4.3666,-1.3283 5.2537,-3.3532 0.8758,-2.0357 0.3982,-4.3765 -1.2282,-5.9334 l -113.4304,-108.9538 c -1.0687,-1.0232 -2.5133,-1.6003 -4.0255,-1.6003 -1.5122,0 -2.9568,0.5771 -4.0255,1.5896 l -113.7603,108.9538 c -1.6262,1.5574 -2.1151,3.8977 -1.2282,5.9339 z m 295.5062,291.9006 c -85.2985,0 -154.6954,69.4042 -154.6954,154.6934 0,85.3077 69.3945,154.6955 154.6954,154.6955 85.301,0 154.6936,-69.3878 154.6936,-154.6955 0,-85.2916 -69.3949,-154.6934 -154.6936,-154.6934 z m 0,23.7323 a 130.96207,130.96207 0 0 1 130.9621,130.962 130.96207,130.96207 0 0 1 -130.9621,130.9622 130.96207,130.96207 0 0 1 -130.9619,-130.9622 130.96207,130.96207 0 0 1 130.9619,-130.962 z m -243.2455,-409.0374 c -42.0818,2.8474 -57.4209,10.7193 -75.8538,20.1773 -4.6728,2.406 -9.6503,4.9508 -15.4575,7.5495 -7.0955,2.8206 -10.5615,10.86 -7.7422,17.9556 2.8207,7.0953 10.8595,10.5614 17.955,7.742 0.363,-0.1437 0.7195,-0.3029 1.0682,-0.4778 h -0.083 c 6.3322,-2.765 11.6968,-5.5314 16.7845,-8.2964 8.9427,-4.5066 16.8101,-8.4906 28.1467,-11.5697 11.6132,-11.1381 23.4539,-22.0553 35.1818,-33.0805 z m 144.9554,10.2425 c 15.008,14.6807 29.888,29.5034 45.1544,43.891 0.2576,0.016 0.516,0.027 0.7746,0.029 7.6362,0.013 13.8371,-6.1648 13.8515,-13.8009 0.01,-5.9185 -3.7464,-11.1861 -9.3448,-13.1047 -5.365,-1.8523 -10.4523,-3.7334 -15.54,-5.5313 -11.4412,-4.4619 -23.0909,-8.2909 -34.8957,-11.4826 z m -221.2867,65.5787 c -51.2047,21.1436 -80.7894,52.3457 -90.2793,67.9648 -3.947,6.5225 -1.8678,15.0085 4.6458,18.9699 v 0 c 6.5201,3.9743 15.0287,1.9121 19.0029,-4.608 0.01,-0.013 0.015,-0.024 0.022,-0.038 6.7969,-11.2133 28.7127,-34.1927 66.5277,-52.0171 -4.8084,-8.894 -5.9682,-19.5575 -1.0852,-28.9224 0.3866,-0.4519 0.778,-0.8993 1.1664,-1.3497 z m 288.3194,26.4758 c -1.4183,4.4286 -3.7641,8.5508 -7.1148,12.0123 -4.3931,3.4602 -9.2191,5.833 -14.3072,7.4398 23.1012,13.5102 38.3625,27.422 43.7895,36.3612 3.9627,6.5289 12.4687,8.6082 18.9979,4.6456 6.5291,-3.9627 8.6082,-12.4683 4.6458,-18.9974 -7.0151,-11.5551 -22.8986,-26.8155 -46.0112,-41.4615 z m -241.8969,22.1583 c -89.0315,33.4751 -152.4017,119.3561 -152.5194,220.0638 0,7.636 6.1905,13.8263 13.8265,13.8263 7.6361,0 13.8271,-6.1903 13.8271,-13.8263 0.098,-91.7933 59.7587,-169.6289 142.4146,-196.9477 0.086,-7.6869 0.1336,-15.3702 0.069,-23.0452 -5.8571,0.1151 -11.7475,-0.063 -17.6181,-0.071 z m 175.7589,1.819 v 30.6194 c 45.3168,22.7852 69.2206,61.3709 89.8348,94.6558 18.5827,30.0036 34.6204,55.9138 61.5548,64.6517 7.237,2.4384 15.0792,-1.4517 17.5173,-8.6873 2.4383,-7.237 -1.4518,-15.0789 -8.6873,-17.5173 -0.095,-0.032 -0.1893,-0.062 -0.2853,-0.093 l -0.028,-0.028 c -17.2826,-5.5309 -30.8607,-27.6522 -46.5956,-52.9 -23.4826,-37.9553 -53.1172,-85.7991 -113.3103,-110.702 z m 127.8778,38.6059 c -2.4466,0.013 -4.9203,0.6763 -7.1566,2.0516 -6.5058,4.0015 -8.5371,12.519 -4.5357,19.0248 10.2934,16.5682 19.0859,34.0217 26.2709,52.1533 2.599,7.1797 10.5265,10.8935 17.7064,8.2945 6.7533,-2.4445 10.5112,-9.6539 8.646,-16.5903 -7.8449,-20.313 -17.5757,-39.8488 -29.0629,-58.3471 -2.6259,-4.2693 -7.1972,-6.6117 -11.8681,-6.5868 z m -286.4554,12.1684 c -85.6325,33.2833 -133.293,127.0002 -107.4559,217.0419 0.019,0.067 0.039,0.1364 0.058,0.2038 22.7034,78.8663 -25.9663,100.739 -41.4797,105.5506 -7.2848,2.2904 -11.3326,10.0531 -9.0423,17.3379 2.2904,7.2848 10.0537,11.3333 17.3385,9.0429 42.2817,-13.2177 83.3463,-57.6837 59.7576,-139.5924 -20.9408,-72.6845 14.7503,-148.2595 80.9992,-179.5597 -0.2569,-9.9992 -0.2625,-20.0107 -0.1758,-30.025 z m 158.5776,14.2994 v 24.1607 c 0.4377,3.1653 0.6656,6.465 0.6432,9.7961 23.6444,18.544 42.0652,44.2131 51.6098,75.0246 0.3267,1.0783 0.7918,2.1102 1.3828,3.0697 1.221,2.02 3.7464,6.0965 58.859,51.4071 a 185.94934,185.94934 0 0 1 56.4437,13.6058 c -0.7457,-2.6489 -2.2836,-5.1028 -4.5811,-6.9705 -32.2982,-26.2138 -79.5017,-65.1773 -86.4144,-71.6753 -13.9144,-42.6606 -42.2563,-76.7268 -77.943,-98.4182 z m -156.6195,46.686 c -46.4835,28.5258 -70.6977,84.9042 -56.4022,140.0276 27.9298,127.2029 7.0517,156.57 -50.2456,174.4891 -7.2848,2.2904 -11.3333,10.0537 -9.0428,17.3385 2.2904,7.2848 10.0537,11.3326 17.3385,9.0423 80.055,-24.8877 97.449,-77.207 69.1316,-206.8159 -11.6805,-43.6365 7.5258,-88.5224 44.6283,-110.9338 -6.414,-3.5719 -11.7052,-8.8756 -14.6539,-15.9953 -0.2773,-2.3828 -0.5266,-4.767 -0.7539,-7.1525 z m 148.5692,15.8745 c -2.247,2.8564 -4.9853,5.3578 -8.2817,7.3581 -6.9865,2.0792 -14.0636,3.3689 -21.1982,4.1425 17.4973,12.259 31.0822,30.3451 37.4908,52.4516 3.0782,10.4952 9.0008,23.173 33.1583,47.7954 a 185.94934,185.94934 0 0 1 30.7588,-8.4712 c -27.8891,-26.4567 -35.2044,-39.0062 -37.5352,-47.0664 -6.4565,-22.2954 -18.5982,-41.4061 -34.3928,-56.21 z m -84.2336,24.4332 c -7.3477,-0.01 -14.8221,1.163 -22.1712,3.6404 -33.9107,11.4303 -53.4925,46.8485 -45.1409,81.6456 12.5587,43.663 41.9651,85.0639 78.7269,123.8468 a 185.94934,185.94934 0 0 1 11.1735,-28.5419 c -29.8406,-33.0148 -53.1393,-67.5193 -63.3269,-102.9383 -6.3308,-22.0308 6.3971,-45.0208 28.4277,-51.3514 22.0307,-6.3309 45.0206,6.3968 51.3514,28.4276 5.4103,18.8269 18.5239,39.2454 36.4096,60.2972 a 185.94934,185.94934 0 0 1 23.2973,-15.3103 c -16.2692,-18.6862 -28.7937,-36.9749 -33.3261,-52.6463 -9.7178,-28.8312 -36.5952,-47.0353 -65.4213,-47.0694 z m -0.8542,52.578 c -1.3603,-0.01 -2.7443,0.1905 -4.1135,0.6099 -7.1228,2.1801 -11.2382,9.6109 -9.3068,16.8053 8.9319,31.0798 28.1349,59.9831 51.0951,85.8633 a 185.94934,185.94934 0 0 1 17.7746,-21.6535 c -19.2747,-22.2763 -35.0068,-46.5169 -42.2946,-71.842 -1.8157,-5.9326 -7.2603,-9.7568 -13.1548,-9.783 z m -221.3147,55.0782 c -7.636,0 -13.8271,6.1911 -13.8271,13.8273 2.2192,16.6744 7.3989,32.8192 15.2916,47.6738 2.3463,4.6772 7.1305,7.6307 12.362,7.6307 7.6361,0 13.8274,-6.1906 13.8262,-13.8266 0,-2.1503 -0.502,-4.2709 -1.465,-6.1934 -5.9005,-11.0606 -10.0706,-22.96 -12.3612,-35.2845 0,-7.6362 -6.1903,-13.8273 -13.8265,-13.8273 z m 166.1578,83.4587 c -1.5785,-0.01 -3.1847,0.2604 -4.7551,0.8288 -6.7535,2.4448 -10.5114,9.6546 -8.6461,16.5908 11.8358,36.9723 -11.4212,109.5321 -46.4013,120.8975 -7.2873,2.2814 -11.3457,10.0382 -9.0656,17.3256 2.2813,7.2872 10.0381,11.3461 17.3255,9.0661 0.096,-0.03 0.1901,-0.061 0.2848,-0.093 53.2025,-17.1441 78.8642,-109.56 64.209,-155.492 v 0 c -2.0304,-5.6091 -7.3135,-9.1027 -12.9512,-9.1233 z m 60.1969,83.4409 c -39.2349,9.1694 -45.6533,79.9784 -46.6106,94.9456 -0.4731,7.6205 5.3208,14.182 12.9413,14.6565 h 0.8857 c 7.3134,0.014 13.373,-5.6698 13.8266,-12.9688 1.5673,-25.6247 10.5441,-61.763 23.2637,-68.7576 a 185.94934,185.94934 0 0 1 -4.3067,-27.8757 z"/>
	</g>
	<g>
	</g>
	<g>
	</g>
	<g>
	</g>
	<g>
	</g>
	<g>
	</g>
	<g>
	</g>
	<g>
	</g>
	<g>
	</g>
	<g>
	</g>
	<g>
	</g>
	<g>
	</g>
	<g>
	</g>
	<g>
	</g>
	<g>
	</g>
	<g>
	</g>
</g>
<g>
</g>
<g>
</g>
<g>
</g>
<g>
</g>
<g>
</g>
<g>
</g>
<g>
</g>
<g>
</g>
<g>
</g>
<g>
</g>
<g>
</g>
<g>
</g>
<g>
</g>
<g>
</g>
<g>
</g>
</svg>
