<?xml version="1.0" encoding="UTF-8" standalone="no"?>
<svg
   xmlns:dc="http://purl.org/dc/elements/1.1/"
   xmlns:cc="http://creativecommons.org/ns#"
   xmlns:rdf="http://www.w3.org/1999/02/22-rdf-syntax-ns#"
   xmlns:svg="http://www.w3.org/2000/svg"
   xmlns="http://www.w3.org/2000/svg"
   xmlns:sodipodi="http://sodipodi.sourceforge.net/DTD/sodipodi-0.dtd"
   xmlns:inkscape="http://www.inkscape.org/namespaces/inkscape"
   height="512"
   viewBox="0 0 64 64"
   width="512"
   version="1.1"
   id="svg6"
   sodipodi:docname="refresh.svg"
   inkscape:version="0.92.3 (2405546, 2018-03-11)">
  <metadata
     id="metadata12">
    <rdf:RDF>
      <cc:Work
         rdf:about="">
        <dc:format>image/svg+xml</dc:format>
        <dc:type
           rdf:resource="http://purl.org/dc/dcmitype/StillImage" />
      </cc:Work>
    </rdf:RDF>
  </metadata>
  <defs
     id="defs10" />
  <sodipodi:namedview
     pagecolor="#ffffff"
     bordercolor="#666666"
     borderopacity="1"
     objecttolerance="10"
     gridtolerance="10"
     guidetolerance="10"
     inkscape:pageopacity="0"
     inkscape:pageshadow="2"
     inkscape:window-width="1920"
     inkscape:window-height="1017"
     id="namedview8"
     showgrid="false"
     inkscape:zoom="0.4609375"
     inkscape:cx="-14.101695"
     inkscape:cy="256"
     inkscape:window-x="-8"
     inkscape:window-y="-8"
     inkscape:window-maximized="1"
     inkscape:current-layer="svg6" />
  <path
     id="path4"
     d="M 39.642,14.621 43.26,7.464 A 26.992,26.992 0 0 0 7.719,43.79 0.992,0.992 0 0 1 7.756,44.58 1,1 0 0 1 7.208,45.15 l -1.568,0.659 10.63,4.879 1.518,-11.334 -1.9,0.783 a 1,1 0 0 1 -1.3,-0.523 18.987,18.987 0 0 1 25.054,-24.993 z m 6.57,10.025 1.9,-0.783 a 1,1 0 0 1 1.3,0.523 18.987,18.987 0 0 1 -25.054,24.993 L 20.74,56.536 A 26.992,26.992 0 0 0 56.281,20.21 0.992,0.992 0 0 1 56.244,19.42 1,1 0 0 1 56.792,18.85 L 58.36,18.191 47.73,13.312 Z" />
</svg>
