<?xml version="1.0" encoding="UTF-8" standalone="no"?>
<!-- Generator: Adobe Illustrator 16.0.0, SVG Export Plug-In . SVG Version: 6.00 Build 0)  -->

<svg
   xmlns:dc="http://purl.org/dc/elements/1.1/"
   xmlns:cc="http://creativecommons.org/ns#"
   xmlns:rdf="http://www.w3.org/1999/02/22-rdf-syntax-ns#"
   xmlns:svg="http://www.w3.org/2000/svg"
   xmlns="http://www.w3.org/2000/svg"
   xmlns:sodipodi="http://sodipodi.sourceforge.net/DTD/sodipodi-0.dtd"
   xmlns:inkscape="http://www.inkscape.org/namespaces/inkscape"
   version="1.1"
   id="Capa_1"
   x="0px"
   y="0px"
   width="102.455px"
   height="102.455px"
   viewBox="0 0 102.455 102.455"
   style="enable-background:new 0 0 102.455 102.455;"
   xml:space="preserve"
   sodipodi:docname="reload-symbol.svg"
   inkscape:version="0.92.3 (2405546, 2018-03-11)"><metadata
   id="metadata45"><rdf:RDF><cc:Work
       rdf:about=""><dc:format>image/svg+xml</dc:format><dc:type
         rdf:resource="http://purl.org/dc/dcmitype/StillImage" /></cc:Work></rdf:RDF></metadata><defs
   id="defs43">
	

		
		
	</defs><sodipodi:namedview
   pagecolor="#ffffff"
   bordercolor="#666666"
   borderopacity="1"
   objecttolerance="10"
   gridtolerance="10"
   guidetolerance="10"
   inkscape:pageopacity="0"
   inkscape:pageshadow="2"
   inkscape:window-width="1920"
   inkscape:window-height="1017"
   id="namedview41"
   showgrid="false"
   inkscape:zoom="2.3034503"
   inkscape:cx="-2.8218539"
   inkscape:cy="51.227501"
   inkscape:window-x="-8"
   inkscape:window-y="-8"
   inkscape:window-maximized="1"
   inkscape:current-layer="Capa_1" />
<path
   id="path4"
   d="M 54.174,101.861 40.477,88.166 c -0.792,-0.79 -0.792,-2.074 0,-2.864 L 54.174,71.607 c 0.791,-0.794 2.074,-0.794 2.868,0 l 0.191,0.198 0.007,10.082 c 16.536,-1.154 29.65,-14.969 29.65,-31.803 0,-11.82 -6.491,-22.614 -16.939,-28.175 -2.635,-1.4 -3.635,-4.675 -2.234,-7.31 1.406,-2.635 4.678,-3.634 7.312,-2.231 13.979,7.44 22.669,21.892 22.669,37.716 0,22.794 -17.953,41.469 -40.457,42.636 v 8.942 l -0.198,0.198 c -0.795,0.792 -2.078,0.792 -2.869,0.001 z m 7.803,-84.705 -13.7,13.699 c -0.789,0.79 -2.074,0.79 -2.866,0 L 45.214,30.653 V 20.568 c -16.543,1.156 -29.65,14.975 -29.65,31.806 0,11.82 6.487,22.617 16.937,28.175 2.631,1.402 3.631,4.671 2.233,7.31 -1.403,2.635 -4.671,3.634 -7.306,2.231 C 13.445,82.65 4.758,68.201 4.758,52.374 4.758,29.582 22.711,10.904 45.215,9.733 V 0.792 l 0.197,-0.199 c 0.792,-0.79 2.077,-0.79 2.866,0 l 13.699,13.696 c 0.794,0.794 0.794,2.08 0,2.867 z" />
<g
   id="g10">
</g>
<g
   id="g12">
</g>
<g
   id="g14">
</g>
<g
   id="g16">
</g>
<g
   id="g18">
</g>
<g
   id="g20">
</g>
<g
   id="g22">
</g>
<g
   id="g24">
</g>
<g
   id="g26">
</g>
<g
   id="g28">
</g>
<g
   id="g30">
</g>
<g
   id="g32">
</g>
<g
   id="g34">
</g>
<g
   id="g36">
</g>
<g
   id="g38">
</g>
</svg>