<?xml version="1.0" encoding="UTF-8" standalone="no"?>
<!-- Generator: Adobe Illustrator 18.1.1, SVG Export Plug-In . SVG Version: 6.00 Build 0)  -->

<svg
   xmlns:dc="http://purl.org/dc/elements/1.1/"
   xmlns:cc="http://creativecommons.org/ns#"
   xmlns:rdf="http://www.w3.org/1999/02/22-rdf-syntax-ns#"
   xmlns:svg="http://www.w3.org/2000/svg"
   xmlns="http://www.w3.org/2000/svg"
   xmlns:sodipodi="http://sodipodi.sourceforge.net/DTD/sodipodi-0.dtd"
   xmlns:inkscape="http://www.inkscape.org/namespaces/inkscape"
   version="1.1"
   id="Capa_1"
   x="0px"
   y="0px"
   viewBox="0 0 28.265 28.265"
   style="enable-background:new 0 0 28.265 28.265;"
   xml:space="preserve"
   sodipodi:docname="rotate.svg"
   inkscape:version="0.92.3 (2405546, 2018-03-11)"><metadata
   id="metadata71"><rdf:RDF><cc:Work
       rdf:about=""><dc:format>image/svg+xml</dc:format><dc:type
         rdf:resource="http://purl.org/dc/dcmitype/StillImage" /></cc:Work></rdf:RDF></metadata><defs
   id="defs69">
	
	
	
	
	
	
	
	
	
	
	
	
	
	
	
	

	
	
	
	
	
	
	
	
	
	
	
	
	
	
	</defs><sodipodi:namedview
   pagecolor="#ffffff"
   bordercolor="#666666"
   borderopacity="1"
   objecttolerance="10"
   gridtolerance="10"
   guidetolerance="10"
   inkscape:pageopacity="0"
   inkscape:pageshadow="2"
   inkscape:window-width="1920"
   inkscape:window-height="1017"
   id="namedview67"
   showgrid="false"
   inkscape:zoom="8.3495491"
   inkscape:cx="-0.65871821"
   inkscape:cy="14.1325"
   inkscape:window-x="-8"
   inkscape:window-y="-8"
   inkscape:window-maximized="1"
   inkscape:current-layer="Capa_1" />
<path
   inkscape:connector-curvature="0"
   id="path2"
   d="m 13.534165,28.504534 c -7.0609997,0 -12.80499973,-5.75 -12.80499973,-12.809 0,-7.0600001 5.74400003,-12.8070001 12.80499973,-12.8070001 0.469,0 0.943,0.027 1.414,0.08 V 0.89853389 c 0,-0.266 0.164,-0.508 0.406,-0.611 0.252,-0.098 0.531,-0.043 0.723,0.148 l 4.537,4.54700001 c 0.258,0.258 0.258,0.67 0,0.932 l -4.535,4.5570001 c -0.193,0.188 -0.473,0.246 -0.725,0.143 -0.242,-0.104 -0.406,-0.344 -0.406,-0.609 V 7.7095339 c -0.469,-0.086 -0.941,-0.125 -1.414,-0.125 -4.4729997,0 -8.1129997,3.6390001 -8.1129997,8.1110001 0,4.471 3.641,8.113 8.1129997,8.113 4.472,0 8.111,-3.643 8.111,-8.113 0,-0.363 0.295,-0.66 0.662,-0.66 h 3.369 c 0.365,0 0.662,0.297 0.662,0.66 0,7.059 -5.748,12.809 -12.804,12.809 z" />
<g
   id="g36">
</g>
<g
   id="g38">
</g>
<g
   id="g40">
</g>
<g
   id="g42">
</g>
<g
   id="g44">
</g>
<g
   id="g46">
</g>
<g
   id="g48">
</g>
<g
   id="g50">
</g>
<g
   id="g52">
</g>
<g
   id="g54">
</g>
<g
   id="g56">
</g>
<g
   id="g58">
</g>
<g
   id="g60">
</g>
<g
   id="g62">
</g>
<g
   id="g64">
</g>
</svg>