<?xml version="1.0" encoding="UTF-8" standalone="no"?>
<!-- Created with Inkscape (http://www.inkscape.org/) -->

<svg
   xmlns:dc="http://purl.org/dc/elements/1.1/"
   xmlns:cc="http://creativecommons.org/ns#"
   xmlns:rdf="http://www.w3.org/1999/02/22-rdf-syntax-ns#"
   xmlns:svg="http://www.w3.org/2000/svg"
   xmlns="http://www.w3.org/2000/svg"
   xmlns:sodipodi="http://sodipodi.sourceforge.net/DTD/sodipodi-0.dtd"
   xmlns:inkscape="http://www.inkscape.org/namespaces/inkscape"
   width="210mm"
   height="297mm"
   viewBox="0 0 210 297"
   version="1.1"
   id="svg1678"
   inkscape:version="0.92.3 (2405546, 2018-03-11)"
   sodipodi:docname="SampleMRZ_Final.svg">
  <defs
     id="defs1672" />
  <sodipodi:namedview
     id="base"
     pagecolor="#ffffff"
     bordercolor="#666666"
     borderopacity="1.0"
     inkscape:pageopacity="0.0"
     inkscape:pageshadow="2"
     inkscape:zoom="0.35"
     inkscape:cx="-87.142857"
     inkscape:cy="560"
     inkscape:document-units="mm"
     inkscape:current-layer="layer1"
     showgrid="false"
     inkscape:window-width="1920"
     inkscape:window-height="1017"
     inkscape:window-x="-8"
     inkscape:window-y="-8"
     inkscape:window-maximized="1" />
  <metadata
     id="metadata1675">
    <rdf:RDF>
      <cc:Work
         rdf:about="">
        <dc:format>image/svg+xml</dc:format>
        <dc:type
           rdf:resource="http://purl.org/dc/dcmitype/StillImage" />
        <dc:title></dc:title>
      </cc:Work>
    </rdf:RDF>
  </metadata>
  <g
     inkscape:label="Layer 1"
     inkscape:groupmode="layer"
     id="layer1">
    <path
       inkscape:connector-curvature="0"
       id="path1569"
       style="font-style:normal;font-variant:normal;font-weight:normal;font-stretch:normal;font-size:medium;line-height:1.25;font-family:'OCR-B 10 BT';-inkscape-font-specification:'OCR-B 10 BT';letter-spacing:0px;word-spacing:0px;fill:#000000;fill-opacity:1;stroke:none;stroke-width:0.26458332"
       d="m 190.50664,34.401411 -4.40284,-2.955893 v -0.30489 l 4.40284,-2.950726 v 1.100709 l -3.11092,1.999877 3.11092,1.99988 z m -6.36653,0 -4.40284,-2.955893 v -0.30489 l 4.40284,-2.950726 v 1.100709 l -3.11093,1.999877 3.11093,1.99988 z m -6.36655,0 -4.40284,-2.955893 v -0.30489 l 4.40284,-2.950726 v 1.100709 l -3.11092,1.999877 3.11092,1.99988 z m -6.36653,0 -4.40284,-2.955893 v -0.30489 l 4.40284,-2.950726 v 1.100709 l -3.11093,1.999877 3.11093,1.99988 z M 162.39466,31.512698 160.679,28.48446 h 1.05937 l 1.19373,2.191081 1.21956,-2.191081 h 0.97152 l -1.64848,2.976563 1.74666,3.193602 h -1.04903 l -1.25057,-2.361612 -1.2454,2.361612 h -1.00769 z m -6.36653,0 -1.71566,-3.028238 h 1.05937 l 1.19372,2.191081 1.21957,-2.191081 h 0.97152 l -1.64848,2.976563 1.74666,3.193602 h -1.04903 l -1.25057,-2.361612 -1.2454,2.361612 h -1.00769 z m -6.36655,0 -1.71565,-3.028238 h 1.05936 l 1.19373,2.191081 1.21956,-2.191081 h 0.97152 l -1.64848,2.976563 1.74666,3.193602 h -1.04903 l -1.25057,-2.361612 -1.2454,2.361612 h -1.00769 z m -6.36653,0 -1.71566,-3.028238 h 1.05937 l 1.19373,2.191081 1.21956,-2.191081 h 0.97152 l -1.64848,2.976563 1.74666,3.193602 h -1.04903 l -1.25057,-2.361612 -1.2454,2.361612 h -1.00769 z m -6.36653,0 -1.71566,-3.028238 h 1.05937 l 1.19373,2.191081 1.21956,-2.191081 h 0.97151 l -1.64847,2.976563 1.74666,3.193602 h -1.04903 l -1.25057,-2.361612 -1.2454,2.361612 h -1.00769 z m -3.72071,2.888713 -4.40284,-2.955893 v -0.30489 l 4.40284,-2.950726 v 1.100709 l -3.11093,1.999877 3.11093,1.99988 z m -9.01237,-2.888713 -1.71566,-3.028238 h 1.05937 l 1.19373,2.191081 1.21956,-2.191081 h 0.97152 l -1.64848,2.976563 1.74666,3.193602 h -1.04903 l -1.25057,-2.361612 -1.2454,2.361612 h -1.00769 z m -6.36654,0 -1.71565,-3.028238 h 1.05936 l 1.19373,2.191081 1.21956,-2.191081 h 0.97152 l -1.64848,2.976563 1.74666,3.193602 h -1.04903 l -1.25057,-2.361612 -1.2454,2.361612 h -1.00769 z m -6.36653,0 -1.71566,-3.028238 h 1.05937 l 1.19373,2.191081 1.21956,-2.191081 h 0.97152 l -1.64848,2.976563 1.74666,3.193602 h -1.04903 l -1.25057,-2.361612 -1.2454,2.361612 h -1.00769 z m -6.36654,0 -1.71565,-3.028238 h 1.05936 l 1.19373,2.191081 1.21956,-2.191081 h 0.97152 l -1.64848,2.976563 1.74666,3.193602 h -1.04903 l -1.25057,-2.361612 -1.2454,2.361612 h -1.00769 z m -6.366537,0 -1.715649,-3.028238 h 1.05936 l 1.193729,2.191081 1.219557,-2.191081 h 0.97152 l -1.648475,2.976563 1.746655,3.193602 h -1.04903 l -1.250567,-2.361612 -1.245399,2.361612 h -1.007689 z m -6.366529,0 -1.715661,-3.028238 h 1.05937 l 1.193731,2.191081 1.21956,-2.191081 h 0.971521 l -1.648481,2.976563 1.74666,3.193602 h -1.04903 l -1.250569,-2.361612 -1.245402,2.361612 h -1.00769 z m -6.366539,0 -1.715661,-3.028238 h 1.05937 l 1.193729,2.191081 1.219562,-2.191081 h 0.971518 l -1.648478,2.976563 1.74666,3.193602 h -1.049031 l -1.250571,-2.361612 -1.245399,2.361612 h -1.00769 z m -6.366531,0 -1.715659,-3.028238 h 1.059368 l 1.193731,2.191081 1.21956,-2.191081 h 0.971521 l -1.648481,2.976563 1.74666,3.193602 h -1.049031 l -1.250569,-2.361612 -1.245401,2.361612 h -1.00769 z m -3.7207,2.888713 -4.402839,-2.955893 v -0.30489 l 4.402839,-2.950726 v 1.100709 l -3.110929,1.999877 3.110929,1.99988 z M 66.896613,31.512698 65.180965,28.48446 h 1.05936 l 1.193728,2.191081 1.21956,-2.191081 h 0.971521 l -1.648481,2.976563 1.74666,3.193602 h -1.049031 l -1.250569,-2.361612 -1.245399,2.361612 h -1.007689 z m -6.366528,0 -1.715663,-3.028238 h 1.059372 l 1.19372,2.191081 1.219571,-2.191081 h 0.97151 l -1.648471,2.976563 1.74666,3.193602 h -1.04903 l -1.250569,-2.361612 -1.245402,2.361612 h -1.007701 z m -6.366543,0 -1.715659,-3.028238 h 1.05937 l 1.193729,2.191081 1.21956,-2.191081 h 0.971521 l -1.648481,2.976563 1.74666,3.193602 h -1.049028 l -1.250572,-2.361612 -1.245399,2.361612 h -1.007689 z m -6.366529,0 -1.715661,-3.028238 h 1.05937 l 1.193721,2.191081 1.21957,-2.191081 h 0.971511 l -1.648481,2.976563 1.74667,3.193602 h -1.04903 l -1.250569,-2.361612 -1.245413,2.361612 h -1.007689 z m -6.366541,0 -1.715659,-3.028238 h 1.05937 l 1.193729,2.191081 1.21956,-2.191081 h 0.971521 l -1.648482,2.976563 1.74666,3.193602 h -1.049027 l -1.250572,-2.361612 -1.245399,2.361612 h -1.00769 z m -3.7207,2.888713 -4.402839,-2.955893 v -0.30489 l 4.402839,-2.950726 v 1.100709 l -3.110918,1.999877 3.110918,1.99988 z m -6.366539,0 -4.40283,-2.955893 v -0.30489 l 4.40283,-2.950726 v 1.100709 l -3.110921,1.999877 3.110921,1.99988 z m -9.01237,-2.888713 -1.71565,-3.028238 h 1.05936 l 1.19373,2.191081 1.21956,-2.191081 h 0.97152 l -1.64848,2.976563 1.74666,3.193602 h -1.04903 l -1.25057,-2.361612 -1.2454,2.361612 h -1.00769 z m -6.36653,0 -1.71566,-3.028238 h 1.05936 l 1.19373,2.191081 1.21956,-2.191081 h 0.97152 l -1.64848,2.976563 1.74667,3.193602 h -1.04904 l -1.25056,-2.361612 -1.24541,2.361612 h -1.00769 z m -6.3665402,0 -1.71566,-3.028238 h 1.05937 l 1.1937202,2.191081 1.21957,-2.191081 h 0.97151 l -1.64847,2.976563 1.74666,3.193602 h -1.04903 l -1.25057,-2.361612 -1.2454002,2.361612 h -1.00769 z m -6.36654,0 -1.71565,-3.028238 h 1.05936 l 1.19373,2.191081 1.21956,-2.191081 h 0.97152 l -1.64848,2.976563 1.74666,3.193602 h -1.04903 l -1.25057,-2.361612 -1.2454,2.361612 h -1.00769 z M 186.7911,14.790205 h 3.32279 v 0.795817 h -2.49597 l -0.0724,1.374593 q 0.0775,-0.0052 0.17053,-0.0052 0.093,-0.0052 0.28423,-0.0052 1.01802,0 1.66398,0.594279 0.65112,0.594278 0.65112,1.539957 0,1.126546 -0.93017,1.772502 -0.93018,0.640787 -2.57349,0.640787 h -0.25322 v -0.821655 q 0.062,0.0052 0.13436,0.01034 0.0724,0 0.21704,0 1.16789,0 1.80868,-0.434082 0.64595,-0.434083 0.64595,-1.219564 0,-0.599447 -0.44441,-0.945679 -0.44442,-0.346232 -1.2299,-0.346232 -0.19637,0 -0.47543,0.02584 -0.27388,0.02067 -0.63562,0.06718 z m -2.65099,6.382039 -4.40284,-2.955892 v -0.304891 l 4.40284,-2.950724 v 1.100708 l -3.11093,1.999878 3.11093,1.999878 z m -6.36655,0 -4.40284,-2.955892 v -0.304891 l 4.40284,-2.950724 v 1.100708 l -3.11092,1.999878 3.11092,1.999878 z m -6.36653,0 -4.40284,-2.955892 v -0.304891 l 4.40284,-2.950724 v 1.100708 l -3.11093,1.999878 3.11093,1.999878 z m -6.36653,0 -4.40284,-2.955892 v -0.304891 l 4.40284,-2.950724 v 1.100708 l -3.11093,1.999878 3.11093,1.999878 z m -6.36654,0 -4.40283,-2.955892 v -0.304891 l 4.40283,-2.950724 v 1.100708 l -3.11092,1.999878 3.11092,1.999878 z m -6.36654,0 -4.40284,-2.955892 v -0.304891 l 4.40284,-2.950724 v 1.100708 l -3.11092,1.999878 3.11092,1.999878 z m -6.36653,0 -4.40284,-2.955892 v -0.304891 l 4.40284,-2.950724 v 1.100708 l -3.11093,1.999878 3.11093,1.999878 z m -6.36654,0 -4.40283,-2.955892 v -0.304891 l 4.40283,-2.950724 v 1.100708 l -3.11092,1.999878 3.11092,1.999878 z m -6.36654,0 -4.40284,-2.955892 v -0.304891 l 4.40284,-2.950724 v 1.100708 l -3.11093,1.999878 3.11093,1.999878 z m -6.36654,0 -4.40283,-2.955892 v -0.304891 l 4.40283,-2.950724 v 1.100708 l -3.11092,1.999878 3.11092,1.999878 z m -6.36653,0 -4.40284,-2.955892 v -0.304891 l 4.40284,-2.950724 v 1.100708 l -3.11093,1.999878 3.11093,1.999878 z m -8.88835,-2.532145 -1.83968,-3.384806 h 1.04903 l 1.23507,2.371948 1.21957,-2.371948 h 0.96118 l -1.74666,3.291788 v 2.878377 h -0.87851 z m -6.07715,-0.506429 h 2.21176 v 3.028239 q -0.57878,0.19637 -0.98702,0.279052 -0.40825,0.08785 -0.75965,0.08785 -1.15238,0 -1.79834,-0.842325 -0.64595,-0.847494 -0.64595,-2.371949 0,-1.472778 0.66146,-2.299601 0.66145,-0.83199 1.81384,-0.83199 0.69246,0 1.14721,0.335896 0.45476,0.33073 0.56845,0.919841 h -0.91984 q -0.13436,-0.232544 -0.3359,-0.356567 -0.19637,-0.129192 -0.43925,-0.129192 -0.76481,0 -1.15755,0.594279 -0.38758,0.589112 -0.38758,1.756999 0,1.193726 0.37724,1.803508 0.38241,0.609781 1.12655,0.609781 0.18086,0 0.39274,-0.04651 0.21187,-0.05168 0.46509,-0.15503 V 18.93982 h -1.33326 z m -7.989175,-2.826701 h 3.663855 v 0.764811 h -2.785356 v 1.71049 h 2.449466 v 0.806152 h -2.449466 v 1.968872 h 2.878376 v 0.816488 h -3.756875 z m -4.599191,5.400187 q 0.43408,0 0.645951,-0.05168 0.211878,-0.05684 0.31006,-0.180868 0.16537,-0.206706 0.242879,-0.790649 0.0827,-0.589112 0.0827,-1.570964 0,-0.935343 -0.0723,-1.514119 -0.0672,-0.578776 -0.211881,-0.847494 -0.0827,-0.160197 -0.29972,-0.227376 -0.21704,-0.06718 -0.697629,-0.06718 -0.47543,0 -0.692471,0.06718 -0.21704,0.06718 -0.29972,0.227376 -0.14469,0.279053 -0.21704,0.857829 -0.0672,0.573609 -0.0672,1.503784 0,0.806153 0.0568,1.364258 0.0568,0.558106 0.175702,0.826823 0.093,0.232544 0.289388,0.320394 0.201541,0.08268 0.754481,0.08268 z m 2.237589,-2.594157 q 0,1.111044 -0.149868,1.829346 -0.14986,0.718302 -0.45475,1.111043 -0.186031,0.237712 -0.583941,0.3514 -0.397909,0.113688 -1.04903,0.113688 -0.656291,0 -1.049031,-0.113688 -0.38758,-0.118856 -0.589118,-0.37207 -0.294551,-0.372071 -0.444411,-1.111044 -0.14987,-0.738973 -0.14987,-1.808675 0,-1.074869 0.14987,-1.81901 0.15503,-0.749308 0.444411,-1.121379 0.201538,-0.253214 0.589118,-0.37207 0.39274,-0.118856 1.049031,-0.118856 0.573611,0 0.961181,0.09819 0.387569,0.09302 0.583938,0.284221 0.341071,0.320394 0.516771,1.09554 0.175699,0.775147 0.175699,1.953369 z m -8.604128,2.594157 q 0.434078,0 0.645948,-0.05168 0.211881,-0.05684 0.31006,-0.180868 0.16537,-0.206706 0.242882,-0.790649 0.0827,-0.589112 0.0827,-1.570964 0,-0.935343 -0.0723,-1.514119 -0.0672,-0.578776 -0.211878,-0.847494 -0.0827,-0.160197 -0.29972,-0.227376 -0.21704,-0.06718 -0.697632,-0.06718 -0.47543,0 -0.69247,0.06718 -0.217038,0.06718 -0.29972,0.227376 -0.14469,0.279053 -0.217038,0.857829 -0.0672,0.573609 -0.0672,1.503784 0,0.806153 0.0568,1.364258 0.0569,0.558106 0.175699,0.826823 0.093,0.232544 0.289391,0.320394 0.201541,0.08268 0.754481,0.08268 z m 2.237589,-2.594157 q 0,1.111044 -0.14986,1.829346 -0.149871,0.718302 -0.454761,1.111043 -0.186028,0.237712 -0.583938,0.3514 -0.397912,0.113688 -1.04903,0.113688 -0.656291,0 -1.049031,-0.113688 -0.38758,-0.118856 -0.589121,-0.37207 -0.29455,-0.372071 -0.44441,-1.111044 -0.14986,-0.738973 -0.14986,-1.808675 0,-1.074869 0.14986,-1.81901 0.15503,-0.749308 0.44441,-1.121379 0.201541,-0.253214 0.589121,-0.37207 0.39274,-0.118856 1.049031,-0.118856 0.573608,0 0.961178,0.09819 0.387572,0.09302 0.583941,0.284221 0.341069,0.320394 0.516771,1.09554 0.175699,0.775147 0.175699,1.953369 z m -8.604121,2.594157 q 0.434081,0 0.645952,-0.05168 0.211878,-0.05684 0.310059,-0.180868 0.16536,-0.206706 0.24288,-0.790649 0.0827,-0.589112 0.0827,-1.570964 0,-0.935343 -0.0724,-1.514119 -0.0672,-0.578776 -0.21187,-0.847494 -0.0827,-0.160197 -0.29972,-0.227376 -0.217041,-0.06718 -0.69763,-0.06718 -0.475429,0 -0.69247,0.06718 -0.21704,0.06718 -0.29972,0.227376 -0.1447,0.279053 -0.21704,0.857829 -0.0672,0.573609 -0.0672,1.503784 0,0.806153 0.0568,1.364258 0.0568,0.558106 0.175702,0.826823 0.093,0.232544 0.289388,0.320394 0.201541,0.08268 0.75448,0.08268 z m 2.23759,-2.594157 q 0,1.111044 -0.149868,1.829346 -0.14986,0.718302 -0.45475,1.111043 -0.186031,0.237712 -0.583941,0.3514 -0.39791,0.113688 -1.049031,0.113688 -0.656288,0 -1.049038,-0.113688 -0.387572,-0.118856 -0.589111,-0.37207 -0.29455,-0.372071 -0.44441,-1.111044 -0.14987,-0.738973 -0.14987,-1.808675 0,-1.074869 0.14987,-1.81901 0.15503,-0.749308 0.44441,-1.121379 0.201539,-0.253214 0.589111,-0.37207 0.39275,-0.118856 1.049038,-0.118856 0.573601,0 0.961181,0.09819 0.38757,0.09302 0.583941,0.284221 0.341069,0.320394 0.516768,1.09554 0.1757,0.775147 0.1757,1.953369 z m -8.604129,2.594157 q 0.434081,0 0.645949,-0.05168 0.211881,-0.05684 0.31006,-0.180868 0.16537,-0.206706 0.242882,-0.790649 0.0827,-0.589112 0.0827,-1.570964 0,-0.935343 -0.0723,-1.514119 -0.0672,-0.578776 -0.211878,-0.847494 -0.0827,-0.160197 -0.29972,-0.227376 -0.217041,-0.06718 -0.697632,-0.06718 -0.47543,0 -0.692468,0.06718 -0.21704,0.06718 -0.29972,0.227376 -0.14469,0.279053 -0.21704,0.857829 -0.0672,0.573609 -0.0672,1.503784 0,0.806153 0.0568,1.364258 0.0568,0.558106 0.175699,0.826823 0.093,0.232544 0.289391,0.320394 0.201541,0.08268 0.75448,0.08268 z m 2.23759,-2.594157 q 0,1.111044 -0.14986,1.829346 -0.149871,0.718302 -0.454761,1.111043 -0.186029,0.237712 -0.583938,0.3514 -0.397912,0.113688 -1.049031,0.113688 -0.656291,0 -1.04903,-0.113688 -0.38758,-0.118856 -0.589122,-0.37207 -0.29455,-0.372071 -0.44441,-1.111044 -0.14986,-0.738973 -0.14986,-1.808675 0,-1.074869 0.14986,-1.81901 0.155033,-0.749308 0.44441,-1.121379 0.201542,-0.253214 0.589122,-0.37207 0.392739,-0.118856 1.04903,-0.118856 0.573609,0 0.961179,0.09819 0.387572,0.09302 0.58394,0.284221 0.341072,0.320394 0.516771,1.09554 0.1757,0.775147 0.1757,1.953369 z m -8.604131,2.594157 q 0.43408,0 0.645951,-0.05168 0.211881,-0.05684 0.31006,-0.180868 0.165369,-0.206706 0.242879,-0.790649 0.0827,-0.589112 0.0827,-1.570964 0,-0.935343 -0.0723,-1.514119 -0.0672,-0.578776 -0.211881,-0.847494 -0.0827,-0.160197 -0.29972,-0.227376 -0.21704,-0.06718 -0.69763,-0.06718 -0.475419,0 -0.69247,0.06718 -0.21704,0.06718 -0.29972,0.227376 -0.14469,0.279053 -0.21704,0.857829 -0.0672,0.573609 -0.0672,1.503784 0,0.806153 0.0568,1.364258 0.0568,0.558106 0.175699,0.826823 0.093,0.232544 0.289391,0.320394 0.201538,0.08268 0.754478,0.08268 z m 2.237591,-2.594157 q 0,1.111044 -0.14986,1.829346 -0.14987,0.718302 -0.45476,1.111043 -0.186031,0.237712 -0.583941,0.3514 -0.397909,0.113688 -1.04903,0.113688 -0.656289,0 -1.049028,-0.113688 -0.387581,-0.118856 -0.589111,-0.37207 -0.294561,-0.372071 -0.444421,-1.111044 -0.14986,-0.738973 -0.14986,-1.808675 0,-1.074869 0.14986,-1.81901 0.15503,-0.749308 0.444421,-1.121379 0.20153,-0.253214 0.589111,-0.37207 0.392739,-0.118856 1.049028,-0.118856 0.573611,0 0.961181,0.09819 0.387569,0.09302 0.58394,0.284221 0.341069,0.320394 0.516769,1.09554 0.175701,0.775147 0.175701,1.953369 z m -8.604131,2.594157 q 0.434092,0 0.64596,-0.05168 0.21187,-0.05684 0.310059,-0.180868 0.165362,-0.206706 0.242883,-0.790649 0.0827,-0.589112 0.0827,-1.570964 0,-0.935343 -0.0724,-1.514119 -0.0672,-0.578776 -0.211871,-0.847494 -0.0827,-0.160197 -0.29973,-0.227376 -0.21704,-0.06718 -0.69763,-0.06718 -0.475421,0 -0.692459,0.06718 -0.217041,0.06718 -0.29972,0.227376 -0.144701,0.279053 -0.217051,0.857829 -0.0672,0.573609 -0.0672,1.503784 0,0.806153 0.0568,1.364258 0.0568,0.558106 0.175699,0.826823 0.093,0.232544 0.289391,0.320394 0.201541,0.08268 0.75447,0.08268 z m 2.23759,-2.594157 q 0,1.111044 -0.14986,1.829346 -0.14986,0.718302 -0.45475,1.111043 -0.186039,0.237712 -0.583949,0.3514 -0.397902,0.113688 -1.049031,0.113688 -0.656291,0 -1.04903,-0.113688 -0.38757,-0.118856 -0.589108,-0.37207 -0.294561,-0.372071 -0.444422,-1.111044 -0.14986,-0.738973 -0.14986,-1.808675 0,-1.074869 0.14986,-1.81901 0.155031,-0.749308 0.444422,-1.121379 0.201538,-0.253214 0.589108,-0.37207 0.392739,-0.118856 1.04903,-0.118856 0.573612,0 0.961181,0.09819 0.387581,0.09302 0.583949,0.284221 0.341061,0.320394 0.51676,1.09554 0.1757,0.775147 0.1757,1.953369 z m -8.604122,2.594157 q 0.434081,0 0.645951,-0.05168 0.211881,-0.05684 0.31006,-0.180868 0.16537,-0.206706 0.24288,-0.790649 0.0827,-0.589112 0.0827,-1.570964 0,-0.935343 -0.0723,-1.514119 -0.0672,-0.578776 -0.211881,-0.847494 -0.0827,-0.160197 -0.29972,-0.227376 -0.217041,-0.06718 -0.69763,-0.06718 -0.47543,0 -0.69247,0.06718 -0.21704,0.06718 -0.29972,0.227376 -0.14469,0.279053 -0.21704,0.857829 -0.0672,0.573609 -0.0672,1.503784 0,0.806153 0.0568,1.364258 0.0568,0.558106 0.175699,0.826823 0.093,0.232544 0.28939,0.320394 0.201539,0.08268 0.754478,0.08268 z m 2.237592,-2.594157 q 0,1.111044 -0.14986,1.829346 -0.14987,0.718302 -0.45476,1.111043 -0.186032,0.237712 -0.583941,0.3514 -0.39791,0.113688 -1.049031,0.113688 -0.656288,0 -1.049028,-0.113688 -0.38758,-0.118856 -0.58911,-0.37207 -0.294561,-0.372071 -0.444421,-1.111044 -0.14986,-0.738973 -0.14986,-1.808675 0,-1.074869 0.14986,-1.81901 0.15503,-0.749308 0.444421,-1.121379 0.20153,-0.253214 0.58911,-0.37207 0.39274,-0.118856 1.049028,-0.118856 0.573612,0 0.961181,0.09819 0.38757,0.09302 0.583941,0.284221 0.341069,0.320394 0.516768,1.09554 0.175702,0.775147 0.175702,1.953369 z m -9.16223,0.170533 -1.715661,-3.028239 h 1.05937 l 1.193721,2.19108 1.21957,-2.19108 h 0.971511 l -1.648481,2.976562 1.74667,3.193603 h -1.04903 l -1.250569,-2.361612 -1.245413,2.361612 h -1.007689 z m -5.808429,2.423624 q 0.434078,0 0.645948,-0.05168 0.211881,-0.05684 0.31006,-0.180868 0.16537,-0.206706 0.24288,-0.790649 0.0827,-0.589112 0.0827,-1.570964 0,-0.935343 -0.0723,-1.514119 -0.0672,-0.578776 -0.211881,-0.847494 -0.0827,-0.160197 -0.29972,-0.227376 -0.217037,-0.06718 -0.697629,-0.06718 -0.47543,0 -0.69247,0.06718 -0.217041,0.06718 -0.29972,0.227376 -0.14469,0.279053 -0.217041,0.857829 -0.0672,0.573609 -0.0672,1.503784 0,0.806153 0.0568,1.364258 0.0568,0.558106 0.175699,0.826823 0.093,0.232544 0.289391,0.320394 0.201539,0.08268 0.754481,0.08268 z m 2.237589,-2.594157 q 0,1.111044 -0.14986,1.829346 -0.149871,0.718302 -0.454761,1.111043 -0.186031,0.237712 -0.58394,0.3514 -0.39791,0.113688 -1.049028,0.113688 -0.656291,0 -1.049031,-0.113688 -0.38758,-0.118856 -0.589121,-0.37207 -0.29455,-0.372071 -0.44441,-1.111044 -0.14986,-0.738973 -0.14986,-1.808675 0,-1.074869 0.14986,-1.81901 0.15503,-0.749308 0.44441,-1.121379 0.201541,-0.253214 0.589121,-0.37207 0.39274,-0.118856 1.049031,-0.118856 0.573608,0 0.961178,0.09819 0.38757,0.09302 0.583941,0.284221 0.341069,0.320394 0.516771,1.09554 0.175699,0.775147 0.175699,1.953369 z m -8.60413,2.594157 q 0.434081,0 0.645951,-0.05168 0.211878,-0.05684 0.31006,-0.180868 0.16537,-0.206706 0.24288,-0.790649 0.0827,-0.589112 0.0827,-1.570964 0,-0.935343 -0.0723,-1.514119 -0.0672,-0.578776 -0.211881,-0.847494 -0.0827,-0.160197 -0.29972,-0.227376 -0.21704,-0.06718 -0.697629,-0.06718 -0.475419,0 -0.69247,0.06718 -0.217041,0.06718 -0.29972,0.227376 -0.14469,0.279053 -0.217041,0.857829 -0.0672,0.573609 -0.0672,1.503784 0,0.806153 0.0568,1.364258 0.0569,0.558106 0.175701,0.826823 0.093,0.232544 0.289388,0.320394 0.201541,0.08268 0.754481,0.08268 z m 2.237589,-2.594157 q 0,1.111044 -0.14986,1.829346 -0.149868,0.718302 -0.454758,1.111043 -0.186031,0.237712 -0.58394,0.3514 -0.39791,0.113688 -1.049031,0.113688 -0.656288,0 -1.049031,-0.113688 -0.38758,-0.118856 -0.589108,-0.37207 -0.29456,-0.372071 -0.44442,-1.111044 -0.14986,-0.738973 -0.14986,-1.808675 0,-1.074869 0.14986,-1.81901 0.15503,-0.749308 0.44442,-1.121379 0.201528,-0.253214 0.589108,-0.37207 0.392743,-0.118856 1.049031,-0.118856 0.573611,0 0.961181,0.09819 0.38757,0.09302 0.583941,0.284221 0.341069,0.320394 0.516768,1.09554 0.175699,0.775147 0.175699,1.953369 z m -8.604128,2.594157 q 0.434088,0 0.645959,-0.05168 0.21187,-0.05684 0.31006,-0.180868 0.165359,-0.206706 0.242879,-0.790649 0.0827,-0.589112 0.0827,-1.570964 0,-0.935343 -0.0724,-1.514119 -0.0672,-0.578776 -0.211871,-0.847494 -0.0827,-0.160197 -0.29972,-0.227376 -0.217048,-0.06718 -0.69764,-0.06718 -0.475419,0 -0.692459,0.06718 -0.217041,0.06718 -0.29972,0.227376 -0.144698,0.279053 -0.217049,0.857829 -0.0672,0.573609 -0.0672,1.503784 0,0.806153 0.0568,1.364258 0.0568,0.558106 0.1757,0.826823 0.093,0.232544 0.28939,0.320394 0.201541,0.08268 0.75447,0.08268 z m 2.237589,-2.594157 q 0,1.111044 -0.14986,1.829346 -0.14986,0.718302 -0.45475,1.111043 -0.186039,0.237712 -0.583949,0.3514 -0.397901,0.113688 -1.04903,0.113688 -0.656291,0 -1.049031,-0.113688 -0.38757,-0.118856 -0.58911,-0.37207 -0.29456,-0.372071 -0.44442,-1.111044 -0.14986,-0.738973 -0.14986,-1.808675 0,-1.074869 0.14986,-1.81901 0.15503,-0.749308 0.44442,-1.121379 0.20154,-0.253214 0.58911,-0.37207 0.39274,-0.118856 1.049031,-0.118856 0.573609,0 0.961178,0.09819 0.38758,0.09302 0.583951,0.284221 0.341062,0.320394 0.516761,1.09554 0.175699,0.775147 0.175699,1.953369 z m -8.60412,2.594157 q 0.43408,0 0.64595,-0.05168 0.21188,-0.05684 0.31006,-0.180868 0.16537,-0.206706 0.24288,-0.790649 0.0827,-0.589112 0.0827,-1.570964 0,-0.935343 -0.0723,-1.514119 -0.0672,-0.578776 -0.21188,-0.847494 -0.0827,-0.160197 -0.29972,-0.227376 -0.21704,-0.06718 -0.69763,-0.06718 -0.47543,0 -0.69247,0.06718 -0.21704,0.06718 -0.29972,0.227376 -0.14469,0.279053 -0.21704,0.857829 -0.0672,0.573609 -0.0672,1.503784 0,0.806153 0.0568,1.364258 0.0568,0.558106 0.1757,0.826823 0.093,0.232544 0.28939,0.320394 0.20154,0.08268 0.75448,0.08268 z m 2.23759,-2.594157 q 0,1.111044 -0.14986,1.829346 -0.14987,0.718302 -0.45476,1.111043 -0.18603,0.237712 -0.58394,0.3514 -0.39791,0.113688 -1.04903,0.113688 -0.65629,0 -1.04903,-0.113688 -0.38758,-0.118856 -0.58911,-0.37207 -0.29456,-0.372071 -0.44442,-1.111044 -0.14986,-0.738973 -0.14986,-1.808675 0,-1.074869 0.14986,-1.81901 0.15503,-0.749308 0.44442,-1.121379 0.20153,-0.253214 0.58911,-0.37207 0.39274,-0.118856 1.04903,-0.118856 0.57361,0 0.96118,0.09819 0.38757,0.09302 0.58394,0.284221 0.34107,0.320394 0.51677,1.09554 0.1757,0.775147 0.1757,1.953369 z m -8.60413,2.594157 q 0.43408,0 0.64596,-0.05168 0.21187,-0.05684 0.31006,-0.180868 0.16536,-0.206706 0.24287,-0.790649 0.0827,-0.589112 0.0827,-1.570964 0,-0.935343 -0.0724,-1.514119 -0.0672,-0.578776 -0.21187,-0.847494 -0.0827,-0.160197 -0.29973,-0.227376 -0.21704,-0.06718 -0.69763,-0.06718 -0.47542,0 -0.69246,0.06718 -0.21704,0.06718 -0.29973,0.227376 -0.14469,0.279053 -0.21704,0.857829 -0.0672,0.573609 -0.0672,1.503784 0,0.806153 0.0568,1.364258 0.0568,0.558106 0.1757,0.826823 0.093,0.232544 0.28939,0.320394 0.20153,0.08268 0.75447,0.08268 z m 2.23759,-2.594157 q 0,1.111044 -0.14986,1.829346 -0.14986,0.718302 -0.45475,1.111043 -0.18604,0.237712 -0.58395,0.3514 -0.39791,0.113688 -1.04903,0.113688 -0.65629,0 -1.04903,-0.113688 -0.38757,-0.118856 -0.58911,-0.37207 -0.29456,-0.372071 -0.44442,-1.111044 -0.14986,-0.738973 -0.14986,-1.808675 0,-1.074869 0.14986,-1.81901 0.15503,-0.749308 0.44442,-1.121379 0.20154,-0.253214 0.58911,-0.37207 0.39274,-0.118856 1.04903,-0.118856 0.57361,0 0.96118,0.09819 0.38758,0.09302 0.58395,0.284221 0.34106,0.320394 0.51676,1.09554 0.1757,0.775147 0.1757,1.953369 z m -8.60413,2.594157 q 0.43409,0 0.64596,-0.05168 0.21187,-0.05684 0.31006,-0.180868 0.16536,-0.206706 0.24288,-0.790649 0.0827,-0.589112 0.0827,-1.570964 0,-0.935343 -0.0724,-1.514119 -0.0672,-0.578776 -0.21187,-0.847494 -0.0827,-0.160197 -0.29972,-0.227376 -0.21704,-0.06718 -0.69764,-0.06718 -0.4754202,0 -0.6924602,0.06718 -0.21704,0.06718 -0.29972,0.227376 -0.1447,0.279053 -0.21704,0.857829 -0.0672,0.573609 -0.0672,1.503784 0,0.806153 0.0568,1.364258 0.0568,0.558106 0.1757,0.826823 0.093,0.232544 0.28939,0.320394 0.20154,0.08268 0.7544702,0.08268 z m 2.23759,-2.594157 q 0,1.111044 -0.14986,1.829346 -0.14986,0.718302 -0.45475,1.111043 -0.18604,0.237712 -0.58394,0.3514 -0.39791,0.113688 -1.04904,0.113688 -0.6562902,0 -1.0490302,-0.113688 -0.38757,-0.118856 -0.58911,-0.37207 -0.29455,-0.372071 -0.44442,-1.111044 -0.14986,-0.738973 -0.14986,-1.808675 0,-1.074869 0.14986,-1.81901 0.15503,-0.749308 0.44442,-1.121379 0.20154,-0.253214 0.58911,-0.37207 0.39274,-0.118856 1.0490302,-0.118856 0.57361,0 0.96119,0.09819 0.38757,0.09302 0.58394,0.284221 0.34106,0.320394 0.51676,1.09554 0.1757,0.775147 0.1757,1.953369 z m -8.6041202,2.594157 q 0.43408,0 0.64595,-0.05168 0.21188,-0.05684 0.31006,-0.180868 0.16537,-0.206706 0.24288,-0.790649 0.0827,-0.589112 0.0827,-1.570964 0,-0.935343 -0.0723,-1.514119 -0.0672,-0.578776 -0.21188,-0.847494 -0.0827,-0.160197 -0.29972,-0.227376 -0.21704,-0.06718 -0.69763,-0.06718 -0.47542,0 -0.69247,0.06718 -0.21704,0.06718 -0.29972,0.227376 -0.14469,0.279053 -0.21704,0.857829 -0.0672,0.573609 -0.0672,1.503784 0,0.806153 0.0568,1.364258 0.0568,0.558106 0.1757,0.826823 0.093,0.232544 0.28939,0.320394 0.20154,0.08268 0.75448,0.08268 z m 2.23759,-2.594157 q 0,1.111044 -0.14986,1.829346 -0.14987,0.718302 -0.45476,1.111043 -0.18603,0.237712 -0.58394,0.3514 -0.39791,0.113688 -1.04903,0.113688 -0.65629,0 -1.04903,-0.113688 -0.38758,-0.118856 -0.58911,-0.37207 -0.29456,-0.372071 -0.44442,-1.111044 -0.14986,-0.738973 -0.14986,-1.808675 0,-1.074869 0.14986,-1.81901 0.15503,-0.749308 0.44442,-1.121379 0.20153,-0.253214 0.58911,-0.37207 0.39274,-0.118856 1.04903,-0.118856 0.57361,0 0.96118,0.09819 0.38757,0.09302 0.58394,0.284221 0.34107,0.320394 0.51677,1.09554 0.1757,0.775147 0.1757,1.953369 z M 190.50664,7.9430784 186.1038,4.9871864 v -0.304891 l 4.40284,-2.950724 v 1.100708 l -3.11092,1.999878 3.11092,1.999877 z m -8.45426,-0.465088 q 0.43408,0 0.64595,-0.05168 0.21188,-0.05684 0.31006,-0.180867 0.16536,-0.206706 0.24288,-0.790649 0.0827,-0.589112 0.0827,-1.570965 0,-0.935342 -0.0724,-1.514118 -0.0672,-0.578776 -0.21187,-0.847494 -0.0827,-0.160197 -0.29973,-0.227376 -0.21704,-0.06718 -0.69763,-0.06718 -0.47542,0 -0.69246,0.06718 -0.21704,0.06718 -0.29973,0.227376 -0.14469,0.279053 -0.21704,0.857829 -0.0672,0.573608 -0.0672,1.503783 0,0.806153 0.0568,1.364259 0.0568,0.558104 0.1757,0.826823 0.093,0.232544 0.28939,0.320393 0.20154,0.08268 0.75448,0.08268 z m 2.23759,-2.594157 q 0,1.111042 -0.14986,1.829345 -0.14987,0.718303 -0.45476,1.111044 -0.18603,0.237712 -0.58394,0.3514 -0.39791,0.113688 -1.04903,0.113688 -0.6563,0 -1.04903,-0.113688 -0.38758,-0.118856 -0.58912,-0.372071 -0.29455,-0.37207 -0.44441,-1.111043 -0.14987,-0.738973 -0.14987,-1.808675 0,-1.07487 0.14987,-1.81901 0.15503,-0.749309 0.44441,-1.121379 0.20154,-0.253214 0.58912,-0.37207 0.39273,-0.118856 1.04903,-0.118856 0.5736,0 0.96118,0.09819 0.38757,0.09302 0.58394,0.284221 0.34107,0.320393 0.51677,1.09554 0.1757,0.775146 0.1757,1.953369 z m -8.60414,2.594157 q 0.43408,0 0.64596,-0.05168 0.21187,-0.05684 0.31006,-0.180867 0.16536,-0.206706 0.24287,-0.790649 0.0827,-0.589112 0.0827,-1.570965 0,-0.935342 -0.0724,-1.514118 -0.0672,-0.578776 -0.21187,-0.847494 -0.0827,-0.160197 -0.29972,-0.227376 -0.21704,-0.06718 -0.69763,-0.06718 -0.47543,0 -0.69247,0.06718 -0.21704,0.06718 -0.29972,0.227376 -0.1447,0.279053 -0.21704,0.857829 -0.0672,0.573608 -0.0672,1.503783 0,0.806153 0.0568,1.364259 0.0568,0.558104 0.17569,0.826823 0.093,0.232544 0.28939,0.320393 0.20154,0.08268 0.75448,0.08268 z m 2.23759,-2.594157 q 0,1.111042 -0.14986,1.829345 -0.14986,0.718303 -0.45475,1.111044 -0.18604,0.237712 -0.58395,0.3514 -0.39791,0.113688 -1.04903,0.113688 -0.65629,0 -1.04903,-0.113688 -0.38757,-0.118856 -0.58911,-0.372071 -0.29456,-0.37207 -0.44442,-1.111043 -0.14986,-0.738973 -0.14986,-1.808675 0,-1.07487 0.14986,-1.81901 0.15503,-0.749309 0.44442,-1.121379 0.20154,-0.253214 0.58911,-0.37207 0.39274,-0.118856 1.04903,-0.118856 0.57361,0 0.96118,0.09819 0.38757,0.09302 0.58395,0.284221 0.34106,0.320393 0.51676,1.09554 0.1757,0.775146 0.1757,1.953369 z m -8.60412,2.594157 q 0.43408,0 0.64595,-0.05168 0.21188,-0.05684 0.31006,-0.180867 0.16537,-0.206706 0.24288,-0.790649 0.0827,-0.589112 0.0827,-1.570965 0,-0.935342 -0.0724,-1.514118 -0.0672,-0.578776 -0.21187,-0.847494 -0.0827,-0.160197 -0.29973,-0.227376 -0.21704,-0.06718 -0.69763,-0.06718 -0.47542,0 -0.69246,0.06718 -0.21704,0.06718 -0.29973,0.227376 -0.14469,0.279053 -0.21704,0.857829 -0.0672,0.573608 -0.0672,1.503783 0,0.806153 0.0568,1.364259 0.0568,0.558104 0.1757,0.826823 0.093,0.232544 0.28939,0.320393 0.20154,0.08268 0.75448,0.08268 z m 2.23759,-2.594157 q 0,1.111042 -0.14986,1.829345 -0.14987,0.718303 -0.45476,1.111044 -0.18603,0.237712 -0.58394,0.3514 -0.39791,0.113688 -1.04903,0.113688 -0.65629,0 -1.04903,-0.113688 -0.38758,-0.118856 -0.58911,-0.372071 -0.29456,-0.37207 -0.44442,-1.111043 -0.14986,-0.738973 -0.14986,-1.808675 0,-1.07487 0.14986,-1.81901 0.15503,-0.749309 0.44442,-1.121379 0.20153,-0.253214 0.58911,-0.37207 0.39274,-0.118856 1.04903,-0.118856 0.57361,0 0.96118,0.09819 0.38757,0.09302 0.58394,0.284221 0.34107,0.320393 0.51677,1.09554 0.1757,0.775146 0.1757,1.953369 z m -8.60412,2.594157 q 0.43408,0 0.64595,-0.05168 0.21188,-0.05684 0.31006,-0.180867 0.16536,-0.206706 0.24288,-0.790649 0.0827,-0.589112 0.0827,-1.570965 0,-0.935342 -0.0724,-1.514118 -0.0672,-0.578776 -0.21187,-0.847494 -0.0827,-0.160197 -0.29973,-0.227376 -0.21704,-0.06718 -0.69763,-0.06718 -0.47542,0 -0.69246,0.06718 -0.21704,0.06718 -0.29973,0.227376 -0.14469,0.279053 -0.21704,0.857829 -0.0672,0.573608 -0.0672,1.503783 0,0.806153 0.0568,1.364259 0.0568,0.558104 0.1757,0.826823 0.093,0.232544 0.28939,0.320393 0.20154,0.08268 0.75448,0.08268 z m 2.23759,-2.594157 q 0,1.111042 -0.14986,1.829345 -0.14987,0.718303 -0.45476,1.111044 -0.18603,0.237712 -0.58394,0.3514 -0.39791,0.113688 -1.04903,0.113688 -0.65629,0 -1.04903,-0.113688 -0.38758,-0.118856 -0.58912,-0.372071 -0.29455,-0.37207 -0.44441,-1.111043 -0.14987,-0.738973 -0.14987,-1.808675 0,-1.07487 0.14987,-1.81901 0.15502,-0.749309 0.44441,-1.121379 0.20154,-0.253214 0.58912,-0.37207 0.39274,-0.118856 1.04903,-0.118856 0.57361,0 0.96118,0.09819 0.38757,0.09302 0.58394,0.284221 0.34107,0.320393 0.51677,1.09554 0.1757,0.775146 0.1757,1.953369 z m -8.60412,2.594157 q 0.43408,0 0.64595,-0.05168 0.21187,-0.05684 0.31006,-0.180867 0.16536,-0.206706 0.24288,-0.790649 0.0827,-0.589112 0.0827,-1.570965 0,-0.935342 -0.0724,-1.514118 -0.0672,-0.578776 -0.21188,-0.847494 -0.0827,-0.160197 -0.29972,-0.227376 -0.21704,-0.06718 -0.69763,-0.06718 -0.47542,0 -0.69246,0.06718 -0.21705,0.06718 -0.29973,0.227376 -0.14469,0.279053 -0.21704,0.857829 -0.0672,0.573608 -0.0672,1.503783 0,0.806153 0.0568,1.364259 0.0568,0.558104 0.1757,0.826823 0.093,0.232544 0.28939,0.320393 0.20154,0.08268 0.75447,0.08268 z m 2.23758,-2.594157 q 0,1.111042 -0.14986,1.829345 -0.14986,0.718303 -0.45475,1.111044 -0.18603,0.237712 -0.58394,0.3514 -0.39791,0.113688 -1.04903,0.113688 -0.6563,0 -1.04904,-0.113688 -0.38757,-0.118856 -0.58911,-0.372071 -0.29455,-0.37207 -0.44441,-1.111043 -0.14987,-0.738973 -0.14987,-1.808675 0,-1.07487 0.14987,-1.81901 0.15502,-0.749309 0.44441,-1.121379 0.20154,-0.253214 0.58911,-0.37207 0.39274,-0.118856 1.04904,-0.118856 0.5736,0 0.96118,0.09819 0.38757,0.09302 0.58394,0.284221 0.34106,0.320393 0.51677,1.09554 0.17569,0.775146 0.17569,1.953369 z m -8.60413,2.594157 q 0.43408,0 0.64595,-0.05168 0.21188,-0.05684 0.31006,-0.180867 0.16537,-0.206706 0.24288,-0.790649 0.0827,-0.589112 0.0827,-1.570965 0,-0.935342 -0.0724,-1.514118 -0.0672,-0.578776 -0.21187,-0.847494 -0.0827,-0.160197 -0.29972,-0.227376 -0.21705,-0.06718 -0.69764,-0.06718 -0.47542,0 -0.69246,0.06718 -0.21704,0.06718 -0.29972,0.227376 -0.1447,0.279053 -0.21704,0.857829 -0.0672,0.573608 -0.0672,1.503783 0,0.806153 0.0568,1.364259 0.0568,0.558104 0.17569,0.826823 0.093,0.232544 0.28939,0.320393 0.20154,0.08268 0.75448,0.08268 z m 2.23759,-2.594157 q 0,1.111042 -0.14986,1.829345 -0.14987,0.718303 -0.45476,1.111044 -0.18603,0.237712 -0.58394,0.3514 -0.39791,0.113688 -1.04903,0.113688 -0.65629,0 -1.04903,-0.113688 -0.38758,-0.118856 -0.58912,-0.372071 -0.29455,-0.37207 -0.44441,-1.111043 -0.14986,-0.738973 -0.14986,-1.808675 0,-1.07487 0.14986,-1.81901 0.15503,-0.749309 0.44441,-1.121379 0.20154,-0.253214 0.58912,-0.37207 0.39274,-0.118856 1.04903,-0.118856 0.57361,0 0.96118,0.09819 0.38757,0.09302 0.58394,0.284221 0.34107,0.320393 0.51677,1.09554 0.1757,0.775146 0.1757,1.953369 z m -8.60412,2.594157 q 0.43408,0 0.64595,-0.05168 0.21188,-0.05684 0.31006,-0.180867 0.16537,-0.206706 0.24288,-0.790649 0.0827,-0.589112 0.0827,-1.570965 0,-0.935342 -0.0724,-1.514118 -0.0672,-0.578776 -0.21187,-0.847494 -0.0827,-0.160197 -0.29973,-0.227376 -0.21704,-0.06718 -0.69763,-0.06718 -0.47542,0 -0.69246,0.06718 -0.21704,0.06718 -0.29973,0.227376 -0.14469,0.279053 -0.21704,0.857829 -0.0672,0.573608 -0.0672,1.503783 0,0.806153 0.0568,1.364259 0.0568,0.558104 0.1757,0.826823 0.093,0.232544 0.28939,0.320393 0.20154,0.08268 0.75448,0.08268 z m 2.23759,-2.594157 q 0,1.111042 -0.14986,1.829345 -0.14987,0.718303 -0.45476,1.111044 -0.18603,0.237712 -0.58394,0.3514 -0.39791,0.113688 -1.04903,0.113688 -0.65629,0 -1.04903,-0.113688 -0.38758,-0.118856 -0.58911,-0.372071 -0.29456,-0.37207 -0.44442,-1.111043 -0.14986,-0.738973 -0.14986,-1.808675 0,-1.07487 0.14986,-1.81901 0.15503,-0.749309 0.44442,-1.121379 0.20153,-0.253214 0.58911,-0.37207 0.39274,-0.118856 1.04903,-0.118856 0.57361,0 0.96118,0.09819 0.38757,0.09302 0.58394,0.284221 0.34107,0.320393 0.51677,1.09554 0.1757,0.775146 0.1757,1.953369 z m -8.60412,2.594157 q 0.43408,0 0.64595,-0.05168 0.21188,-0.05684 0.31006,-0.180867 0.16536,-0.206706 0.24288,-0.790649 0.0827,-0.589112 0.0827,-1.570965 0,-0.935342 -0.0724,-1.514118 -0.0672,-0.578776 -0.21187,-0.847494 -0.0827,-0.160197 -0.29973,-0.227376 -0.21704,-0.06718 -0.69763,-0.06718 -0.47542,0 -0.69246,0.06718 -0.21704,0.06718 -0.29973,0.227376 -0.14469,0.279053 -0.21704,0.857829 -0.0672,0.573608 -0.0672,1.503783 0,0.806153 0.0568,1.364259 0.0568,0.558104 0.1757,0.826823 0.093,0.232544 0.28939,0.320393 0.20154,0.08268 0.75448,0.08268 z m 2.23759,-2.594157 q 0,1.111042 -0.14987,1.829345 -0.14986,0.718303 -0.45475,1.111044 -0.18603,0.237712 -0.58394,0.3514 -0.39791,0.113688 -1.04903,0.113688 -0.6563,0 -1.04903,-0.113688 -0.38758,-0.118856 -0.58912,-0.372071 -0.29455,-0.37207 -0.44441,-1.111043 -0.14987,-0.738973 -0.14987,-1.808675 0,-1.07487 0.14987,-1.81901 0.15503,-0.749309 0.44441,-1.121379 0.20154,-0.253214 0.58912,-0.37207 0.39273,-0.118856 1.04903,-0.118856 0.5736,0 0.96118,0.09819 0.38757,0.09302 0.58394,0.284221 0.34107,0.320393 0.51677,1.09554 0.1757,0.775146 0.1757,1.953369 z m -8.60414,2.594157 q 0.43408,0 0.64596,-0.05168 0.21187,-0.05684 0.31005,-0.180867 0.16537,-0.206706 0.24288,-0.790649 0.0827,-0.589112 0.0827,-1.570965 0,-0.935342 -0.0724,-1.514118 -0.0672,-0.578776 -0.21187,-0.847494 -0.0827,-0.160197 -0.29972,-0.227376 -0.21704,-0.06718 -0.69764,-0.06718 -0.47542,0 -0.69246,0.06718 -0.21704,0.06718 -0.29972,0.227376 -0.1447,0.279053 -0.21704,0.857829 -0.0672,0.573608 -0.0672,1.503783 0,0.806153 0.0568,1.364259 0.0568,0.558104 0.1757,0.826823 0.093,0.232544 0.28938,0.320393 0.20154,0.08268 0.75448,0.08268 z m 2.23759,-2.594157 q 0,1.111042 -0.14986,1.829345 -0.14986,0.718303 -0.45475,1.111044 -0.18604,0.237712 -0.58395,0.3514 -0.39791,0.113688 -1.04903,0.113688 -0.65629,0 -1.04903,-0.113688 -0.38758,-0.118856 -0.58911,-0.372071 -0.29456,-0.37207 -0.44442,-1.111043 -0.14986,-0.738973 -0.14986,-1.808675 0,-1.07487 0.14986,-1.81901 0.15503,-0.749309 0.44442,-1.121379 0.20153,-0.253214 0.58911,-0.37207 0.39274,-0.118856 1.04903,-0.118856 0.57361,0 0.96118,0.09819 0.38757,0.09302 0.58394,0.284221 0.34107,0.320393 0.51677,1.09554 0.1757,0.775146 0.1757,1.953369 z m -8.60412,2.594157 q 0.43408,0 0.64595,-0.05168 0.21188,-0.05684 0.31006,-0.180867 0.16537,-0.206706 0.24288,-0.790649 0.0827,-0.589112 0.0827,-1.570965 0,-0.935342 -0.0724,-1.514118 -0.0672,-0.578776 -0.21187,-0.847494 -0.0827,-0.160197 -0.29973,-0.227376 -0.21704,-0.06718 -0.69763,-0.06718 -0.47542,0 -0.69246,0.06718 -0.21704,0.06718 -0.29973,0.227376 -0.14469,0.279053 -0.21704,0.857829 -0.0672,0.573608 -0.0672,1.503783 0,0.806153 0.0568,1.364259 0.0568,0.558104 0.1757,0.826823 0.093,0.232544 0.28939,0.320393 0.20154,0.08268 0.75448,0.08268 z m 2.23759,-2.594157 q 0,1.111042 -0.14987,1.829345 -0.14986,0.718303 -0.45475,1.111044 -0.18603,0.237712 -0.58394,0.3514 -0.39791,0.113688 -1.04903,0.113688 -0.65629,0 -1.04903,-0.113688 -0.38758,-0.118856 -0.58911,-0.372071 -0.29456,-0.37207 -0.44442,-1.111043 -0.14986,-0.738973 -0.14986,-1.808675 0,-1.07487 0.14986,-1.81901 0.15503,-0.749309 0.44442,-1.121379 0.20153,-0.253214 0.58911,-0.37207 0.39274,-0.118856 1.04903,-0.118856 0.57361,0 0.96118,0.09819 0.38757,0.09302 0.58394,0.284221 0.34107,0.320393 0.51677,1.09554 0.1757,0.775146 0.1757,1.953369 z m -8.60413,2.594157 q 0.43408,0 0.64596,-0.05168 0.21187,-0.05684 0.31005,-0.180867 0.16537,-0.206706 0.24288,-0.790649 0.0827,-0.589112 0.0827,-1.570965 0,-0.935342 -0.0724,-1.514118 -0.0672,-0.578776 -0.21187,-0.847494 -0.0827,-0.160197 -0.29972,-0.227376 -0.21704,-0.06718 -0.69764,-0.06718 -0.47542,0 -0.69246,0.06718 -0.21704,0.06718 -0.29972,0.227376 -0.1447,0.279053 -0.21704,0.857829 -0.0672,0.573608 -0.0672,1.503783 0,0.806153 0.0568,1.364259 0.0568,0.558104 0.17569,0.826823 0.093,0.232544 0.28939,0.320393 0.20154,0.08268 0.75448,0.08268 z m 2.23759,-2.594157 q 0,1.111042 -0.14986,1.829345 -0.14986,0.718303 -0.45475,1.111044 -0.18604,0.237712 -0.58395,0.3514 -0.39791,0.113688 -1.04903,0.113688 -0.65629,0 -1.04903,-0.113688 -0.38758,-0.118856 -0.58911,-0.372071 -0.29456,-0.37207 -0.44442,-1.111043 -0.14986,-0.738973 -0.14986,-1.808675 0,-1.07487 0.14986,-1.81901 0.15503,-0.749309 0.44442,-1.121379 0.20153,-0.253214 0.58911,-0.37207 0.39274,-0.118856 1.04903,-0.118856 0.57361,0 0.96118,0.09819 0.38757,0.09302 0.58395,0.284221 0.34106,0.320393 0.51676,1.09554 0.1757,0.775146 0.1757,1.953369 z m -8.60412,2.594157 q 0.43408,0 0.64595,-0.05168 0.21188,-0.05684 0.31006,-0.180867 0.16537,-0.206706 0.24288,-0.790649 0.0827,-0.589112 0.0827,-1.570965 0,-0.935342 -0.0724,-1.514118 -0.0672,-0.578776 -0.21187,-0.847494 -0.0827,-0.160197 -0.29973,-0.227376 -0.21704,-0.06718 -0.69763,-0.06718 -0.47542,0 -0.69246,0.06718 -0.21704,0.06718 -0.29973,0.227376 -0.14469,0.279053 -0.21704,0.857829 -0.0672,0.573608 -0.0672,1.503783 0,0.806153 0.0568,1.364259 0.0568,0.558104 0.1757,0.826823 0.093,0.232544 0.28939,0.320393 0.20154,0.08268 0.75448,0.08268 z m 2.23759,-2.594157 q 0,1.111042 -0.14987,1.829345 -0.14986,0.718303 -0.45475,1.111044 -0.18603,0.237712 -0.58394,0.3514 -0.39791,0.113688 -1.04903,0.113688 -0.65629,0 -1.04904,-0.113688 -0.38757,-0.118856 -0.58911,-0.372071 -0.29455,-0.37207 -0.44441,-1.111043 -0.14986,-0.738973 -0.14986,-1.808675 0,-1.07487 0.14986,-1.81901 0.15503,-0.749309 0.44441,-1.121379 0.20154,-0.253214 0.58911,-0.37207 0.39275,-0.118856 1.04904,-0.118856 0.57361,0 0.96118,0.09819 0.38757,0.09302 0.58394,0.284221 0.34107,0.320393 0.51677,1.09554 0.1757,0.775146 0.1757,1.953369 z m -8.60413,2.594157 q 0.43408,0 0.64595,-0.05168 0.21188,-0.05684 0.31006,-0.180867 0.16537,-0.206706 0.24288,-0.790649 0.0827,-0.589112 0.0827,-1.570965 0,-0.935342 -0.0724,-1.514118 -0.0672,-0.578776 -0.21187,-0.847494 -0.0827,-0.160197 -0.29972,-0.227376 -0.21705,-0.06718 -0.69764,-0.06718 -0.47542,0 -0.69246,0.06718 -0.21704,0.06718 -0.29972,0.227376 -0.1447,0.279053 -0.21704,0.857829 -0.0672,0.573608 -0.0672,1.503783 0,0.806153 0.0568,1.364259 0.0568,0.558104 0.17569,0.826823 0.093,0.232544 0.28939,0.320393 0.20154,0.08268 0.75448,0.08268 z m 2.23759,-2.594157 q 0,1.111042 -0.14987,1.829345 -0.14986,0.718303 -0.45475,1.111044 -0.18603,0.237712 -0.58394,0.3514 -0.39791,0.113688 -1.04903,0.113688 -0.65629,0 -1.04903,-0.113688 -0.38758,-0.118856 -0.58912,-0.372071 -0.29455,-0.37207 -0.44441,-1.111043 -0.14986,-0.738973 -0.14986,-1.808675 0,-1.07487 0.14986,-1.81901 0.15503,-0.749309 0.44441,-1.121379 0.20154,-0.253214 0.58912,-0.37207 0.39274,-0.118856 1.04903,-0.118856 0.57361,0 0.96118,0.09819 0.38757,0.09302 0.58394,0.284221 0.34107,0.320393 0.51677,1.09554 0.1757,0.775146 0.1757,1.953369 z m -8.604125,2.594157 q 0.434078,0 0.645948,-0.05168 0.211877,-0.05684 0.310057,-0.180867 0.16537,-0.206706 0.24288,-0.790649 0.0827,-0.589112 0.0827,-1.570965 0,-0.935342 -0.0723,-1.514118 -0.0672,-0.578776 -0.21188,-0.847494 -0.0827,-0.160197 -0.299716,-0.227376 -0.21704,-0.06718 -0.697632,-0.06718 -0.47543,0 -0.69247,0.06718 -0.217038,0.06718 -0.29972,0.227376 -0.14469,0.279053 -0.217038,0.857829 -0.0672,0.573608 -0.0672,1.503783 0,0.806153 0.0568,1.364259 0.0569,0.558104 0.1757,0.826823 0.093,0.232544 0.28939,0.320393 0.201539,0.08268 0.754481,0.08268 z m 2.237585,-2.594157 q 0,1.111042 -0.14986,1.829345 -0.14987,0.718303 -0.45476,1.111044 -0.18603,0.237712 -0.58394,0.3514 -0.397907,0.113688 -1.049025,0.113688 -0.656291,0 -1.049031,-0.113688 -0.38758,-0.118856 -0.58911,-0.372071 -0.294561,-0.37207 -0.444421,-1.111043 -0.14986,-0.738973 -0.14986,-1.808675 0,-1.07487 0.14986,-1.81901 0.15503,-0.749309 0.444421,-1.121379 0.20153,-0.253214 0.58911,-0.37207 0.39274,-0.118856 1.049031,-0.118856 0.573609,0 0.961175,0.09819 0.38757,0.09302 0.58394,0.284221 0.34107,0.320393 0.51677,1.09554 0.1757,0.775146 0.1757,1.953369 z m -8.604116,2.594157 q 0.43408,0 0.645951,-0.05168 0.211878,-0.05684 0.31006,-0.180867 0.16537,-0.206706 0.242879,-0.790649 0.0827,-0.589112 0.0827,-1.570965 0,-0.935342 -0.0723,-1.514118 -0.0672,-0.578776 -0.211881,-0.847494 -0.0827,-0.160197 -0.29972,-0.227376 -0.21704,-0.06718 -0.697629,-0.06718 -0.47543,0 -0.692471,0.06718 -0.21704,0.06718 -0.29972,0.227376 -0.14469,0.279053 -0.21704,0.857829 -0.0672,0.573608 -0.0672,1.503783 0,0.806153 0.0568,1.364259 0.0568,0.558104 0.175702,0.826823 0.093,0.232544 0.289388,0.320393 0.201541,0.08268 0.754481,0.08268 z m 2.237589,-2.594157 q 0,1.111042 -0.149868,1.829345 -0.14986,0.718303 -0.45475,1.111044 -0.186031,0.237712 -0.583941,0.3514 -0.397909,0.113688 -1.04903,0.113688 -0.656291,0 -1.049031,-0.113688 -0.38758,-0.118856 -0.589118,-0.372071 -0.294551,-0.37207 -0.444411,-1.111043 -0.14987,-0.738973 -0.14987,-1.808675 0,-1.07487 0.14987,-1.81901 0.15503,-0.749309 0.444411,-1.121379 0.201538,-0.253214 0.589118,-0.37207 0.39274,-0.118856 1.049031,-0.118856 0.573611,0 0.961181,0.09819 0.387569,0.09302 0.583938,0.284221 0.341071,0.320393 0.516771,1.09554 0.175699,0.775146 0.175699,1.953369 z m -8.604128,2.594157 q 0.434078,0 0.645948,-0.05168 0.211881,-0.05684 0.31006,-0.180867 0.16537,-0.206706 0.242882,-0.790649 0.0827,-0.589112 0.0827,-1.570965 0,-0.935342 -0.0723,-1.514118 -0.0672,-0.578776 -0.211878,-0.847494 -0.0827,-0.160197 -0.29972,-0.227376 -0.21704,-0.06718 -0.697632,-0.06718 -0.47543,0 -0.69247,0.06718 -0.217038,0.06718 -0.29972,0.227376 -0.14469,0.279053 -0.217038,0.857829 -0.0672,0.573608 -0.0672,1.503783 0,0.806153 0.0568,1.364259 0.0569,0.558104 0.175699,0.826823 0.093,0.232544 0.289391,0.320393 0.201541,0.08268 0.754481,0.08268 z m 2.237589,-2.594157 q 0,1.111042 -0.14986,1.829345 -0.149871,0.718303 -0.454761,1.111044 -0.186028,0.237712 -0.583938,0.3514 -0.397912,0.113688 -1.04903,0.113688 -0.656291,0 -1.049031,-0.113688 -0.38758,-0.118856 -0.589121,-0.372071 -0.29455,-0.37207 -0.44441,-1.111043 -0.14986,-0.738973 -0.14986,-1.808675 0,-1.07487 0.14986,-1.81901 0.15503,-0.749309 0.44441,-1.121379 0.201541,-0.253214 0.589121,-0.37207 0.39274,-0.118856 1.049031,-0.118856 0.573608,0 0.961178,0.09819 0.387572,0.09302 0.583941,0.284221 0.341069,0.320393 0.516771,1.09554 0.175699,0.775146 0.175699,1.953369 z m -8.604121,2.594157 q 0.434081,0 0.645952,-0.05168 0.211878,-0.05684 0.310059,-0.180867 0.16536,-0.206706 0.24288,-0.790649 0.0827,-0.589112 0.0827,-1.570965 0,-0.935342 -0.0724,-1.514118 -0.0672,-0.578776 -0.21187,-0.847494 -0.0827,-0.160197 -0.29972,-0.227376 -0.21704,-0.06718 -0.69763,-0.06718 -0.475429,0 -0.69247,0.06718 -0.21704,0.06718 -0.29972,0.227376 -0.1447,0.279053 -0.21704,0.857829 -0.0672,0.573608 -0.0672,1.503783 0,0.806153 0.0568,1.364259 0.0568,0.558104 0.175702,0.826823 0.093,0.232544 0.289388,0.320393 0.201541,0.08268 0.75448,0.08268 z m 2.23759,-2.594157 q 0,1.111042 -0.149868,1.829345 -0.14986,0.718303 -0.45475,1.111044 -0.186031,0.237712 -0.583941,0.3514 -0.39791,0.113688 -1.049031,0.113688 -0.656288,0 -1.049038,-0.113688 -0.387572,-0.118856 -0.589111,-0.372071 -0.29455,-0.37207 -0.44441,-1.111043 -0.14987,-0.738973 -0.14987,-1.808675 0,-1.07487 0.14987,-1.81901 0.15503,-0.749309 0.44441,-1.121379 0.201539,-0.253214 0.589111,-0.37207 0.39275,-0.118856 1.049038,-0.118856 0.573601,0 0.961181,0.09819 0.38757,0.09302 0.583941,0.284221 0.341069,0.320393 0.516768,1.09554 0.1757,0.775146 0.1757,1.953369 z m -8.604129,2.594157 q 0.434081,0 0.645949,-0.05168 0.211881,-0.05684 0.31006,-0.180867 0.16537,-0.206706 0.242882,-0.790649 0.0827,-0.589112 0.0827,-1.570965 0,-0.935342 -0.0723,-1.514118 -0.0672,-0.578776 -0.211878,-0.847494 -0.0827,-0.160197 -0.29972,-0.227376 -0.217041,-0.06718 -0.697632,-0.06718 -0.47543,0 -0.692468,0.06718 -0.21704,0.06718 -0.29972,0.227376 -0.14469,0.279053 -0.21704,0.857829 -0.0672,0.573608 -0.0672,1.503783 0,0.806153 0.0568,1.364259 0.0568,0.558104 0.175699,0.826823 0.093,0.232544 0.289391,0.320393 0.201541,0.08268 0.75448,0.08268 z m 2.23759,-2.594157 q 0,1.111042 -0.14986,1.829345 -0.149871,0.718303 -0.454761,1.111044 -0.186029,0.237712 -0.583938,0.3514 -0.397912,0.113688 -1.049031,0.113688 -0.656291,0 -1.04903,-0.113688 -0.38758,-0.118856 -0.589121,-0.372071 -0.294551,-0.37207 -0.444411,-1.111043 -0.14986,-0.738973 -0.14986,-1.808675 0,-1.07487 0.14986,-1.81901 0.155033,-0.749309 0.444411,-1.121379 0.201541,-0.253214 0.589121,-0.37207 0.392739,-0.118856 1.04903,-0.118856 0.573609,0 0.961179,0.09819 0.387572,0.09302 0.58394,0.284221 0.341072,0.320393 0.516771,1.09554 0.1757,0.775146 0.1757,1.953369 z m -8.604131,2.594157 q 0.43408,0 0.645951,-0.05168 0.211881,-0.05684 0.31006,-0.180867 0.165369,-0.206706 0.242879,-0.790649 0.0827,-0.589112 0.0827,-1.570965 0,-0.935342 -0.0723,-1.514118 -0.0672,-0.578776 -0.211881,-0.847494 -0.0827,-0.160197 -0.29972,-0.227376 -0.21704,-0.06718 -0.69763,-0.06718 -0.475419,0 -0.69247,0.06718 -0.21704,0.06718 -0.29972,0.227376 -0.14469,0.279053 -0.21704,0.857829 -0.0672,0.573608 -0.0672,1.503783 0,0.806153 0.0568,1.364259 0.0568,0.558104 0.175699,0.826823 0.093,0.232544 0.289391,0.320393 0.201538,0.08268 0.754478,0.08268 z m 2.237591,-2.594157 q 0,1.111042 -0.14986,1.829345 -0.14987,0.718303 -0.45476,1.111044 -0.186031,0.237712 -0.583941,0.3514 -0.397909,0.113688 -1.04903,0.113688 -0.656289,0 -1.049028,-0.113688 -0.387581,-0.118856 -0.589111,-0.372071 -0.294561,-0.37207 -0.444421,-1.111043 -0.14986,-0.738973 -0.14986,-1.808675 0,-1.07487 0.14986,-1.81901 0.15503,-0.749309 0.444421,-1.121379 0.20153,-0.253214 0.589111,-0.37207 0.392739,-0.118856 1.049028,-0.118856 0.573611,0 0.961181,0.09819 0.387569,0.09302 0.58394,0.284221 0.341069,0.320393 0.516769,1.09554 0.175701,0.775146 0.175701,1.953369 z m -8.604131,2.594157 q 0.434092,0 0.64596,-0.05168 0.21187,-0.05684 0.310059,-0.180867 0.165362,-0.206706 0.242883,-0.790649 0.0827,-0.589112 0.0827,-1.570965 0,-0.935342 -0.0724,-1.514118 -0.0672,-0.578776 -0.211871,-0.847494 -0.0827,-0.160197 -0.29973,-0.227376 -0.21704,-0.06718 -0.69763,-0.06718 -0.475421,0 -0.692459,0.06718 -0.217041,0.06718 -0.29972,0.227376 -0.144701,0.279053 -0.217051,0.857829 -0.0672,0.573608 -0.0672,1.503783 0,0.806153 0.0568,1.364259 0.0568,0.558104 0.175699,0.826823 0.093,0.232544 0.289391,0.320393 0.201541,0.08268 0.75447,0.08268 z m 2.23759,-2.594157 q 0,1.111042 -0.14986,1.829345 -0.14986,0.718303 -0.45475,1.111044 -0.186039,0.237712 -0.583949,0.3514 -0.397902,0.113688 -1.049031,0.113688 -0.656291,0 -1.04903,-0.113688 -0.38757,-0.118856 -0.589108,-0.372071 -0.294561,-0.37207 -0.444422,-1.111043 -0.14986,-0.738973 -0.14986,-1.808675 0,-1.07487 0.14986,-1.81901 0.155031,-0.749309 0.444422,-1.121379 0.201538,-0.253214 0.589108,-0.37207 0.392739,-0.118856 1.04903,-0.118856 0.573612,0 0.961181,0.09819 0.387581,0.09302 0.583949,0.284221 0.341061,0.320393 0.51676,1.09554 0.1757,0.775146 0.1757,1.953369 z m -8.604122,2.594157 q 0.434081,0 0.645951,-0.05168 0.211881,-0.05684 0.31006,-0.180867 0.16537,-0.206706 0.24288,-0.790649 0.0827,-0.589112 0.0827,-1.570965 0,-0.935342 -0.0723,-1.514118 -0.0672,-0.578776 -0.211881,-0.847494 -0.0827,-0.160197 -0.29972,-0.227376 -0.217041,-0.06718 -0.69763,-0.06718 -0.47543,0 -0.69247,0.06718 -0.21704,0.06718 -0.29972,0.227376 -0.14469,0.279053 -0.21704,0.857829 -0.0672,0.573608 -0.0672,1.503783 0,0.806153 0.0568,1.364259 0.0568,0.558104 0.175699,0.826823 0.093,0.232544 0.28939,0.320393 0.201539,0.08268 0.754478,0.08268 z m 2.237592,-2.594157 q 0,1.111042 -0.14986,1.829345 -0.14987,0.718303 -0.45476,1.111044 -0.186032,0.237712 -0.583941,0.3514 -0.39791,0.113688 -1.049031,0.113688 -0.656288,0 -1.049028,-0.113688 -0.38758,-0.118856 -0.58911,-0.372071 -0.294561,-0.37207 -0.444421,-1.111043 -0.14986,-0.738973 -0.14986,-1.808675 0,-1.07487 0.14986,-1.81901 0.15503,-0.749309 0.444421,-1.121379 0.20153,-0.253214 0.58911,-0.37207 0.39274,-0.118856 1.049028,-0.118856 0.573612,0 0.961181,0.09819 0.38757,0.09302 0.583941,0.284221 0.341069,0.320393 0.516768,1.09554 0.175702,0.775146 0.175702,1.953369 z m -8.604131,2.594157 q 0.434081,0 0.645959,-0.05168 0.211871,-0.05684 0.310063,-0.180867 0.165359,-0.206706 0.242879,-0.790649 0.0827,-0.589112 0.0827,-1.570965 0,-0.935342 -0.0724,-1.514118 -0.0672,-0.578776 -0.211871,-0.847494 -0.0827,-0.160197 -0.29973,-0.227376 -0.217041,-0.06718 -0.69763,-0.06718 -0.475422,0 -0.692459,0.06718 -0.217041,0.06718 -0.29972,0.227376 -0.144701,0.279053 -0.217051,0.857829 -0.0672,0.573608 -0.0672,1.503783 0,0.806153 0.0568,1.364259 0.0568,0.558104 0.175702,0.826823 0.093,0.232544 0.289388,0.320393 0.20153,0.08268 0.75447,0.08268 z m 2.237589,-2.594157 q 0,1.111042 -0.14986,1.829345 -0.14986,0.718303 -0.45475,1.111044 -0.186039,0.237712 -0.583948,0.3514 -0.397902,0.113688 -1.049031,0.113688 -0.656291,0 -1.04903,-0.113688 -0.38757,-0.118856 -0.589108,-0.372071 -0.294561,-0.37207 -0.444421,-1.111043 -0.14986,-0.738973 -0.14986,-1.808675 0,-1.07487 0.14986,-1.81901 0.15503,-0.749309 0.444421,-1.121379 0.201538,-0.253214 0.589108,-0.37207 0.392739,-0.118856 1.04903,-0.118856 0.573612,0 0.961181,0.09819 0.38758,0.09302 0.583949,0.284221 0.341061,0.320393 0.51676,1.09554 0.175699,0.775146 0.175699,1.953369 z m -9.162229,0.170532 -1.715659,-3.028239 h 1.05937 l 1.193729,2.19108 1.21956,-2.19108 h 0.971521 l -1.648482,2.976563 1.74666,3.193603 h -1.049027 l -1.250572,-2.361614 -1.245399,2.361614 h -1.00769 z m -6.366539,0 -1.71565,-3.028239 h 1.059359 l 1.193732,2.19108 1.21956,-2.19108 h 0.97152 l -1.648481,2.976563 1.74666,3.193603 h -1.04903 l -1.250569,-2.361614 -1.245402,2.361614 h -1.007689 z m -6.24251,0.356568 -1.83968,-3.384807 h 1.049031 l 1.23507,2.371949 1.21956,-2.371949 h 0.961181 l -1.746661,3.291789 v 2.878377 h -0.878501 z m -6.07715,-0.50643 h 2.21176 v 3.028238 q -0.57878,0.196372 -0.98702,0.279054 -0.40825,0.08785 -0.75965,0.08785 -1.15238,0 -1.79834,-0.842326 -0.64595,-0.847493 -0.64595,-2.371948 0,-1.472778 0.66146,-2.299601 0.66145,-0.831991 1.81384,-0.831991 0.69246,0 1.14721,0.335897 0.45476,0.330729 0.56845,0.919841 h -0.91985 q -0.13435,-0.232544 -0.33589,-0.356568 -0.19637,-0.129191 -0.43925,-0.129191 -0.76481,0 -1.15755,0.594279 -0.38758,0.589111 -0.38758,1.756999 0,1.193725 0.37724,1.803507 0.38241,0.609782 1.12655,0.609782 0.18086,0 0.39274,-0.04651 0.21187,-0.05168 0.46509,-0.155029 v -1.57613 h -1.33326 z m -7.98917,-2.8267 h 3.66386 v 0.764811 h -2.78536 v 1.710489 h 2.44946 v 0.806153 h -2.44946 v 1.968872 h 2.87837 v 0.816488 h -3.75687 z m -5.4622002,0.795817 v 4.454508 q 0.8526602,-0.02584 1.3745902,-0.594279 0.5271,-0.568441 0.5271,-1.46761 0,-0.950847 -0.51676,-1.60197 -0.51677,-0.651123 -1.3849302,-0.790649 z m -0.8785,-0.795817 h 0.67696 q 1.3022502,0 2.1859102,0.909505 0.88367,0.904338 0.88367,2.201416 0,1.35909 -0.81649,2.160075 -0.81648,0.795817 -2.2117502,0.795817 h -0.7183 z m -6.1805,5.250325 h 1.11104 v -4.464843 h -0.91984 v -0.785482 h 2.73368 v 0.785482 h -0.925 v 4.464843 h 1.11621 v 0.816488 h -3.11609 z" />
  </g>
</svg>
