<?xml version="1.0" encoding="UTF-8" standalone="no"?>
<!-- Created with Inkscape (http://www.inkscape.org/) -->

<svg
   xmlns:dc="http://purl.org/dc/elements/1.1/"
   xmlns:cc="http://creativecommons.org/ns#"
   xmlns:rdf="http://www.w3.org/1999/02/22-rdf-syntax-ns#"
   xmlns:svg="http://www.w3.org/2000/svg"
   xmlns="http://www.w3.org/2000/svg"
   xmlns:sodipodi="http://sodipodi.sourceforge.net/DTD/sodipodi-0.dtd"
   xmlns:inkscape="http://www.inkscape.org/namespaces/inkscape"
   width="210mm"
   height="297mm"
   viewBox="0 0 210 297"
   version="1.1"
   id="svg8"
   inkscape:version="0.92.3 (2405546, 2018-03-11)"
   sodipodi:docname="SampleMRZ_Raw.svg">
  <defs
     id="defs2" />
  <sodipodi:namedview
     id="base"
     pagecolor="#ffffff"
     bordercolor="#666666"
     borderopacity="1.0"
     inkscape:pageopacity="0.0"
     inkscape:pageshadow="2"
     inkscape:zoom="0.98994949"
     inkscape:cx="-247.39518"
     inkscape:cy="687.72099"
     inkscape:document-units="mm"
     inkscape:current-layer="layer1"
     showgrid="false"
     inkscape:window-width="2560"
     inkscape:window-height="1017"
     inkscape:window-x="1912"
     inkscape:window-y="-8"
     inkscape:window-maximized="1" />
  <metadata
     id="metadata5">
    <rdf:RDF>
      <cc:Work
         rdf:about="">
        <dc:format>image/svg+xml</dc:format>
        <dc:type
           rdf:resource="http://purl.org/dc/dcmitype/StillImage" />
        <dc:title />
      </cc:Work>
    </rdf:RDF>
  </metadata>
  <g
     inkscape:label="Layer 1"
     inkscape:groupmode="layer"
     id="layer1">
    <text
       xml:space="preserve"
       style="font-style:normal;font-variant:normal;font-weight:normal;font-stretch:normal;font-size:10.58333302px;line-height:1.25;font-family:'OCR-B 10 BT';-inkscape-font-specification:'OCR-B 10 BT';letter-spacing:0px;word-spacing:0px;fill:#000000;fill-opacity:1;stroke:none;stroke-width:0.26458332;"
       x="-45.949211"
       y="85.748741"
       id="text817"><tspan
         sodipodi:role="line"
         id="tspan815"
         x="-45.949211"
         y="85.748741"
         style="font-style:normal;font-variant:normal;font-weight:normal;font-stretch:normal;font-family:'OCR-B 10 BT';-inkscape-font-specification:'OCR-B 10 BT';stroke-width:0.26458332;">I<tspan
   style="-inkscape-font-specification:'Courier New';font-family:'Courier New';font-weight:normal;font-style:normal;font-stretch:normal;font-variant:normal"
   id="tspan817">DEGYXX0000000000000000000000&lt;</tspan></tspan><tspan
         sodipodi:role="line"
         x="-45.949211"
         y="98.977905"
         style="font-style:normal;font-variant:normal;font-weight:normal;font-stretch:normal;font-family:'Courier New';-inkscape-font-specification:'Courier New';stroke-width:0.26458332"
         id="tspan819">0000000X0000000EGY&lt;&lt;&lt;&lt;&lt;&lt;&lt;&lt;&lt;&lt;&lt;5</tspan><tspan
         sodipodi:role="line"
         x="-45.949211"
         y="112.20707"
         style="font-style:normal;font-variant:normal;font-weight:normal;font-stretch:normal;font-family:'Courier New';-inkscape-font-specification:'Courier New';stroke-width:0.26458332"
         id="tspan821">XXXX&lt;&lt;XXXXX&lt;XXXXXXXX&lt;XXXXX&lt;&lt;&lt;&lt;</tspan></text>
    <path
       id="path1569"
       style="font-style:normal;font-variant:normal;font-weight:normal;font-stretch:normal;font-size:medium;line-height:1.25;font-family:'OCR-B 10 BT';-inkscape-font-specification:'OCR-B 10 BT';letter-spacing:0px;word-spacing:0px;fill:#000000;fill-opacity:1;stroke:none;stroke-width:0.26458332"
       d="m -11.605316,65.321714 -4.402832,-2.955892 v -0.304891 l 4.402832,-2.950724 v 1.100708 l -3.110921,1.999878 3.110921,1.999878 z m -6.366532,0 -4.402832,-2.955892 v -0.304891 l 4.402832,-2.950724 v 1.100708 l -3.110921,1.999878 3.110921,1.999878 z m -6.366546,0 -4.402832,-2.955892 v -0.304891 l 4.402832,-2.950724 v 1.100708 l -3.110921,1.999878 3.110921,1.999878 z m -6.366532,0 -4.402832,-2.955892 v -0.304891 l 4.402832,-2.950724 v 1.100708 l -3.110921,1.999878 3.110921,1.999878 z m -9.012364,-2.888712 -1.715658,-3.028239 h 1.059367 l 1.193726,2.191081 1.219563,-2.191081 h 0.971517 l -1.648478,2.976562 1.746663,3.193604 h -1.049031 l -1.25057,-2.361613 -1.245402,2.361613 h -1.00769 z m -6.366532,0 -1.715657,-3.028239 h 1.059367 l 1.193725,2.191081 1.219564,-2.191081 h 0.971517 l -1.648478,2.976562 1.746663,3.193604 h -1.049031 l -1.25057,-2.361613 -1.245402,2.361613 h -1.00769 z m -6.366546,0 -1.715658,-3.028239 h 1.059367 l 1.193726,2.191081 1.219563,-2.191081 h 0.971517 l -1.648478,2.976562 1.746663,3.193604 h -1.049031 l -1.25057,-2.361613 -1.245402,2.361613 h -1.00769 z m -6.366532,0 -1.715657,-3.028239 h 1.059367 l 1.193725,2.191081 1.219564,-2.191081 h 0.971517 l -1.648478,2.976562 1.746663,3.193604 h -1.049031 l -1.25057,-2.361613 -1.245402,2.361613 h -1.00769 z m -6.366531,0 -1.715658,-3.028239 h 1.059367 l 1.193726,2.191081 1.219564,-2.191081 h 0.971516 l -1.648478,2.976562 1.746664,3.193604 h -1.049032 l -1.250569,-2.361613 -1.245402,2.361613 h -1.007691 z m -3.720713,2.888712 -4.402832,-2.955892 v -0.304891 l 4.402832,-2.950724 v 1.100708 l -3.110922,1.999878 3.110922,1.999878 z m -9.012365,-2.888712 -1.715658,-3.028239 h 1.059367 l 1.193726,2.191081 1.219564,-2.191081 h 0.971516 l -1.648478,2.976562 1.746664,3.193604 h -1.049032 l -1.250569,-2.361613 -1.245402,2.361613 h -1.007691 z m -6.366539,0 -1.715658,-3.028239 h 1.059367 l 1.193726,2.191081 1.219564,-2.191081 h 0.971516 l -1.648478,2.976562 1.746664,3.193604 h -1.049032 l -1.250569,-2.361613 -1.245402,2.361613 h -1.007691 z m -6.366531,0 -1.715658,-3.028239 h 1.059367 l 1.193725,2.191081 1.219564,-2.191081 h 0.971517 l -1.648478,2.976562 1.746663,3.193604 h -1.049031 l -1.25057,-2.361613 -1.245402,2.361613 h -1.00769 z m -6.366539,0 -1.715658,-3.028239 h 1.059367 l 1.193725,2.191081 1.219564,-2.191081 h 0.971517 l -1.648478,2.976562 1.746663,3.193604 h -1.049031 l -1.25057,-2.361613 -1.245402,2.361613 h -1.00769 z m -6.366542,0 -1.71565,-3.028239 h 1.05936 l 1.19373,2.191081 1.21956,-2.191081 h 0.97152 l -1.64848,2.976562 1.74666,3.193604 h -1.04903 l -1.25057,-2.361613 -1.2454,2.361613 h -1.00769 z m -6.36653,0 -1.71566,-3.028239 h 1.05937 l 1.19373,2.191081 1.21956,-2.191081 h 0.97152 l -1.64848,2.976562 1.74666,3.193604 h -1.04903 l -1.25057,-2.361613 -1.2454,2.361613 h -1.00769 z m -6.36654,0 -1.71566,-3.028239 h 1.05937 l 1.19373,2.191081 1.21956,-2.191081 h 0.97152 l -1.64848,2.976562 1.74666,3.193604 h -1.04903 l -1.25057,-2.361613 -1.2454,2.361613 h -1.00769 z m -6.36653,0 -1.71566,-3.028239 h 1.05937 l 1.19373,2.191081 1.21956,-2.191081 h 0.97152 l -1.64848,2.976562 1.74666,3.193604 h -1.04903 l -1.25057,-2.361613 -1.2454,2.361613 h -1.00769 z m -3.7207,2.888712 -4.40284,-2.955892 v -0.304891 l 4.40284,-2.950724 v 1.100708 l -3.11093,1.999878 3.11093,1.999878 z m -9.01238,-2.888712 -1.71565,-3.028239 h 1.05936 l 1.19373,2.191081 1.21956,-2.191081 h 0.97152 l -1.64848,2.976562 1.74666,3.193604 h -1.04903 l -1.25057,-2.361613 -1.2454,2.361613 h -1.00769 z m -6.36653,0 -1.71566,-3.028239 h 1.05937 l 1.19372,2.191081 1.21957,-2.191081 h 0.97151 l -1.64847,2.976562 1.74666,3.193604 h -1.04903 l -1.25057,-2.361613 -1.2454,2.361613 h -1.0077 z m -6.36654,0 -1.71566,-3.028239 h 1.05937 l 1.19373,2.191081 1.21956,-2.191081 h 0.97152 l -1.64848,2.976562 1.74666,3.193604 h -1.04903 l -1.25057,-2.361613 -1.2454,2.361613 h -1.00769 z m -6.36653,0 -1.71566,-3.028239 h 1.05937 l 1.19372,2.191081 1.21957,-2.191081 h 0.97151 l -1.64848,2.976562 1.74667,3.193604 h -1.04903 l -1.25057,-2.361613 -1.24541,2.361613 h -1.00769 z m -6.36654,0 -1.71566,-3.028239 h 1.05937 l 1.19373,2.191081 1.21956,-2.191081 h 0.97152 l -1.64848,2.976562 1.74666,3.193604 h -1.04903 l -1.25057,-2.361613 -1.2454,2.361613 h -1.00769 z m -3.7207,2.888712 -4.40284,-2.955892 v -0.304891 l 4.40284,-2.950724 v 1.100708 l -3.11092,1.999878 3.11092,1.999878 z m -6.36654,0 -4.40283,-2.955892 v -0.304891 l 4.40283,-2.950724 v 1.100708 l -3.11092,1.999878 3.11092,1.999878 z m -9.01237,-2.888712 -1.71565,-3.028239 h 1.05936 l 1.19373,2.191081 1.21956,-2.191081 h 0.97152 l -1.64848,2.976562 1.74666,3.193604 h -1.04903 l -1.25057,-2.361613 -1.2454,2.361613 h -1.00769 z m -6.36653,0 -1.71566,-3.028239 h 1.05936 l 1.19373,2.191081 1.21956,-2.191081 h 0.97152 l -1.64848,2.976562 1.74667,3.193604 h -1.04904 l -1.25056,-2.361613 -1.24541,2.361613 h -1.00769 z m -6.36654,0 -1.71566,-3.028239 h 1.05937 l 1.19372,2.191081 1.21957,-2.191081 h 0.97151 l -1.64847,2.976562 1.74666,3.193604 h -1.04903 l -1.25057,-2.361613 -1.2454,2.361613 h -1.00769 z m -6.36654,0 -1.71565,-3.028239 h 1.05936 l 1.19373,2.191081 1.21956,-2.191081 h 0.97152 l -1.64848,2.976562 1.74666,3.193604 h -1.04903 l -1.25057,-2.361613 -1.2454,2.361613 h -1.00769 z M -15.320852,45.710509 h 3.322795 v 0.795817 h -2.495972 l -0.07235,1.374593 q 0.07752,-0.0052 0.170532,-0.0052 0.09302,-0.0052 0.284221,-0.0052 1.018025,0 1.663981,0.594279 0.651123,0.594278 0.651123,1.539957 0,1.126546 -0.930176,1.772502 -0.930176,0.640787 -2.573486,0.640787 h -0.253215 v -0.821655 q 0.06201,0.0052 0.134359,0.01034 0.07235,0 0.217041,0 1.167887,0 1.808675,-0.434082 0.645956,-0.434083 0.645956,-1.219564 0,-0.599447 -0.444418,-0.945679 -0.444417,-0.346232 -1.229899,-0.346232 -0.19637,0 -0.475423,0.02584 -0.273885,0.02067 -0.63562,0.06718 z m -2.650996,6.382039 -4.402832,-2.955892 v -0.304891 l 4.402832,-2.950724 v 1.100708 l -3.110921,1.999878 3.110921,1.999878 z m -6.366546,0 -4.402832,-2.955892 v -0.304891 l 4.402832,-2.950724 v 1.100708 l -3.110921,1.999878 3.110921,1.999878 z m -6.366532,0 -4.402832,-2.955892 v -0.304891 l 4.402832,-2.950724 v 1.100708 l -3.110921,1.999878 3.110921,1.999878 z m -6.366531,0 -4.402832,-2.955892 v -0.304891 l 4.402832,-2.950724 v 1.100708 l -3.110921,1.999878 3.110921,1.999878 z m -6.366531,0 -4.402832,-2.955892 v -0.304891 l 4.402832,-2.950724 v 1.100708 l -3.110922,1.999878 3.110922,1.999878 z m -6.366547,0 -4.402832,-2.955892 v -0.304891 l 4.402832,-2.950724 v 1.100708 l -3.110921,1.999878 3.110921,1.999878 z m -6.366531,0 -4.402832,-2.955892 v -0.304891 l 4.402832,-2.950724 v 1.100708 l -3.110922,1.999878 3.110922,1.999878 z m -6.366532,0 -4.402832,-2.955892 v -0.304891 l 4.402832,-2.950724 v 1.100708 l -3.110921,1.999878 3.110921,1.999878 z m -6.366546,0 -4.402832,-2.955892 v -0.304891 l 4.402832,-2.950724 v 1.100708 l -3.110922,1.999878 3.110922,1.999878 z m -6.366532,0 -4.402832,-2.955892 v -0.304891 l 4.402832,-2.950724 v 1.100708 l -3.110921,1.999878 3.110921,1.999878 z m -6.366539,0 -4.402832,-2.955892 v -0.304891 l 4.402832,-2.950724 v 1.100708 l -3.110921,1.999878 3.110921,1.999878 z m -8.888341,-2.532145 -1.839681,-3.384806 h 1.049032 l 1.235066,2.371948 1.219564,-2.371948 h 0.961182 l -1.746664,3.291788 v 2.878377 h -0.878499 z m -6.077151,-0.506429 h 2.211751 v 3.028239 q -0.578776,0.19637 -0.98702,0.279052 -0.408243,0.08785 -0.759643,0.08785 -1.152385,0 -1.79834,-0.842325 -0.645955,-0.847494 -0.645955,-2.371949 0,-1.472778 0.661458,-2.299601 0.661458,-0.83199 1.813843,-0.83199 0.692464,0 1.147216,0.335896 0.454753,0.33073 0.568441,0.919841 h -0.91984 q -0.134359,-0.232544 -0.335897,-0.356567 -0.19637,-0.129192 -0.43925,-0.129192 -0.764811,0 -1.157552,0.594279 -0.387573,0.589112 -0.387573,1.756999 0,1.193726 0.377238,1.803508 0.382406,0.609781 1.126546,0.609781 0.180868,0 0.392741,-0.04651 0.211873,-0.05168 0.465088,-0.15503 v -1.576131 h -1.333252 z m -7.989183,-2.826701 h 3.66386 v 0.764811 h -2.78536 v 1.71049 h 2.44947 v 0.806152 h -2.44947 v 1.968872 h 2.87838 v 0.816488 h -3.75688 z m -4.59919,5.400187 q 0.43408,0 0.64595,-0.05168 0.21188,-0.05684 0.31006,-0.180868 0.16537,-0.206706 0.24288,-0.790649 0.0827,-0.589112 0.0827,-1.570964 0,-0.935343 -0.0723,-1.514119 -0.0672,-0.578776 -0.21188,-0.847494 -0.0827,-0.160197 -0.29972,-0.227376 -0.21704,-0.06718 -0.69763,-0.06718 -0.47543,0 -0.69247,0.06718 -0.21704,0.06718 -0.29972,0.227376 -0.14469,0.279053 -0.21704,0.857829 -0.0672,0.573609 -0.0672,1.503784 0,0.806153 0.0568,1.364258 0.0568,0.558106 0.1757,0.826823 0.093,0.232544 0.28939,0.320394 0.20154,0.08268 0.75448,0.08268 z m 2.23759,-2.594157 q 0,1.111044 -0.14987,1.829346 -0.14986,0.718302 -0.45475,1.111043 -0.18603,0.237712 -0.58394,0.3514 -0.39791,0.113688 -1.04903,0.113688 -0.65629,0 -1.04903,-0.113688 -0.38758,-0.118856 -0.58912,-0.37207 -0.29455,-0.372071 -0.44441,-1.111044 -0.14987,-0.738973 -0.14987,-1.808675 0,-1.074869 0.14987,-1.81901 0.15503,-0.749308 0.44441,-1.121379 0.20154,-0.253214 0.58912,-0.37207 0.39274,-0.118856 1.04903,-0.118856 0.57361,0 0.96118,0.09819 0.38757,0.09302 0.58394,0.284221 0.34107,0.320394 0.51677,1.09554 0.1757,0.775147 0.1757,1.953369 z m -8.60413,2.594157 q 0.43408,0 0.64595,-0.05168 0.21188,-0.05684 0.31006,-0.180868 0.16537,-0.206706 0.24288,-0.790649 0.0827,-0.589112 0.0827,-1.570964 0,-0.935343 -0.0723,-1.514119 -0.0672,-0.578776 -0.21188,-0.847494 -0.0827,-0.160197 -0.29972,-0.227376 -0.21704,-0.06718 -0.69763,-0.06718 -0.47543,0 -0.69247,0.06718 -0.21704,0.06718 -0.29972,0.227376 -0.14469,0.279053 -0.21704,0.857829 -0.0672,0.573609 -0.0672,1.503784 0,0.806153 0.0568,1.364258 0.0569,0.558106 0.1757,0.826823 0.093,0.232544 0.28939,0.320394 0.20154,0.08268 0.75448,0.08268 z m 2.23759,-2.594157 q 0,1.111044 -0.14986,1.829346 -0.14987,0.718302 -0.45476,1.111043 -0.18603,0.237712 -0.58394,0.3514 -0.39791,0.113688 -1.04903,0.113688 -0.65629,0 -1.04903,-0.113688 -0.38758,-0.118856 -0.58912,-0.37207 -0.29455,-0.372071 -0.44441,-1.111044 -0.14986,-0.738973 -0.14986,-1.808675 0,-1.074869 0.14986,-1.81901 0.15503,-0.749308 0.44441,-1.121379 0.20154,-0.253214 0.58912,-0.37207 0.39274,-0.118856 1.04903,-0.118856 0.57361,0 0.96118,0.09819 0.38757,0.09302 0.58394,0.284221 0.34107,0.320394 0.51677,1.09554 0.1757,0.775147 0.1757,1.953369 z m -8.60412,2.594157 q 0.43408,0 0.64595,-0.05168 0.21188,-0.05684 0.31006,-0.180868 0.16536,-0.206706 0.24288,-0.790649 0.0827,-0.589112 0.0827,-1.570964 0,-0.935343 -0.0724,-1.514119 -0.0672,-0.578776 -0.21187,-0.847494 -0.0827,-0.160197 -0.29972,-0.227376 -0.21704,-0.06718 -0.69763,-0.06718 -0.47543,0 -0.69247,0.06718 -0.21704,0.06718 -0.29972,0.227376 -0.1447,0.279053 -0.21704,0.857829 -0.0672,0.573609 -0.0672,1.503784 0,0.806153 0.0568,1.364258 0.0568,0.558106 0.1757,0.826823 0.093,0.232544 0.28939,0.320394 0.20154,0.08268 0.75448,0.08268 z m 2.23759,-2.594157 q 0,1.111044 -0.14987,1.829346 -0.14986,0.718302 -0.45475,1.111043 -0.18603,0.237712 -0.58394,0.3514 -0.39791,0.113688 -1.04903,0.113688 -0.65629,0 -1.04904,-0.113688 -0.38757,-0.118856 -0.58911,-0.37207 -0.29455,-0.372071 -0.44441,-1.111044 -0.14987,-0.738973 -0.14987,-1.808675 0,-1.074869 0.14987,-1.81901 0.15503,-0.749308 0.44441,-1.121379 0.20154,-0.253214 0.58911,-0.37207 0.39275,-0.118856 1.04904,-0.118856 0.5736,0 0.96118,0.09819 0.38757,0.09302 0.58394,0.284221 0.34107,0.320394 0.51677,1.09554 0.1757,0.775147 0.1757,1.953369 z m -8.60413,2.594157 q 0.43408,0 0.64595,-0.05168 0.21188,-0.05684 0.31006,-0.180868 0.16537,-0.206706 0.24288,-0.790649 0.0827,-0.589112 0.0827,-1.570964 0,-0.935343 -0.0723,-1.514119 -0.0672,-0.578776 -0.21188,-0.847494 -0.0827,-0.160197 -0.29972,-0.227376 -0.21704,-0.06718 -0.69763,-0.06718 -0.47543,0 -0.69247,0.06718 -0.21704,0.06718 -0.29972,0.227376 -0.14469,0.279053 -0.21704,0.857829 -0.0672,0.573609 -0.0672,1.503784 0,0.806153 0.0568,1.364258 0.0568,0.558106 0.1757,0.826823 0.093,0.232544 0.28939,0.320394 0.20154,0.08268 0.75448,0.08268 z m 2.23759,-2.594157 q 0,1.111044 -0.14986,1.829346 -0.14987,0.718302 -0.45476,1.111043 -0.18603,0.237712 -0.58394,0.3514 -0.39791,0.113688 -1.04903,0.113688 -0.65629,0 -1.04903,-0.113688 -0.38758,-0.118856 -0.58912,-0.37207 -0.29455,-0.372071 -0.44441,-1.111044 -0.14986,-0.738973 -0.14986,-1.808675 0,-1.074869 0.14986,-1.81901 0.15503,-0.749308 0.44441,-1.121379 0.20154,-0.253214 0.58912,-0.37207 0.39274,-0.118856 1.04903,-0.118856 0.57361,0 0.96118,0.09819 0.38757,0.09302 0.58394,0.284221 0.34107,0.320394 0.51677,1.09554 0.1757,0.775147 0.1757,1.953369 z m -8.60413,2.594157 q 0.43408,0 0.64595,-0.05168 0.21188,-0.05684 0.31006,-0.180868 0.16537,-0.206706 0.24288,-0.790649 0.0827,-0.589112 0.0827,-1.570964 0,-0.935343 -0.0723,-1.514119 -0.0672,-0.578776 -0.21188,-0.847494 -0.0827,-0.160197 -0.29972,-0.227376 -0.21704,-0.06718 -0.69763,-0.06718 -0.47542,0 -0.69247,0.06718 -0.21704,0.06718 -0.29972,0.227376 -0.14469,0.279053 -0.21704,0.857829 -0.0672,0.573609 -0.0672,1.503784 0,0.806153 0.0568,1.364258 0.0568,0.558106 0.1757,0.826823 0.093,0.232544 0.28939,0.320394 0.20154,0.08268 0.75448,0.08268 z m 2.23759,-2.594157 q 0,1.111044 -0.14986,1.829346 -0.14987,0.718302 -0.45476,1.111043 -0.18603,0.237712 -0.58394,0.3514 -0.39791,0.113688 -1.04903,0.113688 -0.65629,0 -1.04903,-0.113688 -0.38758,-0.118856 -0.58911,-0.37207 -0.29456,-0.372071 -0.44442,-1.111044 -0.14986,-0.738973 -0.14986,-1.808675 0,-1.074869 0.14986,-1.81901 0.15503,-0.749308 0.44442,-1.121379 0.20153,-0.253214 0.58911,-0.37207 0.39274,-0.118856 1.04903,-0.118856 0.57361,0 0.96118,0.09819 0.38757,0.09302 0.58394,0.284221 0.34107,0.320394 0.51677,1.09554 0.1757,0.775147 0.1757,1.953369 z m -8.60413,2.594157 q 0.43409,0 0.64596,-0.05168 0.21187,-0.05684 0.31006,-0.180868 0.16536,-0.206706 0.24288,-0.790649 0.0827,-0.589112 0.0827,-1.570964 0,-0.935343 -0.0724,-1.514119 -0.0672,-0.578776 -0.21187,-0.847494 -0.0827,-0.160197 -0.29973,-0.227376 -0.21704,-0.06718 -0.69763,-0.06718 -0.47542,0 -0.69246,0.06718 -0.21704,0.06718 -0.29972,0.227376 -0.1447,0.279053 -0.21705,0.857829 -0.0672,0.573609 -0.0672,1.503784 0,0.806153 0.0568,1.364258 0.0568,0.558106 0.1757,0.826823 0.093,0.232544 0.28939,0.320394 0.20154,0.08268 0.75447,0.08268 z m 2.23759,-2.594157 q 0,1.111044 -0.14986,1.829346 -0.14986,0.718302 -0.45475,1.111043 -0.18604,0.237712 -0.58395,0.3514 -0.3979,0.113688 -1.04903,0.113688 -0.65629,0 -1.04903,-0.113688 -0.38757,-0.118856 -0.58911,-0.37207 -0.29456,-0.372071 -0.44442,-1.111044 -0.14986,-0.738973 -0.14986,-1.808675 0,-1.074869 0.14986,-1.81901 0.15503,-0.749308 0.44442,-1.121379 0.20154,-0.253214 0.58911,-0.37207 0.39274,-0.118856 1.04903,-0.118856 0.57361,0 0.96118,0.09819 0.38758,0.09302 0.58395,0.284221 0.34106,0.320394 0.51676,1.09554 0.1757,0.775147 0.1757,1.953369 z m -8.60412,2.594157 q 0.43408,0 0.64595,-0.05168 0.21188,-0.05684 0.31006,-0.180868 0.16537,-0.206706 0.24288,-0.790649 0.0827,-0.589112 0.0827,-1.570964 0,-0.935343 -0.0723,-1.514119 -0.0672,-0.578776 -0.21188,-0.847494 -0.0827,-0.160197 -0.29972,-0.227376 -0.21704,-0.06718 -0.69763,-0.06718 -0.47543,0 -0.69247,0.06718 -0.21704,0.06718 -0.29972,0.227376 -0.14469,0.279053 -0.21704,0.857829 -0.0672,0.573609 -0.0672,1.503784 0,0.806153 0.0568,1.364258 0.0568,0.558106 0.1757,0.826823 0.093,0.232544 0.28939,0.320394 0.20154,0.08268 0.75448,0.08268 z m 2.23759,-2.594157 q 0,1.111044 -0.14986,1.829346 -0.14987,0.718302 -0.45476,1.111043 -0.18603,0.237712 -0.58394,0.3514 -0.39791,0.113688 -1.04903,0.113688 -0.65629,0 -1.04903,-0.113688 -0.38758,-0.118856 -0.58911,-0.37207 -0.29456,-0.372071 -0.44442,-1.111044 -0.14986,-0.738973 -0.14986,-1.808675 0,-1.074869 0.14986,-1.81901 0.15503,-0.749308 0.44442,-1.121379 0.20153,-0.253214 0.58911,-0.37207 0.39274,-0.118856 1.04903,-0.118856 0.57361,0 0.96118,0.09819 0.38757,0.09302 0.58394,0.284221 0.34107,0.320394 0.51677,1.09554 0.1757,0.775147 0.1757,1.953369 z m -9.16223,0.170533 -1.71566,-3.028239 h 1.05937 l 1.19372,2.19108 1.21957,-2.19108 h 0.97151 l -1.64848,2.976562 1.74667,3.193603 h -1.04903 l -1.25057,-2.361612 -1.24541,2.361612 h -1.00769 z m -5.80843,2.423624 q 0.43408,0 0.64595,-0.05168 0.21188,-0.05684 0.31006,-0.180868 0.16537,-0.206706 0.24288,-0.790649 0.0827,-0.589112 0.0827,-1.570964 0,-0.935343 -0.0723,-1.514119 -0.0672,-0.578776 -0.21188,-0.847494 -0.0827,-0.160197 -0.29972,-0.227376 -0.21704,-0.06718 -0.69763,-0.06718 -0.47543,0 -0.69247,0.06718 -0.21704,0.06718 -0.29972,0.227376 -0.14469,0.279053 -0.21704,0.857829 -0.0672,0.573609 -0.0672,1.503784 0,0.806153 0.0568,1.364258 0.0568,0.558106 0.1757,0.826823 0.093,0.232544 0.28939,0.320394 0.20154,0.08268 0.75448,0.08268 z m 2.23759,-2.594157 q 0,1.111044 -0.14986,1.829346 -0.14987,0.718302 -0.45476,1.111043 -0.18603,0.237712 -0.58394,0.3514 -0.39791,0.113688 -1.04903,0.113688 -0.65629,0 -1.04903,-0.113688 -0.38758,-0.118856 -0.58912,-0.37207 -0.29455,-0.372071 -0.44441,-1.111044 -0.14986,-0.738973 -0.14986,-1.808675 0,-1.074869 0.14986,-1.81901 0.15503,-0.749308 0.44441,-1.121379 0.20154,-0.253214 0.58912,-0.37207 0.39274,-0.118856 1.04903,-0.118856 0.57361,0 0.96118,0.09819 0.38757,0.09302 0.58394,0.284221 0.34107,0.320394 0.51677,1.09554 0.1757,0.775147 0.1757,1.953369 z m -8.60413,2.594157 q 0.43408,0 0.64595,-0.05168 0.21188,-0.05684 0.31006,-0.180868 0.16537,-0.206706 0.24288,-0.790649 0.0827,-0.589112 0.0827,-1.570964 0,-0.935343 -0.0723,-1.514119 -0.0672,-0.578776 -0.21188,-0.847494 -0.0827,-0.160197 -0.29972,-0.227376 -0.21704,-0.06718 -0.69763,-0.06718 -0.47542,0 -0.69247,0.06718 -0.21704,0.06718 -0.29972,0.227376 -0.14469,0.279053 -0.21704,0.857829 -0.0672,0.573609 -0.0672,1.503784 0,0.806153 0.0568,1.364258 0.0569,0.558106 0.1757,0.826823 0.093,0.232544 0.28939,0.320394 0.20154,0.08268 0.75448,0.08268 z m 2.23759,-2.594157 q 0,1.111044 -0.14986,1.829346 -0.14987,0.718302 -0.45476,1.111043 -0.18603,0.237712 -0.58394,0.3514 -0.39791,0.113688 -1.04903,0.113688 -0.65629,0 -1.04903,-0.113688 -0.38758,-0.118856 -0.58911,-0.37207 -0.29456,-0.372071 -0.44442,-1.111044 -0.14986,-0.738973 -0.14986,-1.808675 0,-1.074869 0.14986,-1.81901 0.15503,-0.749308 0.44442,-1.121379 0.20153,-0.253214 0.58911,-0.37207 0.39274,-0.118856 1.04903,-0.118856 0.57361,0 0.96118,0.09819 0.38757,0.09302 0.58394,0.284221 0.34107,0.320394 0.51677,1.09554 0.1757,0.775147 0.1757,1.953369 z m -8.60413,2.594157 q 0.43409,0 0.64596,-0.05168 0.21187,-0.05684 0.31006,-0.180868 0.16536,-0.206706 0.24288,-0.790649 0.0827,-0.589112 0.0827,-1.570964 0,-0.935343 -0.0724,-1.514119 -0.0672,-0.578776 -0.21187,-0.847494 -0.0827,-0.160197 -0.29972,-0.227376 -0.21705,-0.06718 -0.69764,-0.06718 -0.47542,0 -0.69246,0.06718 -0.21704,0.06718 -0.29972,0.227376 -0.1447,0.279053 -0.21705,0.857829 -0.0672,0.573609 -0.0672,1.503784 0,0.806153 0.0568,1.364258 0.0568,0.558106 0.1757,0.826823 0.093,0.232544 0.28939,0.320394 0.20154,0.08268 0.75447,0.08268 z m 2.23759,-2.594157 q 0,1.111044 -0.14986,1.829346 -0.14986,0.718302 -0.45475,1.111043 -0.18604,0.237712 -0.58395,0.3514 -0.3979,0.113688 -1.04903,0.113688 -0.65629,0 -1.04903,-0.113688 -0.38757,-0.118856 -0.58911,-0.37207 -0.29456,-0.372071 -0.44442,-1.111044 -0.14986,-0.738973 -0.14986,-1.808675 0,-1.074869 0.14986,-1.81901 0.15503,-0.749308 0.44442,-1.121379 0.20154,-0.253214 0.58911,-0.37207 0.39274,-0.118856 1.04903,-0.118856 0.57361,0 0.96118,0.09819 0.38758,0.09302 0.58395,0.284221 0.34106,0.320394 0.51676,1.09554 0.1757,0.775147 0.1757,1.953369 z m -8.60412,2.594157 q 0.43408,0 0.64595,-0.05168 0.21188,-0.05684 0.31006,-0.180868 0.16537,-0.206706 0.24288,-0.790649 0.0827,-0.589112 0.0827,-1.570964 0,-0.935343 -0.0723,-1.514119 -0.0672,-0.578776 -0.21188,-0.847494 -0.0827,-0.160197 -0.29972,-0.227376 -0.21704,-0.06718 -0.69763,-0.06718 -0.47543,0 -0.69247,0.06718 -0.21704,0.06718 -0.29972,0.227376 -0.14469,0.279053 -0.21704,0.857829 -0.0672,0.573609 -0.0672,1.503784 0,0.806153 0.0568,1.364258 0.0568,0.558106 0.1757,0.826823 0.093,0.232544 0.28939,0.320394 0.20154,0.08268 0.75448,0.08268 z m 2.23759,-2.594157 q 0,1.111044 -0.14986,1.829346 -0.14987,0.718302 -0.45476,1.111043 -0.18603,0.237712 -0.58394,0.3514 -0.39791,0.113688 -1.04903,0.113688 -0.65629,0 -1.04903,-0.113688 -0.38758,-0.118856 -0.58911,-0.37207 -0.29456,-0.372071 -0.44442,-1.111044 -0.14986,-0.738973 -0.14986,-1.808675 0,-1.074869 0.14986,-1.81901 0.15503,-0.749308 0.44442,-1.121379 0.20153,-0.253214 0.58911,-0.37207 0.39274,-0.118856 1.04903,-0.118856 0.57361,0 0.96118,0.09819 0.38757,0.09302 0.58394,0.284221 0.34107,0.320394 0.51677,1.09554 0.1757,0.775147 0.1757,1.953369 z m -8.60413,2.594157 q 0.43408,0 0.64596,-0.05168 0.21187,-0.05684 0.31006,-0.180868 0.16536,-0.206706 0.24287,-0.790649 0.0827,-0.589112 0.0827,-1.570964 0,-0.935343 -0.0724,-1.514119 -0.0672,-0.578776 -0.21187,-0.847494 -0.0827,-0.160197 -0.29973,-0.227376 -0.21704,-0.06718 -0.69763,-0.06718 -0.47542,0 -0.69246,0.06718 -0.21704,0.06718 -0.29973,0.227376 -0.14469,0.279053 -0.21704,0.857829 -0.0672,0.573609 -0.0672,1.503784 0,0.806153 0.0568,1.364258 0.0568,0.558106 0.1757,0.826823 0.093,0.232544 0.28939,0.320394 0.20153,0.08268 0.75447,0.08268 z m 2.23759,-2.594157 q 0,1.111044 -0.14986,1.829346 -0.14986,0.718302 -0.45475,1.111043 -0.18604,0.237712 -0.58395,0.3514 -0.39791,0.113688 -1.04903,0.113688 -0.65629,0 -1.04903,-0.113688 -0.38757,-0.118856 -0.58911,-0.37207 -0.29456,-0.372071 -0.44442,-1.111044 -0.14986,-0.738973 -0.14986,-1.808675 0,-1.074869 0.14986,-1.81901 0.15503,-0.749308 0.44442,-1.121379 0.20154,-0.253214 0.58911,-0.37207 0.39274,-0.118856 1.04903,-0.118856 0.57361,0 0.96118,0.09819 0.38758,0.09302 0.58395,0.284221 0.34106,0.320394 0.51676,1.09554 0.1757,0.775147 0.1757,1.953369 z m -8.60413,2.594157 q 0.43409,0 0.64596,-0.05168 0.21187,-0.05684 0.31006,-0.180868 0.16536,-0.206706 0.24288,-0.790649 0.0827,-0.589112 0.0827,-1.570964 0,-0.935343 -0.0724,-1.514119 -0.0672,-0.578776 -0.21187,-0.847494 -0.0827,-0.160197 -0.29972,-0.227376 -0.21704,-0.06718 -0.69764,-0.06718 -0.47542,0 -0.69246,0.06718 -0.21704,0.06718 -0.29972,0.227376 -0.1447,0.279053 -0.21704,0.857829 -0.0672,0.573609 -0.0672,1.503784 0,0.806153 0.0568,1.364258 0.0568,0.558106 0.1757,0.826823 0.093,0.232544 0.28939,0.320394 0.20154,0.08268 0.75447,0.08268 z m 2.23759,-2.594157 q 0,1.111044 -0.14986,1.829346 -0.14986,0.718302 -0.45475,1.111043 -0.18604,0.237712 -0.58394,0.3514 -0.39791,0.113688 -1.04904,0.113688 -0.65629,0 -1.04903,-0.113688 -0.38757,-0.118856 -0.58911,-0.37207 -0.29455,-0.372071 -0.44442,-1.111044 -0.14986,-0.738973 -0.14986,-1.808675 0,-1.074869 0.14986,-1.81901 0.15503,-0.749308 0.44442,-1.121379 0.20154,-0.253214 0.58911,-0.37207 0.39274,-0.118856 1.04903,-0.118856 0.57361,0 0.96119,0.09819 0.38757,0.09302 0.58394,0.284221 0.34106,0.320394 0.51676,1.09554 0.1757,0.775147 0.1757,1.953369 z m -8.60412,2.594157 q 0.43408,0 0.64595,-0.05168 0.21188,-0.05684 0.31006,-0.180868 0.16537,-0.206706 0.24288,-0.790649 0.0827,-0.589112 0.0827,-1.570964 0,-0.935343 -0.0723,-1.514119 -0.0672,-0.578776 -0.21188,-0.847494 -0.0827,-0.160197 -0.29972,-0.227376 -0.21704,-0.06718 -0.69763,-0.06718 -0.47542,0 -0.69247,0.06718 -0.21704,0.06718 -0.29972,0.227376 -0.14469,0.279053 -0.21704,0.857829 -0.0672,0.573609 -0.0672,1.503784 0,0.806153 0.0568,1.364258 0.0568,0.558106 0.1757,0.826823 0.093,0.232544 0.28939,0.320394 0.20154,0.08268 0.75448,0.08268 z m 2.23759,-2.594157 q 0,1.111044 -0.14986,1.829346 -0.14987,0.718302 -0.45476,1.111043 -0.18603,0.237712 -0.58394,0.3514 -0.39791,0.113688 -1.04903,0.113688 -0.65629,0 -1.04903,-0.113688 -0.38758,-0.118856 -0.58911,-0.37207 -0.29456,-0.372071 -0.44442,-1.111044 -0.14986,-0.738973 -0.14986,-1.808675 0,-1.074869 0.14986,-1.81901 0.15503,-0.749308 0.44442,-1.121379 0.20153,-0.253214 0.58911,-0.37207 0.39274,-0.118856 1.04903,-0.118856 0.57361,0 0.96118,0.09819 0.38757,0.09302 0.58394,0.284221 0.34107,0.320394 0.51677,1.09554 0.1757,0.775147 0.1757,1.953369 z M -11.605316,38.863382 -16.008148,35.90749 v -0.304891 l 4.402832,-2.950724 v 1.100708 l -3.110921,1.999878 3.110921,1.999877 z m -8.454259,-0.465088 q 0.434082,0 0.645955,-0.05168 0.211873,-0.05684 0.310058,-0.180867 0.165365,-0.206706 0.24288,-0.790649 0.08268,-0.589112 0.08268,-1.570964 0,-0.935343 -0.07235,-1.514119 -0.06718,-0.578776 -0.211873,-0.847494 -0.08268,-0.160197 -0.299724,-0.227376 -0.217041,-0.06718 -0.697631,-0.06718 -0.475424,0 -0.692465,0.06718 -0.217041,0.06718 -0.299723,0.227376 -0.144694,0.279053 -0.217041,0.857829 -0.06718,0.573608 -0.06718,1.503784 0,0.806152 0.05684,1.364258 0.05684,0.558105 0.1757,0.826823 0.09302,0.232544 0.289388,0.320394 0.201538,0.08268 0.754476,0.08268 z m 2.237589,-2.594157 q 0,1.111043 -0.149862,1.829346 -0.149861,0.718302 -0.454752,1.111043 -0.186035,0.237712 -0.583944,0.3514 -0.397908,0.113688 -1.049031,0.113688 -0.656291,0 -1.049032,-0.113688 -0.387573,-0.118856 -0.589111,-0.372071 -0.294556,-0.37207 -0.444418,-1.111043 -0.149861,-0.738973 -0.149861,-1.808675 0,-1.07487 0.149861,-1.81901 0.15503,-0.749309 0.444418,-1.121379 0.201538,-0.253214 0.589111,-0.37207 0.392741,-0.118856 1.049032,-0.118856 0.573608,0 0.961181,0.09819 0.387573,0.09302 0.583944,0.284221 0.341064,0.320393 0.516764,1.09554 0.1757,0.775146 0.1757,1.953369 z m -8.604136,2.594157 q 0.434082,0 0.645955,-0.05168 0.211874,-0.05684 0.310059,-0.180867 0.165364,-0.206706 0.242879,-0.790649 0.08268,-0.589112 0.08268,-1.570964 0,-0.935343 -0.07235,-1.514119 -0.06718,-0.578776 -0.211873,-0.847494 -0.08268,-0.160197 -0.299723,-0.227376 -0.217041,-0.06718 -0.697632,-0.06718 -0.475423,0 -0.692464,0.06718 -0.217041,0.06718 -0.299724,0.227376 -0.144694,0.279053 -0.217041,0.857829 -0.06718,0.573608 -0.06718,1.503784 0,0.806152 0.05684,1.364258 0.05684,0.558105 0.1757,0.826823 0.09302,0.232544 0.289388,0.320394 0.201538,0.08268 0.754476,0.08268 z m 2.237589,-2.594157 q 0,1.111043 -0.149861,1.829346 -0.149862,0.718302 -0.454753,1.111043 -0.186035,0.237712 -0.583944,0.3514 -0.397908,0.113688 -1.049031,0.113688 -0.656291,0 -1.049032,-0.113688 -0.387573,-0.118856 -0.589111,-0.372071 -0.294556,-0.37207 -0.444417,-1.111043 -0.149862,-0.738973 -0.149862,-1.808675 0,-1.07487 0.149862,-1.81901 0.155029,-0.749309 0.444417,-1.121379 0.201538,-0.253214 0.589111,-0.37207 0.392741,-0.118856 1.049032,-0.118856 0.573608,0 0.961181,0.09819 0.387574,0.09302 0.583944,0.284221 0.341065,0.320393 0.516764,1.09554 0.1757,0.775146 0.1757,1.953369 z m -8.60412,2.594157 q 0.434082,0 0.645955,-0.05168 0.211873,-0.05684 0.310058,-0.180867 0.165365,-0.206706 0.24288,-0.790649 0.08268,-0.589112 0.08268,-1.570964 0,-0.935343 -0.07235,-1.514119 -0.06718,-0.578776 -0.211873,-0.847494 -0.08268,-0.160197 -0.299724,-0.227376 -0.217041,-0.06718 -0.697631,-0.06718 -0.475424,0 -0.692465,0.06718 -0.217041,0.06718 -0.299723,0.227376 -0.144694,0.279053 -0.217041,0.857829 -0.06718,0.573608 -0.06718,1.503784 0,0.806152 0.05684,1.364258 0.05684,0.558105 0.1757,0.826823 0.09302,0.232544 0.289388,0.320394 0.201538,0.08268 0.754476,0.08268 z m 2.237589,-2.594157 q 0,1.111043 -0.149862,1.829346 -0.149861,0.718302 -0.454752,1.111043 -0.186035,0.237712 -0.583944,0.3514 -0.397908,0.113688 -1.049031,0.113688 -0.656291,0 -1.049032,-0.113688 -0.387573,-0.118856 -0.589111,-0.372071 -0.294556,-0.37207 -0.444418,-1.111043 -0.149861,-0.738973 -0.149861,-1.808675 0,-1.07487 0.149861,-1.81901 0.15503,-0.749309 0.444418,-1.121379 0.201538,-0.253214 0.589111,-0.37207 0.392741,-0.118856 1.049032,-0.118856 0.573608,0 0.961181,0.09819 0.387573,0.09302 0.583944,0.284221 0.341064,0.320393 0.516764,1.09554 0.1757,0.775146 0.1757,1.953369 z m -8.604121,2.594157 q 0.434082,0 0.645956,-0.05168 0.211873,-0.05684 0.310058,-0.180867 0.165365,-0.206706 0.242879,-0.790649 0.08268,-0.589112 0.08268,-1.570964 0,-0.935343 -0.07235,-1.514119 -0.06718,-0.578776 -0.211874,-0.847494 -0.08268,-0.160197 -0.299723,-0.227376 -0.217041,-0.06718 -0.697632,-0.06718 -0.475423,0 -0.692464,0.06718 -0.217041,0.06718 -0.299723,0.227376 -0.144694,0.279053 -0.217041,0.857829 -0.06718,0.573608 -0.06718,1.503784 0,0.806152 0.05684,1.364258 0.05684,0.558105 0.1757,0.826823 0.09302,0.232544 0.289388,0.320394 0.201538,0.08268 0.754476,0.08268 z m 2.23759,-2.594157 q 0,1.111043 -0.149862,1.829346 -0.149862,0.718302 -0.454753,1.111043 -0.186035,0.237712 -0.583943,0.3514 -0.397909,0.113688 -1.049032,0.113688 -0.656291,0 -1.049031,-0.113688 -0.387574,-0.118856 -0.589112,-0.372071 -0.294555,-0.37207 -0.444417,-1.111043 -0.149862,-0.738973 -0.149862,-1.808675 0,-1.07487 0.149862,-1.81901 0.155029,-0.749309 0.444417,-1.121379 0.201538,-0.253214 0.589112,-0.37207 0.39274,-0.118856 1.049031,-0.118856 0.573609,0 0.961182,0.09819 0.387573,0.09302 0.583943,0.284221 0.341065,0.320393 0.516765,1.09554 0.1757,0.775146 0.1757,1.953369 z m -8.604121,2.594157 q 0.434082,0 0.645955,-0.05168 0.211874,-0.05684 0.310059,-0.180867 0.165364,-0.206706 0.242879,-0.790649 0.08268,-0.589112 0.08268,-1.570964 0,-0.935343 -0.07235,-1.514119 -0.06718,-0.578776 -0.211873,-0.847494 -0.08268,-0.160197 -0.299723,-0.227376 -0.217041,-0.06718 -0.697632,-0.06718 -0.475423,0 -0.692464,0.06718 -0.217041,0.06718 -0.299724,0.227376 -0.144694,0.279053 -0.217041,0.857829 -0.06718,0.573608 -0.06718,1.503784 0,0.806152 0.05684,1.364258 0.05684,0.558105 0.1757,0.826823 0.09302,0.232544 0.289388,0.320394 0.201538,0.08268 0.754476,0.08268 z m 2.237589,-2.594157 q 0,1.111043 -0.149861,1.829346 -0.149862,0.718302 -0.454753,1.111043 -0.186035,0.237712 -0.583944,0.3514 -0.397908,0.113688 -1.049031,0.113688 -0.656291,0 -1.049032,-0.113688 -0.387573,-0.118856 -0.589111,-0.372071 -0.294556,-0.37207 -0.444417,-1.111043 -0.149862,-0.738973 -0.149862,-1.808675 0,-1.07487 0.149862,-1.81901 0.155029,-0.749309 0.444417,-1.121379 0.201538,-0.253214 0.589111,-0.37207 0.392741,-0.118856 1.049032,-0.118856 0.573608,0 0.961181,0.09819 0.387574,0.09302 0.583944,0.284221 0.341064,0.320393 0.516764,1.09554 0.1757,0.775146 0.1757,1.953369 z m -8.604136,2.594157 q 0.434082,0 0.645956,-0.05168 0.211873,-0.05684 0.310058,-0.180867 0.165365,-0.206706 0.242879,-0.790649 0.08268,-0.589112 0.08268,-1.570964 0,-0.935343 -0.07235,-1.514119 -0.06718,-0.578776 -0.211874,-0.847494 -0.08268,-0.160197 -0.299723,-0.227376 -0.217041,-0.06718 -0.697632,-0.06718 -0.475423,0 -0.692464,0.06718 -0.217041,0.06718 -0.299723,0.227376 -0.144694,0.279053 -0.217041,0.857829 -0.06718,0.573608 -0.06718,1.503784 0,0.806152 0.05684,1.364258 0.05684,0.558105 0.1757,0.826823 0.09302,0.232544 0.289388,0.320394 0.201538,0.08268 0.754476,0.08268 z m 2.23759,-2.594157 q 0,1.111043 -0.149862,1.829346 -0.149862,0.718302 -0.454753,1.111043 -0.186035,0.237712 -0.583943,0.3514 -0.397909,0.113688 -1.049032,0.113688 -0.656291,0 -1.049031,-0.113688 -0.387574,-0.118856 -0.589112,-0.372071 -0.294555,-0.37207 -0.444417,-1.111043 -0.149862,-0.738973 -0.149862,-1.808675 0,-1.07487 0.149862,-1.81901 0.155029,-0.749309 0.444417,-1.121379 0.201538,-0.253214 0.589112,-0.37207 0.39274,-0.118856 1.049031,-0.118856 0.573609,0 0.961182,0.09819 0.387573,0.09302 0.583943,0.284221 0.341065,0.320393 0.516765,1.09554 0.1757,0.775146 0.1757,1.953369 z m -8.604121,2.594157 q 0.434082,0 0.645955,-0.05168 0.211874,-0.05684 0.310059,-0.180867 0.165364,-0.206706 0.242879,-0.790649 0.08268,-0.589112 0.08268,-1.570964 0,-0.935343 -0.07235,-1.514119 -0.06718,-0.578776 -0.211873,-0.847494 -0.08268,-0.160197 -0.299723,-0.227376 -0.217041,-0.06718 -0.697632,-0.06718 -0.475423,0 -0.692464,0.06718 -0.217041,0.06718 -0.299724,0.227376 -0.144694,0.279053 -0.217041,0.857829 -0.06718,0.573608 -0.06718,1.503784 0,0.806152 0.05684,1.364258 0.05684,0.558105 0.1757,0.826823 0.09302,0.232544 0.289388,0.320394 0.201538,0.08268 0.754476,0.08268 z m 2.237589,-2.594157 q 0,1.111043 -0.149861,1.829346 -0.149862,0.718302 -0.454753,1.111043 -0.186035,0.237712 -0.583944,0.3514 -0.397908,0.113688 -1.049031,0.113688 -0.656291,0 -1.049032,-0.113688 -0.387573,-0.118856 -0.589111,-0.372071 -0.294556,-0.37207 -0.444417,-1.111043 -0.149862,-0.738973 -0.149862,-1.808675 0,-1.07487 0.149862,-1.81901 0.155029,-0.749309 0.444417,-1.121379 0.201538,-0.253214 0.589111,-0.37207 0.392741,-0.118856 1.049032,-0.118856 0.573608,0 0.961181,0.09819 0.387574,0.09302 0.583944,0.284221 0.341064,0.320393 0.516764,1.09554 0.1757,0.775146 0.1757,1.953369 z m -8.604121,2.594157 q 0.434082,0 0.645956,-0.05168 0.211873,-0.05684 0.310058,-0.180867 0.165365,-0.206706 0.24288,-0.790649 0.08268,-0.589112 0.08268,-1.570964 0,-0.935343 -0.07235,-1.514119 -0.06718,-0.578776 -0.211874,-0.847494 -0.08268,-0.160197 -0.299723,-0.227376 -0.217041,-0.06718 -0.697632,-0.06718 -0.475423,0 -0.692464,0.06718 -0.217041,0.06718 -0.299723,0.227376 -0.144694,0.279053 -0.217041,0.857829 -0.06718,0.573608 -0.06718,1.503784 0,0.806152 0.05684,1.364258 0.05684,0.558105 0.175699,0.826823 0.09302,0.232544 0.289388,0.320394 0.201539,0.08268 0.754476,0.08268 z m 2.23759,-2.594157 q 0,1.111043 -0.149862,1.829346 -0.149861,0.718302 -0.454752,1.111043 -0.186036,0.237712 -0.583944,0.3514 -0.397909,0.113688 -1.049032,0.113688 -0.65629,0 -1.049031,-0.113688 -0.387573,-0.118856 -0.589111,-0.372071 -0.294556,-0.37207 -0.444418,-1.111043 -0.149861,-0.738973 -0.149861,-1.808675 0,-1.07487 0.149861,-1.81901 0.15503,-0.749309 0.444418,-1.121379 0.201538,-0.253214 0.589111,-0.37207 0.392741,-0.118856 1.049031,-0.118856 0.573609,0 0.961182,0.09819 0.387573,0.09302 0.583944,0.284221 0.341064,0.320393 0.516764,1.09554 0.1757,0.775146 0.1757,1.953369 z m -8.604136,2.594157 q 0.434082,0 0.645955,-0.05168 0.211874,-0.05684 0.310059,-0.180867 0.165364,-0.206706 0.242879,-0.790649 0.08268,-0.589112 0.08268,-1.570964 0,-0.935343 -0.07235,-1.514119 -0.06718,-0.578776 -0.211873,-0.847494 -0.08268,-0.160197 -0.299723,-0.227376 -0.217041,-0.06718 -0.697632,-0.06718 -0.475423,0 -0.692464,0.06718 -0.217041,0.06718 -0.299724,0.227376 -0.144694,0.279053 -0.217041,0.857829 -0.06718,0.573608 -0.06718,1.503784 0,0.806152 0.05684,1.364258 0.05684,0.558105 0.1757,0.826823 0.09302,0.232544 0.289388,0.320394 0.201538,0.08268 0.754476,0.08268 z m 2.237589,-2.594157 q 0,1.111043 -0.149861,1.829346 -0.149862,0.718302 -0.454753,1.111043 -0.186035,0.237712 -0.583944,0.3514 -0.397908,0.113688 -1.049031,0.113688 -0.656291,0 -1.049032,-0.113688 -0.387573,-0.118856 -0.589111,-0.372071 -0.294556,-0.37207 -0.444417,-1.111043 -0.149862,-0.738973 -0.149862,-1.808675 0,-1.07487 0.149862,-1.81901 0.155029,-0.749309 0.444417,-1.121379 0.201538,-0.253214 0.589111,-0.37207 0.392741,-0.118856 1.049032,-0.118856 0.573608,0 0.961181,0.09819 0.387574,0.09302 0.583944,0.284221 0.341064,0.320393 0.516764,1.09554 0.1757,0.775146 0.1757,1.953369 z m -8.604121,2.594157 q 0.434082,0 0.645956,-0.05168 0.211873,-0.05684 0.310058,-0.180867 0.165365,-0.206706 0.24288,-0.790649 0.08268,-0.589112 0.08268,-1.570964 0,-0.935343 -0.07235,-1.514119 -0.06718,-0.578776 -0.211874,-0.847494 -0.08268,-0.160197 -0.299723,-0.227376 -0.217041,-0.06718 -0.697632,-0.06718 -0.475423,0 -0.692464,0.06718 -0.217041,0.06718 -0.299723,0.227376 -0.144694,0.279053 -0.217041,0.857829 -0.06718,0.573608 -0.06718,1.503784 0,0.806152 0.05684,1.364258 0.05684,0.558105 0.175699,0.826823 0.09302,0.232544 0.289388,0.320394 0.201539,0.08268 0.754476,0.08268 z m 2.23759,-2.594157 q 0,1.111043 -0.149862,1.829346 -0.149861,0.718302 -0.454752,1.111043 -0.186036,0.237712 -0.583944,0.3514 -0.397909,0.113688 -1.049032,0.113688 -0.65629,0 -1.049031,-0.113688 -0.387573,-0.118856 -0.589111,-0.372071 -0.294556,-0.37207 -0.444418,-1.111043 -0.149861,-0.738973 -0.149861,-1.808675 0,-1.07487 0.149861,-1.81901 0.15503,-0.749309 0.444418,-1.121379 0.201538,-0.253214 0.589111,-0.37207 0.392741,-0.118856 1.049031,-0.118856 0.573609,0 0.961182,0.09819 0.387573,0.09302 0.583944,0.284221 0.341064,0.320393 0.516764,1.09554 0.1757,0.775146 0.1757,1.953369 z m -8.604129,2.594157 q 0.434082,0 0.645956,-0.05168 0.211873,-0.05684 0.310058,-0.180867 0.165365,-0.206706 0.24288,-0.790649 0.08268,-0.589112 0.08268,-1.570964 0,-0.935343 -0.07235,-1.514119 -0.06718,-0.578776 -0.211874,-0.847494 -0.08268,-0.160197 -0.299723,-0.227376 -0.217041,-0.06718 -0.697632,-0.06718 -0.475423,0 -0.692464,0.06718 -0.217041,0.06718 -0.299723,0.227376 -0.144694,0.279053 -0.217041,0.857829 -0.06718,0.573608 -0.06718,1.503784 0,0.806152 0.05684,1.364258 0.05684,0.558105 0.175699,0.826823 0.09302,0.232544 0.289388,0.320394 0.201539,0.08268 0.754476,0.08268 z m 2.23759,-2.594157 q 0,1.111043 -0.149862,1.829346 -0.149861,0.718302 -0.454752,1.111043 -0.186036,0.237712 -0.583944,0.3514 -0.397909,0.113688 -1.049032,0.113688 -0.65629,0 -1.049031,-0.113688 -0.387573,-0.118856 -0.589111,-0.372071 -0.294556,-0.37207 -0.444418,-1.111043 -0.149861,-0.738973 -0.149861,-1.808675 0,-1.07487 0.149861,-1.81901 0.15503,-0.749309 0.444418,-1.121379 0.201538,-0.253214 0.589111,-0.37207 0.392741,-0.118856 1.049031,-0.118856 0.573609,0 0.961182,0.09819 0.387573,0.09302 0.583944,0.284221 0.341064,0.320393 0.516764,1.09554 0.1757,0.775146 0.1757,1.953369 z m -8.604121,2.594157 q 0.434082,0 0.645955,-0.05168 0.211874,-0.05684 0.310059,-0.180867 0.165365,-0.206706 0.242879,-0.790649 0.08268,-0.589112 0.08268,-1.570964 0,-0.935343 -0.07235,-1.514119 -0.06718,-0.578776 -0.211873,-0.847494 -0.08268,-0.160197 -0.299723,-0.227376 -0.217041,-0.06718 -0.697632,-0.06718 -0.475423,0 -0.692464,0.06718 -0.217041,0.06718 -0.299723,0.227376 -0.144694,0.279053 -0.217041,0.857829 -0.06718,0.573608 -0.06718,1.503784 0,0.806152 0.05684,1.364258 0.05684,0.558105 0.1757,0.826823 0.09302,0.232544 0.289388,0.320394 0.201538,0.08268 0.754476,0.08268 z m 2.237589,-2.594157 q 0,1.111043 -0.149861,1.829346 -0.149862,0.718302 -0.454753,1.111043 -0.186035,0.237712 -0.583943,0.3514 -0.397909,0.113688 -1.049032,0.113688 -0.656291,0 -1.049032,-0.113688 -0.387573,-0.118856 -0.589111,-0.372071 -0.294556,-0.37207 -0.444417,-1.111043 -0.149862,-0.738973 -0.149862,-1.808675 0,-1.07487 0.149862,-1.81901 0.155029,-0.749309 0.444417,-1.121379 0.201538,-0.253214 0.589111,-0.37207 0.392741,-0.118856 1.049032,-0.118856 0.573608,0 0.961182,0.09819 0.387573,0.09302 0.583943,0.284221 0.341065,0.320393 0.516765,1.09554 0.175699,0.775146 0.175699,1.953369 z m -8.604128,2.594157 q 0.434082,0 0.645955,-0.05168 0.211874,-0.05684 0.310059,-0.180867 0.165365,-0.206706 0.242879,-0.790649 0.08268,-0.589112 0.08268,-1.570964 0,-0.935343 -0.07235,-1.514119 -0.06718,-0.578776 -0.211873,-0.847494 -0.08268,-0.160197 -0.299723,-0.227376 -0.217041,-0.06718 -0.697632,-0.06718 -0.475423,0 -0.692464,0.06718 -0.217041,0.06718 -0.299723,0.227376 -0.144694,0.279053 -0.217041,0.857829 -0.06718,0.573608 -0.06718,1.503784 0,0.806152 0.05684,1.364258 0.05684,0.558105 0.1757,0.826823 0.09302,0.232544 0.289388,0.320394 0.201538,0.08268 0.754476,0.08268 z m 2.237589,-2.594157 q 0,1.111043 -0.149861,1.829346 -0.149862,0.718302 -0.454753,1.111043 -0.186035,0.237712 -0.583943,0.3514 -0.397909,0.113688 -1.049032,0.113688 -0.656291,0 -1.049032,-0.113688 -0.387573,-0.118856 -0.589111,-0.372071 -0.294556,-0.37207 -0.444417,-1.111043 -0.149862,-0.738973 -0.149862,-1.808675 0,-1.07487 0.149862,-1.81901 0.155029,-0.749309 0.444417,-1.121379 0.201538,-0.253214 0.589111,-0.37207 0.392741,-0.118856 1.049032,-0.118856 0.573608,0 0.961182,0.09819 0.387573,0.09302 0.583943,0.284221 0.341065,0.320393 0.516765,1.09554 0.175699,0.775146 0.175699,1.953369 z m -8.604126,2.594157 q 0.43408,0 0.64595,-0.05168 0.21188,-0.05684 0.31006,-0.180867 0.16537,-0.206706 0.24288,-0.790649 0.0827,-0.589112 0.0827,-1.570964 0,-0.935343 -0.0723,-1.514119 -0.0672,-0.578776 -0.21188,-0.847494 -0.0827,-0.160197 -0.29972,-0.227376 -0.21704,-0.06718 -0.69763,-0.06718 -0.47543,0 -0.69247,0.06718 -0.21704,0.06718 -0.29972,0.227376 -0.14469,0.279053 -0.21704,0.857829 -0.0672,0.573608 -0.0672,1.503784 0,0.806152 0.0568,1.364258 0.0569,0.558105 0.1757,0.826823 0.093,0.232544 0.28939,0.320394 0.20154,0.08268 0.75448,0.08268 z m 2.23759,-2.594157 q 0,1.111043 -0.14986,1.829346 -0.14987,0.718302 -0.45476,1.111043 -0.18603,0.237712 -0.58394,0.3514 -0.39791,0.113688 -1.04903,0.113688 -0.65629,0 -1.04903,-0.113688 -0.38758,-0.118856 -0.58911,-0.372071 -0.29456,-0.37207 -0.44442,-1.111043 -0.14986,-0.738973 -0.14986,-1.808675 0,-1.07487 0.14986,-1.81901 0.15503,-0.749309 0.44442,-1.121379 0.20153,-0.253214 0.58911,-0.37207 0.39274,-0.118856 1.04903,-0.118856 0.57361,0 0.96118,0.09819 0.38757,0.09302 0.58394,0.284221 0.34107,0.320393 0.51677,1.09554 0.1757,0.775146 0.1757,1.953369 z m -8.60412,2.594157 q 0.43408,0 0.64595,-0.05168 0.21188,-0.05684 0.31006,-0.180867 0.16537,-0.206706 0.24288,-0.790649 0.0827,-0.589112 0.0827,-1.570964 0,-0.935343 -0.0723,-1.514119 -0.0672,-0.578776 -0.21188,-0.847494 -0.0827,-0.160197 -0.29972,-0.227376 -0.21704,-0.06718 -0.69763,-0.06718 -0.47543,0 -0.69247,0.06718 -0.21704,0.06718 -0.29972,0.227376 -0.14469,0.279053 -0.21704,0.857829 -0.0672,0.573608 -0.0672,1.503784 0,0.806152 0.0568,1.364258 0.0568,0.558105 0.1757,0.826823 0.093,0.232544 0.28939,0.320394 0.20154,0.08268 0.75448,0.08268 z m 2.23759,-2.594157 q 0,1.111043 -0.14987,1.829346 -0.14986,0.718302 -0.45475,1.111043 -0.18603,0.237712 -0.58394,0.3514 -0.39791,0.113688 -1.04903,0.113688 -0.65629,0 -1.04903,-0.113688 -0.38758,-0.118856 -0.58912,-0.372071 -0.29455,-0.37207 -0.44441,-1.111043 -0.14987,-0.738973 -0.14987,-1.808675 0,-1.07487 0.14987,-1.81901 0.15503,-0.749309 0.44441,-1.121379 0.20154,-0.253214 0.58912,-0.37207 0.39274,-0.118856 1.04903,-0.118856 0.57361,0 0.96118,0.09819 0.38757,0.09302 0.58394,0.284221 0.34107,0.320393 0.51677,1.09554 0.1757,0.775146 0.1757,1.953369 z m -8.60413,2.594157 q 0.43408,0 0.64595,-0.05168 0.21188,-0.05684 0.31006,-0.180867 0.16537,-0.206706 0.24288,-0.790649 0.0827,-0.589112 0.0827,-1.570964 0,-0.935343 -0.0723,-1.514119 -0.0672,-0.578776 -0.21188,-0.847494 -0.0827,-0.160197 -0.29972,-0.227376 -0.21704,-0.06718 -0.69763,-0.06718 -0.47543,0 -0.69247,0.06718 -0.21704,0.06718 -0.29972,0.227376 -0.14469,0.279053 -0.21704,0.857829 -0.0672,0.573608 -0.0672,1.503784 0,0.806152 0.0568,1.364258 0.0569,0.558105 0.1757,0.826823 0.093,0.232544 0.28939,0.320394 0.20154,0.08268 0.75448,0.08268 z m 2.23759,-2.594157 q 0,1.111043 -0.14986,1.829346 -0.14987,0.718302 -0.45476,1.111043 -0.18603,0.237712 -0.58394,0.3514 -0.39791,0.113688 -1.04903,0.113688 -0.65629,0 -1.04903,-0.113688 -0.38758,-0.118856 -0.58912,-0.372071 -0.29455,-0.37207 -0.44441,-1.111043 -0.14986,-0.738973 -0.14986,-1.808675 0,-1.07487 0.14986,-1.81901 0.15503,-0.749309 0.44441,-1.121379 0.20154,-0.253214 0.58912,-0.37207 0.39274,-0.118856 1.04903,-0.118856 0.57361,0 0.96118,0.09819 0.38757,0.09302 0.58394,0.284221 0.34107,0.320393 0.51677,1.09554 0.1757,0.775146 0.1757,1.953369 z m -8.60412,2.594157 q 0.43408,0 0.64595,-0.05168 0.21188,-0.05684 0.31006,-0.180867 0.16536,-0.206706 0.24288,-0.790649 0.0827,-0.589112 0.0827,-1.570964 0,-0.935343 -0.0724,-1.514119 -0.0672,-0.578776 -0.21187,-0.847494 -0.0827,-0.160197 -0.29972,-0.227376 -0.21704,-0.06718 -0.69763,-0.06718 -0.47543,0 -0.69247,0.06718 -0.21704,0.06718 -0.29972,0.227376 -0.1447,0.279053 -0.21704,0.857829 -0.0672,0.573608 -0.0672,1.503784 0,0.806152 0.0568,1.364258 0.0568,0.558105 0.1757,0.826823 0.093,0.232544 0.28939,0.320394 0.20154,0.08268 0.75448,0.08268 z m 2.23759,-2.594157 q 0,1.111043 -0.14987,1.829346 -0.14986,0.718302 -0.45475,1.111043 -0.18603,0.237712 -0.58394,0.3514 -0.39791,0.113688 -1.04903,0.113688 -0.65629,0 -1.04904,-0.113688 -0.38757,-0.118856 -0.58911,-0.372071 -0.29455,-0.37207 -0.44441,-1.111043 -0.14987,-0.738973 -0.14987,-1.808675 0,-1.07487 0.14987,-1.81901 0.15503,-0.749309 0.44441,-1.121379 0.20154,-0.253214 0.58911,-0.37207 0.39275,-0.118856 1.04904,-0.118856 0.5736,0 0.96118,0.09819 0.38757,0.09302 0.58394,0.284221 0.34107,0.320393 0.51677,1.09554 0.1757,0.775146 0.1757,1.953369 z m -8.60413,2.594157 q 0.43408,0 0.64595,-0.05168 0.21188,-0.05684 0.31006,-0.180867 0.16537,-0.206706 0.24288,-0.790649 0.0827,-0.589112 0.0827,-1.570964 0,-0.935343 -0.0723,-1.514119 -0.0672,-0.578776 -0.21188,-0.847494 -0.0827,-0.160197 -0.29972,-0.227376 -0.21704,-0.06718 -0.69763,-0.06718 -0.47543,0 -0.69247,0.06718 -0.21704,0.06718 -0.29972,0.227376 -0.14469,0.279053 -0.21704,0.857829 -0.0672,0.573608 -0.0672,1.503784 0,0.806152 0.0568,1.364258 0.0568,0.558105 0.1757,0.826823 0.093,0.232544 0.28939,0.320394 0.20154,0.08268 0.75448,0.08268 z m 2.23759,-2.594157 q 0,1.111043 -0.14986,1.829346 -0.14987,0.718302 -0.45476,1.111043 -0.18603,0.237712 -0.58394,0.3514 -0.39791,0.113688 -1.04903,0.113688 -0.65629,0 -1.04903,-0.113688 -0.38758,-0.118856 -0.58912,-0.372071 -0.29455,-0.37207 -0.44441,-1.111043 -0.14986,-0.738973 -0.14986,-1.808675 0,-1.07487 0.14986,-1.81901 0.15503,-0.749309 0.44441,-1.121379 0.20154,-0.253214 0.58912,-0.37207 0.39274,-0.118856 1.04903,-0.118856 0.57361,0 0.96118,0.09819 0.38757,0.09302 0.58394,0.284221 0.34107,0.320393 0.51677,1.09554 0.1757,0.775146 0.1757,1.953369 z m -8.60413,2.594157 q 0.43408,0 0.64595,-0.05168 0.21188,-0.05684 0.31006,-0.180867 0.16537,-0.206706 0.24288,-0.790649 0.0827,-0.589112 0.0827,-1.570964 0,-0.935343 -0.0723,-1.514119 -0.0672,-0.578776 -0.21188,-0.847494 -0.0827,-0.160197 -0.29972,-0.227376 -0.21704,-0.06718 -0.69763,-0.06718 -0.47542,0 -0.69247,0.06718 -0.21704,0.06718 -0.29972,0.227376 -0.14469,0.279053 -0.21704,0.857829 -0.0672,0.573608 -0.0672,1.503784 0,0.806152 0.0568,1.364258 0.0568,0.558105 0.1757,0.826823 0.093,0.232544 0.28939,0.320394 0.20154,0.08268 0.75448,0.08268 z m 2.23759,-2.594157 q 0,1.111043 -0.14986,1.829346 -0.14987,0.718302 -0.45476,1.111043 -0.18603,0.237712 -0.58394,0.3514 -0.39791,0.113688 -1.04903,0.113688 -0.65629,0 -1.04903,-0.113688 -0.38758,-0.118856 -0.58911,-0.372071 -0.29456,-0.37207 -0.44442,-1.111043 -0.14986,-0.738973 -0.14986,-1.808675 0,-1.07487 0.14986,-1.81901 0.15503,-0.749309 0.44442,-1.121379 0.20153,-0.253214 0.58911,-0.37207 0.39274,-0.118856 1.04903,-0.118856 0.57361,0 0.96118,0.09819 0.38757,0.09302 0.58394,0.284221 0.34107,0.320393 0.51677,1.09554 0.1757,0.775146 0.1757,1.953369 z m -8.60413,2.594157 q 0.43409,0 0.64596,-0.05168 0.21187,-0.05684 0.31006,-0.180867 0.16536,-0.206706 0.24288,-0.790649 0.0827,-0.589112 0.0827,-1.570964 0,-0.935343 -0.0724,-1.514119 -0.0672,-0.578776 -0.21187,-0.847494 -0.0827,-0.160197 -0.29973,-0.227376 -0.21704,-0.06718 -0.69763,-0.06718 -0.47542,0 -0.69246,0.06718 -0.21704,0.06718 -0.29972,0.227376 -0.1447,0.279053 -0.21705,0.857829 -0.0672,0.573608 -0.0672,1.503784 0,0.806152 0.0568,1.364258 0.0568,0.558105 0.1757,0.826823 0.093,0.232544 0.28939,0.320394 0.20154,0.08268 0.75447,0.08268 z m 2.23759,-2.594157 q 0,1.111043 -0.14986,1.829346 -0.14986,0.718302 -0.45475,1.111043 -0.18604,0.237712 -0.58395,0.3514 -0.3979,0.113688 -1.04903,0.113688 -0.65629,0 -1.04903,-0.113688 -0.38757,-0.118856 -0.58911,-0.372071 -0.29456,-0.37207 -0.44442,-1.111043 -0.14986,-0.738973 -0.14986,-1.808675 0,-1.07487 0.14986,-1.81901 0.15503,-0.749309 0.44442,-1.121379 0.20154,-0.253214 0.58911,-0.37207 0.39274,-0.118856 1.04903,-0.118856 0.57361,0 0.96118,0.09819 0.38758,0.09302 0.58395,0.284221 0.34106,0.320393 0.51676,1.09554 0.1757,0.775146 0.1757,1.953369 z m -8.60412,2.594157 q 0.43408,0 0.64595,-0.05168 0.21188,-0.05684 0.31006,-0.180867 0.16537,-0.206706 0.24288,-0.790649 0.0827,-0.589112 0.0827,-1.570964 0,-0.935343 -0.0723,-1.514119 -0.0672,-0.578776 -0.21188,-0.847494 -0.0827,-0.160197 -0.29972,-0.227376 -0.21704,-0.06718 -0.69763,-0.06718 -0.47543,0 -0.69247,0.06718 -0.21704,0.06718 -0.29972,0.227376 -0.14469,0.279053 -0.21704,0.857829 -0.0672,0.573608 -0.0672,1.503784 0,0.806152 0.0568,1.364258 0.0568,0.558105 0.1757,0.826823 0.093,0.232544 0.28939,0.320394 0.20154,0.08268 0.75448,0.08268 z m 2.23759,-2.594157 q 0,1.111043 -0.14986,1.829346 -0.14987,0.718302 -0.45476,1.111043 -0.18603,0.237712 -0.58394,0.3514 -0.39791,0.113688 -1.04903,0.113688 -0.65629,0 -1.04903,-0.113688 -0.38758,-0.118856 -0.58911,-0.372071 -0.29456,-0.37207 -0.44442,-1.111043 -0.14986,-0.738973 -0.14986,-1.808675 0,-1.07487 0.14986,-1.81901 0.15503,-0.749309 0.44442,-1.121379 0.20153,-0.253214 0.58911,-0.37207 0.39274,-0.118856 1.04903,-0.118856 0.57361,0 0.96118,0.09819 0.38757,0.09302 0.58394,0.284221 0.34107,0.320393 0.51677,1.09554 0.1757,0.775146 0.1757,1.953369 z m -8.60413,2.594157 q 0.43408,0 0.64596,-0.05168 0.21187,-0.05684 0.31006,-0.180867 0.16536,-0.206706 0.24288,-0.790649 0.0827,-0.589112 0.0827,-1.570964 0,-0.935343 -0.0724,-1.514119 -0.0672,-0.578776 -0.21187,-0.847494 -0.0827,-0.160197 -0.29973,-0.227376 -0.21704,-0.06718 -0.69763,-0.06718 -0.47542,0 -0.69246,0.06718 -0.21704,0.06718 -0.29972,0.227376 -0.1447,0.279053 -0.21705,0.857829 -0.0672,0.573608 -0.0672,1.503784 0,0.806152 0.0568,1.364258 0.0568,0.558105 0.1757,0.826823 0.093,0.232544 0.28939,0.320394 0.20153,0.08268 0.75447,0.08268 z m 2.23759,-2.594157 q 0,1.111043 -0.14986,1.829346 -0.14986,0.718302 -0.45475,1.111043 -0.18604,0.237712 -0.58395,0.3514 -0.3979,0.113688 -1.04903,0.113688 -0.65629,0 -1.04903,-0.113688 -0.38757,-0.118856 -0.58911,-0.372071 -0.29456,-0.37207 -0.44442,-1.111043 -0.14986,-0.738973 -0.14986,-1.808675 0,-1.07487 0.14986,-1.81901 0.15503,-0.749309 0.44442,-1.121379 0.20154,-0.253214 0.58911,-0.37207 0.39274,-0.118856 1.04903,-0.118856 0.57361,0 0.96118,0.09819 0.38758,0.09302 0.58395,0.284221 0.34106,0.320393 0.51676,1.09554 0.1757,0.775146 0.1757,1.953369 z m -9.16223,0.170532 -1.71566,-3.028239 h 1.05937 l 1.19373,2.191081 1.21956,-2.191081 h 0.97152 l -1.64848,2.976563 1.74666,3.193603 h -1.04903 l -1.25057,-2.361613 -1.2454,2.361613 h -1.00769 z m -6.36654,0 -1.71565,-3.028239 h 1.05936 l 1.19373,2.191081 1.21956,-2.191081 h 0.97152 l -1.64848,2.976563 1.74666,3.193603 h -1.04903 l -1.25057,-2.361613 -1.2454,2.361613 h -1.00769 z m -6.24251,0.356568 -1.83968,-3.384807 h 1.04903 l 1.23507,2.371949 1.21956,-2.371949 h 0.96118 l -1.74666,3.291789 v 2.878377 h -0.8785 z m -6.07715,-0.506429 h 2.21176 v 3.028238 q -0.57878,0.196371 -0.98702,0.279053 -0.40825,0.08785 -0.75965,0.08785 -1.15238,0 -1.79834,-0.842326 -0.64595,-0.847493 -0.64595,-2.371948 0,-1.472778 0.66146,-2.299601 0.66145,-0.831991 1.81384,-0.831991 0.69246,0 1.14721,0.335897 0.45476,0.330729 0.56845,0.919841 h -0.91985 q -0.13435,-0.232544 -0.33589,-0.356568 -0.19637,-0.129191 -0.43925,-0.129191 -0.76481,0 -1.15755,0.594279 -0.38758,0.589111 -0.38758,1.756999 0,1.193725 0.37724,1.803507 0.38241,0.609782 1.12655,0.609782 0.18086,0 0.39274,-0.04651 0.21187,-0.05168 0.46509,-0.155029 v -1.57613 h -1.33326 z m -7.98917,-2.826701 h 3.66386 v 0.764811 h -2.78536 v 1.71049 h 2.44946 v 0.806152 h -2.44946 v 1.968872 h 2.87837 v 0.816488 h -3.75687 z m -5.4622,0.795817 v 4.454508 q 0.85266,-0.02584 1.37459,-0.594279 0.5271,-0.568441 0.5271,-1.46761 0,-0.950847 -0.51676,-1.60197 -0.51677,-0.651123 -1.38493,-0.790649 z m -0.8785,-0.795817 h 0.67696 q 1.30225,0 2.18591,0.909505 0.88367,0.904338 0.88367,2.201416 0,1.35909 -0.81649,2.160075 -0.81648,0.795817 -2.21175,0.795817 h -0.7183 z m -6.1805,5.250325 h 1.11104 v -4.464843 h -0.91984 v -0.785482 h 2.73368 v 0.785482 h -0.925 v 4.464843 h 1.11621 v 0.816488 h -3.11609 z" />
  </g>
</svg>
