<?xml version="1.0" encoding="iso-8859-1"?>
<!-- Generator: Adobe Illustrator 19.0.0, SVG Export Plug-In . SVG Version: 6.00 Build 0)  -->
<svg version="1.1" id="Layer_1" xmlns="http://www.w3.org/2000/svg" xmlns:xlink="http://www.w3.org/1999/xlink" x="0px" y="0px"
	 viewBox="0 0 469.333 469.333" style="enable-background:new 0 0 469.333 469.333;" xml:space="preserve">
<g>
	<g>
		<path d="M373.292,214.625c-3.311-4.759-7.615-8.59-12.285-11.957c4.677-3.368,8.987-7.204,12.306-11.97l89.083-128.292
			c4.542-6.542,6.938-14.115,6.938-21.896C469.333,18.177,449.667,0,425.5,0H43.833C19.667,0,0,18.177,0,40.51
			c0,7.781,2.396,15.354,6.938,21.896l89.104,128.302c3.311,4.759,7.615,8.59,12.285,11.957c-4.677,3.368-8.987,7.204-12.306,11.97
			L6.937,342.927C2.396,349.469,0,357.042,0,364.823c0,1.889,0,61.844,0,61.844c0,23.531,19.146,42.667,42.667,42.667h384
			c23.521,0,42.667-19.135,42.667-42.667c0,0,0-59.954,0-61.844c0-7.781-2.396-15.354-6.938-21.896L373.292,214.625z
			 M56.125,356.948c-1.833-3.521-1.563-7.771,0.688-11.031l74.25-106.948c2-2.875,5.271-4.583,8.771-4.583h0.021l188.521,0.281
			c3.458,0,6.708,1.688,8.688,4.521l75.188,106.667c2.313,3.26,2.604,7.521,0.771,11.052c-1.854,3.542-5.5,5.76-9.479,5.76H65.583
			C61.604,362.667,57.979,360.458,56.125,356.948z M330.667,448c-11.771,0-21.333-9.573-21.333-21.333
			c0-11.76,9.563-21.333,21.333-21.333c11.771,0,21.333,9.573,21.333,21.333C352,438.427,342.438,448,330.667,448z M394.667,448
			c-11.771,0-21.333-9.573-21.333-21.333c0-11.76,9.563-21.333,21.333-21.333c11.771,0,21.333,9.573,21.333,21.333
			C416,438.427,406.438,448,394.667,448z"/>
	</g>
</g>
<g>
</g>
<g>
</g>
<g>
</g>
<g>
</g>
<g>
</g>
<g>
</g>
<g>
</g>
<g>
</g>
<g>
</g>
<g>
</g>
<g>
</g>
<g>
</g>
<g>
</g>
<g>
</g>
<g>
</g>
</svg>
