<?xml version="1.0" encoding="UTF-8" standalone="no"?>
<!-- Generator: Adobe Illustrator 19.1.0, SVG Export Plug-In . SVG Version: 6.00 Build 0)  -->

<svg
   xmlns:dc="http://purl.org/dc/elements/1.1/"
   xmlns:cc="http://creativecommons.org/ns#"
   xmlns:rdf="http://www.w3.org/1999/02/22-rdf-syntax-ns#"
   xmlns:svg="http://www.w3.org/2000/svg"
   xmlns="http://www.w3.org/2000/svg"
   xmlns:sodipodi="http://sodipodi.sourceforge.net/DTD/sodipodi-0.dtd"
   xmlns:inkscape="http://www.inkscape.org/namespaces/inkscape"
   version="1.1"
   id="Capa_1"
   x="0px"
   y="0px"
   viewBox="0 0 488.8 488.8"
   style="enable-background:new 0 0 488.8 488.8;"
   xml:space="preserve"
   sodipodi:docname="user.svg"
   inkscape:version="0.92.3 (2405546, 2018-03-11)"><metadata
   id="metadata49"><rdf:RDF><cc:Work
       rdf:about=""><dc:format>image/svg+xml</dc:format><dc:type
         rdf:resource="http://purl.org/dc/dcmitype/StillImage" /></cc:Work></rdf:RDF></metadata><defs
   id="defs47" /><sodipodi:namedview
   pagecolor="#ffffff"
   bordercolor="#666666"
   borderopacity="1"
   objecttolerance="10"
   gridtolerance="10"
   guidetolerance="10"
   inkscape:pageopacity="0"
   inkscape:pageshadow="2"
   inkscape:window-width="1920"
   inkscape:window-height="1017"
   id="namedview45"
   showgrid="false"
   inkscape:zoom="0.48281507"
   inkscape:cx="244.39999"
   inkscape:cy="244.39999"
   inkscape:window-x="-8"
   inkscape:window-y="-8"
   inkscape:window-maximized="1"
   inkscape:current-layer="Capa_1" />
<g
   id="g12">
	<g
   id="g10">
		<g
   id="g4">
			
		</g>
		<g
   id="g8">
			<path
   id="path6"
   d="M 471.882,407.567 360.567,296.243 c -16.586,25.795 -38.536,47.734 -64.331,64.321 L 407.56,471.888 c 17.772,17.768 46.587,17.768 64.321,0 17.773,-17.739 17.773,-46.554 0.001,-64.321 z M 363.909,181.955 C 363.909,81.473 282.44,0 181.956,0 81.474,0 0.001,81.473 0.001,181.955 c 0,100.482 81.473,181.951 181.955,181.951 100.484,0 181.953,-81.469 181.953,-181.951 z M 181.956,318.416 c -75.252,0 -136.465,-61.208 -136.465,-136.46 0,-75.252 61.213,-136.465 136.465,-136.465 75.25,0 136.468,61.213 136.468,136.465 0,75.252 -61.218,136.46 -136.468,136.46 z" />
		</g>
	</g>
</g>
<g
   id="g14">
</g>
<g
   id="g16">
</g>
<g
   id="g18">
</g>
<g
   id="g20">
</g>
<g
   id="g22">
</g>
<g
   id="g24">
</g>
<g
   id="g26">
</g>
<g
   id="g28">
</g>
<g
   id="g30">
</g>
<g
   id="g32">
</g>
<g
   id="g34">
</g>
<g
   id="g36">
</g>
<g
   id="g38">
</g>
<g
   id="g40">
</g>
<g
   id="g42">
</g>
</svg>