<?xml version="1.0" encoding="UTF-8" standalone="no"?>
<svg
   xmlns:dc="http://purl.org/dc/elements/1.1/"
   xmlns:cc="http://creativecommons.org/ns#"
   xmlns:rdf="http://www.w3.org/1999/02/22-rdf-syntax-ns#"
   xmlns:svg="http://www.w3.org/2000/svg"
   xmlns="http://www.w3.org/2000/svg"
   xmlns:sodipodi="http://sodipodi.sourceforge.net/DTD/sodipodi-0.dtd"
   xmlns:inkscape="http://www.inkscape.org/namespaces/inkscape"
   height="512pt"
   viewBox="0 -70 512 512"
   width="512pt"
   version="1.1"
   id="svg16"
   sodipodi:docname="signature (1).svg"
   inkscape:version="0.92.3 (2405546, 2018-03-11)">
  <metadata
     id="metadata22">
    <rdf:RDF>
      <cc:Work
         rdf:about="">
        <dc:format>image/svg+xml</dc:format>
        <dc:type
           rdf:resource="http://purl.org/dc/dcmitype/StillImage" />
      </cc:Work>
    </rdf:RDF>
  </metadata>
  <defs
     id="defs20" />
  <sodipodi:namedview
     pagecolor="#ffffff"
     bordercolor="#666666"
     borderopacity="1"
     objecttolerance="10"
     gridtolerance="10"
     guidetolerance="10"
     inkscape:pageopacity="0"
     inkscape:pageshadow="2"
     inkscape:window-width="1920"
     inkscape:window-height="1017"
     id="namedview18"
     showgrid="false"
     inkscape:zoom="0.34570312"
     inkscape:cx="184.93574"
     inkscape:cy="278.64711"
     inkscape:window-x="-8"
     inkscape:window-y="-8"
     inkscape:window-maximized="1"
     inkscape:current-layer="svg16" />
  <path
     id="path32"
     style="stroke-width:9.67940998"
     d="m 103.46554,44.636067 c -1.75626,-1.728432 -4.173246,-2.645858 -6.873786,-2.6543 -0.53172,-0.0017 -1.06482,0.02635 -1.60709,0.09178 -3.35041,0.425103 -6.71466,2.176247 -9.34609,4.829871 l -9.15669,9.263653 c -5.48623,5.548538 -6.41141,13.540876 -2.04977,17.85219 L 387.04133,383.13233 c 1.7563,1.71875 4.19261,2.64592 6.89317,2.65436 0.51363,0.002 1.05452,-0.0354 1.6071,-0.10076 3.33106,-0.42516 6.69529,-2.16663 9.33641,-4.8299 l 9.14701,-9.2637 c 5.46685,-5.53891 6.40171,-13.53121 2.04978,-17.85218 z M 362.98681,4.8613332e-4 c -2.42676,0 -4.8545,0.88281297668 -6.62403,2.64843746668 l -26.94433,26.9560534 13.23779,13.239255 26.94873,-26.957519 c 0.90625,-0.906248 1.58984,-1.957028 2.05079,-3.082028 0.21483,-0.531247 0.22362,-1.133302 0.3369,-1.70361 0.22266,-1.1328146 0.25341,-2.2377971 0.0542,-3.3706121 C 371.93358,7.0585904 371.91748,6.3632805 371.64403,5.7265605 371.19481,4.6054673 370.51122,3.555174 369.60497,2.6489236 367.83934,0.88329911 365.41357,4.8613332e-4 362.98681,4.8613332e-4 Z M 316.17626,42.844232 226.75634,132.26562 239.9956,145.50487 329.41845,56.082032 Z M 193.64941,99.158685 213.52295,119.03222 224.9414,107.6167 Z M 91.381348,123.1455 62.104979,143.41454 c -18.29688,12.66017 -28.780274,34.19483 -27.518554,56.37452 l 19.76953,70.30077 c 0.550781,1.95704 1.495602,3.77345 2.749512,5.35547 L 82.34033,250.21044 76.769533,208.8081 c -0.0938,-0.70312 -0.11328,-1.39844 -0.04687,-2.09765 1.320307,-14.45703 10.891102,-31.83594 26.676262,-37.23048 l 20.40967,-7.86327 c 1.57768,-0.52625 3.17263,-0.94317 4.77539,-1.26856 z m 196.107412,1.3667 -34.24365,34.24219 141.23144,141.22998 c 3.29172,-2.39012 6.50121,-4.9803 9.60205,-7.76221 0.38671,-0.33594 0.98389,-0.82373 1.70655,-1.40186 0.68359,-0.5625 2.17918,-1.77002 3.22998,-2.74658 V 157.36718 Z m 137.24121,6.917 v 168.21093 19.05469 h 18.72656 V 131.4292 Z m -261.10106,63.96386 -31.60548,31.5996 c 2.4414,-0.49999 4.98096,-0.88329 7.60986,-1.16454 3.44532,-0.36328 6.9961,-0.5503 10.66407,-0.66358 1.17187,-0.0352 2.44531,-0.0479 3.64453,-0.0674 1.2539,-0.008 2.44043,-0.0615 3.75293,-0.0615 0.91016,0 1.8252,-6.8e-4 2.7627,0.007 l 16.41064,-16.41064 z m 47.66747,47.66748 c -3.34359,0.35466 -6.48593,0.5306 -9.01465,0.66211 l -1.46924,0.0864 c -6,0.37113 -12.10547,0.36283 -17.32031,0.32373 l -19.33593,-0.3164 c -8.72656,-0.14063 -15.89112,-0.0542 -22.52784,0.6372 -1.74219,0.1875 -3.4834,0.44824 -5.20605,0.77637 -7.47266,1.4414 -15.20752,4.3164 -20.4419,10.05469 -6.64453,7.29296 -8.46045,19.52344 -8.9956,29.02735 -0.008,0.22266 -0.0205,0.458 0.0732,0.66503 0.16016,0.32813 0.47705,0.48779 0.77783,0.6167 0.61719,0.28125 1.23486,0.56299 1.85596,0.83642 4.89453,2.16015 10.68311,4.46485 16.12061,3.15235 5.42187,-1.30078 10.8042,-2.43457 16.37841,-3.09082 11.28126,-1.32809 22.64844,-1.4292 33.9961,-1.3667 22.5,0.13281 45.10253,2.00391 67.18066,5.55469 5.85012,0.93922 12.29719,2.07061 19.05615,3.5083 z M 90.11279,268.91796 c -1.01172,0.98437 -2.003422,2.00343 -3.007327,3.00732 -4.382805,4.37892 -8.76123,8.7627 -13.144039,13.14551 l -18.812988,18.81153 -19.53955,19.53954 c -5.1211,5.11329 -10.233888,10.23389 -15.347168,15.34717 -2.07813,2.06641 -4.147951,4.14893 -6.218262,6.21533 L 0,372.27001 27.273925,358.21483 c 0.5625,-0.57031 1.132323,-1.1333 1.706543,-1.70361 6.5625,-6.5625 13.125484,-13.11621 19.691894,-19.67871 8.85546,-8.85937 17.713865,-17.71973 26.569338,-26.57519 3.289058,-3.28515 6.57471,-6.57326 9.85986,-9.85841 1.01172,-1.01172 2.02344,-2.01171 3.023438,-3.02343 0.683587,-0.68359 1.190865,-1.03223 1.097167,-1.89551 -0.101572,-1.00781 -1.011225,-2.20702 -1.179202,-3.33984 -0.140678,-1.03125 -0.132293,-2.07715 -0.112793,-3.1084 0.14844,-6.1875 1.018553,-12.26611 1.854495,-18.39111 0.08203,-0.57813 0.203123,-1.16016 0.328125,-1.72266 z" />
</svg>
