<?xml version="1.0" encoding="UTF-8" standalone="no"?>
<svg
   xmlns:dc="http://purl.org/dc/elements/1.1/"
   xmlns:cc="http://creativecommons.org/ns#"
   xmlns:rdf="http://www.w3.org/1999/02/22-rdf-syntax-ns#"
   xmlns:svg="http://www.w3.org/2000/svg"
   xmlns="http://www.w3.org/2000/svg"
   xmlns:sodipodi="http://sodipodi.sourceforge.net/DTD/sodipodi-0.dtd"
   xmlns:inkscape="http://www.inkscape.org/namespaces/inkscape"
   height="512pt"
   viewBox="0 -70 512 512"
   width="512pt"
   version="1.1"
   id="svg16"
   sodipodi:docname="signature (2).svg"
   inkscape:version="0.92.3 (2405546, 2018-03-11)">
  <metadata
     id="metadata22">
    <rdf:RDF>
      <cc:Work
         rdf:about="">
        <dc:format>image/svg+xml</dc:format>
        <dc:type
           rdf:resource="http://purl.org/dc/dcmitype/StillImage" />
      </cc:Work>
    </rdf:RDF>
  </metadata>
  <defs
     id="defs20" />
  <sodipodi:namedview
     pagecolor="#ffffff"
     bordercolor="#666666"
     borderopacity="1"
     objecttolerance="10"
     gridtolerance="10"
     guidetolerance="10"
     inkscape:pageopacity="0"
     inkscape:pageshadow="2"
     inkscape:window-width="1920"
     inkscape:window-height="1017"
     id="namedview18"
     showgrid="false"
     inkscape:zoom="0.34570312"
     inkscape:cx="447.68828"
     inkscape:cy="264.21819"
     inkscape:window-x="-8"
     inkscape:window-y="-8"
     inkscape:window-maximized="1"
     inkscape:current-layer="svg16" />
  <path
     id="path16"
     transform="matrix(0.74999998,0,0,0.74999998,0,-70)"
     style="fill:#000000;stroke-width:0.43174991"
     d="M 523.88672,353.39453 A 126.42442,126.42442 0 0 0 397.46289,479.81836 126.42442,126.42442 0 0 0 523.88672,606.24219 126.42442,126.42442 0 0 0 650.3125,479.81836 126.42442,126.42442 0 0 0 523.88672,353.39453 Z m -58.26953,51.79688 c 1.36545,0 3.40742,0.68281 4.76953,2.04492 l 51.11523,51.11328 c 1.36546,1.36211 3.40744,1.36211 4.76953,0 l 51.11524,-51.11328 c 1.36499,-1.36211 3.40742,-2.04492 4.76953,-2.04492 2.03453,0 3.40938,0.68281 4.77148,2.04492 l 9.53907,9.54101 c 1.36689,1.36259 2.03711,3.40743 2.03711,4.76954 0,1.36258 -0.67261,3.40939 -2.03711,4.77148 l -51.11328,51.11328 c -1.3645,0.68248 -1.3645,3.40699 0,4.77148 l 51.11328,51.11329 c 1.36689,1.36258 2.03711,3.40742 2.03711,4.76953 0,1.36258 -0.67261,3.40938 -2.03711,4.77148 l -9.53907,9.54102 c -1.36473,1.3645 -3.40937,2.04687 -4.77148,2.04687 -2.03525,0 -3.40742,-0.68477 -4.76953,-2.04687 l -51.11524,-51.11328 c -1.36497,-1.36211 -3.40743,-1.36211 -4.76953,0 l -51.11523,51.11328 c -1.36523,1.3645 -3.40743,2.04687 -4.76953,2.04687 -2.03478,0 -3.40743,-0.68477 -4.76953,-2.04687 l -9.54102,-9.54102 c -1.36451,-1.36234 -2.03516,-3.40938 -2.03516,-4.77148 0,-1.36259 0.67065,-3.40743 2.03516,-4.76953 l 51.11328,-51.11329 c 1.3645,-1.36257 1.3645,-3.40939 0,-4.77148 l -51.11328,-51.11328 c -1.36451,-1.36257 -2.03516,-3.40699 -2.03516,-4.77148 0,-1.36259 0.67065,-3.40743 2.03516,-4.76954 l 9.54102,-9.54101 c 1.36545,-1.36211 3.40742,-2.04492 4.76953,-2.04492 z M 483.98242,93.333984 c -3.23568,0 -6.47266,1.177084 -8.83203,3.53125 l -35.92578,35.941406 17.65039,17.65234 35.93164,-35.94336 c 1.20833,-1.20833 2.11979,-2.60937 2.73438,-4.10937 0.28645,-0.70833 0.29817,-1.51107 0.44921,-2.27148 0.2969,-1.51042 0.3379,-2.98373 0.0723,-4.49415 -0.15104,-0.89583 -0.17252,-1.82291 -0.53711,-2.67187 -0.59896,-1.494791 -1.51042,-2.895182 -2.71875,-4.103516 -2.35417,-2.354166 -5.58854,-3.53125 -8.82422,-3.53125 z m -62.41406,57.124996 -165.65234,165.65625 -28.0254,28.02539 -51.85937,51.84961 c 3.2552,-0.66666 6.64128,-1.17773 10.14648,-1.55273 4.59376,-0.48437 9.32813,-0.73373 14.21875,-0.88477 1.5625,-0.0469 3.26042,-0.0638 4.85938,-0.0898 1.67187,-0.0104 3.25391,-0.082 5.00391,-0.082 1.21354,0 2.43359,-9e-4 3.68359,0.01 L 439.22461,168.10938 Z m -203.98633,68.64454 c -25.93284,-0.0451 -51.48763,7.79101 -73.37305,22.9375 l -61.402339,42.51171 c -24.395834,16.88022 -38.373699,45.5931 -36.691407,75.16602 l 26.359375,93.73437 c 0.734375,2.60938 1.99414,5.03126 3.666016,7.14063 l 33.646485,-33.64648 -7.42773,-55.20313 c -0.12499,-0.93749 -0.15105,-1.86458 -0.0625,-2.79687 1.76041,-19.27604 14.52148,-42.44792 35.56835,-49.64063 l 27.21289,-10.48437 c 15.69271,-5.23438 32.59831,-2.98438 46.49415,6.26562 l 5.98046,4.08399 82.36915,-82.34961 -47.05274,-12.71875 c -11.63411,-3.33171 -23.49945,-4.97949 -35.28711,-5 z m 352.72461,37.46875 v 81.30664 c 8.69915,2.85218 17.05182,6.47737 24.96875,10.80468 v -92.11132 z m -186.98828,2.77734 -65.44336,65.44141 -37.31836,37.3125 30.89063,21.04687 c 3.40625,2.32292 5.45312,6.18229 5.45312,10.3125 0,22.33853 -31.86849,24.0371 -47.19141,24.83399 l -1.95898,0.11523 c -8,0.49483 -16.14063,0.48377 -23.09375,0.43164 L 218.875,418.42188 c -11.63541,-0.18751 -21.18816,-0.0723 -30.03711,0.8496 -2.32292,0.25 -4.64453,0.59765 -6.94141,1.03516 -9.96353,1.92187 -20.27669,5.7552 -27.25586,13.40625 -8.85937,9.72395 -11.2806,26.03125 -11.99414,38.70313 -0.0104,0.29688 -0.0273,0.61067 0.0977,0.88671 0.21355,0.43751 0.63607,0.65039 1.03711,0.82227 0.82292,0.375 1.64648,0.75065 2.47461,1.11523 6.52604,2.8802 14.24414,5.95313 21.49414,4.20313 7.22917,-1.73437 14.4056,-3.24609 21.83789,-4.12109 15.04167,-1.77079 30.19791,-1.9056 45.32813,-1.82227 30,0.17708 60.13671,2.67188 89.57421,7.40625 14.83448,2.38162 32.5122,5.66116 50.55469,11.01367 -0.32175,-3.99321 -0.49219,-8.0288 -0.49219,-12.10351 0,-82.33406 66.99281,-149.33399 149.33594,-149.33399 7.28828,0 14.45293,0.53491 21.46485,1.54883 v -28.875 z M 120.15039,451.89062 c -1.34896,1.3125 -2.67122,2.67122 -4.00977,4.00977 -5.84375,5.83855 -11.68164,11.6836 -17.525386,17.52734 -8.364584,8.36459 -16.719401,16.71745 -25.083984,25.08204 -8.687502,8.6875 -17.365234,17.36524 -26.052734,26.05273 -6.828126,6.81772 -13.645183,13.64518 -20.462891,20.46289 -2.770833,2.75521 -5.5306,5.53191 -8.291016,8.28711 L 0,589.69336 36.365234,570.95312 c 0.75,-0.76041 1.509766,-1.51107 2.275391,-2.27148 8.75,-8.75 17.500651,-17.48828 26.255859,-26.23828 11.807293,-11.81249 23.618489,-23.6263 35.425786,-35.43359 4.38541,-4.3802 8.76627,-8.76434 13.14648,-13.14454 1.34896,-1.34896 2.69792,-2.68229 4.03125,-4.03125 0.91146,-0.91145 1.58789,-1.3763 1.46289,-2.52734 -0.13542,-1.34375 -1.34831,-2.9427 -1.57227,-4.45312 -0.18749,-1.375 -0.17643,-2.76954 -0.15039,-4.14454 0.19792,-8.25 1.35808,-16.35481 2.47266,-24.52148 0.10938,-0.77083 0.27083,-1.54687 0.4375,-2.29688 z" />
</svg>
