<?xml version="1.0" encoding="UTF-8" standalone="no"?>
<!-- Generator: Adobe Illustrator 18.0.0, SVG Export Plug-In . SVG Version: 6.00 Build 0)  -->

<svg
   xmlns:dc="http://purl.org/dc/elements/1.1/"
   xmlns:cc="http://creativecommons.org/ns#"
   xmlns:rdf="http://www.w3.org/1999/02/22-rdf-syntax-ns#"
   xmlns:svg="http://www.w3.org/2000/svg"
   xmlns="http://www.w3.org/2000/svg"
   xmlns:sodipodi="http://sodipodi.sourceforge.net/DTD/sodipodi-0.dtd"
   xmlns:inkscape="http://www.inkscape.org/namespaces/inkscape"
   version="1.1"
   id="Capa_1"
   x="0px"
   y="0px"
   viewBox="0 0 59.999 59.999"
   style="enable-background:new 0 0 59.999 59.999;"
   xml:space="preserve"
   sodipodi:docname="sort.svg"
   inkscape:version="0.92.3 (2405546, 2018-03-11)"><metadata
   id="metadata55"><rdf:RDF><cc:Work
       rdf:about=""><dc:format>image/svg+xml</dc:format><dc:type
         rdf:resource="http://purl.org/dc/dcmitype/StillImage" /></cc:Work></rdf:RDF></metadata><defs
   id="defs53">
	
	
	
	
	
	
	
	
</defs><sodipodi:namedview
   pagecolor="#ffffff"
   bordercolor="#666666"
   borderopacity="1"
   objecttolerance="10"
   gridtolerance="10"
   guidetolerance="10"
   inkscape:pageopacity="0"
   inkscape:pageshadow="2"
   inkscape:window-width="1920"
   inkscape:window-height="1017"
   id="namedview51"
   showgrid="false"
   inkscape:zoom="3.9333989"
   inkscape:cx="-1.6525148"
   inkscape:cy="29.9995"
   inkscape:window-x="-8"
   inkscape:window-y="-8"
   inkscape:window-maximized="1"
   inkscape:current-layer="Capa_1" />
<path
   id="path16"
   d="M 49.206,12.292 37.207,0.293 C 37.115,0.2 37.004,0.127 36.881,0.076 c -0.244,-0.101 -0.52,-0.101 -0.764,0 C 35.994,0.127 35.884,0.2 35.791,0.293 L 23.792,12.292 c -0.391,0.391 -0.391,1.023 0,1.414 0.195,0.195 0.451,0.293 0.707,0.293 0.256,0 0.512,-0.098 0.707,-0.293 L 35.569,3.343 c 0.141,0.381 0.5,0.655 0.93,0.655 0.43,0 0.789,-0.275 0.931,-0.655 l 10.362,10.362 c 0.195,0.195 0.451,0.293 0.707,0.293 0.256,0 0.512,-0.098 0.707,-0.293 0.391,-0.39 0.391,-1.023 0,-1.413 z M 36.499,11.999 c -0.553,0 -1,0.448 -1,1 v 2 c 0,0.552 0.447,1 1,1 0.553,0 1,-0.448 1,-1 v -2 c 0,-0.553 -0.447,-1 -1,-1 z m 0,-6 c -0.553,0 -1,0.448 -1,1 v 2 c 0,0.552 0.447,1 1,1 0.553,0 1,-0.448 1,-1 v -2 c 0,-0.553 -0.447,-1 -1,-1 z m 0,12 c -0.553,0 -1,0.448 -1,1 v 2 c 0,0.552 0.447,1 1,1 0.553,0 1,-0.448 1,-1 v -2 c 0,-0.553 -0.447,-1 -1,-1 z m 0,18 c -0.553,0 -1,0.448 -1,1 v 2 c 0,0.552 0.447,1 1,1 0.553,0 1,-0.448 1,-1 v -2 c 0,-0.553 -0.447,-1 -1,-1 z m 0,-6 c -0.553,0 -1,0.448 -1,1 v 2 c 0,0.552 0.447,1 1,1 0.553,0 1,-0.448 1,-1 v -2 c 0,-0.553 -0.447,-1 -1,-1 z m 0,-6 c -0.553,0 -1,0.448 -1,1 v 2 c 0,0.552 0.447,1 1,1 0.553,0 1,-0.448 1,-1 v -2 c 0,-0.553 -0.447,-1 -1,-1 z M 34.792,46.292 24.499,56.585 V 20.999 c 0,-0.552 -0.447,-1 -1,-1 -0.553,0 -1,0.448 -1,1 V 56.585 L 12.206,46.292 c -0.391,-0.391 -1.023,-0.391 -1.414,0 -0.391,0.391 -0.391,1.023 0,1.414 l 11.999,11.999 c 0.092,0.093 0.203,0.166 0.326,0.217 0.122,0.051 0.252,0.077 0.382,0.077 0.13,0 0.26,-0.027 0.382,-0.077 0.123,-0.051 0.233,-0.124 0.326,-0.217 L 36.206,47.706 c 0.391,-0.391 0.391,-1.023 0,-1.414 -0.391,-0.391 -1.023,-0.391 -1.414,0 z" />
<g
   id="g20">
</g>
<g
   id="g22">
</g>
<g
   id="g24">
</g>
<g
   id="g26">
</g>
<g
   id="g28">
</g>
<g
   id="g30">
</g>
<g
   id="g32">
</g>
<g
   id="g34">
</g>
<g
   id="g36">
</g>
<g
   id="g38">
</g>
<g
   id="g40">
</g>
<g
   id="g42">
</g>
<g
   id="g44">
</g>
<g
   id="g46">
</g>
<g
   id="g48">
</g>
</svg>