<?xml version="1.0" encoding="UTF-8" standalone="no"?>
<svg
   xmlns:dc="http://purl.org/dc/elements/1.1/"
   xmlns:cc="http://creativecommons.org/ns#"
   xmlns:rdf="http://www.w3.org/1999/02/22-rdf-syntax-ns#"
   xmlns:svg="http://www.w3.org/2000/svg"
   xmlns="http://www.w3.org/2000/svg"
   xmlns:sodipodi="http://sodipodi.sourceforge.net/DTD/sodipodi-0.dtd"
   xmlns:inkscape="http://www.inkscape.org/namespaces/inkscape"
   width="210mm"
   height="297mm"
   viewBox="0 0 210 297"
   version="1.1"
   id="svg168"
   inkscape:version="1.0.1 (3bc2e813f5, 2020-09-07)"
   sodipodi:docname="sort_descending.svg">
  <defs
     id="defs162" />
  <sodipodi:namedview
     id="base"
     pagecolor="#ffffff"
     bordercolor="#666666"
     borderopacity="1.0"
     inkscape:pageopacity="0.0"
     inkscape:pageshadow="2"
     inkscape:zoom="0.7"
     inkscape:cx="317.45217"
     inkscape:cy="439.44872"
     inkscape:document-units="mm"
     inkscape:current-layer="layer1"
     inkscape:document-rotation="0"
     showgrid="false"
     inkscape:window-width="2560"
     inkscape:window-height="1017"
     inkscape:window-x="1912"
     inkscape:window-y="-8"
     inkscape:window-maximized="1" />
  <metadata
     id="metadata165">
    <rdf:RDF>
      <cc:Work
         rdf:about="">
        <dc:format>image/svg+xml</dc:format>
        <dc:type
           rdf:resource="http://purl.org/dc/dcmitype/StillImage" />
        <dc:title></dc:title>
      </cc:Work>
    </rdf:RDF>
  </metadata>
  <g
     inkscape:label="Layer 1"
     inkscape:groupmode="layer"
     id="layer1">
    <path
       id="path2-1"
       style="stroke-width:0.349385"
       d="M 39.498685,179.56968 72.829117,139.4465 c 0.825181,-1.11477 0.983946,-2.33349 0.475963,-3.65724 -0.50865,-1.32229 -1.428556,-1.98618 -2.762387,-1.98618 H 49.211403 V 3.4005623 c 0,-0.9757041 -0.285177,-1.7772014 -0.856533,-2.4033941 C 47.783847,0.3713415 47.053392,0.05696422 46.164839,0.05696422 H 27.881448 c -0.88822,0 -1.618675,0.31291335 -2.18903,0.939838 C 25.121395,1.6244588 24.836217,2.4259562 24.836217,3.4001964 V 133.80382 H 3.5052615 c -1.2714588,0 -2.1913652,0.66498 -2.76105344,1.98654 -0.50998439,1.32485 -0.31719761,2.54356 0.56968824,3.65834 l 33.7133367,40.12318 c 0.634395,0.69646 1.394869,1.04377 2.284423,1.04377 0.82318,0 1.552301,-0.34951 2.187029,-1.04597 z M 83.899846,35.43211 h 92.148814 c 3.55978,0 6.42559,-2.865816 6.42559,-6.425595 V 7.2475786 c 0,-3.5597798 -2.86581,-6.42559526 -6.42559,-6.42559526 H 83.899846 c -3.55978,0 -6.425595,2.86581546 -6.425595,6.42559526 V 29.006515 c 0,3.559779 2.865815,6.425595 6.425595,6.425595 z m 0,40.909733 h 67.148814 c 3.55978,0 6.42559,-2.865816 6.42559,-6.425596 V 48.157311 c 0,-3.559779 -2.86581,-6.425595 -6.42559,-6.425595 H 83.899846 c -3.55978,0 -6.425595,2.865816 -6.425595,6.425595 v 21.758936 c 0,3.55978 2.865815,6.425596 6.425595,6.425596 z m 0.07238,41.104677 h 42.004051 c 3.59988,0 6.49798,-2.8981 6.49798,-6.49798 V 88.944497 c 0,-3.599881 -2.8981,-6.497979 -6.49798,-6.497979 H 83.972229 c -3.59988,0 -6.497978,2.898098 -6.497978,6.497979 v 22.004043 c 0,3.59988 2.898098,6.49798 6.497978,6.49798 z m 0.145099,40.90973 h 21.713842 c 3.68027,0 6.64308,-2.96282 6.64308,-6.64308 v -21.71385 c 0,-3.68026 -2.96281,-6.64307 -6.64308,-6.64307 H 84.117328 c -3.680265,0 -6.643077,2.96281 -6.643077,6.64307 v 21.71385 c 0,3.68026 2.962812,6.64308 6.643077,6.64308 z" />
  </g>
</svg>
