<?xml version="1.0" encoding="UTF-8" standalone="no"?>
<svg
   xmlns:dc="http://purl.org/dc/elements/1.1/"
   xmlns:cc="http://creativecommons.org/ns#"
   xmlns:rdf="http://www.w3.org/1999/02/22-rdf-syntax-ns#"
   xmlns:svg="http://www.w3.org/2000/svg"
   xmlns="http://www.w3.org/2000/svg"
   xmlns:sodipodi="http://sodipodi.sourceforge.net/DTD/sodipodi-0.dtd"
   xmlns:inkscape="http://www.inkscape.org/namespaces/inkscape"
   width="210mm"
   height="297mm"
   viewBox="0 0 210 297"
   version="1.1"
   id="svg8"
   inkscape:version="1.0.1 (3bc2e813f5, 2020-09-07)"
   sodipodi:docname="sort.svg">
  <defs
     id="defs2" />
  <sodipodi:namedview
     id="base"
     pagecolor="#ffffff"
     bordercolor="#666666"
     borderopacity="1.0"
     inkscape:pageopacity="0.0"
     inkscape:pageshadow="2"
     inkscape:zoom="0.25191891"
     inkscape:cx="-1084.947"
     inkscape:cy="509.49745"
     inkscape:document-units="mm"
     inkscape:current-layer="layer1"
     inkscape:document-rotation="0"
     showgrid="false"
     inkscape:window-width="2560"
     inkscape:window-height="1017"
     inkscape:window-x="1912"
     inkscape:window-y="-8"
     inkscape:window-maximized="1" />
  <metadata
     id="metadata5">
    <rdf:RDF>
      <cc:Work
         rdf:about="">
        <dc:format>image/svg+xml</dc:format>
        <dc:type
           rdf:resource="http://purl.org/dc/dcmitype/StillImage" />
        <dc:title></dc:title>
      </cc:Work>
    </rdf:RDF>
  </metadata>
  <g
     inkscape:label="Layer 1"
     inkscape:groupmode="layer"
     id="layer1">
    <g
       id="g4-8-9"
       transform="matrix(0,0.36598053,-0.33354113,0,120.23425,1.7843808)">
      <path
         d="M 490.498,239.278 380.866,139.349 c -3.046,-2.474 -6.376,-2.95 -9.993,-1.427 -3.613,1.525 -5.427,4.283 -5.427,8.282 v 63.954 H 9.136 c -2.666,0 -4.856,0.855 -6.567,2.568 C 0.859,214.438 0,216.628 0,219.292 v 54.816 c 0,2.663 0.855,4.853 2.568,6.563 1.715,1.712 3.905,2.567 6.567,2.567 h 356.313 v 63.953 c 0,3.812 1.817,6.57 5.428,8.278 3.62,1.529 6.95,0.951 9.996,-1.708 L 490.504,252.684 c 1.903,-1.902 2.852,-4.182 2.852,-6.849 0,-2.468 -0.955,-4.654 -2.858,-6.557 z"
         id="path2-1-7" />
    </g>
    <g
       id="g4-8-91"
       transform="matrix(0,-0.36598053,0.33354113,0,28.99275,182.34307)">
      <path
         d="M 490.498,239.278 380.866,139.349 c -3.046,-2.474 -6.376,-2.95 -9.993,-1.427 -3.613,1.525 -5.427,4.283 -5.427,8.282 v 63.954 H 9.136 c -2.666,0 -4.856,0.855 -6.567,2.568 C 0.859,214.438 0,216.628 0,219.292 v 54.816 c 0,2.663 0.855,4.853 2.568,6.563 1.715,1.712 3.905,2.567 6.567,2.567 h 356.313 v 63.953 c 0,3.812 1.817,6.57 5.428,8.278 3.62,1.529 6.95,0.951 9.996,-1.708 L 490.504,252.684 c 1.903,-1.902 2.852,-4.182 2.852,-6.849 0,-2.468 -0.955,-4.654 -2.858,-6.557 z"
         id="path2-1-1" />
    </g>
  </g>
</svg>
