<svg height="512" viewBox="0 0 16 16" width="512" xmlns="http://www.w3.org/2000/svg"><path d="m12 10h-1.60834c-.573669-.518494-1.39166-1.3031-1.39166-3 0-.482422.150391-.818359.358887-1.2832.285645-.637695.641113-1.43115.641113-2.7168 0-1.6543-1.3457-3-3-3s-3 1.3457-3 3c0 1.28564.355469 2.0791.641113 2.7168.208496.464844.358887.800781.358887 1.2832 0 1.6969-.817993 2.48151-1.39166 3h-1.60834c-1.10303 0-2 .896973-2 2v2c0 .552246.447754 1 1 1v1h12v-1c.552246 0 1-.447754 1-1v-2c0-1.10303-.896973-2-2-2z" transform="translate(1)"/></svg>