<?xml version="1.0" encoding="iso-8859-1"?>
<!-- Generator: Adobe Illustrator 21.0.0, SVG Export Plug-In . SVG Version: 6.00 Build 0)  -->
<svg xmlns="http://www.w3.org/2000/svg" xmlns:xlink="http://www.w3.org/1999/xlink" version="1.1" id="Capa_1" x="0px" y="0px" viewBox="0 0 512 512" style="enable-background:new 0 0 512 512;" xml:space="preserve" width="512" height="512">
<g>
	<path d="M211,113.21l4.39,4.4c5.86,5.85,15.36,5.85,21.22,0c5.85-5.86,5.85-15.36,0-21.22l-30-30C197.199,56.979,181,63.639,181,77   v75h30V113.21z"/>
	<path d="M151,362c-33.084,0-60,26.916-60,60h120C211,388.916,184.084,362,151,362z"/>
	<path d="M151,332c16.542,0,30-13.458,30-30s-13.458-30-30-30s-30,13.458-30,30S134.458,332,151,332z"/>
	<path d="M477,152H331V87.759c17.978-5.901,31-22.833,31-42.759c0-24.813-20.187-45-45-45s-45,20.187-45,45   c0,19.179,12.065,35.585,29,42.05V152h-90v14.5c0,27.85,22.65,50.5,50.5,50.5c8.28,0,15,6.72,15,15s-6.72,15-15,15   c-44.39,0-80.5-36.11-80.5-80.5V152H35c-19.3,0-35,15.7-35,35v290c0,19.3,15.7,35,35,35h442c19.3,0,35-15.7,35-35V187   C512,167.7,496.3,152,477,152z M241,437c0,8.284-6.716,15-15,15H76c-8.284,0-15-6.716-15-15v-15   c0-33.852,18.79-63.393,46.484-78.757C71.431,305.223,98.365,242,151,242c52.615,0,79.586,63.206,43.516,101.243   C222.21,358.607,241,388.148,241,422V437z M317,30c8.271,0,15,6.729,15,15s-6.729,15-15,15s-15-6.729-15-15S308.729,30,317,30z    M406,422H287c-8.284,0-15-6.716-15-15s6.716-15,15-15h119c8.284,0,15,6.716,15,15S414.284,422,406,422z M436,362H286   c-8.284,0-15-6.716-15-15s6.716-15,15-15h150c8.284,0,15,6.716,15,15S444.284,362,436,362z M436,302H287c-8.284,0-15-6.716-15-15   s6.716-15,15-15h149c8.284,0,15,6.716,15,15S444.284,302,436,302z"/>
</g>















</svg>
