<?xml version="1.0" encoding="UTF-8" standalone="no"?>
<!-- Generator: Adobe Illustrator 18.0.0, SVG Export Plug-In . SVG Version: 6.00 Build 0)  -->

<svg
   xmlns:dc="http://purl.org/dc/elements/1.1/"
   xmlns:cc="http://creativecommons.org/ns#"
   xmlns:rdf="http://www.w3.org/1999/02/22-rdf-syntax-ns#"
   xmlns:svg="http://www.w3.org/2000/svg"
   xmlns="http://www.w3.org/2000/svg"
   xmlns:sodipodi="http://sodipodi.sourceforge.net/DTD/sodipodi-0.dtd"
   xmlns:inkscape="http://www.inkscape.org/namespaces/inkscape"
   version="1.1"
   id="Capa_1"
   x="0px"
   y="0px"
   viewBox="0 0 60 60"
   style="enable-background:new 0 0 60 60;"
   xml:space="preserve"
   sodipodi:docname="stopwatch.svg"
   inkscape:version="0.92.3 (2405546, 2018-03-11)"><metadata
   id="metadata47"><rdf:RDF><cc:Work
       rdf:about=""><dc:format>image/svg+xml</dc:format><dc:type
         rdf:resource="http://purl.org/dc/dcmitype/StillImage" /></cc:Work></rdf:RDF></metadata><defs
   id="defs45">
	
	
	
	
</defs><sodipodi:namedview
   pagecolor="#ffffff"
   bordercolor="#666666"
   borderopacity="1"
   objecttolerance="10"
   gridtolerance="10"
   guidetolerance="10"
   inkscape:pageopacity="0"
   inkscape:pageshadow="2"
   inkscape:window-width="1920"
   inkscape:window-height="1017"
   id="namedview43"
   showgrid="false"
   inkscape:zoom="5.5625733"
   inkscape:cx="-8.687981"
   inkscape:cy="15.804516"
   inkscape:window-x="-8"
   inkscape:window-y="-8"
   inkscape:window-maximized="1"
   inkscape:current-layer="Capa_1" />

<g
   id="g12">
</g>
<g
   id="g14">
</g>
<g
   id="g16">
</g>
<g
   id="g18">
</g>
<g
   id="g20">
</g>
<g
   id="g22">
</g>
<g
   id="g24">
</g>
<g
   id="g26">
</g>
<g
   id="g28">
</g>
<g
   id="g30">
</g>
<g
   id="g32">
</g>
<g
   id="g34">
</g>
<g
   id="g36">
</g>
<g
   id="g38">
</g>
<g
   id="g40">
</g>
<g
   id="g63"
   transform="matrix(0.05883299,0,0,0.05883299,41.734946,44.053365)"><path
     id="circle6-1"
     style="fill:#010002"
     d="m 121.27352,172.82274 a 31.782,31.782 0 0 1 -31.781996,31.782 31.782,31.782 0 0 1 -31.782,-31.782 31.782,31.782 0 0 1 31.782,-31.782 31.782,31.782 0 0 1 31.781996,31.782 z M 89.491525,-104.43525 c -17.544,0 -31.781999,14.238998 -31.781999,31.781998 v 158.912 c 0,17.544002 14.238999,31.782002 31.781999,31.782002 17.543005,0 31.782005,-14.239 31.782005,-31.782002 v -158.911 c 0,-17.544 -14.238,-31.782998 -31.782005,-31.782998 z M -182.46474,50.08474 c 0,-149.949884 122.006382,-271.95626 271.956265,-271.95626 83.371595,0 158.023585,37.80192 207.944555,97.05439 8.41365,-36.6971 13.01991,-74.83896 13.01991,-114.05166 0,-281.16878 -228.749213,-509.91799 -509.91799,-509.91799 -281.16878,0 -509.91799,228.74921 -509.91799,509.91799 0,281.168782 228.74921,509.91799 509.91799,509.91799 39.21269,0 77.35456,-4.60626 114.051655,-13.0199 C -144.67981,208.10832 -182.46474,133.45633 -182.46474,50.08474 Z M 40.913338,-505.35193 52.930405,-517.369 c 6.645931,-6.64593 17.388204,-6.64593 24.034135,0 6.645931,6.64593 6.645931,17.38821 0,24.03414 l -12.017068,12.01707 c -3.314466,3.31446 -7.665767,4.98019 -12.017067,4.98019 -4.3513,0 -8.7026,-1.66573 -12.017067,-4.98019 -6.645931,-6.62894 -6.645931,-17.38821 0,-24.03414 z M -216.45927,-614.86532 c 0,-9.39948 7.61478,-16.99726 16.99727,-16.99726 9.38249,0 16.99726,7.59778 16.99726,16.99726 v 16.99727 c 0,9.39949 -7.61477,16.99727 -16.99726,16.99727 -9.38249,0 -16.99727,-7.59778 -16.99727,-16.99727 z m -339.94533,390.93713 h -16.99726 c -9.38249,0 -16.99727,-7.59778 -16.99727,-16.99727 0,-9.39949 7.61478,-16.99726 16.99727,-16.99726 h 16.99726 c 9.3825,0 16.99727,7.59777 16.99727,16.99726 0,9.39949 -7.61477,16.99727 -16.99727,16.99727 z m 116.56726,247.429205 -12.01707,12.017068 c -3.31447,3.314467 -7.66577,4.980199 -12.01707,4.980199 -4.3513,0 -8.7026,-1.665732 -12.01706,-4.980199 -6.64594,-6.645932 -6.64594,-17.388204 0,-24.034135 l 12.01706,-12.01706726 c 6.64593,-6.64593114 17.38821,-6.64593114 24.03414,0 6.64593,6.64593116 6.64593,17.38820326 0,24.03413426 z m 0,-504.818805 c -3.31447,3.31446 -7.66577,4.98019 -12.01707,4.98019 -4.3513,0 -8.7026,-1.66573 -12.01707,-4.98019 l -12.01706,-12.01707 c -6.64594,-6.64593 -6.64594,-17.38821 0,-24.03414 6.64593,-6.64593 17.3882,-6.64593 24.03413,0 l 12.01707,12.01707 c 6.64593,6.64593 6.64593,17.4052 0,24.03414 z m 174.79988,257.3896 h -121.39447 c -9.38249,0 -16.99727,-7.59778 -16.99727,-16.99727 0,-9.39949 7.61478,-16.99726 16.99727,-16.99726 h 121.39447 c 6.18701,-23.77918 24.79902,-42.39119 48.57819,-48.57819 v -172.38628 c 0,-9.39948 7.61478,-16.99726 16.99727,-16.99726 9.38249,0 16.99726,7.59778 16.99726,16.99726 v 172.38628 c 29.2353,7.59778 50.9918,33.99453 50.9918,65.57545 0,37.49597 -30.49309,67.98907 -67.98906,67.98907 -31.58092,0 -57.97768,-21.73951 -65.57546,-50.9918 z m 99.56999,-16.99727 a 33.994533,33.994533 0 0 1 -33.99453,33.99454 33.994533,33.994533 0 0 1 -33.99454,-33.99454 33.994533,33.994533 0 0 1 33.99454,-33.99453 33.994533,33.994533 0 0 1 33.99453,33.99453 z m 254.958995,70.04574 c -121.836405,0 -220.964465,99.128055 -220.964465,220.96446 0,121.8364 99.12806,220.96446 220.964465,220.96446 121.836405,0 220.964465,-99.12806 220.964465,-220.96446 0,-121.836405 -99.12806,-220.96446 -220.964465,-220.96446 z m 0,407.93439 c -103.08842,0 -186.96993,-83.88151 -186.96993,-186.96993 0,-103.08842 83.88151,-186.96993 186.96993,-186.96993 103.088425,0 186.969925,83.88151 186.969925,186.96993 0,103.08842 -83.8815,186.96993 -186.969925,186.96993 z" /></g></svg>