<?xml version="1.0" encoding="UTF-8" standalone="no"?>
<!-- Generator: Adobe Illustrator 18.0.0, SVG Export Plug-In . SVG Version: 6.00 Build 0)  -->

<svg
   xmlns:dc="http://purl.org/dc/elements/1.1/"
   xmlns:cc="http://creativecommons.org/ns#"
   xmlns:rdf="http://www.w3.org/1999/02/22-rdf-syntax-ns#"
   xmlns:svg="http://www.w3.org/2000/svg"
   xmlns="http://www.w3.org/2000/svg"
   xmlns:sodipodi="http://sodipodi.sourceforge.net/DTD/sodipodi-0.dtd"
   xmlns:inkscape="http://www.inkscape.org/namespaces/inkscape"
   version="1.1"
   id="Capa_1"
   x="0px"
   y="0px"
   viewBox="0 0 60 60"
   style="enable-background:new 0 0 60 60;"
   xml:space="preserve"
   sodipodi:docname="stopwatch (1).svg"
   inkscape:version="0.92.3 (2405546, 2018-03-11)"><metadata
   id="metadata59"><rdf:RDF><cc:Work
       rdf:about=""><dc:format>image/svg+xml</dc:format><dc:type
         rdf:resource="http://purl.org/dc/dcmitype/StillImage" /></cc:Work></rdf:RDF></metadata><defs
   id="defs57">
	
	
	
	
	
	
	
	
	
	
</defs><sodipodi:namedview
   pagecolor="#ffffff"
   bordercolor="#666666"
   borderopacity="1"
   objecttolerance="10"
   gridtolerance="10"
   guidetolerance="10"
   inkscape:pageopacity="0"
   inkscape:pageshadow="2"
   inkscape:window-width="1920"
   inkscape:window-height="1017"
   id="namedview55"
   showgrid="false"
   inkscape:zoom="1.9666667"
   inkscape:cx="-262.22854"
   inkscape:cy="20.110701"
   inkscape:window-x="-8"
   inkscape:window-y="-8"
   inkscape:window-maximized="1"
   inkscape:current-layer="Capa_1" />

<g
   id="g24">
</g>
<g
   id="g26">
</g>
<g
   id="g28">
</g>
<g
   id="g30">
</g>
<g
   id="g32">
</g>
<g
   id="g34">
</g>
<g
   id="g36">
</g>
<g
   id="g38">
</g>
<g
   id="g40">
</g>
<g
   id="g42">
</g>
<g
   id="g44">
</g>
<g
   id="g46">
</g>
<g
   id="g48">
</g>
<g
   id="g50">
</g>
<g
   id="g52">
</g>
<g
   id="g63"
   transform="matrix(0.05883299,0,0,0.05883299,41.768844,43.833025)"><path
     id="circle6-1"
     style="fill:#010002"
     d="m 121.27352,172.82274 a 31.782,31.782 0 0 1 -31.781996,31.782 31.782,31.782 0 0 1 -31.782,-31.782 31.782,31.782 0 0 1 31.782,-31.782 31.782,31.782 0 0 1 31.781996,31.782 z M 89.491525,-104.43525 c -17.544,0 -31.781999,14.238998 -31.781999,31.781998 v 158.912 c 0,17.544002 14.238999,31.782002 31.781999,31.782002 17.543005,0 31.782005,-14.239 31.782005,-31.782002 v -158.911 c 0,-17.544 -14.238,-31.782998 -31.782005,-31.782998 z M 309.87981,-235.12361 c 0,-281.16878 -228.749206,-509.91799 -509.91799,-509.91799 -281.16878,0 -509.91799,228.74921 -509.91799,509.91799 0,281.16878 228.74921,509.91799 509.91799,509.91799 60.3403,0 119.456792,-10.65729 175.921711,-31.44494 33.1276717,19.81881 71.694469,31.44494 113.031821,31.44494 121.836408,0 220.964458,-99.12806 220.964458,-220.964462 0,-41.337352 -11.60913,-79.904149 -31.44494,-113.031822 20.78766,-56.464916 31.44494,-115.581406 31.44494,-175.921706 z M -57.68607,219.02635 c -46.0286,14.44768 -93.77392,21.7735 -142.35211,21.7735 -262.42079,0 -475.92345,-213.502665 -475.92345,-475.92346 0,-262.42079 213.50266,-475.92346 475.92345,-475.92346 262.420799,0 475.92346,213.50267 475.92346,475.92346 0,48.56119 -7.30882,96.32351 -21.7735,142.352105 -1.32578,-1.495759 -2.83854,-2.804549 -4.19832,-4.266313 -2.78755,-2.974522 -5.6261,-5.898052 -8.58362,-8.719602 -2.66857,-2.54959 -5.38813,-4.99719 -8.15869,-7.4108 -2.70256,-2.34563 -5.45612,-4.60626 -8.27767,-6.79891 -3.1105,-2.43061 -6.23799,-4.81023 -9.46747,-7.08786 -2.77056,-1.93769 -5.6091,-3.7564 -8.48164,-5.5751 -3.38246,-2.14166 -6.76491,-4.28332 -10.26635,-6.238 -3.02551,-1.69973 -6.13601,-3.22948 -9.24651,-4.77623 -3.46744,-1.73372 -6.91789,-3.50144 -10.47032,-5.04819 -3.48444,-1.52975 -7.08786,-2.82155 -10.67428,-4.16433 -3.34846,-1.2578 -6.64593,-2.60058 -10.04539,-3.68841 -4.13033,-1.32578 -8.39665,-2.36262 -12.62897,-3.45044 -3.02551,-0.76488 -5.98303,-1.68273 -9.04254,-2.32863 -5.03119,-1.07083 -10.18136,-1.76771 -15.33154,-2.4816 -2.39661,-0.33994 -4.75923,-0.83287 -7.17284,-1.08782 -7.59778,-0.79888 -15.314538,-1.2408 -23.150278,-1.2408 -121.836405,0 -220.964462,99.128052 -220.964462,220.964458 0,7.818742 0.44193,15.552498 1.2408,23.167274 0.25496,2.447606 0.76488,4.827223 1.10482,7.240835 0.71389,5.116177 1.41078,10.249352 2.46461,15.246548 0.64589,3.093505 1.58074,6.085025 2.36262,9.144525 1.07082,4.19833 2.09066,8.41365 3.41645,12.50999 1.10482,3.45045 2.4646,6.78191 3.7224,10.16437 1.32578,3.53543 2.60058,7.08786 4.11334,10.5383 1.56374,3.58643 3.34846,7.08786 5.11617,10.5893 1.52976,3.0765 3.04251,6.13601 4.70825,9.12753 1.98868,3.53543 4.147329,6.96888 6.322979,10.38533 1.784713,2.80455 3.569426,5.6091 5.490117,8.32866 2.294631,3.28047 4.708243,6.44197 7.189844,9.60346 2.17565,2.77055 4.385295,5.47312 6.679926,8.12469 2.447606,2.82155 4.946204,5.5921 7.529789,8.29467 2.770554,2.88953 5.643092,5.67708 8.566622,8.43064 1.461765,1.39378 2.787551,2.94053 4.334303,4.30031 z m 146.601422,21.7735 c -37.835915,0 -73.020256,-11.37117 -102.476519,-30.76505 -6.220999,-4.07935 -12.119051,-8.49864 -17.745146,-13.20688 -1.019836,-0.86686 -1.971683,-1.81871 -2.974522,-2.70257 -4.232319,-3.7054 -8.277668,-7.59777 -12.136048,-11.64312 -1.699726,-1.78472 -3.348461,-3.60342 -4.963202,-5.47312 -3.059507,-3.48444 -5.96604,-7.08786 -8.753592,-10.75927 -1.512756,-2.00568 -3.076505,-3.96037 -4.504275,-6.01704 -3.48444,-4.99719 -6.71392,-10.16436 -9.671445,-15.46751 -0.764877,-1.39377 -1.512757,-2.78755 -2.260636,-4.18133 -2.821546,-5.35413 -5.388134,-10.84425 -7.665767,-16.47035 -0.883858,-2.19264 -1.631738,-4.45328 -2.447607,-6.67992 -1.61474,-4.47028 -3.110499,-9.00855 -4.385294,-13.59781 -0.662894,-2.39662 -1.291793,-4.793234 -1.852702,-7.223843 -1.138817,-4.827224 -2.039672,-9.722436 -2.787552,-14.668641 -0.322948,-2.158653 -0.74788,-4.317306 -1.002839,-6.509953 -0.815869,-7.121855 -1.342784,-14.328695 -1.342784,-21.603525 0,-103.088421 83.881509,-186.969928 186.96993,-186.969928 7.27483,0 14.481668,0.52691 21.603528,1.35978 2.19264,0.25496 4.3343,0.66289 6.50995,1.00284 4.92921,0.74788 9.82442,1.64873 14.65164,2.78755 2.43061,0.57791 4.84422,1.18981 7.24084,1.8697 4.58926,1.27479 9.11053,2.75356 13.58082,4.3683 2.24363,0.81587 4.50427,1.56374 6.69692,2.4646 5.5921,2.27763 11.06522,4.82722 16.40236,7.63177 1.44477,0.74788 2.87254,1.51276 4.28331,2.31163 5.28615,2.95753 10.43632,6.17001 15.41652,9.637451 2.07367,1.42777 4.02835,2.991519 6.03403,4.521273 3.68841,2.787551 7.29183,5.677087 10.75927,8.753592 1.8527,1.631737 3.68841,3.280472 5.47312,4.963202 4.04535,3.858379 7.92073,7.903728 11.64313,12.136048 0.88386,1.019836 1.8357,1.954685 2.70256,2.974521 4.70825,5.609098 9.11054,11.50715 13.18988,17.711152 19.41088,29.456262 30.78205,64.640604 30.78205,102.476519 0,103.088422 -83.88151,186.969932 -186.969928,186.969932 z M -452.43058,-513.62382 c -6.64593,-6.64593 -17.38821,-6.64593 -24.03414,0 -6.64593,6.64593 -6.64593,17.3882 0,24.03414 l 12.01707,12.01706 c 3.31447,3.31447 7.66577,4.9802 12.01707,4.9802 4.3513,0 8.7026,-1.66573 12.01706,-4.9802 6.64593,-6.64593 6.64593,-17.3882 0,-24.03413 z M -464.44765,3.1950611 -476.46472,15.212128 c -6.64593,6.645932 -6.64593,17.388204 0,24.034135 3.31447,3.314467 7.66577,4.980199 12.01707,4.980199 4.3513,0 8.7026,-1.665732 12.01707,-4.980199 l 12.01706,-12.017067 c 6.64593,-6.645931 6.64593,-17.3882037 0,-24.0341349 -6.64593,-6.6459311 -17.4052,-6.6459311 -24.03413,0 z M 52.354232,-472.59242 c 4.3513,0 8.7026,-1.66573 12.017067,-4.9802 l 12.017067,-12.01706 c 6.645932,-6.64594 6.645932,-17.38821 0,-24.03414 -6.645931,-6.64593 -17.388203,-6.64593 -24.034134,0 l -12.017067,12.01707 c -6.645932,6.64593 -6.645932,17.3882 0,24.03413 3.314467,3.33147 7.665767,4.9802 12.017067,4.9802 z m -609.335002,218.41487 h -16.99727 c -9.38249,0 -16.99726,7.59778 -16.99726,16.99727 0,9.39949 7.61477,16.99727 16.99726,16.99727 h 16.99727 c 9.38249,0 16.99727,-7.59778 16.99727,-16.99727 0,-9.39949 -7.61478,-16.99727 -16.99727,-16.99727 z m 713.88519,33.99454 h 16.99726 c 9.38249,0 16.99727,-7.59778 16.99727,-16.99727 0,-9.39949 -7.61478,-16.99727 -16.99727,-16.99727 h -16.99726 c -9.38249,0 -16.99727,7.59778 -16.99727,16.99727 0,9.39949 7.61478,16.99727 16.99727,16.99727 z m -356.9426,322.94806 c -9.38249,0 -16.99726,7.59778 -16.99726,16.99726 v 16.99727 c 0,9.39949 7.61477,16.99727 16.99726,16.99727 9.3825,0 16.99727,-7.59778 16.99727,-16.99727 v -16.99727 c 0,-9.39948 -7.61477,-16.99726 -16.99727,-16.99726 z m 0,-679.89066 c 9.3825,0 16.99727,-7.59777 16.99727,-16.99726 v -16.99727 c 0,-9.39949 -7.61477,-16.99726 -16.99727,-16.99726 -9.38249,0 -16.99726,7.59777 -16.99726,16.99726 v 16.99727 c 0,9.39949 7.61477,16.99726 16.99726,16.99726 z m 16.99727,274.36988 v -172.38628 c 0,-9.39949 -7.61477,-16.99726 -16.99727,-16.99726 -9.38249,0 -16.99726,7.59777 -16.99726,16.99726 v 172.38628 c -24.47607,6.35697 -43.63198,25.85284 -49.22409,50.63485 h -120.74858 c -9.38249,0 -16.99726,7.59778 -16.99726,16.99727 0,9.39949 7.61477,16.99727 16.99726,16.99727 h 122.04038 c 8.29466,28.18146 34.09651,48.93513 64.92955,48.93513 37.49597,0 67.98907,-30.4931 67.98907,-67.98907 0,-31.59792 -21.7565,-57.97767 -50.9918,-65.57545 z m -16.99727,99.56998 c -18.74798,0 -33.99453,-15.24654 -33.99453,-33.99453 0,-18.74798 15.24655,-33.99453 33.99453,-33.99453 18.74799,0 33.99454,15.24655 33.99454,33.99453 0,18.74799 -15.24655,33.99453 -33.99454,33.99453 z" /></g></svg>