<?xml version="1.0" encoding="UTF-8" standalone="no"?>
<!-- Created with Inkscape (http://www.inkscape.org/) -->

<svg
   xmlns:dc="http://purl.org/dc/elements/1.1/"
   xmlns:cc="http://creativecommons.org/ns#"
   xmlns:rdf="http://www.w3.org/1999/02/22-rdf-syntax-ns#"
   xmlns:svg="http://www.w3.org/2000/svg"
   xmlns="http://www.w3.org/2000/svg"
   xmlns:sodipodi="http://sodipodi.sourceforge.net/DTD/sodipodi-0.dtd"
   xmlns:inkscape="http://www.inkscape.org/namespaces/inkscape"
   width="210mm"
   height="297mm"
   viewBox="0 0 210 297"
   version="1.1"
   id="svg882"
   inkscape:version="0.92.3 (2405546, 2018-03-11)"
   sodipodi:docname="table.svg">
  <defs
     id="defs876" />
  <sodipodi:namedview
     id="base"
     pagecolor="#ffffff"
     bordercolor="#666666"
     borderopacity="1.0"
     inkscape:pageopacity="0.0"
     inkscape:pageshadow="2"
     inkscape:zoom="1.4"
     inkscape:cx="-42.431916"
     inkscape:cy="876.93405"
     inkscape:document-units="mm"
     inkscape:current-layer="layer1"
     showgrid="false"
     inkscape:window-width="2560"
     inkscape:window-height="1017"
     inkscape:window-x="1912"
     inkscape:window-y="-8"
     inkscape:window-maximized="1" />
  <metadata
     id="metadata879">
    <rdf:RDF>
      <cc:Work
         rdf:about="">
        <dc:format>image/svg+xml</dc:format>
        <dc:type
           rdf:resource="http://purl.org/dc/dcmitype/StillImage" />
        <dc:title />
      </cc:Work>
    </rdf:RDF>
  </metadata>
  <g
     inkscape:label="Layer 1"
     inkscape:groupmode="layer"
     id="layer1">
    <path
       style="fill:#000000;fill-opacity:1;stroke:#ffffff;stroke-width:0;stroke-miterlimit:6.19999981;stroke-dasharray:none;stroke-opacity:1"
       d="m 7.2073038,1.5513971 c -1.70198,0 -3.07215,1.3706901 -3.07215,3.0726801 V 110.10239 c 0,1.70199 1.37017,3.07216 3.07215,3.07216 H 125.84038 c 1.702,0 3.07216,-1.37017 3.07216,-3.07216 V 4.6240772 c 0,-1.70199 -1.37016,-3.0726801 -3.07216,-3.0726801 z M 12.061274,4.8581772 H 121.48612 c 2.43522,0 4.41963,1.98335 4.41937,4.41937 V 106.07679 c 0,2.03253 -1.3901,3.73195 -3.26388,4.24471 v 0.0667 h -0.21704 c -0.30401,0.0667 -0.61725,0.10594 -0.93845,0.10594 H 12.061274 c -0.32409,0 -0.63833,-0.0392 -0.94155,-0.10594 l -0.94152,-0.28784 -0.6418202,-0.40876 c -1.14327,-0.80063 -1.89344,-2.11882 -1.89344,-3.61477 V 9.2760372 c 0,-2.4347 1.9794,-4.41782 4.4183302,-4.41782 z m 16.83258,3.78581 V 22.008027 h 28.09338 V 8.6439872 Z m 31.88073,0 V 22.008027 h 28.41171 V 8.6439872 Z m 32.19959,0 V 22.008027 h 29.143436 5.2e-4 V 9.2759972 c 0,-0.3482 -0.28435,-0.63201 -0.63149,-0.63201 z M 11.429794,25.796427 v 13.88856 h 13.67565 v -13.88856 z m 17.46406,0 v 13.88856 h 28.09338 v -13.88856 z m 31.88073,0 v 13.88856 h 28.41171 v -13.88856 z m 32.19959,0 v 13.88856 h 29.143436 v -13.88856 z m -81.54438,17.67593 v 14.20481 h 13.67565 v -14.20481 z m 17.46406,0 v 14.20481 h 28.09338 v -14.20481 z m 31.88073,0 v 14.20481 h 28.41171 v -14.20481 z m 32.19959,0 v 14.20481 h 29.143436 v -14.20481 z m -81.54438,17.99166 v 13.1315 h 13.67565 v -13.1315 z m 17.46406,0 v 13.1315 h 28.09338 v -13.1315 z m 31.88073,0 v 13.1315 h 28.41171 v -13.1315 z m 32.19959,0 v 13.1315 h 29.143436 v -13.1315 z m -61.53527,2.26653 h 22.73194 v 7.90598 h -22.73194 z m 65.03738,0.12351 h 22.731426 v 7.90649 H 96.476284 Z m -32.91479,0.17415 h 22.73195 v 7.90649 h -22.73195 z m -52.1317,14.35364 v 12.438 h 13.67565 v -12.438 z m 17.46406,0 v 12.438 h 28.09338 v -12.438 z m 31.88073,0 v 12.438 h 28.41171 v -12.438 z m 32.19959,0 v 12.438 h 29.143436 v -12.438 z m -81.54438,16.22537 v 11.469573 c 0,0.22437 0.12449,0.41393 0.30334,0.524 h 13.37231 V 94.607217 Z m 17.46406,0 v 11.993573 h 28.09338 V 94.607217 Z m 31.88073,0 v 11.993573 h 28.41171 V 94.607217 Z m 32.19959,0 v 11.993063 h 28.839576 c 0.177,-0.11112 0.30386,-0.29992 0.30386,-0.52349 V 94.607217 Z"
       id="rect848"
       inkscape:connector-curvature="0" />
  </g>
</svg>
