<?xml version="1.0" encoding="UTF-8" standalone="no"?>
<!-- Generator: Adobe Illustrator 19.0.0, SVG Export Plug-In . SVG Version: 6.00 Build 0)  -->

<svg
   xmlns:dc="http://purl.org/dc/elements/1.1/"
   xmlns:cc="http://creativecommons.org/ns#"
   xmlns:rdf="http://www.w3.org/1999/02/22-rdf-syntax-ns#"
   xmlns:svg="http://www.w3.org/2000/svg"
   xmlns="http://www.w3.org/2000/svg"
   xmlns:sodipodi="http://sodipodi.sourceforge.net/DTD/sodipodi-0.dtd"
   xmlns:inkscape="http://www.inkscape.org/namespaces/inkscape"
   version="1.1"
   id="Capa_1"
   x="0px"
   y="0px"
   viewBox="0 0 60 60"
   style="enable-background:new 0 0 60 60;"
   xml:space="preserve"
   sodipodi:docname="urgent.svg"
   inkscape:version="0.92.3 (2405546, 2018-03-11)"><metadata
   id="metadata43"><rdf:RDF><cc:Work
       rdf:about=""><dc:format>image/svg+xml</dc:format><dc:type
         rdf:resource="http://purl.org/dc/dcmitype/StillImage" /><dc:title /></cc:Work></rdf:RDF></metadata><defs
   id="defs41">
	
	
</defs><sodipodi:namedview
   pagecolor="#ffffff"
   bordercolor="#666666"
   borderopacity="1"
   objecttolerance="10"
   gridtolerance="10"
   guidetolerance="10"
   inkscape:pageopacity="0"
   inkscape:pageshadow="2"
   inkscape:window-width="1920"
   inkscape:window-height="1017"
   id="namedview39"
   showgrid="false"
   inkscape:zoom="11.313708"
   inkscape:cx="31.076468"
   inkscape:cy="37.892594"
   inkscape:window-x="-8"
   inkscape:window-y="-8"
   inkscape:window-maximized="1"
   inkscape:current-layer="Capa_1" />

<g
   id="g8">
</g>
<g
   id="g10">
</g>
<g
   id="g12">
</g>
<g
   id="g14">
</g>
<g
   id="g16">
</g>
<g
   id="g18">
</g>
<g
   id="g20">
</g>
<g
   id="g22">
</g>
<g
   id="g24">
</g>
<g
   id="g26">
</g>
<g
   id="g28">
</g>
<g
   id="g30">
</g>
<g
   id="g32">
</g>
<g
   id="g34">
</g>
<g
   id="g36">
</g>
<path
   style="stroke-width:0.05740707"
   d="M 30 0 C 13.458 0 0 13.458 0 30 C 0 46.542 13.458 60 30 60 C 32.546321 60 35.018525 59.680006 37.380859 59.080078 A 15.280697 15.280697 0 0 1 32.740234 48.134766 A 15.280697 15.280697 0 0 1 48.021484 32.853516 A 15.280697 15.280697 0 0 1 59.037109 37.548828 C 59.664885 35.135884 60 32.606699 60 30 C 60 13.458 46.542 0 30 0 z M 29.863281 5.8398438 L 30.085938 5.8398438 C 30.783719 5.8398438 31.34375 6.4018277 31.34375 7.0996094 L 31.34375 9.3984375 C 31.34375 10.096219 30.783719 10.65625 30.085938 10.65625 L 29.863281 10.65625 C 29.1655 10.65625 28.605469 10.096219 28.605469 9.3984375 L 28.605469 7.0996094 C 28.605469 6.4018277 29.1655 5.8398438 29.863281 5.8398438 z M 14.443359 13.322266 C 14.699109 13.322266 14.954891 13.419736 15.150391 13.615234 L 15.857422 14.322266 C 16.248422 14.713266 16.248422 15.346328 15.857422 15.736328 C 15.662422 15.931328 15.406391 16.029297 15.150391 16.029297 C 14.894391 16.029297 14.638359 15.931327 14.443359 15.736328 L 13.736328 15.029297 C 13.345328 14.638297 13.345328 14.006234 13.736328 13.615234 C 13.931828 13.419734 14.187609 13.322266 14.443359 13.322266 z M 45.556641 13.322266 C 45.812391 13.322266 46.068172 13.419736 46.263672 13.615234 C 46.654672 14.006234 46.654672 14.639297 46.263672 15.029297 L 45.556641 15.736328 C 45.361641 15.931328 45.105609 16.029297 44.849609 16.029297 C 44.593609 16.029297 44.337578 15.931327 44.142578 15.736328 C 43.751578 15.345328 43.751578 14.713266 44.142578 14.322266 L 44.849609 13.615234 C 45.045109 13.419734 45.300891 13.322266 45.556641 13.322266 z M 30 14.878906 C 30.552 14.878906 31 15.325906 31 15.878906 L 31 26.021484 C 32.72 26.468484 34 28.019906 34 29.878906 C 34 32.084906 32.206 33.878906 30 33.878906 C 28.142 33.878906 26.589578 32.598906 26.142578 30.878906 L 19 30.878906 C 18.448 30.878906 18 30.431906 18 29.878906 C 18 29.325906 18.448 28.878906 19 28.878906 L 26.142578 28.878906 C 26.506578 27.479906 27.601 26.385484 29 26.021484 L 29 15.878906 C 29 15.325906 29.448 14.878906 30 14.878906 z M 30 27.878906 A 2 2 0 0 0 28 29.878906 A 2 2 0 0 0 30 31.878906 A 2 2 0 0 0 32 29.878906 A 2 2 0 0 0 30 27.878906 z M 7.1972656 28.636719 L 9.4648438 28.636719 C 10.122298 28.636719 10.650391 29.166764 10.650391 29.824219 L 10.650391 29.910156 C 10.650391 30.567611 10.122298 31.097656 9.4648438 31.097656 L 7.1972656 31.097656 C 6.5398113 31.097656 6.0097656 30.567611 6.0097656 29.910156 L 6.0097656 29.824219 C 6.0097656 29.166764 6.5398113 28.636719 7.1972656 28.636719 z M 50.396484 28.673828 L 52.664062 28.673828 C 53.321517 28.673828 53.851562 29.203874 53.851562 29.861328 L 53.851562 29.947266 C 53.851562 30.60472 53.321517 31.132812 52.664062 31.132812 L 50.396484 31.132812 C 49.73903 31.132812 49.210938 30.60472 49.210938 29.947266 L 49.210938 29.861328 C 49.210938 29.203874 49.73903 28.673828 50.396484 28.673828 z M 48.021484 35.449219 C 41.027214 35.449219 35.335937 41.140495 35.335938 48.134766 C 35.335938 55.129037 41.027214 60.820312 48.021484 60.820312 C 55.015754 60.820312 60.707031 55.129037 60.707031 48.134766 C 60.707031 41.140495 55.015754 35.449219 48.021484 35.449219 z M 48.021484 39.263672 C 49.028634 39.263673 49.845703 40.082693 49.845703 41.089844 L 49.845703 50.210938 C 49.845703 51.21803 49.028574 52.037109 48.021484 52.037109 C 47.014384 52.037109 46.197266 51.218088 46.197266 50.210938 L 46.197266 41.089844 C 46.197266 40.082751 47.014334 39.263672 48.021484 39.263672 z M 15.150391 43.728516 C 15.406141 43.728516 15.661922 43.825986 15.857422 44.021484 C 16.248422 44.412484 16.248422 45.044547 15.857422 45.435547 L 15.150391 46.142578 C 14.955391 46.337578 14.699359 46.435547 14.443359 46.435547 C 14.187359 46.435547 13.931328 46.337577 13.736328 46.142578 C 13.345328 45.751578 13.345328 45.119516 13.736328 44.728516 L 14.443359 44.021484 C 14.638859 43.825984 14.894641 43.728516 15.150391 43.728516 z M 29.863281 48.929688 L 30.085938 48.929688 C 30.783719 48.929688 31.34375 49.491671 31.34375 50.189453 L 31.34375 52.486328 C 31.34375 53.18411 30.783719 53.746094 30.085938 53.746094 L 29.863281 53.746094 C 29.1655 53.746094 28.605469 53.18411 28.605469 52.486328 L 28.605469 50.189453 C 28.605469 49.491671 29.1655 48.929687 29.863281 48.929688 z M 48.021484 53.357422 A 1.8245115 1.8245115 0 0 1 49.845703 55.181641 A 1.8245115 1.8245115 0 0 1 48.021484 57.005859 A 1.8245115 1.8245115 0 0 1 46.197266 55.181641 A 1.8245115 1.8245115 0 0 1 48.021484 53.357422 z "
   id="path75" /></svg>