<?xml version="1.0" encoding="UTF-8" standalone="no"?>
<!-- Generator: Adobe Illustrator 19.1.0, SVG Export Plug-In . SVG Version: 6.00 Build 0)  -->

<svg
   xmlns:dc="http://purl.org/dc/elements/1.1/"
   xmlns:cc="http://creativecommons.org/ns#"
   xmlns:rdf="http://www.w3.org/1999/02/22-rdf-syntax-ns#"
   xmlns:svg="http://www.w3.org/2000/svg"
   xmlns="http://www.w3.org/2000/svg"
   xmlns:sodipodi="http://sodipodi.sourceforge.net/DTD/sodipodi-0.dtd"
   xmlns:inkscape="http://www.inkscape.org/namespaces/inkscape"
   version="1.1"
   id="Capa_1"
   x="0px"
   y="0px"
   viewBox="0 0 488.8 488.8"
   style="enable-background:new 0 0 488.8 488.8;"
   xml:space="preserve"
   sodipodi:docname="user.svg"
   inkscape:version="0.92.3 (2405546, 2018-03-11)"><metadata
   id="metadata49"><rdf:RDF><cc:Work
       rdf:about=""><dc:format>image/svg+xml</dc:format><dc:type
         rdf:resource="http://purl.org/dc/dcmitype/StillImage" /></cc:Work></rdf:RDF></metadata><defs
   id="defs47" /><sodipodi:namedview
   pagecolor="#ffffff"
   bordercolor="#666666"
   borderopacity="1"
   objecttolerance="10"
   gridtolerance="10"
   guidetolerance="10"
   inkscape:pageopacity="0"
   inkscape:pageshadow="2"
   inkscape:window-width="1920"
   inkscape:window-height="1017"
   id="namedview45"
   showgrid="false"
   inkscape:zoom="0.48281507"
   inkscape:cx="244.39999"
   inkscape:cy="244.39999"
   inkscape:window-x="-8"
   inkscape:window-y="-8"
   inkscape:window-maximized="1"
   inkscape:current-layer="Capa_1" />
<g
   id="g12">
	<g
   id="g10">
		<g
   id="g4">
			
		</g>
		<g
   id="g8">
			<path
   id="path6"
   d="m 398.2,278.35 c -50,0 -90.6,40.6 -90.6,90.6 0,50 40.6,90.6 90.6,90.6 50,0 90.6,-40.6 90.6,-90.6 0,-50 -40.5,-90.6 -90.6,-90.6 z m 53,103.8 h -39.8 v 39.8 H 385 v -39.8 h -39.8 v -26.4 H 385 v -39.8 h 26.4 v 39.8 h 39.8 z m -171.1,-13.2 c 0,-20.1 5,-39.4 14.4,-56.6 -13.3,-7.5 -23.1,-12.4 -27.2,-14.4 -1.3,-0.6 -2,-1.9 -2,-3.3 v -79 c 9.9,-6.6 16.5,-17.9 16.5,-30.7 v -81.9 c 0,-40.7 -33,-73.8 -73.8,-73.8 h -8.8 -8.8 c -40.7,0 -73.8,33 -73.8,73.8 v 81.9 c 0,12.8 6.6,24.1 16.5,30.7 v 79 c 0,1.4 -0.8,2.7 -2,3.3 -11.3,5.5 -66,33.1 -116.7,74.8 -9.2,7.5 -14.4,18.8 -14.4,30.7 v 56.1 h 199.1 123.3 c -2.7,-2.2 -5.2,-4.6 -7.7,-7.1 -22.3,-22.3 -34.6,-52 -34.6,-83.5 z" />
		</g>
	</g>
</g>
<g
   id="g14">
</g>
<g
   id="g16">
</g>
<g
   id="g18">
</g>
<g
   id="g20">
</g>
<g
   id="g22">
</g>
<g
   id="g24">
</g>
<g
   id="g26">
</g>
<g
   id="g28">
</g>
<g
   id="g30">
</g>
<g
   id="g32">
</g>
<g
   id="g34">
</g>
<g
   id="g36">
</g>
<g
   id="g38">
</g>
<g
   id="g40">
</g>
<g
   id="g42">
</g>
</svg>