<?xml version="1.0" encoding="UTF-8" standalone="no"?>
<svg
   xmlns:dc="http://purl.org/dc/elements/1.1/"
   xmlns:cc="http://creativecommons.org/ns#"
   xmlns:rdf="http://www.w3.org/1999/02/22-rdf-syntax-ns#"
   xmlns:svg="http://www.w3.org/2000/svg"
   xmlns="http://www.w3.org/2000/svg"
   xmlns:sodipodi="http://sodipodi.sourceforge.net/DTD/sodipodi-0.dtd"
   xmlns:inkscape="http://www.inkscape.org/namespaces/inkscape"
   id="Capa_1"
   enable-background="new 0 0 512 512"
   height="512"
   viewBox="0 0 512 512"
   width="512"
   version="1.1"
   sodipodi:docname="users.svg"
   inkscape:version="0.92.3 (2405546, 2018-03-11)">
  <metadata
     id="metadata21">
    <rdf:RDF>
      <cc:Work
         rdf:about="">
        <dc:format>image/svg+xml</dc:format>
        <dc:type
           rdf:resource="http://purl.org/dc/dcmitype/StillImage" />
      </cc:Work>
    </rdf:RDF>
  </metadata>
  <defs
     id="defs19" />
  <sodipodi:namedview
     pagecolor="#ffffff"
     bordercolor="#666666"
     borderopacity="1"
     objecttolerance="10"
     gridtolerance="10"
     guidetolerance="10"
     inkscape:pageopacity="0"
     inkscape:pageshadow="2"
     inkscape:window-width="1920"
     inkscape:window-height="1017"
     id="namedview17"
     showgrid="false"
     inkscape:zoom="0.4609375"
     inkscape:cx="256"
     inkscape:cy="256"
     inkscape:window-x="-8"
     inkscape:window-y="-8"
     inkscape:window-maximized="1"
     inkscape:current-layer="Capa_1" />
  <path
     id="path12"
     d="m 444.1,240.63 c -25.17,0 -44.669,-2.324 -66.29,15.39 51.965,53.056 43.19,105.935 43.19,187.59 0,4.314 -7.003,3.02 60.54,3.02 16.8,0 30.46,-13.61 30.46,-30.34 V 308.12 c 0,-37.21 -30.46,-67.49 -67.9,-67.49 z m -164.29,0.4 c -43.724,-3.647 -81.729,0.042 -114.51,27.1 -54.857,43.94 -44.3,103.103 -44.3,175.48 0,19.149 15.58,35.02 35.02,35.02 211.082,0 219.483,6.809 232,-20.91 4.105,-9.374 2.98,-6.395 2.98,-96.07 0,-71.226 -61.673,-120.62 -111.19,-120.62 z m -145.62,14.991 c -21.65,-17.738 -41.257,-15.39 -66.29,-15.39 -37.44,0 -67.9,30.28 -67.9,67.49 v 109.21 c 0,16.16 13.19,29.3 29.41,29.3 70.026,0 61.59,1.267 61.59,-3.02 0,-77.386 -9.166,-134.137 43.19,-187.59 z M 135,151.63 a 55,55 0 0 1 -55,55 55,55 0 0 1 -55,-55 A 55,55 0 0 1 80,96.630005 55,55 0 0 1 135,151.63 Z m 352,0 a 55,55 0 0 1 -55,55 55,55 0 0 1 -55,-55 A 55,55 0 0 1 432,96.630005 55,55 0 0 1 487,151.63 Z M 343,119.631 a 87,87 0 0 1 -87,87 87,87 0 0 1 -87,-87 87,87 0 0 1 87,-87.000003 87,87 0 0 1 87,87.000003 z" />
</svg>
