<?xml version="1.0" encoding="UTF-8" standalone="no"?>
<!-- Generator: Adobe Illustrator 19.0.0, SVG Export Plug-In . SVG Version: 6.00 Build 0)  -->

<svg
   xmlns:dc="http://purl.org/dc/elements/1.1/"
   xmlns:cc="http://creativecommons.org/ns#"
   xmlns:rdf="http://www.w3.org/1999/02/22-rdf-syntax-ns#"
   xmlns:svg="http://www.w3.org/2000/svg"
   xmlns="http://www.w3.org/2000/svg"
   xmlns:sodipodi="http://sodipodi.sourceforge.net/DTD/sodipodi-0.dtd"
   xmlns:inkscape="http://www.inkscape.org/namespaces/inkscape"
   version="1.1"
   id="Capa_1"
   x="0px"
   y="0px"
   viewBox="0 0 512 512"
   style="enable-background:new 0 0 512 512;"
   xml:space="preserve"
   sodipodi:docname="warning2.svg"
   inkscape:version="0.92.3 (2405546, 2018-03-11)"><metadata
   id="metadata3825"><rdf:RDF><cc:Work
       rdf:about=""><dc:format>image/svg+xml</dc:format><dc:type
         rdf:resource="http://purl.org/dc/dcmitype/StillImage" /><dc:title></dc:title></cc:Work></rdf:RDF></metadata><defs
   id="defs3823" /><sodipodi:namedview
   pagecolor="#ffffff"
   bordercolor="#666666"
   borderopacity="1"
   objecttolerance="10"
   gridtolerance="10"
   guidetolerance="10"
   inkscape:pageopacity="0"
   inkscape:pageshadow="2"
   inkscape:window-width="1920"
   inkscape:window-height="1017"
   id="namedview3821"
   showgrid="false"
   inkscape:zoom="1.65625"
   inkscape:cx="256"
   inkscape:cy="207.69811"
   inkscape:window-x="-8"
   inkscape:window-y="-8"
   inkscape:window-maximized="1"
   inkscape:current-layer="Capa_1" />




<g
   id="g3782">
	
	
</g>
<g
   id="g3788">
	
	<path
   id="path3786"
   style="fill:#414356;"
   d="m 266.601,363.831 c -13.079,-8.086 -29.963,1.354 -29.963,16.71 0,15.362 16.887,24.794 29.963,16.711 -12.448,-7.697 -12.458,-25.718 0,-33.421 z m -6.087,-39.108 -2.847,-84.634 c 0,-5.32 3.654,-9.775 8.588,-11.021 -1.89,-0.48 -1.451,-0.36 -17.824,-0.36 -6.287,0 -11.38,5.096 -11.38,11.381 l 2.846,84.634 c 0,6.286 5.095,11.381 11.38,11.381 9.761,0 11.672,0.39 14.978,-1.504 -3.426,-1.96 -5.741,-5.645 -5.741,-9.877 z m 15.43501,55.81701 a 19.653999,19.653999 0 0 1 -19.654,19.654 19.653999,19.653999 0 0 1 -19.654,-19.654 19.653999,19.653999 0 0 1 19.654,-19.654 19.653999,19.653999 0 0 1 19.654,19.654 z M 263.464,228.708 h -15.032 c -6.287,0 -11.38,5.096 -11.38,11.381 l 2.846,84.634 c 0,6.286 5.095,11.381 11.38,11.381 h 9.341 c 6.285,0 11.381,-5.096 11.381,-11.381 l 2.845,-84.634 c -0.002,-6.285 -5.095,-11.381 -11.381,-11.381 z M 75.716,456.264 c -4.088,-6.871 -0.018,-12.227 3.153,-18.079 h -0.326 l 177.336,-327.264 0.164,0.305 13.605,-25.104 c -2.957,-5.455 -5.407,-12.263 -13.768,-12.263 -4.388,0 -8.425,2.404 -10.516,6.262 L 47.94,444.446 c -4.315,7.965 1.471,17.66 10.516,17.66 h 27.539 c -4.218,0 -8.123,-2.22 -10.279,-5.842 z m 377.59,5.842 H 58.457 c -9.06,0 -14.827,-9.708 -10.516,-17.66 L 245.363,80.121 c 4.526,-8.352 16.525,-8.317 21.035,0 l 197.424,364.325 c 4.325,7.986 -1.489,17.66 -10.516,17.66 z M 78.543,438.185 H 433.22 L 255.88,110.922 Z M 25.375,461.562 C 276.432,-1.731 259.879,25.932 267.24,21.439 256.563,14.919 242.644,18.704 236.707,29.658 L 2.657,461.562 c -7.866,14.52 2.685,32.199 19.174,32.199 h 22.718 c -16.515,0 -27.028,-17.701 -19.174,-32.199 z m 464.553,32.199 H 21.832 C 5.315,493.761 -5.195,476.06 2.658,461.562 L 236.706,29.658 c 8.251,-15.226 30.132,-15.174 38.346,0 253.807,468.364 236.706,434.365 236.706,442.296 0,12.011 -9.723,21.807 -21.83,21.807 z" />
</g>
<g
   id="g3790">
</g>
<g
   id="g3792">
</g>
<g
   id="g3794">
</g>
<g
   id="g3796">
</g>
<g
   id="g3798">
</g>
<g
   id="g3800">
</g>
<g
   id="g3802">
</g>
<g
   id="g3804">
</g>
<g
   id="g3806">
</g>
<g
   id="g3808">
</g>
<g
   id="g3810">
</g>
<g
   id="g3812">
</g>
<g
   id="g3814">
</g>
<g
   id="g3816">
</g>
<g
   id="g3818">
</g>
</svg>