<?xml version="1.0" encoding="iso-8859-1"?>
<!-- Generator: Adobe Illustrator 19.0.0, SVG Export Plug-In . SVG Version: 6.00 Build 0)  -->
<svg version="1.1" id="Capa_1" xmlns="http://www.w3.org/2000/svg" xmlns:xlink="http://www.w3.org/1999/xlink" x="0px" y="0px"
	 viewBox="0 0 512 512" style="enable-background:new 0 0 512 512;" xml:space="preserve">
<path style="fill:#F2D422;" d="M489.928,493.761H21.832c-16.517,0-27.027-17.701-19.174-32.199L236.706,29.658
	c8.251-15.226,30.132-15.174,38.346,0c253.807,468.364,236.706,434.365,236.706,442.296
	C511.758,483.965,502.035,493.761,489.928,493.761z"/>
<path style="fill:#E5C213;" d="M25.375,461.562C276.432-1.731,259.879,25.932,267.24,21.439c-10.677-6.52-24.596-2.735-30.533,8.219
	L2.657,461.562c-7.866,14.52,2.685,32.199,19.174,32.199h22.718C28.034,493.761,17.521,476.06,25.375,461.562z"/>
<path style="fill:#585A60;" d="M453.306,462.106H58.457c-9.06,0-14.827-9.708-10.516-17.66L245.363,80.121
	c4.526-8.352,16.525-8.317,21.035,0l197.424,364.325C468.147,452.432,462.333,462.106,453.306,462.106z M78.543,438.185H433.22
	L255.88,110.922L78.543,438.185z"/>
<path style="fill:#414356;" d="M75.716,456.264c-4.088-6.871-0.018-12.227,3.153-18.079h-0.326l177.336-327.264l0.164,0.305
	l13.605-25.104c-2.957-5.455-5.407-12.263-13.768-12.263c-4.388,0-8.425,2.404-10.516,6.262L47.94,444.446
	c-4.315,7.965,1.471,17.66,10.516,17.66h27.539C81.777,462.106,77.872,459.886,75.716,456.264z"/>
<g>
	<path style="fill:#585A60;" d="M263.464,228.708h-15.032c-6.287,0-11.38,5.096-11.38,11.381l2.846,84.634
		c0,6.286,5.095,11.381,11.38,11.381h9.341c6.285,0,11.381-5.096,11.381-11.381l2.845-84.634
		C274.843,233.804,269.75,228.708,263.464,228.708z"/>
	<circle style="fill:#585A60;" cx="256.295" cy="380.54" r="19.654"/>
</g>
<g>
	<path style="fill:#414356;" d="M260.514,324.723l-2.847-84.634c0-5.32,3.654-9.775,8.588-11.021c-1.89-0.48-1.451-0.36-17.824-0.36
		c-6.287,0-11.38,5.096-11.38,11.381l2.846,84.634c0,6.286,5.095,11.381,11.38,11.381c9.761,0,11.672,0.39,14.978-1.504
		C262.829,332.64,260.514,328.955,260.514,324.723z"/>
	<path style="fill:#414356;" d="M266.601,363.831c-13.079-8.086-29.963,1.354-29.963,16.71c0,15.362,16.887,24.794,29.963,16.711
		C254.153,389.555,254.143,371.534,266.601,363.831z"/>
</g>
<g>
</g>
<g>
</g>
<g>
</g>
<g>
</g>
<g>
</g>
<g>
</g>
<g>
</g>
<g>
</g>
<g>
</g>
<g>
</g>
<g>
</g>
<g>
</g>
<g>
</g>
<g>
</g>
<g>
</g>
</svg>
