<?xml version="1.0" encoding="iso-8859-1"?>
<!-- Generator: Adobe Illustrator 19.0.0, SVG Export Plug-In . SVG Version: 6.00 Build 0)  -->
<svg version="1.1" id="Capa_1" xmlns="http://www.w3.org/2000/svg" xmlns:xlink="http://www.w3.org/1999/xlink" x="0px" y="0px"
	 viewBox="0 0 511.999 511.999" style="enable-background:new 0 0 511.999 511.999;" xml:space="preserve">
<g>
	<g>
		<path d="M434.777,429.301L262.585,111.54c-2.833-5.229-10.378-5.251-13.222,0L77.173,429.301
			c-2.714,5.007,0.922,11.103,6.612,11.103h344.38C433.861,440.404,437.487,434.3,434.777,429.301z M96.413,425.364l159.56-294.457
			l159.563,294.457H96.413z"/>
	</g>
</g>
<g>
	<g>
		<path d="M464.489,435.38L272.797,81.632c-7.228-13.336-26.418-13.338-33.646,0.001L47.459,435.38
			c-6.89,12.713,2.346,28.25,16.823,28.25h383.386C462.124,463.631,471.386,448.12,464.489,435.38z M447.668,448.59
			c-410.15,0-385.136,0.97-386.903-1.994c-0.735-1.236-0.767-2.788-0.083-4.05C265.795,64.031,252.348,86.656,255.973,86.656
			c3.629,0-9.715-22.431,195.292,355.887C452.749,445.28,450.754,448.59,447.668,448.59z"/>
	</g>
</g>
<g>
	<g>
		<path d="M263.327,221.969h-14.596c-10.761,0-18.912,9.141-18.566,18.823l2.759,82.067c0.076,10.175,8.377,18.428,18.57,18.428
			h9.069c10.192,0,18.493-8.253,18.571-18.428l2.759-82.067C282.228,231.108,274.1,221.969,263.327,221.969z M264.095,322.716
			c0,1.947-1.584,3.531-3.53,3.531h-9.069c-1.566,0-3.437-1.049-3.534-3.783l-2.757-82.015c0.049-1.905,1.613-3.439,3.529-3.439
			h14.596c1.914-0.001,3.478,1.533,3.527,3.438C266.849,240.658,264.095,322.506,264.095,322.716z"/>
	</g>
</g>
<g>
	<g>
		<path d="M256.363,350.312c-14.669,0-26.603,11.934-26.603,26.603c0,14.669,11.934,26.603,26.603,26.603
			c14.669,0,26.603-11.934,26.603-26.603C282.966,362.246,271.032,350.312,256.363,350.312z M256.363,388.478
			c-6.375,0-11.563-5.187-11.563-11.563s5.188-11.563,11.563-11.563c6.375,0,11.563,5.187,11.563,11.563
			S262.739,388.478,256.363,388.478z"/>
	</g>
</g>
<g>
	<g>
		<path d="M401.523,254.673c-1.978-3.652-6.54-5.007-10.194-3.029c-3.652,1.979-5.007,6.543-3.028,10.194
			c115.655,213.428,108.603,198.751,108.603,203.834c0,7.126-5.579,13.532-13.723,13.654H273.91c-4.154,0-7.52,3.367-7.52,7.52
			s3.366,7.52,7.52,7.52c5.687,0,207.197,0,209.335,0c15.823,0,28.698-12.872,28.698-28.695
			C511.944,455.59,518.108,469.814,401.523,254.673z"/>
	</g>
</g>
<g>
	<g>
		<path d="M384.78,223.777L281.204,32.639c-10.835-20.008-39.616-20.007-50.459-0.002L3.489,452.001
			c-10.342,19.091,3.558,42.365,25.23,42.365h210.097c4.154,0,7.52-3.367,7.52-7.52s-3.366-7.52-7.52-7.52H28.719
			c-10.352,0-16.908-11.11-12.007-20.159L243.967,39.801c5.158-9.517,18.855-9.523,24.011,0l103.578,191.141
			c1.977,3.653,6.542,5.008,10.194,3.029C385.403,231.992,386.758,227.428,384.78,223.777z"/>
	</g>
</g>
<g>
</g>
<g>
</g>
<g>
</g>
<g>
</g>
<g>
</g>
<g>
</g>
<g>
</g>
<g>
</g>
<g>
</g>
<g>
</g>
<g>
</g>
<g>
</g>
<g>
</g>
<g>
</g>
<g>
</g>
</svg>
