<?xml version="1.0" encoding="UTF-8" standalone="no"?>
<!-- Generator: Adobe Illustrator 19.0.0, SVG Export Plug-In . SVG Version: 6.00 Build 0)  -->

<svg
   xmlns:dc="http://purl.org/dc/elements/1.1/"
   xmlns:cc="http://creativecommons.org/ns#"
   xmlns:rdf="http://www.w3.org/1999/02/22-rdf-syntax-ns#"
   xmlns:svg="http://www.w3.org/2000/svg"
   xmlns="http://www.w3.org/2000/svg"
   xmlns:sodipodi="http://sodipodi.sourceforge.net/DTD/sodipodi-0.dtd"
   xmlns:inkscape="http://www.inkscape.org/namespaces/inkscape"
   version="1.1"
   id="Layer_1"
   x="0px"
   y="0px"
   viewBox="0 0 512 512"
   style="enable-background:new 0 0 512 512;"
   xml:space="preserve"
   sodipodi:docname="workplace.svg"
   inkscape:version="0.92.3 (2405546, 2018-03-11)"><metadata
   id="metadata67"><rdf:RDF><cc:Work
       rdf:about=""><dc:format>image/svg+xml</dc:format><dc:type
         rdf:resource="http://purl.org/dc/dcmitype/StillImage" /></cc:Work></rdf:RDF></metadata><defs
   id="defs65">
	

	

	

	

	

		
	
		
	
		
	
		
	
		
	</defs><sodipodi:namedview
   pagecolor="#ffffff"
   bordercolor="#666666"
   borderopacity="1"
   objecttolerance="10"
   gridtolerance="10"
   guidetolerance="10"
   inkscape:pageopacity="0"
   inkscape:pageshadow="2"
   inkscape:window-width="1920"
   inkscape:window-height="1017"
   id="namedview63"
   showgrid="false"
   inkscape:zoom="0.4609375"
   inkscape:cx="256"
   inkscape:cy="256"
   inkscape:window-x="-8"
   inkscape:window-y="-8"
   inkscape:window-maximized="1"
   inkscape:current-layer="Layer_1" />




<path
   id="path26"
   d="m 236.13,217.728 c 0,-9.19 0,-79.936 0,-91.356 0,-12.79 9.506,-23.374 21.818,-25.13 -11.694,0 -94.092,0 -107.351,0 -18.294,0 -35.282,10.627 -43.281,27.074 -11.684,24.035 -24.892,54.041 -30.546,68.158 -4.219,10.542 0.675,22.53 11.066,27.107 l 73.739,32.482 c 10.644,4.69 23.082,-0.139 27.772,-10.787 4.69,-10.647 -0.14,-23.082 -10.787,-27.772 l -54.749,-24.116 c 6.208,-14.264 14.123,-31.686 21.398,-46.649 0.349,-0.715 -0.006,-1.1 0.771,-0.932 0.777,0.169 1.34,0.847 1.361,1.643 l 2.188,39.729 35.5,15.637 c 18.76,8.263 27.269,30.17 19.006,48.93 -1.651,3.747 -3.859,7.07 -6.466,9.947 h 63.548 V 243.12 C 247.302,242.889 236.13,231.597 236.13,217.728 Z m 238.192,68.73 c 0,-5.095 -4.13,-9.225 -9.225,-9.225 h -66.329 c 1.215,-1.929 1.929,-4.206 1.929,-6.654 0,-6.906 -5.606,-12.515 -12.515,-12.515 h -29.039 c 0,-10.804 0,-19.068 0,-29.941 h 56.811 c 5.743,0 10.398,-4.655 10.398,-10.397 V 126.37 c 0,-5.743 -4.655,-10.397 -10.398,-10.397 H 261.546 c -5.743,0 -10.397,4.655 -10.397,10.397 v 91.356 c 0,5.743 4.655,10.397 10.397,10.397 h 56.811 c 0,10.878 0,19.134 0,29.941 h -29.039 c -6.89,0 -12.515,5.591 -12.515,12.515 0,2.448 0.714,4.725 1.929,6.654 H 46.903 c -5.095,0 -9.225,4.13 -9.225,9.225 v 33.35 c 0,5.095 4.13,9.225 9.225,9.225 h 14.454 c 0,6.513 0,156.787 0,164.195 0,10.368 8.404,18.772 18.772,18.772 10.368,0 18.771,-8.404 18.771,-18.772 0,-7.415 0,-157.686 0,-164.195 h 314.113 c 0,6.513 0,156.787 0,164.195 0,10.368 8.404,18.772 18.772,18.772 10.368,0 18.772,-8.404 18.772,-18.772 0,-7.415 0,-157.686 0,-164.195 h 14.54 c 5.095,0 9.225,-4.13 9.225,-9.225 z M 338.75,189.255 c -9.503,0 -17.207,-7.704 -17.207,-17.207 -0.001,-9.502 7.703,-17.207 17.207,-17.207 9.503,0 17.207,7.704 17.207,17.207 0,9.503 -7.703,17.207 -17.207,17.207 z M 205.095,0 c -24.164,0 -43.662,19.582 -43.662,43.662 0,24.087 19.521,43.662 43.662,43.662 24.093,0 43.662,-19.518 43.662,-43.662 C 248.758,19.503 229.176,0 205.095,0 Z m -27.238,426.833 -12.722,-82.262 h -51.162 l 13.916,89.988 c 2.133,13.796 15.045,23.252 28.847,21.12 13.798,-2.133 23.254,-15.048 21.121,-28.846 z m 64.431,-82.262 -12.722,82.262 c -2.134,13.797 7.322,26.714 21.12,28.847 13.799,2.132 26.713,-7.326 28.847,-21.12 l 13.916,-89.988 h -51.161 z" />
<g
   id="g32">
</g>
<g
   id="g34">
</g>
<g
   id="g36">
</g>
<g
   id="g38">
</g>
<g
   id="g40">
</g>
<g
   id="g42">
</g>
<g
   id="g44">
</g>
<g
   id="g46">
</g>
<g
   id="g48">
</g>
<g
   id="g50">
</g>
<g
   id="g52">
</g>
<g
   id="g54">
</g>
<g
   id="g56">
</g>
<g
   id="g58">
</g>
<g
   id="g60">
</g>
</svg>