<?xml version="1.0" encoding="UTF-8" standalone="no"?>
<!-- Generator: Adobe Illustrator 19.1.0, SVG Export Plug-In . SVG Version: 6.00 Build 0)  -->

<svg
   xmlns:dc="http://purl.org/dc/elements/1.1/"
   xmlns:cc="http://creativecommons.org/ns#"
   xmlns:rdf="http://www.w3.org/1999/02/22-rdf-syntax-ns#"
   xmlns:svg="http://www.w3.org/2000/svg"
   xmlns="http://www.w3.org/2000/svg"
   xmlns:sodipodi="http://sodipodi.sourceforge.net/DTD/sodipodi-0.dtd"
   xmlns:inkscape="http://www.inkscape.org/namespaces/inkscape"
   version="1.1"
   id="Capa_1"
   x="0px"
   y="0px"
   viewBox="0 0 488.8 488.8"
   style="enable-background:new 0 0 488.8 488.8;"
   xml:space="preserve"
   sodipodi:docname="zoom in.svg"
   inkscape:version="0.92.3 (2405546, 2018-03-11)"><metadata
   id="metadata49"><rdf:RDF><cc:Work
       rdf:about=""><dc:format>image/svg+xml</dc:format><dc:type
         rdf:resource="http://purl.org/dc/dcmitype/StillImage" /><dc:title /></cc:Work></rdf:RDF></metadata><defs
   id="defs47" /><sodipodi:namedview
   pagecolor="#ffffff"
   bordercolor="#666666"
   borderopacity="1"
   objecttolerance="10"
   gridtolerance="10"
   guidetolerance="10"
   inkscape:pageopacity="0"
   inkscape:pageshadow="2"
   inkscape:window-width="1920"
   inkscape:window-height="1017"
   id="namedview45"
   showgrid="false"
   inkscape:zoom="0.96563014"
   inkscape:cx="-109.44356"
   inkscape:cy="194.17106"
   inkscape:window-x="-8"
   inkscape:window-y="-8"
   inkscape:window-maximized="1"
   inkscape:current-layer="Capa_1" />
<g
   id="g12">
	<g
   id="g10">
		<g
   id="g4">
			
		</g>
		<g
   id="g8">
			
		</g>
	</g>
</g>
<g
   id="g14">
</g>
<g
   id="g16">
</g>
<g
   id="g18">
</g>
<g
   id="g20">
</g>
<g
   id="g22">
</g>
<g
   id="g24">
</g>
<g
   id="g26">
</g>
<g
   id="g28">
</g>
<g
   id="g30">
</g>
<g
   id="g32">
</g>
<g
   id="g34">
</g>
<g
   id="g36">
</g>
<g
   id="g38">
</g>
<g
   id="g40">
</g>
<g
   id="g42">
</g>
<g
   id="g3757"
   transform="translate(-2,2)"><path
     id="rect26-2"
     transform="rotate(90)"
     style=""
     d="m 178.68155,-278.09518 c 9.53348,0 17.20846,7.67497 17.20846,17.20846 v 155.24228 c 0,9.533492 -7.67498,17.208466 -17.20846,17.208466 -9.53349,0 -17.20847,-7.674974 -17.20847,-17.208466 v -155.24228 c 0,-9.53349 7.67498,-17.20846 17.20847,-17.20846 z m -94.829621,94.82962 c 0,-9.53349 7.674974,-17.20846 17.208461,-17.20846 l 155.24229,0 c 9.53348,0 17.20846,7.67497 17.20846,17.20846 0,9.53349 -7.67498,17.20846 -17.20846,17.20846 l -155.24229,0 c -9.533487,0 -17.208461,-7.67497 -17.208461,-17.20846 z M 405.567,-473.882 294.243,-362.567 c 25.795,16.586 47.734,38.536 64.321,64.331 L 469.888,-409.56 c 17.768,-17.772 17.768,-46.587 0,-64.321 -17.739,-17.773 -46.554,-17.773 -64.321,-0.001 z M 179.955,-365.909 C 79.473,-365.909 -2,-284.44 -2,-183.956 -2,-83.474 79.473,-2.001 179.955,-2.001 c 100.482,0 181.951,-81.473 181.951,-181.955 0,-100.484 -81.469,-181.953 -181.951,-181.953 z m 136.461,181.953 c 0,75.252 -61.208,136.465 -136.46,136.465 -75.252,0 -136.465,-61.213 -136.465,-136.465 0,-75.25 61.213,-136.468 136.465,-136.468 75.252,0 136.46,61.218 136.46,136.468 z" /></g></svg>