<?xml version="1.0" encoding="UTF-8" standalone="no"?>
<!-- Generator: Adobe Illustrator 18.1.1, SVG Export Plug-In . SVG Version: 6.00 Build 0)  -->

<svg
   xmlns:dc="http://purl.org/dc/elements/1.1/"
   xmlns:cc="http://creativecommons.org/ns#"
   xmlns:rdf="http://www.w3.org/1999/02/22-rdf-syntax-ns#"
   xmlns:svg="http://www.w3.org/2000/svg"
   xmlns="http://www.w3.org/2000/svg"
   xmlns:sodipodi="http://sodipodi.sourceforge.net/DTD/sodipodi-0.dtd"
   xmlns:inkscape="http://www.inkscape.org/namespaces/inkscape"
   version="1.1"
   id="Capa_1"
   x="0px"
   y="0px"
   viewBox="0 0 320.83 320.83"
   style="enable-background:new 0 0 320.83 320.83;"
   xml:space="preserve"
   sodipodi:docname="warning-sign.svg"
   inkscape:version="0.92.3 (2405546, 2018-03-11)"><metadata
   id="metadata47"><rdf:RDF><cc:Work
       rdf:about=""><dc:format>image/svg+xml</dc:format><dc:type
         rdf:resource="http://purl.org/dc/dcmitype/StillImage" /></cc:Work></rdf:RDF></metadata><defs
   id="defs45" /><sodipodi:namedview
   pagecolor="#ffffff"
   bordercolor="#666666"
   borderopacity="1"
   objecttolerance="10"
   gridtolerance="10"
   guidetolerance="10"
   inkscape:pageopacity="0"
   inkscape:pageshadow="2"
   inkscape:window-width="1920"
   inkscape:window-height="1017"
   id="namedview43"
   showgrid="false"
   inkscape:zoom="0.73559209"
   inkscape:cx="160.41499"
   inkscape:cy="160.41499"
   inkscape:window-x="1912"
   inkscape:window-y="-8"
   inkscape:window-maximized="1"
   inkscape:current-layer="Capa_1" />
<g
   id="g10"
   transform="matrix(0.60169402,0,0,0.70681444,63.894313,47.031362)">
	<g
   id="g8">
		
		
		<path
   id="circle6"
   style="fill:#010002"
   d="m 176.734,234.903 a 16.486,16.486 0 0 1 -16.486,16.486 16.486,16.486 0 0 1 -16.486,-16.486 16.486,16.486 0 0 1 16.486,-16.486 16.486,16.486 0 0 1 16.486,16.486 z M 160.416,105.345 c -9.197,0 -16.654,7.457 -16.654,16.654 v 71.388 c 0,9.197 7.457,16.654 16.654,16.654 9.197,0 16.654,-7.457 16.654,-16.654 v -71.388 c 0.006,-9.197 -7.451,-16.654 -16.654,-16.654 z M 21.617,290.246 h 277.604 c 9.469,0 17.013,-4.553 20.168,-12.184 2.904,-7.011 1.36,-14.8 -4.107,-21.212 L 180.497,39.684 179.164,38.351 c -5.009,-5.009 -11.667,-7.767 -18.748,-7.767 -7.082,0 -13.739,2.758 -18.743,7.767 L 140.34,39.684 5.55,256.844 c -5.466,6.413 -7.016,14.207 -4.106,21.212 3.159,7.632 10.698,12.19 20.173,12.19 z M 160.416,69.213 277.35,257.606 H 43.487 Z"
   inkscape:connector-curvature="0" />
	</g>
</g>
<g
   id="g12"
   transform="matrix(0.60169402,0,0,0.70681444,63.894313,47.031362)">
</g>
<g
   id="g14"
   transform="matrix(0.60169402,0,0,0.70681444,63.894313,47.031362)">
</g>
<g
   id="g16"
   transform="matrix(0.60169402,0,0,0.70681444,63.894313,47.031362)">
</g>
<g
   id="g18"
   transform="matrix(0.60169402,0,0,0.70681444,63.894313,47.031362)">
</g>
<g
   id="g20"
   transform="matrix(0.60169402,0,0,0.70681444,63.894313,47.031362)">
</g>
<g
   id="g22"
   transform="matrix(0.60169402,0,0,0.70681444,63.894313,47.031362)">
</g>
<g
   id="g24"
   transform="matrix(0.60169402,0,0,0.70681444,63.894313,47.031362)">
</g>
<g
   id="g26"
   transform="matrix(0.60169402,0,0,0.70681444,63.894313,47.031362)">
</g>
<g
   id="g28"
   transform="matrix(0.60169402,0,0,0.70681444,63.894313,47.031362)">
</g>
<g
   id="g30"
   transform="matrix(0.60169402,0,0,0.70681444,63.894313,47.031362)">
</g>
<g
   id="g32"
   transform="matrix(0.60169402,0,0,0.70681444,63.894313,47.031362)">
</g>
<g
   id="g34"
   transform="matrix(0.60169402,0,0,0.70681444,63.894313,47.031362)">
</g>
<g
   id="g36"
   transform="matrix(0.60169402,0,0,0.70681444,63.894313,47.031362)">
</g>
<g
   id="g38"
   transform="matrix(0.60169402,0,0,0.70681444,63.894313,47.031362)">
</g>
<g
   id="g40"
   transform="matrix(0.60169402,0,0,0.70681444,63.894313,47.031362)">
</g>
</svg>