<?xml version="1.0" encoding="UTF-8" standalone="no"?>
<!-- Generator: Adobe Illustrator 19.0.0, SVG Export Plug-In . SVG Version: 6.00 Build 0)  -->

<svg
   xmlns:dc="http://purl.org/dc/elements/1.1/"
   xmlns:cc="http://creativecommons.org/ns#"
   xmlns:rdf="http://www.w3.org/1999/02/22-rdf-syntax-ns#"
   xmlns:svg="http://www.w3.org/2000/svg"
   xmlns="http://www.w3.org/2000/svg"
   xmlns:sodipodi="http://sodipodi.sourceforge.net/DTD/sodipodi-0.dtd"
   xmlns:inkscape="http://www.inkscape.org/namespaces/inkscape"
   version="1.1"
   id="Capa_1"
   x="0px"
   y="0px"
   viewBox="0 0 492.426 492.426"
   style="enable-background:new 0 0 492.426 492.426;"
   xml:space="preserve"
   sodipodi:docname="warning4.svg"
   inkscape:version="0.92.3 (2405546, 2018-03-11)"><metadata
   id="metadata3935"><rdf:RDF><cc:Work
       rdf:about=""><dc:format>image/svg+xml</dc:format><dc:type
         rdf:resource="http://purl.org/dc/dcmitype/StillImage" /></cc:Work></rdf:RDF></metadata><defs
   id="defs3933" /><sodipodi:namedview
   pagecolor="#ffffff"
   bordercolor="#666666"
   borderopacity="1"
   objecttolerance="10"
   gridtolerance="10"
   guidetolerance="10"
   inkscape:pageopacity="0"
   inkscape:pageshadow="2"
   inkscape:window-width="1920"
   inkscape:window-height="1017"
   id="namedview3931"
   showgrid="false"
   inkscape:zoom="1.7220862"
   inkscape:cx="246.213"
   inkscape:cy="246.213"
   inkscape:window-x="-8"
   inkscape:window-y="-8"
   inkscape:window-maximized="1"
   inkscape:current-layer="Capa_1" />
<g
   id="g3898">
	<g
   id="g3896">
		<g
   id="g3890">
			
		</g>
		
		<path
   id="rect3894"
   style=""
   d="m 228.513,350.11301 h 35.4 v 35.4 h -35.4 z m 35.5,-19.90001 h -35.6 l -5,-164.6 h 45.6 z m 221,53.1 -191.9,-328.3 c -9.8,-16.8 -27.4,-26.8 -46.9,-26.8 -19.5,0 -37,10 -46.9,26.8 l -191.9,328.3 c -9.8,16.8 -9.9,36.9 -0.2,53.7 9.8,17 27.4,27.2 47.1,27.2 h 383.8 c 19.7,0 37.3,-10.2 47.1,-27.2 9.7,-16.8 9.6,-36.9 -0.2,-53.7 z m -43.6,28.6 c -0.7,1.2 -1.8,1.8 -3.3,1.8 h -383.8 c -1.5,0 -2.6,-0.6 -3.3,-1.8 -0.9,-1.5 -0.3,-2.6 0,-3.1 l 191.9,-328.3 c 0.7,-1.2 1.8,-1.8 3.3,-1.8 1.5,0 2.6,0.6 3.3,1.8 l 191.9,328.3 c 0.3,0.5 0.9,1.6 0,3.1 z" />
	</g>
</g>
<g
   id="g3900">
</g>
<g
   id="g3902">
</g>
<g
   id="g3904">
</g>
<g
   id="g3906">
</g>
<g
   id="g3908">
</g>
<g
   id="g3910">
</g>
<g
   id="g3912">
</g>
<g
   id="g3914">
</g>
<g
   id="g3916">
</g>
<g
   id="g3918">
</g>
<g
   id="g3920">
</g>
<g
   id="g3922">
</g>
<g
   id="g3924">
</g>
<g
   id="g3926">
</g>
<g
   id="g3928">
</g>
</svg>