<?xml version="1.0" encoding="UTF-8" standalone="no"?>
<!-- Generator: Adobe Illustrator 16.0.0, SVG Export Plug-In . SVG Version: 6.00 Build 0)  -->

<svg
   xmlns:dc="http://purl.org/dc/elements/1.1/"
   xmlns:cc="http://creativecommons.org/ns#"
   xmlns:rdf="http://www.w3.org/1999/02/22-rdf-syntax-ns#"
   xmlns:svg="http://www.w3.org/2000/svg"
   xmlns="http://www.w3.org/2000/svg"
   xmlns:sodipodi="http://sodipodi.sourceforge.net/DTD/sodipodi-0.dtd"
   xmlns:inkscape="http://www.inkscape.org/namespaces/inkscape"
   version="1.1"
   id="Capa_1"
   x="0px"
   y="0px"
   width="305.836px"
   height="305.836px"
   viewBox="0 0 305.836 305.836"
   style="enable-background:new 0 0 305.836 305.836;"
   xml:space="preserve"
   sodipodi:docname="rotating-arrow-to-the-right.svg"
   inkscape:version="0.92.3 (2405546, 2018-03-11)"><metadata
   id="metadata41"><rdf:RDF><cc:Work
       rdf:about=""><dc:format>image/svg+xml</dc:format><dc:type
         rdf:resource="http://purl.org/dc/dcmitype/StillImage" /><dc:title></dc:title></cc:Work></rdf:RDF></metadata><defs
   id="defs39">
	
</defs><sodipodi:namedview
   pagecolor="#ffffff"
   bordercolor="#666666"
   borderopacity="1"
   objecttolerance="10"
   gridtolerance="10"
   guidetolerance="10"
   inkscape:pageopacity="0"
   inkscape:pageshadow="2"
   inkscape:window-width="1920"
   inkscape:window-height="1017"
   id="namedview37"
   showgrid="false"
   inkscape:zoom="0.7716554"
   inkscape:cx="-167.17307"
   inkscape:cy="152.918"
   inkscape:window-x="-8"
   inkscape:window-y="-8"
   inkscape:window-maximized="1"
   inkscape:current-layer="Capa_1" />
<path
   inkscape:connector-curvature="0"
   id="path2"
   d="M 152.912,300.748 C 68.593,300.748 0,232.148 0,147.83 0,108.354 15.312,70.599 42.346,42.266 c 0,0 -3.938,-8.857 -8.814,-19.783 C 28.668,11.557 35.67,3.847 49.18,5.255 l 79.125,8.289 c 13.511,1.411 17.999,11.467 10.021,22.461 l -46.741,64.393 c -7.986,10.992 -17.834,12.31 -22.008,2.937 L 62.017,86.371 C 49.845,104.383 43.041,125.7 43.041,147.83 c 0,60.594 49.288,109.875 109.87,109.875 60.591,0 109.882,-49.287 109.882,-109.875 0,-19.086 -4.96,-37.878 -14.357,-54.337 -5.891,-10.325 -2.3,-23.467 8.025,-29.357 10.328,-5.896 23.464,-2.3 29.36,8.031 13.092,22.94 20.015,49.103 20.015,75.662 0,84.319 -68.602,152.919 -152.924,152.919 z" />
<g
   id="g6">
</g>
<g
   id="g8">
</g>
<g
   id="g10">
</g>
<g
   id="g12">
</g>
<g
   id="g14">
</g>
<g
   id="g16">
</g>
<g
   id="g18">
</g>
<g
   id="g20">
</g>
<g
   id="g22">
</g>
<g
   id="g24">
</g>
<g
   id="g26">
</g>
<g
   id="g28">
</g>
<g
   id="g30">
</g>
<g
   id="g32">
</g>
<g
   id="g34">
</g>
</svg>