<?xml version="1.0" encoding="UTF-8" standalone="no"?>
<!-- Created with Inkscape (http://www.inkscape.org/) -->

<svg
   xmlns:dc="http://purl.org/dc/elements/1.1/"
   xmlns:cc="http://creativecommons.org/ns#"
   xmlns:rdf="http://www.w3.org/1999/02/22-rdf-syntax-ns#"
   xmlns:svg="http://www.w3.org/2000/svg"
   xmlns="http://www.w3.org/2000/svg"
   xmlns:sodipodi="http://sodipodi.sourceforge.net/DTD/sodipodi-0.dtd"
   xmlns:inkscape="http://www.inkscape.org/namespaces/inkscape"
   width="210mm"
   height="297mm"
   viewBox="0 0 210 297"
   version="1.1"
   id="svg636"
   inkscape:version="0.92.3 (2405546, 2018-03-11)"
   sodipodi:docname="DubPersErrorFinal.svg">
  <defs
     id="defs630" />
  <sodipodi:namedview
     id="base"
     pagecolor="#ffffff"
     bordercolor="#666666"
     borderopacity="1.0"
     inkscape:pageopacity="0.0"
     inkscape:pageshadow="2"
     inkscape:zoom="0.12374369"
     inkscape:cx="4392.7946"
     inkscape:cy="-2033.1338"
     inkscape:document-units="mm"
     inkscape:current-layer="layer1"
     showgrid="false"
     inkscape:window-width="1920"
     inkscape:window-height="1017"
     inkscape:window-x="-8"
     inkscape:window-y="-8"
     inkscape:window-maximized="1" />
  <metadata
     id="metadata633">
    <rdf:RDF>
      <cc:Work
         rdf:about="">
        <dc:format>image/svg+xml</dc:format>
        <dc:type
           rdf:resource="http://purl.org/dc/dcmitype/StillImage" />
        <dc:title></dc:title>
      </cc:Work>
    </rdf:RDF>
  </metadata>
  <g
     inkscape:label="Layer 1"
     inkscape:groupmode="layer"
     id="layer1">
    <path
       id="path2"
       style="stroke-width:0.42878649"
       d="m 713.02993,748.48673 48.50978,-48.50983 c 5.35992,-5.35982 5.35992,-14.04945 0,-19.40091 l -6.46697,-6.46697 c -5.3615,-5.3615 -14.05105,-5.3615 -19.40256,0 l -48.50814,48.50814 -48.50983,-48.51819 c -5.35982,-5.35983 -14.04946,-5.35983 -19.40091,0 l -6.47702,6.46698 c -5.35983,5.3615 -5.35983,14.05113 0,19.40258 l 48.51819,48.5182 -48.50814,48.50814 c -5.3615,5.36151 -5.3615,14.05115 0,19.4026 l 6.46697,6.46696 c 5.35983,5.35984 14.04946,5.35984 19.40091,0 l 48.50983,-48.50981 48.50814,48.50981 c 5.36147,5.35984 14.05115,5.35984 19.40256,0 l 6.46697,-6.46696 c 5.35992,-5.36151 5.35992,-14.05113 0,-19.4026 z m 0,0 M 687.15804,583.91009 c -90.74467,0 -164.57236,73.83571 -164.57236,164.5703 0,90.75481 73.82531,164.57292 164.57236,164.57292 90.74711,0 164.57033,-73.81811 164.57033,-164.57292 0,-90.73719 -73.82563,-164.5703 -164.57033,-164.5703 z m 0,25.24755 A 139.32376,139.32376 0 0 1 826.48183,748.48142 139.32376,139.32376 0 0 1 687.15804,887.80574 139.32376,139.32376 0 0 1 547.83476,748.48142 139.32376,139.32376 0 0 1 687.15804,609.15764 Z M 81.411568,316.06339 c -43.1464,0 -78.137866,34.36943 -78.137866,76.75708 V 776.6451 c 0,42.38493 34.991466,76.75705 78.137866,76.75705 H 519.57035 a 197.82186,197.82186 0 0 1 -30.23486,-104.9202 197.82186,197.82186 0 0 1 0.86093,-17.20204 h -22.85855 c -13.4988,0 -24.42125,-10.93859 -24.42125,-24.42641 0,-13.48785 10.92245,-24.42385 24.42125,-24.42385 h 33.60468 a 197.82186,197.82186 0 0 1 45.98323,-73.27149 h -79.58791 c -13.4988,0 -24.42125,-10.93636 -24.42125,-24.42694 0,-13.48785 10.92245,-24.42382 24.42125,-24.42382 h 159.56339 a 197.82186,197.82186 0 0 1 60.25628,-9.64747 197.82186,197.82186 0 0 1 97.69893,25.96896 V 392.82047 c 0,-42.38765 -34.99162,-76.75708 -78.16524,-76.75708 z m 141.611512,73.2746 c 34.51379,0 73.20069,25.42527 73.20069,78.16215 v 39.06893 c 0,52.76144 -53.6185,78.16215 -73.20069,78.16215 -18.5561,0 -73.2007,-25.40071 -73.2007,-78.16215 v -39.06893 c 0,-52.73688 39.8331,-78.16215 73.2007,-78.16215 z m 244.31479,48.84767 h 219.82017 c 13.49878,0 24.42126,10.93597 24.42126,24.42382 0.003,13.48785 -10.92248,24.42641 -24.42126,24.42641 H 467.33787 c -13.4988,0 -24.42125,-10.93856 -24.42125,-24.42641 0,-13.48785 10.92245,-24.42382 24.42125,-24.42382 z M 143.78295,609.18711 c 0.27136,-0.005 0.54348,-0.004 0.81649,0.001 15.6004,0.29192 33.8917,16.13686 54.09231,33.93228 l 7.13444,7.13444 c 0.2374,0.23746 8.10827,7.75097 17.48318,7.75097 9.51409,0 17.14778,-7.83571 17.14778,-7.83571 v 0.0134 l 7.06056,-7.06314 c 25.85659,-22.77541 45.41443,-41.97842 66.54683,-30.22089 45.701,25.42821 55.57232,67.12294 55.57232,93.95397 0,0.43124 0.052,24.0443 0,24.42641 0,35.44445 -11.92345,48.84769 -48.84455,48.84766 H 125.42025 c -36.923701,0 -48.850247,-13.40321 -48.850247,-48.84766 -0.049,-0.38211 0,-23.99517 0,-24.42641 0,-26.83375 12.2375,-64.66391 55.574897,-93.95397 3.68344,-2.48957 7.56771,-3.64508 11.63805,-3.71242 z" />
  </g>
</svg>
