<?xml version="1.0" encoding="UTF-8" standalone="no"?>
<!-- Created with Inkscape (http://www.inkscape.org/) -->

<svg
   xmlns:dc="http://purl.org/dc/elements/1.1/"
   xmlns:cc="http://creativecommons.org/ns#"
   xmlns:rdf="http://www.w3.org/1999/02/22-rdf-syntax-ns#"
   xmlns:svg="http://www.w3.org/2000/svg"
   xmlns="http://www.w3.org/2000/svg"
   xmlns:sodipodi="http://sodipodi.sourceforge.net/DTD/sodipodi-0.dtd"
   xmlns:inkscape="http://www.inkscape.org/namespaces/inkscape"
   width="210mm"
   height="297mm"
   viewBox="0 0 210 297"
   version="1.1"
   id="svg636"
   inkscape:version="0.92.3 (2405546, 2018-03-11)"
   sodipodi:docname="DubPersError.svg">
  <defs
     id="defs630" />
  <sodipodi:namedview
     id="base"
     pagecolor="#ffffff"
     bordercolor="#666666"
     borderopacity="1.0"
     inkscape:pageopacity="0.0"
     inkscape:pageshadow="2"
     inkscape:zoom="0.175"
     inkscape:cx="-163.83166"
     inkscape:cy="-1530.2735"
     inkscape:document-units="mm"
     inkscape:current-layer="layer1"
     showgrid="false"
     inkscape:window-width="1920"
     inkscape:window-height="1017"
     inkscape:window-x="-8"
     inkscape:window-y="-8"
     inkscape:window-maximized="1" />
  <metadata
     id="metadata633">
    <rdf:RDF>
      <cc:Work
         rdf:about="">
        <dc:format>image/svg+xml</dc:format>
        <dc:type
           rdf:resource="http://purl.org/dc/dcmitype/StillImage" />
        <dc:title></dc:title>
      </cc:Work>
    </rdf:RDF>
  </metadata>
  <g
     inkscape:label="Layer 1"
     inkscape:groupmode="layer"
     id="layer1">
    <path
       style="fill:#000000;stroke-width:0.36983258"
       d="M 2597.1328 2206.9043 C 2254.1608 2206.9043 1975.127 2485.9684 1975.127 2828.9023 C 1975.127 3171.9126 2254.1518 3450.9102 2597.1328 3450.9102 C 2940.114 3450.9102 3219.1309 3171.9126 3219.1309 2828.9023 C 3219.1309 2485.9586 2940.1049 2206.9043 2597.1328 2206.9043 z M 2597.1328 2302.3281 A 526.57799 526.57799 0 0 1 3123.7109 2828.9062 A 526.57799 526.57799 0 0 1 2597.1328 3355.4863 A 526.57799 526.57799 0 0 1 2070.5566 2828.9062 A 526.57799 526.57799 0 0 1 2597.1328 2302.3281 z "
       transform="scale(0.26458333)"
       id="path18" />
    <path
       style="fill:#000000;stroke-width:0.09785154"
       d="m 81.411538,316.06335 c -43.1464,0 -78.1379,34.36943 -78.1379,76.75708 v 383.82461 c 0,42.38493 34.9915,76.75706 78.1379,76.75706 H 519.57034 a 197.82187,197.82187 0 0 1 -30.2349,-104.92018 197.82187,197.82187 0 0 1 0.861,-17.20205 h -22.8586 c -13.4988,0 -24.4212,-10.93859 -24.4212,-24.42643 0,-13.48783 10.9224,-24.42383 24.4212,-24.42383 h 33.6047 a 197.82187,197.82187 0 0 1 45.9832,-73.27148 h -79.5879 c -13.4988,0 -24.4212,-10.93637 -24.4212,-24.42694 0,-13.48785 10.9224,-24.42385 24.4212,-24.42385 h 159.56338 a 197.82187,197.82187 0 0 1 60.25627,-9.64745 197.82187,197.82187 0 0 1 97.69896,25.96894 v -183.8084 c 0,-42.38765 -34.9916,-76.75708 -78.16523,-76.75708 z"
       id="path14" />
    <path
       style="fill:#ffffff;stroke-width:0.09785154"
       d="m 223.02304,389.33793 c 34.5138,0 73.2007,25.4253 73.2007,78.16218 v 39.06893 c 0,52.76144 -53.6185,78.16215 -73.2007,78.16215 -18.5561,0 -73.2007,-25.40071 -73.2007,-78.16215 v -39.06893 c 0,-52.73688 39.8331,-78.16218 73.2007,-78.16218 z"
       id="path12" />
    <path
       style="fill:#ffffff;stroke-width:0.09785154"
       d="m 467.33784,438.1856 h 219.82018 c 13.49877,0 24.42127,10.936 24.42127,24.42385 0.003,13.48784 -10.9225,24.42641 -24.42127,24.42641 H 467.33784 c -13.4988,0 -24.4212,-10.93857 -24.4212,-24.42641 0,-13.48785 10.9224,-24.42385 24.4212,-24.42385 z"
       id="path10" />
    <path
       style="fill:#ffffff;stroke-width:0.09785154"
       d="m 144.59944,609.18808 c 15.6004,0.29193 33.8917,16.13689 54.0923,33.93231 l 7.1344,7.13444 c 0.2374,0.23745 8.1083,7.75097 17.4832,7.75097 9.5141,0 17.1478,-7.83572 17.1478,-7.83572 v 0.0133 l 7.0606,-7.06313 c 25.8566,-22.77541 45.4144,-41.97842 66.5468,-30.22089 45.701,25.4282 55.5723,67.12291 55.5723,93.95393 0,0.43125 0.052,24.04433 0,24.42644 0,35.44446 -11.9235,48.84767 -48.8446,48.84764 h -195.372 c -36.923702,0 -48.850302,-13.40318 -48.850302,-48.84764 -0.049,-0.38211 0,-23.99519 0,-24.42644 0,-26.83375 12.2375,-64.66387 55.574902,-93.95393 3.929,-2.65555 8.0865,-3.79315 12.4546,-3.71142 z"
       id="rect578" />
    <path
       style="stroke-width:0.42878649"
       inkscape:connector-curvature="0"
       d="m 713.02993,748.48673 48.50978,-48.50983 c 5.35992,-5.35982 5.35992,-14.04945 0,-19.40091 l -6.46697,-6.46697 c -5.3615,-5.3615 -14.05105,-5.3615 -19.40256,0 l -48.50814,48.50814 -48.50983,-48.51819 c -5.35982,-5.35983 -14.04946,-5.35983 -19.40091,0 l -6.47702,6.46698 c -5.35983,5.3615 -5.35983,14.05113 0,19.40258 l 48.51819,48.5182 -48.50814,48.50814 c -5.3615,5.36151 -5.3615,14.05115 0,19.4026 l 6.46697,6.46696 c 5.35983,5.35984 14.04946,5.35984 19.40091,0 l 48.50983,-48.50981 48.50814,48.50981 c 5.36147,5.35984 14.05115,5.35984 19.40256,0 l 6.46697,-6.46696 c 5.35992,-5.36151 5.35992,-14.05113 0,-19.4026 z m 0,0"
       id="path2" />
  </g>
</svg>
