<?xml version="1.0" encoding="UTF-8" standalone="no"?>
<!-- Created with Inkscape (http://www.inkscape.org/) -->

<svg
   xmlns:dc="http://purl.org/dc/elements/1.1/"
   xmlns:cc="http://creativecommons.org/ns#"
   xmlns:rdf="http://www.w3.org/1999/02/22-rdf-syntax-ns#"
   xmlns:svg="http://www.w3.org/2000/svg"
   xmlns="http://www.w3.org/2000/svg"
   xmlns:sodipodi="http://sodipodi.sourceforge.net/DTD/sodipodi-0.dtd"
   xmlns:inkscape="http://www.inkscape.org/namespaces/inkscape"
   width="210mm"
   height="297mm"
   viewBox="0 0 210 297"
   version="1.1"
   id="svg636"
   inkscape:version="0.92.3 (2405546, 2018-03-11)"
   sodipodi:docname="IdentCompleted.svg">
  <defs
     id="defs630" />
  <sodipodi:namedview
     id="base"
     pagecolor="#ffffff"
     bordercolor="#666666"
     borderopacity="1.0"
     inkscape:pageopacity="0.0"
     inkscape:pageshadow="2"
     inkscape:zoom="0.70000002"
     inkscape:cx="-68.892628"
     inkscape:cy="812.01124"
     inkscape:document-units="mm"
     inkscape:current-layer="layer1"
     showgrid="false"
     inkscape:window-width="1920"
     inkscape:window-height="1017"
     inkscape:window-x="-8"
     inkscape:window-y="-8"
     inkscape:window-maximized="1" />
  <metadata
     id="metadata633">
    <rdf:RDF>
      <cc:Work
         rdf:about="">
        <dc:format>image/svg+xml</dc:format>
        <dc:type
           rdf:resource="http://purl.org/dc/dcmitype/StillImage" />
        <dc:title />
      </cc:Work>
    </rdf:RDF>
  </metadata>
  <g
     inkscape:label="Layer 1"
     inkscape:groupmode="layer"
     id="layer1">
    <path
       style="fill:#000000;stroke-width:0.02854773"
       d="m 125.87835,115.35169 c -24.88543,0 -45.131652,20.24836 -45.131652,45.13111 0,24.88816 20.245492,45.13166 45.131652,45.13166 24.88605,0 45.13108,-20.2435 45.13108,-45.13166 0,-24.88341 -20.24567,-45.13111 -45.13108,-45.13111 z"
       id="path66" />
    <path
       style="fill:#ffffff;stroke-width:0.02854773"
       d="m 125.87835,122.27552 a 38.20757,38.20757 0 0 1 38.20756,38.20755 38.20757,38.20757 0 0 1 -38.20756,38.2076 38.20757,38.20757 0 0 1 -38.207608,-38.2076 38.20757,38.20757 0 0 1 38.207608,-38.20755 z"
       id="path64" />
    <path
       style="fill:#000000;stroke-width:0.02854773"
       d="m 146.58378,151.90733 c -0.26015,-0.044 -12.44077,0 -12.44077,0 l 1.70136,-4.64158 c 1.17392,-3.20581 0.4139,-8.10069 -2.84341,-9.84089 -1.06058,-0.56669 -2.54238,-0.85125 -3.73707,-0.55052 -0.68514,0.17239 -1.28731,0.62599 -1.64618,1.23373 -0.41274,0.69896 -0.37013,1.51485 -0.51712,2.28987 -0.3727,1.96576 -1.30156,3.8348 -2.73998,5.23765 -2.5079,2.44594 -10.29855,9.50226 -10.29855,9.50226 v 25.84519 h 26.92196 c 3.63272,0.002 6.01346,-4.05464 4.22174,-7.2234 2.13575,-1.36788 2.86622,-4.24907 1.61536,-6.46126 2.13583,-1.36788 2.86619,-4.24906 1.61536,-6.46125 3.68509,-2.36014 2.45308,-8.20154 -1.8527,-8.9298 z"
       id="path62" />
    <path
       style="fill:#000000;stroke-width:0.02854773"
       d="m 109.21596,151.90733 h -6.46125 c -0.88825,0 -1.61534,0.72341 -1.61534,1.61528 v 29.0758 c 0,0.89146 0.72387,1.61508 1.61534,1.61508 h 6.46125 c 0.89146,0 1.61537,-0.72374 1.61537,-1.61508 v -29.0758 c 0,-0.89187 -0.72717,-1.61528 -1.61537,-1.61528 z"
       id="path60" />
    <path
       id="rect578"
       style="fill:#000000;stroke-width:0.02854773"
       d="m 71.761464,164.2462 c -11.446569,2.67513 -13.319167,23.33336 -13.598424,27.69994 -0.138023,2.22324 1.552286,4.13741 3.775561,4.27582 h 0.258284 c 2.13362,0.004 3.901596,-1.65396 4.033987,-3.78342 0.457195,-7.47591 3.076137,-18.01915 6.787025,-20.0597 A 54.249848,54.249848 0 0 1 71.761464,164.2462 Z M 54.199276,139.90257 c -0.460523,-0.002 -0.929066,0.0761 -1.387284,0.24197 -1.970298,0.71324 -3.06662,2.81651 -2.522432,4.84011 3.453036,10.78651 -3.332108,31.95565 -13.537361,35.27143 -2.126058,0.66559 -3.310022,2.9286 -2.644873,5.05466 0.665615,2.12607 2.928481,3.31003 5.054546,2.64485 0.02804,-0.009 0.05557,-0.0178 0.0832,-0.0271 15.521553,-5.00165 23.008234,-31.96344 18.732709,-45.36386 v -1.4e-4 c -0.592448,-1.63649 -2.133702,-2.65582 -3.778505,-2.66188 z M 5.7233689,115.55409 c -2.2277422,0 -4.033762,1.80619 -4.033762,4.03399 0.6473792,4.86477 2.1585602,9.57487 4.4612496,13.90869 0.684441,1.36444 2.0802105,2.22617 3.6065074,2.22617 2.2278171,0 4.0339201,-1.80603 4.0335461,-4.03382 0,-0.62737 -0.146276,-1.24607 -0.427255,-1.80692 -1.721447,-3.22694 -2.938056,-6.69848 -3.6062911,-10.29412 0,-2.2278 -1.8062029,-4.03399 -4.033995,-4.03399 z M 70.291039,99.485259 c -0.396832,-0.0025 -0.80061,0.05541 -1.200095,0.177763 -2.077956,0.636098 -3.278666,2.804138 -2.715186,4.902988 2.605814,9.06747 8.208201,17.49988 14.906726,25.05026 a 54.249848,54.249848 0 0 1 5.185684,-6.3173 c -5.623271,-6.49904 -10.213034,-13.57109 -12.339275,-20.9596 -0.529671,-1.73078 -2.118187,-2.846471 -3.837854,-2.854116 z m 0.249266,-15.339413 c -2.143685,-0.0025 -4.324341,0.339354 -6.468376,1.062097 -9.893343,3.334737 -15.606325,13.66783 -13.169788,23.819747 3.663942,12.73841 12.24326,24.8169 22.968326,36.13169 a 54.249848,54.249848 0 0 1 3.259841,-8.32696 c -8.705827,-9.63191 -15.503176,-19.69844 -18.475332,-30.0318 -1.84695,-6.42735 1.866325,-13.134545 8.293713,-14.981528 6.427289,-1.846983 13.134483,1.866292 14.981441,8.293658 1.57846,5.49274 5.404377,11.44956 10.622569,17.5914 a 54.249848,54.249848 0 0 1 6.796724,-4.46668 C 94.602877,107.78581 90.948976,102.45026 89.626689,97.87812 86.791458,89.466749 78.950154,84.155815 70.540305,84.145841 Z m -0.377547,-16.99061 c -3.281088,0.0067 -6.615734,0.460348 -9.926312,1.404962 -18.912545,5.8389 -29.889631,25.51879 -24.920856,44.678352 8.148445,37.1108 2.057159,45.67867 -14.659007,50.90648 -2.125391,0.66824 -3.306319,2.93312 -2.638084,5.05843 0.668219,2.1253 2.933098,3.30628 5.058398,2.63807 23.35565,-7.26084 28.430353,-22.52481 20.168827,-60.33753 -4.013455,-14.993642 4.471898,-30.493303 19.265484,-35.190933 14.989851,-4.255509 30.602101,4.395845 34.940793,19.362257 0.898019,3.061952 2.626169,6.760536 9.673949,13.943976 a 54.249848,54.249848 0 0 1 8.97391,-2.47132 C 107.96323,99.429241 105.82897,95.767977 105.14895,93.416421 100.53499,77.483832 85.97154,67.1244 70.162758,67.155231 Z m -0.33215,-16.083303 c -4.644121,0.0213 -9.359105,0.660515 -14.039106,1.974241 -27.83808,7.987669 -43.929902,37.030764 -35.941884,64.868866 0.005,0.0195 0.0114,0.0398 0.01689,0.0594 6.623603,23.00893 -7.57543,29.38998 -12.1013112,30.79374 -2.1252753,0.66825 -3.3064607,2.93313 -2.6382254,5.05843 0.6682519,2.12531 2.9331225,3.30641 5.0583976,2.6382 12.33552,-3.85621 24.315929,-16.82898 17.434066,-40.72546 -6.784396,-23.548193 6.80536,-48.137002 30.353149,-54.921339 0.01256,-0.0033 0.02504,-0.0075 0.0371,-0.01048 23.283115,-6.544605 47.541916,6.650865 54.698376,29.753201 0.0952,0.314588 0.23103,0.615675 0.40345,0.895514 0.35617,0.589362 1.09302,1.778567 17.17184,14.997664 a 54.249848,54.249848 0 0 1 16.46715,3.96946 c -0.21761,-0.77274 -0.66632,-1.48857 -1.33657,-2.03349 -9.4227,-7.64763 -23.19381,-19.014942 -25.21079,-20.910909 C 112.94069,65.212503 92.207055,50.96932 69.830566,51.071986 Z m 64.940822,-0.02804 c -0.71379,0.0042 -1.4356,0.197072 -2.08809,0.598362 -1.89797,1.167393 -2.49051,3.65233 -1.32306,5.550367 3.00302,4.833756 5.56816,9.925822 7.66435,15.215658 0.75819,2.094678 3.07106,3.178163 5.16579,2.419915 1.97022,-0.713201 3.06642,-2.816538 2.52219,-4.840112 -2.28862,-5.926284 -5.12748,-11.625755 -8.47873,-17.022584 -0.76609,-1.245576 -2.09974,-1.928936 -3.46245,-1.921606 z M 70.264401,34.877673 c -37.854363,0.04459 -68.53027,30.72063 -68.5745029,68.574927 0,2.2278 1.8061113,4.03382 4.0339367,4.03382 2.2277921,0 4.0339867,-1.80602 4.0339867,-4.03382 0.035523,-33.402498 27.1045145,-60.471448 60.5069875,-60.506979 32.730181,0 44.194191,18.507161 53.407571,33.383572 5.42141,8.753467 10.10048,16.312616 17.95852,18.861885 2.11125,0.711328 4.39921,-0.423586 5.1106,-2.534511 0.7113,-2.111332 -0.42356,-4.39923 -2.53448,-5.110559 -0.0277,-0.0093 -0.0552,-0.01805 -0.0833,-0.02712 l -0.008,-0.0083 C 139.0736,85.896923 135.11222,79.443018 130.52169,72.077064 120.80836,56.377374 107.48852,34.877376 70.264644,34.877376 Z M 66.230872,18.742642 c -36.134788,0 -55.50501,18.870174 -59.9261114,26.146905 -1.1515193,1.902938 -0.5449622,4.378865 1.3553218,5.534536 v 1.66e-4 c 1.9022142,1.159456 4.3844476,0.557816 5.5439196,-1.344365 0.0025,-0.0042 0.005,-0.0075 0.0067,-0.01107 3.501378,-5.776539 20.74971,-22.25857 53.020397,-22.25857 31.011678,0 53.076721,15.707543 57.053911,22.25857 1.15602,1.904827 3.63763,2.51145 5.54246,1.355356 1.90483,-1.15607 2.51132,-3.637538 1.35525,-5.542373 C 124.64819,35.765304 100.21178,18.742728 66.231099,18.742728 Z M 71.4916,2.481425 c -1.752253,-0.00499 -3.506403,0.037519 -5.260728,0.1260267 -21.330628,0 -26.67147,2.7428137 -33.448303,6.2200753 -1.363267,0.7018779 -2.815373,1.444278 -4.50965,2.202494 -2.070112,0.822904 -3.081395,3.168329 -2.25884,5.23844 0.822872,2.070078 3.168297,3.081237 5.238399,2.258723 0.105903,-0.04201 0.209967,-0.08842 0.311644,-0.139454 h -0.02421 c 1.847333,-0.806649 3.412605,-1.613739 4.896915,-2.420347 6.066961,-3.057494 10.431492,-5.292407 29.793761,-5.292407 13.073686,-0.7204129 26.149837,1.373125 38.345082,6.139537 1.54096,0.57294 3.09002,1.145463 4.71165,1.702131 0.42277,0.146724 0.86702,0.223044 1.31479,0.225698 2.22782,0.0042 4.03702,-1.798516 4.04119,-4.026283 0.002,-1.726755 -1.09296,-3.2637 -2.72624,-3.823379 -1.56518,-0.540404 -3.04959,-1.0890927 -4.53387,-1.6136148 C 95.927809,4.8115925 83.757333,2.5122308 71.491625,2.481425 Z" />
  </g>
</svg>
