<?xml version="1.0" encoding="UTF-8" standalone="no"?>
<!-- Created with Inkscape (http://www.inkscape.org/) -->

<svg
   xmlns:dc="http://purl.org/dc/elements/1.1/"
   xmlns:cc="http://creativecommons.org/ns#"
   xmlns:rdf="http://www.w3.org/1999/02/22-rdf-syntax-ns#"
   xmlns:svg="http://www.w3.org/2000/svg"
   xmlns="http://www.w3.org/2000/svg"
   xmlns:sodipodi="http://sodipodi.sourceforge.net/DTD/sodipodi-0.dtd"
   xmlns:inkscape="http://www.inkscape.org/namespaces/inkscape"
   width="210mm"
   height="297mm"
   viewBox="0 0 210 297"
   version="1.1"
   id="svg636"
   inkscape:version="0.92.3 (2405546, 2018-03-11)"
   sodipodi:docname="IdentSent.svg">
  <defs
     id="defs630" />
  <sodipodi:namedview
     id="base"
     pagecolor="#ffffff"
     bordercolor="#666666"
     borderopacity="1.0"
     inkscape:pageopacity="0.0"
     inkscape:pageshadow="2"
     inkscape:zoom="0.24748737"
     inkscape:cx="2202.1762"
     inkscape:cy="-289.9097"
     inkscape:document-units="mm"
     inkscape:current-layer="layer1"
     showgrid="false"
     inkscape:window-width="1920"
     inkscape:window-height="1017"
     inkscape:window-x="-8"
     inkscape:window-y="-8"
     inkscape:window-maximized="1" />
  <metadata
     id="metadata633">
    <rdf:RDF>
      <cc:Work
         rdf:about="">
        <dc:format>image/svg+xml</dc:format>
        <dc:type
           rdf:resource="http://purl.org/dc/dcmitype/StillImage" />
        <dc:title />
      </cc:Work>
    </rdf:RDF>
  </metadata>
  <g
     inkscape:label="Layer 1"
     inkscape:groupmode="layer"
     id="layer1">
    <path
       inkscape:connector-curvature="0"
       id="rect578"
       style="fill:#000000;stroke-width:0.02286794"
       d="m 93.779022,150.04466 26.431928,-31.33536 -6.68175,-5.64155 -20.553268,24.36525 -11.06786,-10.17303 -5.919279,6.4428 z M 29.040196,27.186784 c 0.207292,0.47572 0.691005,0.786145 1.227792,0.786145 H 44.8285 v 31.802595 c 0,0.702223 0.595305,1.272171 1.328773,1.272171 h 21.260163 c 0.733469,0 1.328797,-0.569948 1.328797,-1.272171 V 27.972812 h 14.616299 c 0.53678,0 1.02047,-0.310424 1.22779,-0.783644 0.20467,-0.475744 0.0931,-1.02279 -0.28703,-1.386639 L 57.794568,0.33999064 c -0.249756,-0.239123 -0.587359,-0.373991 -0.940761,-0.373991 -0.353401,0 -0.691005,0.134868 -0.94076,0.37149 L 29.327227,25.800029 c -0.380044,0.363965 -0.4943,0.910894 -0.287031,1.386755 z m 69.059896,68.217267 c -19.93429,0 -36.152365,16.219789 -36.152365,36.151899 0,19.93644 16.217515,36.15239 36.152365,36.15239 19.934868,0 36.151948,-16.21595 36.151948,-36.15239 0,-19.93268 -16.21761,-36.151899 -36.151948,-36.151899 z m 0,5.546249 A 30.605879,30.605879 0 0 1 128.70598,131.55616 30.605879,30.605879 0 0 1 98.100092,162.16207 30.605879,30.605879 0 0 1 67.494254,131.55616 30.605879,30.605879 0 0 1 98.100092,100.9503 Z M 41.253539,5.3581206 c -9.834531,0.665438 -13.419283,2.505104 -17.727058,4.7154414 -1.092035,0.562283 -2.255279,1.157004 -3.612423,1.764321 -1.658221,0.659175 -2.468226,2.537986 -1.809355,4.19623 0.659199,1.658174 2.537869,2.468202 4.19609,1.809308 0.08483,-0.03358 0.168147,-0.07079 0.249638,-0.111662 h -0.0194 c 1.479837,-0.646182 2.733546,-1.29269 3.922543,-1.938872 2.089912,-1.053194 3.928526,-1.984256 6.577894,-2.703843 2.714008,-2.602977 5.481184,-5.1543305 8.221998,-7.7309234 z m 33.876125,2.3936756 c 3.507378,3.4308848 6.984838,6.8949548 10.552598,10.2573418 0.0602,0.0037 0.12059,0.0063 0.18102,0.0068 1.78459,0.003 3.23374,-1.440716 3.2371,-3.225275 0.002,-1.383156 -0.87553,-2.614196 -2.18388,-3.062573 -1.2538,-0.432883 -2.4427,-0.872497 -3.6317,-1.292667 -2.67381,-1.0427473 -5.39635,-1.9375859 -8.155138,-2.6834872 z M 23.414889,23.07756 C 11.448334,28.018827 4.5343796,35.310768 2.3165866,38.960957 c -0.922415,1.524311 -0.436505,3.507492 1.085725,4.433272 v 0 c 1.52375,0.928795 3.512212,0.446859 4.440984,-1.076891 0.0023,-0.003 0.0035,-0.0056 0.0051,-0.0089 1.588437,-2.620551 6.7101674,-7.990845 15.5475454,-12.156413 -1.123725,-2.078531 -1.394771,-4.570595 -0.253612,-6.759175 0.09035,-0.105609 0.181819,-0.210167 0.272588,-0.315426 z m 67.380343,6.187404 c -0.33146,1.034966 -0.87968,1.998325 -1.66273,2.807279 -1.02667,0.80865 -2.15451,1.363174 -3.3436,1.738683 5.39876,3.157339 8.96533,6.408531 10.23362,8.497625 0.92608,1.525806 2.91394,2.011739 4.439808,1.085678 1.52586,-0.926084 2.01174,-2.913846 1.08573,-4.439698 C 99.908632,36.2541 96.196652,32.687739 90.795232,29.264964 Z m -56.531389,5.178402 c -20.806691,7.823142 -35.6163284,27.89356 -35.6438344,51.428983 0,1.784536 1.44672199,3.231211 3.231258,3.231211 1.784559,0 3.231397,-1.446675 3.231397,-3.231211 0.0229,-21.452124 13.9656284,-39.64233 33.2823394,-46.026742 0.0201,-1.796432 0.03122,-3.592021 0.01613,-5.385671 -1.368806,0.0269 -2.745394,-0.01472 -4.117356,-0.01659 z m 41.074913,0.425101 v 7.155764 c 10.590546,5.324909 16.176876,14.3424 20.994426,22.121092 4.342778,7.011851 8.090798,13.067074 14.385368,15.109124 1.69129,0.569855 3.52402,-0.339263 4.0938,-2.030225 0.56983,-1.69129 -0.33928,-3.523944 -2.03022,-4.093799 -0.0222,-0.0075 -0.0442,-0.01449 -0.0667,-0.02173 l -0.007,-0.0065 C 108.66996,71.809572 105.49675,66.639817 101.8195,60.739398 96.331612,51.869232 89.405992,40.68812 75.338849,34.868304 Z m 29.885084,9.022212 c -0.57177,0.003 -1.14988,0.158051 -1.6725,0.479459 -1.52041,0.935152 -1.99512,2.925695 -1.06,4.446102 2.40557,3.871994 4.46038,7.950883 6.13952,12.188244 0.60739,1.677898 2.46005,2.545815 4.13799,1.938427 1.57825,-0.57128 2.45647,-2.256119 2.02058,-3.877158 -1.83336,-4.747155 -4.10745,-9.312678 -6.79201,-13.635737 -0.61368,-0.997737 -1.68199,-1.545156 -2.77358,-1.539337 z M 38.279118,46.734438 C 18.266774,54.512756 7.1284996,76.414427 13.166639,97.457202 c 0.0044,0.01566 0.0091,0.03188 0.01355,0.04763 5.305791,18.431078 -6.0683334,23.542738 -9.6938204,24.667208 -1.70246,0.53527 -2.64843201,2.34941 -2.113188,4.05187 0.535267,1.70246 2.349553,2.6486 4.052013,2.11333 9.8812474,-3.08898 19.4780574,-13.4807 13.9653704,-32.622786 -4.893871,-16.986392 3.44715,-34.648294 18.92954,-41.963162 -0.06004,-2.336816 -0.06135,-4.676507 -0.04108,-7.016852 z m 37.059638,3.341774 v 5.646364 c 0.10229,0.739732 0.155551,1.510873 0.150316,2.289352 5.5257,4.333739 9.83065,10.332616 12.06123,17.533274 0.0764,0.251999 0.18504,0.493154 0.32316,0.71739 0.28535,0.472074 0.87553,1.424754 13.755368,12.013856 a 43.456422,43.456422 0 0 1 13.19091,3.17968 C 114.64547,90.837079 114.28606,90.263602 113.74913,89.82712 106.20103,83.700946 95.169562,74.595163 93.554062,73.076578 90.302262,63.106782 83.678752,55.1455 75.338756,50.076212 Z M 38.736727,60.986746 c -10.86321,6.666489 -16.522076,19.84214 -13.181213,32.724497 6.527203,29.727357 1.647984,36.590457 -11.742413,40.778157 -1.70246,0.53527 -2.648596,2.34955 -2.113305,4.05201 0.535267,1.70246 2.349553,2.64844 4.052013,2.11319 18.708879,-5.81626 22.773863,-18.0433 16.156077,-48.33294 -2.729737,-10.197864 1.758782,-20.687714 10.429649,-25.925265 -1.498954,-0.834755 -2.73551,-2.074231 -3.424622,-3.738107 -0.0648,-0.556861 -0.123066,-1.11405 -0.176186,-1.671542 z m 34.720671,3.709876 c -0.525125,0.667542 -1.165066,1.25212 -1.935436,1.71959 -1.632747,0.48591 -3.286668,0.787313 -4.954026,0.968104 4.089124,2.864932 7.26392,7.09166 8.761612,12.257956 0.719376,2.452732 2.103494,5.415538 7.749104,11.169801 a 43.456422,43.456422 0 0 1 7.18834,-1.979722 c -6.51769,-6.18294 -8.22728,-9.115762 -8.77199,-10.999433 -1.50888,-5.210443 -4.3464,-9.67662 -8.037604,-13.136296 z m -19.68542,5.710047 c -1.71716,-0.0023 -3.46393,0.271793 -5.181417,0.850763 -7.924942,2.671265 -12.501215,10.94851 -10.549443,19.080603 2.934972,10.204055 9.807257,19.879465 18.398502,28.943035 a 43.456422,43.456422 0 0 1 2.611251,-6.67025 C 52.077113,104.89525 46.632199,96.831539 44.251353,88.554107 c -1.47951,-5.148605 1.495005,-10.521376 6.643563,-12.000839 5.148582,-1.479533 10.521329,1.494934 12.000839,6.64354 1.264389,4.399852 4.329042,9.171663 8.508936,14.091475 a 43.456422,43.456422 0 0 1 5.444591,-3.578022 C 73.04716,89.34329 70.120181,85.069215 69.060957,81.406803 66.789904,74.668942 60.508647,70.414638 53.771978,70.406669 Z m -0.199627,12.287496 c -0.317903,-0.0023 -0.641344,0.04452 -0.961326,0.142534 -1.664601,0.50949 -2.626372,2.24607 -2.175003,3.927404 2.087388,7.26336 6.575136,14.018067 11.940942,20.066277 a 43.456422,43.456422 0 0 1 4.15393,-5.06043 C 62.02639,96.563976 58.349793,90.89894 56.646632,84.980455 c -0.42433,-1.38645 -1.696735,-2.280167 -3.074281,-2.28629 z M 1.8510326,95.565959 c -1.78453601,0 -3.231398,1.446862 -3.231398,3.231444 0.51862799,3.896817 1.72912499,7.669857 3.573652,11.141387 0.548331,1.09306 1.6664,1.78329 2.889003,1.78329 1.78456,0 3.231468,-1.44674 3.231188,-3.23128 0,-0.50252 -0.117318,-0.99811 -0.342371,-1.4474 -1.378949,-2.58486 -2.353503,-5.36576 -2.888817,-8.245997 0,-1.784582 -1.446675,-3.231444 -3.231257,-3.231444 z M 40.682165,115.07028 c -0.368896,-0.002 -0.744265,0.0609 -1.111268,0.19369 -1.578296,0.57136 -2.456518,2.25629 -2.020597,3.87728 2.766031,8.64044 -2.669138,25.59769 -10.843999,28.25378 -1.703044,0.53317 -2.651494,2.34594 -2.118634,4.049 0.533141,1.70302 2.345908,2.65159 4.048975,2.11875 0.02244,-0.007 0.04443,-0.0143 0.06656,-0.0217 12.433442,-4.00658 18.43059,-25.60421 15.005665,-36.33853 v 0 c -0.474505,-1.31085 -1.709168,-2.12731 -3.0267,-2.13212 z m 14.068036,19.50017 c -9.16921,2.14289 -10.669192,18.69098 -10.892913,22.18882 -0.110564,1.78091 1.243473,3.31433 3.024386,3.42523 h 0.206988 c 1.709144,0.003 3.125275,-1.32504 3.231281,-3.03082 0.366279,-5.9885 2.46416,-14.43403 5.436735,-16.06867 a 43.456422,43.456422 0 0 1 -1.006477,-6.51456 z" />
  </g>
</svg>
