<?xml version="1.0" encoding="UTF-8" standalone="no"?>
<!-- Created with Inkscape (http://www.inkscape.org/) -->

<svg
   xmlns:dc="http://purl.org/dc/elements/1.1/"
   xmlns:cc="http://creativecommons.org/ns#"
   xmlns:rdf="http://www.w3.org/1999/02/22-rdf-syntax-ns#"
   xmlns:svg="http://www.w3.org/2000/svg"
   xmlns="http://www.w3.org/2000/svg"
   xmlns:sodipodi="http://sodipodi.sourceforge.net/DTD/sodipodi-0.dtd"
   xmlns:inkscape="http://www.inkscape.org/namespaces/inkscape"
   width="210mm"
   height="297mm"
   viewBox="0 0 210 297"
   version="1.1"
   id="svg636"
   inkscape:version="0.92.3 (2405546, 2018-03-11)"
   sodipodi:docname="IdentAmbiguous.svg">
  <defs
     id="defs630" />
  <sodipodi:namedview
     id="base"
     pagecolor="#ffffff"
     bordercolor="#666666"
     borderopacity="1.0"
     inkscape:pageopacity="0.0"
     inkscape:pageshadow="2"
     inkscape:zoom="0.64"
     inkscape:cx="139.99394"
     inkscape:cy="742.71108"
     inkscape:document-units="mm"
     inkscape:current-layer="layer1"
     showgrid="false"
     inkscape:window-width="1920"
     inkscape:window-height="1017"
     inkscape:window-x="-8"
     inkscape:window-y="-8"
     inkscape:window-maximized="1" />
  <metadata
     id="metadata633">
    <rdf:RDF>
      <cc:Work
         rdf:about="">
        <dc:format>image/svg+xml</dc:format>
        <dc:type
           rdf:resource="http://purl.org/dc/dcmitype/StillImage" />
        <dc:title />
      </cc:Work>
    </rdf:RDF>
  </metadata>
  <g
     inkscape:label="Layer 1"
     inkscape:groupmode="layer"
     id="layer1">
    <path
       id="path66"
       style="fill:#000000;stroke-width:0.02854773"
       d="m 127.8439,116.58415 c -24.88544,0 -45.132151,20.24834 -45.132151,45.13109 0,24.88817 20.245981,45.13162 45.132151,45.13162 24.88605,0 45.1311,-20.24345 45.1311,-45.13162 0,-24.8834 -20.24569,-45.13109 -45.1311,-45.13109 z m 0,6.92361 a 38.207571,38.207571 0 0 1 38.20749,38.20748 38.207571,38.207571 0 0 1 -38.20749,38.20749 38.207571,38.207571 0 0 1 -38.208026,-38.20749 38.207571,38.207571 0 0 1 38.208026,-38.20748 z m 11.88024,15.1715 c -3.45978,-2.49545 -7.80498,-3.74379 -13.0344,-3.74379 -3.98047,0 -7.33708,0.87936 -10.06679,2.63382 -4.32882,2.74974 -6.63069,7.41719 -6.90802,14.00175 h 10.0322 c 0,-1.9165 0.55953,-3.76442 1.67861,-5.54499 1.12028,-1.77934 3.01918,-2.66781 5.69792,-2.66781 2.72364,0 4.60008,0.72218 5.62631,2.16532 1.02743,1.44497 1.54084,3.04529 1.54084,4.80036 0,1.52507 -0.76587,2.9227 -1.68771,4.19349 -0.50734,0.74038 -1.17612,1.42129 -2.00692,2.04455 0,0 -5.44061,3.48951 -7.82865,6.29204 -1.38549,1.62703 -1.5099,4.0612 -1.63188,7.55495 -0.008,0.24821 0.0868,0.76163 0.95643,0.76163 0.86965,0 7.02879,0 7.80255,0 0.77376,0 0.93519,-0.57714 0.94612,-0.82656 0.0546,-1.27322 0.19784,-1.92197 0.42905,-2.65627 0.43877,-1.38732 1.63128,-2.59924 2.96943,-3.63942 l 2.76187,-1.90619 c 2.49243,-1.94138 4.48175,-3.53563 5.35868,-4.78396 1.50019,-2.05487 2.55372,-4.58492 2.55372,-7.58894 0,-4.89746 -1.7308,-8.59452 -5.18936,-11.08998 z m -13.19583,38.50481 c -3.45734,-0.10317 -6.31025,2.28851 -6.41949,6.03898 -0.10802,3.74926 2.6053,6.2253 6.06265,6.32725 3.61028,0.10742 6.38612,-2.20719 6.49414,-5.95584 0.10802,-3.75047 -2.52701,-6.30358 -6.1373,-6.41039 z M 72.962258,164.58043 c -11.44657,2.67513 -13.319167,23.33336 -13.598424,27.69994 -0.138023,2.22324 1.552287,4.13741 3.775562,4.27582 h 0.258283 c 2.133619,0.004 3.901596,-1.65396 4.033986,-3.78342 0.457195,-7.47591 3.076138,-18.01915 6.787026,-20.0597 a 54.249849,54.249849 0 0 1 -1.256433,-8.13264 z M 55.400069,140.2368 c -0.460523,-0.002 -0.929066,0.0761 -1.387282,0.24197 -1.970299,0.71324 -3.066622,2.81651 -2.522434,4.84011 3.453037,10.78651 -3.332107,31.95565 -13.537362,35.27143 -2.126056,0.66559 -3.310019,2.9286 -2.644873,5.05466 0.665615,2.12607 2.928483,3.31003 5.054547,2.64485 0.02804,-0.009 0.05557,-0.0178 0.0832,-0.0271 15.521551,-5.00165 23.008233,-31.96344 18.732709,-45.36386 v -1.4e-4 c -0.592449,-1.63649 -2.133703,-2.65582 -3.778506,-2.66188 z M 6.924162,115.88833 c -2.227742,0 -4.033762,1.80619 -4.033762,4.03399 0.64738,4.86477 2.15856,9.57487 4.46125,13.90868 0.684441,1.36444 2.08021,2.22617 3.606507,2.22617 2.227817,0 4.03392,-1.80603 4.033546,-4.03381 0,-0.62737 -0.146276,-1.24607 -0.427255,-1.80692 -1.721446,-3.22694 -2.938056,-6.69848 -3.606291,-10.29412 0,-2.2278 -1.806202,-4.03399 -4.033995,-4.03399 z M 71.491834,99.819493 c -0.396833,-0.002 -0.800611,0.0554 -1.200097,0.17777 -2.077956,0.636087 -3.278664,2.804137 -2.715186,4.902987 2.605815,9.06747 8.208203,17.49988 14.906728,25.05026 a 54.249849,54.249849 0 0 1 5.185683,-6.3173 c -5.623272,-6.49904 -10.213033,-13.57109 -12.339275,-20.9596 -0.529672,-1.73078 -2.118188,-2.846477 -3.837853,-2.854117 z m 0.249264,-15.339396 c -2.143683,-0.0024 -4.32434,0.339355 -6.468375,1.062096 -9.893342,3.33474 -15.606326,13.667823 -13.169789,23.819737 3.663942,12.73841 12.243261,24.81689 22.968326,36.13168 a 54.249849,54.249849 0 0 1 3.259841,-8.32696 c -8.705826,-9.6319 -15.503175,-19.69843 -18.475333,-30.03179 -1.846947,-6.42735 1.866326,-13.134533 8.293714,-14.981518 6.42729,-1.846982 13.134483,1.866294 14.981442,8.293638 1.578459,5.49275 5.404376,11.44957 10.622568,17.59141 a 54.249849,54.249849 0 0 1 6.796728,-4.46668 C 95.803671,108.12005 92.14977,102.7845 90.827483,98.212372 87.992253,89.801 80.150948,84.490067 71.741098,84.480092 Z m -0.377547,-16.99061 c -3.281088,0.0067 -6.615732,0.460348 -9.926312,1.404961 -18.912544,5.838902 -29.88963,25.51879 -24.920856,44.678342 8.148444,37.11079 2.057159,45.67866 -14.659007,50.90647 -2.125391,0.66824 -3.306319,2.93312 -2.638084,5.05843 0.668219,2.1253 2.933098,3.30628 5.058398,2.63807 23.355651,-7.26084 28.430354,-22.52481 20.168827,-60.33752 -4.013454,-14.993632 4.471898,-30.493291 19.265485,-35.190921 14.989852,-4.25551 30.602102,4.395843 34.940793,19.362256 0.898019,3.061941 2.626165,6.760525 9.673945,13.943965 a 54.249849,54.249849 0 0 1 8.97391,-2.47132 C 109.16402,99.763483 107.02976,96.102227 106.34974,93.750671 101.73578,77.818082 87.172333,67.45865 71.363551,67.489482 Z m -0.33215,-16.083304 c -4.64412,0.0213 -9.359104,0.660517 -14.039104,1.974242 -27.838082,7.98767 -43.929904,37.030765 -35.941886,64.868855 0.005,0.0195 0.0114,0.0398 0.01689,0.0594 6.623603,23.00892 -7.57543,29.38997 -12.101311,30.79373 -2.125275,0.66825 -3.306461,2.93313 -2.638225,5.05843 0.668252,2.12531 2.933122,3.30641 5.058397,2.6382 12.33552,-3.85621 24.315928,-16.82898 17.434066,-40.72545 -6.784396,-23.548183 6.80536,-48.136992 30.35315,-54.921329 0.01257,-0.0033 0.02503,-0.0075 0.0371,-0.01048 23.283114,-6.544604 47.541912,6.650865 54.698372,29.753202 0.0952,0.314587 0.23103,0.615675 0.40345,0.895514 0.35617,0.589362 1.09303,1.778567 17.17184,14.997653 a 54.249849,54.249849 0 0 1 16.46715,3.96946 c -0.2176,-0.77274 -0.66632,-1.48857 -1.33656,-2.03349 -9.42271,-7.64763 -23.19382,-19.01493 -25.2108,-20.910897 C 114.14148,65.546755 93.407848,51.30357 71.031361,51.406236 Z m 64.940819,-0.02804 c -0.71379,0.0042 -1.4356,0.197072 -2.08809,0.598363 -1.89797,1.167392 -2.49051,3.652329 -1.32305,5.550368 3.00301,4.833755 5.56815,9.92582 7.66434,15.215658 0.75819,2.094678 3.07107,3.178162 5.1658,2.419914 1.97022,-0.7132 3.06642,-2.816537 2.52218,-4.840113 -2.28862,-5.926283 -5.12748,-11.625755 -8.47873,-17.022582 -0.76609,-1.245577 -2.09974,-1.928937 -3.46245,-1.921608 z M 71.465196,35.211924 c -37.854364,0.04459 -68.530272,30.72063 -68.574505,68.574916 0,2.2278 1.806112,4.03382 4.033937,4.03382 2.227792,0 4.033987,-1.80602 4.033987,-4.03382 0.03552,-33.402486 27.104514,-60.471438 60.506988,-60.506969 32.730177,0 44.194187,18.507162 53.407577,33.383572 5.42141,8.753467 10.10047,16.312618 17.95851,18.861887 2.11126,0.711327 4.39922,-0.423588 5.1106,-2.534513 0.7113,-2.11133 -0.42355,-4.39923 -2.53447,-5.110557 -0.0277,-0.0093 -0.0552,-0.01804 -0.0833,-0.02712 l -0.008,-0.0083 C 140.27439,86.231173 136.31301,79.777269 131.72248,72.411316 122.00916,56.711624 108.68931,35.211627 71.465439,35.211627 Z M 67.431665,19.076892 c -36.134789,0 -55.505009,18.870175 -59.926111,26.146905 -1.151519,1.902939 -0.544962,4.378867 1.355322,5.534538 v 1.64e-4 c 1.902214,1.159457 4.384447,0.557816 5.543919,-1.344364 0.0025,-0.0042 0.005,-0.0075 0.0067,-0.01106 3.501379,-5.77654 20.749712,-22.258571 53.020399,-22.258571 31.011677,0 53.076716,15.707543 57.053906,22.258571 1.15602,1.904828 3.63764,2.511448 5.54246,1.355354 1.90483,-1.156068 2.51133,-3.637536 1.35526,-5.542372 -5.53454,-9.116502 -29.97095,-26.13908 -63.951626,-26.13908 z M 72.692394,2.8156762 c -1.752253,-0.005 -3.506404,0.03752 -5.260729,0.126027 -21.330626,0 -26.671468,2.742814 -33.448302,6.2200744 -1.363268,0.7018777 -2.815373,1.4442774 -4.509651,2.2024934 -2.070112,0.822905 -3.081395,3.168329 -2.25884,5.238441 0.822872,2.070078 3.168297,3.081237 5.2384,2.258723 0.105902,-0.04201 0.209966,-0.08842 0.311642,-0.139454 h -0.02421 c 1.847334,-0.80665 3.412606,-1.61374 4.896916,-2.420348 6.066959,-3.057494 10.431492,-5.292407 29.793761,-5.292407 13.073687,-0.720412 26.149837,1.373125 38.345089,6.139538 1.54096,0.57294 3.09001,1.145463 4.71165,1.702131 0.42276,0.146724 0.86701,0.223044 1.31478,0.225697 2.22782,0.0042 4.03702,-1.798515 4.04119,-4.026282 0.002,-1.726755 -1.09296,-3.263701 -2.72624,-3.82338 -1.56518,-0.540404 -3.04959,-1.089092 -4.53387,-1.6136137 C 97.128604,5.1458442 84.958128,2.8464822 72.692418,2.8156762 Z" />
  </g>
</svg>
