<?xml version="1.0" encoding="UTF-8" standalone="no"?>
<!-- Created with Inkscape (http://www.inkscape.org/) -->

<svg
   xmlns:dc="http://purl.org/dc/elements/1.1/"
   xmlns:cc="http://creativecommons.org/ns#"
   xmlns:rdf="http://www.w3.org/1999/02/22-rdf-syntax-ns#"
   xmlns:svg="http://www.w3.org/2000/svg"
   xmlns="http://www.w3.org/2000/svg"
   xmlns:sodipodi="http://sodipodi.sourceforge.net/DTD/sodipodi-0.dtd"
   xmlns:inkscape="http://www.inkscape.org/namespaces/inkscape"
   width="210mm"
   height="297mm"
   viewBox="0 0 210 297"
   version="1.1"
   id="svg636"
   inkscape:version="0.92.3 (2405546, 2018-03-11)"
   sodipodi:docname="IdentSendReady.svg">
  <defs
     id="defs630" />
  <sodipodi:namedview
     id="base"
     pagecolor="#ffffff"
     bordercolor="#666666"
     borderopacity="1.0"
     inkscape:pageopacity="0.0"
     inkscape:pageshadow="2"
     inkscape:zoom="0.22627417"
     inkscape:cx="-1897.0689"
     inkscape:cy="875.55144"
     inkscape:document-units="mm"
     inkscape:current-layer="layer1"
     showgrid="false"
     inkscape:window-width="1920"
     inkscape:window-height="1017"
     inkscape:window-x="-8"
     inkscape:window-y="-8"
     inkscape:window-maximized="1" />
  <metadata
     id="metadata633">
    <rdf:RDF>
      <cc:Work
         rdf:about="">
        <dc:format>image/svg+xml</dc:format>
        <dc:type
           rdf:resource="http://purl.org/dc/dcmitype/StillImage" />
        <dc:title />
      </cc:Work>
    </rdf:RDF>
  </metadata>
  <g
     inkscape:label="Layer 1"
     inkscape:groupmode="layer"
     id="layer1">
    <path
       inkscape:connector-curvature="0"
       id="rect578"
       style="fill:#000000;stroke-width:0.03453656"
       d="m 119.30436,230.54064 h 38.67789 v -4.01743 l -9.56004,-1.16393 -9.77528,-3.83864 -8.84484,3.5905 -10.49773,1.41207 z m 39.27628,-58.70646 V 161.31819 H 120.4209 v 10.46859 l 18.52526,12.24193 z m 7.12622,-23.36362 h 9.61838 v -9.49062 h -9.61838 -4.46985 -43.49799 -4.46985 -9.42134 v 9.49062 h 5.5827 3.83864 v 28.00131 l 21.22533,14.14295 -22.18135,13.75618 0.0985,0.16059 -0.051,0.0295 v 28.09617 h -2.93008 -5.5827 v 9.49069 h 71.47741 v -9.49069 h -10.527 v -28.05965 l -21.51362,-13.9496 22.46239,-13.92771 -0.0986,-0.16052 0.0584,-0.0329 z m -5.3784,59.36688 v 24.81953 h -43.49437 v -25.60764 l 21.92234,-13.59204 z m 0.91217,-33.80301 -22.26896,13.81096 -21.23265,-13.78176 v -25.59307 h 43.49799 v 25.56387 z M 46.296185,39.609912 c 0.31306,0.718423 1.04356,1.187234 1.85423,1.187234 h 21.99015 V 88.82742 c 0,1.06049 0.89909,1.9213 2.00683,1.9213 h 32.108415 c 1.10775,0 2.00684,-0.86081 2.00684,-1.9213 V 40.797011 h 22.0744 c 0.81067,0 1.54124,-0.468878 1.8543,-1.183541 0.30909,-0.71849 0.14051,-1.544666 -0.4335,-2.094175 L 89.722745,-0.93576896 c -0.37717,-0.36112504 -0.887,-0.56481604 -1.4208,-0.56481604 -0.53373,0 -1.04357,0.203691 -1.4208,0.56105604 L 46.729615,37.515536 c -0.57401,0.549642 -0.74649,1.375685 -0.43343,2.094376 z m 19.54559,-33.03752 c -15.69171,0.94024 -21.20842,3.772845 -27.87268,7.192353 -1.64926,0.849137 -3.40601,1.747081 -5.45567,2.664361 -2.50438,0.995561 -3.7278,3.832999 -2.73271,6.337376 0.99543,2.504376 3.83293,3.727864 6.33731,2.732773 0.12816,-0.05102 0.25397,-0.107149 0.37703,-0.168914 h -0.0295 c 2.2349,-0.975823 4.12854,-1.95225 5.92422,-2.928072 3.51021,-1.768968 6.5506,-3.309942 11.32854,-4.436888 4.01145,-3.827494 8.08849,-7.590604 12.12337,-11.393056 z m 48.671485,3.318602 c 5.33987,5.20667 10.6257,10.473494 16.03371,15.602957 0.50439,0.172204 1.03356,0.262435 1.56689,0.265591 2.69517,0.0067 4.88367,-2.175947 4.88878,-4.871124 0.007,-2.088939 -1.32205,-3.948205 -3.298,-4.625272 -1.89357,-0.653704 -3.68932,-1.317545 -5.48501,-1.952115 -4.48657,-1.7497 -9.06384,-3.224276 -13.70637,-4.420037 z M 39.206615,32.836891 C 20.268275,40.298056 9.371825,51.73784 5.936535,57.39204 c -1.39314,2.30216 -0.65934,5.29724 1.6396,6.69541 v 1.3e-4 c 2.30129,1.40275 5.30442,0.67486 6.70716,-1.62637 0.007,-0.007 0.007,-0.009 0.008,-0.0128 2.4367,-4.01997 10.37816,-12.32491 24.11467,-18.655368 -1.60858,-2.945997 -2.00751,-6.481717 -0.38416,-9.599113 0.39228,-0.454847 0.78784,-0.906538 1.18495,-1.356618 z m 99.738675,9.523921 c -0.49607,1.635636 -1.36824,3.151165 -2.65208,4.387207 -1.60261,1.12567 -3.3323,1.879742 -5.13806,2.377086 8.62779,4.919195 14.321,10.059805 16.30198,13.322815 1.39858,2.30445 4.4007,3.03811 6.70501,1.63953 2.30445,-1.39864 3.03838,-4.40063 1.63973,-6.70508 -2.53787,-4.18056 -8.36401,-9.735064 -16.85658,-15.021558 z M 56.090065,49.87971 C 23.669385,61.16824 0.39613496,91.98174 0.35370496,128.24045 c 0,2.69511 2.18514004,4.88026 4.88019004,4.88026 2.69517,0 4.88005,-2.18515 4.88005,-4.88026 0.0349,-32.65813 21.4309,-60.31047 50.96856,-69.74073 0.0309,-2.87356 0.0483,-5.74578 0.0222,-8.6151 -1.66954,0.0181 -3.3423,0.007 -5.01459,-0.007 z m 59.423055,1.04417 v 10.7454 c 16.45384,7.99248 25.03088,21.83815 32.41296,33.75769 6.55872,10.58977 12.21943,19.73478 21.72596,22.8188 2.55413,0.86055 5.32201,-0.51224 6.18263,-3.06596 0.86055,-2.55426 -0.51238,-5.32235 -3.06617,-6.1829 -0.0336,-0.0114 -0.0671,-0.0222 -0.10071,-0.0329 l -0.0101,-0.009 c -6.09991,-1.95218 -10.89228,-9.75983 -16.44585,-18.671 -8.37945,-13.54376 -18.97829,-30.65507 -40.69882,-39.35953 z m 45.84044,13.91335 c -0.86358,0.007 -1.73681,0.2386 -2.5262,0.72406 -2.29612,1.41234 -3.01313,4.41856 -1.60079,6.71475 3.63307,5.84781 6.7363,12.00815 9.27223,18.40763 0.91734,2.53418 3.71537,3.84475 6.24949,2.9274 2.38353,-0.86283 3.70974,-3.40736 3.0516,-5.85547 -2.76882,-7.16953 -6.20337,-14.0646 -10.25772,-20.59359 -0.92681,-1.50693 -2.54009,-2.33358 -4.18861,-2.32478 z M 60.958835,68.86136 c -30.66936,11.50236 -47.82618,44.84749 -38.636,76.87536 0.007,0.0235 0.0141,0.0483 0.0208,0.0718 8.01309,27.83582 -9.16481,35.55573 -14.64016,37.25393 -2.57111,0.80846 -3.9999,3.54841 -3.19152,6.11959 0.80846,2.57118 3.54848,3.9999 6.11959,3.19151 14.92327,-4.66515 29.4168,-20.35921 21.09119,-49.2688 -7.46459,-25.90921 5.45917,-52.85904 29.29039,-63.70051 -0.0833,-3.51141 -0.0838,-7.02666 -0.0544,-10.54291 z m 54.554285,4.89482 v 9.34951 c 0.11319,0.811 0.18328,1.64926 0.20571,2.49806 8.69459,6.5839 15.47687,15.8513 18.94284,27.04006 0.11534,0.38059 0.27949,0.74487 0.48808,1.08344 0.43088,0.71305 1.32238,2.15198 20.78022,18.14896 h 15.42753 c -11.147,-9.08009 -25.38408,-20.85058 -27.62864,-22.96047 v -2e-4 C 138.72649,93.57831 128.44057,81.38848 115.51312,73.75618 Z M 61.593535,90.26333 c -16.83188,9.93634 -25.67215,30.10361 -20.56001,49.81596 9.85786,44.8961 2.48867,55.26117 -17.73426,61.58566 -2.57124,0.80838 -3.9999,3.54847 -3.19151,6.11958 0.80845,2.57118 3.54847,3.9999 6.11958,3.19152 28.25529,-8.78409 34.39454,-27.25019 24.39993,-72.99536 -4.19614,-15.6758 2.90115,-31.80826 16.4572,-39.56886 -2.29666,-1.18642 -4.20164,-3.01293 -5.23044,-5.51025 -0.0962,-0.87895 -0.18247,-1.75843 -0.26049,-2.63825 z m 51.266305,5.51899 c -0.75226,0.96327 -1.67135,1.80529 -2.7787,2.47557 -2.64516,0.75273 -5.32382,1.19435 -8.02323,1.44141 6.61599,4.32585 11.7748,10.94842 14.14718,19.1321 0.9146,3.1182 2.53808,6.78061 8.11447,13.04481 h 13.57095 c -9.12392,-8.76992 -11.576,-13.01862 -12.37378,-15.77738 -2.34896,-8.11098 -6.82975,-15.0276 -12.65689,-20.31651 z m -29.212105,9.1011 c -2.59333,-0.007 -5.23144,0.4104 -7.82531,1.28478 -11.96868,4.03427 -18.88021,16.53507 -15.93253,28.81668 6.7361,23.4194 27.20172,44.99613 49.648655,64.28599 2.90175,-1.79971 5.80344,-3.59936 8.7052,-5.39894 -22.217535,-18.8124 -42.681685,-39.70246 -48.974675,-61.58129 -2.23436,-7.7757 2.25785,-15.88997 10.03361,-18.12445 7.77564,-2.23443 15.8899,2.25785 18.12439,10.03355 0.7144,2.48611 1.80992,5.05084 3.231255,7.67647 h 11.40031 c -2.52405,-3.66798 -4.3948,-7.17866 -5.32047,-10.37984 -3.42998,-10.17595 -12.916305,-16.60087 -23.090435,-16.61295 z m -0.30171,18.55721 c -0.48009,-0.007 -0.96857,0.0673 -1.45182,0.21524 -2.51391,0.76951 -3.96653,3.39238 -3.28483,5.93154 4.41259,15.35441 15.92595,29.20431 28.240575,40.72762 v -13.73282 c -1.05565,-1.1115 -2.09129,-2.23892 -3.10162,-3.38171 -2.29954,0.0618 -4.603445,-0.18395 -6.569385,-1.48176 v -6.7222 c -4.128,-5.77578 -7.389,-11.84569 -9.18972,-18.1031 -0.64082,-2.09384 -2.56279,-3.44361 -4.6432,-3.45281 z m -78.1126,19.43985 c -2.69518,0 -4.88026004,2.18501 -4.88026004,4.88019 0.78321004,5.88534 2.61160004,11.58352 5.39734004,16.82651 0.82806,1.65067 2.51659,2.69336 4.3631,2.69336 2.69518,0 4.88012,-2.18507 4.87972,-4.88025 0,-0.75898 -0.17717,-1.50747 -0.51708,-2.18595 -2.08256,-3.9039 -3.55418,-8.10373 -4.36264,-12.45367 0,-2.69518 -2.18521,-4.88019 -4.88018,-4.88019 z m 58.64536,29.45648 c -0.55723,-0.007 -1.12426,0.0919 -1.6786,0.29258 -2.3836,0.86283 -3.70994,3.40756 -3.05161,5.85568 4.17748,13.0493 -4.03091,38.65922 -16.3771,42.6706 -2.57205,0.80523 -4.0046,3.54297 -3.19991,6.11502 0.8053,2.57212 3.54304,4.0046 6.11509,3.19991 0.0336,-0.0108 0.0673,-0.0215 0.10071,-0.0329 18.77768,-6.05091 27.83474,-38.66903 22.66231,-54.88064 v -2e-4 c -0.71661,-1.97971 -2.58125,-3.21273 -4.57089,-3.22012 z m 24.3152,29.10382 c -16.59214,0 -19.15882,28.20641 -19.52021,33.85752 -0.16697,2.6896 1.87813,5.00553 4.5678,5.17297 h 0.31246 c 2.58124,0.007 4.72013,-2.00113 4.88032,-4.57734 0.61483,-10.05268 4.45998,-24.69284 9.75963,-24.69284 7.23223,0 12.365855,6.96879 16.484785,12.56129 0.34951,0.49842 0.70795,0.99052 1.07445,1.47625 0.0497,-5.12228 0.44142,-10.47705 0.16099,-15.7285 -4.85736,-4.41359 -11.028235,-7.28346 -17.720225,-8.06935 z" />
  </g>
</svg>
