<?xml version="1.0" encoding="UTF-8" standalone="no"?>
<!-- Created with Inkscape (http://www.inkscape.org/) -->

<svg
   xmlns:dc="http://purl.org/dc/elements/1.1/"
   xmlns:cc="http://creativecommons.org/ns#"
   xmlns:rdf="http://www.w3.org/1999/02/22-rdf-syntax-ns#"
   xmlns:svg="http://www.w3.org/2000/svg"
   xmlns="http://www.w3.org/2000/svg"
   xmlns:sodipodi="http://sodipodi.sourceforge.net/DTD/sodipodi-0.dtd"
   xmlns:inkscape="http://www.inkscape.org/namespaces/inkscape"
   width="210mm"
   height="297mm"
   viewBox="0 0 210 297"
   version="1.1"
   id="svg636"
   inkscape:version="0.92.3 (2405546, 2018-03-11)"
   sodipodi:docname="IdentNoMatches.svg">
  <defs
     id="defs630" />
  <sodipodi:namedview
     id="base"
     pagecolor="#ffffff"
     bordercolor="#666666"
     borderopacity="1.0"
     inkscape:pageopacity="0.0"
     inkscape:pageshadow="2"
     inkscape:zoom="0.32"
     inkscape:cx="-451.05632"
     inkscape:cy="655.16722"
     inkscape:document-units="mm"
     inkscape:current-layer="layer1"
     showgrid="false"
     inkscape:window-width="1920"
     inkscape:window-height="1017"
     inkscape:window-x="-8"
     inkscape:window-y="-8"
     inkscape:window-maximized="1" />
  <metadata
     id="metadata633">
    <rdf:RDF>
      <cc:Work
         rdf:about="">
        <dc:format>image/svg+xml</dc:format>
        <dc:type
           rdf:resource="http://purl.org/dc/dcmitype/StillImage" />
        <dc:title />
      </cc:Work>
    </rdf:RDF>
  </metadata>
  <g
     inkscape:label="Layer 1"
     inkscape:groupmode="layer"
     id="layer1">
    <path
       style="fill:#000000;stroke-width:0.11020297"
       d="M 482.54688 439.13867 C 386.48141 439.13867 308.32422 517.30351 308.32422 613.35938 C 308.32422 709.4344 386.47869 787.58008 482.54688 787.58008 C 578.61502 787.58008 656.76563 709.4344 656.76562 613.35938 C 656.76562 517.30128 578.6123 439.13867 482.54688 439.13867 z M 482.54688 465.86719 A 147.49296 147.49296 0 0 1 630.03906 613.35938 A 147.49296 147.49296 0 0 1 482.54688 760.85352 A 147.49296 147.49296 0 0 1 335.05469 613.35938 A 147.49296 147.49296 0 0 1 482.54688 465.86719 z "
       id="path36"
       transform="scale(0.26458333)" />
    <path
       id="rect578"
       style="fill:#000000;stroke-width:0.02915787"
       d="m 72.400219,166.12942 c -11.691253,2.73218 -13.603839,23.83191 -13.889066,28.29208 -0.140975,2.27062 1.585467,4.22566 3.856256,4.36721 h 0.263952 c 2.17919,0.003 3.984838,-1.68955 4.120029,-3.86452 0.467026,-7.63576 3.141916,-18.40418 6.932139,-20.48856 a 55.409328,55.409328 0 0 1 -1.28331,-8.30621 z M 54.462694,141.26561 c -0.470363,-0.003 -0.948945,0.0775 -1.416958,0.24702 -2.012382,0.72856 -3.132166,2.87671 -2.576339,4.9435 3.526868,11.01695 -3.403328,32.63873 -13.826697,36.02528 -2.171508,0.67999 -3.3808,2.99113 -2.701372,5.16281 0.679812,2.17139 2.991191,3.3806 5.162691,2.70121 0.02858,-0.009 0.05662,-0.0179 0.08484,-0.0268 15.853288,-5.10859 23.499979,-32.64648 19.133044,-46.33333 v 0 c -0.605047,-1.67167 -2.17928,-2.71282 -3.85921,-2.71878 z M 4.9508663,116.39673 c -2.2754087,0 -4.1201802,1.8448 -4.1201802,4.12018 0.6612782,4.96853 2.2046674,9.77913 4.5565749,14.20563 0.6990924,1.39366 2.1247484,2.2739 3.683669,2.2739 2.275409,0 4.120119,-1.8448 4.119728,-4.12018 0,-0.64066 -0.149406,-1.27238 -0.436388,-1.8454 -1.758211,-3.29567 -3.0008483,-6.84164 -3.68334,-10.51395 0,-2.27538 -1.844655,-4.12018 -4.1200637,-4.12018 z M 70.898393,99.98424 c -0.405345,-0.0027 -0.817778,0.05662 -1.225742,0.18177 -2.122434,0.6496 -3.3488,2.8639 -2.773281,5.00757 2.661593,9.26154 8.383752,17.87407 15.225509,25.58582 a 55.409328,55.409328 0 0 1 5.296491,-6.45247 c -5.743461,-6.63782 -10.431443,-13.86118 -12.603129,-21.40754 -0.541043,-1.76762 -2.163433,-2.907398 -3.919848,-2.91515 z m 0.254535,-15.667228 c -2.1895,-0.0027 -4.416699,0.346558 -6.606623,1.084952 -10.104735,3.405919 -15.939884,13.959804 -13.451271,24.328646 3.742286,13.01073 12.504971,25.34742 23.459283,36.90402 a 55.409328,55.409328 0 0 1 3.329489,-8.50497 c -8.891892,-9.83784 -15.83449,-20.11937 -18.870198,-30.67355 -1.886459,-6.56482 1.906184,-13.415384 8.470905,-15.301903 6.564731,-1.886219 13.415275,1.906184 15.301734,8.470993 1.612197,5.61008 5.519825,11.69426 10.849537,17.96735 a 55.409328,55.409328 0 0 1 6.941996,-4.56209 C 95.729819,108.46239 91.997787,103.01262 90.647218,98.342968 87.751471,89.75158 79.742526,84.327144 71.152928,84.317007 Z M 70.767342,66.96321 c -3.351185,0.0062 -6.757132,0.470213 -10.138411,1.435074 -19.316845,5.96379 -30.528519,26.064382 -25.453574,45.633376 8.322569,37.90404 2.101266,46.65484 -14.972199,51.99436 -2.170726,0.68267 -3.37707,2.9959 -2.694579,5.16669 0.682526,2.17079 2.995783,3.37671 5.166509,2.69434 23.854913,-7.41614 29.037989,-23.00649 20.599949,-61.62718 -4.099324,-15.314129 4.567452,-31.144957 19.67722,-35.943043 15.310225,-4.346346 31.256161,4.489973 35.687607,19.77609 0.917218,3.127609 2.682276,6.905103 9.880806,14.242293 a 55.409328,55.409328 0 0 1 9.16553,-2.52449 C 109.37566,99.927029 107.19582,96.18767 106.50129,93.785947 101.78872,77.512618 86.913994,66.931916 70.767342,66.963205 Z M 70.428119,50.536121 c -4.743435,0.02086 -9.559164,0.674629 -14.339162,2.016436 -28.43312,8.158416 -44.868871,37.82241 -36.710068,66.255443 0.0055,0.0208 0.01165,0.0405 0.01727,0.0605 6.765176,23.50084 -7.737337,30.01827 -12.3600064,31.45217 -2.1706984,0.68238 -3.377105,2.9959 -2.694579,5.16639 0.6824985,2.17079 2.9958105,3.37702 5.1665431,2.69464 C 22.107252,154.24293 34.34374,140.99292 27.314735,116.58591 20.385341,92.534392 34.265734,67.419971 58.316832,60.490726 c 0.01282,-0.0029 0.02563,-0.006 0.0377,-0.01192 23.780747,-6.684603 48.558048,6.792773 55.867458,30.388981 0.0973,0.32152 0.23609,0.629036 0.41223,0.914798 0.36377,0.601922 1.11624,1.816491 17.53868,15.318005 a 55.409328,55.409328 0 0 1 16.81911,4.05432 c -0.22227,-0.78905 -0.6805,-1.52029 -1.36508,-2.07692 -9.62412,-7.81094 -23.6895,-19.421168 -25.74965,-21.357743 C 114.45961,64.977757 93.282859,50.430336 70.428153,50.535225 Z m 66.328801,-0.0298 c -0.72907,0.0029 -1.46633,0.201435 -2.13271,0.611158 -1.9386,1.192519 -2.54377,3.730422 -1.3514,5.669084 3.06723,4.937244 5.6872,10.137903 7.82819,15.540896 0.77443,2.139498 3.13672,3.246198 5.27617,2.471745 2.01235,-0.728558 3.13201,-2.876707 2.57619,-4.943798 -2.3376,-6.052886 -5.2371,-11.87394 -8.66003,-17.386286 -0.78247,-1.27208 -2.1446,-1.970249 -3.53641,-1.962799 z M 70.871128,33.99461 C 32.207765,34.0402 0.87619057,65.371985 0.83098083,104.03529 c 0,2.27538 1.84479887,4.12018 4.12021447,4.12018 2.2754087,0 4.1201802,-1.8448 4.1201802,-4.12018 0.036327,-34.116415 27.6838135,-61.763966 61.8002315,-61.80032 33.429683,0 45.138753,18.902709 54.549023,34.097349 5.53729,8.940316 10.31639,16.661292 18.34232,19.264753 2.15643,0.726776 4.49329,-0.432372 5.21982,-2.58856 0.72654,-2.156483 -0.43261,-4.49325 -2.58867,-5.219731 -0.0283,-0.0089 -0.0564,-0.01789 -0.085,-0.0268 l -0.008,-0.0089 C 141.15087,86.104944 137.10486,79.513012 132.41616,71.989592 122.49529,55.954303 108.89076,33.994908 70.871251,33.994908 Z M 66.75139,17.514783 c -36.907089,0 -56.691226,19.273695 -61.2068887,26.705932 -1.1761251,1.94343 -0.5565679,4.472393 1.3843326,5.652694 v 0 c 1.9428332,1.184176 4.4781161,0.56974 5.6623491,-1.373095 0.0027,-0.0029 0.0048,-0.006 0.0069,-0.01192 3.576252,-5.90002 21.1932,-22.734444 54.153566,-22.734444 31.674529,0 54.211151,16.043285 58.273351,22.734444 1.18078,1.945516 3.71543,2.565018 5.66097,1.384121 1.94555,-1.1806 2.56497,-3.715224 1.38419,-5.660741 C 126.41737,34.900471 101.45864,17.513888 66.751649,17.513888 Z M 72.124588,0.90622932 c -1.789706,-0.002947 -3.581374,0.0381432 -5.373198,0.12872708 -21.786505,0 -27.241518,2.8013175 -34.163133,6.3529502 -1.392434,0.7166437 -2.875637,1.4750043 -4.606041,2.249457 -2.114351,0.8406034 -3.147094,3.2360704 -2.306999,5.3505424 0.840486,2.114173 3.235896,3.146975 5.35022,2.306967 0.108164,-0.04291 0.214424,-0.09029 0.318298,-0.142435 h -0.02474 c 1.886842,-0.823917 3.48542,-1.648429 5.001461,-2.472049 6.196628,-3.122837 10.654449,-5.4056685 30.43054,-5.4056685 13.353087,-0.7357146 26.708763,1.4025955 39.164594,6.2707075 1.57397,0.585234 3.15612,1.169872 4.81236,1.738718 0.43183,0.149586 0.88575,0.227657 1.34306,0.230339 2.27541,0.0029 4.12319,-1.836754 4.12745,-4.112433 0.003,-1.76345 -1.11633,-3.333213 -2.78454,-3.9050374 -1.5987,-0.5518605 -3.11477,-1.1123627 -4.6308,-1.6481317 C 97.082917,3.286201 84.652355,0.93751699 72.124498,0.90622932 Z" />
    <path
       id="path4"
       d="m 105.58651,154.70313 h -0.0713 l -4.89877,10.12044 h 4.97014 z m -8.742108,14.9092 c -1.777221,0 -2.540029,-1.19573 -2.540029,-2.13992 0,-0.79797 0.290193,-1.23439 0.508915,-1.59583 l 8.125622,-14.72905 c 0.79797,-1.45075 1.81353,-2.10363 3.69955,-2.10363 2.10487,0 4.17219,1.34319 4.17219,4.64366 v 11.13601 h 0.61771 c 1.41455,0 2.5389,0.94421 2.5389,2.39495 0,1.45199 -1.12435,2.39382 -2.5389,2.39382 h -0.61771 v 3.08411 c 0,1.92233 -0.76167,2.82898 -2.6114,2.82898 -1.85097,0 -2.61264,-0.90676 -2.61264,-2.82898 v -3.08411 z"
       style="fill:#000000;stroke-width:0.10283133"
       inkscape:connector-curvature="0" />
    <path
       id="path4-6"
       d="m 132.50623,162.28466 c 0,-2.75649 -0.25388,-8.41572 -3.95344,-8.41572 -3.7007,0 -3.95459,5.65923 -3.95459,8.41572 0,2.5751 0.25389,8.41572 3.95459,8.41572 3.69956,0 3.95344,-5.84062 3.95344,-8.41572 m -13.56714,0 c 0,-5.9131 2.28614,-13.34956 9.6138,-13.34956 7.32879,0 9.61381,7.43646 9.61381,13.34956 0,5.91312 -2.28502,13.34958 -9.61381,13.34958 -7.32766,0 -9.6138,-7.43646 -9.6138,-13.34958"
       style="fill:#000000;stroke-width:0.10283133"
       inkscape:connector-curvature="0" />
    <path
       id="path4-8"
       d="m 152.66156,154.70313 h -0.0713 l -4.89878,10.12044 h 4.97014 z m -8.74211,14.90921 c -1.77723,0 -2.54004,-1.19573 -2.54004,-2.13993 0,-0.79797 0.2902,-1.23439 0.50891,-1.59583 l 8.12564,-14.72905 c 0.79796,-1.45075 1.81354,-2.10363 3.69956,-2.10363 2.10487,0 4.17218,1.34319 4.17218,4.64366 v 11.13601 h 0.61771 c 1.41454,0 2.5389,0.94421 2.5389,2.39495 0,1.45199 -1.12436,2.39382 -2.5389,2.39382 h -0.61771 v 3.08411 c 0,1.92233 -0.76168,2.82898 -2.6114,2.82898 -1.85097,0 -2.61264,-0.90676 -2.61264,-2.82898 v -3.08411 z"
       style="fill:#000000;stroke-width:0.10283133"
       inkscape:connector-curvature="0" />
  </g>
</svg>
