<?xml version="1.0" encoding="UTF-8" standalone="no"?>
<svg
   xmlns:dc="http://purl.org/dc/elements/1.1/"
   xmlns:cc="http://creativecommons.org/ns#"
   xmlns:rdf="http://www.w3.org/1999/02/22-rdf-syntax-ns#"
   xmlns:svg="http://www.w3.org/2000/svg"
   xmlns="http://www.w3.org/2000/svg"
   xmlns:sodipodi="http://sodipodi.sourceforge.net/DTD/sodipodi-0.dtd"
   xmlns:inkscape="http://www.inkscape.org/namespaces/inkscape"
   height="448pt"
   viewBox="0 -1 448 448"
   width="448pt"
   version="1.1"
   id="svg18"
   sodipodi:docname="issued final.svg"
   inkscape:version="0.92.3 (2405546, 2018-03-11)">
  <metadata
     id="metadata24">
    <rdf:RDF>
      <cc:Work
         rdf:about="">
        <dc:format>image/svg+xml</dc:format>
        <dc:type
           rdf:resource="http://purl.org/dc/dcmitype/StillImage" />
        <dc:title />
      </cc:Work>
    </rdf:RDF>
  </metadata>
  <defs
     id="defs22" />
  <sodipodi:namedview
     pagecolor="#ffffff"
     bordercolor="#666666"
     borderopacity="1"
     objecttolerance="10"
     gridtolerance="10"
     guidetolerance="10"
     inkscape:pageopacity="0"
     inkscape:pageshadow="2"
     inkscape:window-width="1920"
     inkscape:window-height="1017"
     id="namedview20"
     showgrid="false"
     inkscape:zoom="0.79017856"
     inkscape:cx="406.33013"
     inkscape:cy="-535.99639"
     inkscape:window-x="1912"
     inkscape:window-y="-8"
     inkscape:window-maximized="1"
     inkscape:current-layer="svg18" />
  <path
     id="path2-9"
     style="fill:#020202;stroke-width:0.5083316"
     d="m 373.12089,900.99239 16.1746,16.17511 -75.66262,75.66262 -46.64604,-46.64501 16.17461,-16.17512 30.47143,30.47042 z m -44.97977,-54.72673 c -55.49635,0 -100.64648,45.15465 -100.64648,100.64505 0,55.50229 45.14854,100.64649 100.64648,100.64649 55.49789,0 100.6465,-45.1442 100.6465,-100.64649 0,-55.49205 -45.15019,-100.64505 -100.6465,-100.64505 z m 0,17.8125 a 82.832771,82.832771 0 0 1 82.83253,82.83255 82.832771,82.832771 0 0 1 -82.83253,82.83399 82.832771,82.832771 0 0 1 -82.83252,-82.83399 82.832771,82.832771 0 0 1 82.83252,-82.83255 z M 152.46534,604.23098 106.91748,626.19192 h 91.09424 z M 2.3598634,639.42386 c -20.6626414,0 -37.4194354,16.4595 -37.4194354,36.75879 v 61.85596 l 59.478518,45.1216 c 0.727471,-0.53228 1.466379,-1.06133 2.236817,-1.58205 8.601491,-5.81363 19.486262,3.564 31.869142,14.47267 l 3.416016,3.41603 c 0.105319,0.1053 3.883636,3.7119 8.373047,3.7119 4.556289,0 8.211913,-3.7515 8.211913,-3.7515 v 0.006 l 3.382327,-3.38228 c 12.382621,-10.90732 21.748882,-20.1033 31.869132,-14.47267 21.88598,12.17752 26.61329,32.14492 26.61329,44.99415 0,0.2106 0.025,11.51377 0,11.69677 v 0.001 c 0,13.3695 -3.54709,20.1873 -13.69189,22.48102 l 24.81591,18.82613 54.45118,-41.30715 h -18.78662 c -6.46449,0 -11.69531,-5.23898 -11.69531,-11.6982 0,-6.45923 5.23082,-11.69678 11.69531,-11.69678 h 49.62597 l 46.25391,-35.0889 h -95.87988 c -6.46449,0 -11.69531,-5.2374 -11.69531,-11.6982 0,-6.45922 5.23082,-11.69677 11.69531,-11.69677 H 292.4502 c 5.12792,0 9.46761,3.30135 11.04786,7.88812 l 35.73926,-27.11129 v -60.98584 c 0,-20.29929 -16.7568,-36.75879 -37.43262,-36.75879 z m 67.8178736,35.09033 c 16.528679,0 35.055183,12.17708 35.055183,37.43261 v 18.70899 c 0,25.26742 -25.677184,37.43264 -35.055183,37.43264 -8.88642,0 -35.056642,-12.16522 -35.056642,-37.43264 V 711.9468 c 0,-25.25553 19.076942,-37.43261 35.056642,-37.43261 z M 187.17921,697.90774 H 292.4502 c 6.46451,0 11.69532,5.23757 11.69532,11.69678 9.4e-4,6.45922 -5.23081,11.69824 -11.69532,11.69824 H 187.17921 c -6.46449,0 -11.69531,-5.23902 -11.69531,-11.69824 0,-6.45921 5.23082,-11.69678 11.69531,-11.69678 z m -233.824231,0.11426 -25.101564,16.23047 25.101564,18.88037 z m 397.344741,0.63135 v 34.22607 l 24.07763,-18.62695 z m 24.14502,32.93262 -163.37403,125.05076 21.84082,16.6509 c 21.99537,-28.266 56.32452,-46.4868 94.83106,-46.4868 16.55548,0 32.33862,3.3687 46.70215,9.45405 z m -446.291032,0.47314 0.335449,248.39505 L 92.784671,857.94488 Z M 106.2129,867.88823 -53.377444,988.25154 H 215.3628 c -4.741,-12.8946 -7.33154,-26.8209 -7.33154,-41.34083 0,-20.11515 4.97879,-39.08775 13.75781,-55.76227 l -27.66211,-21.06736 -41.54737,31.48096 z" />
</svg>
