<?xml version="1.0" encoding="UTF-8" standalone="no"?>
<svg
   xmlns:dc="http://purl.org/dc/elements/1.1/"
   xmlns:cc="http://creativecommons.org/ns#"
   xmlns:rdf="http://www.w3.org/1999/02/22-rdf-syntax-ns#"
   xmlns:svg="http://www.w3.org/2000/svg"
   xmlns="http://www.w3.org/2000/svg"
   xmlns:sodipodi="http://sodipodi.sourceforge.net/DTD/sodipodi-0.dtd"
   xmlns:inkscape="http://www.inkscape.org/namespaces/inkscape"
   height="448pt"
   viewBox="0 -1 448 448"
   width="448pt"
   version="1.1"
   id="svg18"
   sodipodi:docname="issued.svg"
   inkscape:version="0.92.3 (2405546, 2018-03-11)">
  <metadata
     id="metadata24">
    <rdf:RDF>
      <cc:Work
         rdf:about="">
        <dc:format>image/svg+xml</dc:format>
        <dc:type
           rdf:resource="http://purl.org/dc/dcmitype/StillImage" />
        <dc:title />
      </cc:Work>
    </rdf:RDF>
  </metadata>
  <defs
     id="defs22" />
  <sodipodi:namedview
     pagecolor="#ffffff"
     bordercolor="#666666"
     borderopacity="1"
     objecttolerance="10"
     gridtolerance="10"
     guidetolerance="10"
     inkscape:pageopacity="0"
     inkscape:pageshadow="2"
     inkscape:window-width="1920"
     inkscape:window-height="1017"
     id="namedview20"
     showgrid="false"
     inkscape:zoom="0.79017856"
     inkscape:cx="562.62392"
     inkscape:cy="-535.99639"
     inkscape:window-x="-8"
     inkscape:window-y="-8"
     inkscape:window-maximized="1"
     inkscape:current-layer="svg18" />
  <path
     d="M -71.110863,980.45447 92.78482,857.94477 -71.446439,732.05979 Z"
     id="path2"
     inkscape:connector-curvature="0"
     sodipodi:nodetypes="cccc" />
  <path
     d="m 152.46471,604.23168 -45.54767,21.96094 h 91.09534 z"
     id="path4"
     inkscape:connector-curvature="0"
     sodipodi:nodetypes="cccc" />
  <path
     d="m 350.70017,732.87875 24.07711,-18.62681 -24.07711,-15.59882 z"
     id="path8"
     inkscape:connector-curvature="0"
     sodipodi:nodetypes="cccc" />
  <path
     d="M 374.84441,981.19415 V 731.58629 L 211.471,856.63727 Z"
     id="path10"
     inkscape:connector-curvature="0"
     sodipodi:nodetypes="cccc" />
  <path
     d="m -71.74616,714.25194 25.100702,18.88096 v -35.11022 z"
     id="path12"
     inkscape:connector-curvature="0"
     sodipodi:nodetypes="cccc" />
  <path
     d="M 152.57986,901.56191 106.21225,867.88846 -53.377251,988.25194 H 349.28972 L 194.12728,870.08163 Z"
     id="path16"
     inkscape:connector-curvature="0"
     sodipodi:nodetypes="cccccc" />
  <path
     style="fill:#000000;stroke-width:1.43732965"
     d="m 2.3602892,639.42438 c -20.6626412,0 -37.4194352,16.4595 -37.4194352,36.75878 v 61.85596 l 59.478519,45.12158 c 0.72747,-0.53224 1.466377,-1.06132 2.236815,-1.58203 8.601491,-5.8136 19.486261,3.56402 31.869141,14.47265 l 3.41602,3.41602 c 0.10532,0.10533 3.88364,3.71191 8.37305,3.71191 4.55629,0 8.21191,-3.75146 8.21191,-3.75146 v 0.006 l 3.38232,-3.38233 c 12.38262,-10.90729 21.748881,-20.10325 31.869141,-14.47265 21.88597,12.17751 26.61328,32.14493 26.61328,44.99414 0,0.21064 0.025,11.51379 0,11.69678 v 10e-4 c 0,13.36946 -3.54708,20.18726 -13.69189,22.48096 l 24.81592,18.82617 54.45118,-41.30713 h -18.78663 c -6.46449,0 -11.69531,-5.23902 -11.69531,-11.69824 0,-6.45924 5.23082,-11.69678 11.69531,-11.69678 h 49.62598 l 46.25391,-35.08886 h -95.87989 c -6.46449,0 -11.69531,-5.23744 -11.69531,-11.69825 0,-6.45923 5.23082,-11.69677 11.69531,-11.69677 h 105.271 c 5.12791,0 9.46761,3.30135 11.04786,7.88818 l 35.73925,-27.11133 v -60.98584 c 0,-20.29928 -16.7568,-36.75878 -37.43262,-36.75878 z M 70.178169,674.5147 c 16.52868,0 35.055171,12.17709 35.055171,37.43262 v 18.70898 c 0,25.2674 -25.677171,37.43262 -35.055171,37.43262 -8.88642,0 -35.05665,-12.16522 -35.05665,-37.43262 v -18.70898 c 0,-25.25553 19.07695,-37.43262 35.05665,-37.43262 z m 117.001461,23.39355 h 105.271 c 6.4645,0 11.69532,5.23758 11.69532,11.69679 9.4e-4,6.45922 -5.23082,11.69823 -11.69532,11.69823 h -105.271 c -6.46449,0 -11.69531,-5.23901 -11.69531,-11.69823 0,-6.45921 5.23082,-11.69679 11.69531,-11.69679 z"
     id="rect24"
     inkscape:connector-curvature="0" />
  <path
     inkscape:connector-curvature="0"
     style="fill:#ffffff;stroke-width:0.07141532"
     d="m 328.14196,826.80153 c -66.22849,0 -120.11041,53.88776 -120.11041,120.10914 0,66.23563 53.88001,120.11033 120.11041,120.11033 66.23032,0 120.10882,-53.8747 120.10882,-120.11033 0,-66.22331 -53.88038,-120.10914 -120.10882,-120.10914 z"
     id="path28-2" />
  <path
     inkscape:connector-curvature="0"
     style="fill:#000000;stroke-width:0.05984266"
     d="m 328.14183,846.26498 c -55.49636,0 -100.64685,45.1554 -100.64685,100.64577 0,55.50235 45.14891,100.64675 100.64685,100.64675 55.49788,0 100.64551,-45.1444 100.64551,-100.64675 0,-55.49199 -45.14921,-100.64577 -100.64551,-100.64577 z"
     id="path28" />
  <path
     inkscape:connector-curvature="0"
     style="fill:#ffffff;stroke-width:0.05817611"
     d="m 328.14112,864.07841 a 82.832771,82.832771 0 0 1 82.8328,82.83297 82.832771,82.832771 0 0 1 -82.8328,82.83272 82.832771,82.832771 0 0 1 -82.83272,-82.83272 82.832771,82.832771 0 0 1 82.83272,-82.83297 z"
     id="path26" />
  <path
     style="fill:#020202;stroke-width:0.5083316"
     d="m 373.12089,900.99239 16.1746,16.17511 -75.66262,75.66262 -46.64604,-46.64501 16.17461,-16.17512 30.47143,30.47042 z"
     id="path2-9"
     inkscape:connector-curvature="0" />
</svg>
