<?xml version="1.0" encoding="UTF-8" standalone="no"?>
<!-- Created with Inkscape (http://www.inkscape.org/) -->

<svg
   xmlns:dc="http://purl.org/dc/elements/1.1/"
   xmlns:cc="http://creativecommons.org/ns#"
   xmlns:rdf="http://www.w3.org/1999/02/22-rdf-syntax-ns#"
   xmlns:svg="http://www.w3.org/2000/svg"
   xmlns="http://www.w3.org/2000/svg"
   xmlns:sodipodi="http://sodipodi.sourceforge.net/DTD/sodipodi-0.dtd"
   xmlns:inkscape="http://www.inkscape.org/namespaces/inkscape"
   width="210mm"
   height="297mm"
   viewBox="0 0 210 297"
   version="1.1"
   id="svg636"
   inkscape:version="0.92.3 (2405546, 2018-03-11)"
   sodipodi:docname="Passport clean.svg">
  <defs
     id="defs630" />
  <sodipodi:namedview
     id="base"
     pagecolor="#ffffff"
     bordercolor="#666666"
     borderopacity="1.0"
     inkscape:pageopacity="0.0"
     inkscape:pageshadow="2"
     inkscape:zoom="0.175"
     inkscape:cx="-508.84228"
     inkscape:cy="-1581.1208"
     inkscape:document-units="mm"
     inkscape:current-layer="layer1"
     showgrid="false"
     inkscape:window-width="1920"
     inkscape:window-height="1017"
     inkscape:window-x="-8"
     inkscape:window-y="-8"
     inkscape:window-maximized="1" />
  <metadata
     id="metadata633">
    <rdf:RDF>
      <cc:Work
         rdf:about="">
        <dc:format>image/svg+xml</dc:format>
        <dc:type
           rdf:resource="http://purl.org/dc/dcmitype/StillImage" />
        <dc:title />
      </cc:Work>
    </rdf:RDF>
  </metadata>
  <g
     inkscape:label="Layer 1"
     inkscape:groupmode="layer"
     id="layer1">
    <path
       inkscape:connector-curvature="0"
       id="rect578"
       style="fill:#000000;stroke-width:0.09785154"
       d="m -596.68911,660.69874 c 13.195,-5.757 24.998,-14.107 34.785,-24.398 h -23.843 c -3.09,9.107 -6.771,17.288 -10.942,24.398 z m -85.287,-87.163 c 0.665,15.034 2.694,28.957 5.683,41.266 h 74.109 c 2.988,-12.311 5.018,-26.231 5.683,-41.266 h -85.475 z m 218.556,-248.536 h -351.636 c -26.633,0 -48.302,21.668 -48.302,48.302 v 515.397 c 0,26.633 21.669,48.301 48.302,48.301 h 351.636 c 26.633,0 48.3,-21.668 48.3,-48.302 v -515.396 c -10e-4,-26.634 -21.667,-48.302 -48.3,-48.302 z m -175.821,109.502 c 70.735,0 128.282,57.547 128.282,128.282 0,70.735 -57.547,128.284 -128.282,128.284 -70.733,0 -128.278,-57.547 -128.278,-128.284 0,-70.732 57.545,-128.282 128.278,-128.282 z m -129.967,379.577 v 20.354 c 0,4.445 -3.604,8.05 -8.05,8.05 h -0.757 c -4.445,0 -8.05,-3.604 -8.05,-8.05 v -81.112 c 0,-4.445 3.604,-8.05 8.05,-8.05 h 27.243 c 23.957,0 38.84,13.072 38.84,34.112 0,21.402 -14.883,34.695 -38.84,34.695 h -18.436 z m 135.548,24.686 c -1.479,2.316 -4.038,3.718 -6.785,3.718 h -0.943 c -3.143,0 -5.998,-1.83 -7.312,-4.685 l -9.444,-20.525 h -40.874 l -9.33,20.494 c -1.308,2.871 -4.171,4.714 -7.326,4.714 h -1.069 c -2.741,0 -5.293,-1.394 -6.775,-3.7 -1.48,-2.306 -1.686,-5.208 -0.545,-7.701 l 37.132,-81.112 c 1.312,-2.863 4.171,-4.698 7.32,-4.698 h 0.771 c 0.004,0 0.01,0 0.014,0 h 0.788 c 3.136,0 5.985,1.82 7.304,4.665 l 37.595,81.112 c 1.153,2.492 0.957,5.402 -0.521,7.718 z m 35.781,3.718 c -11.85,0 -24.392,-5.002 -32.732,-13.054 -1.553,-1.502 -2.441,-3.565 -2.457,-5.724 -0.018,-2.161 0.833,-4.238 2.361,-5.763 l 0.51,-0.51 c 3.141,-3.134 8.224,-3.136 11.366,-0.006 4.93,4.906 13.35,8.203 20.953,8.203 8.505,0 18.435,-2.749 18.435,-10.497 0.065,-7.467 -4.449,-10.022 -18.978,-14.43 -12.874,-3.89 -30.487,-9.216 -30.487,-29.838 0,-15.307 13.517,-25.59 33.634,-25.59 8.658,0 18.26,2.547 25.059,6.65 1.843,1.112 3.165,2.918 3.669,5.012 0.504,2.094 0.145,4.302 -0.992,6.132 l -0.329,0.529 c -2.32,3.728 -7.201,4.912 -10.969,2.655 -4.114,-2.463 -10.72,-4.116 -16.437,-4.116 -7.738,0 -16.776,2.286 -16.776,8.728 0,6.975 4.428,9.43 18.654,13.732 13.081,3.955 30.973,9.363 30.812,30.59 0.001,16.302 -14.185,27.297 -35.296,27.297 z m 70.176,0 c -11.852,0 -24.396,-5.002 -32.734,-13.056 -1.553,-1.5 -2.439,-3.559 -2.457,-5.716 -0.02,-2.157 0.828,-4.234 2.351,-5.761 l 0.508,-0.508 c 3.139,-3.145 8.23,-3.151 11.377,-0.018 4.93,4.906 13.352,8.203 20.956,8.203 8.503,0 18.431,-2.749 18.431,-10.497 0.061,-7.467 -4.451,-10.022 -18.978,-14.43 -12.874,-3.892 -30.487,-9.22 -30.487,-29.837 0,-15.307 13.519,-25.59 33.636,-25.59 8.657,0 18.26,2.547 25.061,6.65 1.851,1.116 3.175,2.93 3.675,5.032 0.5,2.104 0.131,4.318 -1.02,6.147 l -0.333,0.529 c -2.332,3.704 -7.197,4.865 -10.948,2.62 -4.112,-2.461 -10.716,-4.116 -16.435,-4.116 -7.742,0 -16.78,2.286 -16.78,8.728 0,6.975 4.43,9.43 18.654,13.732 13.083,3.955 30.975,9.363 30.81,30.59 10e-4,16.303 -14.18,27.298 -35.287,27.298 z m -163.667,-42.06 h 25.466 l -12.858,-27.792 z m -59.403,-38.289 h -18.435 v 35.093 h 18.435 c 14.587,0 21.982,-6.002 21.982,-17.842 0,-11.448 -7.394,-17.251 -21.982,-17.251 z m 170.862,-147.332 h 33.879 c 6.971,-12.444 11.54,-26.404 13.032,-41.266 h -41.982 c -0.558,14.709 -2.251,28.575 -4.929,41.266 z m -59.33,54.769 c 10.628,0 21.911,-12.548 30.251,-33.267 h -60.499 c 8.34,20.719 19.622,33.267 30.248,33.267 z m 64.26,-117.535 h 41.982 c -1.492,-14.862 -6.061,-28.824 -13.032,-41.266 h -33.879 c 2.677,12.692 4.37,26.557 4.929,41.266 z m -128.514,21.5 h -41.984 c 1.492,14.862 6.061,28.824 13.032,41.266 h 33.881 c -2.678,-12.691 -4.368,-26.557 -4.929,-41.266 z m 64.254,-117.534 c -10.626,0 -21.908,12.548 -30.247,33.267 h 60.499 c -8.341,-20.719 -19.622,-33.267 -30.252,-33.267 z m 42.74,96.034 c -0.665,-15.034 -2.694,-28.955 -5.683,-41.266 h -74.109 c -2.99,12.311 -5.02,26.233 -5.683,41.266 z m -120.075,84.265 c 9.789,10.293 21.592,18.643 34.787,24.4 -4.171,-7.11 -7.852,-15.293 -10.942,-24.4 z m 154.672,-147.03 c -9.789,-10.291 -21.59,-18.641 -34.785,-24.398 4.171,7.108 7.852,15.291 10.942,24.398 z m -136.661,21.5 h -33.881 c -6.971,12.444 -11.54,26.404 -13.032,41.266 h 41.985 c 0.559,-14.71 2.249,-28.575 4.928,-41.266 z m 16.778,-45.9 c -13.195,5.757 -24.998,14.107 -34.787,24.4 h 23.845 c 3.09,-9.107 6.771,-17.29 10.942,-24.4 z m 406.261,-17.272 -123.495,-35.759 v 476.859 c 0,2.383 -0.139,4.73 -0.394,7.046 15.14,1.494 29.669,-7.932 34.052,-23.076 l 111.812,-385.189 c 4.947,-17.079 -4.891,-34.939 -21.975,-39.881 z" />
  </g>
</svg>
