<?xml version="1.0" encoding="UTF-8" standalone="no"?>
<!-- Created with Inkscape (http://www.inkscape.org/) -->

<svg
   xmlns:dc="http://purl.org/dc/elements/1.1/"
   xmlns:cc="http://creativecommons.org/ns#"
   xmlns:rdf="http://www.w3.org/1999/02/22-rdf-syntax-ns#"
   xmlns:svg="http://www.w3.org/2000/svg"
   xmlns="http://www.w3.org/2000/svg"
   xmlns:sodipodi="http://sodipodi.sourceforge.net/DTD/sodipodi-0.dtd"
   xmlns:inkscape="http://www.inkscape.org/namespaces/inkscape"
   width="210mm"
   height="297mm"
   viewBox="0 0 210 297"
   version="1.1"
   id="svg636"
   inkscape:version="0.92.3 (2405546, 2018-03-11)"
   sodipodi:docname="PersCompleted.svg">
  <defs
     id="defs630" />
  <sodipodi:namedview
     id="base"
     pagecolor="#ffffff"
     bordercolor="#666666"
     borderopacity="1.0"
     inkscape:pageopacity="0.0"
     inkscape:pageshadow="2"
     inkscape:zoom="0.49497475"
     inkscape:cx="409.69199"
     inkscape:cy="589.67502"
     inkscape:document-units="mm"
     inkscape:current-layer="layer1"
     showgrid="false"
     inkscape:window-width="1920"
     inkscape:window-height="1017"
     inkscape:window-x="-8"
     inkscape:window-y="-8"
     inkscape:window-maximized="1" />
  <metadata
     id="metadata633">
    <rdf:RDF>
      <cc:Work
         rdf:about="">
        <dc:format>image/svg+xml</dc:format>
        <dc:type
           rdf:resource="http://purl.org/dc/dcmitype/StillImage" />
        <dc:title />
      </cc:Work>
    </rdf:RDF>
  </metadata>
  <g
     inkscape:label="Layer 1"
     inkscape:groupmode="layer"
     id="layer1">
    <path
       inkscape:connector-curvature="0"
       id="rect578"
       style="fill:#000000;stroke-width:0.01918249"
       d="m 151.06995,81.205236 c -0.18121,-0.0307 -8.66603,0 -8.66603,0 l 1.18514,-3.23524 c 0.81774,-2.23446 0.28831,-5.64623 -1.98066,-6.85918 -0.73878,-0.39497 -1.77099,-0.59333 -2.60321,-0.38372 -0.47725,0.12016 -0.89669,0.43633 -1.1467,0.85993 -0.28751,0.48718 -0.25782,1.05587 -0.3602,1.59606 -0.25962,1.37015 -0.90666,2.67288 -1.90865,3.65069 -1.74694,1.70484 -7.1738,6.62316 -7.1738,6.62316 v 18.014314 h 18.75343 c 2.5305,0.002 4.18886,-2.826124 2.94077,-5.034784 1.48774,-0.95342 1.99655,-2.96164 1.12525,-4.50354 1.48778,-0.95343 1.99656,-2.96164 1.12523,-4.50355 2.56698,-1.64503 1.70877,-5.71655 -1.29057,-6.22414 z m -26.02981,0 h -4.5008 c -0.61875,0 -1.12523,0.50422 -1.12523,1.12585 v 20.266074 c 0,0.62136 0.50425,1.12572 1.12523,1.12572 h 4.5008 c 0.62099,0 1.12524,-0.50442 1.12524,-1.12572 V 82.331086 c 0,-0.62163 -0.50654,-1.12585 -1.12524,-1.12585 z m 11.60675,-26.28467 c -17.78927,0 -32.26216,14.47451 -32.26216,32.26182 0,17.791264 14.47242,32.262284 32.26216,32.262284 17.78982,0 32.26183,-14.47102 32.26183,-32.262284 0,-17.78782 -14.47255,-32.26182 -32.26183,-32.26182 z m 0,4.94946 a 27.312564,27.312564 0 0 1 27.31257,27.31257 27.312564,27.312564 0 0 1 -27.31257,27.312614 27.312564,27.312564 0 0 1 -27.31251,-27.312614 27.312564,27.312564 0 0 1 27.31251,-27.31257 z M 17.898332,2.4127845 c -8.4582804,0 -15.3178944,6.73767 -15.3178944,15.0472015 v 75.2437 c 0,8.308994 6.859614,15.047204 15.3178944,15.047204 h 85.895188 a 38.780338,38.780338 0 0 1 -5.927148,-20.568214 38.780338,38.780338 0 0 1 0.16877,-3.37223 h -4.48111 c -2.64626,0 -4.78735,-2.14437 -4.78735,-4.78848 0,-2.64411 2.14109,-4.78796 4.78735,-4.78796 h 6.587748 a 38.780338,38.780338 0 0 1 9.0144,-14.3639 H 93.554032 c -2.64626,0 -4.78735,-2.14393 -4.78735,-4.78858 0,-2.64411 2.14109,-4.78796 4.78735,-4.78796 h 31.280278 a 38.780338,38.780338 0 0 1 11.81242,-1.89126 38.780338,38.780338 0 0 1 19.15259,5.09097 v -36.03329 c 0,-8.3095315 -6.85964,-15.0472015 -15.32327,-15.0472015 z m 27.76105,14.3644065 c 6.76597,0 14.35001,4.984385 14.35001,15.322745 v 7.65895 c 0,10.34317 -10.51119,15.32264 -14.35001,15.32264 -3.63768,0 -14.35002,-4.97947 -14.35002,-15.32264 v -7.65895 c 0,-10.33836 7.80874,-15.322745 14.35002,-15.322745 z m 47.89465,9.576035 h 43.092818 c 2.64626,0 4.78745,2.14385 4.78745,4.78797 0,2.64411 -2.14119,4.78847 -4.78745,4.78847 H 93.554032 c -2.64626,0 -4.78735,-2.14436 -4.78735,-4.78847 0,-2.64412 2.14109,-4.78797 4.78735,-4.78797 z m -63.26856,33.52275 c 3.05826,0.0572 6.64402,3.16342 10.60408,6.65198 l 1.3986,1.39861 c 0.0465,0.0466 1.58953,1.51947 3.42735,1.51947 1.86512,0 3.3616,-1.53608 3.3616,-1.53608 v 0.003 l 1.38412,-1.38463 c 5.06885,-4.46481 8.9029,-8.22931 13.04563,-5.9244 8.95907,4.98486 10.8943,13.15855 10.8943,18.41841 0,0.0845 0.0102,4.71357 0,4.78848 0,6.94842 -2.33756,9.57593 -9.57543,9.57593 h -38.30007 c -7.23842,0 -9.57645,-2.62751 -9.57645,-9.57593 -0.01,-0.0749 0,-4.70394 0,-4.78848 0,-5.26039 2.399,-12.67649 10.89472,-18.41841 0.77022,-0.52059 1.58523,-0.7436 2.44155,-0.72757 z" />
  </g>
</svg>
