<?xml version="1.0" encoding="UTF-8" standalone="no"?>
<!-- Created with Inkscape (http://www.inkscape.org/) -->

<svg
   xmlns:dc="http://purl.org/dc/elements/1.1/"
   xmlns:cc="http://creativecommons.org/ns#"
   xmlns:rdf="http://www.w3.org/1999/02/22-rdf-syntax-ns#"
   xmlns:svg="http://www.w3.org/2000/svg"
   xmlns="http://www.w3.org/2000/svg"
   xmlns:sodipodi="http://sodipodi.sourceforge.net/DTD/sodipodi-0.dtd"
   xmlns:inkscape="http://www.inkscape.org/namespaces/inkscape"
   width="210mm"
   height="297mm"
   viewBox="0 0 210 297"
   version="1.1"
   id="svg636"
   inkscape:version="0.92.3 (2405546, 2018-03-11)"
   sodipodi:docname="PersSent.svg">
  <defs
     id="defs630" />
  <sodipodi:namedview
     id="base"
     pagecolor="#ffffff"
     bordercolor="#666666"
     borderopacity="1.0"
     inkscape:pageopacity="0.0"
     inkscape:pageshadow="2"
     inkscape:zoom="0.35"
     inkscape:cx="-377.14286"
     inkscape:cy="560"
     inkscape:document-units="mm"
     inkscape:current-layer="layer1"
     showgrid="false"
     inkscape:window-width="1920"
     inkscape:window-height="1017"
     inkscape:window-x="-8"
     inkscape:window-y="-8"
     inkscape:window-maximized="1" />
  <metadata
     id="metadata633">
    <rdf:RDF>
      <cc:Work
         rdf:about="">
        <dc:format>image/svg+xml</dc:format>
        <dc:type
           rdf:resource="http://purl.org/dc/dcmitype/StillImage" />
        <dc:title />
      </cc:Work>
    </rdf:RDF>
  </metadata>
  <g
     inkscape:label="Layer 1"
     inkscape:groupmode="layer"
     id="layer1">
    <path
       inkscape:connector-curvature="0"
       id="rect578"
       style="fill:#000000;stroke-width:0.05943941"
       d="m 139.97791,137.27475 -5.76223,6.27187 17.31826,15.90836 25.73076,-30.50405 -6.50453,-5.49192 -20.00802,23.71891 z M 60.317394,27.981367 c 0.214671,0.492676 0.715614,0.814169 1.271513,0.814169 h 15.079218 v 32.935605 c 0,0.727215 0.616534,1.317469 1.376138,1.317469 h 22.017587 c 0.7596,0 1.37613,-0.590254 1.37613,-1.317469 V 28.795413 H 116.575 c 0.5559,0 1.05683,-0.321493 1.2715,-0.811576 0.21197,-0.492677 0.0964,-1.059212 -0.29723,-1.436037 L 90.096154,0.17817337 c -0.258662,-0.2476352 -0.608277,-0.38732364 -0.974275,-0.38732364 -0.365997,0 -0.715612,0.13968844 -0.974275,0.38472995 L 60.614631,26.545205 c -0.393606,0.37695 -0.511907,0.943361 -0.297237,1.436162 z m 95.423056,76.035523 c -20.64447,0 -37.44033,16.79766 -37.44033,37.4399 0,20.64668 16.79525,37.44032 37.44033,37.44032 20.645,0 37.43984,-16.79364 37.43984,-37.44032 0,-20.64286 -16.79538,-37.4399 -37.43984,-37.4399 z m 0,5.74384 a 31.696238,31.696235 0 0 1 31.6962,31.69629 31.696238,31.696235 0 0 1 -31.6962,31.69625 31.696238,31.696235 0 0 1 -31.69627,-31.69625 31.696238,31.696235 0 0 1 31.69627,-31.69629 z M 17.932657,43.08159 c -9.8158312,0 -17.7763979,7.819065 -17.7763979,17.462282 v 87.320308 c 0,9.6426 7.9605667,17.46229 17.7763979,17.46229 h 99.681303 a 45.004593,45.004589 0 0 1 -6.87836,-23.86941 45.004593,45.004589 0 0 1 0.19575,-3.91347 h -5.20024 c -3.07097,0 -5.55568,-2.48854 -5.55568,-5.55704 0,-3.06848 2.48471,-5.55642 5.55568,-5.55642 h 7.64498 a 45.004593,45.004589 0 0 1 10.46122,-16.66931 h -18.1062 c -3.07097,0 -5.55568,-2.48804 -5.55568,-5.55715 0,-3.06849 2.48471,-5.556431 5.55568,-5.556431 h 36.30081 a 45.004593,45.004589 0 0 1 13.70821,-2.194803 45.004593,45.004589 0 0 1 22.22669,5.908064 V 60.543872 c 0,-9.643217 -7.96062,-17.462282 -17.78265,-17.462282 h -51.91882 v 14.452162 c 0.54993,3.975666 -0.25088,8.828045 -3.95273,11.074546 -7.306467,2.174549 -14.879389,1.211287 -22.292199,1.303085 C 77.952226,70.136605 72.311192,68.988351 70.541943,64.716569 69.705985,57.537239 69.85123,50.305317 69.949404,43.08159 Z M 50.149382,59.7516 c 7.851919,0 16.6532,5.784266 16.6532,17.78194 v 8.888206 c 0,12.003257 -12.198265,17.781924 -16.6532,17.781924 -4.221506,0 -16.653198,-5.778667 -16.653198,-17.781924 V 77.53354 c 0,-11.997674 9.062036,-17.781934 16.653198,-17.78194 z m 55.581728,11.11287 h 50.00938 c 3.07098,0 5.55574,2.487947 5.55574,5.556443 0,3.06849 -2.48476,5.557021 -5.55574,5.557021 h -50.00938 c -3.07097,0 -5.55568,-2.488531 -5.55568,-5.557021 0,-3.068496 2.48471,-5.556443 5.55568,-5.556443 z M 32.122222,109.7674 c 0.0617,-9.5e-4 0.123636,-9.5e-4 0.185754,2.3e-4 3.549092,0.0665 7.710466,3.67115 12.306131,7.71962 l 1.62298,1.62309 c 0.054,0.054 1.844611,1.76335 3.977425,1.76335 2.164474,0 3.90122,-1.78262 3.90122,-1.78262 v 0.003 l 1.606186,-1.60687 c 5.882407,-5.18141 10.331804,-9.55011 15.139469,-6.87526 10.396993,5.78492 12.642849,15.2705 12.642849,21.37458 0,0.0981 0.01179,5.47009 0,5.55702 0,8.06363 -2.712773,11.11286 -11.112326,11.11286 H 27.944656 c -8.400154,0 -11.113469,-3.04923 -11.113469,-11.11286 -0.01114,-0.0869 0,-5.45892 0,-5.55702 0,-6.10471 2.784161,-14.71108 12.643452,-21.37458 0.838004,-0.56639 1.721515,-0.82926 2.647583,-0.84459 z" />
  </g>
</svg>
