<?xml version="1.0" encoding="UTF-8" standalone="no"?>
<!-- Created with Inkscape (http://www.inkscape.org/) -->

<svg
   xmlns:dc="http://purl.org/dc/elements/1.1/"
   xmlns:cc="http://creativecommons.org/ns#"
   xmlns:rdf="http://www.w3.org/1999/02/22-rdf-syntax-ns#"
   xmlns:svg="http://www.w3.org/2000/svg"
   xmlns="http://www.w3.org/2000/svg"
   xmlns:sodipodi="http://sodipodi.sourceforge.net/DTD/sodipodi-0.dtd"
   xmlns:inkscape="http://www.inkscape.org/namespaces/inkscape"
   width="210mm"
   height="297mm"
   viewBox="0 0 210 297"
   version="1.1"
   id="svg636"
   inkscape:version="0.92.3 (2405546, 2018-03-11)"
   sodipodi:docname="PersSendready.svg">
  <defs
     id="defs630" />
  <sodipodi:namedview
     id="base"
     pagecolor="#ffffff"
     bordercolor="#666666"
     borderopacity="1.0"
     inkscape:pageopacity="0.0"
     inkscape:pageshadow="2"
     inkscape:zoom="0.49497475"
     inkscape:cx="1059.9158"
     inkscape:cy="474.29716"
     inkscape:document-units="mm"
     inkscape:current-layer="layer1"
     showgrid="false"
     inkscape:window-width="1920"
     inkscape:window-height="1017"
     inkscape:window-x="-8"
     inkscape:window-y="-8"
     inkscape:window-maximized="1" />
  <metadata
     id="metadata633">
    <rdf:RDF>
      <cc:Work
         rdf:about="">
        <dc:format>image/svg+xml</dc:format>
        <dc:type
           rdf:resource="http://purl.org/dc/dcmitype/StillImage" />
        <dc:title />
      </cc:Work>
    </rdf:RDF>
  </metadata>
  <g
     inkscape:label="Layer 1"
     inkscape:groupmode="layer"
     id="layer1">
    <path
       inkscape:connector-curvature="0"
       id="rect578"
       style="fill:#000000;stroke-width:0.02111116"
       d="m 59.12114,28.549067 c 0.203582,0.467221 0.678631,0.772092 1.205807,0.772092 H 74.627101 V 60.55516 c 0,0.689649 0.584698,1.249403 1.305054,1.249403 h 20.880044 c 0.720356,0 1.305029,-0.559754 1.305029,-1.249403 V 29.321052 H 112.4722 c 0.52718,0 1.00224,-0.304894 1.20581,-0.769656 0.20101,-0.467221 0.0914,-1.004474 -0.28188,-1.361837 L 87.361383,2.1822981 c -0.245307,-0.234839 -0.576865,-0.3673063 -0.923939,-0.3673063 -0.347091,0 -0.678649,0.1324673 -0.923948,0.3648529 L 59.403008,27.1871 c -0.373258,0.357471 -0.485443,0.894615 -0.281868,1.361967 z m 90.493,72.107163 c -19.57788,0 -35.50597,15.92982 -35.50597,35.50559 0,19.57999 15.92753,35.50596 35.50597,35.50596 19.57842,0 35.5055,-15.92597 35.5055,-35.50596 0,-19.57634 -15.92764,-35.50559 -35.5055,-35.50559 z m 0,5.44709 a 30.058659,30.058659 0 0 1 30.05867,30.05873 30.058659,30.058659 0 0 1 -30.05867,30.05864 30.058659,30.058659 0 0 1 -30.05864,-30.05864 30.058659,30.058659 0 0 1 30.05864,-30.05873 z m -0.38629,42.77866 -3.63429,1.4753 -4.31344,0.58022 v 1.65071 h 15.89245 v -1.65071 l -3.92815,-0.47827 z m -7.48894,-20.43528 7.61186,5.03011 8.06767,-5.01062 v -4.32094 h -15.67953 z m 18.60764,-9.58044 h 3.95212 v -3.89965 h -3.95212 -1.83663 -17.87299 -1.83663 -3.87116 v 3.89965 h 2.2939 1.57726 v 11.50552 l 8.72135,5.81124 -9.11416,5.65231 0.0405,0.066 -0.0209,0.012 v 11.54453 h -1.20393 -2.2939 v 3.89964 h 29.36952 v -3.89964 h -4.32544 v -11.52953 l -8.83979,-5.73176 9.2296,-5.72279 -0.0404,-0.066 0.024,-0.0135 z m -2.20994,24.39339 v 10.19816 H 140.2651 v -10.522 l 9.00773,-5.58484 z m 0.37482,-13.88939 -9.15015,5.6748 -8.72435,-5.6628 v -10.516 h 17.87299 v 10.504 z M 18.92617,42.869174 c -9.3086978,0 -16.8579821,7.414985 -16.8579821,16.559982 v 82.809054 c 0,9.14441 7.5492843,16.55999 16.8579821,16.55999 h 94.53107 a 42.679441,42.679441 0 0 1 -6.52287,-22.63621 42.679441,42.679441 0 0 1 0.18575,-3.71117 h -4.93141 c -2.912364,0 -5.26881,-2.35997 -5.26881,-5.26992 0,-2.90997 2.356446,-5.26949 5.26881,-5.26949 h 7.24983 a 42.679441,42.679441 0 0 1 9.92062,-15.80808 h -17.17045 c -2.912364,0 -5.26881,-2.35938 -5.26881,-5.26993 0,-2.909959 2.356446,-5.269364 5.26881,-5.269364 h 34.42507 a 42.679441,42.679441 0 0 1 13.00008,-2.0814 42.679441,42.679441 0 0 1 21.07836,5.602824 V 59.429156 c 0,-9.144997 -7.54936,-16.559982 -16.86392,-16.559982 h -49.23644 v 13.705494 c 0.52156,3.770326 -0.23787,8.371926 -3.74854,10.502382 -6.928908,2.062178 -14.110622,1.148598 -21.140447,1.23565 -3.857905,0.213608 -9.207663,-0.875341 -10.885469,-4.92642 -0.792757,-6.808415 -0.65501,-13.666593 -0.561913,-20.517106 z m 30.552274,15.808648 c 7.446243,0 15.792794,5.485535 15.792794,16.86335 v 8.428998 c 0,11.383113 -11.567972,16.86323 -15.792794,16.86323 -4.003419,0 -15.792816,-5.480117 -15.792816,-16.86323 v -8.428998 c 0,-11.377815 8.593837,-16.86335 15.792816,-16.86335 z m 52.710266,10.53873 h 47.4255 c 2.91231,0 5.26868,2.359406 5.26868,5.269361 0,2.909961 -2.35637,5.270035 -5.26868,5.270035 h -47.4255 c -2.912364,0 -5.26881,-2.360074 -5.26881,-5.270035 0,-2.909955 2.356446,-5.269361 5.26881,-5.269361 z M 32.382641,106.10968 c 0.05851,-8.3e-4 0.117265,-8.3e-4 0.176162,2.1e-4 3.365736,0.063 7.312155,3.48148 11.670332,7.3208 l 1.539139,1.53912 c 0.05122,0.0512 1.749419,1.67224 3.772052,1.67224 2.05263,0 3.699595,-1.69042 3.699595,-1.69042 v 0.003 l 1.523158,-1.52385 c 5.578481,-4.91372 9.798006,-9.05671 14.357287,-6.52006 9.859822,5.48605 11.989643,14.48144 11.989643,20.27016 0,0.093 0.01119,5.18759 0,5.27003 0,7.64703 -2.572603,10.53872 -10.538147,10.53872 H 28.420971 c -7.966214,0 -10.539296,-2.89169 -10.539296,-10.53872 -0.01057,-0.0825 0,-5.17689 0,-5.26993 0,-5.7893 2.640309,-13.95102 11.990173,-20.27026 0.794703,-0.53712 1.632618,-0.78642 2.510793,-0.80095 z" />
  </g>
</svg>
