<?xml version="1.0" encoding="UTF-8" standalone="no"?>
<!-- Created with Inkscape (http://www.inkscape.org/) -->

<svg
   xmlns:dc="http://purl.org/dc/elements/1.1/"
   xmlns:cc="http://creativecommons.org/ns#"
   xmlns:rdf="http://www.w3.org/1999/02/22-rdf-syntax-ns#"
   xmlns:svg="http://www.w3.org/2000/svg"
   xmlns="http://www.w3.org/2000/svg"
   xmlns:sodipodi="http://sodipodi.sourceforge.net/DTD/sodipodi-0.dtd"
   xmlns:inkscape="http://www.inkscape.org/namespaces/inkscape"
   width="210mm"
   height="297mm"
   viewBox="0 0 210 297"
   version="1.1"
   id="svg636"
   inkscape:version="0.92.3 (2405546, 2018-03-11)"
   sodipodi:docname="idcardabsent.svg">
  <defs
     id="defs630" />
  <sodipodi:namedview
     id="base"
     pagecolor="#ffffff"
     bordercolor="#666666"
     borderopacity="1.0"
     inkscape:pageopacity="0.0"
     inkscape:pageshadow="2"
     inkscape:zoom="0.35"
     inkscape:cx="11.428571"
     inkscape:cy="560"
     inkscape:document-units="mm"
     inkscape:current-layer="layer1"
     showgrid="false"
     inkscape:window-width="1920"
     inkscape:window-height="1017"
     inkscape:window-x="-8"
     inkscape:window-y="-8"
     inkscape:window-maximized="1" />
  <metadata
     id="metadata633">
    <rdf:RDF>
      <cc:Work
         rdf:about="">
        <dc:format>image/svg+xml</dc:format>
        <dc:type
           rdf:resource="http://purl.org/dc/dcmitype/StillImage" />
        <dc:title></dc:title>
      </cc:Work>
    </rdf:RDF>
  </metadata>
  <g
     inkscape:label="Layer 1"
     inkscape:groupmode="layer"
     id="layer1">
    <path
       inkscape:connector-curvature="0"
       id="rect578"
       style="fill:#000000;stroke-width:0.09785154"
       d="m -879.20789,-638.51893 c -11.02227,3.14923 -17.87644,13.15264 -17.87644,25.2864 0.55575,7.31731 1.01886,14.72724 1.57461,22.04455 1.5746,27.87987 3.14921,55.204 4.72381,83.08387 0.55575,9.44767 7.87306,16.30186 17.32073,16.30186 9.44766,0 16.85761,-7.31731 17.32072,-16.8576 0,-5.7427 0,-11.02227 0.55575,-16.8576 1.01886,-17.87646 2.13035,-35.75293 3.14921,-53.62939 0.55574,-11.57802 1.5746,-23.15604 2.13035,-34.73406 0,-4.16809 -0.55575,-7.87305 -2.13035,-11.57802 -4.72382,-10.37391 -15.74609,-15.65348 -26.76839,-13.06001 z m 5.74271,162.55541 c -12.59688,0 -23.15603,10.55914 -23.15603,23.15605 0,12.59688 10.55915,23.15603 23.15603,23.15603 12.13376,0 23.15603,-10.55915 22.60028,-22.60028 0.55575,-13.24529 -9.91078,-23.7118 -22.60028,-23.7118 z m -0.2307,-223.02008 c -90.74467,0 -164.57232,73.8357 -164.57232,164.5703 0,90.75481 73.82527,164.5727 164.57232,164.5727 90.74711,0 164.57028,-73.81789 164.57028,-164.5727 0,-90.7372 -73.82558,-164.5703 -164.57028,-164.5703 z m 0,25.2476 a 139.32376,139.32376 0 0 1 139.32395,139.3238 139.32376,139.32376 0 0 1 -139.32381,139.324 139.32376,139.32376 0 0 1 -139.32346,-139.324 139.32376,139.32376 0 0 1 139.32346,-139.3238 z m -605.74662,-293.09438 c -43.1464,0 -78.1379,34.36943 -78.1379,76.75708 v 383.82461 c 0,42.38493 34.9915,76.75706 78.1379,76.75706 h 438.1588 a 197.82187,197.82187 0 0 1 -30.2349,-104.92018 197.82187,197.82187 0 0 1 0.861,-17.20205 h -22.8586 c -13.4988,0 -24.4212,-10.93859 -24.4212,-24.42643 0,-13.48783 10.9224,-24.42383 24.4212,-24.42383 h 33.6047 a 197.82187,197.82187 0 0 1 45.9832,-73.27148 h -79.5879 c -13.4988,0 -24.4212,-10.93637 -24.4212,-24.42694 0,-13.48785 10.9224,-24.42385 24.4212,-24.42385 h 159.56338 a 197.82187,197.82187 0 0 1 60.25627,-9.64745 197.82187,197.82187 0 0 1 97.69896,25.96894 v -183.8084 c 0,-42.38765 -34.9916,-76.75708 -78.16523,-76.75708 z m 141.6115,73.27458 c 34.5138,0 73.2007,25.4253 73.2007,78.16218 v 39.06893 c 0,52.76144 -53.6185,78.16215 -73.2007,78.16215 -18.5561,0 -73.2007,-25.40071 -73.2007,-78.16215 v -39.06893 c 0,-52.73688 39.8331,-78.16218 73.2007,-78.16218 z m 244.3148,48.84767 h 219.82018 c 13.49877,0 24.42127,10.936 24.42127,24.42385 0.003,13.48784 -10.9225,24.42641 -24.42127,24.42641 h -219.82018 c -13.4988,0 -24.4212,-10.93857 -24.4212,-24.42641 0,-13.48785 10.9224,-24.42385 24.4212,-24.42385 z m -322.7384,171.00248 c 15.6004,0.29193 33.8917,16.13689 54.0923,33.93231 l 7.1344,7.13444 c 0.2374,0.23745 8.1083,7.75097 17.4832,7.75097 9.5141,0 17.1478,-7.83572 17.1478,-7.83572 v 0.0133 l 7.0606,-7.06313 c 25.8566,-22.77541 45.4144,-41.97842 66.5468,-30.22089 45.701,25.4282 55.5723,67.12291 55.5723,93.95393 0,0.43125 0.052,24.04433 0,24.42644 0,35.44446 -11.9235,48.84767 -48.8446,48.84764 h -195.372 c -36.9237,0 -48.8503,-13.40318 -48.8503,-48.84764 -0.049,-0.38211 0,-23.99519 0,-24.42644 0,-26.83375 12.2375,-64.66387 55.5749,-93.95393 3.929,-2.65555 8.0865,-3.79315 12.4546,-3.71142 z" />
  </g>
</svg>
