<?xml version="1.0" encoding="UTF-8" standalone="no"?>
<!-- Created with Inkscape (http://www.inkscape.org/) -->

<svg
   xmlns:dc="http://purl.org/dc/elements/1.1/"
   xmlns:cc="http://creativecommons.org/ns#"
   xmlns:rdf="http://www.w3.org/1999/02/22-rdf-syntax-ns#"
   xmlns:svg="http://www.w3.org/2000/svg"
   xmlns="http://www.w3.org/2000/svg"
   xmlns:sodipodi="http://sodipodi.sourceforge.net/DTD/sodipodi-0.dtd"
   xmlns:inkscape="http://www.inkscape.org/namespaces/inkscape"
   width="210mm"
   height="297mm"
   viewBox="0 0 210 297"
   version="1.1"
   id="svg119"
   inkscape:version="0.92.3 (2405546, 2018-03-11)"
   sodipodi:docname="ReadyToPers3.svg">
  <defs
     id="defs113" />
  <sodipodi:namedview
     id="base"
     pagecolor="#ffffff"
     bordercolor="#666666"
     borderopacity="1.0"
     inkscape:pageopacity="0.0"
     inkscape:pageshadow="2"
     inkscape:zoom="0.49497475"
     inkscape:cx="-93.564319"
     inkscape:cy="613.6208"
     inkscape:document-units="mm"
     inkscape:current-layer="layer1"
     showgrid="false"
     inkscape:window-width="1920"
     inkscape:window-height="1017"
     inkscape:window-x="-8"
     inkscape:window-y="-8"
     inkscape:window-maximized="1" />
  <metadata
     id="metadata116">
    <rdf:RDF>
      <cc:Work
         rdf:about="">
        <dc:format>image/svg+xml</dc:format>
        <dc:type
           rdf:resource="http://purl.org/dc/dcmitype/StillImage" />
        <dc:title></dc:title>
      </cc:Work>
    </rdf:RDF>
  </metadata>
  <g
     inkscape:label="Layer 1"
     inkscape:groupmode="layer"
     id="layer1">
    <path
       inkscape:connector-curvature="0"
       id="path181-1-2"
       style="fill:#000000;stroke-width:0.0196839"
       d="m 135.1501,138.38704 6.96323,4.60148 7.38019,-4.58365 v -3.95273 H 135.1501 Z m 15.37955,0.84522 -8.37047,5.19122 -7.98083,-5.18022 v -9.6199 h 16.34997 v 9.6089 z m -8.52878,17.84865 -3.32458,1.34958 -3.94588,0.53077 v 1.51007 h 14.5382 v -1.51007 l -3.59345,-0.4375 z m 8.22848,-5.18073 v 9.32912 h -16.3486 v -9.62533 l 8.2401,-5.10896 z m 1.94272,-22.2772 h 3.61535 v -3.56733 h -3.61535 -1.68007 -16.35001 -1.68007 -3.54129 v 3.56733 h 2.09845 1.44284 v 10.5251 l 7.97818,5.31603 -8.33755,5.17065 0.0368,0.0604 -0.0193,0.011 v 10.56073 h -1.10136 -2.09842 v 3.56731 h 26.86679 v -3.56731 h -3.95685 v -10.54702 l -8.08652,-5.24335 8.44311,-5.23511 -0.0368,-0.0604 0.0218,-0.0119 z m -9.81756,-17.28369 c -18.25427,0 -33.10599,14.85312 -33.10599,33.10547 0,18.25623 14.8512,33.10548 33.10599,33.10548 18.2548,0 33.10444,-14.84925 33.10444,-33.10548 0,-18.25286 -14.85015,-33.10547 -33.10444,-33.10547 z m 0,5.75572 a 27.350085,27.350085 0 0 1 27.34923,27.34924 27.350085,27.350085 0 0 1 -27.34923,27.35026 27.350085,27.350085 0 0 1 -27.35079,-27.35026 27.350085,27.350085 0 0 1 27.35079,-27.34924 z M 56.678081,1.7568897 c -5.768674,0 -10.44639,4.762181 -10.44639,10.6344933 v 18.880503 h -9.45782 c -2.995533,0 -5.424474,2.428623 -5.424474,5.424474 V 68.089792 H 14.090502 c -6.978879,0 -12.656593,5.678235 -12.656593,12.657115 v 54.571343 c 0,6.97888 5.677714,12.65659 12.656593,12.65659 h 17.259927 v 29.1176 c 0,2.99553 2.428626,5.42448 5.424474,5.42448 h 92.046067 c 0.40935,0 0.8077,-0.0469 1.19114,-0.13281 -6.30506,-2.11124 -11.96527,-5.80021 -16.44241,-10.71614 H 42.19938 v -44.37766 h 65.68798 c 6.73572,-12.7985 20.00386,-20.81565 34.46663,-20.82612 7.77325,0.004 15.36778,2.33201 21.80797,6.68487 V 80.746907 c 0,-6.97856 -5.67771,-12.657115 -12.65659,-12.657115 H 134.24648 V 36.69636 c 0,-2.995533 -2.42863,-5.424477 -5.42448,-5.424474 h -9.45782 V 12.391383 c 0,-5.8723123 -4.67734,-10.6344933 -10.44639,-10.6344933 z m 6.174301,9.9756193 c 0.05197,-0.0067 3.266183,0 3.324862,0 3.652131,0 8.800894,1.665566 12.787334,7.563879 1.65222,2.444538 -1.013299,5.538176 -4.113445,9.057329 l -0.971,0.970999 c -0.02857,0.02859 -0.830813,0.870197 -1.01596,1.94717 H 56.204209 V 18.381198 c 0,-5.025398 1.824107,-6.648689 6.648173,-6.648689 z m 30.583666,9.969934 h 5.317501 c 6.971701,0 10.435761,5.114327 10.628811,9.569443 H 82.823769 c 0.312029,-2.822308 3.77086,-9.569443 10.612279,-9.569443 z M 46.231175,31.72612 h 9.97355 v 13.245703 c 0,5.025022 1.823588,6.647656 6.647657,6.647656 h 0.0011 c 0.05201,0.0071 3.265646,0 3.324344,0 3.651774,0 9.326512,-1.343369 12.787336,-7.56336 1.60024,-2.876167 -1.013158,-5.538174 -4.112929,-9.057331 l -0.961149,-0.961181 h 0.0011 c 0,0 -1.053169,-1.026882 -1.065567,-2.311487 h 9.974593 c 0.0496,2.711751 3.50647,9.901721 10.63552,9.901721 h 5.31699 c 7.14676,0 10.60696,-5.219744 10.63656,-9.901721 h 9.97458 v 65.767047 c 0,5.876023 -4.67786,10.638623 -10.4469,10.638623 H 56.678197 c -5.768668,0 -10.446906,-4.7626 -10.446906,-10.638623 z m 19.945551,29.866913 c -1.83573,0 -3.324344,1.486101 -3.324344,3.323309 v 29.918585 c 0,1.83722 1.488614,3.32416 3.324344,3.32383 1.835732,0 3.324862,-1.48661 3.324862,-3.32383 V 64.916342 c 0,-1.837208 -1.48913,-3.323309 -3.324862,-3.323309 z m 16.621723,0 c -1.8361,0 -3.32486,1.486101 -3.32486,3.323309 v 29.918585 c 0,1.83722 1.48913,3.32416 3.32486,3.32383 1.835729,0 3.32383,-1.48661 3.32383,-3.32383 V 64.916342 c 0,-1.837208 -1.488101,-3.323309 -3.32383,-3.323309 z m 16.620691,0 c -1.83573,0 -3.324342,1.486101 -3.324342,3.323309 v 29.918585 c 0,1.83722 1.488612,3.32416 3.324342,3.32383 1.83572,0 3.32383,-1.48661 3.32383,-3.32383 V 64.916342 c 0,-1.837208 -1.48811,-3.323309 -3.32383,-3.323309 z M 59.29291,135.50066 c -2.995535,0 -5.424477,2.42863 -5.424477,5.42448 0,2.99586 2.428621,5.42448 5.424477,5.42448 h 44.11256 c -0.0142,-0.30149 -0.0249,-0.60313 -0.032,-0.90486 0.0161,-3.35854 0.4661,-6.70091 1.33894,-9.9441 z m 0,17.10852 c -2.995535,0 -5.424477,2.42811 -5.424477,5.42396 0,2.99585 2.428621,5.42448 5.424477,5.42448 h 47.01005 c 0.48327,0 0.95138,-0.0638 1.39733,-0.18242 -1.72309,-3.36033 -2.94874,-6.9532 -3.63854,-10.66602 z" />
  </g>
</svg>
