<?xml version="1.0" encoding="UTF-8" standalone="no"?>
<!-- Created with Inkscape (http://www.inkscape.org/) -->

<svg
   xmlns:dc="http://purl.org/dc/elements/1.1/"
   xmlns:cc="http://creativecommons.org/ns#"
   xmlns:rdf="http://www.w3.org/1999/02/22-rdf-syntax-ns#"
   xmlns:svg="http://www.w3.org/2000/svg"
   xmlns="http://www.w3.org/2000/svg"
   xmlns:sodipodi="http://sodipodi.sourceforge.net/DTD/sodipodi-0.dtd"
   xmlns:inkscape="http://www.inkscape.org/namespaces/inkscape"
   width="210mm"
   height="297mm"
   viewBox="0 0 210 297"
   version="1.1"
   id="svg522"
   inkscape:version="0.92.3 (2405546, 2018-03-11)"
   sodipodi:docname="ReadyToPers2.svg">
  <defs
     id="defs516" />
  <sodipodi:namedview
     id="base"
     pagecolor="#ffffff"
     bordercolor="#666666"
     borderopacity="1.0"
     inkscape:pageopacity="0.0"
     inkscape:pageshadow="2"
     inkscape:zoom="0.98994949"
     inkscape:cx="468.93048"
     inkscape:cy="864.56726"
     inkscape:document-units="mm"
     inkscape:current-layer="layer1"
     showgrid="false"
     inkscape:window-width="1920"
     inkscape:window-height="1017"
     inkscape:window-x="-8"
     inkscape:window-y="-8"
     inkscape:window-maximized="1" />
  <metadata
     id="metadata519">
    <rdf:RDF>
      <cc:Work
         rdf:about="">
        <dc:format>image/svg+xml</dc:format>
        <dc:type
           rdf:resource="http://purl.org/dc/dcmitype/StillImage" />
        <dc:title></dc:title>
      </cc:Work>
    </rdf:RDF>
  </metadata>
  <g
     inkscape:label="Layer 1"
     inkscape:groupmode="layer"
     id="layer1">
    <path
       id="path181-1"
       style="fill:#000000;stroke-width:0.01099948"
       d="m 97.641073,94.352396 3.891087,2.57134 4.1241,-2.56137 v -2.20881 h -8.015187 z m 8.594177,0.47232 -4.67746,2.90088 -4.459747,-2.89474 v -5.37565 h 9.136467 v 5.36951 z m -4.76593,9.973934 -1.857797,0.75415 -2.20498,0.29661 v 0.84382 h 8.124037 v -0.84382 l -2.00804,-0.24449 z m 4.59813,-2.89502 v 5.21316 h -9.135697 v -5.37869 l 4.604617,-2.854914 z m 1.0856,-12.448624 h 2.02028 v -1.99345 h -2.02028 -0.93884 -9.136477 -0.93883 -1.9789 v 1.99345 h 1.17263 0.80627 v 5.88147 l 4.458247,2.97063 -4.659067,2.889394 0.0206,0.0337 -0.0108,0.006 v 5.9014 h -0.61545 -1.17261 v 1.99344 h 15.013317 v -1.99344 h -2.21111 v -5.89375 l -4.51878,-2.930004 4.71806,-2.92542 -0.0206,-0.0337 0.0122,-0.007 z m -5.48639,-9.658327 c -10.200586,0 -18.499645,8.300135 -18.499645,18.499645 0,10.201696 8.29877,18.499646 18.499645,18.499646 10.2009,0 18.49913,-8.29795 18.49913,-18.499646 0,-10.199799 -8.29852,-18.499645 -18.49913,-18.499645 z m 0,3.216341 a 15.283388,15.283388 0 0 1 15.2833,15.282788 15.283388,15.283388 0 0 1 -15.2833,15.283822 A 15.283388,15.283388 0 0 1 86.383356,98.295808 15.283388,15.283388 0 0 1 101.66666,83.01302 Z M 43.699141,4.1894082 c -3.579979,0 -6.482807,2.9553175 -6.482807,6.5995968 v 9.559107 h 6.187736 v 10.660332 c 0,3.118469 1.132115,4.125328 4.125843,4.125328 h 0.001 c 0.03228,0.004 2.026523,0 2.062924,0 2.266228,0 5.788168,-0.833729 7.93595,-4.693769 0.993058,-1.784911 -0.629121,-3.436906 -2.552817,-5.620846 l -0.596347,-0.596346 c 0,0 -0.661974,-0.644384 -0.661974,-1.447974 0,-0.79184 0.63464,-1.456813 0.654741,-1.476912 l 0.602546,-0.602548 c 0.101891,-0.11566 0.198313,-0.227524 0.298175,-0.341581 H 43.405102 v -5.847188 c 0,-3.1187 1.132107,-4.126363 4.125846,-4.126363 0.0323,-0.004 2.026505,0 2.062924,0 2.266458,0 5.462019,1.033867 7.93595,4.694287 0.97019,1.43543 -0.463153,3.234406 -2.249477,5.27358 h 5.409491 c -0.519422,0.95355 -0.782381,1.860727 -0.782381,2.402437 0,1.65397 2.145789,6.182569 6.60218,6.182569 h 3.299539 c 4.45435,0 6.602182,-3.267419 6.602182,-6.182569 0,-0.7853 -0.173619,-1.61126 -0.510564,-2.396753 H 60.687767 c 0.982408,-1.806936 2.903548,-3.786332 5.822902,-3.786332 h 3.300055 c 3.210338,0 5.215575,1.749389 6.089034,3.780648 h 6.700366 v 43.254207 c 0,3.646569 -2.903114,6.602179 -6.483323,6.602179 H 43.698107 c -3.57999,0 -6.483324,-2.95561 -6.483324,-6.602179 V 20.353796 h -8.043955 c -1.95743,0 -3.544485,1.586837 -3.544485,3.544487 V 44.412794 H 14.348478 c -4.5603595,0 -8.2702962,3.709934 -8.2702962,8.270295 v 35.660354 c 0,4.56036 3.7099367,8.270306 8.2702962,8.270298 h 11.278381 v 19.026749 c 0,1.95743 1.586846,3.54448 3.544488,3.54448 h 60.147747 c 1.040352,0 1.973087,-0.45084 2.621547,-1.16478 A 22.017927,22.017927 0 0 1 84.518872,112.096 H 32.716348 V 83.097253 h 53.055675 a 22.017927,22.017927 0 0 1 15.894637,-6.818704 22.017927,22.017927 0 0 1 10.74612,2.812229 V 52.683089 c 0,-4.560152 -3.70996,-8.270295 -8.2703,-8.270295 H 92.864616 V 23.898283 c 0,-1.95744 -1.586838,-3.544487 -3.544488,-3.544487 h -6.718969 v -9.564791 c 0,-3.6442793 -2.902609,-6.5995968 -6.482808,-6.5995968 z m 5.893697,37.1341658 c -1.13924,0 -2.062925,0.922269 -2.062925,2.062409 v 18.566823 c 3e-6,1.14015 0.923685,2.062678 2.062925,2.062408 1.139219,0 2.062924,-0.922258 2.062924,-2.062408 V 43.385983 c -2e-6,-1.14014 -0.923705,-2.062409 -2.062924,-2.062409 z m 10.314617,0 c -1.139441,0 -2.062924,0.922269 -2.062924,2.062409 v 18.566823 c 0,1.14015 0.923723,2.062678 2.062924,2.062408 1.139259,0 2.062922,-0.922258 2.062922,-2.062408 V 43.385983 c 0,-1.14014 -0.923663,-2.062409 -2.062922,-2.062409 z m 10.31513,0 c -1.139219,0 -2.063437,0.922269 -2.063437,2.062409 v 18.566823 c -3e-6,1.14015 0.924218,2.062678 2.063437,2.062408 1.139241,0 2.062925,-0.922258 2.062925,-2.062408 V 43.385983 c 0,-1.14014 -0.923684,-2.062409 -2.062925,-2.062409 z M 43.885693,88.462299 c -1.95744,0 -3.544487,1.587354 -3.544487,3.545004 0,1.957638 1.586838,3.544485 3.544487,3.544485 h 30.719054 c 1.95744,0 3.544488,-1.586847 3.544488,-3.544485 0,-1.95765 -1.586532,-3.545004 -3.54397,-3.545004 z m 0,11.17968 c -1.95744,0 -3.544487,1.586851 -3.544487,3.544481 0,1.95765 1.586838,3.54449 3.544487,3.54449 h 30.719054 c 1.95744,0 3.544488,-1.58684 3.544488,-3.54449 0,-1.95763 -1.586532,-3.544481 -3.54397,-3.544481 z" />
  </g>
</svg>
