<?xml version="1.0" encoding="UTF-8" standalone="no"?>
<!-- Created with Inkscape (http://www.inkscape.org/) -->

<svg
   xmlns:dc="http://purl.org/dc/elements/1.1/"
   xmlns:cc="http://creativecommons.org/ns#"
   xmlns:rdf="http://www.w3.org/1999/02/22-rdf-syntax-ns#"
   xmlns:svg="http://www.w3.org/2000/svg"
   xmlns="http://www.w3.org/2000/svg"
   xmlns:sodipodi="http://sodipodi.sourceforge.net/DTD/sodipodi-0.dtd"
   xmlns:inkscape="http://www.inkscape.org/namespaces/inkscape"
   width="210mm"
   height="297mm"
   viewBox="0 0 210 297"
   version="1.1"
   id="svg636"
   inkscape:version="0.92.3 (2405546, 2018-03-11)"
   sodipodi:docname="idcardabsent.svg">
  <defs
     id="defs630" />
  <sodipodi:namedview
     id="base"
     pagecolor="#ffffff"
     bordercolor="#666666"
     borderopacity="1.0"
     inkscape:pageopacity="0.0"
     inkscape:pageshadow="2"
     inkscape:zoom="0.35"
     inkscape:cx="11.428571"
     inkscape:cy="560"
     inkscape:document-units="mm"
     inkscape:current-layer="layer1"
     showgrid="false"
     inkscape:window-width="1920"
     inkscape:window-height="1017"
     inkscape:window-x="-8"
     inkscape:window-y="-8"
     inkscape:window-maximized="1" />
  <metadata
     id="metadata633">
    <rdf:RDF>
      <cc:Work
         rdf:about="">
        <dc:format>image/svg+xml</dc:format>
        <dc:type
           rdf:resource="http://purl.org/dc/dcmitype/StillImage" />
        <dc:title></dc:title>
      </cc:Work>
    </rdf:RDF>
  </metadata>
  <g
     inkscape:label="Layer 1"
     inkscape:groupmode="layer"
     id="layer1">
    <path
       inkscape:connector-curvature="0"
       id="rect578"
       style="fill:#000000;stroke-width:0.09785154"
       d="m 18.87892,16.216171 c 0.126215,0.289652 0.420736,0.478667 0.747565,0.478667 h 8.86546 v 19.363691 c 0,0.427553 0.362466,0.774579 0.809071,0.774579 h 12.944696 c 0.446601,0 0.809067,-0.347026 0.809067,-0.774579 v -19.36376 h 8.899438 c 0.326829,0 0.62135,-0.189016 0.747565,-0.477151 0.124618,-0.289661 0.05666,-0.622741 -0.174759,-0.844282 L 36.386626,-0.13004749 c -0.15207,-0.14560038 -0.357624,-0.22772263 -0.572806,-0.22772263 -0.215177,0 -0.420722,0.0821222 -0.572801,0.22619678 L 19.053683,15.371811 c -0.231423,0.221623 -0.300977,0.55462 -0.174763,0.84436 z M 26.758737,2.8968857 c -6.326084,0.3791018 -8.550198,1.5209799 -11.236899,2.8995597 -0.664927,0.3423515 -1.373232,0.7044416 -2.199529,1.074226 -1.009658,0.4013633 -1.502836,1.5452682 -1.101659,2.5549123 0.401336,1.0096993 1.545255,1.5029013 2.554894,1.1017283 0.05169,-0.02064 0.102348,-0.04318 0.151959,-0.06809 h -0.01173 C 15.816804,10.065833 16.58023,9.6721777 17.304151,9.2788099 18.71929,8.5656167 19.945072,7.9442944 21.871278,7.4899715 23.488512,5.9469201 25.132168,4.4298127 26.758802,2.8968857 Z M 46.381179,4.234759 c 2.152844,2.0991147 4.283862,4.2224667 6.464111,6.290461 0.203342,0.06941 0.416594,0.105762 0.631586,0.107019 1.086554,0 1.968968,-0.8772341 1.970967,-1.963806 0,-0.8421438 -0.533004,-1.5917302 -1.329628,-1.8647367 C 53.354748,6.5401463 52.630869,6.272529 51.906865,6.0166872 50.09814,5.3112994 48.252798,4.7168441 46.381179,4.234759 Z M 16.019863,13.48638 c -7.6336635,3.008034 -12.0258242,7.619305 -13.4106696,9.898539 -0.5616241,0.92818 -0.2657948,2.135767 0.6610129,2.69939 h -0.00139 c 0.9277397,0.565511 2.1384808,0.272042 2.7039913,-0.655721 0,0 0.00464,-0.0046 0.00464,-0.0055 0.9823365,-1.620568 4.1832214,-4.968565 9.7205534,-7.520695 -0.648528,-1.187714 -0.809368,-2.613261 -0.154876,-3.870106 0.157872,-0.183075 0.317001,-0.36491 0.476843,-0.546046 z m 40.211306,3.837883 c -0.199951,0.659686 -0.551648,1.27094 -1.069439,1.769438 -0.645741,0.453609 -1.342776,0.757605 -2.070374,0.958136 3.478612,1.983285 5.774051,4.055843 6.572701,5.37139 0.56386,0.929061 1.774188,1.224946 2.703249,0.661082 0.929062,-0.563813 1.224812,-1.774164 0.661013,-2.703239 -1.023321,-1.685601 -3.372624,-3.925265 -6.79715,-6.056807 z M 22.827207,20.356432 C 9.7567186,24.907531 0.37396734,37.330266 0.35690472,51.948119 c 0,1.086554 0.88094858,1.967419 1.96748808,1.967419 1.0865534,0 1.967502,-0.880865 1.967502,-1.967419 0.014099,-13.166357 8.6400012,-24.31459 20.5482422,-28.116506 0.01257,-1.15851 0.01953,-2.316537 0.0089,-3.473372 -0.673178,0.0073 -1.347622,0.0014 -2.021866,-0.0019 z m 23.956996,0.420963 v 4.3321 c 6.633457,3.222215 10.091376,8.804209 13.06745,13.609587 2.644242,4.269425 4.926352,7.956318 8.758939,9.19964 1.029763,0.346943 2.145627,-0.206542 2.492542,-1.236152 0.346943,-1.029756 -0.206569,-2.145679 -1.236151,-2.492621 -0.01336,-0.0046 -0.02699,-0.0088 -0.04035,-0.01336 l -0.0042,-0.0037 c -2.459179,-0.787031 -4.391216,-3.934789 -6.63018,-7.527386 -3.378199,-5.46026 -7.65118,-12.35877 -16.40793,-15.868015 z m 18.480771,5.609278 c -0.34813,0.0019 -0.700138,0.09618 -1.018363,0.291888 -0.925713,0.569373 -1.214781,1.781362 -0.645384,2.707075 1.464644,2.357549 2.715716,4.84115 3.738119,7.421134 0.369798,1.021721 1.497915,1.55011 2.519534,1.18027 0.960966,-0.347847 1.495686,-1.373705 1.230253,-2.360684 -1.116268,-2.890432 -2.500896,-5.670257 -4.135452,-8.302468 -0.373661,-0.607497 -1.024077,-0.940777 -1.688707,-0.937215 z M 24.790238,28.008972 C 12.425745,32.646242 5.5088877,46.089559 9.2139939,59.001784 c 0.00464,0.0096 0.00552,0.01934 0.00826,0.02894 3.2306091,11.22217 -3.6947545,14.334476 -5.9022093,15.019114 -1.0365761,0.32592 -1.6125913,1.430566 -1.2866531,2.467146 0.3259104,1.03659 1.4304865,1.612647 2.4670764,1.286737 C 10.516856,75.922914 16.360063,69.595753 13.003574,57.940655 9.994139,47.495236 15.204387,36.630189 24.812059,32.259358 c -0.03362,-1.415627 -0.03372,-2.832812 -0.0218,-4.25041 z m 21.993965,1.973429 v 3.769243 c 0.04564,0.32706 0.07386,0.665066 0.08291,1.00739 3.505178,2.654352 6.239399,6.390522 7.636701,10.901274 0.04647,0.153457 0.112727,0.300245 0.196849,0.436732 0.204528,0.338491 0.625589,1.050641 13.272021,11.312592 0.843118,0.68557 2.082618,0.557886 2.768188,-0.285408 0.685598,-0.843049 0.5579,-2.082512 -0.285329,-2.768119 C 65.859703,50.626094 59.14301,45.081898 58.15937,44.157293 v 0 C 56.142647,37.973957 51.995837,33.059566 46.784054,29.982535 Z m -21.738132,6.654977 c -6.785811,4.00593 -10.349825,12.13652 -8.288852,20.083604 3.974222,18.100162 1.003434,22.278884 -7.1496255,24.828635 -1.036576,0.325924 -1.6126329,1.43057 -1.2867226,2.467146 0.3259382,1.036589 1.4305699,1.612646 2.4671461,1.286736 11.391353,-3.541358 13.866425,-10.986159 9.837013,-29.428617 -1.691703,-6.319819 1.169636,-12.823746 6.634891,-15.952429 -0.925954,-0.4783 -1.693958,-1.214752 -2.108766,-2.221577 -0.03877,-0.354303 -0.07362,-0.708815 -0.105084,-1.063498 z m 20.668372,2.224939 c -0.303297,0.388336 -0.673814,0.727691 -1.120201,0.99791 -1.066482,0.303487 -2.146528,0.481598 -3.234863,0.581201 2.66738,1.74399 4.747328,4.41399 5.703818,7.713369 0.787014,2.683478 2.876379,6.366485 18.989491,19.119392 0.851948,0.67469 2.08938,0.531144 2.764301,-0.320776 0.674658,-0.851962 0.531182,-2.089394 -0.320808,-2.764288 C 53.870476,52.620959 51.367888,48.957649 50.817172,47.053083 49.870185,43.783038 48.0637,40.994601 45.714443,38.862317 Z m -11.777024,3.66926 c -1.045541,-0.0014 -2.10909,0.165502 -3.154821,0.51801 -4.825261,1.626468 -7.611662,6.666154 -6.423276,11.617606 3.541298,12.312016 16.494741,23.361018 28.358228,32.749478 0.851907,0.674685 2.089343,0.531181 2.76426,-0.320781 0.674704,-0.85192 0.531223,-2.089398 -0.320762,-2.764269 C 43.773612,75.320936 31.359373,64.771606 28.14061,53.581029 c -0.900762,-3.13487 0.910218,-6.406171 4.045018,-7.307002 3.134842,-0.900843 6.406166,0.910269 7.307016,4.045079 2.148414,7.476093 12.831497,16.715117 22.99514,24.757829 0.851971,0.674685 2.089366,0.531139 2.764283,-0.320781 0.674676,-0.851958 0.531195,-2.089408 -0.320795,-2.764288 -5.366942,-4.237591 -19.579569,-15.483362 -21.684825,-22.76262 -1.382781,-4.1025 -5.207256,-6.692781 -9.309028,-6.697669 z m -0.121595,7.481478 c -0.193551,-0.0014 -0.39052,0.02704 -0.585332,0.08671 -1.013503,0.310225 -1.599049,1.367672 -1.324266,2.391317 3.100698,10.789283 14.897224,19.737135 21.944497,25.084533 1.43224,1.031256 2.811144,2.134376 4.131588,3.305241 0.781504,0.754961 2.027038,0.733372 2.781935,-0.04815 0.736508,-0.762479 0.736508,-1.971361 0,-2.733655 -1.440884,-1.304209 -2.954249,-2.525956 -4.532863,-3.65956 C 49.573679,69.387185 38.430281,60.935147 35.687745,51.40507 35.429389,50.560895 34.654555,50.016774 33.815824,50.013055 Z M 2.3242583,57.850338 c -1.086558,0 -1.96750199,0.880916 -1.96750199,1.967483 0.31579986,2.372696 1.05278989,4.669972 2.17588939,6.783696 0.3338366,0.665479 1.014602,1.085821 1.7590311,1.085821 1.0865536,0 1.9675393,-0.880944 1.9673538,-1.967502 0,-0.305996 -0.071404,-0.607711 -0.208457,-0.881269 -0.839542,-1.573819 -1.4329864,-3.267076 -1.7588968,-5.020746 0,-1.086567 -0.880879,-1.967483 -1.9674185,-1.967483 z M 25.967447,69.725849 c -0.224601,-0.0014 -0.453242,0.0371 -0.676698,0.117978 -0.960965,0.347894 -1.495652,1.373789 -1.230224,2.360763 1.684144,5.260935 -1.625123,15.585752 -6.602588,17.202948 -1.036966,0.32464 -1.614479,1.428381 -1.290016,2.465333 0.324626,1.036961 1.428395,1.614404 2.465324,1.28995 0.01377,-0.0046 0.02708,-0.0088 0.0404,-0.01322 7.570339,-2.439425 11.221753,-15.589624 9.136422,-22.12546 v 0 C 27.521162,70.226006 26.769456,69.728857 25.96723,69.725894 Z m 9.802917,11.733427 c -6.689284,0 -7.723972,11.371592 -7.869744,13.649843 -0.0673,1.08435 0.757146,2.018045 1.841515,2.08553 h 0.125982 c 1.040681,0 1.902879,-0.806747 1.967423,-1.845401 0.247888,-4.052763 1.798193,-9.955051 3.934824,-9.955051 2.915666,0 4.985363,2.809511 6.645877,5.064132 0.548587,0.78207 1.14928,1.5261 1.798198,2.22717 0.781463,0.754948 2.026997,0.733127 2.781931,-0.04835 0.736508,-0.76248 0.736508,-1.971106 0,-2.733585 -0.508892,-0.561647 -0.98089,-1.155773 -1.412663,-1.778645 -1.988513,-3.689078 -5.651169,-6.176922 -9.813343,-6.665643 z" />
  </g>
</svg>
