<?xml version="1.0" encoding="UTF-8" standalone="no"?>
<!-- Created with Inkscape (http://www.inkscape.org/) -->

<svg
   xmlns:dc="http://purl.org/dc/elements/1.1/"
   xmlns:cc="http://creativecommons.org/ns#"
   xmlns:rdf="http://www.w3.org/1999/02/22-rdf-syntax-ns#"
   xmlns:svg="http://www.w3.org/2000/svg"
   xmlns="http://www.w3.org/2000/svg"
   xmlns:sodipodi="http://sodipodi.sourceforge.net/DTD/sodipodi-0.dtd"
   xmlns:inkscape="http://www.inkscape.org/namespaces/inkscape"
   width="210mm"
   height="297mm"
   viewBox="0 0 210 297"
   version="1.1"
   id="svg636"
   inkscape:version="0.92.3 (2405546, 2018-03-11)"
   sodipodi:docname="idcardabsent.svg">
  <defs
     id="defs630" />
  <sodipodi:namedview
     id="base"
     pagecolor="#ffffff"
     bordercolor="#666666"
     borderopacity="1.0"
     inkscape:pageopacity="0.0"
     inkscape:pageshadow="2"
     inkscape:zoom="0.35"
     inkscape:cx="11.428571"
     inkscape:cy="560"
     inkscape:document-units="mm"
     inkscape:current-layer="layer1"
     showgrid="false"
     inkscape:window-width="1920"
     inkscape:window-height="1017"
     inkscape:window-x="-8"
     inkscape:window-y="-8"
     inkscape:window-maximized="1" />
  <metadata
     id="metadata633">
    <rdf:RDF>
      <cc:Work
         rdf:about="">
        <dc:format>image/svg+xml</dc:format>
        <dc:type
           rdf:resource="http://purl.org/dc/dcmitype/StillImage" />
        <dc:title></dc:title>
      </cc:Work>
    </rdf:RDF>
  </metadata>
  <g
     inkscape:label="Layer 1"
     inkscape:groupmode="layer"
     id="layer1">
    <path
       inkscape:connector-curvature="0"
       id="rect578"
       style="fill:#000000;stroke-width:0.09785154"
       d="m 28.836839,13.675714 c 0.09824,0.225498 0.327503,0.372611 0.581913,0.372611 h 6.901069 v 15.073114 c 0,0.332826 0.282154,0.602956 0.629796,0.602956 H 47.02605 c 0.347643,0 0.629796,-0.27013 0.629796,-0.602956 V 14.048257 h 6.92752 c 0.25441,0 0.483668,-0.147114 0.581913,-0.371392 0.09701,-0.225498 0.04413,-0.484749 -0.136032,-0.657212 L 42.465211,0.95145422 C 42.346832,0.8381291 42.186837,0.77421385 42.019335,0.77421385 c -0.167501,0 -0.327509,0.0639156 -0.445887,0.17605428 L 28.972871,13.018468 c -0.180136,0.172495 -0.234277,0.431714 -0.136032,0.657246 z M 9.4392644,20.586423 c -4.4922528,0 -8.1353516,3.578322 -8.1353516,7.991571 v 39.96256 c 0,4.412975 3.6430988,7.991771 8.1353516,7.991771 H 74.541327 c 4.495098,0 8.138338,-3.578796 8.138338,-7.991771 v -39.96256 c 0,-4.413249 -3.64324,-7.991571 -8.138338,-7.991571 H 50.780444 v 6.614011 c 0.251699,1.819508 -0.114865,4.040263 -1.809054,5.068359 -3.343812,0.995222 -6.809556,0.55446 -10.202024,0.596482 -1.86184,0.103091 -4.443614,-0.422496 -5.253285,-2.377527 -0.382602,-3.285688 -0.316035,-6.595337 -0.271106,-9.901325 z m 14.7441206,7.629058 c 3.593457,0 7.621344,2.647183 7.621344,8.13797 v 4.067681 c 0,5.493363 -5.582508,8.13814 -7.621344,8.13814 -1.931991,0 -7.621351,-2.644777 -7.621362,-8.13814 v -4.067681 c 0,-5.490787 4.147241,-8.13797 7.621362,-8.13797 z m 25.437202,5.085846 h 22.886998 c 1.405447,0 2.542667,1.138709 2.542667,2.543008 2.71e-4,1.404366 -1.13722,2.54321 -2.542667,2.54321 H 49.620587 c -1.405448,0 -2.542674,-1.138844 -2.542674,-2.54321 0,-1.404299 1.137226,-2.543008 2.542674,-2.543008 z m 0,12.714938 h 22.886998 c 1.405447,0 2.542667,1.138709 2.542667,2.543007 2.71e-4,1.404333 -1.13722,2.543212 -2.542667,2.543212 H 49.620587 c -1.405448,0 -2.542674,-1.138608 -2.542674,-2.543212 0,-1.404298 1.137226,-2.543007 2.542674,-2.543007 z m -33.602328,5.089371 c 1.624264,0.0305 3.528696,1.680019 5.631908,3.532809 l 0.742711,0.742919 c 0.02469,0.02475 0.844198,0.806965 1.820274,0.806965 0.990574,0 1.785419,-0.815912 1.785419,-0.815912 l 0.735188,-0.735362 c 2.692117,-2.371292 4.728307,-4.370651 6.928541,-3.146507 4.75823,2.647488 5.786025,6.988686 5.786025,9.782239 0,0.04488 0.0052,2.503427 0,2.54321 v 0 c 0,3.690358 -1.241419,5.085883 -5.085513,5.085883 h -20.34153 c -3.844366,0 -5.0860322,-1.395525 -5.0860322,-5.085883 -0.00518,-0.0398 0,-2.498276 0,-2.543175 0,-2.793824 1.2740472,-6.732657 5.7861912,-9.782274 0.40907,-0.276467 0.842029,-0.394843 1.296818,-0.386302 z m 33.602328,7.625534 h 22.886998 c 1.405447,0 2.542667,1.138743 2.542667,2.543042 2.71e-4,1.4043 -1.13722,2.543175 -2.542667,2.543175 H 49.620587 c -1.405448,0 -2.542674,-1.138875 -2.542674,-2.543175 0,-1.404299 1.137226,-2.543042 2.542674,-2.543042 z" />
  </g>
</svg>
