<?xml version="1.0" encoding="UTF-8" standalone="no"?>
<!-- Created with Inkscape (http://www.inkscape.org/) -->

<svg
   xmlns:dc="http://purl.org/dc/elements/1.1/"
   xmlns:cc="http://creativecommons.org/ns#"
   xmlns:rdf="http://www.w3.org/1999/02/22-rdf-syntax-ns#"
   xmlns:svg="http://www.w3.org/2000/svg"
   xmlns="http://www.w3.org/2000/svg"
   xmlns:sodipodi="http://sodipodi.sourceforge.net/DTD/sodipodi-0.dtd"
   xmlns:inkscape="http://www.inkscape.org/namespaces/inkscape"
   width="210mm"
   height="297mm"
   viewBox="0 0 210 297"
   version="1.1"
   id="svg5054"
   inkscape:version="0.92.3 (2405546, 2018-03-11)"
   sodipodi:docname="A+.svg">
  <defs
     id="defs5048" />
  <sodipodi:namedview
     id="base"
     pagecolor="#ffffff"
     bordercolor="#666666"
     borderopacity="1.0"
     inkscape:pageopacity="0.0"
     inkscape:pageshadow="2"
     inkscape:zoom="0.35"
     inkscape:cx="-111.42857"
     inkscape:cy="560"
     inkscape:document-units="mm"
     inkscape:current-layer="layer1"
     showgrid="false"
     inkscape:window-width="1920"
     inkscape:window-height="1017"
     inkscape:window-x="-8"
     inkscape:window-y="-8"
     inkscape:window-maximized="1" />
  <metadata
     id="metadata5051">
    <rdf:RDF>
      <cc:Work
         rdf:about="">
        <dc:format>image/svg+xml</dc:format>
        <dc:type
           rdf:resource="http://purl.org/dc/dcmitype/StillImage" />
        <dc:title></dc:title>
      </cc:Work>
    </rdf:RDF>
  </metadata>
  <g
     inkscape:label="Layer 1"
     inkscape:groupmode="layer"
     id="layer1">
    <path
       inkscape:connector-curvature="0"
       style="fill:#000000;stroke-width:0.56986934"
       d="m 6.7011723,-0.89702762 c -3.6342964,0 -6.5592504,2.92495402 -6.5592504,6.55922502 V 38.91805 c 0,3.634271 2.924954,6.560522 6.5592504,6.560522 H 204.20956 c 3.63428,0 6.55923,-2.926251 6.55923,-6.560522 V 5.6621974 c 0,-3.634271 -2.92495,-6.55922502 -6.55923,-6.55922502 z M 60.983568,8.9418098 c 0.478969,0 0.881766,0.1634266 1.208339,0.4899239 0.326574,0.3265735 0.489899,0.7182893 0.489899,1.1755023 0,0.315695 -0.130131,0.691474 -0.391385,1.126906 -1.17568,1.926832 -2.03658,3.733191 -2.580869,5.4205 -0.533411,1.687335 -0.799875,3.396731 -0.799875,5.127603 0,1.741751 0.266464,3.456027 0.799875,5.143361 0.544289,1.687309 1.405189,3.49499 2.580869,5.421796 0.261254,0.424553 0.391385,0.800333 0.391385,1.126932 0,0.457187 -0.163427,0.848928 -0.489899,1.175502 -0.326573,0.326573 -0.72937,0.489898 -1.208339,0.489898 -0.402772,0 -0.756439,-0.131402 -1.061256,-0.392706 -0.435432,-0.381016 -1.012609,-1.235714 -1.731076,-2.563789 -1.034162,-1.926832 -1.741497,-3.515857 -2.122512,-4.767735 -0.598706,-1.915927 -0.898363,-3.793528 -0.898363,-5.633259 0,-1.90505 0.315593,-3.83178 0.946984,-5.780369 0.468091,-1.436933 1.192658,-3.037039 2.172379,-4.800572 0.707588,-1.262756 1.22946,-2.0364524 1.566912,-2.3194879 0.337477,-0.2939136 0.713257,-0.4400063 1.126932,-0.4400063 z m 51.157772,0 c 0.40277,0 0.75773,0.1301313 1.06255,0.3914104 0.43543,0.3701116 1.01131,1.2248348 1.72978,2.5637888 1.03416,1.926807 1.74279,3.510977 2.12381,4.751977 0.59873,1.926806 0.89707,3.804432 0.89707,5.633259 0,1.905025 -0.3156,3.836661 -0.94699,5.796126 -0.46809,1.436934 -1.19136,3.03216 -2.17108,4.784789 -0.70759,1.262782 -1.23076,2.041358 -1.56824,2.335272 -0.33745,0.293913 -0.71325,0.441302 -1.1269,0.441302 -0.479,0 -0.88045,-0.163426 -1.20704,-0.489898 -0.32658,-0.326574 -0.4899,-0.718315 -0.4899,-1.175502 0,-0.326599 0.13013,-0.702379 0.39138,-1.126932 1.17571,-1.926806 2.03041,-3.734487 2.56382,-5.421796 0.54429,-1.687334 0.81563,-3.40161 0.81563,-5.143361 0,-1.730872 -0.27134,-3.440268 -0.81563,-5.127603 -0.53341,-1.687309 -1.38811,-3.493668 -2.56382,-5.4205 -0.26125,-0.435432 -0.39138,-0.811211 -0.39138,-1.126906 0,-0.457213 0.16342,-0.8489288 0.4899,-1.1755023 0.32659,-0.326599 0.72804,-0.4899239 1.20704,-0.4899239 z m 37.11597,0.2942187 h 3.91927 v 7.1344965 c 0.69668,-0.41365 1.39914,-0.718187 2.1067,-0.914121 0.71849,-0.206889 1.44174,-0.309977 2.17111,-0.309977 1.15389,0 2.18299,0.196468 3.08653,0.588412 0.90353,0.391893 1.64892,1.012025 2.23676,1.861106 0.59873,0.838228 0.89838,1.899204 0.89838,3.183742 v 6.287346 c 0.8491,0 1.40415,0.08108 1.66542,0.24425 0.52252,0.337477 0.78411,0.816396 0.78411,1.436883 0,0.489873 -0.16953,0.89267 -0.50698,1.208365 -0.33746,0.304792 -0.90846,0.457061 -1.71402,0.457061 h -3.82074 c -0.79467,0 -1.36698,-0.152243 -1.71534,-0.457061 -0.33745,-0.315695 -0.50566,-0.723372 -0.50566,-1.224123 0,-0.609609 0.26159,-1.083648 0.78412,-1.421125 0.27215,-0.174101 0.8272,-0.255179 1.66541,-0.24425 V 21.00823 c 0,-0.859985 -0.19651,-1.46418 -0.58841,-1.812535 -0.51163,-0.468091 -1.26808,-0.701362 -2.26958,-0.701362 -0.74025,0 -1.39843,0.146144 -1.97541,0.440006 -0.56604,0.283036 -1.33356,0.904463 -2.3024,1.862428 v 6.270266 c 0.85998,0 1.41502,0.08108 1.6654,0.24425 0.53341,0.337477 0.79987,0.816396 0.79987,1.436883 0,0.489873 -0.17435,0.89267 -0.52273,1.208365 -0.33746,0.304792 -0.90846,0.457061 -1.71403,0.457061 h -3.80496 c -0.80557,0 -1.38275,-0.152243 -1.7311,-0.457061 -0.33746,-0.315695 -0.50566,-0.723372 -0.50566,-1.224123 0,-0.609609 0.26646,-1.083648 0.79987,-1.421125 0.26126,-0.174101 0.81632,-0.255179 1.6654,-0.24425 v -14.48442 h -0.57133 c -0.80554,0 -1.38272,-0.152244 -1.73107,-0.457061 -0.33748,-0.315695 -0.50569,-0.723347 -0.50569,-1.224098 0,-0.489873 0.16826,-0.88779 0.50569,-1.1926069 0.34835,-0.3156699 0.92553,-0.4728186 1.73107,-0.4728186 z m -118.335332,1.3712075 7.234332,0.01525 6.661652,16.44404 c 0.783787,0 1.300779,0.08718 1.551155,0.261381 0.500751,0.359208 0.751279,0.83195 0.751279,1.419803 0,0.489873 -0.168256,0.892644 -0.505657,1.20834 -0.337477,0.304817 -0.909775,0.457086 -1.715343,0.457086 h -4.506354 c -0.805542,0 -1.38272,-0.152244 -1.731076,-0.457086 -0.337477,-0.315696 -0.505656,-0.723347 -0.505656,-1.224098 0,-0.489873 0.168256,-0.88779 0.505656,-1.192582 0.348356,-0.315721 0.925534,-0.472844 1.731076,-0.472844 h 0.815634 l -0.79985,-2.041052 h -8.131399 l -0.816954,2.041052 h 0.816954 c 0.805543,0 1.376545,0.157072 1.714022,0.472844 0.34833,0.304792 0.522736,0.707589 0.522736,1.20834 0,0.489873 -0.174355,0.892644 -0.522736,1.20834 -0.337477,0.304817 -0.908479,0.457086 -1.714022,0.457086 h -4.506353 c -0.805569,0 -1.377866,-0.152244 -1.715318,-0.457086 -0.348355,-0.315696 -0.522762,-0.723347 -0.522762,-1.224098 0,-0.500752 0.18071,-0.90975 0.539816,-1.22542 0.359234,-0.315695 0.952373,-0.461788 1.779697,-0.440006 L 33.11014,13.970417 h -2.188162 c -0.805568,0 -1.382746,-0.152244 -1.731101,-0.457061 -0.337452,-0.315695 -0.505657,-0.724668 -0.505657,-1.225419 0,-0.500751 0.168256,-0.903548 0.505657,-1.20834 0.348355,-0.315696 0.925533,-0.472844 1.731101,-0.472844 z m 40.4468,0 10.108098,0.01525 c 0.805568,0 1.376544,0.152244 1.714021,0.457086 0.348356,0.304792 0.522737,0.707589 0.522737,1.20834 0,0.500751 -0.174356,0.909724 -0.522737,1.22542 -0.337477,0.304792 -0.908453,0.45706 -1.714021,0.45706 h -3.380744 v 13.096134 h 3.380744 c 0.805568,0 1.376544,0.157072 1.714021,0.472844 0.348356,0.304792 0.522737,0.707589 0.522737,1.20834 0,0.489873 -0.174356,0.892644 -0.522737,1.20834 -0.337477,0.304817 -0.908453,0.457086 -1.714021,0.457086 H 71.368778 c -0.805543,0 -1.38272,-0.152244 -1.731076,-0.457086 -0.337477,-0.315696 -0.505681,-0.723347 -0.505681,-1.224098 0,-0.489873 0.168255,-0.88779 0.505681,-1.192582 0.348356,-0.315721 0.925533,-0.472844 1.731076,-0.472844 h 3.379448 V 13.970391 h -3.379448 c -0.805543,0 -1.38272,-0.152243 -1.731076,-0.45706 -0.337477,-0.315696 -0.505681,-0.724669 -0.505681,-1.22542 0,-0.500751 0.168255,-0.903548 0.505681,-1.20834 0.348356,-0.315695 0.925533,-0.472844 1.731076,-0.472844 z m 20.052031,0 10.106751,0.01525 c 0.80557,0 1.37789,0.152244 1.71534,0.457086 0.34836,0.304792 0.52274,0.707589 0.52274,1.20834 0,0.500751 -0.17436,0.909724 -0.52274,1.22542 -0.33745,0.304792 -0.90977,0.45706 -1.71534,0.45706 h -3.379423 v 13.096134 h 3.379423 c 0.80557,0 1.37789,0.157072 1.71534,0.472844 0.34836,0.304792 0.52274,0.707589 0.52274,1.20834 0,0.489873 -0.17436,0.892644 -0.52274,1.20834 -0.33745,0.304817 -0.90977,0.457086 -1.71534,0.457086 H 91.420809 c -0.805568,0 -1.382746,-0.152244 -1.731101,-0.457086 -0.337477,-0.315696 -0.505657,-0.723347 -0.505657,-1.224098 0,-0.489873 0.168256,-0.88779 0.505657,-1.192582 0.348355,-0.315721 0.925533,-0.472844 1.731101,-0.472844 h 3.379422 V 13.970391 h -3.379422 c -0.805568,0 -1.382746,-0.152243 -1.731101,-0.45706 -0.337477,-0.315696 -0.505657,-0.724669 -0.505657,-1.22542 0,-0.500751 0.168256,-0.903548 0.505657,-1.20834 0.348355,-0.315695 0.925533,-0.472844 1.731101,-0.472844 z m 37.834411,0 7.5758,0.01525 c 2.36227,0 4.19074,0.588234 5.48618,1.763914 1.30632,1.164802 1.95962,2.585647 1.95962,4.262078 0,1.045041 -0.30451,1.996702 -0.91415,2.856686 -0.60961,0.849107 -1.52937,1.606867 -2.75949,2.270892 0.70759,0.620513 1.46403,1.415025 2.26959,2.383867 0.50075,0.620487 1.17619,1.589406 2.0253,2.906603 0.8491,0 1.40902,0.08718 1.68118,0.261381 0.48988,0.337451 0.73552,0.810194 0.73552,1.419803 0,0.489873 -0.16952,0.892644 -0.50697,1.20834 -0.33748,0.304817 -0.90846,0.457086 -1.71403,0.457086 h -1.91102 c -2.71062,-4.19109 -4.95782,-6.710959 -6.74311,-7.560066 h -3.31509 v 4.213456 h 1.20836 c 0.80554,0 1.37654,0.157072 1.71402,0.472844 0.34833,0.304792 0.52274,0.707589 0.52274,1.20834 0,0.489873 -0.17436,0.892644 -0.52274,1.20834 -0.33748,0.304817 -0.90848,0.457086 -1.71402,0.457086 h -5.07769 c -0.80556,0 -1.38274,-0.152244 -1.7311,-0.457086 -0.33745,-0.315696 -0.50697,-0.723347 -0.50697,-1.224098 0,-0.489873 0.17435,-0.88779 0.52273,-1.192582 0.34836,-0.315695 0.92068,-0.472844 1.71534,-0.472844 h 0.52142 V 13.970391 h -0.52142 c -0.80556,0 -1.38274,-0.152243 -1.7311,-0.45706 -0.33745,-0.315696 -0.50697,-0.724669 -0.50697,-1.22542 0,-0.500751 0.16952,-0.903548 0.50697,-1.20834 0.34836,-0.315695 0.92554,-0.472844 1.7311,-0.472844 z m 47.43553,0.799875 c 0.50076,0 0.90354,0.174355 1.20835,0.522736 0.3157,0.337477 0.47283,0.908453 0.47283,1.714022 l -0.0158,5.584664 h 4.78348 c 0.80557,0 1.37787,0.152243 1.71533,0.457086 0.34836,0.304791 0.52143,0.707588 0.52143,1.208339 0,0.500752 -0.17308,0.909725 -0.52143,1.22542 -0.33746,0.304792 -0.90976,0.457061 -1.71533,0.457061 h -4.78348 v 5.600446 c 0,0.805568 -0.15226,1.382746 -0.45707,1.731076 -0.3048,0.337477 -0.70759,0.505682 -1.20834,0.505682 -0.50076,0 -0.90974,-0.168256 -1.22543,-0.505682 -0.30478,-0.34833 -0.45704,-0.925508 -0.45704,-1.731076 v -5.600446 h -4.7848 c -0.80556,0 -1.38274,-0.152244 -1.73109,-0.457061 -0.33746,-0.315695 -0.50567,-0.724668 -0.50567,-1.22542 0,-0.500751 0.16821,-0.903548 0.50567,-1.208339 0.34835,-0.315696 0.92553,-0.467965 1.73109,-0.457086 h 4.7848 v -5.584664 c 0,-0.794665 0.15227,-1.365667 0.45706,-1.714022 0.3157,-0.348355 0.72467,-0.522736 1.22543,-0.522736 z m -43.5662,2.563789 v 5.534771 h 2.61241 c 0.96884,0 1.83462,-0.146143 2.59662,-0.440006 1.02329,-0.391893 1.70848,-0.805746 2.05684,-1.241177 0.35923,-0.435432 0.53979,-0.865221 0.53979,-1.289774 0,-0.631391 -0.33771,-1.213448 -1.01264,-1.746859 -0.67492,-0.54429 -1.65975,-0.816955 -2.9552,-0.816955 z m -96.797855,1.077014 -2.710898,6.630161 h 5.406038 z"
       id="rect276-2-6-7-0-2-7-5" />
  </g>
</svg>
