<?xml version="1.0" encoding="UTF-8" standalone="no"?>
<!-- Created with Inkscape (http://www.inkscape.org/) -->

<svg
   xmlns:dc="http://purl.org/dc/elements/1.1/"
   xmlns:cc="http://creativecommons.org/ns#"
   xmlns:rdf="http://www.w3.org/1999/02/22-rdf-syntax-ns#"
   xmlns:svg="http://www.w3.org/2000/svg"
   xmlns="http://www.w3.org/2000/svg"
   xmlns:sodipodi="http://sodipodi.sourceforge.net/DTD/sodipodi-0.dtd"
   xmlns:inkscape="http://www.inkscape.org/namespaces/inkscape"
   width="210mm"
   height="297mm"
   viewBox="0 0 210 297"
   version="1.1"
   id="svg5031"
   inkscape:version="0.92.3 (2405546, 2018-03-11)"
   sodipodi:docname="A-.svg">
  <defs
     id="defs5025" />
  <sodipodi:namedview
     id="base"
     pagecolor="#ffffff"
     bordercolor="#666666"
     borderopacity="1.0"
     inkscape:pageopacity="0.0"
     inkscape:pageshadow="2"
     inkscape:zoom="0.35"
     inkscape:cx="-111.42857"
     inkscape:cy="560"
     inkscape:document-units="mm"
     inkscape:current-layer="layer1"
     showgrid="false"
     inkscape:window-width="1920"
     inkscape:window-height="1017"
     inkscape:window-x="-8"
     inkscape:window-y="-8"
     inkscape:window-maximized="1" />
  <metadata
     id="metadata5028">
    <rdf:RDF>
      <cc:Work
         rdf:about="">
        <dc:format>image/svg+xml</dc:format>
        <dc:type
           rdf:resource="http://purl.org/dc/dcmitype/StillImage" />
        <dc:title></dc:title>
      </cc:Work>
    </rdf:RDF>
  </metadata>
  <g
     inkscape:label="Layer 1"
     inkscape:groupmode="layer"
     id="layer1">
    <path
       inkscape:connector-curvature="0"
       style="fill:#000000;stroke-width:0.56986934"
       d="m 6.7011561,0.61462014 c -3.6342787,0 -6.55923034,2.92626036 -6.55923034,6.56054156 V 40.431001 c 0,3.634281 2.92495164,6.560542 6.55923034,6.560542 H 204.20956 c 3.63428,0 6.55923,-2.926261 6.55923,-6.560542 V 7.1751617 c 0,-3.6342812 -2.92495,-6.56054156 -6.55923,-6.56054156 z M 61.824148,10.454775 c 0.478982,0 0.881766,0.163324 1.208345,0.489908 0.326578,0.326579 0.489908,0.718302 0.489908,1.175515 0,0.315685 -0.130131,0.691475 -0.391397,1.126913 -1.175683,1.926808 -2.035263,3.733176 -2.579563,5.420493 -0.533411,1.687319 -0.801188,3.396731 -0.801188,5.127598 0,1.741743 0.267777,3.456035 0.801188,5.143354 0.5443,1.68732 1.40388,3.495 2.579563,5.421807 0.261261,0.424551 0.391397,0.799024 0.391397,1.125602 0,0.457208 -0.163325,0.850248 -0.489908,1.176826 -0.326579,0.326579 -0.729363,0.489909 -1.208345,0.489909 -0.402777,0 -0.756444,-0.131452 -1.061248,-0.392716 -0.43544,-0.381008 -1.012622,-1.235714 -1.731084,-2.5638 -1.034175,-1.926807 -1.741487,-3.515844 -2.122497,-4.767717 -0.598721,-1.915925 -0.898375,-3.793549 -0.898375,-5.633265 0,-1.905037 0.315591,-3.83179 0.946976,-5.780371 0.468101,-1.436939 1.192669,-3.037032 2.172399,-4.800555 0.707581,-1.262769 1.229448,-2.036467 1.566915,-2.319503 0.337459,-0.293918 0.713249,-0.439998 1.126914,-0.439998 z m 51.159082,0 c 0.40278,0 0.75645,0.130131 1.06125,0.391405 0.43544,0.370121 1.01261,1.224827 1.73109,2.563799 1.03416,1.926806 1.74148,3.510961 2.12248,4.751953 0.59874,1.926814 0.89838,3.804431 0.89838,5.63327 0,1.905033 -0.31558,3.836656 -0.94697,5.79613 -0.46809,1.436939 -1.19266,3.032162 -2.1724,4.784791 -0.70758,1.26277 -1.22944,2.041343 -1.56691,2.335267 -0.33746,0.293924 -0.71325,0.44131 -1.12692,0.44131 -0.47897,0 -0.88176,-0.163324 -1.20834,-0.489909 -0.32658,-0.326578 -0.48991,-0.719618 -0.48991,-1.176826 0,-0.326578 0.13013,-0.701051 0.3914,-1.125602 1.17567,-1.926807 2.03038,-3.734487 2.5638,-5.421807 0.54429,-1.687319 0.81694,-3.401611 0.81695,-5.143354 0,-1.730859 -0.27266,-3.440279 -0.81695,-5.127598 -0.53342,-1.687317 -1.38813,-3.493685 -2.5638,-5.420493 -0.26126,-0.435438 -0.3914,-0.811228 -0.3914,-1.126913 0,-0.457213 0.16333,-0.848936 0.48991,-1.175515 0.32658,-0.326574 0.72937,-0.489908 1.20834,-0.489908 z m 37.11467,0.292893 h 3.91925 v 7.135822 c 0.6967,-0.413665 1.39914,-0.718193 2.10673,-0.914145 0.71846,-0.206837 1.44304,-0.309963 2.1724,-0.309963 1.15391,0 2.1817,0.195197 3.08523,0.587095 0.90353,0.391896 1.64892,1.013336 2.23676,1.862432 0.59873,0.838221 0.89837,1.899202 0.89837,3.183737 v 6.28735 c 0.8491,0 1.40416,0.081 1.66542,0.244302 0.52253,0.337461 0.78412,0.816388 0.78412,1.436885 0,0.489867 -0.1682,0.892659 -0.50567,1.208344 -0.33746,0.30481 -0.90977,0.457072 -1.71533,0.457072 h -3.82074 c -0.79467,0 -1.36567,-0.152269 -1.71402,-0.457072 -0.33746,-0.315685 -0.50698,-0.723351 -0.50698,-1.224108 0,-0.609609 0.26159,-1.08366 0.78411,-1.421121 0.27215,-0.174178 0.82721,-0.255182 1.66542,-0.244302 V 22.52118 c 0,-0.859985 -0.19522,-1.464175 -0.5871,-1.812521 -0.51164,-0.468096 -1.26808,-0.701369 -2.26959,-0.701369 -0.74024,0 -1.39975,0.146092 -1.9767,0.439999 -0.56606,0.283035 -1.33358,0.904468 -2.30243,1.86243 v 6.270277 c 0.85999,0 1.41505,0.081 1.66542,0.244302 0.53341,0.337461 0.80119,0.816388 0.80119,1.436885 0,0.489867 -0.17439,0.892659 -0.52274,1.208344 -0.33747,0.30481 -0.90977,0.457072 -1.71533,0.457072 h -3.80366 c -0.80558,0 -1.38275,-0.152269 -1.7311,-0.457072 -0.33745,-0.315685 -0.50698,-0.723351 -0.50698,-1.224108 0,-0.609609 0.26777,-1.08366 0.80119,-1.421121 0.26125,-0.174178 0.81632,-0.255182 1.66542,-0.244302 V 14.095582 h -0.57266 c -0.80556,0 -1.38143,-0.152269 -1.72977,-0.45707 -0.33747,-0.315694 -0.50699,-0.72336 -0.50699,-1.224109 0,-0.489867 0.16952,-0.887785 0.50699,-1.192588 0.34834,-0.315692 0.92421,-0.474147 1.72977,-0.474147 z m -118.33535,1.37253 7.234332,0.01576 6.661673,16.444044 c 0.783782,0 1.300771,0.08589 1.551151,0.260056 0.500749,0.359236 0.751272,0.83328 0.751272,1.421123 0,0.489867 -0.168205,0.892659 -0.505664,1.208344 -0.337467,0.304813 -0.909767,0.457074 -1.715329,0.457074 h -4.506348 c -0.805561,0 -1.382743,-0.152269 -1.731091,-0.457074 -0.337467,-0.315685 -0.505664,-0.723351 -0.505664,-1.224108 0,-0.489862 0.168204,-0.887777 0.505664,-1.192587 0.348348,-0.315685 0.92553,-0.472828 1.731091,-0.472828 h 0.816945 l -0.79987,-2.042395 h -8.132708 l -0.815633,2.042372 h 0.815633 c 0.805561,0 1.377861,0.157149 1.715329,0.472829 0.348347,0.304809 0.521427,0.707601 0.521427,1.20835 0,0.489868 -0.173085,0.89266 -0.521427,1.208345 -0.337468,0.304812 -0.909768,0.457073 -1.715329,0.457073 h -4.506348 c -0.805561,0 -1.37655,-0.152269 -1.714017,-0.457073 -0.348348,-0.315685 -0.522747,-0.723352 -0.522739,-1.224108 -8e-6,-0.500749 0.179261,-0.909732 0.538502,-1.225417 0.359233,-0.315701 0.952354,-0.461775 1.779684,-0.439999 l 5.257626,-13.09611 H 31.76255 c -0.805554,0 -1.381424,-0.152269 -1.729772,-0.45707 -0.337467,-0.315694 -0.506984,-0.724669 -0.506984,-1.225421 0,-0.500756 0.169527,-0.90354 0.506984,-1.208349 0.348348,-0.315685 0.924218,-0.472829 1.729772,-0.472829 z m 40.446824,0 10.108093,0.01576 c 0.805552,0 1.376549,0.15227 1.714016,0.457074 0.348348,0.30481 0.522739,0.707593 0.522739,1.20835 0,0.500749 -0.174381,0.909726 -0.522739,1.22542 -0.337467,0.304804 -0.908464,0.457071 -1.714016,0.457071 h -3.380752 v 13.096129 h 3.380752 c 0.805552,0 1.376549,0.157148 1.714016,0.472828 0.348348,0.30481 0.522739,0.707602 0.522739,1.208351 0,0.489867 -0.174381,0.892659 -0.522739,1.208344 -0.337467,0.304813 -0.908464,0.457074 -1.714016,0.457074 H 72.209374 c -0.80556,0 -1.382743,-0.152269 -1.731091,-0.457074 -0.337467,-0.315685 -0.505664,-0.723351 -0.505664,-1.224108 0,-0.489862 0.168205,-0.887777 0.505664,-1.192587 0.348348,-0.315685 0.925531,-0.472828 1.731091,-0.472828 h 3.380744 v -13.09611 h -3.380744 c -0.80556,0 -1.382743,-0.152268 -1.731091,-0.45707 -0.337467,-0.315693 -0.505664,-0.724669 -0.505664,-1.225421 0,-0.500755 0.168205,-0.903539 0.505664,-1.208349 0.348348,-0.315685 0.925531,-0.472829 1.731091,-0.472829 z m 20.052009,0 10.108087,0.01576 c 0.80557,0 1.37656,0.15227 1.71402,0.457074 0.34836,0.30481 0.52274,0.707593 0.52274,1.20835 0,0.500749 -0.17438,0.909726 -0.52274,1.22542 -0.33746,0.304804 -0.90845,0.457071 -1.71402,0.457071 h -3.380746 v 13.096129 h 3.380746 c 0.80557,0 1.37656,0.157148 1.71402,0.472828 0.34836,0.30481 0.52274,0.707602 0.52274,1.208351 0,0.489867 -0.17438,0.892659 -0.52274,1.208344 -0.33746,0.304813 -0.90845,0.457074 -1.71402,0.457074 H 92.261383 c -0.805561,0 -1.382744,-0.152269 -1.731091,-0.457074 -0.337468,-0.315685 -0.505665,-0.723351 -0.505665,-1.224108 0,-0.489862 0.168205,-0.887777 0.505665,-1.192587 0.348347,-0.315685 0.92553,-0.472828 1.731091,-0.472828 h 3.380744 v -13.09611 h -3.380744 c -0.805561,0 -1.382744,-0.152268 -1.731091,-0.45707 -0.337468,-0.315693 -0.505665,-0.724669 -0.505665,-1.225421 0,-0.500755 0.168205,-0.903539 0.505665,-1.208349 0.348347,-0.315685 0.92553,-0.472829 1.731091,-0.472829 z m 37.834427,0 7.57581,0.01576 c 2.36225,0 4.19204,0.588245 5.48748,1.763927 1.30631,1.164797 1.95962,2.585622 1.95962,4.262053 0,1.045055 -0.30584,1.996704 -0.91546,2.856694 -0.6096,0.849098 -1.52938,1.605547 -2.75949,2.269593 0.70758,0.620497 1.46404,1.416326 2.26959,2.38517 0.50075,0.620503 1.17619,1.589409 2.0253,2.906607 0.8491,0 1.41034,0.08589 1.68249,0.260056 0.48987,0.337462 0.7342,0.811514 0.7342,1.421123 0,0.489867 -0.1682,0.892659 -0.50567,1.208344 -0.33745,0.304813 -0.90976,0.457074 -1.71533,0.457074 h -1.90971 c -2.71059,-4.191111 -4.95912,-6.710978 -6.74442,-7.560082 h -3.31508 v 4.213462 h 1.20836 c 0.80555,0 1.37785,0.157149 1.71532,0.472829 0.34835,0.304809 0.52275,0.707601 0.52275,1.20835 0,0.489868 -0.17441,0.89266 -0.52275,1.208345 -0.33747,0.304812 -0.90977,0.457073 -1.71532,0.457073 h -5.07769 c -0.80557,0 -1.38275,-0.152269 -1.73109,-0.457073 -0.33747,-0.315685 -0.50568,-0.723352 -0.50568,-1.224108 0,-0.489864 0.17309,-0.887778 0.52144,-1.192587 0.34835,-0.315685 0.92065,-0.472829 1.71533,-0.472829 h 0.52274 V 15.483867 h -0.52274 c -0.80557,0 -1.38275,-0.152269 -1.73109,-0.457071 -0.33747,-0.315693 -0.50568,-0.724668 -0.50568,-1.22542 0,-0.500756 0.1682,-0.90354 0.50568,-1.208349 0.34834,-0.315685 0.92552,-0.472829 1.73109,-0.472829 z m 3.86933,3.363669 v 5.534762 h 2.61241 c 0.96884,0 1.83461,-0.146068 2.59663,-0.439999 1.02327,-0.39189 1.70977,-0.805744 2.05813,-1.241183 0.35923,-0.435438 0.53849,-0.865228 0.53849,-1.289781 0,-0.631383 -0.33771,-1.214753 -1.01264,-1.748163 -0.67493,-0.5443 -1.65977,-0.815636 -2.9552,-0.815636 z m -96.79786,1.077006 -2.709585,6.630154 h 5.404733 z m 133.3911,4.343489 h 13.97743 v 3.0537 h -13.97743 z"
       id="rect276-2-6-7-0-2-2" />
  </g>
</svg>
