<?xml version="1.0" encoding="UTF-8" standalone="no"?>
<!-- Created with Inkscape (http://www.inkscape.org/) -->

<svg
   xmlns:dc="http://purl.org/dc/elements/1.1/"
   xmlns:cc="http://creativecommons.org/ns#"
   xmlns:rdf="http://www.w3.org/1999/02/22-rdf-syntax-ns#"
   xmlns:svg="http://www.w3.org/2000/svg"
   xmlns="http://www.w3.org/2000/svg"
   xmlns:sodipodi="http://sodipodi.sourceforge.net/DTD/sodipodi-0.dtd"
   xmlns:inkscape="http://www.inkscape.org/namespaces/inkscape"
   width="210mm"
   height="297mm"
   viewBox="0 0 210 297"
   version="1.1"
   id="svg4906"
   inkscape:version="0.92.3 (2405546, 2018-03-11)"
   sodipodi:docname="AB+.svg">
  <defs
     id="defs4900" />
  <sodipodi:namedview
     id="base"
     pagecolor="#ffffff"
     bordercolor="#666666"
     borderopacity="1.0"
     inkscape:pageopacity="0.0"
     inkscape:pageshadow="2"
     inkscape:zoom="0.7"
     inkscape:cx="269.34297"
     inkscape:cy="632.93331"
     inkscape:document-units="mm"
     inkscape:current-layer="layer1"
     showgrid="false"
     inkscape:window-width="1920"
     inkscape:window-height="1017"
     inkscape:window-x="-8"
     inkscape:window-y="-8"
     inkscape:window-maximized="1" />
  <metadata
     id="metadata4903">
    <rdf:RDF>
      <cc:Work
         rdf:about="">
        <dc:format>image/svg+xml</dc:format>
        <dc:type
           rdf:resource="http://purl.org/dc/dcmitype/StillImage" />
        <dc:title></dc:title>
      </cc:Work>
    </rdf:RDF>
  </metadata>
  <g
     inkscape:label="Layer 1"
     inkscape:groupmode="layer"
     id="layer1">
    <path
       inkscape:connector-curvature="0"
       style="fill:#000000;stroke-width:0.56577873"
       d="m 7.4100184,0.61487957 c -3.608219,0 -6.51214202,2.90395583 -6.51214202,6.51214203 V 40.144144 c 0,3.608194 2.90392302,6.513449 6.51214202,6.513449 H 203.5007 c 3.60816,0 6.51214,-2.905255 6.51214,-6.513449 V 7.1270216 c 0,-3.6081862 -2.90398,-6.51214203 -6.51214,-6.51214203 z M 71.876862,10.383098 c 0.475496,0 0.875414,0.162152 1.199623,0.486384 0.324209,0.324237 0.486445,0.713153 0.486445,1.167077 0,0.313426 -0.130585,0.686514 -0.389903,1.118827 -1.167311,1.912988 -2.020694,3.706368 -2.561086,5.381584 -0.529575,1.675215 -0.794096,3.372348 -0.794096,5.090791 0,1.729255 0.264521,3.431228 0.794096,5.106443 0.540392,1.675212 1.393775,3.469895 2.561086,5.382886 0.259313,0.421503 0.389903,0.79459 0.389903,1.118824 0,0.453931 -0.162228,0.842835 -0.486445,1.167069 -0.324209,0.324237 -0.724127,0.486395 -1.199623,0.486395 -0.399921,0 -0.751034,-0.13051 -1.053679,-0.389893 -0.4323,-0.378273 -1.005338,-1.226838 -1.71865,-2.545396 -1.026703,-1.912988 -1.730268,-3.490599 -2.108555,-4.733501 -0.594406,-1.902173 -0.890638,-3.766304 -0.890638,-5.592827 0,-1.89137 0.313323,-3.804273 0.940177,-5.738874 0.464746,-1.426637 1.1828,-3.015232 2.155558,-4.766103 0.702495,-1.25371 1.221923,-2.021847 1.556947,-2.302846 0.33509,-0.291814 0.708104,-0.43684 1.11884,-0.43684 z m 50.790558,0 c 0.3999,0 0.75095,0.129197 1.05358,0.388588 0.43231,0.367465 1.00534,1.216028 1.71865,2.545396 1.02672,1.912991 1.72902,3.485761 2.1073,4.717853 0.59441,1.912989 0.89192,3.777107 0.89192,5.592826 0,1.891372 -0.31333,3.809114 -0.94019,5.754525 -0.46475,1.42663 -1.18281,3.010382 -2.1555,4.750446 -0.70256,1.253709 -1.22192,2.026694 -1.55695,2.318503 -0.33508,0.291814 -0.70816,0.438143 -1.11881,0.438143 -0.47559,0 -0.87549,-0.162153 -1.1997,-0.486395 -0.32428,-0.324234 -0.48638,-0.713138 -0.48638,-1.167069 0,-0.324234 0.13046,-0.697321 0.38989,-1.118824 1.16719,-1.912991 2.01583,-3.707674 2.54541,-5.382886 0.54038,-1.675215 0.80978,-3.377188 0.80978,-5.106443 0,-1.718443 -0.2694,-3.415576 -0.80978,-5.090791 -0.52958,-1.675216 -1.37822,-3.468596 -2.54541,-5.381584 -0.25943,-0.432313 -0.38989,-0.805401 -0.38989,-1.118827 0,-0.453924 0.162,-0.84284 0.48638,-1.167077 0.32421,-0.324234 0.72411,-0.486384 1.1997,-0.486384 z m 36.8495,0.292094 h 3.89118 v 7.083292 c 0.69168,-0.410696 1.38909,-0.71304 2.09158,-0.907578 0.71331,-0.205352 1.43136,-0.307744 2.1555,-0.307744 1.14561,0 2.1673,0.195108 3.06437,0.584188 0.89703,0.389086 1.63711,1.004745 2.2207,1.847762 0.59441,0.832206 0.89199,1.885554 0.89191,3.160876 v 6.24222 c 0.84304,0 1.39412,0.08042 1.6535,0.242547 0.51876,0.33505 0.77846,0.810528 0.77846,1.426569 0,0.486354 -0.16831,0.886247 -0.50334,1.199679 -0.33503,0.302616 -0.9019,0.453792 -1.70169,0.453792 h -3.79327 c -0.78904,0 -1.35721,-0.151176 -1.70303,-0.453792 -0.33511,-0.313432 -0.50208,-0.718165 -0.50208,-1.215322 0,-0.60524 0.2597,-1.075876 0.77846,-1.410926 0.27021,-0.172927 0.82129,-0.253345 1.6535,-0.242547 v -6.01532 c 0,-0.853824 -0.19506,-1.453662 -0.58419,-1.799517 -0.50801,-0.464733 -1.25897,-0.696327 -2.2533,-0.696327 -0.73494,0 -1.38844,0.145019 -1.9612,0.436835 -0.56203,0.281004 -1.32402,0.897974 -2.28588,1.849061 v 6.225268 c 0.85378,0 1.40484,0.08042 1.65342,0.242547 0.52958,0.33505 0.79416,0.810528 0.79416,1.426569 0,0.486354 -0.17311,0.886247 -0.51904,1.199679 -0.33503,0.302616 -0.90191,0.453792 -1.70169,0.453792 h -3.77766 c -0.79978,0 -1.37282,-0.151176 -1.71865,-0.453792 -0.3351,-0.313432 -0.50207,-0.718165 -0.50207,-1.215322 0,-0.60524 0.26457,-1.075876 0.79416,-1.410926 0.25937,-0.172927 0.81046,-0.253345 1.65349,-0.242547 V 13.997766 h -0.5673 c -0.79971,0 -1.37275,-0.151175 -1.71865,-0.453792 -0.33503,-0.313424 -0.50201,-0.718157 -0.50201,-1.215319 0,-0.486354 0.16705,-0.881404 0.50201,-1.184028 0.3459,-0.313427 0.91894,-0.469435 1.71865,-0.469435 z m -137.393948,1.361367 7.181052,0.01564 6.615159,16.325999 c 0.778206,0 1.291492,0.08658 1.540055,0.259502 0.262853,0.188547 0.451196,0.41044 0.575044,0.662423 0.08511,-0.167351 0.197025,-0.320222 0.348176,-0.452483 0.345839,-0.313432 0.914006,-0.469442 1.703028,-0.469442 h 0.518961 v -13.00212 h -0.518961 c -0.799839,0 -1.372811,-0.151176 -1.718651,-0.453785 -0.335092,-0.313432 -0.503338,-0.719466 -0.503338,-1.216628 0,-0.497162 0.168259,-0.897055 0.503338,-1.199671 0.34584,-0.313432 0.918812,-0.46944 1.718651,-0.46944 h 8.332474 c 1.988647,0 3.588256,0.555901 4.798697,1.669111 1.210507,1.102395 1.815193,2.415459 1.815193,3.939365 0,0.72412 -0.140199,1.405693 -0.421218,2.043359 -0.281012,0.637661 -0.707703,1.226517 -1.280475,1.76691 1.048336,0.62685 1.832283,1.362043 2.35111,2.205057 0.529577,0.832207 0.794096,1.778326 0.794096,2.837491 0,0.843008 -0.188951,1.625668 -0.567231,2.349795 -0.281011,0.5512 -0.627318,0.988889 -1.037986,1.313118 -0.551207,0.453931 -1.226598,0.827018 -2.026369,1.118832 -0.79977,0.281004 -1.79957,0.42119 -2.999193,0.42119 h -9.759098 c -0.799839,0 -1.372811,-0.151175 -1.718651,-0.453792 -0.143201,-0.133916 -0.249234,-0.287653 -0.331219,-0.455092 -0.08219,0.166897 -0.189682,0.320215 -0.333823,0.455092 -0.335024,0.302617 -0.90192,0.453792 -1.701758,0.453792 h -4.475291 c -0.799771,0 -1.371542,-0.151175 -1.717381,-0.453792 -0.335025,-0.313432 -0.503339,-0.718165 -0.503339,-1.215319 0,-0.486354 0.168309,-0.881412 0.503339,-1.184029 0.345839,-0.313431 0.91761,-0.469442 1.717381,-0.469442 h 0.811123 L 31.541703,26.351803 H 23.46741 l -0.809786,2.026402 h 0.809786 c 0.79977,0 1.367934,0.156021 1.702959,0.469442 0.345907,0.302617 0.519026,0.702515 0.519026,1.199672 0,0.486351 -0.173129,0.886244 -0.519026,1.199676 -0.335025,0.302617 -0.903189,0.453792 -1.702959,0.453792 h -4.474022 c -0.799839,0 -1.366668,-0.151175 -1.701693,-0.453792 -0.345839,-0.313432 -0.519027,-0.718165 -0.519027,-1.215319 0,-0.497161 0.178,-0.903204 0.534649,-1.216631 0.356655,-0.313424 0.945519,-0.45845 1.766923,-0.43684 l 5.221181,-13.002122 h -2.172449 c -0.799771,0 -1.37281,-0.151176 -1.71865,-0.453785 -0.335024,-0.313432 -0.503339,-0.719466 -0.503339,-1.216628 0,-0.497162 0.16831,-0.897055 0.503339,-1.199671 0.34584,-0.313432 0.918879,-0.46944 1.71865,-0.46944 z m 60.064526,0 10.034236,0.01564 c 0.799831,0 1.367996,0.151176 1.703025,0.453792 0.345855,0.302617 0.517697,0.70251 0.517697,1.199671 0,0.497162 -0.171842,0.903197 -0.517697,1.216629 -0.335029,0.302616 -0.903194,0.453784 -1.703025,0.453784 h -3.355182 v 13.002123 h 3.355182 c 0.799831,0 1.367996,0.15602 1.703025,0.469442 0.345855,0.302617 0.517697,0.702515 0.517697,1.199671 0,0.486352 -0.171842,0.886245 -0.517697,1.199676 -0.335029,0.302617 -0.903194,0.453793 -1.703025,0.453793 H 82.187498 c -0.79977,0 -1.37281,-0.151176 -1.71865,-0.453793 -0.33509,-0.313431 -0.503336,-0.718164 -0.503336,-1.215318 0,-0.486354 0.168259,-0.881412 0.503336,-1.184029 0.34584,-0.313432 0.91888,-0.469442 1.71865,-0.469442 h 3.355182 v -13.00212 h -3.355182 c -0.79977,0 -1.37281,-0.151176 -1.71865,-0.453785 -0.33509,-0.313432 -0.503336,-0.719466 -0.503336,-1.216628 0,-0.497162 0.168259,-0.897055 0.503336,-1.199671 0.34584,-0.313432 0.91888,-0.46944 1.71865,-0.46944 z m 16.422525,0 4.489647,0.01564 c 0.78897,0 1.35097,0.151176 1.68608,0.453792 0.34583,0.302617 0.51896,0.70251 0.51896,1.199671 0,0.497162 -0.16705,0.903197 -0.50201,1.216629 -0.3351,0.302616 -0.90326,0.453784 -1.70303,0.453784 h -0.7772 l 4.78174,11.477758 4.81564,-11.477758 h -0.76284 c -0.79976,0 -1.37282,-0.151175 -1.71865,-0.453784 -0.33503,-0.313432 -0.502,-0.719467 -0.502,-1.216629 0,-0.497161 0.16705,-0.897054 0.502,-1.199671 0.34583,-0.313432 0.91889,-0.469442 1.71865,-0.469442 l 4.45839,0.01564 c 0.79978,0 1.36795,0.151175 1.70303,0.453792 0.34585,0.302617 0.51769,0.70251 0.51769,1.199671 0,0.594431 -0.25844,1.065074 -0.7772,1.410921 -0.24855,0.172928 -0.75696,0.259492 -1.52437,0.259492 l -6.82512,16.32471 h -3.19349 L 98.706492,15.376083 c -0.778135,0 -1.291416,-0.08655 -1.539969,-0.259494 -0.518782,-0.335037 -0.778489,-0.805681 -0.778489,-1.410919 0,-0.497162 0.173104,-0.897055 0.518959,-1.199671 0.335105,-0.313435 0.90327,-0.469443 1.70303,-0.46944 z m 41.047147,0 7.52268,0.01564 c 2.34531,0 4.16063,0.584016 5.44677,1.75126 1.29697,1.15644 1.9456,2.567061 1.9456,4.231466 0,1.037552 -0.30232,1.982364 -0.90761,2.83618 -0.6052,0.843009 -1.51842,1.59533 -2.73968,2.254612 0.70251,0.616048 1.45354,1.404846 2.2533,2.366746 0.49713,0.616043 1.16777,1.577992 2.01076,2.885735 0.84303,0 1.39891,0.08658 1.66911,0.259502 0.48639,0.335037 0.73027,0.804378 0.73027,1.409611 0,0.486352 -0.16831,0.886245 -0.50334,1.199676 -0.33503,0.302617 -0.90193,0.453793 -1.70177,0.453793 h -1.8973 c -2.69114,-4.161021 -4.92216,-6.662778 -6.69469,-7.505788 H 143.5 V 28.3782 h 1.19969 c 0.79976,0 1.36659,0.156021 1.7017,0.469442 0.34583,0.302617 0.51901,0.702515 0.51901,1.199672 0,0.486351 -0.17311,0.886244 -0.51901,1.199676 -0.33511,0.302617 -0.90194,0.453792 -1.7017,0.453792 h -5.04252 c -0.79984,0 -1.37156,-0.151175 -1.71739,-0.453792 -0.3351,-0.313432 -0.50334,-0.718165 -0.50334,-1.215319 0,-0.486354 0.17311,-0.881412 0.51896,-1.184029 0.34583,-0.313431 0.91273,-0.469442 1.70177,-0.469442 h 0.51896 V 15.376083 h -0.51896 c -0.79984,0 -1.37156,-0.151176 -1.71739,-0.453785 -0.3351,-0.313432 -0.50334,-0.719466 -0.50334,-1.216628 0,-0.497162 0.16831,-0.897055 0.50334,-1.199671 0.34583,-0.313432 0.91755,-0.46944 1.71739,-0.46944 z m 46.43128,2.052488 c 0.464,0 0.83635,0.160992 1.11885,0.48378 0.29248,0.312706 0.43944,0.841801 0.43944,1.588267 l -0.0151,5.17555 h 4.43356 c 0.74649,0 1.27559,0.14136 1.58832,0.423794 0.32281,0.282448 0.48504,0.654813 0.48504,1.118833 0,0.464014 -0.16225,0.843243 -0.48504,1.135776 -0.31273,0.282443 -0.84183,0.423796 -1.58832,0.423796 h -4.43356 v 5.189897 c 0,0.746459 -0.14131,1.281116 -0.42377,1.60391 -0.28247,0.312712 -0.65482,0.46814 -1.11882,0.46814 -0.46402,0 -0.84198,-0.15544 -1.13446,-0.46814 -0.28249,-0.322794 -0.42383,-0.857451 -0.42383,-1.60391 v -5.189897 h -4.43356 c -0.74649,0 -1.28114,-0.14136 -1.60396,-0.423796 -0.31272,-0.292533 -0.46942,-0.671762 -0.46942,-1.135776 0,-0.46402 0.1567,-0.836385 0.46942,-1.118833 0.32282,-0.292528 0.85747,-0.433882 1.60396,-0.423794 h 4.43356 v -5.17555 c 0,-0.736378 0.14131,-1.265473 0.42383,-1.588267 0.29248,-0.322791 0.67044,-0.48378 1.13446,-0.48378 z M 43.927047,15.376086 v 4.831297 h 3.647276 c 1.307717,0 2.394041,-0.33045 3.258642,-0.989729 0.583656,-0.443123 0.876282,-0.994189 0.876282,-1.653463 0,-0.583628 -0.27547,-1.090752 -0.826677,-1.523066 -0.551208,-0.443121 -1.426622,-0.665039 -2.626248,-0.665039 z m 99.572953,0 v 5.495029 h 2.59366 c 0.96186,0 1.8214,-0.145018 2.57796,-0.436832 1.01597,-0.389083 1.69625,-0.799965 2.04207,-1.232279 0.35666,-0.432313 0.53592,-0.859012 0.53592,-1.280523 0,-0.626851 -0.33528,-1.20473 -1.00534,-1.734307 -0.67011,-0.540393 -1.64787,-0.811088 -2.93404,-0.811088 z m -116.011103,1.06928 -2.691474,6.582557 h 5.365994 z m 16.43815,7.084591 v 4.848251 h 5.738874 c 1.350981,0 2.301907,-0.199953 2.853115,-0.599833 0.421548,-0.302622 0.632458,-0.73547 0.632458,-1.297473 0,-0.670089 -0.415743,-1.329688 -1.247962,-1.978157 -0.83215,-0.64848 -2.026969,-0.972788 -3.583315,-0.972788 z"
       id="rect276-2-6-3" />
  </g>
</svg>
