<?xml version="1.0" encoding="UTF-8" standalone="no"?>
<!-- Created with Inkscape (http://www.inkscape.org/) -->

<svg
   xmlns:dc="http://purl.org/dc/elements/1.1/"
   xmlns:cc="http://creativecommons.org/ns#"
   xmlns:rdf="http://www.w3.org/1999/02/22-rdf-syntax-ns#"
   xmlns:svg="http://www.w3.org/2000/svg"
   xmlns="http://www.w3.org/2000/svg"
   xmlns:sodipodi="http://sodipodi.sourceforge.net/DTD/sodipodi-0.dtd"
   xmlns:inkscape="http://www.inkscape.org/namespaces/inkscape"
   width="210mm"
   height="297mm"
   viewBox="0 0 210 297"
   version="1.1"
   id="svg4929"
   inkscape:version="0.92.3 (2405546, 2018-03-11)"
   sodipodi:docname="AB-.svg">
  <defs
     id="defs4923" />
  <sodipodi:namedview
     id="base"
     pagecolor="#ffffff"
     bordercolor="#666666"
     borderopacity="1.0"
     inkscape:pageopacity="0.0"
     inkscape:pageshadow="2"
     inkscape:zoom="0.35"
     inkscape:cx="-111.42857"
     inkscape:cy="560"
     inkscape:document-units="mm"
     inkscape:current-layer="layer1"
     showgrid="false"
     inkscape:window-width="1920"
     inkscape:window-height="1017"
     inkscape:window-x="-8"
     inkscape:window-y="-8"
     inkscape:window-maximized="1" />
  <metadata
     id="metadata4926">
    <rdf:RDF>
      <cc:Work
         rdf:about="">
        <dc:format>image/svg+xml</dc:format>
        <dc:type
           rdf:resource="http://purl.org/dc/dcmitype/StillImage" />
        <dc:title></dc:title>
      </cc:Work>
    </rdf:RDF>
  </metadata>
  <g
     inkscape:label="Layer 1"
     inkscape:groupmode="layer"
     id="layer1">
    <path
       inkscape:connector-curvature="0"
       style="fill:#000000;stroke-width:0.57191467"
       d="m 5.9687367,0.61462162 c -3.6472842,0 -6.58276422,2.93676558 -6.58276422,6.58408798 V 40.573901 c 0,3.647324 2.93548002,6.584088 6.58276422,6.584088 H 204.18474 c 3.64729,0 6.58404,-2.936764 6.58404,-6.584088 V 7.1987096 c 0,-3.6473224 -2.93675,-6.58408798 -6.58404,-6.58408798 z M 71.350897,10.490093 c 0.480719,0 0.886257,0.163911 1.214051,0.491659 0.327723,0.327753 0.490302,0.720888 0.490302,1.179734 0,0.316826 -0.130598,0.693964 -0.392782,1.130961 -1.179902,1.933727 -2.042542,3.746572 -2.588792,5.439947 -0.535321,1.693376 -0.802777,3.408927 -0.802777,5.146002 0,1.748001 0.267456,3.468444 0.802777,5.16182 0.54625,1.693375 1.40889,3.507544 2.588792,5.441266 0.262194,0.426074 0.392782,0.801891 0.392782,1.129634 0,0.458857 -0.162584,0.851984 -0.490302,1.179734 -0.327794,0.327754 -0.733332,0.49167 -1.214051,0.49167 -0.404189,0 -0.759113,-0.130599 -1.065037,-0.392805 -0.436989,-0.382375 -1.014961,-1.240149 -1.736009,-2.573001 -1.037838,-1.933722 -1.749033,-3.528455 -2.131423,-4.784836 -0.600852,-1.922803 -0.90023,-3.807158 -0.90023,-5.653482 0,-1.911878 0.316657,-3.845539 0.950373,-5.801113 0.46972,-1.442101 1.195561,-3.047937 2.178869,-4.817792 0.710113,-1.267298 1.235174,-2.043774 1.573832,-2.32782 0.338724,-0.294979 0.7145,-0.441578 1.129625,-0.441578 z m 51.342713,0 c 0.40419,0 0.75918,0.130598 1.06504,0.392802 0.43706,0.371451 1.01625,1.229231 1.73729,2.573001 1.03791,1.93373 1.74782,3.523563 2.13014,4.769019 0.60085,1.933722 0.90158,3.818082 0.90158,5.653481 0,1.911876 -0.31672,3.850432 -0.95037,5.816931 -0.46972,1.442104 -1.19691,3.043045 -2.18015,4.801967 -0.71012,1.267306 -1.23383,2.048674 -1.57255,2.343648 -0.33866,0.294971 -0.71585,0.441578 -1.13098,0.441578 -0.48071,0 -0.8849,-0.163911 -1.2127,-0.49167 -0.32772,-0.32775 -0.49165,-0.720877 -0.49165,-1.179734 0,-0.327743 0.13065,-0.70356 0.39278,-1.129634 1.17997,-1.933722 2.03768,-3.747891 2.573,-5.441266 0.54626,-1.693376 0.81992,-3.413819 0.81992,-5.16182 0,-1.737075 -0.27366,-3.452626 -0.81992,-5.146002 -0.53532,-1.693375 -1.39303,-3.50622 -2.573,-5.439947 -0.26212,-0.436997 -0.39278,-0.814135 -0.39278,-1.130961 0,-0.458846 0.16394,-0.851981 0.49165,-1.179734 0.3278,-0.327743 0.73199,-0.491659 1.2127,-0.491659 z m 37.24923,0.293946 h 3.93195 v 7.161424 c 0.69925,-0.415147 1.40416,-0.72077 2.11428,-0.917417 0.72105,-0.20758 1.44824,-0.311082 2.18021,-0.311082 1.15804,0 2.18961,0.195897 3.09632,0.589207 0.90677,0.393298 1.6561,1.016966 2.24609,1.869117 0.60091,0.841224 0.90029,1.906003 0.90029,3.195157 v 6.3086 c 0.85218,0 1.41059,0.08262 1.6727,0.246505 0.52446,0.338673 0.78563,0.819313 0.78563,1.442034 0,0.491629 -0.16886,0.895864 -0.50752,1.21269 -0.33864,0.305898 -0.91296,0.458711 -1.72142,0.458711 h -3.83449 c -0.79752,0 -1.37057,-0.152815 -1.72015,-0.458711 -0.33874,-0.316826 -0.50752,-0.725956 -0.50752,-1.228502 0,-0.611797 0.26124,-1.087549 0.78563,-1.426222 0.27313,-0.174803 0.83019,-0.257422 1.67143,-0.246505 v -6.07924 c 0,-0.863078 -0.1959,-1.469427 -0.58925,-1.819025 -0.51352,-0.469774 -1.27262,-0.705208 -2.27774,-0.705208 -0.74291,0 -1.40477,0.147918 -1.98375,0.442892 -0.56812,0.284054 -1.33837,0.906398 -2.31074,1.8678 v 6.292781 c 0.86311,0 1.42144,0.08262 1.67277,0.246505 0.53532,0.338673 0.80271,0.819313 0.80271,1.442034 0,0.491629 -0.17501,0.895864 -0.52459,1.21269 -0.33872,0.305898 -0.91177,0.458711 -1.72022,0.458711 h -3.81863 c -0.80845,0 -1.3877,-0.152815 -1.73729,-0.458711 -0.33866,-0.316826 -0.50745,-0.725956 -0.50745,-1.228502 0,-0.611797 0.26739,-1.087549 0.80271,-1.426222 0.26219,-0.174803 0.81924,-0.257422 1.67142,-0.246505 V 14.143963 h -0.57338 c -0.80852,0 -1.38777,-0.152815 -1.73736,-0.458714 -0.33866,-0.316823 -0.5088,-0.727269 -0.5088,-1.229815 0,-0.491628 0.17014,-0.889655 0.5088,-1.195553 0.34959,-0.316826 0.92884,-0.475842 1.73736,-0.475842 z m -138.884069,1.377447 7.259,0.01581 6.686898,16.501739 c 0.786579,0 1.305432,0.08752 1.556691,0.262309 0.265704,0.190592 0.456089,0.416216 0.58128,0.670931 0.08604,-0.169166 0.199162,-0.323695 0.351952,-0.45739 0.34959,-0.316826 0.923986,-0.47585 1.721497,-0.47585 h 0.52459 V 15.537228 h -0.52459 c -0.808444,0 -1.387698,-0.152816 -1.737289,-0.458707 -0.338657,-0.316823 -0.508795,-0.727269 -0.508795,-1.229822 0,-0.502554 0.170135,-0.906784 0.508795,-1.212682 0.349591,-0.316831 0.928845,-0.474531 1.737289,-0.474531 h 8.42291 c 2.010145,0 3.627103,0.561935 4.850737,1.687213 1.223569,1.11435 1.834812,2.44166 1.834812,3.982087 0,0.731981 -0.141719,1.420946 -0.425717,2.06552 -0.284128,0.644576 -0.715447,1.239819 -1.294431,1.786072 1.059706,0.633649 1.852157,1.37682 2.376609,2.228971 0.53532,0.841217 0.80271,1.796289 0.80271,2.86694 0,0.852151 -0.191,1.644628 -0.573383,2.376603 -0.284059,0.557178 -0.634054,0.999613 -1.049245,1.327364 -0.557185,0.458849 -1.239901,0.835982 -2.048345,1.130961 -0.808444,0.284046 -1.819018,0.425758 -3.03172,0.425758 h -9.864937 c -0.808444,0 -1.387698,-0.152815 -1.737289,-0.458714 -0.144959,-0.135649 -0.251937,-0.29167 -0.334811,-0.461344 -0.08308,0.169013 -0.191459,0.324802 -0.337443,0.461344 -0.338656,0.305899 -0.911701,0.458714 -1.720148,0.458714 h -4.523892 c -0.808376,0 -1.38635,-0.152815 -1.73594,-0.458714 -0.338724,-0.316823 -0.508795,-0.725953 -0.508795,-1.228499 0,-0.491629 0.170084,-0.890963 0.508795,-1.19687 0.34959,-0.316825 0.927564,-0.475849 1.73594,-0.475849 h 0.81992 L 30.579649,26.630634 H 22.41907 l -0.819851,2.048383 h 0.819851 c 0.808513,0 1.381557,0.159014 1.720214,0.47585 0.349591,0.305906 0.52459,0.710133 0.52459,1.212682 0,0.491626 -0.175007,0.895863 -0.52459,1.212687 -0.338657,0.305898 -0.911701,0.458713 -1.720214,0.458713 h -4.523826 c -0.808444,0 -1.38149,-0.152815 -1.720148,-0.458713 -0.34959,-0.316824 -0.524656,-0.725954 -0.524656,-1.228499 0,-0.502549 0.17993,-0.913 0.540448,-1.229826 0.360525,-0.316823 0.955773,-0.464738 1.786085,-0.442894 l 5.277806,-13.141815 h -2.196008 c -0.808447,0 -1.387701,-0.152815 -1.737291,-0.458706 -0.338724,-0.316823 -0.508795,-0.727269 -0.508795,-1.229823 0,-0.502553 0.170058,-0.906783 0.508795,-1.212682 0.34959,-0.316831 0.928844,-0.474531 1.737291,-0.474531 z m 60.714651,0 10.144338,0.01581 c 0.808444,0 1.38149,0.152815 1.720214,0.458713 0.349593,0.305899 0.52459,0.710129 0.52459,1.212682 0,0.502554 -0.175007,0.912997 -0.52459,1.229823 -0.338724,0.305898 -0.91177,0.458706 -1.720214,0.458706 h -3.391503 v 13.14182 h 3.391503 c 0.808444,0 1.38149,0.159014 1.720214,0.47585 0.349593,0.305906 0.52459,0.710133 0.52459,1.212682 0,0.491626 -0.175007,0.895863 -0.52459,1.212686 -0.338724,0.305899 -0.91177,0.458714 -1.720214,0.458714 H 81.773422 c -0.808445,0 -1.386419,-0.152815 -1.736009,-0.458714 -0.338658,-0.316823 -0.508795,-0.725953 -0.508795,-1.228498 0,-0.491629 0.170135,-0.890964 0.508795,-1.19687 0.34959,-0.316826 0.927564,-0.47585 1.736009,-0.47585 h 3.392852 V 15.537228 h -3.392852 c -0.808445,0 -1.386419,-0.152816 -1.736009,-0.458707 -0.338658,-0.316823 -0.508795,-0.727269 -0.508795,-1.229822 0,-0.502554 0.170135,-0.906784 0.508795,-1.212682 0.34959,-0.316831 0.927564,-0.474531 1.736009,-0.474531 z m 16.600562,0 4.539686,0.01581 c 0.79751,0 1.36563,0.152815 1.70435,0.458713 0.34959,0.305899 0.52459,0.710129 0.52459,1.212682 0,0.502554 -0.16873,0.912997 -0.50744,1.229823 -0.33866,0.305898 -0.91306,0.458706 -1.7215,0.458706 h -0.78692 l 4.83495,11.602235 4.86653,-11.602235 h -0.76977 c -0.80845,0 -1.3877,-0.152815 -1.73736,-0.458706 -0.33866,-0.316826 -0.50745,-0.727269 -0.50745,-1.229823 0,-0.502553 0.16879,-0.906783 0.50745,-1.212682 0.34966,-0.316831 0.92891,-0.474533 1.73736,-0.474533 l 4.50668,0.01581 c 0.80844,0 1.38149,0.152816 1.72015,0.458714 0.34959,0.305899 0.52465,0.710129 0.52465,1.212682 0,0.60087 -0.26253,1.076625 -0.78691,1.426223 -0.25133,0.174803 -0.76398,0.262306 -1.53962,0.262306 l -6.89908,16.501752 h -3.22818 L 98.472853,15.537177 c -0.786579,0 -1.305429,-0.08752 -1.556691,-0.262309 -0.524451,-0.338671 -0.786916,-0.814423 -0.786916,-1.426223 0,-0.502553 0.175007,-0.906781 0.52459,-1.212679 0.338724,-0.316834 0.91177,-0.474534 1.720148,-0.474534 z m 41.493646,0 7.60427,0.01581 c 2.37074,0 4.20582,0.590357 5.50592,1.77026 1.31103,1.168967 1.96661,2.594894 1.96661,4.277349 0,1.048799 -0.30558,2.003868 -0.91744,2.866939 -0.61178,0.852151 -1.53482,1.611315 -2.76939,2.277739 0.71018,0.622729 1.46936,1.421411 2.27774,2.393738 0.50259,0.622724 1.17909,1.593789 2.03127,2.915714 0.85218,0 1.41544,0.08752 1.6885,0.262309 0.49165,0.338678 0.73684,0.814426 0.73684,1.426223 0,0.491626 -0.16879,0.895863 -0.50745,1.212686 -0.33873,0.305899 -0.91305,0.458714 -1.7215,0.458714 h -1.91654 c -2.72033,-4.206127 -4.97694,-6.735036 -6.76863,-7.587188 h -3.3257 v 4.227259 h 1.2127 c 0.80845,0 1.38149,0.159013 1.72015,0.475849 0.34959,0.305907 0.52466,0.710134 0.52466,1.212682 0,0.491626 -0.17506,0.895864 -0.52466,1.212687 -0.33866,0.305899 -0.9117,0.458714 -1.72015,0.458714 h -5.0972 c -0.80845,0 -1.3877,-0.152815 -1.73729,-0.458714 -0.33873,-0.316823 -0.50752,-0.725953 -0.50752,-1.228499 0,-0.491629 0.17501,-0.890963 0.52459,-1.19687 0.34959,-0.316825 0.92264,-0.475849 1.72022,-0.475849 h 0.52459 V 15.537202 h -0.52459 c -0.80845,0 -1.3877,-0.152815 -1.73729,-0.458706 -0.33873,-0.316823 -0.50752,-0.727269 -0.50752,-1.229823 0,-0.502553 0.16879,-0.906783 0.50752,-1.212682 0.34959,-0.316831 0.92884,-0.474531 1.73729,-0.474531 z M 43.099313,15.53723 v 4.883693 h 3.686833 c 1.321897,0 2.420005,-0.334033 3.294047,-1.000462 0.589919,-0.447921 0.885788,-1.004972 0.885788,-1.671395 0,-0.58995 -0.278524,-1.103903 -0.83571,-1.540905 C 49.573086,15.76024 48.688175,15.53723 47.475542,15.53723 Z m 100.652817,0 v 5.554624 h 2.6218 c 0.97231,0 1.83987,-0.146591 2.60465,-0.44157 1.02691,-0.393303 1.7159,-0.808641 2.06549,-1.245643 0.36052,-0.436996 0.54045,-0.868328 0.54045,-1.29441 0,-0.633649 -0.33893,-1.219112 -1.01631,-1.754433 -0.67732,-0.546258 -1.66575,-0.818568 -2.96579,-0.818568 z m -117.269237,1.080877 -2.720599,6.653945 h 5.424121 z m 153.992517,4.359071 h 14.02756 v 3.064667 H 180.47541 Z M 43.099313,23.779539 v 4.899506 h 5.801113 c 1.365632,0 2.326871,-0.202121 2.884057,-0.606343 0.426122,-0.305899 0.639319,-0.742125 0.639319,-1.310223 0,-0.677356 -0.420254,-1.344109 -1.261429,-1.99961 -0.841244,-0.655505 -2.049087,-0.983338 -3.622246,-0.98333 z"
       id="rect276-2-0" />
  </g>
</svg>
