<?xml version="1.0" encoding="UTF-8" standalone="no"?>
<!-- Created with Inkscape (http://www.inkscape.org/) -->

<svg
   xmlns:dc="http://purl.org/dc/elements/1.1/"
   xmlns:cc="http://creativecommons.org/ns#"
   xmlns:rdf="http://www.w3.org/1999/02/22-rdf-syntax-ns#"
   xmlns:svg="http://www.w3.org/2000/svg"
   xmlns="http://www.w3.org/2000/svg"
   xmlns:sodipodi="http://sodipodi.sourceforge.net/DTD/sodipodi-0.dtd"
   xmlns:inkscape="http://www.inkscape.org/namespaces/inkscape"
   width="210mm"
   height="297mm"
   viewBox="0 0 210 297"
   version="1.1"
   id="svg4962"
   inkscape:version="0.92.3 (2405546, 2018-03-11)"
   sodipodi:docname="B+.svg">
  <defs
     id="defs4956" />
  <sodipodi:namedview
     id="base"
     pagecolor="#ffffff"
     bordercolor="#666666"
     borderopacity="1.0"
     inkscape:pageopacity="0.0"
     inkscape:pageshadow="2"
     inkscape:zoom="0.35"
     inkscape:cx="-111.42857"
     inkscape:cy="560"
     inkscape:document-units="mm"
     inkscape:current-layer="layer1"
     showgrid="false"
     inkscape:window-width="1920"
     inkscape:window-height="1017"
     inkscape:window-x="-8"
     inkscape:window-y="-8"
     inkscape:window-maximized="1" />
  <metadata
     id="metadata4959">
    <rdf:RDF>
      <cc:Work
         rdf:about="">
        <dc:format>image/svg+xml</dc:format>
        <dc:type
           rdf:resource="http://purl.org/dc/dcmitype/StillImage" />
        <dc:title></dc:title>
      </cc:Work>
    </rdf:RDF>
  </metadata>
  <g
     inkscape:label="Layer 1"
     inkscape:groupmode="layer"
     id="layer1">
    <path
       inkscape:connector-curvature="0"
       style="fill:#000000;stroke-width:0.56373346"
       d="m 6.6318556,-0.14107214 c -3.5951653,0 -6.48993322,2.89345554 -6.48993322,6.48860574 V 39.245293 c 0,3.595151 2.89476792,6.489903 6.48993322,6.489903 H 202.01233 c 3.59515,0 6.4886,-2.894752 6.4886,-6.489903 V 6.3475336 c 0,-3.5951502 -2.89345,-6.48860574 -6.4886,-6.48860574 z M 49.821206,9.5918313 c 0.473838,0 0.872247,0.1615664 1.195355,0.4846287 0.323032,0.323062 0.484623,0.710573 0.484623,1.162858 0,0.312298 -0.12873,0.684029 -0.387171,1.11478 -1.163096,1.90606 -2.014651,3.692977 -2.553105,5.362129 -0.527642,1.669152 -0.791288,3.360165 -0.791288,5.072388 0,1.722997 0.263646,3.418833 0.791288,5.087985 0.538454,1.669149 1.390009,3.457366 2.553105,5.363427 0.258441,0.419979 0.387171,0.791717 0.387171,1.11478 0,0.452285 -0.161667,0.839795 -0.484623,1.162857 -0.323108,0.323063 -0.721517,0.484629 -1.195355,0.484629 -0.39841,0 -0.748319,-0.130038 -1.049804,-0.388483 -0.430818,-0.376906 -1.001782,-1.221111 -1.712437,-2.534897 -1.023002,-1.906066 -1.722746,-3.479278 -2.099684,-4.717687 -0.592259,-1.895289 -0.888665,-3.752691 -0.888665,-5.572611 0,-1.884525 0.312171,-3.790525 0.936763,-5.718128 0.463077,-1.421472 1.179867,-3.004337 2.148963,-4.748871 0.69997,-1.249165 1.216173,-2.013236 1.550066,-2.293226 0.333819,-0.2907517 0.705602,-0.4365587 1.114798,-0.4365587 z m 70.443034,0 c 0.39845,0 0.74959,0.1287301 1.05112,0.387186 0.43074,0.3661367 1.00041,1.2116447 1.71116,2.5361937 1.02302,1.906066 1.72402,3.473159 2.10093,4.700796 0.59227,1.906061 0.8874,3.763465 0.8874,5.572608 0,1.884529 -0.31219,3.796656 -0.93678,5.73502 -0.46305,1.421474 -1.17852,2.998219 -2.14771,4.731982 -0.69997,1.249165 -1.21751,2.019363 -1.55134,2.310117 -0.33382,0.290752 -0.70556,0.436559 -1.11478,0.436559 -0.47382,0 -0.8723,-0.161566 -1.19533,-0.484629 -0.32311,-0.323062 -0.48462,-0.710572 -0.48462,-1.162857 0,-0.323063 0.12998,-0.694801 0.38849,-1.11478 1.16299,-1.906061 2.00851,-3.694278 2.53618,-5.363427 0.53843,-1.669152 0.80685,-3.364988 0.80685,-5.087985 0,-1.712223 -0.26842,-3.403236 -0.80685,-5.072388 -0.52767,-1.669152 -1.37319,-3.456069 -2.53618,-5.362129 -0.25851,-0.430751 -0.38849,-0.802482 -0.38849,-1.11478 0,-0.452285 0.16151,-0.839796 0.48462,-1.162858 0.32303,-0.3230623 0.72151,-0.4846287 1.19533,-0.4846287 z m 36.71635,0.2910382 h 3.87705 V 16.94186 c 0.6892,-0.409218 1.38408,-0.711764 2.08405,-0.905601 0.71074,-0.204611 1.42621,-0.306632 2.1477,-0.306632 1.14149,0 2.15951,0.194403 3.05331,0.582079 0.89381,0.387676 1.63116,1.001118 2.21268,1.841079 0.59228,0.829191 0.8887,1.878746 0.8887,3.149453 v 6.219653 c 0.83997,0 1.38904,0.08013 1.64749,0.24167 0.5169,0.333826 0.77567,0.807591 0.77567,1.421404 0,0.484596 -0.1677,0.883049 -0.50152,1.195342 -0.33383,0.301523 -0.89868,0.452152 -1.69556,0.452152 h -3.77961 c -0.78612,0 -1.35226,-0.150629 -1.69686,-0.452152 -0.33383,-0.312293 -0.50022,-0.715568 -0.50022,-1.210927 0,-0.603053 0.25877,-1.071993 0.77567,-1.405819 0.26922,-0.172302 0.8183,-0.252436 1.64749,-0.24167 v -5.993576 c 0,-0.85073 -0.19441,-1.4484 -0.58208,-1.793004 -0.50613,-0.463054 -1.25443,-0.693815 -2.24516,-0.693815 -0.73227,0 -1.38337,0.145802 -1.95411,0.436556 -0.55998,0.279983 -1.31922,0.893432 -2.27764,1.841082 v 6.202757 c 0.85073,0 1.39981,0.08013 1.64749,0.24167 0.52767,0.333826 0.79126,0.807591 0.79126,1.421404 0,0.484596 -0.17251,0.883049 -0.51711,1.195342 -0.33384,0.301523 -0.89868,0.452152 -1.69557,0.452152 h -3.76401 c -0.79688,0 -1.36785,-0.150629 -1.71245,-0.452152 -0.33383,-0.312293 -0.50023,-0.715568 -0.50023,-1.210927 0,-0.603053 0.2636,-1.071993 0.79127,-1.405819 0.25845,-0.172302 0.80752,-0.252436 1.64749,-0.24167 V 13.193433 h -0.56519 c -0.79689,0 -1.36785,-0.150629 -1.71245,-0.452149 -0.33383,-0.312286 -0.50022,-0.715564 -0.50022,-1.210928 0,-0.484594 0.16639,-0.878226 0.50022,-1.179749 0.3446,-0.312291 0.91556,-0.4677375 1.71245,-0.4677375 z M 18.144752,11.239318 h 8.302412 c 1.981463,0 3.575227,0.555201 4.781342,1.664374 1.206066,1.09841 1.809915,2.40674 1.809915,3.925132 0,0.721502 -0.139793,1.399314 -0.419705,2.034667 -0.279938,0.635356 -0.706407,1.222084 -1.277169,1.760523 1.0446,0.624585 1.82573,1.357124 2.342612,2.197086 0.527642,0.829182 0.791212,1.771897 0.791212,2.827235 0,0.839959 -0.188318,1.619797 -0.56518,2.341301 -0.279988,0.5492 -0.62497,0.985313 -1.034241,1.308376 -0.549215,0.452285 -1.222207,0.824021 -2.019026,1.11478 -0.796945,0.279983 -1.792994,0.41967 -2.988349,0.41967 h -9.723823 c -0.796895,0 -1.367783,-0.150629 -1.712437,-0.452152 -0.333819,-0.312294 -0.500263,-0.715568 -0.500263,-1.210928 0,-0.484593 0.172479,-0.878223 0.517158,-1.179746 0.34458,-0.312294 0.909433,-0.467745 1.695542,-0.467745 h 0.517082 V 14.56677 h -0.517082 c -0.796895,0 -1.367783,-0.15063 -1.712437,-0.452145 -0.333819,-0.312291 -0.500263,-0.715568 -0.500263,-1.210933 0,-0.495357 0.166444,-0.893812 0.500263,-1.195334 0.344654,-0.312291 0.915542,-0.46904 1.712437,-0.46904 z m 41.949871,0 9.999228,0.01559 c 0.796882,0 1.361729,0.151937 1.695542,0.453447 0.344589,0.301522 0.51715,0.699977 0.51715,1.195334 0,0.495365 -0.172553,0.898642 -0.51715,1.210933 -0.333813,0.301525 -0.89866,0.452145 -1.695542,0.452145 h -3.34431 v 12.955121 h 3.34431 c 0.796882,0 1.361729,0.155456 1.695542,0.467745 0.344589,0.301523 0.51715,0.699975 0.51715,1.195334 0,0.484594 -0.172553,0.883049 -0.51715,1.19534 -0.333813,0.301523 -0.89866,0.452152 -1.695542,0.452152 h -9.999228 c -0.79687,0 -1.367833,-0.150629 -1.712488,-0.452152 -0.333818,-0.312291 -0.500187,-0.715568 -0.500187,-1.210925 0,-0.484596 0.166444,-0.878226 0.500187,-1.179749 0.344655,-0.312294 0.915618,-0.467745 1.712488,-0.467745 h 3.342985 V 14.56677 h -3.342985 c -0.79687,0 -1.367833,-0.15063 -1.712488,-0.452145 -0.333818,-0.312294 -0.500187,-0.715571 -0.500187,-1.210935 0,-0.495357 0.166444,-0.89381 0.500187,-1.195332 0.344655,-0.312294 0.915618,-0.469043 1.712488,-0.46904 z m 19.836069,0 9.999291,0.01559 c 0.79688,0 1.361729,0.151937 1.695542,0.453447 0.344589,0.301522 0.517083,0.699977 0.517083,1.195334 0,0.495365 -0.172504,0.898642 -0.517083,1.210933 -0.333813,0.301525 -0.898662,0.452145 -1.695542,0.452145 h -3.344382 v 12.955121 h 3.344382 c 0.79688,0 1.361729,0.155456 1.695542,0.467745 0.344589,0.301523 0.517083,0.699975 0.517083,1.195334 0,0.484594 -0.172504,0.883049 -0.517083,1.19534 -0.333813,0.301523 -0.898662,0.452152 -1.695542,0.452152 h -9.999291 c -0.79688,0 -1.367848,-0.150629 -1.712437,-0.452152 C 77.884441,30.068014 77.718,29.664737 77.718,29.16938 c 0,-0.484596 0.166444,-0.878226 0.500255,-1.179749 0.344589,-0.312294 0.915557,-0.467745 1.712437,-0.467745 h 3.343053 V 14.56677 h -3.343053 c -0.79688,0 -1.367848,-0.15063 -1.712437,-0.452145 C 77.884441,13.802331 77.718,13.399054 77.718,12.90369 c 0,-0.495357 0.166444,-0.89381 0.500255,-1.195332 0.344589,-0.312294 0.915557,-0.469043 1.712437,-0.46904 z m 19.836132,0 9.997956,0.01559 c 0.79682,0 1.363,0.151937 1.69681,0.453447 0.34466,0.301522 0.51715,0.699977 0.51715,1.195334 0,0.495365 -0.1725,0.898642 -0.51715,1.210933 -0.33381,0.301525 -0.89999,0.452145 -1.69681,0.452145 h -3.34305 v 12.955121 h 3.34305 c 0.79682,0 1.363,0.155456 1.69681,0.467745 0.34466,0.301523 0.51715,0.699975 0.51715,1.195334 0,0.484594 -0.1725,0.883049 -0.51715,1.19534 -0.33381,0.301523 -0.89999,0.452152 -1.69681,0.452152 h -9.997956 c -0.796948,0 -1.367848,-0.150629 -1.712437,-0.452152 -0.333814,-0.312291 -0.500255,-0.715568 -0.500255,-1.210925 0,-0.484596 0.166444,-0.878226 0.500255,-1.179749 0.344589,-0.312294 0.915489,-0.467745 1.712437,-0.467745 h 3.343056 V 14.56677 h -3.343056 c -0.796948,0 -1.367848,-0.15063 -1.712437,-0.452145 -0.333814,-0.312294 -0.500255,-0.715571 -0.500255,-1.210935 0,-0.495357 0.166444,-0.89381 0.500255,-1.195332 0.344589,-0.312294 0.915489,-0.469043 1.712437,-0.46904 z m 37.427036,0 7.49425,0.01559 c 2.33681,0 4.14561,0.58191 5.42709,1.744934 1.29224,1.152248 1.93852,2.557774 1.93852,4.216162 0,1.033796 -0.30125,1.976503 -0.9043,2.827233 -0.60304,0.839961 -1.51292,1.58826 -2.72979,2.245156 0.69997,0.613809 1.44827,1.399774 2.24516,2.358192 0.49536,0.613816 1.16353,1.572288 2.00349,2.875303 0.83996,0 1.39386,0.08626 1.66308,0.258564 0.48459,0.333825 0.72759,0.80147 0.72759,1.404515 0,0.484594 -0.1677,0.883049 -0.50152,1.19534 -0.33383,0.301523 -0.89867,0.452152 -1.69556,0.452152 h -1.89045 c -2.68141,-4.145959 -4.90443,-6.638695 -6.67051,-7.478656 h -3.27937 v 4.168087 h 1.19533 c 0.79689,0 1.36173,0.155457 1.69556,0.467746 0.3446,0.301522 0.51711,0.699975 0.51711,1.195334 0,0.484593 -0.1725,0.883048 -0.51711,1.195339 -0.33383,0.301523 -0.89867,0.452152 -1.69556,0.452152 h -5.02301 c -0.79689,0 -1.36785,-0.150629 -1.71245,-0.452152 -0.33383,-0.312291 -0.50152,-0.715568 -0.50152,-1.210925 0,-0.484596 0.17253,-0.878226 0.51711,-1.179748 0.34459,-0.312294 0.91074,-0.467746 1.69686,-0.467746 h 0.51581 V 14.56677 h -0.51581 c -0.79689,0 -1.36785,-0.15063 -1.71245,-0.452145 -0.33383,-0.312294 -0.50152,-0.715571 -0.50152,-1.210935 0,-0.495357 0.1677,-0.89381 0.50152,-1.195332 0.3446,-0.312294 0.91556,-0.469043 1.71245,-0.469043 z m 46.92349,0.791257 c 0.49536,0 0.89381,0.172529 1.19534,0.517118 0.31228,0.333834 0.46903,0.898675 0.46903,1.695562 l -0.0156,5.524533 h 4.73197 c 0.79688,0 1.36303,0.150629 1.69686,0.452151 0.3446,0.301523 0.51581,0.699975 0.51581,1.19534 0,0.495359 -0.17122,0.899931 -0.51581,1.212225 -0.33383,0.301523 -0.89998,0.452152 -1.69686,0.452152 h -4.73197 v 5.540126 c 0,0.796888 -0.15194,1.367856 -0.45345,1.71245 -0.30153,0.333834 -0.69998,0.50023 -1.19534,0.50023 -0.49536,0 -0.89864,-0.166394 -1.21093,-0.50023 -0.30154,-0.344594 -0.45217,-0.915562 -0.45217,-1.71245 v -5.540126 h -4.73327 c -0.79689,0 -1.36786,-0.150629 -1.71246,-0.452152 -0.33383,-0.312294 -0.50022,-0.716866 -0.50022,-1.212225 0,-0.495365 0.16639,-0.893817 0.50022,-1.19534 0.3446,-0.312286 0.91557,-0.462915 1.71246,-0.452151 h 4.73327 v -5.524533 c 0,-0.786116 0.15063,-1.350965 0.45215,-1.695562 0.31229,-0.344597 0.71557,-0.517118 1.21093,-0.517118 z M 21.973743,14.56677 v 4.813834 h 3.63411 c 1.30299,0 2.385379,-0.327968 3.24684,-0.984856 0.581548,-0.441514 0.87187,-0.991885 0.87187,-1.648781 0,-0.581513 -0.274557,-1.086809 -0.823772,-1.517559 C 28.353576,14.787894 27.481404,14.56677 26.28605,14.56677 Z m 119.047797,0 v 5.47647 h 2.58426 c 0.95842,0 1.81487,-0.145802 2.56868,-0.436559 1.01225,-0.387676 1.69007,-0.797073 2.03467,-1.227823 0.35537,-0.430743 0.53401,-0.855907 0.53401,-1.275894 0,-0.624585 -0.33409,-1.200368 -1.00175,-1.728038 -0.66766,-0.538432 -1.6419,-0.808156 -2.92338,-0.808156 z m -119.047797,8.1257 v 4.829421 h 5.71813 c 1.34611,0 2.293659,-0.19923 2.842798,-0.597665 0.419957,-0.301523 0.630174,-0.732811 0.630174,-1.292782 0,-0.667667 -0.415557,-1.32489 -1.244709,-1.971009 C 29.090933,23.01431 27.901688,22.69247 26.350968,22.69247 Z"
       id="rect276-2-6-7-3" />
  </g>
</svg>
