<?xml version="1.0" encoding="UTF-8" standalone="no"?>
<!-- Created with Inkscape (http://www.inkscape.org/) -->

<svg
   xmlns:dc="http://purl.org/dc/elements/1.1/"
   xmlns:cc="http://creativecommons.org/ns#"
   xmlns:rdf="http://www.w3.org/1999/02/22-rdf-syntax-ns#"
   xmlns:svg="http://www.w3.org/2000/svg"
   xmlns="http://www.w3.org/2000/svg"
   xmlns:sodipodi="http://sodipodi.sourceforge.net/DTD/sodipodi-0.dtd"
   xmlns:inkscape="http://www.inkscape.org/namespaces/inkscape"
   width="210mm"
   height="297mm"
   viewBox="0 0 210 297"
   version="1.1"
   id="svg4985"
   inkscape:version="0.92.3 (2405546, 2018-03-11)"
   sodipodi:docname="B-.svg">
  <defs
     id="defs4979" />
  <sodipodi:namedview
     id="base"
     pagecolor="#ffffff"
     bordercolor="#666666"
     borderopacity="1.0"
     inkscape:pageopacity="0.0"
     inkscape:pageshadow="2"
     inkscape:zoom="0.35"
     inkscape:cx="-111.42857"
     inkscape:cy="560"
     inkscape:document-units="mm"
     inkscape:current-layer="layer1"
     showgrid="false"
     inkscape:window-width="1920"
     inkscape:window-height="1017"
     inkscape:window-x="-8"
     inkscape:window-y="-8"
     inkscape:window-maximized="1" />
  <metadata
     id="metadata4982">
    <rdf:RDF>
      <cc:Work
         rdf:about="">
        <dc:format>image/svg+xml</dc:format>
        <dc:type
           rdf:resource="http://purl.org/dc/dcmitype/StillImage" />
        <dc:title></dc:title>
      </cc:Work>
    </rdf:RDF>
  </metadata>
  <g
     inkscape:label="Layer 1"
     inkscape:groupmode="layer"
     id="layer1">
    <path
       inkscape:connector-curvature="0"
       style="fill:#000000;stroke-width:0.56782407"
       d="m 6.6789511,-0.14107264 c -3.6212781,0 -6.53702586,2.91575884 -6.53702586,6.53699534 V 39.5324 c 0,3.621237 2.91574776,6.535688 6.53702586,6.535688 H 203.47715 c 3.62123,0 6.53568,-2.914451 6.53568,-6.535688 V 6.3959227 c 0,-3.6212365 -2.91445,-6.53699534 -6.53568,-6.53699534 z M 51.019246,9.6624571 c 0.477301,0 0.878576,0.1627361 1.204028,0.4881439 0.325377,0.325408 0.488141,0.715723 0.488141,1.171296 0,0.314552 -0.129665,0.688994 -0.389981,1.12287 -1.171511,1.919892 -2.027978,3.721082 -2.570339,5.402346 -0.531497,1.681263 -0.798296,3.384538 -0.798296,5.109194 0,1.735499 0.266799,3.443634 0.798296,5.124902 0.542361,1.681259 1.398828,3.481142 2.570339,5.401033 0.260266,0.423027 0.389981,0.797463 0.389981,1.122877 0,0.455567 -0.16284,0.84589 -0.488141,1.171288 -0.325452,0.325409 -0.726727,0.488153 -1.204028,0.488153 -0.401301,0 -0.753749,-0.129664 -1.057422,-0.389995 -0.433919,-0.37964 -1.009025,-1.231286 -1.724863,-2.554598 -1.030476,-1.919896 -1.735297,-3.503218 -2.114894,-4.750613 -0.596557,-1.909042 -0.895139,-3.779927 -0.895139,-5.613047 0,-1.898201 0.314461,-3.818032 0.943586,-5.75962 0.466361,-1.431788 1.188352,-3.027444 2.164556,-4.784639 0.705024,-1.258235 1.224998,-2.027851 1.561289,-2.309865 0.336241,-0.2928693 0.710747,-0.4397259 1.122887,-0.4397259 z m 70.955524,0 c 0.40132,0 0.75372,0.130976 1.05742,0.3913009 0.43387,0.368793 1.009,1.220431 1.72489,2.554597 1.03045,1.919892 1.73522,3.497055 2.11486,4.733594 0.59659,1.919898 0.89517,3.792088 0.89517,5.614358 0,1.898202 -0.31446,3.822894 -0.94359,5.775328 -0.46641,1.431789 -1.18837,3.021274 -2.1646,4.767621 -0.70505,1.258234 -1.22503,2.034021 -1.56129,2.326885 -0.33624,0.292861 -0.7107,0.438419 -1.12286,0.438419 -0.47725,0 -0.87858,-0.162738 -1.20398,-0.488153 -0.32538,-0.325398 -0.48822,-0.715721 -0.48822,-1.171288 0,-0.325406 0.12967,-0.69985 0.39006,-1.122877 1.17141,-1.919891 2.02306,-3.719774 2.55456,-5.401033 0.54234,-1.681268 0.81402,-3.389403 0.81402,-5.124902 0,-1.724656 -0.27168,-3.427931 -0.81402,-5.109194 -0.5315,-1.681264 -1.38315,-3.482454 -2.55456,-5.402346 -0.26039,-0.433876 -0.39006,-0.808318 -0.39006,-1.12287 0,-0.455573 0.16284,-0.845888 0.48822,-1.171296 0.3254,-0.3254067 0.72673,-0.4881439 1.20398,-0.4881439 z m 36.98144,0.2931505 h 3.9052 v 7.1102034 c 0.69421,-0.41218 1.39412,-0.715615 2.09917,-0.910857 0.71588,-0.20609 1.43656,-0.308857 2.16329,-0.308857 1.14975,0 2.17516,0.194504 3.07547,0.584995 0.90028,0.390483 1.64299,1.00969 2.22873,1.855746 0.59658,0.835208 0.89514,1.892379 0.89514,3.172305 v 6.263479 c 0.84606,0 1.39913,0.08203 1.65945,0.244716 0.52065,0.336255 0.7813,0.813458 0.7813,1.431725 0,0.488113 -0.16765,0.889456 -0.50387,1.204016 -0.33624,0.303711 -0.90648,0.455431 -1.70916,0.455431 h -3.80704 c -0.79181,0 -1.36076,-0.151723 -1.70784,-0.455431 -0.33627,-0.31456 -0.50516,-0.722075 -0.50516,-1.221026 0,-0.607424 0.26065,-1.07846 0.78128,-1.414715 0.27118,-0.173553 0.82425,-0.255576 1.65945,-0.244716 v -6.03576 c 0,-0.856904 -0.1945,-1.458918 -0.58499,-1.806015 -0.50981,-0.466421 -1.26486,-0.700164 -2.26276,-0.700164 -0.73759,0 -1.39341,0.146857 -1.96829,0.439726 -0.56404,0.282021 -1.32881,0.899921 -2.29417,1.85444 v 6.247773 c 0.8569,0 1.40997,0.08203 1.65945,0.244716 0.53149,0.336255 0.797,0.813458 0.797,1.431725 0,0.488113 -0.17246,0.889456 -0.51957,1.204016 -0.33624,0.303711 -0.90651,0.455431 -1.70916,0.455431 h -3.79133 c -0.80268,0 -1.37647,-0.151723 -1.72358,-0.455431 -0.33624,-0.31456 -0.50515,-0.722075 -0.50515,-1.221026 0,-0.607424 0.2655,-1.07846 0.797,-1.414715 0.26032,-0.173553 0.81471,-0.255576 1.66074,-0.244716 V 13.2915 h -0.5706 c -0.80265,0 -1.37646,-0.151715 -1.72354,-0.455432 -0.33627,-0.314552 -0.50516,-0.722069 -0.50516,-1.221021 0,-0.48811 0.16892,-0.883291 0.50516,-1.187001 0.34708,-0.314553 0.92089,-0.4724384 1.72354,-0.4724384 z M 19.112938,11.321897 h 8.363948 c 1.995841,0 3.601221,0.559231 4.816038,1.676452 1.214817,1.10638 1.821757,2.424204 1.821757,3.953606 0,0.726745 -0.140808,1.410781 -0.422726,2.050747 -0.281969,0.639966 -0.710215,1.230957 -1.285119,1.773296 1.052129,0.629118 1.837635,1.365659 2.358268,2.211715 0.531496,0.835214 0.798321,1.784761 0.798321,2.84775 0,0.846057 -0.190951,1.632865 -0.570624,2.359602 -0.28202,0.553196 -0.628238,0.992466 -1.040403,1.317873 -0.5532,0.455567 -1.231101,0.83 -2.033753,1.122869 -0.802677,0.282014 -1.806004,0.422713 -3.010033,0.422713 h -9.795674 c -0.802652,0 -1.376416,-0.151723 -1.723572,-0.455431 -0.33624,-0.314559 -0.505158,-0.722075 -0.505158,-1.221026 0,-0.488113 0.17373,-0.883287 0.520885,-1.186998 0.347105,-0.314557 0.916057,-0.472443 1.707845,-0.472443 h 0.52086 v -13.04782 h -0.52086 c -0.802652,0 -1.376416,-0.153022 -1.723572,-0.456739 -0.33624,-0.314552 -0.505158,-0.720755 -0.505158,-1.219714 0,-0.498959 0.168918,-0.900297 0.505158,-1.204008 0.347156,-0.314558 0.92092,-0.472444 1.723572,-0.472444 z m 42.254297,0 10.071768,0.01702 c 0.802677,0 1.371629,0.151723 1.707845,0.455432 0.347105,0.303711 0.52091,0.705049 0.52091,1.204008 0,0.498959 -0.173729,0.905162 -0.52091,1.219714 -0.336216,0.303717 -0.905168,0.456738 -1.707845,0.456738 h -3.368585 v 13.047822 h 3.368585 c 0.802677,0 1.371629,0.157877 1.707845,0.472444 0.347105,0.303711 0.52091,0.705057 0.52091,1.204008 0,0.48811 -0.173729,0.889456 -0.52091,1.204013 -0.336216,0.303711 -0.905168,0.455433 -1.707845,0.455433 H 61.367235 c -0.802678,0 -1.377784,-0.151722 -1.724939,-0.455433 -0.336241,-0.314557 -0.503817,-0.722072 -0.503817,-1.221026 0,-0.48811 0.167652,-0.883284 0.503817,-1.186995 0.347155,-0.31456 0.922261,-0.472444 1.724939,-0.472444 h 3.368584 V 14.674808 h -3.368584 c -0.802678,0 -1.377784,-0.153021 -1.724939,-0.456738 -0.336241,-0.314552 -0.503817,-0.720755 -0.503817,-1.219714 0,-0.498959 0.167652,-0.900297 0.503817,-1.204008 0.347155,-0.314559 0.922261,-0.472444 1.724939,-0.472444 z m 19.979987,0 10.07187,0.01702 c 0.802652,0 1.371604,0.151723 1.707845,0.455432 0.347079,0.303711 0.520834,0.705049 0.520834,1.204008 0,0.498959 -0.173729,0.905162 -0.520834,1.219714 -0.336241,0.303717 -0.905193,0.456738 -1.707845,0.456738 h -3.368661 v 13.047822 h 3.368661 c 0.802652,0 1.371604,0.157877 1.707845,0.472444 0.347079,0.303711 0.520834,0.705057 0.520834,1.204008 0,0.48811 -0.173729,0.889456 -0.520834,1.204013 -0.336241,0.303711 -0.905193,0.455433 -1.707845,0.455433 h -10.07187 c -0.802652,0 -1.377758,-0.151722 -1.724863,-0.455433 -0.336215,-0.314557 -0.503867,-0.722072 -0.503867,-1.221026 0,-0.48811 0.167652,-0.883284 0.503867,-1.186995 0.347105,-0.31456 0.922211,-0.472444 1.724863,-0.472444 h 3.368661 V 14.674808 h -3.368661 c -0.802652,0 -1.377758,-0.153021 -1.724863,-0.456738 -0.336215,-0.314552 -0.503867,-0.720755 -0.503867,-1.219714 0,-0.498959 0.167652,-0.900297 0.503867,-1.204008 0.347105,-0.314559 0.922211,-0.472444 1.724863,-0.472444 z m 19.980088,0 10.07177,0.01702 c 0.80268,0 1.3716,0.151723 1.70784,0.455432 0.34716,0.303711 0.52092,0.705049 0.52092,1.204008 0,0.498959 -0.17373,0.905162 -0.52092,1.219714 -0.33624,0.303717 -0.90516,0.456738 -1.70784,0.456738 h -3.36859 v 13.047822 h 3.36859 c 0.80268,0 1.3716,0.157877 1.70784,0.472444 0.34716,0.303711 0.52092,0.705057 0.52092,1.204008 0,0.48811 -0.17373,0.889456 -0.52092,1.204013 -0.33624,0.303711 -0.90516,0.455433 -1.70784,0.455433 h -10.07177 c -0.80275,0 -1.377782,-0.151722 -1.724862,-0.455433 -0.336316,-0.314557 -0.503892,-0.722072 -0.503892,-1.221026 0,-0.48811 0.167652,-0.883284 0.503892,-1.186995 0.34708,-0.31456 0.922112,-0.472444 1.724862,-0.472444 h 3.36859 V 14.674808 h -3.36859 c -0.80275,0 -1.377782,-0.153021 -1.724862,-0.456738 -0.336316,-0.314552 -0.503892,-0.720755 -0.503892,-1.219714 0,-0.498959 0.167652,-0.900297 0.503892,-1.204008 0.34708,-0.314559 0.922112,-0.472444 1.724862,-0.472444 z m 37.6986,0 7.54864,0.01702 c 2.35376,0 4.17701,0.586134 5.46777,1.757597 1.30164,1.160615 1.95259,2.575027 1.95259,4.245443 0,1.041297 -0.30474,1.99085 -0.91216,2.847748 -0.60742,0.846056 -1.52391,1.599791 -2.74961,2.261446 0.70505,0.618277 1.4588,1.409938 2.26145,2.375303 0.49898,0.618278 1.17199,1.583707 2.01802,2.896177 0.84606,0 1.404,0.08689 1.67515,0.26043 0.48812,0.336256 0.73288,0.808601 0.73288,1.416022 0,0.48811 -0.16765,0.889456 -0.50384,1.204013 -0.33626,0.303711 -0.90651,0.455433 -1.70918,0.455433 h -1.90285 c -2.70087,-4.176043 -4.94135,-6.686867 -6.72023,-7.532925 h -3.30317 v 4.197027 h 1.204 c 0.80268,0 1.37293,0.157877 1.70919,0.472444 0.34711,0.303711 0.51954,0.705057 0.51954,1.204008 0,0.48811 -0.17246,0.889456 -0.51954,1.204013 -0.33626,0.303711 -0.90651,0.455433 -1.70919,0.455433 h -5.05946 c -0.80267,0 -1.37778,-0.151722 -1.72486,-0.455433 -0.33627,-0.314557 -0.50387,-0.722072 -0.50387,-1.221026 0,-0.48811 0.17247,-0.883284 0.51957,-1.186995 0.34708,-0.31456 0.91735,-0.472444 1.70916,-0.472444 h 0.52086 V 14.674808 h -0.52086 c -0.80267,0 -1.37778,-0.153021 -1.72486,-0.456738 -0.33627,-0.314552 -0.50387,-0.720755 -0.50387,-1.219714 0,-0.498959 0.16765,-0.900297 0.50387,-1.204008 0.34708,-0.314559 0.92219,-0.472444 1.72486,-0.472444 z M 22.969739,14.674802 v 4.847456 h 3.660455 c 1.312445,0 2.402713,-0.330345 3.270425,-0.992001 0.585692,-0.444724 0.878171,-0.997784 0.878171,-1.65944 0,-0.585731 -0.2766,-1.096007 -0.829724,-1.529877 -0.5532,-0.444724 -1.4317,-0.666138 -2.635729,-0.666138 z m 119.911631,0 v 5.514895 h 2.60301 c 0.96539,0 1.82804,-0.146858 2.58733,-0.439726 1.01959,-0.390483 1.70364,-0.801544 2.05075,-1.23542 0.35794,-0.433876 0.53656,-0.86343 0.53656,-1.286458 0,-0.629118 -0.33652,-1.209081 -1.00903,-1.740584 -0.67248,-0.542339 -1.6538,-0.812707 -2.94459,-0.812707 z m 36.4619,5.401038 h 13.92728 v 3.042749 H 179.34327 Z M 22.969739,22.858151 v 4.864471 h 5.759623 c 1.355852,0 2.310302,-0.200676 2.863426,-0.602007 0.423004,-0.30371 0.634747,-0.736817 0.634747,-1.300851 0,-0.672512 -0.417256,-1.334504 -1.252476,-1.985312 -0.835169,-0.650814 -2.03436,-0.976301 -3.596333,-0.976301 z"
       id="rect276-2-6-7-0-1" />
  </g>
</svg>
