<?xml version="1.0" encoding="UTF-8" standalone="no"?>
<!-- Created with Inkscape (http://www.inkscape.org/) -->

<svg
   xmlns:dc="http://purl.org/dc/elements/1.1/"
   xmlns:cc="http://creativecommons.org/ns#"
   xmlns:rdf="http://www.w3.org/1999/02/22-rdf-syntax-ns#"
   xmlns:svg="http://www.w3.org/2000/svg"
   xmlns="http://www.w3.org/2000/svg"
   xmlns:sodipodi="http://sodipodi.sourceforge.net/DTD/sodipodi-0.dtd"
   xmlns:inkscape="http://www.inkscape.org/namespaces/inkscape"
   width="210mm"
   height="297mm"
   viewBox="0 0 210 297"
   version="1.1"
   id="svg5077"
   inkscape:version="0.92.3 (2405546, 2018-03-11)"
   sodipodi:docname="O+.svg">
  <defs
     id="defs5071" />
  <sodipodi:namedview
     id="base"
     pagecolor="#ffffff"
     bordercolor="#666666"
     borderopacity="1.0"
     inkscape:pageopacity="0.0"
     inkscape:pageshadow="2"
     inkscape:zoom="0.35"
     inkscape:cx="-111.42857"
     inkscape:cy="560"
     inkscape:document-units="mm"
     inkscape:current-layer="layer1"
     showgrid="false"
     inkscape:window-width="1920"
     inkscape:window-height="1017"
     inkscape:window-x="-8"
     inkscape:window-y="-8"
     inkscape:window-maximized="1" />
  <metadata
     id="metadata5074">
    <rdf:RDF>
      <cc:Work
         rdf:about="">
        <dc:format>image/svg+xml</dc:format>
        <dc:type
           rdf:resource="http://purl.org/dc/dcmitype/StillImage" />
        <dc:title></dc:title>
      </cc:Work>
    </rdf:RDF>
  </metadata>
  <g
     inkscape:label="Layer 1"
     inkscape:groupmode="layer"
     id="layer1">
    <path
       inkscape:connector-curvature="0"
       style="fill:#000000;stroke-width:0.57191253"
       d="m 6.7257312,0.61487971 c -3.6473111,0 -6.58406286,2.93543559 -6.58406286,6.58273909 V 40.572688 c 0,3.647311 2.93675176,6.584063 6.58406286,6.584063 H 204.94095 c 3.6473,0 6.58405,-2.936752 6.58405,-6.584063 V 7.1976188 c 0,-3.6473035 -2.93675,-6.58273909 -6.58405,-6.58273909 z M 70.55093,10.488997 c 0.480699,0 0.884933,0.163911 1.212682,0.491657 0.327744,0.327752 0.491665,0.720885 0.491665,1.17973 0,0.316824 -0.130597,0.693956 -0.392808,1.130956 -1.179898,1.93372 -2.04256,3.746558 -2.588803,5.439926 -0.535331,1.69337 -0.804062,3.408914 -0.804062,5.145983 0,1.747993 0.268731,3.468424 0.804062,5.161801 0.546243,1.693361 1.408905,3.50752 2.588803,5.441243 0.2622,0.426065 0.392808,0.803205 0.392808,1.130954 0,0.458847 -0.16391,0.851973 -0.491665,1.179722 -0.327749,0.327751 -0.731983,0.491667 -1.212682,0.491667 -0.40422,0 -0.759143,-0.131924 -1.065048,-0.39412 -0.436993,-0.382373 -1.016245,-1.240151 -1.737295,-2.572991 -1.03787,-1.933719 -1.747725,-3.528441 -2.130099,-4.784818 -0.600869,-1.922787 -0.901604,-3.807142 -0.901604,-5.653458 0,-1.91187 0.31673,-3.845524 0.950377,-5.801091 0.469772,-1.442103 1.196939,-3.047933 2.18019,-4.817773 0.710123,-1.267294 1.233853,-2.043769 1.572523,-2.327812 0.338668,-0.294985 0.715808,-0.441576 1.130956,-0.441576 z m 31.21861,0 c 0.40423,0 0.75915,0.130598 1.06505,0.392801 0.437,0.371448 1.01625,1.229219 1.7373,2.572991 1.03787,1.933723 1.74773,3.523557 2.1301,4.768998 0.60088,1.933718 0.9016,3.81807 0.9016,5.653462 0,1.911868 -0.31672,3.850416 -0.95037,5.81691 -0.46978,1.442095 -1.19694,3.043033 -2.18018,4.801946 -0.71013,1.267294 -1.23386,2.048666 -1.57254,2.343639 -0.33867,0.29497 -0.71581,0.442892 -1.13096,0.442892 -0.4807,0 -0.88493,-0.16391 -1.21269,-0.491667 -0.32775,-0.327749 -0.49165,-0.720875 -0.49165,-1.179722 0,-0.327749 0.1306,-0.704889 0.3928,-1.130954 1.1799,-1.933723 2.03766,-3.747882 2.573,-5.441243 0.54624,-1.693377 0.81988,-3.413808 0.81988,-5.161801 0,-1.737069 -0.27364,-3.452613 -0.81988,-5.145983 -0.53534,-1.693368 -1.3931,-3.506206 -2.573,-5.439926 -0.2622,-0.437 -0.3928,-0.814132 -0.3928,-1.130956 0,-0.458845 0.16391,-0.851978 0.49165,-1.17973 0.32776,-0.327748 0.73199,-0.491657 1.21269,-0.491657 z m 37.24906,0.295261 h 3.93198 v 7.161404 c 0.6992,-0.415147 1.40416,-0.722091 2.11428,-0.918737 0.72105,-0.207579 1.44822,-0.311081 2.18018,-0.311081 1.15805,0 2.18952,0.197223 3.0963,0.590521 0.90677,0.393296 1.65615,1.015646 2.2461,1.867794 0.60086,0.84122 0.90027,1.906004 0.90027,3.195144 v 6.309891 c 0.85215,0 1.40919,0.08129 1.67139,0.245177 0.5244,0.338677 0.78693,0.819316 0.78693,1.442034 0,0.491627 -0.1688,0.895861 -0.50748,1.212686 -0.33867,0.305897 -0.91303,0.458712 -1.72149,0.458712 h -3.83444 c -0.79751,0 -1.37055,-0.152815 -1.72015,-0.458712 -0.33868,-0.316825 -0.5088,-0.725951 -0.5088,-1.228498 0,-0.611801 0.26252,-1.087545 0.78693,-1.426222 0.27311,-0.174802 0.83016,-0.256099 1.67138,-0.245177 v -6.080531 c 0,-0.863075 -0.19589,-1.469424 -0.5892,-1.819026 -0.51347,-0.469772 -1.27263,-0.703876 -2.27774,-0.703876 -0.74289,0 -1.40475,0.146591 -1.98377,0.441569 -0.56811,0.284052 -1.33837,0.90771 -2.31069,1.869109 v 6.292755 c 0.86308,0 1.42011,0.08129 1.67139,0.245177 0.53532,0.338677 0.80406,0.819316 0.80406,1.442034 0,0.491627 -0.17501,0.895861 -0.52462,1.212686 -0.33867,0.305897 -0.91302,0.458712 -1.72148,0.458712 h -3.8173 c -0.80845,0 -1.38769,-0.152815 -1.73731,-0.458712 -0.33866,-0.316825 -0.50878,-0.725951 -0.50878,-1.228498 0,-0.611801 0.26873,-1.087545 0.80405,-1.426222 0.2622,-0.174802 0.81925,-0.256099 1.6714,-0.245177 V 14.142853 h -0.57339 c -0.80846,0 -1.38771,-0.152814 -1.7373,-0.458712 -0.33867,-0.316822 -0.5088,-0.725946 -0.5088,-1.228496 0,-0.491617 0.17013,-0.890961 0.5088,-1.196863 0.34959,-0.316817 0.92884,-0.474524 1.7373,-0.474524 z m -93.212932,0.884461 c 2.490891,0 4.682181,0.994588 6.572198,2.982935 1.900942,1.977414 2.851117,4.461907 2.851117,7.455344 0,2.982515 -0.950175,5.468318 -2.851117,7.456665 -1.890017,1.977414 -4.081307,2.965792 -6.572198,2.965792 -2.239619,0 -4.260787,-0.824462 -6.063406,-2.474127 -2.228692,-2.042971 -3.342776,-4.69269 -3.342776,-7.94833 0,-3.255635 1.114084,-5.910255 3.342776,-7.964145 1.802619,-1.649669 3.823787,-2.474127 6.063406,-2.474134 z m 35.16772,0.491665 10.144335,0.01582 c 0.808449,0 1.38149,0.152815 1.720162,0.458712 0.349602,0.305898 0.524618,0.710131 0.524618,1.212677 0,0.502552 -0.175006,0.912988 -0.524618,1.229818 -0.338672,0.305897 -0.911713,0.458705 -1.720162,0.458705 h -3.392868 v 13.143079 h 3.392868 c 0.808449,0 1.38149,0.157712 1.720162,0.474532 0.349602,0.305897 0.524618,0.710131 0.524618,1.212677 0,0.491624 -0.175006,0.895861 -0.524618,1.212683 -0.338672,0.305896 -0.911713,0.458711 -1.720162,0.458711 H 80.973388 c -0.808442,0 -1.387686,-0.152815 -1.73729,-0.458711 -0.33867,-0.316822 -0.507486,-0.725951 -0.507486,-1.228495 0,-0.491626 0.168808,-0.890968 0.507486,-1.196865 0.349604,-0.316825 0.928848,-0.474532 1.73729,-0.474532 H 84.36626 V 15.536112 h -3.392872 c -0.808442,0 -1.387686,-0.152815 -1.73729,-0.458704 -0.33867,-0.31683 -0.507486,-0.727267 -0.507486,-1.229818 0,-0.502544 0.168808,-0.90678 0.507486,-1.212677 0.349604,-0.316822 0.928848,-0.474529 1.73729,-0.474529 z m 37.970072,0 7.6043,0.01582 c 2.37071,0 4.20576,0.590348 5.50583,1.770246 1.311,1.16897 1.96665,2.594897 1.96665,4.277341 0,1.048795 -0.30694,2.005176 -0.91873,2.868252 -0.6118,0.85214 -1.53487,1.611301 -2.76939,2.277728 0.71011,0.622721 1.47059,1.420082 2.27905,2.392406 0.50254,0.622722 1.17908,1.595098 2.03123,2.917018 0.85214,0 1.4154,0.08751 1.68853,0.262316 0.49162,0.338669 0.73683,0.813099 0.73683,1.424893 0,0.491624 -0.16881,0.895861 -0.50748,1.212683 -0.33868,0.305896 -0.91303,0.458711 -1.72148,0.458711 h -1.91656 c -2.72032,-4.206137 -4.97691,-6.735042 -6.7686,-7.587183 h -3.32696 v 4.228558 h 1.21268 c 0.80844,0 1.3828,0.157712 1.72149,0.474531 0.34959,0.305898 0.52461,0.710131 0.52461,1.212677 0,0.491625 -0.17501,0.89586 -0.52461,1.212682 -0.33869,0.305898 -0.91305,0.458712 -1.72149,0.458712 h -5.0959 c -0.80844,0 -1.38769,-0.152814 -1.73729,-0.458712 -0.33867,-0.316822 -0.50748,-0.72595 -0.50748,-1.228494 0,-0.491627 0.17501,-0.890967 0.52462,-1.196865 0.3496,-0.316824 0.92263,-0.474531 1.72015,-0.474531 h 0.52463 v -13.14308 h -0.52463 c -0.80844,0 -1.38769,-0.152815 -1.73729,-0.458705 -0.33867,-0.316829 -0.50748,-0.727266 -0.50748,-1.229817 0,-0.502544 0.16881,-0.906781 0.50748,-1.212677 0.3496,-0.316823 0.92885,-0.474529 1.73729,-0.474529 z m 47.60562,0.80274 c 0.50254,0 0.90678,0.175006 1.21267,0.524621 0.31682,0.338668 0.47453,0.911712 0.47453,1.720161 l -0.0158,5.604687 h 4.80196 c 0.80844,0 1.38148,0.152815 1.72015,0.458709 0.3496,0.305898 0.52462,0.710134 0.52462,1.212686 0,0.502543 -0.17503,0.912988 -0.52462,1.22981 -0.33864,0.305897 -0.91169,0.458712 -1.72013,0.458712 h -4.80195 v 5.620505 c 0,0.808449 -0.15281,1.387701 -0.45871,1.737295 -0.3059,0.338677 -0.71014,0.507488 -1.21267,0.507488 -0.50255,0 -0.913,-0.168808 -1.22983,-0.507488 -0.30589,-0.349594 -0.45871,-0.928846 -0.45871,-1.737295 V 24.17251 h -4.80063 c -0.80845,0 -1.38769,-0.152815 -1.73729,-0.458712 -0.33868,-0.316822 -0.5088,-0.727267 -0.5088,-1.22981 0,-0.502552 0.17013,-0.906788 0.5088,-1.212686 0.3496,-0.316822 0.92884,-0.469629 1.73729,-0.458709 h 4.80063 v -5.604687 c 0,-0.797524 0.15282,-1.370564 0.45871,-1.720161 0.31683,-0.349604 0.72728,-0.524621 1.22983,-0.524621 z M 45.805668,15.028636 c -1.562266,0 -2.959775,0.67165 -4.194288,2.015424 -1.234525,1.343766 -1.851982,3.030898 -1.851982,5.062938 0,2.032044 0.617457,3.720487 1.851982,5.064258 1.234513,1.33284 2.632022,1.999603 4.194288,1.999603 1.573199,0 2.978224,-0.666763 4.212746,-1.999603 1.234522,-1.332846 1.85065,-3.021287 1.85065,-5.064258 0,-2.042966 -0.616128,-3.730093 -1.85065,-5.062938 -1.234522,-1.343774 -2.639547,-2.015424 -4.212746,-2.015424 z m 77.021012,0.507479 v 5.555927 h 2.62309 c 0.9723,0 1.83987,-0.147918 2.60461,-0.442893 1.02695,-0.393296 1.71592,-0.808637 2.06552,-1.245637 0.36052,-0.437 0.54043,-0.868334 0.54043,-1.294405 0,-0.633648 -0.33894,-1.217795 -1.01628,-1.75311 -0.67735,-0.546252 -1.66571,-0.819882 -2.96579,-0.819882 z"
       id="rect276-2-6-7-0-2-0-4" />
  </g>
</svg>
