<?xml version="1.0" encoding="UTF-8" standalone="no"?>
<!-- Created with Inkscape (http://www.inkscape.org/) -->

<svg
   xmlns:dc="http://purl.org/dc/elements/1.1/"
   xmlns:cc="http://creativecommons.org/ns#"
   xmlns:rdf="http://www.w3.org/1999/02/22-rdf-syntax-ns#"
   xmlns:svg="http://www.w3.org/2000/svg"
   xmlns="http://www.w3.org/2000/svg"
   xmlns:sodipodi="http://sodipodi.sourceforge.net/DTD/sodipodi-0.dtd"
   xmlns:inkscape="http://www.inkscape.org/namespaces/inkscape"
   width="210mm"
   height="297mm"
   viewBox="0 0 210 297"
   version="1.1"
   id="svg5100"
   inkscape:version="0.92.3 (2405546, 2018-03-11)"
   sodipodi:docname="O-.svg">
  <defs
     id="defs5094" />
  <sodipodi:namedview
     id="base"
     pagecolor="#ffffff"
     bordercolor="#666666"
     borderopacity="1.0"
     inkscape:pageopacity="0.0"
     inkscape:pageshadow="2"
     inkscape:zoom="0.35"
     inkscape:cx="-111.42857"
     inkscape:cy="560"
     inkscape:document-units="mm"
     inkscape:current-layer="layer1"
     showgrid="false"
     inkscape:window-width="1920"
     inkscape:window-height="1017"
     inkscape:window-x="-8"
     inkscape:window-y="-8"
     inkscape:window-maximized="1" />
  <metadata
     id="metadata5097">
    <rdf:RDF>
      <cc:Work
         rdf:about="">
        <dc:format>image/svg+xml</dc:format>
        <dc:type
           rdf:resource="http://purl.org/dc/dcmitype/StillImage" />
        <dc:title></dc:title>
      </cc:Work>
    </rdf:RDF>
  </metadata>
  <g
     inkscape:label="Layer 1"
     inkscape:groupmode="layer"
     id="layer1">
    <path
       inkscape:connector-curvature="0"
       style="fill:#000000;stroke-width:0.57191253"
       d="m 5.9697782,-0.14133171 c -3.6473085,0 -6.58406287,2.93675191 -6.58406287,6.58406291 V 39.817812 c 0,3.6473 2.93675437,6.584042 6.58406287,6.584042 H 204.18498 c 3.64731,0 6.58406,-2.936742 6.58406,-6.584042 V 6.4427312 c 0,-3.647311 -2.93675,-6.58406291 -6.58406,-6.58406291 z M 70.639904,9.7340996 c 0.480699,0 0.884927,0.1639105 1.212677,0.4916654 0.327752,0.327751 0.490352,0.720877 0.490352,1.179729 0,0.316817 -0.130598,0.693956 -0.392809,1.130956 -1.179898,1.933715 -2.04256,3.746558 -2.588806,5.439927 -0.535328,1.693369 -0.802746,3.408909 -0.802746,5.145982 0,1.747998 0.267418,3.46842 0.802746,5.161803 0.546246,1.69336 1.408908,3.507522 2.588806,5.441237 0.262198,0.426074 0.392809,0.801875 0.392809,1.129645 0,0.458826 -0.16261,0.853298 -0.490352,1.181042 -0.32775,0.327745 -0.731978,0.491656 -1.212677,0.491656 -0.404226,0 -0.760469,-0.131873 -1.066367,-0.394116 -0.437,-0.38238 -1.014936,-1.240143 -1.735981,-2.573006 -1.03787,-1.933715 -1.749042,-3.528436 -2.131415,-4.784802 -0.60087,-1.922798 -0.900281,-3.807155 -0.900281,-5.653459 0,-1.91187 0.316723,-3.845528 0.950369,-5.801098 0.469772,-1.442088 1.195623,-3.047918 2.178874,-4.817766 0.710119,-1.267293 1.23517,-2.043767 1.573847,-2.327819 0.338669,-0.2949702 0.715809,-0.4415764 1.130954,-0.4415764 z m 31.217286,0 c 0.40422,0 0.75914,0.1305978 1.06504,0.3928084 0.43701,0.371449 1.01626,1.229219 1.7373,2.572991 1.03788,1.933715 1.74773,3.523552 2.1301,4.768994 0.60087,1.933722 0.90161,3.818067 0.90161,5.653466 0,1.911858 -0.31672,3.850419 -0.95037,5.816911 -0.46978,1.442085 -1.19695,3.04303 -2.18019,4.801942 -0.71013,1.267309 -1.23386,2.048652 -1.57254,2.343644 -0.33867,0.294968 -0.71581,0.442886 -1.13095,0.442886 -0.4807,0 -0.88493,-0.164013 -1.21268,-0.491656 -0.32775,-0.327744 -0.49166,-0.722216 -0.49166,-1.181042 0,-0.32777 0.13192,-0.703571 0.39412,-1.129645 1.17989,-1.933715 2.03634,-3.747877 2.57167,-5.441237 0.54624,-1.693383 0.81988,-3.413805 0.81988,-5.161803 0,-1.737068 -0.27364,-3.452613 -0.81988,-5.145982 -0.53533,-1.693369 -1.39178,-3.506212 -2.57167,-5.439927 -0.2622,-0.437 -0.39412,-0.814139 -0.39412,-1.130956 0,-0.458852 0.16391,-0.851978 0.49166,-1.179729 0.32775,-0.3277422 0.73198,-0.4916654 1.21268,-0.4916654 z m 37.24905,0.2939444 h 3.93331 v 7.161407 c 0.69919,-0.415147 1.40283,-0.720769 2.11296,-0.917423 0.72104,-0.207555 1.44821,-0.311074 2.18018,-0.311074 1.15805,0 2.19084,0.195897 3.09761,0.589201 0.90677,0.3933 1.65483,1.016966 2.24478,1.869106 0.60087,0.84123 0.9016,1.906012 0.9016,3.195153 v 6.309891 c 0.85215,0 1.40919,0.08136 1.6714,0.245126 0.52439,0.338662 0.78559,0.819322 0.78559,1.442034 0,0.49163 -0.1688,0.89587 -0.50747,1.212672 -0.33868,0.30591 -0.91172,0.458725 -1.72017,0.458725 h -3.83576 c -0.79752,0 -1.37055,-0.15279 -1.72016,-0.458725 -0.33867,-0.316802 -0.50748,-0.72594 -0.50748,-1.228487 0,-0.611794 0.26121,-1.087557 0.78561,-1.426219 0.27312,-0.174726 0.83016,-0.256094 1.6714,-0.245126 v -6.080539 c 0,-0.863068 -0.19591,-1.469422 -0.58922,-1.819019 -0.51347,-0.469772 -1.27263,-0.703881 -2.27773,-0.703881 -0.74289,0 -1.40344,0.146591 -1.98247,0.441574 -0.56809,0.284053 -1.33835,0.907711 -2.31067,1.86911 v 6.292755 c 0.86307,0 1.42011,0.08136 1.67138,0.245126 0.53533,0.338662 0.80275,0.819322 0.80275,1.442034 0,0.49163 -0.17501,0.89587 -0.52463,1.212672 -0.33866,0.30591 -0.91171,0.458725 -1.72015,0.458725 h -3.81862 c -0.80845,0 -1.3877,-0.15279 -1.7373,-0.458725 -0.33868,-0.316802 -0.50748,-0.72594 -0.50748,-1.228487 0,-0.611794 0.26742,-1.087557 0.80274,-1.426219 0.2622,-0.174726 0.81924,-0.256094 1.67139,-0.245126 V 13.387963 h -0.57339 c -0.80844,0 -1.3877,-0.152814 -1.73729,-0.458712 -0.33868,-0.316822 -0.50749,-0.72595 -0.50749,-1.228494 0,-0.491626 0.16881,-0.890968 0.50749,-1.196865 0.34959,-0.316825 0.92885,-0.475848 1.73729,-0.475848 z m -93.211603,0.885785 c 2.490898,0 4.680865,0.993265 6.570881,2.981612 1.90095,1.977414 2.851118,4.463223 2.851118,7.456668 0,2.982517 -0.950168,5.468312 -2.851118,7.456664 -1.890016,1.977409 -4.079983,2.965795 -6.570881,2.965795 -2.239612,0 -4.260789,-0.824475 -6.063401,-2.47414 -2.228693,-2.042963 -3.342784,-4.692695 -3.342784,-7.948319 0,-3.255635 1.114091,-5.910255 3.342784,-7.964146 1.802612,-1.649669 3.823789,-2.474134 6.063401,-2.474134 z m 35.166406,0.491665 10.144333,0.01581 c 0.808449,0 1.381492,0.152815 1.720161,0.458713 0.349602,0.305905 0.524621,0.710133 0.524621,1.212684 0,0.502544 -0.175007,0.912989 -0.524621,1.229811 -0.338669,0.305897 -0.911712,0.458711 -1.720161,0.458711 h -3.391552 v 13.143078 h 3.391552 c 0.808449,0 1.381492,0.157636 1.720161,0.474539 0.349602,0.305885 0.524621,0.710126 0.524621,1.212672 0,0.49163 -0.175007,0.89587 -0.524621,1.212672 -0.338669,0.30591 -0.911712,0.458725 -1.720161,0.458725 H 81.061043 c -0.808444,0 -1.38638,-0.152789 -1.735977,-0.458725 -0.338674,-0.316802 -0.508801,-0.72594 -0.508801,-1.228487 0,-0.491629 0.170135,-0.890972 0.508801,-1.196857 0.349597,-0.316827 0.927533,-0.474539 1.735977,-0.474539 h 3.392872 v -13.14305 h -3.392872 c -0.808444,0 -1.38638,-0.152815 -1.735977,-0.458712 -0.338674,-0.316823 -0.508801,-0.727267 -0.508801,-1.229811 0,-0.502551 0.170135,-0.90678 0.508801,-1.212685 0.349597,-0.316817 0.927533,-0.474524 1.735977,-0.474524 z m 37.970067,0 7.6043,0.01581 c 2.37071,0 4.20576,0.590356 5.50583,1.770253 1.31099,1.168971 1.96666,2.59489 1.96666,4.277334 0,1.048799 -0.30564,2.003863 -0.91743,2.866936 -0.6118,0.85214 -1.53486,1.611304 -2.76939,2.27773 0.71013,0.62272 1.46929,1.421404 2.27773,2.39372 0.50255,0.622738 1.1791,1.595103 2.03123,2.917024 0.85215,0 1.4154,0.08621 1.68854,0.260992 0.49162,0.338661 0.73683,0.814424 0.73683,1.426219 0,0.49163 -0.16881,0.89587 -0.50748,1.212672 -0.33868,0.30591 -0.91172,0.458725 -1.72016,0.458725 h -1.91789 c -2.72031,-4.206117 -4.9769,-6.73502 -6.7686,-7.587168 h -3.32564 v 4.22856 h 1.21268 c 0.80846,0 1.38149,0.157636 1.72017,0.474539 0.3496,0.305885 0.52461,0.710126 0.52461,1.212672 0,0.49163 -0.17501,0.89587 -0.52461,1.212672 -0.33868,0.30591 -0.91171,0.458725 -1.72017,0.458725 h -5.09721 c -0.80844,0 -1.38769,-0.152789 -1.7373,-0.458725 -0.33866,-0.316802 -0.50747,-0.72594 -0.50747,-1.228487 0,-0.491629 0.175,-0.890972 0.52462,-1.196857 0.34959,-0.316827 0.92263,-0.474539 1.72015,-0.474539 h 0.52462 v -13.14305 h -0.52462 c -0.80844,0 -1.38769,-0.152815 -1.7373,-0.458712 -0.33866,-0.316823 -0.50747,-0.727267 -0.50747,-1.229811 0,-0.502551 0.16881,-0.90678 0.50747,-1.212685 0.34961,-0.316817 0.92886,-0.474524 1.7373,-0.474524 z m -73.136473,2.866931 c -1.562266,0 -2.961084,0.672966 -4.195607,2.016746 -1.234525,1.343765 -1.851983,3.030892 -1.851983,5.062938 0,2.032043 0.617458,3.720496 1.851983,5.06425 1.234523,1.332838 2.633341,1.9983 4.195607,1.9983 1.573198,0 2.976908,-0.665462 4.21143,-1.9983 1.234524,-1.332836 1.851974,-3.021288 1.851974,-5.06425 0,-2.042966 -0.61745,-3.730098 -1.851974,-5.062938 -1.234522,-1.34378 -2.638232,-2.016746 -4.21143,-2.016746 z m 77.021003,0.5088 v 5.554603 h 2.62177 c 0.97231,0 1.84119,-0.14659 2.60595,-0.441576 1.02694,-0.393294 1.71458,-0.80863 2.06419,-1.24563 0.36051,-0.437 0.54043,-0.868333 0.54043,-1.294406 0,-0.633646 -0.33762,-1.219108 -1.01497,-1.754433 -0.67734,-0.546248 -1.66704,-0.818558 -2.9671,-0.818558 z m 36.72444,5.439927 h 14.02755 v 3.064651 h -14.02755 z"
       id="rect276-2-6-7-0-2-9-0" />
  </g>
</svg>
