<?xml version="1.0" encoding="iso-8859-1"?>
<!-- Generator: Adobe Illustrator 16.0.0, SVG Export Plug-In . SVG Version: 6.00 Build 0)  -->
<!DOCTYPE svg PUBLIC "-//W3C//DTD SVG 1.1//EN" "http://www.w3.org/Graphics/SVG/1.1/DTD/svg11.dtd">
<svg version="1.1" id="Capa_1" xmlns="http://www.w3.org/2000/svg" xmlns:xlink="http://www.w3.org/1999/xlink" x="0px" y="0px"
	 width="445.743px" height="445.742px" viewBox="0 0 445.743 445.742" style="enable-background:new 0 0 445.743 445.742;"
	 xml:space="preserve">
<g>
	<path d="M387.811,297.258c-0.101-1.395-0.171-2.772-0.325-4.214c-1.017-10.516,5.888-13.802,12.496-18.176
		c3.718-2.459,5.083-5.675,4.699-10.001c-1.212-13.477-29.188-22.449-18.679-36.499h32.173V31.486H109.935v53.947h20.253v-38.76
		H397.93v164.807H130.188v-52.707h-20.253v69.594h116.998v15.268c-25.667,1.288-43.275,3.912-43.275,6.939
		c0,4.297,35.485,7.778,79.284,7.778c43.78,0,79.281-3.476,79.281-7.778c0-2.944-16.574-5.498-41.033-6.821v-15.38H379.5
		c-4.03,9.168,2.813,18.004,10.812,26.014c3.269,3.28,13.452,11.212,4.764,16.951c-3.528,2.335-6.419,4.273-9.138,7.578
		c-4.48,5.455-4.232,11.863-3.854,18.341H82.373v116.998h363.37V297.258H387.811z M432.249,400.755H95.875v-89.997h336.373V400.755z
		 M134.686,338.314H116.12v-18.56h18.566V338.314z M164.216,338.314h-18.557v-18.56h18.557V338.314z M194.588,338.314h-18.56v-18.56
		h18.56V338.314z M224.119,338.314h-18.557v-18.56h18.557V338.314z M255.333,338.314H236.78v-18.56h18.554V338.314z M284.87,338.314
		h-18.56v-18.56h18.56V338.314z M315.256,338.314h-18.571v-18.56h18.571V338.314z M344.787,338.314h-18.565v-18.56h18.565V338.314z
		 M122.022,365.03h-18.551v-18.56h18.551V365.03z M151.558,365.03h-18.562v-18.56h18.557v18.56H151.558z M181.931,365.03h-18.563
		v-18.56h18.563V365.03z M211.46,365.03h-18.557v-18.56h18.557V365.03z M242.684,365.03h-18.565v-18.56h18.565V365.03z
		 M272.214,365.03h-18.565v-18.56h18.565V365.03z M302.59,365.03h-18.555v-18.56h18.555V365.03z M332.121,365.03h-18.555v-18.56
		h18.555V365.03z M398.716,365.03h-18.56v-18.56h18.56V365.03z M396.53,371.22h18.548v18.56H396.53V371.22z M364.47,371.22h18.56
		v18.56h-18.56V371.22z M109.784,374.595h18.563v18.56h-18.563V374.595z M139.32,374.595h18.572v18.56H139.32V374.595z
		 M169.704,374.595h18.557v18.56h-18.557V374.595z M199.229,374.595h18.565v18.56h-18.565V374.595z M230.455,374.595h18.555v18.56
		h-18.555V374.595z M259.979,374.595h18.56v18.56h-18.56V374.595z M290.361,374.595h18.548v18.56h-18.548V374.595z M319.878,374.595
		h18.572v18.56h-18.572V374.595z M390.117,316.97h-28.301v10.221h28.301V316.97z M388.751,325.825h-25.57v-7.501h25.582v7.501
		H388.751z M424.145,316.97h-28.289v10.221h28.289V316.97z M422.797,325.825h-25.6v-7.501h25.6V325.825z M83.708,183.269
		c-1.15,0.872-2.734,0.866-3.883-0.018L1.268,122.852C0.467,122.252,0,121.315,0,120.316s0.467-1.939,1.253-2.536l78.562-60.405
		c0.571-0.438,1.268-0.656,1.951-0.656c0.677,0,1.363,0.213,1.93,0.644c1.144,0.863,1.581,2.395,1.055,3.727l-15.805,39.995h92.581
		c1.776,0,3.203,1.437,3.203,3.198v32.048c0,1.773-1.427,3.207-3.203,3.207H68.952l15.805,39.995
		C85.29,180.878,84.852,182.397,83.708,183.269z"/>
</g>
<g>
</g>
<g>
</g>
<g>
</g>
<g>
</g>
<g>
</g>
<g>
</g>
<g>
</g>
<g>
</g>
<g>
</g>
<g>
</g>
<g>
</g>
<g>
</g>
<g>
</g>
<g>
</g>
<g>
</g>
</svg>
