<?xml version="1.0" encoding="UTF-8" standalone="no"?>
<!-- Created with Inkscape (http://www.inkscape.org/) -->

<svg
   xmlns:dc="http://purl.org/dc/elements/1.1/"
   xmlns:cc="http://creativecommons.org/ns#"
   xmlns:rdf="http://www.w3.org/1999/02/22-rdf-syntax-ns#"
   xmlns:svg="http://www.w3.org/2000/svg"
   xmlns="http://www.w3.org/2000/svg"
   xmlns:sodipodi="http://sodipodi.sourceforge.net/DTD/sodipodi-0.dtd"
   xmlns:inkscape="http://www.inkscape.org/namespaces/inkscape"
   width="210mm"
   height="297mm"
   viewBox="0 0 210 297"
   version="1.1"
   id="svg179"
   inkscape:version="0.92.3 (2405546, 2018-03-11)"
   sodipodi:docname="BC.svg">
  <defs
     id="defs173" />
  <sodipodi:namedview
     id="base"
     pagecolor="#ffffff"
     bordercolor="#666666"
     borderopacity="1.0"
     inkscape:pageopacity="0.0"
     inkscape:pageshadow="2"
     inkscape:zoom="0.35"
     inkscape:cx="11.428571"
     inkscape:cy="560"
     inkscape:document-units="mm"
     inkscape:current-layer="layer1"
     showgrid="false"
     inkscape:window-width="1920"
     inkscape:window-height="1017"
     inkscape:window-x="-8"
     inkscape:window-y="-8"
     inkscape:window-maximized="1" />
  <metadata
     id="metadata176">
    <rdf:RDF>
      <cc:Work
         rdf:about="">
        <dc:format>image/svg+xml</dc:format>
        <dc:type
           rdf:resource="http://purl.org/dc/dcmitype/StillImage" />
        <dc:title></dc:title>
      </cc:Work>
    </rdf:RDF>
  </metadata>
  <g
     inkscape:label="Layer 1"
     inkscape:groupmode="layer"
     id="layer1">
    <path
       inkscape:connector-curvature="0"
       style="fill:#000000;stroke-width:0.29096219"
       d="m 21.720896,0.95827381 c -11.607588,0 -21.02146248,9.24644019 -21.02146248,20.64991019 V 124.86802 c 0,11.40272 9.41387448,20.6499 21.02146248,20.6499 H 189.93854 c 11.61494,0 21.02869,-9.24718 21.02869,-20.6499 V 21.608184 c 0,-11.40347 -9.41375,-20.64991019 -21.02869,-20.64991019 z M 59.818304,20.671294 c 9.285182,0 19.692859,6.84048 19.692859,21.02818 v 10.51047 c 0,14.19428 -14.424687,21.02765 -19.692859,21.02765 -4.992105,0 -19.69336,-6.83337 -19.69336,-21.02765 v -10.51047 c 0,-14.18775 10.716551,-21.02818 19.69336,-21.02818 z m 122.534136,52.22007 c 2.76897,0 5.52646,0.33491 8.27236,1.00406 2.76897,0.66916 5.83777,1.84555 9.20667,3.53002 v 8.13388 h -0.51883 c -2.8382,-2.3767 -5.65344,-4.10692 -8.44548,-5.19142 -2.79204,-1.0845 -5.78,-1.62679 -8.96431,-1.62676 -2.60745,-3e-5 -4.96126,0.42677 -7.06107,1.28053 -2.07673,0.83068 -3.93448,2.1341 -5.57278,3.91086 -1.59216,1.73061 -2.83784,3.92276 -3.73776,6.57635 -0.87685,2.63051 -1.31516,5.67674 -1.31516,9.13794 0,3.622756 0.4845,6.737746 1.45365,9.345156 0.99221,2.60747 2.26099,4.7303 3.80701,6.3686 1.61522,1.70755 3.49608,2.97683 5.64203,3.80754 2.16904,0.80762 4.45356,1.21129 6.85333,1.21129 3.29969,0 6.39157,-0.56536 9.27592,-1.69603 2.88434,-1.13064 5.5841,-2.82673 8.09924,-5.08804 h 0.48421 v 8.03 c -1.2691,0.55377 -2.4224,1.07293 -3.46077,1.55752 -1.01529,0.48458 -2.35387,0.99219 -4.01526,1.52291 -1.40755,0.43842 -2.94194,0.80746 -4.60334,1.10742 -1.6383,0.32305 -3.44986,0.48471 -5.43429,0.48471 -3.73812,0 -7.14129,-0.51914 -10.21023,-1.55752 -3.04586,-1.06143 -5.69943,-2.71132 -7.96075,-4.94956 -2.21518,-2.1921 -3.9459,-4.97271 -5.19193,-8.34162 -1.24605,-3.39199 -1.86914,-7.32587 -1.86914,-11.802376 0,-4.24574 0.59999,-8.04159 1.79989,-11.3874 1.19989,-3.34587 2.93061,-6.17265 5.19193,-8.48011 2.19209,-2.23827 4.83411,-3.94587 7.92613,-5.12271 3.11508,-1.17681 6.56446,-1.76524 10.34873,-1.76524 z m -70.92023,0.93482 h 15.26418 c 3.76121,0 6.57644,0.13806 8.44549,0.41495 1.86905,0.27691 3.657,0.85381 5.36453,1.73067 1.89212,0.99218 3.26535,2.27303 4.11913,3.84212 0.85376,1.54601 1.28054,3.40378 1.28054,5.57278 0,2.44594 -0.62311,4.53414 -1.86913,6.26475 -1.24605,1.70752 -2.90747,3.08023 -4.9842,4.11861 v 0.277 c 3.4843,0.7153 6.23024,2.2497 8.23774,4.603316 2.0075,2.33056 3.01119,5.28437 3.01119,8.86095 0,2.5613 -0.48453,4.82222 -1.45366,6.78358 -0.96913,1.96135 -2.27255,3.57656 -3.91087,4.84571 -1.93829,1.52289 -4.07269,2.60744 -6.40323,3.25353 -2.30748,0.64611 -5.24975,0.96946 -8.82633,0.96946 h -18.27538 z m 6.85334,5.84925 v 14.88334 h 8.86095 c 2.14596,0 3.85307,-0.10395 5.12217,-0.31162 1.26912,-0.23074 2.44603,-0.69218 3.53053,-1.38441 1.08452,-0.69223 1.84619,-1.58043 2.28462,-2.66496 0.46149,-1.10757 0.69195,-2.41152 0.69195,-3.91139 0,-1.24603 -0.20736,-2.29592 -0.6227,-3.14968 -0.41535,-0.85376 -1.08464,-1.54614 -2.00763,-2.07687 -1.08451,-0.62299 -2.4,-1.00359 -3.94602,-1.14205 -1.54601,-0.16153 -3.461,-0.24236 -5.74538,-0.24236 z m -79.565676,0.14211 c 4.196953,0.0785 9.118071,4.34118 14.552586,9.12865 l 1.919261,1.91927 c 0.0639,0.0639 2.181489,2.08512 4.703604,2.08512 2.559552,0 4.613142,-2.10788 4.613142,-2.10788 v 0.004 l 1.899629,-1.90013 c 6.956187,-6.12722 12.217585,-11.29337 17.902793,-8.13028 12.294844,6.84091 14.950493,18.05769 14.950493,25.275996 0,0.11602 0.01402,6.46891 0,6.5717 0,9.53558 -3.207491,13.14132 -13.140266,13.14132 H 33.560499 c -9.933518,0 -13.142358,-3.60574 -13.142358,-13.14132 -0.01323,-0.10279 0,-6.45568 0,-6.5717 0,-7.219056 3.292581,-17.396146 14.951526,-25.275996 1.057037,-0.7144 2.17506,-1.02036 3.350207,-0.99837 z m 79.565676,20.521236 v 19.17505 h 9.06818 c 2.99972,0 5.45746,-0.14962 7.37267,-0.44958 1.9152,-0.32303 3.48425,-0.89996 4.70721,-1.73064 1.29219,-0.8999 2.23812,-1.9267 2.83807,-3.08044 0.59993,-1.15374 0.9002,-2.64245 0.9002,-4.46537 0,-2.07672 -0.31182,-3.72658 -0.93483,-4.94956 -0.62302,-1.22296 -1.75372,-2.26129 -3.39204,-3.11505 -1.10758,-0.5769 -2.45721,-0.94591 -4.04936,-1.10744 -1.56909,-0.18457 -3.48459,-0.27697 -5.74589,-0.27697 z"
       id="rect24-2-1-6" />
  </g>
</svg>
