<?xml version="1.0" encoding="UTF-8" standalone="no"?>
<!-- Created with Inkscape (http://www.inkscape.org/) -->

<svg
   xmlns:dc="http://purl.org/dc/elements/1.1/"
   xmlns:cc="http://creativecommons.org/ns#"
   xmlns:rdf="http://www.w3.org/1999/02/22-rdf-syntax-ns#"
   xmlns:svg="http://www.w3.org/2000/svg"
   xmlns="http://www.w3.org/2000/svg"
   xmlns:sodipodi="http://sodipodi.sourceforge.net/DTD/sodipodi-0.dtd"
   xmlns:inkscape="http://www.inkscape.org/namespaces/inkscape"
   width="210mm"
   height="297mm"
   viewBox="0 0 210 297"
   version="1.1"
   id="svg202"
   inkscape:version="0.92.3 (2405546, 2018-03-11)"
   sodipodi:docname="ВД.svg">
  <defs
     id="defs196" />
  <sodipodi:namedview
     id="base"
     pagecolor="#ffffff"
     bordercolor="#666666"
     borderopacity="1.0"
     inkscape:pageopacity="0.0"
     inkscape:pageshadow="2"
     inkscape:zoom="0.35"
     inkscape:cx="11.428571"
     inkscape:cy="560"
     inkscape:document-units="mm"
     inkscape:current-layer="layer1"
     showgrid="false"
     inkscape:window-width="1920"
     inkscape:window-height="1017"
     inkscape:window-x="-8"
     inkscape:window-y="-8"
     inkscape:window-maximized="1" />
  <metadata
     id="metadata199">
    <rdf:RDF>
      <cc:Work
         rdf:about="">
        <dc:format>image/svg+xml</dc:format>
        <dc:type
           rdf:resource="http://purl.org/dc/dcmitype/StillImage" />
        <dc:title></dc:title>
      </cc:Work>
    </rdf:RDF>
  </metadata>
  <g
     inkscape:label="Layer 1"
     inkscape:groupmode="layer"
     id="layer1">
    <path
       style="fill:#000000;stroke-width:0.29096219"
       d="m 20.964684,0.95852567 c -11.6075902,0 -21.02094019,9.24643633 -21.02094019,20.64990433 v 103.25985 c 0,11.40274 9.41334999,20.64939 21.02094019,20.64939 H 189.18284 c 11.61493,0 21.02818,-9.24665 21.02818,-20.64939 V 21.60843 c 0,-11.403468 -9.41325,-20.64990433 -21.02818,-20.64990433 z M 59.062104,20.671535 c 9.28518,0 19.69337,6.839953 19.69337,21.027657 v 10.510986 c 0,14.194311 -14.4252,21.027657 -19.69337,21.027657 -4.99211,0 -19.69286,-6.833346 -19.69286,-21.027657 V 41.699192 c 0,-14.187704 10.71605,-21.027657 19.69286,-21.027657 z m 50.786556,53.013302 h 12.87571 c 5.03029,0 9.02245,0.36903 11.97601,1.10742 2.97665,0.71532 5.49163,1.70746 7.54528,2.97657 3.50737,2.1921 6.24176,5.11128 8.20312,8.75709 1.96135,3.64581 2.94193,7.97234 2.94193,12.97957 0,4.684173 -1.02677,8.929873 -3.08043,12.737213 -2.03057,3.80733 -4.74187,6.76063 -8.13387,8.86044 -2.35363,1.45371 -4.98409,2.50358 -7.89151,3.14967 -2.88434,0.6461 -6.69173,0.96945 -11.42204,0.96945 h -13.0142 z m 54.68711,0 h 6.85333 v 45.445293 h 25.7514 v 6.09213 h -32.60473 z m -47.83377,5.88388 v 39.769153 h 6.43785 c 3.29969,0 6.17266,-0.242 8.61859,-0.72657 2.46899,-0.48457 4.72991,-1.38483 6.78357,-2.7001 2.56129,-1.6383 4.47678,-3.7958 5.7459,-6.47247 1.29219,-2.67667 1.93838,-6.02211 1.93838,-10.037113 0,-4.03809 -0.70393,-7.44178 -2.1115,-10.21075 -1.40756,-2.76897 -3.50731,-4.94956 -6.29935,-6.54172 -2.03057,-1.15374 -4.18806,-1.95006 -6.47248,-2.38849 -2.28439,-0.46149 -5.0188,-0.69194 -8.20311,-0.69194 z m -78.737836,0.24856 c 4.19695,0.0785 9.11808,4.34118 14.5526,9.12864 l 1.91926,1.91927 c 0.0639,0.0639 2.18096,2.08566 4.70308,2.08566 2.55955,0 4.61367,-2.1084 4.61367,-2.1084 v 0.004 l 1.89911,-1.90066 c 6.95618,-6.12722 12.21809,-11.29335 17.9033,-8.13025 12.29484,6.84091 14.95051,18.05819 14.95051,25.276493 0,0.11602 0.014,6.46839 0,6.57118 0,9.53557 -3.20803,13.14183 -13.14081,13.14183 h -52.56061 c -9.93352,0 -13.14184,-3.60626 -13.14184,-13.14183 -0.0132,-0.10279 0,-6.45516 0,-6.57118 0,-7.219033 3.29204,-17.396633 14.95103,-25.276493 1.05701,-0.71441 2.17555,-1.02038 3.3507,-0.99839 z"
       id="rect24-2"
       inkscape:connector-curvature="0" />
  </g>
</svg>
