<?xml version="1.0" encoding="UTF-8" standalone="no"?>
<!-- Created with Inkscape (http://www.inkscape.org/) -->

<svg
   xmlns:dc="http://purl.org/dc/elements/1.1/"
   xmlns:cc="http://creativecommons.org/ns#"
   xmlns:rdf="http://www.w3.org/1999/02/22-rdf-syntax-ns#"
   xmlns:svg="http://www.w3.org/2000/svg"
   xmlns="http://www.w3.org/2000/svg"
   xmlns:sodipodi="http://sodipodi.sourceforge.net/DTD/sodipodi-0.dtd"
   xmlns:inkscape="http://www.inkscape.org/namespaces/inkscape"
   width="210mm"
   height="297mm"
   viewBox="0 0 210 297"
   version="1.1"
   id="svg22"
   inkscape:version="0.92.3 (2405546, 2018-03-11)"
   sodipodi:docname="ID.svg">
  <defs
     id="defs16" />
  <sodipodi:namedview
     id="base"
     pagecolor="#ffffff"
     bordercolor="#666666"
     borderopacity="1.0"
     inkscape:pageopacity="0.0"
     inkscape:pageshadow="2"
     inkscape:zoom="0.35"
     inkscape:cx="11.428571"
     inkscape:cy="560"
     inkscape:document-units="mm"
     inkscape:current-layer="layer1"
     showgrid="false"
     inkscape:window-width="1920"
     inkscape:window-height="1017"
     inkscape:window-x="-8"
     inkscape:window-y="-8"
     inkscape:window-maximized="1" />
  <metadata
     id="metadata19">
    <rdf:RDF>
      <cc:Work
         rdf:about="">
        <dc:format>image/svg+xml</dc:format>
        <dc:type
           rdf:resource="http://purl.org/dc/dcmitype/StillImage" />
        <dc:title></dc:title>
      </cc:Work>
    </rdf:RDF>
  </metadata>
  <g
     inkscape:label="Layer 1"
     inkscape:groupmode="layer"
     id="layer1">
    <path
       style="fill:#000000;stroke-width:0.29137683"
       d="m 20.467027,0.45391881 c -11.624086,0 -21.05136938,9.25909359 -21.05136938,20.67880619 V 124.53974 c 0,11.41897 9.42728338,20.67935 21.05136938,20.67935 H 188.92446 c 11.63149,0 21.05869,-9.26038 21.05869,-20.67935 V 21.132725 c 0,-11.4197126 -9.4272,-20.67880619 -21.05869,-20.67880619 z M 58.618784,20.19449 c 9.298399,0 19.720934,6.850246 19.720934,21.058172 v 10.525442 c 0,14.21452 -14.445267,21.057641 -19.720934,21.057641 -4.999191,0 -19.721487,-6.843121 -19.721487,-21.057641 V 41.252662 c 0,-14.207926 10.731895,-21.058172 19.721487,-21.058172 z m 56.983566,53.486325 h 20.38074 v 5.268665 h -6.75906 V 120.023 h 6.75906 v 5.26872 H 115.60235 V 120.023 h 6.75906 V 78.94948 h -6.75906 z m 32.13114,0 h 12.89403 c 5.03748,0 9.03474,0.369414 11.99257,1.109108 2.98088,0.716358 5.49997,1.710496 7.55655,2.981319 3.51233,2.195165 6.25065,5.118042 8.2148,8.769058 1.96407,3.65098 2.94615,7.983688 2.94615,12.998053 0,4.690847 -1.02828,8.942587 -3.08484,12.755367 -2.03351,3.81276 -4.74863,6.77082 -8.14548,8.87357 -2.35683,1.45576 -4.99115,2.5071 -7.90276,3.15418 -2.88847,0.64691 -6.70123,0.97022 -11.4383,0.97022 H 147.73349 Z M 37.490266,79.425041 c 4.202915,0.07874 9.131054,4.347351 14.573305,9.141678 l 1.922048,1.922054 c 0.0642,0.06413 2.184663,2.08808 4.710287,2.08808 2.563119,0 4.619743,-2.110846 4.619743,-2.110846 v 0.0036 l 1.902497,-1.902791 c 6.966088,-6.135931 12.234955,-11.30941 17.928265,-8.141817 12.312395,6.850662 14.971839,18.083389 14.971839,25.312011 0,0.11674 0.01389,6.47812 0,6.58103 0,9.54919 -3.212068,13.16006 -13.159032,13.16006 H 32.323701 c -9.94767,0 -13.161082,-3.61087 -13.161082,-13.16006 -0.01388,-0.10214 0,-6.46488 0,-6.58103 0,-7.229359 3.297244,-17.420991 14.97289,-25.312011 1.058628,-0.71548 2.177951,-1.021856 3.354932,-0.999683 z m 117.106284,0.148818 v 39.825861 h 6.44705 c 3.30439,0 6.18097,-0.24218 8.63033,-0.72802 2.47266,-0.48526 4.73722,-1.38631 6.79378,-2.70347 2.56488,-1.64076 4.48321,-3.8012 5.75413,-6.48168 1.2941,-2.68043 1.94072,-6.03121 1.94072,-10.051957 0,-4.043825 -0.7044,-7.451871 -2.11405,-10.224755 -1.40965,-2.772919 -3.51233,-4.956528 -6.30838,-6.550984 -2.03352,-1.15521 -4.19408,-1.952978 -6.48169,-2.391843 -2.28767,-0.4622 -5.02598,-0.69301 -8.21482,-0.69301 z"
       id="rect24-2-1"
       inkscape:connector-curvature="0" />
  </g>
</svg>
