<?xml version="1.0" encoding="UTF-8" standalone="no"?>
<!-- Created with Inkscape (http://www.inkscape.org/) -->

<svg
   xmlns:dc="http://purl.org/dc/elements/1.1/"
   xmlns:cc="http://creativecommons.org/ns#"
   xmlns:rdf="http://www.w3.org/1999/02/22-rdf-syntax-ns#"
   xmlns:svg="http://www.w3.org/2000/svg"
   xmlns="http://www.w3.org/2000/svg"
   xmlns:sodipodi="http://sodipodi.sourceforge.net/DTD/sodipodi-0.dtd"
   xmlns:inkscape="http://www.inkscape.org/namespaces/inkscape"
   width="210mm"
   height="297mm"
   viewBox="0 0 210 297"
   version="1.1"
   id="svg225"
   inkscape:version="0.92.3 (2405546, 2018-03-11)"
   sodipodi:docname="TP.svg">
  <defs
     id="defs219" />
  <sodipodi:namedview
     id="base"
     pagecolor="#ffffff"
     bordercolor="#666666"
     borderopacity="1.0"
     inkscape:pageopacity="0.0"
     inkscape:pageshadow="2"
     inkscape:zoom="0.35"
     inkscape:cx="11.428571"
     inkscape:cy="560"
     inkscape:document-units="mm"
     inkscape:current-layer="layer1"
     showgrid="false"
     inkscape:window-width="1920"
     inkscape:window-height="1017"
     inkscape:window-x="-8"
     inkscape:window-y="-8"
     inkscape:window-maximized="1" />
  <metadata
     id="metadata222">
    <rdf:RDF>
      <cc:Work
         rdf:about="">
        <dc:format>image/svg+xml</dc:format>
        <dc:type
           rdf:resource="http://purl.org/dc/dcmitype/StillImage" />
        <dc:title></dc:title>
      </cc:Work>
    </rdf:RDF>
  </metadata>
  <g
     inkscape:label="Layer 1"
     inkscape:groupmode="layer"
     id="layer1">
    <path
       style="fill:#000000;stroke-width:0.29096219"
       d="m 21.720374,1.714483 c -11.60759,0 -21.02093971,9.246434 -21.02093971,20.649902 V 125.62423 c 0,11.40273 9.41334971,20.64938 21.02093971,20.64938 H 189.93853 c 11.61493,0 21.0287,-9.24665 21.0287,-20.64938 V 22.364385 c 0,-11.403468 -9.41377,-20.649902 -21.0287,-20.649902 z m 38.09793,19.713009 c 9.28519,0 19.69286,6.839953 19.69286,21.027657 v 10.510986 c 0,14.194311 -14.42468,21.027657 -19.69286,21.027657 -4.9921,0 -19.69336,-6.833346 -19.69336,-21.027657 V 42.455149 c 0,-14.187704 10.71656,-21.027657 19.69336,-21.027657 z M 107.1105,74.6537 h 43.68054 v 6.092134 H 132.3777 v 45.445286 h -6.85333 V 80.745834 H 107.1105 Z m 50.67236,0 H 171.766 c 3.09202,0 5.71093,0.265612 7.85688,0.796332 2.14596,0.507646 4.0499,1.315003 5.71128,2.422591 1.96136,1.315263 3.47266,2.953594 4.5341,4.914948 1.08451,1.961353 1.62677,4.442206 1.62677,7.441922 0,2.284399 -0.40368,4.407249 -1.2113,6.368603 -0.78454,1.938279 -1.89216,3.622804 -3.32279,5.053434 -1.77676,1.77676 -3.87651,3.11483 -6.29936,4.01474 -2.42285,0.87684 -5.48061,1.31517 -9.17257,1.31517 h -6.85281 v 19.20968 h -6.85334 z m 6.85334,5.884394 v 20.594096 h 5.78001 c 2.76897,0 5.01885,-0.24252 6.74946,-0.72709 1.73061,-0.507645 3.13797,-1.303456 4.22248,-2.38797 1.08451,-1.107588 1.8462,-2.272948 2.28462,-3.49591 0.46149,-1.22296 0.69194,-2.595676 0.69194,-4.11861 0,-1.776757 -0.31129,-3.322698 -0.93431,-4.637961 -0.62301,-1.315259 -1.56896,-2.388235 -2.83807,-3.218926 -1.10758,-0.715317 -2.37688,-1.223449 -3.80751,-1.52342 -1.40756,-0.323049 -3.19551,-0.484209 -5.36453,-0.484209 z m -125.916346,0.03566 c 4.19695,0.07854 9.1181,4.341172 14.55261,9.128641 l 1.91926,1.919263 c 0.0639,0.06388 2.18146,2.085145 4.70358,2.085145 2.55955,0 4.61317,-2.107883 4.61317,-2.107883 v 0.0036 l 1.89963,-1.900142 c 6.95618,-6.127226 12.21756,-11.293354 17.90276,-8.130252 12.29485,6.840905 14.95052,18.057672 14.95052,25.275974 0,0.11601 0.014,6.4689 0,6.57169 0,9.53557 -3.20802,13.14132 -13.14079,13.14132 h -52.56012 c -9.93351,0 -13.14233,-3.60575 -13.14233,-13.14132 -0.0132,-0.10279 0,-6.45568 0,-6.57169 0,-7.219034 3.29203,-17.396119 14.95102,-25.275974 1.05701,-0.714415 2.17554,-1.020381 3.35069,-0.998389 z"
       id="rect24"
       inkscape:connector-curvature="0" />
  </g>
</svg>
