<?xml version="1.0" encoding="UTF-8" standalone="no"?>
<!-- Created with Inkscape (http://www.inkscape.org/) -->

<svg
   xmlns:dc="http://purl.org/dc/elements/1.1/"
   xmlns:cc="http://creativecommons.org/ns#"
   xmlns:rdf="http://www.w3.org/1999/02/22-rdf-syntax-ns#"
   xmlns:svg="http://www.w3.org/2000/svg"
   xmlns="http://www.w3.org/2000/svg"
   xmlns:sodipodi="http://sodipodi.sourceforge.net/DTD/sodipodi-0.dtd"
   xmlns:inkscape="http://www.inkscape.org/namespaces/inkscape"
   width="210mm"
   height="297mm"
   viewBox="0 0 210 297"
   version="1.1"
   id="svg3748"
   inkscape:version="0.92.3 (2405546, 2018-03-11)"
   sodipodi:docname="Compare2.svg">
  <defs
     id="defs3742" />
  <sodipodi:namedview
     id="base"
     pagecolor="#ffffff"
     bordercolor="#666666"
     borderopacity="1.0"
     inkscape:pageopacity="0.0"
     inkscape:pageshadow="2"
     inkscape:zoom="0.35"
     inkscape:cx="11.428571"
     inkscape:cy="560"
     inkscape:document-units="mm"
     inkscape:current-layer="layer1"
     showgrid="false"
     inkscape:window-width="1920"
     inkscape:window-height="1017"
     inkscape:window-x="1912"
     inkscape:window-y="-8"
     inkscape:window-maximized="1" />
  <metadata
     id="metadata3745">
    <rdf:RDF>
      <cc:Work
         rdf:about="">
        <dc:format>image/svg+xml</dc:format>
        <dc:type
           rdf:resource="http://purl.org/dc/dcmitype/StillImage" />
        <dc:title></dc:title>
      </cc:Work>
    </rdf:RDF>
  </metadata>
  <g
     inkscape:label="Layer 1"
     inkscape:groupmode="layer"
     id="layer1">
    <path
       inkscape:connector-curvature="0"
       style="fill:#000000;stroke-width:2.2184999"
       d="M 3.6867071,5.1767642 V 159.08875 H 158.84305 V 5.1767642 Z m 53.3748099,3.308803 h 64.478823 l 33.16433,33.1643578 v 93.771795 h -48.82162 v 19.52863 H 8.2398971 V 28.014208 H 57.061517 Z m 4.8821,4.8821628 v 14.646478 h 9.76438 1.01072 l 33.164333,33.164357 v 28.26789 l 12.20543,-10.16957 v 9.76431 h 17.08753 v 4.88216 h -17.08753 v 9.764325 L 105.88305,93.518105 v 37.021455 h 43.93943 V 45.101765 h -31.734 V 13.36773 Z m 61.027053,3.451835 v 23.40004 h 23.40004 z M 13.122087,32.89637 V 150.0682 H 101.00095 V 64.630405 H 69.266857 V 32.89637 Z m 61.02696,3.451835 v 23.40004 h 23.40004 z m -48.82163,3.8714 a 2.4410796,2.4410796 0 0 1 2.44114,2.44108 2.4410796,2.4410796 0 0 1 -2.44114,2.44108 2.4410796,2.4410796 0 0 1 -2.44105,-2.44108 2.4410796,2.4410796 0 0 1 2.44105,-2.44108 z m 0,9.76432 a 2.4410796,2.4410796 0 0 1 2.44114,2.44108 2.4410796,2.4410796 0 0 1 -2.44114,2.44108 2.4410796,2.4410796 0 0 1 -2.44105,-2.44108 2.4410796,2.4410796 0 0 1 2.44105,-2.44108 z m 0,9.76432 a 2.4410796,2.4410796 0 0 1 2.44114,2.44108 2.4410796,2.4410796 0 0 1 -2.44114,2.44108 2.4410796,2.4410796 0 0 1 -2.44105,-2.44108 2.4410796,2.4410796 0 0 1 2.44105,-2.44108 z m 0,9.76432 a 2.4410796,2.4410796 0 0 1 2.44114,2.44108 2.4410796,2.4410796 0 0 1 -2.44114,2.44107 2.4410796,2.4410796 0 0 1 -2.44105,-2.44107 2.4410796,2.4410796 0 0 1 2.44105,-2.44108 z m 0,9.76432 a 2.4410796,2.4410796 0 0 1 2.44114,2.44107 2.4410796,2.4410796 0 0 1 -2.44114,2.44109 2.4410796,2.4410796 0 0 1 -2.44105,-2.44109 2.4410796,2.4410796 0 0 1 2.44105,-2.44107 z m 0,9.76431 a 2.4410796,2.4410796 0 0 1 2.44114,2.44109 2.4410796,2.4410796 0 0 1 -2.44114,2.44107 2.4410796,2.4410796 0 0 1 -2.44105,-2.44107 2.4410796,2.4410796 0 0 1 2.44105,-2.44109 z m 46.38058,7.32324 14.64648,12.205405 -14.64648,12.2054 v -9.76432 h -21.96972 v -4.88216 h 21.96972 z m -46.38058,2.44109 a 2.4410796,2.4410796 0 0 1 2.44114,2.441075 2.4410796,2.4410796 0 0 1 -2.44114,2.44108 2.4410796,2.4410796 0 0 1 -2.44105,-2.44108 2.4410796,2.4410796 0 0 1 2.44105,-2.441075 z m 0,9.764315 a 2.4410796,2.4410796 0 0 1 2.44114,2.44108 2.4410796,2.4410796 0 0 1 -2.44114,2.44108 2.4410796,2.4410796 0 0 1 -2.44105,-2.44108 2.4410796,2.4410796 0 0 1 2.44105,-2.44108 z m 0,9.76432 a 2.4410796,2.4410796 0 0 1 2.44114,2.44108 2.4410796,2.4410796 0 0 1 -2.44114,2.44108 2.4410796,2.4410796 0 0 1 -2.44105,-2.44108 2.4410796,2.4410796 0 0 1 2.44105,-2.44108 z m 0,9.76432 a 2.4410796,2.4410796 0 0 1 2.44114,2.44108 2.4410796,2.4410796 0 0 1 -2.44114,2.44107 2.4410796,2.4410796 0 0 1 -2.44105,-2.44107 2.4410796,2.4410796 0 0 1 2.44105,-2.44108 z m 0,9.76432 a 2.4410796,2.4410796 0 0 1 2.44114,2.44107 2.4410796,2.4410796 0 0 1 -2.44114,2.44109 2.4410796,2.4410796 0 0 1 -2.44105,-2.44109 2.4410796,2.4410796 0 0 1 2.44105,-2.44107 z"
       id="rect3715" />
  </g>
</svg>
