<?xml version="1.0"?>
<svg xmlns="http://www.w3.org/2000/svg" viewBox="0 0 80 80">
    <path d="M 30 10 L 30 18 L 10 18 L 10 70 L 50 70 L 50 62 L 70 62 L 70 23.585938 L 56.414062 10 L 30 10 z M 32 12 L 55 12 L 55 25 L 68 25 L 68 60 L 50 60 L 50 44.833984 L 55 49 L 55 45 L 62 45 L 62 43 L 55 43 L 55 39 L 50 43.166016 L 50 31.585938 L 36.414062 18 L 36 18 L 32 18 L 32 12 z M 57 13.414062 L 66.585938 23 L 57 23 L 57 13.414062 z M 12 20 L 35 20 L 35 33 L 48 33 L 48 68 L 12 68 L 12 20 z M 37 21.414062 L 46.585938 31 L 37 31 L 37 21.414062 z M 17 23 A 1 1 0 0 0 16 24 A 1 1 0 0 0 17 25 A 1 1 0 0 0 18 24 A 1 1 0 0 0 17 23 z M 17 27 A 1 1 0 0 0 16 28 A 1 1 0 0 0 17 29 A 1 1 0 0 0 18 28 A 1 1 0 0 0 17 27 z M 17 31 A 1 1 0 0 0 16 32 A 1 1 0 0 0 17 33 A 1 1 0 0 0 18 32 A 1 1 0 0 0 17 31 z M 17 35 A 1 1 0 0 0 16 36 A 1 1 0 0 0 17 37 A 1 1 0 0 0 18 36 A 1 1 0 0 0 17 35 z M 17 39 A 1 1 0 0 0 16 40 A 1 1 0 0 0 17 41 A 1 1 0 0 0 18 40 A 1 1 0 0 0 17 39 z M 17 43 A 1 1 0 0 0 16 44 A 1 1 0 0 0 17 45 A 1 1 0 0 0 18 44 A 1 1 0 0 0 17 43 z M 36 46 L 36 50 L 27 50 L 27 52 L 36 52 L 36 56 L 42 51 L 36 46 z M 17 47 A 1 1 0 0 0 16 48 A 1 1 0 0 0 17 49 A 1 1 0 0 0 18 48 A 1 1 0 0 0 17 47 z M 17 51 A 1 1 0 0 0 16 52 A 1 1 0 0 0 17 53 A 1 1 0 0 0 18 52 A 1 1 0 0 0 17 51 z M 17 55 A 1 1 0 0 0 16 56 A 1 1 0 0 0 17 57 A 1 1 0 0 0 18 56 A 1 1 0 0 0 17 55 z M 17 59 A 1 1 0 0 0 16 60 A 1 1 0 0 0 17 61 A 1 1 0 0 0 18 60 A 1 1 0 0 0 17 59 z M 17 63 A 1 1 0 0 0 16 64 A 1 1 0 0 0 17 65 A 1 1 0 0 0 18 64 A 1 1 0 0 0 17 63 z"/>
</svg>
