<?xml version="1.0" encoding="UTF-8" standalone="no"?>
<svg
   xmlns:dc="http://purl.org/dc/elements/1.1/"
   xmlns:cc="http://creativecommons.org/ns#"
   xmlns:rdf="http://www.w3.org/1999/02/22-rdf-syntax-ns#"
   xmlns:svg="http://www.w3.org/2000/svg"
   xmlns="http://www.w3.org/2000/svg"
   xmlns:sodipodi="http://sodipodi.sourceforge.net/DTD/sodipodi-0.dtd"
   xmlns:inkscape="http://www.inkscape.org/namespaces/inkscape"
   height="432pt"
   viewBox="-32 0 432 432"
   width="432pt"
   version="1.1"
   id="svg10"
   sodipodi:docname="database.svg"
   inkscape:version="0.92.3 (2405546, 2018-03-11)">
  <metadata
     id="metadata16">
    <rdf:RDF>
      <cc:Work
         rdf:about="">
        <dc:format>image/svg+xml</dc:format>
        <dc:type
           rdf:resource="http://purl.org/dc/dcmitype/StillImage" />
      </cc:Work>
    </rdf:RDF>
  </metadata>
  <defs
     id="defs14" />
  <sodipodi:namedview
     pagecolor="#ffffff"
     bordercolor="#666666"
     borderopacity="1"
     objecttolerance="10"
     gridtolerance="10"
     guidetolerance="10"
     inkscape:pageopacity="0"
     inkscape:pageshadow="2"
     inkscape:window-width="1920"
     inkscape:window-height="1017"
     id="namedview12"
     showgrid="false"
     inkscape:zoom="1.1588694"
     inkscape:cx="79.290717"
     inkscape:cy="7.8961292"
     inkscape:window-x="1912"
     inkscape:window-y="-8"
     inkscape:window-maximized="1"
     inkscape:current-layer="svg10" />
  <path
     id="path6-4"
     style="stroke-width:0.49293545"
     d="m 401.59932,389.71501 -46.03247,-47.88407 c -8.84214,12.26127 -18.86308,20.68076 -31.99624,28.1675 l 44.67674,49.68707 c 8.28101,9.21309 22.46477,9.97042 31.66102,1.69049 9.21466,-8.26465 9.97199,-22.44838 1.69095,-31.66099 z M 274.66319,193.55797 c -49.53114,0 -89.69238,40.16124 -89.69238,89.69238 0,49.53114 40.16124,89.68945 89.69238,89.68945 49.53213,0 89.69093,-40.15831 89.69093,-89.68945 0,-49.53114 -40.1588,-89.69238 -89.69093,-89.69238 z m -10e-4,22.42383 c 37.09344,0 67.27002,30.17417 67.27002,67.26855 0,37.09437 -30.17658,67.26562 -67.27002,67.26562 -37.09437,0 -67.26855,-30.17125 -67.26855,-67.26562 0,-37.09438 30.17418,-67.26855 67.26855,-67.26855 z m -94.3071,-231.083495 c -101.621082,0 -184.000482,21.492188 -184.000482,48 0,26.507812 82.3794,48 184.000482,48 101.6211,0 183.99903,-21.492188 183.99903,-48 0,-26.507812 -82.37793,-48 -183.99903,-48 z m 183.99903,74.351074 c -0.18359,0.144532 -0.42188,0.274414 -0.60938,0.418945 -1.8125,1.335939 -3.72656,2.636229 -5.78906,3.909668 -0.32813,0.199215 -0.68701,0.390135 -1.01514,0.593266 -1.86719,1.101554 -3.83203,2.183587 -5.88281,3.199214 l -1.67139,0.864255 c -2.35937,1.167975 -4.80176,2.304203 -7.3916,3.405765 l -1.52637,0.625485 c -2.27343,0.945315 -4.61718,1.858403 -7.03125,2.74512 l -1.97754,0.726563 c -2.82812,1.003905 -5.7412,1.973632 -8.74511,2.91504 l -2.02441,0.60498 c -2.6172,0.800782 -5.28077,1.543455 -7.99952,2.289547 -0.71875,0.191408 -1.42187,0.39063 -2.14452,0.574223 -3.19923,0.847657 -6.49659,1.64844 -9.89503,2.40234 -0.80078,0.1836 -1.60156,0.35157 -2.40234,0.527345 -2.94141,0.65625 -5.93311,1.28516 -8.97217,1.88672 l -2.12842,0.4248 c -3.54297,0.68361 -7.14502,1.32471 -10.80908,1.92628 -0.88672,0.15234 -1.79346,0.28906 -2.68799,0.43359 -3.19922,0.51953 -6.48779,1.0161 -9.79247,1.48095 l -1.97608,0.28125 c -3.78906,0.53126 -7.62159,1.00781 -11.48877,1.42969 l -2.91065,0.31934 c -3.54297,0.38281 -7.10498,0.74268 -10.69483,1.0708 l -1.45751,0.13623 c -4,0.35156 -8,0.64942 -12,0.92285 l -2.97656,0.26075 c -3.80861,0.24219 -7.62012,0.4497 -11.44043,0.62548 l -0.94923,0.0469 c -4.08202,0.17578 -8.16454,0.31299 -12.25048,0.40283 l -2.99267,0.0615 c -4.11719,0.082 -8.23829,0.13769 -12.35157,0.13769 -4.10936,0 -8.23047,-0.0557 -12.35156,-0.13769 l -2.99122,-0.0615 c -4.08984,-0.0977 -8.17187,-0.23096 -12.24608,-0.40283 l -0.95362,-0.0469 c -3.82422,-0.17578 -7.63722,-0.38329 -11.44189,-0.62548 l -2.99122,-0.19923 c -3.99999,-0.26952 -7.99999,-0.56543 -12,-0.91699 l -1.45312,-0.13769 c -3.58984,-0.32422 -7.15625,-0.68311 -10.69922,-1.07373 l -2.91064,-0.3208 c -3.86328,-0.44532 -7.6919,-0.92188 -11.488767,-1.42969 l -2.00684,-0.24903 c -3.304685,-0.46093 -6.559565,-0.95703 -9.79394,-1.47656 -0.894532,-0.14454 -1.799805,-0.28124 -2.68653,-0.43359 -3.66015,-0.60937 -7.262205,-1.25098 -10.809075,-1.93067 l -2.128425,-0.42187 c -3.03906,-0.60156 -6.03222,-1.2334 -8.97363,-1.88965 -0.800782,-0.17577 -1.601565,-0.343745 -2.40234,-0.527345 -3.375,-0.765622 -6.670905,-1.56738 -9.893557,-2.399407 -0.718748,-0.1836 -1.425781,-0.38184 -2.144536,-0.577156 -2.734372,-0.742184 -5.399407,-1.5039 -8.000969,-2.285152 L 37.979608,78.74645 c -3.007813,-0.9375 -5.922363,-1.910647 -8.746582,-2.910645 l -1.97168,-0.730958 C 24.843378,74.222038 22.499139,73.304068 20.225702,72.36266 L 18.69787,71.738638 C 16.123651,70.633167 13.667108,69.499377 11.307733,68.33141 L 9.636346,67.464222 C 7.585566,66.409535 5.636347,65.33141 3.7535335,64.265008 3.429316,64.065785 3.065056,63.875352 2.7369325,63.676138 0.67443253,62.402697 -1.2630672,61.098013 -3.05213,59.762074 -3.235724,59.617543 -3.477911,59.492055 -3.661505,59.347524 v 85.551256 c 0,20.00001 70.000488,48 184.000485,48 13.09268,0 25.59718,-0.3735 37.48975,-1.05761 16.49524,-10.27877 35.96991,-16.22314 56.83446,-16.22314 10.02217,0 19.72221,1.37434 28.92774,3.9375 38.98368,-9.88424 60.74854,-23.5104 60.74854,-34.65675 z m 0,112.000481 c -0.18359,0.14453 -0.42188,0.27295 -0.60938,0.41748 -1.8125,1.33594 -3.72656,2.63769 -5.78906,3.91113 -0.32813,0.19923 -0.68701,0.39014 -1.01514,0.59327 -1.86719,1.10156 -3.83203,2.18408 -5.88281,3.23877 l -1.67139,0.86279 c -2.35937,1.16797 -4.80176,2.30468 -7.3916,3.41016 l -1.52637,0.62109 c -2.27343,0.94531 -4.61718,1.85987 -7.03125,2.74658 l -1.97754,0.72656 c -1.41967,0.50394 -2.86073,0.99814 -4.32421,1.48536 14.97535,8.37945 27.74176,20.23161 37.20996,34.46923 z m -368.015625,0.0542 v 85.59375 c 0,19.37716 65.456568,46.15947 172.853025,47.90772 -1.4161,-6.96458 -2.16065,-14.17283 -2.16065,-21.55518 0,-28.95672 11.4413,-55.24278 30.04542,-74.58984 -0.45424,0.0111 -0.90798,0.0281 -1.36231,0.0381 l -2.99267,0.063 c -4.11719,0.082 -8.23829,0.13623 -12.35157,0.13623 -4.10936,0 -8.23047,-0.0542 -12.35156,-0.13623 l -2.99122,-0.063 c -4.08984,-0.0977 -8.17187,-0.2295 -12.24608,-0.40137 l -0.95362,-0.0469 c -3.82422,-0.17578 -7.63722,-0.3833 -11.44189,-0.62549 l -2.99122,-0.19922 c -3.99999,-0.26953 -7.99999,-0.56688 -12,-0.91845 l -1.45312,-0.13623 c -3.58984,-0.32423 -7.15625,-0.68312 -10.69922,-1.07374 l -2.91064,-0.3208 c -3.86328,-0.44531 -7.6919,-0.92187 -11.488767,-1.42968 l -2.00684,-0.25049 c -3.304685,-0.46094 -6.559565,-0.95702 -9.79394,-1.47656 -0.894532,-0.14453 -1.799805,-0.28126 -2.68653,-0.4336 -3.66015,-0.60937 -7.262205,-1.24951 -10.809075,-1.9292 L 71.417593,199.035 c -3.03906,-0.60155 -6.03222,-1.23486 -8.97363,-1.89111 -0.800782,-0.17577 -1.601565,-0.34375 -2.40234,-0.52734 -3.375,-0.76563 -6.670905,-1.56592 -9.893557,-2.39795 -0.718748,-0.18359 -1.425781,-0.3833 -2.144536,-0.57861 -2.734372,-0.74219 -5.399407,-1.50391 -8.000969,-2.28516 l -2.022953,-0.60937 c -3.007813,-0.9375 -5.922363,-1.90918 -8.746582,-2.90919 l -1.97168,-0.73095 c -2.417968,-0.88281 -4.762207,-1.80077 -7.035644,-2.74219 l -1.527832,-0.62549 c -2.574219,-1.10547 -5.030762,-2.23779 -7.390137,-3.40576 L 9.636346,179.4647 C 7.585566,178.41 5.636347,177.3314 3.7535335,176.22593 3.429316,176.02671 3.065056,175.83579 2.7369325,175.63266 0.67443253,174.36313 -1.2630672,173.05894 -3.05213,171.723 c -0.183594,-0.14453 -0.425781,-0.27442 -0.609375,-0.41895 z m 0,112.00049 v 85.59375 c 0,20.03906 70.000488,48 184.000485,48 64.91848,0 115.55766,-9.06842 147.13769,-20.57666 l -9.59033,-10.67138 v -0.003 c -0.79762,-0.88777 -1.4656,-1.88566 -1.99951,-2.95166 -12.69772,5.26996 -26.62015,8.18408 -41.22364,8.18408 -46.21002,0 -85.61882,-29.13002 -100.87352,-70.02538 -1.9231,-0.0236 -3.8472,-0.054 -5.77149,-0.0923 l -2.99122,-0.063 c -4.08984,-0.0976 -8.17187,-0.23097 -12.24608,-0.40284 l -0.95362,-0.0469 c -3.82422,-0.17579 -7.63722,-0.38184 -11.44189,-0.62403 l -2.99122,-0.19922 c -3.99999,-0.26953 -7.99999,-0.56689 -12,-0.91846 l -1.45312,-0.13623 c -3.58984,-0.32421 -7.15625,-0.68457 -10.69922,-1.07519 l -2.91064,-0.31934 c -3.86328,-0.44532 -7.6919,-0.92188 -11.488767,-1.42969 l -2.00684,-0.25048 c -3.304685,-0.46094 -6.559565,-0.95703 -9.79394,-1.47657 -0.894532,-0.14454 -1.799805,-0.28124 -2.68653,-0.43358 -3.66015,-0.60938 -7.262205,-1.24952 -10.809075,-1.92921 l -2.128425,-0.42187 c -3.03906,-0.59766 -6.03222,-1.22705 -8.97363,-1.89112 -0.800782,-0.17578 -1.601565,-0.34375 -2.40234,-0.52734 -3.375,-0.76562 -6.670905,-1.56592 -9.893557,-2.39795 -0.718748,-0.18359 -1.425781,-0.3833 -2.144536,-0.57861 -2.734372,-0.74207 -5.399407,-1.50379 -8.000969,-2.28503 l -2.022953,-0.60938 c -3.007813,-0.9336 -5.922363,-1.90284 -8.746582,-2.91065 l -1.97168,-0.72949 c -2.417968,-0.88281 -4.762207,-1.80078 -7.035644,-2.74219 l -1.527832,-0.62549 c -2.574219,-1.10547 -5.030762,-2.23779 -7.390137,-3.40576 l -1.671387,-0.86719 c -2.05078,-1.05468 -3.999999,-2.1333 -5.8828125,-3.23877 -0.3242175,-0.19922 -0.6884775,-0.39014 -1.016601,-0.59326 -2.06249997,-1.26954 -3.9999997,-2.57519 -5.7890625,-3.91113 -0.183594,-0.14453 -0.425781,-0.27295 -0.609375,-0.41748 z"
     inkscape:connector-curvature="0"
     sodipodi:nodetypes="ccccccsssssssssssssssccccccccccccccccccccccccccccccccsccccccccccccccccccccccccccccccccsscscccccccccccccccccscscccsccccccccccccccccccccccccccccccccccssccccsccccccccccccccccccccccccccccccccc" />
</svg>
