<?xml version="1.0" encoding="UTF-8" standalone="no"?>
<!-- Generator: Adobe Illustrator 19.0.0, SVG Export Plug-In . SVG Version: 6.00 Build 0)  -->

<svg
   xmlns:dc="http://purl.org/dc/elements/1.1/"
   xmlns:cc="http://creativecommons.org/ns#"
   xmlns:rdf="http://www.w3.org/1999/02/22-rdf-syntax-ns#"
   xmlns:svg="http://www.w3.org/2000/svg"
   xmlns="http://www.w3.org/2000/svg"
   xmlns:sodipodi="http://sodipodi.sourceforge.net/DTD/sodipodi-0.dtd"
   xmlns:inkscape="http://www.inkscape.org/namespaces/inkscape"
   version="1.1"
   id="Capa_1"
   x="0px"
   y="0px"
   viewBox="0 0 414.824 414.824"
   style="enable-background:new 0 0 414.824 414.824;"
   xml:space="preserve"
   sodipodi:docname="eraser.svg"
   inkscape:version="0.92.3 (2405546, 2018-03-11)"><metadata
   id="metadata47"><rdf:RDF><cc:Work
       rdf:about=""><dc:format>image/svg+xml</dc:format><dc:type
         rdf:resource="http://purl.org/dc/dcmitype/StillImage" /></cc:Work></rdf:RDF></metadata><defs
   id="defs45">
	

		
	
			
			
		</defs><sodipodi:namedview
   pagecolor="#ffffff"
   bordercolor="#666666"
   borderopacity="1"
   objecttolerance="10"
   gridtolerance="10"
   guidetolerance="10"
   inkscape:pageopacity="0"
   inkscape:pageshadow="2"
   inkscape:window-width="1920"
   inkscape:window-height="1017"
   id="namedview43"
   showgrid="false"
   inkscape:zoom="0.56891597"
   inkscape:cx="-11.425237"
   inkscape:cy="207.412"
   inkscape:window-x="-8"
   inkscape:window-y="-8"
   inkscape:window-maximized="1"
   inkscape:current-layer="Capa_1" />
<path
   id="path4"
   d="M 306.155,371.723 H 196.441 l 32.914,-33.437 -125.388,-125.91 -49.11,49.11 c -12.606,13.139 -12.606,33.881 0,47.02 l 62.694,63.216 H 7.837 c -4.328,0 -7.837,3.509 -7.837,7.837 0,4.328 3.509,7.837 7.837,7.837 h 298.318 c 4.328,0 7.837,-3.509 7.837,-7.837 0,-4.328 -3.509,-7.836 -7.837,-7.836 z m 98.743,-256 -78.89,-78.89 c -12.963,-12.541 -33.535,-12.541 -46.498,0 L 114.939,201.405 240.327,326.793 404.898,162.222 c 6.287,-6.216 9.856,-14.669 9.927,-23.51 -0.035,-8.697 -3.62,-17.001 -9.927,-22.989 z" />
<g
   id="g12">
</g>
<g
   id="g14">
</g>
<g
   id="g16">
</g>
<g
   id="g18">
</g>
<g
   id="g20">
</g>
<g
   id="g22">
</g>
<g
   id="g24">
</g>
<g
   id="g26">
</g>
<g
   id="g28">
</g>
<g
   id="g30">
</g>
<g
   id="g32">
</g>
<g
   id="g34">
</g>
<g
   id="g36">
</g>
<g
   id="g38">
</g>
<g
   id="g40">
</g>
</svg>