<?xml version="1.0" encoding="UTF-8" standalone="no"?>
<svg
   xmlns:dc="http://purl.org/dc/elements/1.1/"
   xmlns:cc="http://creativecommons.org/ns#"
   xmlns:rdf="http://www.w3.org/1999/02/22-rdf-syntax-ns#"
   xmlns:svg="http://www.w3.org/2000/svg"
   xmlns="http://www.w3.org/2000/svg"
   xmlns:sodipodi="http://sodipodi.sourceforge.net/DTD/sodipodi-0.dtd"
   xmlns:inkscape="http://www.inkscape.org/namespaces/inkscape"
   height="511pt"
   viewBox="0 1 511 511.99898"
   width="511pt"
   version="1.1"
   id="svg6"
   sodipodi:docname="gear.svg"
   inkscape:version="0.92.3 (2405546, 2018-03-11)">
  <metadata
     id="metadata12">
    <rdf:RDF>
      <cc:Work
         rdf:about="">
        <dc:format>image/svg+xml</dc:format>
        <dc:type
           rdf:resource="http://purl.org/dc/dcmitype/StillImage" />
      </cc:Work>
    </rdf:RDF>
  </metadata>
  <defs
     id="defs10" />
  <sodipodi:namedview
     pagecolor="#ffffff"
     bordercolor="#666666"
     borderopacity="1"
     objecttolerance="10"
     gridtolerance="10"
     guidetolerance="10"
     inkscape:pageopacity="0"
     inkscape:pageshadow="2"
     inkscape:window-width="1920"
     inkscape:window-height="1017"
     id="namedview8"
     showgrid="false"
     inkscape:zoom="0.34637965"
     inkscape:cx="-18.765537"
     inkscape:cy="340.66667"
     inkscape:window-x="-8"
     inkscape:window-y="-8"
     inkscape:window-maximized="1"
     inkscape:current-layer="svg6" />
  <path
     id="path4"
     d="m 256.50391,164.16016 c -50.64063,0 -91.84375,41.20312 -91.84375,91.84375 0,50.64062 41.20312,91.84375 91.84375,91.84375 50.64062,0 91.83984,-41.20313 91.83984,-91.84375 0,-50.64063 -41.19922,-91.84375 -91.83984,-91.84375 z m 53.95703,75.11328 -55.14453,55.14453 c -2.9961,2.99219 -6.91797,4.49219 -10.84375,4.49219 -3.92188,0 -7.84766,-1.4961 -10.83985,-4.49219 l -31.08594,-31.08594 c -5.98828,-5.98828 -5.98828,-15.69531 0,-21.68359 5.98829,-5.98828 15.69532,-5.98828 21.6836,0 l 20.24609,20.24218 44.30078,-44.30078 c 5.98828,-5.98828 15.69532,-5.98828 21.6836,0 5.98828,5.98828 5.98828,15.69532 0,21.6836 z m 0,0 m 188.26172,-41.03125 -61.52735,-6.28516 c -2.22265,-6.27344 -4.77734,-12.4375 -7.64062,-18.44141 l 39.0664,-47.95312 c 4.96875,-6.09766 4.51563,-14.96484 -1.04687,-20.52734 L 407.46484,44.925781 c -5.5625,-5.5625 -14.42968,-6.011719 -20.52734,-1.042969 l -40.28125,32.816407 c -4.59375,3.742187 -10.96484,4.609375 -16.63672,2.25 l -0.35937,-0.148438 c -5.64063,-2.332031 -9.51954,-7.4375 -10.1211,-13.332031 L 314.25781,13.777344 C 313.45703,5.949219 306.87109,0 299.00391,0 h -85.00782 c -7.86718,0 -14.45703,5.949219 -15.2539,13.777344 l -5.28125,51.691406 c -0.60156,5.894531 -4.48047,11 -10.15235,13.34375 l -0.34375,0.140625 C 177.30469,81.304688 170.9375,80.4375 166.34766,76.699219 L 126.0625,43.878906 c -6.09766,-4.964844 -14.96484,-4.515625 -20.52734,1.046875 L 45.425781,105.03516 c -5.5625,5.5625 -6.015625,14.42968 -1.046875,20.52734 l 32.816406,40.28516 c 3.742188,4.59375 4.609376,10.96093 2.269532,16.59375 l -0.167969,0.39843 c -2.328125,5.64063 -7.4375,9.51953 -13.332031,10.1211 l -51.691406,5.28125 C 6.449219,199.03906 0.5,205.62891 0.5,213.49609 v 85.00782 c 0,7.86718 5.949219,14.45703 13.773438,15.2539 l 51.695312,5.28125 c 5.890625,0.60157 11,4.48047 13.332031,10.13282 l 0.152344,0.36328 c 2.351563,5.65625 1.484375,12.02343 -2.257813,16.61718 L 44.378906,386.4375 c -4.96875,6.09766 -4.515625,14.96484 1.046875,20.52734 l 60.109379,60.10938 c 5.5625,5.5625 14.42578,6.01172 20.52734,1.04687 l 40.28125,-32.82031 c 4.59375,-3.74219 10.96094,-4.60547 16.61719,-2.25781 l 0.3789,0.15625 c 5.64063,2.33203 9.51954,7.4375 10.1211,13.33203 l 5.27734,51.69141 C 199.53906,506.04688 206.12891,512 213.99219,512 h 85.01172 c 7.86328,0 14.45312,-5.95313 15.2539,-13.77734 l 5.27735,-51.69141 c 0.60156,-5.89453 4.48047,-11 10.13281,-13.33594 l 0.36719,-0.14844 c 5.65625,-2.35546 12.02343,-1.48828 16.61718,2.25391 l 40.28125,32.82031 c 6.09766,4.96485 14.96875,4.51563 20.52735,-1.04687 l 60.11328,-60.10938 c 5.55859,-5.5625 6.01172,-14.42968 1.04297,-20.52734 l -32.81641,-40.28516 c -3.74219,-4.59375 -4.60547,-10.96093 -2.25,-16.63672 l 0.14844,-0.35546 c 2.33203,-5.64063 7.4375,-9.51954 13.33203,-10.1211 l 51.69141,-5.28125 c 7.82422,-0.79687 13.77343,-7.38672 13.77343,-15.2539 v -85.00782 c 0.004,-7.86718 -5.94921,-14.45703 -13.77343,-15.2539 z M 256.50391,378.51172 c -67.55079,0 -122.50782,-54.95703 -122.50782,-122.50781 0,-67.55079 54.95703,-122.51172 122.50782,-122.51172 67.55078,0 122.50781,54.96093 122.50781,122.51172 0,67.55078 -54.95703,122.50781 -122.50781,122.50781 z m 0,0" />
</svg>
