<?xml version="1.0" encoding="UTF-8" standalone="no"?>
<!-- Generator: Adobe Illustrator 19.1.0, SVG Export Plug-In . SVG Version: 6.00 Build 0)  -->

<svg
   xmlns:dc="http://purl.org/dc/elements/1.1/"
   xmlns:cc="http://creativecommons.org/ns#"
   xmlns:rdf="http://www.w3.org/1999/02/22-rdf-syntax-ns#"
   xmlns:svg="http://www.w3.org/2000/svg"
   xmlns="http://www.w3.org/2000/svg"
   xmlns:sodipodi="http://sodipodi.sourceforge.net/DTD/sodipodi-0.dtd"
   xmlns:inkscape="http://www.inkscape.org/namespaces/inkscape"
   version="1.1"
   id="Capa_1"
   x="0px"
   y="0px"
   viewBox="0 0 477.158 477.158"
   style="enable-background:new 0 0 477.158 477.158;"
   xml:space="preserve"
   sodipodi:docname="left-arrow.svg"
   inkscape:version="0.92.3 (2405546, 2018-03-11)"><metadata
   id="metadata41"><rdf:RDF><cc:Work
       rdf:about=""><dc:format>image/svg+xml</dc:format><dc:type
         rdf:resource="http://purl.org/dc/dcmitype/StillImage" /></cc:Work></rdf:RDF></metadata><defs
   id="defs39">
	
</defs><sodipodi:namedview
   pagecolor="#ffffff"
   bordercolor="#666666"
   borderopacity="1"
   objecttolerance="10"
   gridtolerance="10"
   guidetolerance="10"
   inkscape:pageopacity="0"
   inkscape:pageshadow="2"
   inkscape:window-width="1920"
   inkscape:window-height="1017"
   id="namedview37"
   showgrid="false"
   inkscape:zoom="0.49459509"
   inkscape:cx="-13.142063"
   inkscape:cy="238.57899"
   inkscape:window-x="-8"
   inkscape:window-y="-8"
   inkscape:window-maximized="1"
   inkscape:current-layer="Capa_1" />
<path
   inkscape:connector-curvature="0"
   id="path2"
   d="m 402.719,441.314 c 5.091,0 10.151,-2.118 13.75,-5.719 l 55,-55 c 3.591,-3.598 5.688,-8.635 5.688,-13.719 0,-5.084 -2.096,-10.152 -5.688,-13.75 L 356.906,238.564 471.468,124.002 c 3.664,-3.667 5.764,-8.848 5.688,-14.031 -0.078,-4.985 -2.163,-9.911 -5.688,-13.438 l -55,-55 c -3.599,-3.601 -8.659,-5.688 -13.75,-5.688 -5.091,0 -10.151,2.087 -13.75,5.688 l -183.28,183.281 c -3.601,3.599 -5.688,8.659 -5.688,13.75 0,5.091 2.087,10.151 5.688,13.75 l 183.281,183.281 c 3.599,3.599 8.659,5.719 13.75,5.719 z m -200,0 c 5.091,0 10.151,-2.118 13.75,-5.719 l 55,-55 c 3.591,-3.598 5.688,-8.635 5.688,-13.719 0,-5.084 -2.096,-10.152 -5.688,-13.75 L 156.906,238.564 271.468,124.002 c 3.664,-3.667 5.764,-8.848 5.688,-14.031 -0.078,-4.985 -2.163,-9.911 -5.688,-13.438 l -55,-55 c -3.599,-3.601 -8.659,-5.688 -13.75,-5.688 -5.091,0 -10.151,2.087 -13.75,5.688 L 5.688,224.814 C 2.087,228.413 0,233.473 0,238.564 c 0,5.091 2.087,10.151 5.688,13.75 l 183.281,183.281 c 3.599,3.599 8.659,5.719 13.75,5.719 z"
   style="fill:#222222" />
<g
   id="g6">
</g>
<g
   id="g8">
</g>
<g
   id="g10">
</g>
<g
   id="g12">
</g>
<g
   id="g14">
</g>
<g
   id="g16">
</g>
<g
   id="g18">
</g>
<g
   id="g20">
</g>
<g
   id="g22">
</g>
<g
   id="g24">
</g>
<g
   id="g26">
</g>
<g
   id="g28">
</g>
<g
   id="g30">
</g>
<g
   id="g32">
</g>
<g
   id="g34">
</g>
</svg>