<?xml version="1.0" encoding="UTF-8" standalone="no"?>
<!-- Created with Inkscape (http://www.inkscape.org/) -->

<svg
   xmlns:dc="http://purl.org/dc/elements/1.1/"
   xmlns:cc="http://creativecommons.org/ns#"
   xmlns:rdf="http://www.w3.org/1999/02/22-rdf-syntax-ns#"
   xmlns:svg="http://www.w3.org/2000/svg"
   xmlns="http://www.w3.org/2000/svg"
   xmlns:sodipodi="http://sodipodi.sourceforge.net/DTD/sodipodi-0.dtd"
   xmlns:inkscape="http://www.inkscape.org/namespaces/inkscape"
   width="210mm"
   height="297mm"
   viewBox="0 0 210 297"
   version="1.1"
   id="svg8"
   inkscape:version="0.92.3 (2405546, 2018-03-11)"
   sodipodi:docname="Localization.svg">
  <defs
     id="defs2" />
  <sodipodi:namedview
     id="base"
     pagecolor="#ffffff"
     bordercolor="#666666"
     borderopacity="1.0"
     inkscape:pageopacity="0.0"
     inkscape:pageshadow="2"
     inkscape:zoom="0.49497475"
     inkscape:cx="-378.7234"
     inkscape:cy="656.86261"
     inkscape:document-units="mm"
     inkscape:current-layer="layer1"
     showgrid="false"
     inkscape:window-width="1920"
     inkscape:window-height="1017"
     inkscape:window-x="1912"
     inkscape:window-y="-8"
     inkscape:window-maximized="1" />
  <metadata
     id="metadata5">
    <rdf:RDF>
      <cc:Work
         rdf:about="">
        <dc:format>image/svg+xml</dc:format>
        <dc:type
           rdf:resource="http://purl.org/dc/dcmitype/StillImage" />
        <dc:title />
      </cc:Work>
    </rdf:RDF>
  </metadata>
  <g
     inkscape:label="Layer 1"
     inkscape:groupmode="layer"
     id="layer1">
    <path
       id="path43"
       style="font-style:normal;font-weight:normal;font-size:medium;line-height:1.25;font-family:sans-serif;letter-spacing:0px;word-spacing:0px;fill:#000000;fill-opacity:1;stroke:none;stroke-width:0.43635002"
       d="m 149.77189,12.342345 h -0.43465 q -1.45734,0 -2.1647,0.818156 -0.70737,0.809635 -0.70737,2.24993 v 1.269848 q 0,1.602221 -0.95451,2.445947 -0.946,0.852244 -2.47152,0.852244 h -1.27837 v -1.176098 h 0.97156 q 1.15906,0 1.67893,-0.536916 0.52839,-0.536915 0.52839,-1.730058 v -1.491431 q 0,-1.184625 0.65623,-1.985733 0.65623,-0.809635 1.82381,-1.278371 v -0.204539 q -1.16758,-0.468736 -1.82381,-1.269848 -0.65623,-0.8096344 -0.65623,-1.9942549 V 6.8197898 q 0,-1.1931425 -0.52839,-1.7300581 -0.51987,-0.5369156 -1.67893,-0.5369156 h -0.97156 V 3.3767175 h 1.27837 q 1.52552,0 2.47152,0.852244 0.95451,0.8437264 0.95451,2.445947 v 1.2698484 q 0,1.4402954 0.70737,2.2584521 0.70736,0.809634 2.1647,0.809634 h 0.43465 z m -11.75248,4.29532 h -2.03687 v -2.428898 h 2.03687 z m -6.34071,0 h -2.03687 v -2.428898 h 2.03687 z m -6.34071,0 h -2.03687 v -2.428898 h 2.03687 z m -11.8377,0 h -1.60222 v -5.420283 q 0,-0.656231 -0.0767,-1.2272344 -0.0767,-0.5795295 -0.28125,-0.9033842 -0.21306,-0.3579422 -0.61361,-0.5283893 -0.40056,-0.1789733 -1.03974,-0.1789733 -0.65623,0 -1.37212,0.3238546 -0.71588,0.3238546 -1.37212,0.8266782 v 7.1077314 h -1.60222 V 7.1180786 h 1.60222 v 1.0567831 q 0.74998,-0.6221391 1.55109,-0.9715595 0.80111,-0.3494204 1.64484,-0.3494204 1.54256,0 2.3522,0.9289456 0.80963,0.9289499 0.80963,2.6760566 z m -10.44854,-4.755534 q 0,2.326636 -1.19314,3.673181 -1.19315,1.34655 -3.195923,1.34655 -2.019825,0 -3.212972,-1.34655 -1.18462,-1.346545 -1.18462,-3.673181 0,-2.3266316 1.18462,-3.6731773 1.193147,-1.3550719 3.212972,-1.3550719 2.002773,0 3.195923,1.3550719 1.19314,1.3465457 1.19314,3.6731773 z m -1.65335,0 q 0,-1.849374 -0.72441,-2.7442317 -0.724415,-0.9033798 -2.011303,-0.9033798 -1.30394,0 -2.028347,0.9033798 -0.715889,0.8948577 -0.715889,2.7442317 0,1.78972 0.724411,2.718666 0.724411,0.920428 2.019825,0.920428 1.278366,0 2.002773,-0.911906 0.73294,-0.920424 0.73294,-2.727188 z M 91.85324,5.5243756 H 90.046476 V 3.8624973 H 91.85324 Z M 91.750968,16.637665 H 90.148747 V 7.1180786 h 1.602221 z m -3.562388,-0.08522 q -0.451692,0.119315 -0.988608,0.196017 -0.528389,0.0767 -0.945989,0.0767 -1.457344,0 -2.215842,-0.784069 -0.758499,-0.784064 -0.758499,-2.514122 V 8.4646243 H 82.197289 V 7.1180786 h 1.082353 V 4.3823647 h 1.602221 v 2.7357139 h 3.306717 v 1.3465457 h -3.306717 v 4.3379347 q 0,0.749976 0.03408,1.176098 0.03408,0.417601 0.238627,0.784069 0.187495,0.340899 0.511349,0.502824 0.332377,0.153403 1.005652,0.153403 0.39203,0 0.818156,-0.110789 0.426122,-0.119316 0.613618,-0.196018 h 0.08522 z m -8.045204,0.08522 h -1.593698 v -1.014173 q -0.213066,0.144881 -0.57953,0.409078 -0.357942,0.255675 -0.69884,0.409078 -0.400557,0.196017 -0.920429,0.323855 -0.519867,0.136359 -1.218712,0.136359 -1.286888,0 -2.18175,-0.852244 -0.894858,-0.852248 -0.894858,-2.173228 0,-1.082353 0.460214,-1.747106 0.468736,-0.673275 1.329506,-1.056783 0.869288,-0.383513 2.088,-0.519872 1.218713,-0.136359 2.616399,-0.204539 v -0.247153 q 0,-0.5454376 -0.196017,-0.9033799 -0.187496,-0.3579423 -0.545438,-0.5624814 -0.340898,-0.1960172 -0.818156,-0.2641968 -0.477258,-0.06818 -0.99713,-0.06818 -0.630661,0 -1.406208,0.170447 -0.775542,0.1619295 -1.60222,0.4772579 h -0.08522 V 7.3226177 q 0.468736,-0.1278374 1.355072,-0.281245 0.886336,-0.1534032 1.747102,-0.1534032 1.005652,0 1.747106,0.1704514 0.749977,0.1619251 1.295414,0.5624813 0.536916,0.3920344 0.818157,1.0141735 0.28124,0.6221392 0.28124,1.5425633 z M 78.549678,14.29399 v -2.650486 q -0.732933,0.04263 -1.730063,0.127838 -0.988603,0.08522 -1.568133,0.247148 -0.690318,0.196017 -1.11644,0.613617 -0.426122,0.409079 -0.426122,1.133489 0,0.818157 0.494301,1.235757 0.494302,0.409078 1.508475,0.409078 0.843723,0 1.542568,-0.323855 0.69884,-0.332372 1.295414,-0.792586 z m -8.070774,2.343675 h -7.687261 v -1.18462 l 5.548125,-6.9969426 h -5.42881 V 7.1180786 h 7.423065 v 1.1420066 l -5.573691,7.0225088 h 5.718572 z M 60.490581,5.5243756 H 58.683817 V 3.8624973 h 1.806764 z M 60.38831,16.637665 H 58.786089 V 7.1180786 h 1.602221 z m -4.806667,0 H 53.979419 V 3.3767175 h 1.602224 z m -4.721446,0 h -1.593699 v -1.014173 q -0.213061,0.144881 -0.579525,0.409078 -0.357947,0.255675 -0.698845,0.409078 -0.400557,0.196017 -0.920424,0.323855 -0.519872,0.136359 -1.218713,0.136359 -1.286892,0 -2.18175,-0.852244 -0.894858,-0.852248 -0.894858,-2.173228 0,-1.082353 0.460214,-1.747106 0.468732,-0.673275 1.329502,-1.056783 0.869292,-0.383513 2.088005,-0.519872 1.218712,-0.136359 2.616394,-0.204539 v -0.247153 q 0,-0.5454376 -0.196017,-0.9033799 -0.187496,-0.3579423 -0.545438,-0.5624814 -0.340898,-0.1960172 -0.818156,-0.2641968 -0.477258,-0.06818 -0.997125,-0.06818 -0.630666,0 -1.406208,0.170447 -0.775543,0.1619295 -1.602225,0.4772579 h -0.08522 V 7.3226177 q 0.468736,-0.1278374 1.355072,-0.281245 0.886336,-0.1534032 1.747106,-0.1534032 1.005648,0 1.747102,0.1704514 0.749977,0.1619251 1.295415,0.5624813 0.536915,0.3920344 0.818156,1.0141735 0.281241,0.6221392 0.281241,1.5425633 z M 49.266498,14.29399 v -2.650486 q -0.732933,0.04263 -1.730058,0.127838 -0.988608,0.08522 -1.568133,0.247148 -0.690319,0.196017 -1.116445,0.613617 -0.426122,0.409079 -0.426122,1.133489 0,0.818157 0.494301,1.235757 0.494306,0.409078 1.508476,0.409078 0.843726,0 1.542567,-0.323855 0.69884,-0.332372 1.295414,-0.792586 z m -7.866231,1.747102 q -0.801112,0.383512 -1.525523,0.596573 -0.715884,0.213061 -1.525519,0.213061 -1.031217,0 -1.891987,-0.298284 -0.860766,-0.306811 -1.474383,-0.920428 -0.622144,-0.613617 -0.963042,-1.551085 -0.340899,-0.937472 -0.340899,-2.190272 0,-2.3351576 1.27837,-3.6646594 1.286893,-1.3295062 3.391941,-1.3295062 0.818156,0 1.602221,0.2301092 0.79259,0.2301048 1.448821,0.5624813 V 9.4702758 H 41.31504 Q 40.582111,8.8992726 39.798043,8.5924618 39.0225,8.2856553 38.281045,8.2856553 q -1.363593,0 -2.156184,0.9204237 -0.784064,0.911906 -0.784064,2.684578 0,1.721536 0.76702,2.650482 0.775543,0.920428 2.173228,0.920428 0.48578,0 0.988604,-0.127838 0.502828,-0.127837 0.903384,-0.332376 0.34942,-0.178969 0.656227,-0.374986 0.306811,-0.204539 0.48578,-0.349421 h 0.08523 z m -9.528113,-4.158961 q 0,2.326636 -1.193146,3.673181 -1.193143,1.34655 -3.19592,1.34655 -2.019825,0 -3.212971,-1.34655 -1.184621,-1.346545 -1.184621,-3.673181 0,-2.3266316 1.184621,-3.6731773 1.193146,-1.3550719 3.212971,-1.3550719 2.002777,0 3.19592,1.3550719 1.193146,1.3465457 1.193146,3.6731773 z m -1.653356,0 q 0,-1.849374 -0.724411,-2.7442317 -0.724411,-0.9033798 -2.011299,-0.9033798 -1.30394,0 -2.028347,0.9033798 -0.715889,0.8948577 -0.715889,2.7442317 0,1.78972 0.724411,2.718666 0.724411,0.920428 2.019825,0.920428 1.278366,0 2.002777,-0.911906 0.732933,-0.920424 0.732933,-2.727188 z M 22.19916,16.637665 H 14.171 V 3.9477208 h 1.687449 V 15.137712 H 22.19916 Z M 10.872809,19.97847 H 9.5944389 q -1.525519,0 -2.4800347,-0.852244 Q 6.1684105,18.2825 6.1684105,16.680279 v -1.269848 q 0,-1.440295 -0.7073627,-2.24993 -0.707367,-0.818156 -2.1647063,-0.818156 H 2.8616932 v -1.329502 h 0.4346483 q 1.4573393,0 2.1647063,-0.809634 Q 6.1684105,9.3850523 6.1684105,7.9447569 V 6.6749085 q 0,-1.6022206 0.9459937,-2.445947 0.9545157,-0.852244 2.4800347,-0.852244 H 10.872809 V 4.5528161 H 9.9012497 q -1.1590548,0 -1.6874485,0.5369156 -0.5198718,0.5369156 -0.5198718,1.7300581 v 1.4914313 q 0,1.1846205 -0.6562268,1.9942549 -0.6562311,0.801112 -1.8238078,1.269848 v 0.204539 q 1.1675767,0.468736 1.8238078,1.278371 0.6562268,0.801108 0.6562268,1.985733 v 1.491431 q 0,1.193143 0.5198718,1.730058 0.5283937,0.536916 1.6874485,0.536916 h 0.9715593 z" />
  </g>
</svg>
