<?xml version="1.0" encoding="UTF-8" standalone="no"?>
<!-- Generator: Adobe Illustrator 16.0.0, SVG Export Plug-In . SVG Version: 6.00 Build 0)  -->

<svg
   xmlns:dc="http://purl.org/dc/elements/1.1/"
   xmlns:cc="http://creativecommons.org/ns#"
   xmlns:rdf="http://www.w3.org/1999/02/22-rdf-syntax-ns#"
   xmlns:svg="http://www.w3.org/2000/svg"
   xmlns="http://www.w3.org/2000/svg"
   xmlns:sodipodi="http://sodipodi.sourceforge.net/DTD/sodipodi-0.dtd"
   xmlns:inkscape="http://www.inkscape.org/namespaces/inkscape"
   version="1.1"
   id="Capa_1"
   x="0px"
   y="0px"
   width="548.291px"
   height="548.291px"
   viewBox="0 0 548.291 548.291"
   style="enable-background:new 0 0 548.291 548.291;"
   xml:space="preserve"
   sodipodi:docname="log-file-format.svg"
   inkscape:version="0.92.3 (2405546, 2018-03-11)"><metadata
   id="metadata43"><rdf:RDF><cc:Work
       rdf:about=""><dc:format>image/svg+xml</dc:format><dc:type
         rdf:resource="http://purl.org/dc/dcmitype/StillImage" /></cc:Work></rdf:RDF></metadata><defs
   id="defs41">
	
	
</defs><sodipodi:namedview
   pagecolor="#ffffff"
   bordercolor="#666666"
   borderopacity="1"
   objecttolerance="10"
   gridtolerance="10"
   guidetolerance="10"
   inkscape:pageopacity="0"
   inkscape:pageshadow="2"
   inkscape:window-width="1920"
   inkscape:window-height="1017"
   id="namedview39"
   showgrid="false"
   inkscape:zoom="0.43042836"
   inkscape:cx="-15.101236"
   inkscape:cy="274.14551"
   inkscape:window-x="-8"
   inkscape:window-y="-8"
   inkscape:window-maximized="1"
   inkscape:current-layer="Capa_1" />
<path
   id="path4"
   d="m 184.6538,303.04673 c 0,28.535 13.407,48.64 35.452,48.64 22.268,0 35.021,-21.186 35.021,-49.5 0,-26.153 -12.539,-48.655 -35.237,-48.655 -22.265,-0.001 -35.236,21.192 -35.236,49.515 z m 273.668,-109.246 h -13.166 v -63.534 c 0,-0.396 -0.062,-0.795 -0.115,-1.196 -0.021,-2.523 -0.825,-5 -2.552,-6.963 L 336.7778,1.353733 c -0.033,-0.031 -0.064,-0.042 -0.085,-0.073 -0.63,-0.707 -1.364,-1.292 -2.143,-1.795 -0.229,-0.157 -0.461,-0.286 -0.702,-0.421 -0.672,-0.366 -1.387,-0.671 -2.121,-0.892 -0.2,-0.055 -0.379,-0.136 -0.577,-0.188 -0.799,-0.19 -1.628,-0.308 -2.467,-0.308 H 68.877796 c -11.863,0 -21.501,9.651 -21.501,21.502 V 193.79173 h -13.164 c -16.971,0 -30.732,13.756 -30.732,30.733 v 159.812 c 0,16.968 13.761,30.731 30.732,30.731 h 13.164 v 109.399 c 0,11.854 9.638,21.501 21.501,21.501 H 423.6538 c 11.853,0 21.501,-9.647 21.501,-21.501 v -109.398 h 13.166 c 16.966,0 30.729,-13.764 30.729,-30.731 v -159.807 c 10e-4,-16.982 -13.762,-30.73 -30.728,-30.73 z M 68.877796,19.178733 H 317.9318 V 129.18773 c 0,5.939 4.817,10.75 10.751,10.75 h 94.972 v 53.861 H 68.877796 Z M 289.9368,301.10373 c 0,47.77 -28.973,76.746 -71.558,76.746 -43.234,0 -68.531,-32.641 -68.531,-74.152 0,-43.679 27.887,-76.319 70.906,-76.319 44.756,0 69.183,33.511 69.183,73.725 z m -235.663004,74.363 v -145.705 h 33.073 v 118.039 H 145.2908 v 27.66 H 54.273796 Z M 423.6548,518.63873 H 68.877796 v -103.57 H 423.6538 v 103.57 z m 9.642,-149.87 c -10.162,3.454 -29.402,8.209 -48.641,8.209 -26.589,0 -45.833,-6.698 -59.24,-19.664 -13.396,-12.535 -20.75,-31.568 -20.529,-52.967 0.214,-48.436 35.448,-76.108 83.229,-76.108 18.814,0 33.292,3.688 40.431,7.139 l -6.92,26.37 c -7.999,-3.457 -17.942,-6.268 -33.942,-6.268 -27.449,0 -48.209,15.567 -48.209,47.134 0,30.049 18.807,47.771 45.831,47.771 7.564,0 13.623,-0.852 16.21,-2.152 v -30.488 h -22.478 v -25.723 h 54.258 z" />
<g
   id="g8">
</g>
<g
   id="g10">
</g>
<g
   id="g12">
</g>
<g
   id="g14">
</g>
<g
   id="g16">
</g>
<g
   id="g18">
</g>
<g
   id="g20">
</g>
<g
   id="g22">
</g>
<g
   id="g24">
</g>
<g
   id="g26">
</g>
<g
   id="g28">
</g>
<g
   id="g30">
</g>
<g
   id="g32">
</g>
<g
   id="g34">
</g>
<g
   id="g36">
</g>
</svg>