<?xml version="1.0" encoding="UTF-8" standalone="no"?>
<!-- Generator: Adobe Illustrator 19.0.0, SVG Export Plug-In . SVG Version: 6.00 Build 0)  -->

<svg
   xmlns:dc="http://purl.org/dc/elements/1.1/"
   xmlns:cc="http://creativecommons.org/ns#"
   xmlns:rdf="http://www.w3.org/1999/02/22-rdf-syntax-ns#"
   xmlns:svg="http://www.w3.org/2000/svg"
   xmlns="http://www.w3.org/2000/svg"
   xmlns:sodipodi="http://sodipodi.sourceforge.net/DTD/sodipodi-0.dtd"
   xmlns:inkscape="http://www.inkscape.org/namespaces/inkscape"
   version="1.1"
   id="Capa_1"
   x="0px"
   y="0px"
   viewBox="0 0 60 60"
   style="enable-background:new 0 0 60 60;"
   xml:space="preserve"
   sodipodi:docname="svg-file.svg"
   inkscape:version="0.92.3 (2405546, 2018-03-11)"><metadata
   id="metadata51"><rdf:RDF><cc:Work
       rdf:about=""><dc:format>image/svg+xml</dc:format><dc:type
         rdf:resource="http://purl.org/dc/dcmitype/StillImage" /></cc:Work></rdf:RDF></metadata><defs
   id="defs49">
	
	
	
	
	
	
</defs><sodipodi:namedview
   pagecolor="#ffffff"
   bordercolor="#666666"
   borderopacity="1"
   objecttolerance="10"
   gridtolerance="10"
   guidetolerance="10"
   inkscape:pageopacity="0"
   inkscape:pageshadow="2"
   inkscape:window-width="1920"
   inkscape:window-height="1017"
   id="namedview47"
   showgrid="false"
   showguides="false"
   inkscape:zoom="3.9333334"
   inkscape:cx="55.628157"
   inkscape:cy="6.5610219"
   inkscape:window-x="-8"
   inkscape:window-y="-8"
   inkscape:window-maximized="1"
   inkscape:current-layer="Capa_1" />

<g
   id="g16">
</g>
<g
   id="g18">
</g>
<g
   id="g20">
</g>
<g
   id="g22">
</g>
<g
   id="g24">
</g>
<g
   id="g26">
</g>
<g
   id="g28">
</g>
<g
   id="g30">
</g>
<g
   id="g32">
</g>
<g
   id="g34">
</g>
<g
   id="g36">
</g>
<g
   id="g38">
</g>
<g
   id="g40">
</g>
<g
   id="g42">
</g>
<g
   id="g44">
</g>
<flowRoot
   xml:space="preserve"
   id="flowRoot77"
   style="fill:black;fill-opacity:1;stroke:none;font-family:sans-serif;font-style:normal;font-weight:normal;font-size:8px;line-height:1.25;letter-spacing:0px;word-spacing:0px"><flowRegion
     id="flowRegion79"><rect
       id="rect81"
       width="32.415253"
       height="15.889831"
       x="-40.042374"
       y="-15.508474" /></flowRegion><flowPara
     id="flowPara83" /></flowRoot><flowRoot
   xml:space="preserve"
   id="flowRoot85"
   style="font-style:normal;font-weight:normal;font-size:8px;line-height:1.25;font-family:sans-serif;letter-spacing:0px;word-spacing:0px;fill:#000000;fill-opacity:1;stroke:none"><flowRegion
     id="flowRegion87"><rect
       id="rect89"
       width="25.932203"
       height="17.288136"
       x="-36.864407"
       y="-7.3728814" /></flowRegion><flowPara
     id="flowPara91">&lt;svg&gt;&lt;`</flowPara></flowRoot><path
   id="path6"
   style="stroke-width:0.05076929"
   d="m 44.683504,54.238283 -5.651378,-5.65184 c -0.842061,1.309595 -1.95645,2.423421 -3.266049,3.26553 l 5.65185,5.651848 c 0.902267,0.902066 2.365189,0.902066 3.265525,0 0.902319,-0.900598 0.902319,-2.363522 5.2e-5,-3.265538 z M 29.861328,33.337891 c -5.101404,0 -9.238281,4.136877 -9.238281,9.238281 0,5.1014 4.136877,9.238281 9.238281,9.238281 5.101504,0 9.238281,-4.136881 9.238281,-9.238281 0,-5.101404 -4.136777,-9.238281 -9.238281,-9.238281 z m 0,2.310547 c 3.820387,0 6.927735,3.107245 6.927734,6.927734 0,3.820494 -3.107347,6.927734 -6.927734,6.927734 -3.820495,0 -6.927734,-3.10724 -6.927734,-6.927734 0,-3.820489 3.107239,-6.927735 6.927734,-6.927734 z M -0.05859375,-0.08398437 V 47.916016 H -0.0625 v 2 h 0.0039063 v 5 H 37.142578 l -2,-2 h -1.603516 c -1.151446,0.409822 -2.385696,0.644531 -3.677734,0.644531 -1.292014,0 -2.526285,-0.234709 -3.677734,-0.644531 H 1.9414062 v -3 V 1.9160156 H 26.941406 V 15.916016 h 14 v 32.894531 l 2,1.998047 V 14.501953 L 38.353516,9.9140625 38.34375,9.921875 35.941406,7.5 28.355469,-0.08398437 Z M 28.941406,3.3300781 l 9,8.9999999 1.585938,1.585938 H 28.941406 Z M 4.7929688,6.0078125 c -0.5721928,0 -1.0332032,0.4590572 -1.0332032,1.03125 0,0.5721929 0.4610104,1.0332031 1.0332032,1.0332031 H 23.863281 c 0.572193,0 1.033203,-0.4610102 1.033203,-1.0332031 0,-0.5721928 -0.46101,-1.03125 -1.033203,-1.03125 z m 0,5.6249995 c -0.5721928,0 -1.0332032,0.461011 -1.0332032,1.033204 0,0.572193 0.4610104,1.033203 1.0332032,1.033203 H 23.863281 c 0.572193,0 1.033203,-0.46101 1.033203,-1.033203 0,-0.572193 -0.46101,-1.033204 -1.033203,-1.033204 z m 0,22.736329 c -0.5721928,0 -1.0332032,0.459058 -1.0332032,1.03125 0,0.572193 0.4610104,1.033203 1.0332032,1.033203 H 20.755859 c 0.517263,-0.765204 1.135692,-1.453139 1.824219,-2.064453 z m 32.3496092,0 c 0.602939,0.535282 1.143994,1.134195 1.617188,1.789062 0.205744,-0.188555 0.339843,-0.455451 0.339843,-0.757812 0,-0.572192 -0.461011,-1.03125 -1.033203,-1.03125 z M 4.7929688,40.509766 c -0.5721928,0 -1.0332032,0.46101 -1.0332032,1.033203 0,0.572193 0.4610104,1.033203 1.0332032,1.033203 H 18.876953 c 0,-0.707215 0.07343,-1.396366 0.201172,-2.066406 z m 0,6.142578 c -0.5721928,0 -1.0332032,0.46101 -1.0332032,1.033203 0,0.572193 0.4610104,1.033203 1.0332032,1.033203 H 20.755859 c -0.434377,-0.642572 -0.795755,-1.336774 -1.08789,-2.066406 z"
   inkscape:connector-curvature="0"
   sodipodi:nodetypes="ccccccsssssssssscccccccccsccccccccccccccccccccsssssssssssssssssccsccsscsssccssssccs" /></svg>