<?xml version="1.0" encoding="UTF-8" standalone="no"?>
<!-- Generator: Adobe Illustrator 19.0.0, SVG Export Plug-In . SVG Version: 6.00 Build 0)  -->

<svg
   xmlns:dc="http://purl.org/dc/elements/1.1/"
   xmlns:cc="http://creativecommons.org/ns#"
   xmlns:rdf="http://www.w3.org/1999/02/22-rdf-syntax-ns#"
   xmlns:svg="http://www.w3.org/2000/svg"
   xmlns="http://www.w3.org/2000/svg"
   xmlns:sodipodi="http://sodipodi.sourceforge.net/DTD/sodipodi-0.dtd"
   xmlns:inkscape="http://www.inkscape.org/namespaces/inkscape"
   version="1.1"
   id="Capa_1"
   x="0px"
   y="0px"
   viewBox="0 0 488.451 488.451"
   style="enable-background:new 0 0 488.451 488.451;"
   xml:space="preserve"
   sodipodi:docname="warning.svg"
   inkscape:version="0.92.3 (2405546, 2018-03-11)"><metadata
   id="metadata41"><rdf:RDF><cc:Work
       rdf:about=""><dc:format>image/svg+xml</dc:format><dc:type
         rdf:resource="http://purl.org/dc/dcmitype/StillImage" /></cc:Work></rdf:RDF></metadata><defs
   id="defs39">
	
</defs><sodipodi:namedview
   pagecolor="#ffffff"
   bordercolor="#666666"
   borderopacity="1"
   objecttolerance="10"
   gridtolerance="10"
   guidetolerance="10"
   inkscape:pageopacity="0"
   inkscape:pageshadow="2"
   inkscape:window-width="1920"
   inkscape:window-height="1017"
   id="namedview37"
   showgrid="false"
   inkscape:zoom="0.48316004"
   inkscape:cx="-13.453099"
   inkscape:cy="244.22549"
   inkscape:window-x="-8"
   inkscape:window-y="-8"
   inkscape:window-maximized="1"
   inkscape:current-layer="Capa_1" />
<path
   inkscape:connector-curvature="0"
   id="path2"
   d="m 484.125,412.013 -212.2,-367.6 c -12.3,-21.3 -43.1,-21.3 -55.4,0 l -212.2,367.6 c -12.3,21.3 3.1,48 27.7,48 h 424.4 c 24.6,0 40,-26.7 27.7,-48 z m -239.6,-254.4 c 13.6,0 24.6,11.3 24.2,24.9 l -4,139.6 c -0.3,11 -9.3,19.7 -20.3,19.7 -11,0 -20,-8.8 -20.3,-19.7 l -3.9,-139.6 c -0.3,-13.6 10.6,-24.9 24.3,-24.9 z m -0.3,252.5 c -13.9,0 -25.2,-11.3 -25.2,-25.2 0,-13.9 11.3,-25.2 25.2,-25.2 13.9,0 25.2,11.3 25.2,25.2 0,13.9 -11.3,25.2 -25.2,25.2 z" />
<g
   id="g6">
</g>
<g
   id="g8">
</g>
<g
   id="g10">
</g>
<g
   id="g12">
</g>
<g
   id="g14">
</g>
<g
   id="g16">
</g>
<g
   id="g18">
</g>
<g
   id="g20">
</g>
<g
   id="g22">
</g>
<g
   id="g24">
</g>
<g
   id="g26">
</g>
<g
   id="g28">
</g>
<g
   id="g30">
</g>
<g
   id="g32">
</g>
<g
   id="g34">
</g>
</svg>