<?xml version="1.0" encoding="UTF-8" standalone="no"?>
<!-- Created with Inkscape (http://www.inkscape.org/) -->

<svg
   xmlns:dc="http://purl.org/dc/elements/1.1/"
   xmlns:cc="http://creativecommons.org/ns#"
   xmlns:rdf="http://www.w3.org/1999/02/22-rdf-syntax-ns#"
   xmlns:svg="http://www.w3.org/2000/svg"
   xmlns="http://www.w3.org/2000/svg"
   xmlns:sodipodi="http://sodipodi.sourceforge.net/DTD/sodipodi-0.dtd"
   xmlns:inkscape="http://www.inkscape.org/namespaces/inkscape"
   width="210mm"
   height="297mm"
   viewBox="0 0 210 297"
   version="1.1"
   id="svg183"
   inkscape:version="0.92.3 (2405546, 2018-03-11)"
   sodipodi:docname="paidPayment_new.svg">
  <defs
     id="defs177" />
  <sodipodi:namedview
     id="base"
     pagecolor="#ffffff"
     bordercolor="#666666"
     borderopacity="1.0"
     inkscape:pageopacity="0.0"
     inkscape:pageshadow="2"
     inkscape:zoom="0.35"
     inkscape:cx="-415.43617"
     inkscape:cy="294.22997"
     inkscape:document-units="mm"
     inkscape:current-layer="layer1"
     showgrid="false"
     inkscape:window-width="1920"
     inkscape:window-height="1017"
     inkscape:window-x="-8"
     inkscape:window-y="-8"
     inkscape:window-maximized="1" />
  <metadata
     id="metadata180">
    <rdf:RDF>
      <cc:Work
         rdf:about="">
        <dc:format>image/svg+xml</dc:format>
        <dc:type
           rdf:resource="http://purl.org/dc/dcmitype/StillImage" />
        <dc:title></dc:title>
      </cc:Work>
    </rdf:RDF>
  </metadata>
  <g
     inkscape:label="Layer 1"
     inkscape:groupmode="layer"
     id="layer1">
    <path
       d="m 120.32521,39.446398 c -0.18637,-3.221384 -4.01771,-5.738508 -11.68035,-7.658922 0.25794,-0.564987 0.40289,-1.152184 0.40481,-1.762215 V 16.853824 h -0.032 C 108.34366,5.8812989 63.38065,5.5575389 58.216358,5.5575389 c -5.164284,0 -50.1272713,0.32376 -50.8012833,11.2962851 h -0.03203 v 0.244784 0 0 12.932344 c 0.0092,3.577175 4.6258353,6.376728 11.4939783,8.460939 -0.09414,0.312379 -0.15064,0.630448 -0.169426,0.954507 h -0.02847 v 0.244784 0 0 12.909779 C 11.280063,54.50629 7.5842937,56.987703 7.4016667,60.156275 h -0.0185 v 0.244784 0 0 12.932344 c 0.0057,2.490875 2.25173,4.60327 5.9267913,6.363564 -0.137409,0.379987 -0.225925,0.770076 -0.250404,1.169199 h -0.02847 v 0.244784 0 0 12.932342 c 0.01494,6.261948 14.114709,10.149718 29.780775,11.964668 0.114844,0.0213 0.220305,0.0711 0.342624,0.0711 0.03558,0 0.06617,-0.0213 0.101684,-0.0213 3.019879,0.34085 6.088695,0.60626 9.125514,0.7964 0.06404,0.007 0.120464,0.0356 0.186362,0.0356 0.03557,0 0.06404,-0.0213 0.09791,-0.0213 3.855799,0.23553 7.649467,0.35366 11.198386,0.35366 3.548922,0 7.342586,-0.1188 11.198388,-0.35366 0.03418,0.001 0.06404,0.0213 0.09791,0.0213 0.06617,0 0.122385,-0.0285 0.186361,-0.0356 3.036813,-0.19 6.105636,-0.45399 9.125516,-0.7964 0.03557,0 0.06617,0.0213 0.101684,0.0213 0.122399,0 0.227777,-0.0498 0.342624,-0.0711 15.666068,-1.81495 29.763828,-5.70465 29.780778,-11.968438 V 80.868087 h -0.0299 c -0.13175,-2.308222 -2.09922,-4.234238 -5.98515,-5.843976 0.23725,-0.544358 0.3671,-1.108918 0.3671,-1.694407 V 61.024265 c 6.75895,-2.07852 11.28688,-4.859294 11.29628,-8.404438 V 39.448532 Z M 20.562038,35.06714 v -9.095385 c 1.758457,0.474628 3.648705,0.907471 5.648144,1.300974 v 9.189528 c -0.231548,-0.0498 -0.470709,-0.09817 -0.696634,-0.146586 -1.001603,-0.219871 -1.978732,-0.449716 -2.912557,-0.693077 -0.711669,-0.18288 -1.38756,-0.369302 -2.03898,-0.555739 z m 84.291022,-4.126868 -0.0526,-0.01423 -0.68532,0.532961 c -0.99408,0.773775 -2.52096,1.557016 -4.478983,2.313846 v -8.956055 c 2.238553,-0.779466 4.143853,-1.6436 5.648153,-2.590637 v 7.790693 c 0,0.286057 -0.15064,0.594879 -0.43115,0.920645 z M 54.780374,73.303241 c 0.517742,0.0071 1.035495,0.01423 1.553236,0.02134 v 9.409751 c -0.365251,-0.0043 -0.730491,-0.0043 -1.093857,-0.0071 -0.165653,-0.0014 -0.325688,-0.0071 -0.489493,-0.0071 -0.862286,-0.01423 -1.720802,-0.03557 -2.573668,-0.06402 -0.105454,-0.0043 -0.210841,-0.0071 -0.316297,-0.01423 -1.026079,-0.03557 -2.044623,-0.07754 -3.055648,-0.125913 v -9.398511 c 1.886486,0.08821 3.782376,0.146586 5.678272,0.180746 0.09791,0 0.197678,0.0014 0.297441,0.0043 z m 7.17126,-0.0057 c 1.895889,-0.03557 3.791786,-0.0939 5.678261,-0.180746 v 9.400432 c -0.402895,0.02134 -0.80768,0.04268 -1.216231,0.05691 -1.12963,0.0498 -2.276202,0.08679 -3.4416,0.114531 -0.27488,0.0071 -0.551613,0.01423 -0.828399,0.01423 -0.672155,0.01423 -1.361197,0.01423 -2.042736,0.02134 V 73.32005 c 0.517741,-0.0057 1.035485,-0.01423 1.553234,-0.02134 0.09791,0 0.197678,-0.0014 0.297441,-0.0043 z m 10.697576,8.90146 c -0.414206,0.03557 -0.832151,0.06402 -1.253883,0.0939 v -9.389035 c 1.909077,-0.125913 3.795555,-0.27681 5.648147,-0.457556 v 9.349555 c -1.163524,0.122356 -2.353394,0.236958 -3.575279,0.33729 -0.272962,0.02134 -0.545994,0.04268 -0.818985,0.06402 z m 8.159692,-10.159112 c 1.941077,-0.233387 3.825673,-0.498815 5.648147,-0.794476 v 9.2441 c -1.773522,0.312379 -3.658122,0.60057 -5.648147,0.862285 z m -40.442591,9.857902 c -0.192055,-0.02134 -0.382188,-0.04268 -0.572321,-0.05691 -0.13556,-0.01423 -0.269261,-0.02845 -0.404817,-0.04268 v -9.347548 c 1.852591,0.178597 3.739074,0.331585 5.648145,0.457541 v 9.381566 c -1.581482,-0.113108 -3.144133,-0.241227 -4.671014,-0.389946 z m -4.742555,-9.857902 v 9.311909 c -1.990032,-0.261857 -3.87463,-0.550048 -5.648143,-0.862285 v -9.2441 c 1.822462,0.295306 3.70706,0.562867 5.648143,0.794476 z m 54.598711,7.722899 v -9.189523 c 1.99945,-0.393504 3.88969,-0.826502 5.64815,-1.300974 v 9.095437 c -1.67749,0.483876 -3.56586,0.952671 -5.64815,1.39506 z M 54.780374,30.000776 c 0.517742,0.0071 1.035495,0.01423 1.553236,0.02134 v 9.400436 c -2.534132,-0.02134 -5.053201,-0.09034 -7.530857,-0.214892 v -9.392894 c 1.886486,0.08821 3.782376,0.146586 5.678265,0.180746 0.09976,0 0.199597,0.0014 0.29936,0.0043 z m 7.17126,-0.0057 c 1.895889,-0.03557 3.791786,-0.0939 5.678261,-0.180746 v 9.392824 c -0.320064,0.01423 -0.626968,0.03557 -0.948887,0.0498 -0.02632,0.0014 -0.05266,0.0014 -0.08098,0.0043 -1.263297,0.05691 -2.551075,0.09817 -3.855795,0.128048 -0.203298,0.0057 -0.406667,0.0071 -0.609965,0.01423 -0.67023,0.01423 -1.355551,0.01423 -2.035215,0.02134 v -9.404135 c 0.517744,-0.0057 1.035493,-0.01423 1.55324,-0.02134 0.09976,-0.0014 0.199597,-0.0043 0.29936,-0.0057 z M 73.247919,52.58765 c 1.89589,-0.03557 3.791786,-0.0939 5.678265,-0.180732 v 9.390956 c -2.473883,0.122357 -4.989189,0.189994 -7.530857,0.216329 v -9.398511 c 0.517745,-0.0057 1.035494,-0.01423 1.55324,-0.02134 0.09976,-0.0014 0.199598,-0.0043 0.299359,-0.0057 z M 55.1042,61.490974 c -1.204936,-0.0939 -2.38163,-0.197819 -3.530086,-0.312379 -0.246632,-0.02134 -0.493265,-0.0498 -0.738027,-0.07541 -0.05052,-0.0057 -0.09976,-0.01423 -0.150642,-0.01423 v -9.349554 c 1.852591,0.178612 3.739074,0.3316 5.648142,0.457541 v 9.38343 c -0.15249,-0.01423 -0.314372,-0.02134 -0.466933,-0.02845 -0.256026,-0.02134 -0.510201,-0.03557 -0.7625,-0.05691 z m -11.676592,-1.34986 c -0.745556,-0.1188 -1.445924,-0.246918 -2.155709,-0.370725 v -9.232861 c 1.822463,0.295305 3.707061,0.560719 5.648144,0.794476 v 9.311909 c -1.152219,-0.152277 -2.279972,-0.310956 -3.36253,-0.48032 -0.04341,-0.0071 -0.0866,-0.01423 -0.12994,-0.02134 z M 66.07666,52.59327 c 0.517741,0.0071 1.035494,0.01423 1.553235,0.02134 v 9.400431 c -0.91688,-0.0071 -1.841287,-0.01423 -2.735577,-0.03557 -0.137409,-0.0043 -0.280505,-0.0057 -0.417982,-0.0071 -1.415803,-0.03557 -2.799601,-0.09034 -4.15892,-0.156545 -0.07343,-0.0043 -0.146866,-0.0071 -0.218381,-0.0071 v -9.400431 c 1.886482,0.08821 3.782375,0.146571 5.678265,0.180731 0.09976,0 0.199597,0.0014 0.29936,0.0043 z m 18.953286,8.807331 c -0.0676,0.0057 -0.133639,0.01423 -0.20145,0.01423 -0.702255,0.05691 -1.427097,0.09604 -2.138766,0.146586 v -9.372119 c 1.909076,-0.125913 3.795551,-0.276796 5.648142,-0.457541 v 9.340092 c -1.091969,0.116666 -2.183945,0.231254 -3.307926,0.325881 z M 39.38918,38.486129 v -9.342018 c 1.852591,0.178598 3.739074,0.331586 5.648145,0.457541 v 9.372109 C 43.120727,38.836466 41.230479,38.679893 39.38918,38.486342 Z m 37.654294,-0.0043 c -1.818709,0.192113 -3.70142,0.359343 -5.648147,0.498815 v -9.379632 c 1.909077,-0.125913 3.795555,-0.27681 5.648147,-0.457541 z m 3.765428,-9.744912 c 1.941077,-0.233401 3.825673,-0.498815 5.648147,-0.794547 v 9.22908 c -1.784815,0.314527 -3.663769,0.604127 -5.648147,0.866069 z m 9.413565,7.709658 v -9.174447 c 1.99945,-0.393503 3.88969,-0.826488 5.64815,-1.300974 v 9.074669 c -1.68691,0.491702 -3.58657,0.960212 -5.64815,1.400752 z M 35.623756,28.736949 v 9.302452 c -0.372796,-0.0498 -0.76062,-0.08821 -1.129629,-0.13943 -0.24101,-0.03557 -0.470707,-0.07114 -0.707876,-0.103149 -1.088216,-0.156545 -2.151945,-0.323774 -3.194968,-0.498815 -0.20899,-0.03557 -0.410437,-0.07327 -0.615656,-0.109551 v -9.244105 c 1.822463,0.293883 3.70706,0.560719 5.648143,0.792627 z m 1.882712,21.125864 v 9.174514 c -2.080402,-0.446159 -3.966879,-0.920645 -5.648144,-1.413912 v -9.060936 c 1.758458,0.474629 3.648705,0.909335 5.648144,1.300904 z m 60.071779,9.948275 c -0.82652,0.143029 -1.66057,0.284635 -2.5172,0.414148 -0.49142,0.0754 -0.99407,0.146585 -1.49864,0.218448 -0.47634,0.06402 -0.97148,0.125913 -1.45534,0.188571 v -9.302447 c 1.94108,-0.233402 3.82568,-0.498815 5.64815,-0.794547 v 9.244171 c -0.0605,0.01423 -0.11866,0.02134 -0.17697,0.02846 z M 28.092893,47.411577 v 8.94474 c -2.959627,-1.142794 -4.868696,-2.310072 -5.489995,-3.349318 l -0.126169,-0.210638 c -0.01138,-0.05691 -0.02989,-0.120222 -0.03203,-0.178597 v -7.796327 c 1.504288,0.947037 3.4096,1.811171 5.648143,2.590638 z m -1.882711,23.161128 v 9.189523 c -1.728329,-0.367182 -3.322994,-0.753074 -4.77456,-1.148427 -0.229698,-0.06402 -0.466937,-0.125913 -0.690942,-0.192113 -0.0619,-0.02134 -0.120464,-0.03557 -0.182591,-0.0498 v -9.095451 c 1.758449,0.47248 3.648697,0.907471 5.648143,1.299124 z m 5.648142,20.709877 v 9.189518 c -2.08228,-0.4426 -3.970642,-0.911238 -5.648142,-1.395108 v -9.09538 c 1.758456,0.47462 3.648703,0.90932 5.648142,1.30097 z m 3.765432,0.67387 c 1.822463,0.29531 3.707061,0.56072 5.648143,0.79448 v 9.311898 c -1.990031,-0.26185 -3.874629,-0.55004 -5.648143,-0.86228 z m 9.413569,1.19929 c 1.852589,0.1786 3.739075,0.33159 5.648142,0.45754 v 9.389048 c -1.95614,-0.13729 -3.838852,-0.30526 -5.648142,-0.49526 z m 9.413575,0.6703 c 1.886474,0.0882 3.782372,0.14658 5.678261,0.18074 0.09976,0.001 0.199597,0.004 0.297441,0.006 0.517744,0.007 1.035493,0.0142 1.553247,0.0213 v 9.411678 c -2.60192,-0.0213 -5.113459,-0.0996 -7.530865,-0.21846 v -9.402538 z m 11.296285,0.20707 c 0.517745,-0.006 1.035494,-0.0142 1.553239,-0.0213 0.09976,-0.001 0.199597,-0.004 0.29936,-0.006 1.895897,-0.0356 3.791787,-0.0939 5.678273,-0.18074 v 9.400428 c -2.417407,0.1188 -4.928956,0.19426 -7.530865,0.21846 z m 11.296289,-0.41983 c 1.909068,-0.12591 3.795551,-0.27681 5.648143,-0.45754 v 9.349548 c -1.809291,0.19 -3.692005,0.35792 -5.648143,0.49526 z m 9.413575,-0.8642 c 1.941073,-0.23341 3.825668,-0.49882 5.648138,-0.79448 v 9.244098 c -1.77353,0.31238 -3.658114,0.60057 -5.648138,0.86228 z m 9.413568,-1.46664 c 1.99944,-0.39351 3.88969,-0.82649 5.648153,-1.30091 v 9.09538 c -1.677513,0.48388 -3.565873,0.952658 -5.648153,1.395048 z m 9.210243,-17.343489 -0.64197,0.562867 c -0.98843,0.871675 -2.6358,1.750904 -4.802813,2.598107 v -8.976752 c 2.238553,-0.779466 4.143853,-1.643614 5.648153,-2.590652 v 7.790708 c 0,0.194261 -0.0716,0.401328 -0.20339,0.615508 z m 1.26519,-16.050181 c -0.93759,0.261856 -1.92978,0.50664 -2.94268,0.74559 -0.46878,0.109552 -0.94701,0.218449 -1.43652,0.323761 -0.14495,0.03557 -0.29936,0.05691 -0.44623,0.09248 V 49.86485 c 1.99946,-0.393489 3.88969,-0.826559 5.64815,-1.300974 v 9.09538 c -0.27111,0.07541 -0.54408,0.152277 -0.82275,0.229845 z M 11.148463,30.02519 v -7.796327 c 1.504291,0.947037 3.409601,1.811171 5.648145,2.590638 v 9.014401 C 13.134732,32.461421 11.152236,31.085151 11.148463,30.02519 Z m 0,43.302451 v -7.796327 c 1.504291,0.946966 3.409601,1.811186 5.648145,2.590566 v 8.978687 l -1.075029,-0.41769 -0.02276,0.02134 C 12.742987,75.478451 11.1521,74.27539 11.148328,73.326503 Z m 5.648145,20.709821 v -7.796328 c 1.504288,0.947038 3.4096,1.811168 5.648143,2.590638 v 9.01447 c -3.661875,-1.37257 -5.644379,-2.74882 -5.648143,-3.80878 z m 88.487592,3.80878 v -9.01255 c 2.23855,-0.77947 4.14385,-1.643671 5.64815,-2.590637 v 7.790617 c -0.002,1.05998 -1.98627,2.43815 -5.64815,3.81257 z m 5.64815,-41.41977 v -9.012548 c 2.23855,-0.779466 4.14385,-1.6436 5.64813,-2.590566 v 7.790636 c -0.002,1.059961 -1.98625,2.438147 -5.64813,3.812478 z"
       id="path2-4"
       inkscape:connector-curvature="0"
       style="stroke-width:1.88271427" />
    <circle
       style="fill:#ffffff;stroke-width:1.18233061"
       id="path55-0"
       cx="109.04961"
       cy="90.653923"
       r="40.805439" />
    <path
       inkscape:connector-curvature="0"
       style="fill:#000000;stroke-width:0.02214001"
       d="m 109.04983,55.652569 c -19.299733,0 -35.001572,15.7035 -35.001572,35.001113 0,19.301898 15.701269,35.001628 35.001572,35.001628 19.30023,0 35.00114,-15.69973 35.00114,-35.001628 0,-19.298111 -15.70141,-35.001113 -35.00114,-35.001113 z"
       id="path66-2" />
    <path
       inkscape:connector-curvature="0"
       style="fill:#ffffff;stroke-width:0.02100198"
       d="M 109.04962,62.545322 A 28.108572,28.108572 0 0 1 137.1582,90.6539 28.108572,28.108572 0 0 1 109.04962,118.76256 28.108572,28.108572 0 0 1 80.941025,90.6539 28.108572,28.108572 0 0 1 109.04962,62.545322 Z"
       id="path64-1" />
    <path
       inkscape:connector-curvature="0"
       style="fill:#000000;stroke-width:0.05400162"
       d="m 94.729319,86.854291 -5.23507,5.69809 15.733921,14.452989 23.37681,-27.713379 -5.9095,-4.98948 -18.17759,21.54899 z"
       id="path22-2" />
  </g>
</svg>
