<?xml version="1.0" encoding="UTF-8" standalone="no"?>
<!-- Created with Inkscape (http://www.inkscape.org/) -->

<svg
   xmlns:dc="http://purl.org/dc/elements/1.1/"
   xmlns:cc="http://creativecommons.org/ns#"
   xmlns:rdf="http://www.w3.org/1999/02/22-rdf-syntax-ns#"
   xmlns:svg="http://www.w3.org/2000/svg"
   xmlns="http://www.w3.org/2000/svg"
   xmlns:sodipodi="http://sodipodi.sourceforge.net/DTD/sodipodi-0.dtd"
   xmlns:inkscape="http://www.inkscape.org/namespaces/inkscape"
   width="210mm"
   height="297mm"
   viewBox="0 0 210 297"
   version="1.1"
   id="svg138"
   inkscape:version="0.92.3 (2405546, 2018-03-11)"
   sodipodi:docname="pendingPayment_new.svg">
  <defs
     id="defs132" />
  <sodipodi:namedview
     id="base"
     pagecolor="#ffffff"
     bordercolor="#666666"
     borderopacity="1.0"
     inkscape:pageopacity="0.0"
     inkscape:pageshadow="2"
     inkscape:zoom="0.49497475"
     inkscape:cx="792.63471"
     inkscape:cy="779.92233"
     inkscape:document-units="mm"
     inkscape:current-layer="layer1"
     showgrid="false"
     inkscape:window-width="1920"
     inkscape:window-height="1017"
     inkscape:window-x="-8"
     inkscape:window-y="-8"
     inkscape:window-maximized="1" />
  <metadata
     id="metadata135">
    <rdf:RDF>
      <cc:Work
         rdf:about="">
        <dc:format>image/svg+xml</dc:format>
        <dc:type
           rdf:resource="http://purl.org/dc/dcmitype/StillImage" />
        <dc:title></dc:title>
      </cc:Work>
    </rdf:RDF>
  </metadata>
  <g
     inkscape:label="Layer 1"
     inkscape:groupmode="layer"
     id="layer1">
    <path
       d="m 123.289,39.015766 c -0.19524,-3.375215 -4.20956,-6.01255 -12.23813,-8.02466 0.27026,-0.591974 0.42213,-1.207209 0.42414,-1.846375 V 15.34431 h -0.0335 C 110.73528,3.8478123 63.625144,3.5085838 58.214245,3.5085838 c -5.4109,0 -52.5210377,0.3392285 -53.2272381,11.8357262 h -0.033554 v 0.256472 0 0 13.549989 c 0.00969,3.747917 4.8467284,6.68124 12.0428501,8.864903 -0.09864,0.327299 -0.157833,0.660563 -0.177516,1.000166 h -0.02982 v 0.256472 0 0 13.526278 C 9.0365652,54.794896 5.164309,57.394803 4.9729627,60.714696 h -0.019379 v 0.256474 0 0 13.549911 c 0.00595,2.609825 2.3592579,4.823088 6.2098093,6.667448 -0.143971,0.398129 -0.236716,0.806842 -0.262362,1.225025 h -0.02981 v 0.256472 0 0 13.549914 c 0.01565,6.56098 14.788737,10.63441 31.202919,12.53603 0.120333,0.0224 0.230825,0.0745 0.358986,0.0745 0.03727,0 0.06932,-0.0224 0.10654,-0.0224 3.164087,0.35711 6.379461,0.63521 9.561299,0.83442 0.06708,0.007 0.126214,0.0373 0.195262,0.0373 0.03727,0 0.06711,-0.0224 0.102589,-0.0224 4.039925,0.24678 8.014759,0.37054 11.733147,0.37054 3.718392,0 7.693221,-0.12448 11.733151,-0.37054 0.0358,0.002 0.06711,0.0224 0.10259,0.0224 0.06932,0 0.128229,-0.0373 0.195261,-0.0373 3.181839,-0.19906 6.397205,-0.47567 9.561292,-0.83442 0.03727,0 0.06932,0.0224 0.106539,0.0224 0.12823,0 0.238652,-0.0522 0.358986,-0.0745 16.414178,-1.90162 31.185158,-5.97706 31.202918,-12.539983 V 82.415569 h -0.0313 c -0.13833,-2.418216 -2.19972,-4.436218 -6.2712,-6.122818 0.24857,-0.570353 0.38464,-1.161877 0.38464,-1.775323 V 61.624353 c 7.08169,-2.177774 11.82586,-5.09134 11.83573,-8.805782 V 39.01815 Z M 18.761782,34.427454 v -9.529793 c 1.842428,0.497289 3.822942,0.950811 5.917862,1.363104 v 9.628356 c -0.242603,-0.0522 -0.49311,-0.102883 -0.729901,-0.153585 -1.049439,-0.230378 -2.073232,-0.471192 -3.051648,-0.726173 -0.745646,-0.191608 -1.453823,-0.386946 -2.13635,-0.582282 z m 88.316218,-4.324011 -0.0551,-0.01491 -0.71805,0.558425 c -1.04159,0.810717 -2.64138,1.631353 -4.69291,2.424329 v -9.383739 c 2.34545,-0.816685 4.34173,-1.722089 5.91785,-2.714352 v 8.162738 c 0,0.299714 -0.15783,0.623285 -0.45172,0.964602 z M 54.614169,74.489396 c 0.54247,0.0074 1.084944,0.01491 1.62742,0.02236 v 9.859179 c -0.382697,-0.0039 -0.765382,-0.0039 -1.146095,-0.0074 -0.173565,-0.002 -0.341242,-0.0074 -0.512869,-0.0074 -0.903458,-0.0149 -1.802974,-0.03727 -2.696578,-0.06711 -0.11049,-0.0039 -0.220907,-0.0074 -0.331399,-0.0149 -1.07508,-0.03727 -2.142263,-0.08125 -3.201558,-0.131971 v -9.847848 c 1.976561,0.09245 3.962988,0.153586 5.949422,0.189371 0.10259,0 0.207115,0.0019 0.311643,0.0039 z m 7.513715,-0.006 c 1.986433,-0.03727 3.972861,-0.09843 5.949431,-0.189371 v 9.849337 c -0.422135,0.02236 -0.84626,0.04473 -1.274315,0.05964 -1.183573,0.05218 -2.384897,0.09095 -3.605949,0.120028 -0.288009,0.0074 -0.577955,0.0149 -0.867954,0.0149 -0.704255,0.0149 -1.426209,0.0149 -2.140296,0.02237 v -9.85329 c 0.542467,-0.006 1.084943,-0.01491 1.627411,-0.02236 0.102589,0 0.207116,-0.002 0.311642,-0.0039 z m 11.208438,9.326552 c -0.433989,0.03727 -0.871901,0.06711 -1.31377,0.09841 v -9.837413 c 2.000242,-0.131956 3.976804,-0.290022 5.917865,-0.479394 v 9.796031 c -1.219077,0.128228 -2.465777,0.24827 -3.746002,0.353394 -0.286072,0.02236 -0.572068,0.04473 -0.858093,0.06711 z m 8.54934,-10.644249 c 2.033768,-0.244544 4.008363,-0.522638 5.917861,-0.832416 v 9.685538 c -1.858211,0.327299 -3.832798,0.62925 -5.917861,0.903467 z m -42.37388,10.328657 c -0.201226,-0.02237 -0.400437,-0.04473 -0.599652,-0.05965 -0.142033,-0.01491 -0.282045,-0.02982 -0.424072,-0.04473 v -9.793944 c 1.941057,0.187135 3.917629,0.34743 5.917863,0.479393 v 9.829581 C 42.74892,83.786453 41.111643,83.652255 39.511849,83.496432 Z M 34.542753,73.165735 v 9.756589 C 32.45769,82.647959 30.483102,82.346008 28.624889,82.018857 v -9.685538 c 1.909501,0.309406 3.884096,0.589735 5.917864,0.832416 z m 57.206015,8.091683 v -9.628353 c 2.094917,-0.412293 4.075433,-0.865964 5.917863,-1.36303 v 9.529719 c -1.757611,0.506979 -3.736143,0.998151 -5.917863,1.461664 z M 54.614169,29.119084 c 0.54247,0.0074 1.084944,0.01491 1.62742,0.02237 v 9.849339 c -2.655148,-0.02237 -5.294518,-0.09469 -7.89049,-0.225159 V 28.9242 c 1.97657,0.09245 3.962997,0.153587 5.949429,0.189371 0.104537,0 0.209129,0.002 0.313656,0.0039 z m 7.513715,-0.006 c 1.986433,-0.03728 3.972861,-0.09841 5.949431,-0.189372 v 9.841361 c -0.335352,0.0149 -0.65691,0.03727 -0.994201,0.05218 -0.02758,0.002 -0.05518,0.002 -0.08484,0.0039 -1.323635,0.05963 -2.672908,0.102882 -4.039932,0.134207 -0.21308,0.006 -0.426086,0.0074 -0.639166,0.0149 -0.702241,0.01491 -1.420288,0.01491 -2.132407,0.02236 v -9.853291 c 0.542468,-0.006 1.084942,-0.01491 1.627418,-0.02236 0.104536,-0.0019 0.209128,-0.0039 0.313656,-0.006 z M 73.963612,52.78454 c 1.986434,-0.03728 3.972859,-0.09843 5.949429,-0.189375 v 9.839423 c -2.592027,0.128244 -5.227447,0.199065 -7.890489,0.226649 v -9.84728 c 0.542468,-0.006 1.084943,-0.0149 1.627419,-0.02236 0.104525,-0.0019 0.209128,-0.0039 0.313654,-0.006 z m -19.010145,9.32857 c -1.262484,-0.09843 -2.495368,-0.207266 -3.698668,-0.327301 -0.25841,-0.02236 -0.516819,-0.05218 -0.773271,-0.07902 -0.05294,-0.006 -0.104536,-0.0149 -0.157833,-0.0149 v -9.796032 c 1.941061,0.187135 3.917629,0.347431 5.917865,0.479394 V 62.20677 C 56.081785,62.19187 55.912097,62.1844 55.752323,62.17695 55.484071,62.15459 55.217758,62.13968 54.953414,62.11732 Z M 42.719268,60.698817 c -0.781158,-0.124502 -1.514973,-0.258708 -2.25865,-0.388435 v -9.673686 c 1.909498,0.309407 3.884093,0.5875 5.917861,0.832415 v 9.756591 c -1.207244,-0.159549 -2.38884,-0.325808 -3.523101,-0.503251 -0.04549,-0.0074 -0.09074,-0.0149 -0.136146,-0.02236 z m 23.73063,-7.908279 c 0.542468,0.0074 1.084941,0.01491 1.627417,0.02236 v 9.849339 c -0.960666,-0.0074 -1.929226,-0.0149 -2.866222,-0.03727 -0.143971,-0.0039 -0.293897,-0.006 -0.437939,-0.0074 -1.483415,-0.03727 -2.933286,-0.09469 -4.357517,-0.164022 -0.07693,-0.0039 -0.153883,-0.0074 -0.228811,-0.0074 v -9.849337 c 1.976562,0.09245 3.962988,0.153584 5.949423,0.189371 0.104514,0 0.209129,0.002 0.313656,0.0039 z m 19.858379,9.227916 c -0.07082,0.006 -0.140094,0.0149 -0.211066,0.0149 -0.73579,0.05964 -1.495246,0.100643 -2.240892,0.153586 v -9.819664 c 2.000234,-0.13197 3.976804,-0.290023 5.917863,-0.479394 v 9.786188 c -1.144126,0.122264 -2.288243,0.242306 -3.465897,0.341466 z M 38.487998,38.009709 v -9.788127 c 1.941058,0.187135 3.917623,0.347429 5.917864,0.479394 v 9.81974 c -2.00813,-0.143897 -3.988645,-0.307918 -5.917864,-0.510708 z m 39.452419,-0.0039 c -1.905548,0.201299 -3.878169,0.376506 -5.917865,0.522636 v -9.827568 c 2.000242,-0.131956 3.976804,-0.290021 5.917865,-0.479393 z m 3.945245,-10.210263 c 2.033768,-0.244542 4.008363,-0.522636 5.917861,-0.832489 v 9.669807 c -1.870043,0.329537 -3.838718,0.63298 -5.917861,0.907417 z m 9.863106,8.077894 v -9.612647 c 2.094917,-0.412293 4.075433,-0.865965 5.917863,-1.363104 v 9.508096 c -1.767464,0.515181 -3.757847,1.005982 -5.917863,1.467632 z M 34.542753,27.795557 v 9.746677 c -0.390598,-0.05219 -0.796942,-0.09245 -1.183573,-0.146133 -0.252521,-0.03727 -0.493185,-0.07457 -0.741681,-0.108104 -1.140172,-0.164023 -2.254707,-0.339229 -3.347539,-0.522635 -0.218969,-0.03727 -0.430036,-0.0768 -0.645056,-0.114812 v -9.685533 c 1.909501,0.307915 3.884094,0.5875 5.917864,0.830476 z m 1.972619,22.134787 v 9.612548 C 34.335629,59.075427 32.35906,58.57829 30.597508,58.061469 v -9.494228 c 1.842429,0.497287 3.822942,0.952747 5.917864,1.363103 z M 99.4558,60.353611 c -0.865985,0.149858 -1.739856,0.298223 -2.637401,0.433915 -0.514883,0.07905 -1.041543,0.153585 -1.570202,0.228887 -0.499083,0.07457 -1.017872,0.131971 -1.524841,0.197571 v -9.746673 c 2.033777,-0.244543 4.008374,-0.522637 5.917872,-0.832491 v 9.685615 c -0.06336,0.0149 -0.124323,0.02236 -0.185428,0.02981 z M 26.652271,47.36191 v 9.371881 c -3.100959,-1.197365 -5.101202,-2.420377 -5.752164,-3.509264 l -0.132194,-0.220685 c -0.01188,-0.05963 -0.03132,-0.125997 -0.03356,-0.187135 V 44.64808 c 1.576125,0.992263 3.572414,1.897667 5.917865,2.714352 z m -1.972627,24.267155 v 9.628353 c -1.810862,-0.384707 -3.481671,-0.789023 -5.002565,-1.203255 -0.240665,-0.0671 -0.489235,-0.131971 -0.723936,-0.2013 -0.06487,-0.02236 -0.126214,-0.03727 -0.191309,-0.05218 v -9.529791 c 1.842429,0.49505 3.822943,0.95081 5.917862,1.361089 z m 5.917864,21.698864 v 9.628341 c -2.181718,-0.46374 -4.160254,-0.95476 -5.917864,-1.46174 v -9.529718 c 1.842431,0.497293 3.822945,0.952835 5.917864,1.363117 z m 3.945245,0.706035 c 1.909499,0.309406 3.884093,0.588239 5.917865,0.832414 v 9.756592 c -2.085067,-0.27437 -4.059651,-0.57557 -5.917865,-0.90347 z m 9.863109,1.25656 c 1.941058,0.187141 3.91762,0.347436 5.917862,0.479391 v 9.837485 c -2.049553,-0.14385 -4.022179,-0.31984 -5.917862,-0.51891 z m 9.863099,0.702323 c 1.976571,0.09243 3.962997,0.153585 5.949432,0.189362 0.104536,0.0016 0.209128,0.0045 0.311643,0.006 0.542467,0.0074 1.084942,0.0149 1.62741,0.02236 v 9.861111 c -2.726161,-0.0224 -5.357636,-0.10436 -7.890482,-0.22888 v -9.8512 z m 11.835727,0.216954 c 0.542468,-0.006 1.084944,-0.0149 1.627419,-0.02236 0.104536,-0.0016 0.209128,-0.0045 0.313657,-0.006 1.986426,-0.03726 3.972858,-0.09838 5.949424,-0.189362 v 9.849341 c -2.532849,0.12448 -5.164322,0.20279 -7.890485,0.22888 z m 11.835729,-0.439886 c 2.00024,-0.131926 3.976804,-0.290014 5.917861,-0.479391 v 9.796026 c -1.895684,0.19907 -3.868309,0.37502 -5.917861,0.51891 z m 9.863106,-0.905401 c 2.03377,-0.244547 4.008364,-0.522634 5.917866,-0.832415 v 9.685541 c -1.858216,0.3273 -3.832802,0.62925 -5.917866,0.90346 z m 9.863108,-1.536661 c 2.094924,-0.412294 4.075439,-0.865969 5.917869,-1.363115 v 9.529722 c -1.75761,0.50698 -3.736156,0.99815 -5.917869,1.46174 z m 9.650059,-18.171778 -0.67264,0.589735 c -1.03563,0.913307 -2.76166,1.834518 -5.03216,2.72218 v -9.405434 c 2.34545,-0.816682 4.34175,-1.722089 5.91787,-2.714352 v 8.162739 c 0,0.203537 -0.075,0.420492 -0.21308,0.644907 z m 1.3256,-16.816648 c -0.98236,0.274363 -2.02194,0.530835 -3.08319,0.781192 -0.49119,0.114811 -0.99225,0.228888 -1.50512,0.33923 -0.15187,0.03727 -0.31366,0.05965 -0.46754,0.09693 v -9.624404 c 2.09492,-0.412293 4.07542,-0.865965 5.91785,-1.363102 v 9.529792 c -0.28405,0.07904 -0.57005,0.159549 -0.86203,0.240816 z M 8.8986798,29.144657 V 20.97603 c 1.5761232,0.992262 3.5724142,1.897667 5.9178652,2.714352 v 9.444871 C 10.979792,31.697223 8.9026242,30.255239 8.8986798,29.144657 Z m 0,45.370311 v -8.168626 c 1.5761232,0.992186 3.5724142,1.897667 5.9178652,2.714352 v 9.40737 l -1.126367,-0.437642 -0.02386,0.02236 C 10.569274,76.768559 8.902408,75.508045 8.8984637,74.513844 Z m 5.9178652,21.698784 v -8.168555 c 1.576122,0.992186 3.572412,1.897602 5.917861,2.714274 v 9.444959 c -3.836749,-1.438037 -5.913919,-2.880026 -5.917861,-3.990678 z m 92.713185,3.990678 v -9.442947 c 2.34545,-0.816672 4.34175,-1.722086 5.91787,-2.714348 v 8.162741 c -10e-4,1.110578 -2.08112,2.554505 -5.91787,3.994554 z m 5.91787,-43.397722 v -9.442936 c 2.34545,-0.816607 4.34174,-1.722088 5.91786,-2.714274 v 8.162662 c -0.001,1.110582 -2.08111,2.554577 -5.91786,3.994548 z"
       id="path2"
       inkscape:connector-curvature="0"
       style="stroke-width:1.97262108" />
    <circle
       style="fill:#ffffff;stroke-width:1.23879147"
       id="path55"
       cx="111.47496"
       cy="92.668617"
       r="42.754055" />
    <path
       inkscape:connector-curvature="0"
       style="fill:#000000;stroke-width:0.02319727"
       d="m 111.47519,55.995839 c -20.221359,0 -36.673028,16.453414 -36.673028,36.672563 0,20.223628 16.451071,36.673078 36.673028,36.673078 20.2219,0 36.67257,-16.44945 36.67257,-36.673078 0,-20.219747 -16.4512,-36.672563 -36.67257,-36.672563 z"
       id="path66" />
    <path
       inkscape:connector-curvature="0"
       style="fill:#ffffff;stroke-width:0.02253492"
       d="M 111.47497,62.50851 A 30.160114,30.160114 0 0 1 141.6351,92.668626 30.160114,30.160114 0 0 1 111.47497,122.82875 30.160114,30.160114 0 0 1 81.314832,92.668626 30.160114,30.160114 0 0 1 111.47497,62.50851 Z"
       id="path64" />
    <path
       id="path181-1-4-1-7"
       style="fill:#000000;stroke-width:0.02201444"
       d="m 103.41823,84.77533 7.78759,5.146286 8.25404,-5.126303 v -4.420708 h -16.04163 z m 17.20045,0.945369 -9.36153,5.805806 -8.92577,-5.793579 V 74.974084 h 18.28582 v 10.746542 z m -9.53859,19.961861 -3.7182,1.50938 -4.41306,0.59346 v 1.68883 h 16.2595 v -1.68883 l -4.01891,-0.48908 z m 9.20275,-5.794112 V 110.32217 H 101.99857 V 99.557203 l 9.21569,-5.713884 z m 2.17272,-24.914738 h 4.0434 v -3.989703 h -4.0434 -1.87902 -18.28581 -1.879 -3.960561 v 3.989703 h 2.346895 1.613666 v 11.771161 l 8.92277,5.945444 -9.32466,5.78292 0.0417,0.06707 -0.0216,0.0149 v 11.811065 h -1.231759 -2.346867 v 3.9897 H 126.4991 v -3.9894 h -4.42535 V 98.570795 l -9.04392,-5.864101 9.44274,-5.854945 -0.041,-0.06708 0.0247,-0.0149 z"
       inkscape:connector-curvature="0" />
  </g>
</svg>
