<?xml version="1.0" encoding="UTF-8" standalone="no"?>
<!-- Generator: Adobe Illustrator 16.0.0, SVG Export Plug-In . SVG Version: 6.00 Build 0)  -->

<svg
   xmlns:dc="http://purl.org/dc/elements/1.1/"
   xmlns:cc="http://creativecommons.org/ns#"
   xmlns:rdf="http://www.w3.org/1999/02/22-rdf-syntax-ns#"
   xmlns:svg="http://www.w3.org/2000/svg"
   xmlns="http://www.w3.org/2000/svg"
   xmlns:sodipodi="http://sodipodi.sourceforge.net/DTD/sodipodi-0.dtd"
   xmlns:inkscape="http://www.inkscape.org/namespaces/inkscape"
   version="1.1"
   id="Capa_1"
   x="0px"
   y="0px"
   width="31.939px"
   height="31.939px"
   viewBox="0 0 31.939 31.939"
   style="enable-background:new 0 0 31.939 31.939;"
   xml:space="preserve"
   sodipodi:docname="idcard.svg"><metadata
   id="metadata53"><rdf:RDF><cc:Work
       rdf:about=""><dc:format>image/svg+xml</dc:format><dc:type
         rdf:resource="http://purl.org/dc/dcmitype/StillImage" /></cc:Work></rdf:RDF></metadata><defs
   id="defs51" /><sodipodi:namedview
   pagecolor="#ffffff"
   bordercolor="#666666"
   borderopacity="1"
   objecttolerance="10"
   gridtolerance="10"
   guidetolerance="10"
   inkscape:pageopacity="0"
   inkscape:pageshadow="2"
   inkscape:window-width="640"
   inkscape:window-height="480"
   id="namedview49"
   showgrid="false" />
<g
   id="g16"
   transform="translate(-224.81555,66.046594)">
	<g
   id="g14">
		<path
   d="M 257.735,44.746 H 28.63 C 12.821,44.746 0,57.339 0,72.87 v 140.635 c 0,15.53 12.821,28.124 28.63,28.124 h 229.105 c 15.819,0 28.64,-12.594 28.64,-28.124 V 72.87 c 0,-15.531 -12.821,-28.124 -28.64,-28.124 z M 53.696,100.233 c 0,-19.323 14.595,-28.639 26.821,-28.639 12.646,0 26.821,9.316 26.821,28.639 v 14.315 c 0,19.332 -19.646,28.639 -26.821,28.639 -6.799,0 -26.821,-9.307 -26.821,-28.639 z m 80.541,96.65 c 0,12.987 -4.369,17.898 -17.897,17.898 H 44.755 c -13.529,0 -17.899,-4.911 -17.899,-17.898 -0.018,-0.14 0,-8.792 0,-8.95 0,-9.832 4.484,-23.693 20.363,-34.425 6.581,-4.448 14.909,2.727 24.383,11.073 l 2.614,2.614 c 0.087,0.087 2.971,2.84 6.406,2.84 3.486,0 6.283,-2.871 6.283,-2.871 v 0.005 l 2.587,-2.588 c 9.474,-8.345 16.64,-15.381 24.383,-11.073 16.745,9.317 20.362,24.594 20.362,34.425 0,0.158 0.019,8.81 0,8.95 z m 116.341,0 h -80.543 c -4.946,0 -8.948,-4.008 -8.948,-8.95 0,-4.942 4.002,-8.949 8.948,-8.949 h 80.543 c 4.946,0 8.948,4.007 8.948,8.949 10e-4,4.942 -4.002,8.95 -8.948,8.95 z m 0,-44.746 h -80.543 c -4.946,0 -8.948,-4.007 -8.948,-8.95 0,-4.942 4.002,-8.949 8.948,-8.949 h 80.543 c 4.946,0 8.948,4.007 8.948,8.949 10e-4,4.942 -4.002,8.95 -8.948,8.95 z m 0,-44.746 h -80.543 c -4.946,0 -8.948,-4.008 -8.948,-8.95 0,-4.942 4.002,-8.949 8.948,-8.949 h 80.543 c 4.946,0 8.948,4.007 8.948,8.949 10e-4,4.942 -4.002,8.95 -8.948,8.95 z"
   id="path12"
   inkscape:connector-curvature="0" />
	</g>
</g>
<g
   id="g18">
</g>
<g
   id="g20">
</g>
<g
   id="g22">
</g>
<g
   id="g24">
</g>
<g
   id="g26">
</g>
<g
   id="g28">
</g>
<g
   id="g30">
</g>
<g
   id="g32">
</g>
<g
   id="g34">
</g>
<g
   id="g36">
</g>
<g
   id="g38">
</g>
<g
   id="g40">
</g>
<g
   id="g42">
</g>
<g
   id="g44">
</g>
<g
   id="g46">
</g>
<circle
   style="fill:#000000"
   id="path78"
   cx="31.388321"
   cy="205.72313"
   r="72.72905" /><path
   inkscape:connector-curvature="0"
   id="path2"
   d="m 360.58944,43.125822 32.534,-32.534 c 0.781,-0.781 0.781,-2.047 0,-2.828 l -12.02,-12.022 c -0.375,-0.375 -0.884,-0.586 -1.414,-0.586 -0.53,0 -1.039,0.211 -1.414,0.586 l -32.535,32.535 -32.53499,-32.535 c -0.75,-0.75 -2.078,-0.75 -2.828,0 l -12.02,12.022 c -0.781,0.781 -0.781,2.047 0,2.828 l 32.53399,32.534 -32.53399,32.534 c -0.781,0.781 -0.781,2.047 0,2.828 l 12.02,12.021 c 0.375,0.375 0.884,0.586 1.414,0.586 0.53,0 1.039,-0.211 1.414,-0.586 l 32.53499,-32.534 32.535,32.535 c 0.375,0.375 0.884,0.586 1.414,0.586 0.53,0 1.039,-0.211 1.414,-0.586 l 12.02,-12.021 c 0.781,-0.781 0.781,-2.047 0,-2.828 z"
   style="fill:#ffffff" /></svg>