<?xml version="1.0" encoding="UTF-8" standalone="no"?>
<!-- Generator: Adobe Illustrator 16.0.0, SVG Export Plug-In . SVG Version: 6.00 Build 0)  -->

<svg
   xmlns:dc="http://purl.org/dc/elements/1.1/"
   xmlns:cc="http://creativecommons.org/ns#"
   xmlns:rdf="http://www.w3.org/1999/02/22-rdf-syntax-ns#"
   xmlns:svg="http://www.w3.org/2000/svg"
   xmlns="http://www.w3.org/2000/svg"
   xmlns:sodipodi="http://sodipodi.sourceforge.net/DTD/sodipodi-0.dtd"
   xmlns:inkscape="http://www.inkscape.org/namespaces/inkscape"
   version="1.1"
   id="Capa_1"
   x="0px"
   y="0px"
   width="31.939px"
   height="31.939px"
   viewBox="0 0 31.939 31.939"
   style="enable-background:new 0 0 31.939 31.939;"
   xml:space="preserve"
   sodipodi:docname="idcard.svg"
   inkscape:version="0.92.3 (2405546, 2018-03-11)"><metadata
   id="metadata43"><rdf:RDF><cc:Work
       rdf:about=""><dc:format>image/svg+xml</dc:format><dc:type
         rdf:resource="http://purl.org/dc/dcmitype/StillImage" /></cc:Work></rdf:RDF></metadata><defs
   id="defs41">
	

		
	</defs><sodipodi:namedview
   pagecolor="#ffffff"
   bordercolor="#666666"
   borderopacity="1"
   objecttolerance="10"
   gridtolerance="10"
   guidetolerance="10"
   inkscape:pageopacity="0"
   inkscape:pageshadow="2"
   inkscape:window-width="1920"
   inkscape:window-height="1017"
   id="namedview39"
   showgrid="false"
   inkscape:zoom="0.23090893"
   inkscape:cx="-964.68935"
   inkscape:cy="-694.42053"
   inkscape:window-x="-8"
   inkscape:window-y="-8"
   inkscape:window-maximized="1"
   inkscape:current-layer="Capa_1" />


<path
   style="fill:#000000;stroke-width:1.09969962"
   d="m -1298.8823,85.950858 c -43.8712,0 -79.4492,34.947152 -79.4492,78.046872 v 390.27344 c 0,43.09695 35.578,78.04492 79.4492,78.04492 h 635.78517 c 43.89895,0 79.47852,-34.94797 79.47852,-78.04492 V 163.99773 c 0,-43.09972 -35.57957,-78.046872 -79.47852,-78.046872 z m 143.9922,74.505862 c 35.0936,0 74.4297,25.85179 74.4297,79.47461 v 39.72656 c 0,53.64779 -54.5185,79.47461 -74.4297,79.47461 -18.8678,0 -74.4316,-25.82682 -74.4316,-79.47461 v -39.72656 c 0,-53.62282 40.5035,-79.47461 74.4316,-79.47461 z m 178.74218,201.16992 h 165.09181 v 23.02539 h -69.59375 v 171.76172 h -25.90235 V 384.65203 h -69.59571 z m 191.51759,0 h 52.84961 c 11.68636,0 21.58462,1.00389 29.69531,3.00976 8.11068,1.91866 15.3067,4.97009 21.58594,9.15625 7.41299,4.97107 13.12498,11.16319 17.13672,18.57618 4.09894,7.41299 6.14843,16.78944 6.14843,28.12695 0,8.63395 -1.52572,16.65732 -4.57812,24.07031 -2.9652,7.32578 -7.15148,13.69249 -12.5586,19.09961 -6.71529,6.7153 -14.65136,11.77258 -23.80859,15.17383 -9.15722,3.31404 -20.7141,4.9707 -34.66797,4.9707 h -25.90039 v 72.60352 h -25.90234 z m 25.90234,22.24023 v 77.83594 h 21.8457 c 10.4654,0 18.9689,-0.9166 25.50977,-2.74805 6.54087,-1.91865 11.86004,-4.92644 15.95898,-9.02539 4.09895,-4.18616 6.97775,-8.59067 8.63477,-13.21289 1.74423,-4.62221 2.61523,-9.81043 2.61523,-15.5664 0,-6.7153 -1.17653,-12.55823 -3.53125,-17.5293 -2.35471,-4.97106 -5.92992,-9.0264 -10.72656,-12.16602 -4.18616,-2.70356 -8.9835,-4.62406 -14.39062,-5.75781 -5.31991,-1.22097 -12.0775,-1.83008 -20.27539,-1.83008 z m -475.90431,0.13477 c 15.8625,0.29684 34.4621,16.40758 55.002,34.50195 l 7.2539,7.25391 c 0.2415,0.24143 8.2449,7.88086 17.7773,7.88086 9.6739,0 17.4356,-7.9668 17.4356,-7.9668 v 0.0137 l 7.1797,-7.18164 c 26.2911,-23.15802 46.1766,-42.68354 67.664,-30.72851 46.4687,25.85539 56.5059,68.24947 56.5059,95.53125 0,0.43847 0.053,24.44938 0,24.83789 0,36.03993 -12.1248,49.66797 -49.666,49.66797 h -198.6524 c -37.544,0 -49.6718,-13.62804 -49.6718,-49.66797 -0.05,-0.38851 0,-24.39942 0,-24.83789 0,-27.28455 12.4423,-65.74912 56.5078,-95.53125 3.995,-2.70015 8.2225,-3.85656 12.664,-3.77344 z"
   id="rect24"
   inkscape:connector-curvature="0" /><path
   style="fill:#000000;stroke-width:1.09969962"
   d="m -170.66206,139.85874 c -43.8712,0 -79.44922,34.94716 -79.44922,78.04688 v 390.27344 c 0,43.09695 35.57802,78.04492 79.44922,78.04492 h 635.78515 c 43.89895,0 79.47658,-34.94797 79.47656,-78.04492 V 217.90562 c 0,-43.09972 -35.57761,-78.04688 -79.47656,-78.04688 z m 143.990231,74.50586 c 35.0936001,0 74.43164,25.85179 74.43164,79.47461 v 39.72656 c 0,53.64779 -54.5204399,79.47461 -74.43164,79.47461 -18.8678,0 -74.429691,-25.82682 -74.429691,-79.47461 v -39.72656 c 0,-53.62282 40.501591,-79.47461 74.429691,-79.47461 z M 165.27739,414.72984 h 48.66406 c 19.01214,0 34.10061,1.39477 45.26367,4.18554 11.25034,2.70356 20.75578,6.45336 28.51758,11.25 13.2562,8.28511 23.59091,19.31822 31.00391,33.09766 7.413,13.77944 11.11914,30.13171 11.11914,49.05664 0,17.70397 -3.88071,33.75071 -11.64258,48.14063 -7.6746,14.38992 -17.92205,25.55202 -30.74219,33.48828 -8.8956,5.49434 -18.8375,9.46237 -29.82617,11.90429 -10.90147,2.44193 -25.29159,3.66407 -43.16992,3.66407 h -49.1875 z m 206.69141,0 h 25.90234 v 171.76172 h 97.32812 v 23.02539 H 371.9688 Z m -180.78907,22.23828 v 150.30859 h 24.33203 c 12.47127,0 23.32976,-0.91465 32.57422,-2.74609 9.3316,-1.83144 17.87682,-5.23401 25.63867,-10.20508 9.68048,-6.19203 16.92014,-14.34634 21.7168,-24.46289 4.88387,-10.11655 7.32617,-22.76072 7.32617,-37.93555 0,-15.26204 -2.66053,-28.12639 -7.98047,-38.59179 -5.31992,-10.4654 -13.25599,-18.70701 -23.80859,-24.72461 -7.6746,-4.36058 -15.82889,-7.37032 -24.46289,-9.02735 -8.63393,-1.74423 -18.96871,-2.61523 -31.00391,-2.61523 z m -297.59179,0.93945 c 15.862496,0.29685 34.462031,16.40759 55.001951,34.50195 l 7.25391,7.25391 c 0.2415,0.24143 8.24299,7.88281 17.77539,7.88281 9.6739,0 17.4375001,-7.96875 17.4375001,-7.96875 v 0.0156 l 7.17773,-7.1836 C 24.525521,449.2515 44.413041,429.72598 65.900441,441.68101 c 46.468699,25.85539 56.505859,68.25142 56.505859,95.5332 0,0.43847 0.053,24.44743 0,24.83594 0,36.03993 -12.12482,49.66992 -49.666019,49.66992 H -125.91402 c -37.544,0 -49.66992,-13.62999 -49.66992,-49.66992 -0.05,-0.38851 0,-24.39747 0,-24.83594 0,-27.28455 12.44232,-65.75107 56.50782,-95.5332 3.99498,-2.70015 8.22256,-3.85656 12.66406,-3.77344 z"
   id="rect24-2"
   inkscape:connector-curvature="0" /><path
   style="fill:#000000;stroke-width:1.09969962"
   d="M 1388.6152 170.19922 C 1344.744 170.19922 1309.1641 205.14444 1309.1641 248.24414 L 1309.1641 638.51758 C 1309.1641 681.61448 1344.744 716.56445 1388.6152 716.56445 L 2024.3984 716.56445 C 2068.2974 716.56445 2103.877 681.61448 2103.877 638.51758 L 2103.877 248.24414 C 2103.877 205.14444 2068.2974 170.19922 2024.3984 170.19922 L 1388.6152 170.19922 z M 1532.6055 244.70312 C 1567.6991 244.70312 1607.0352 270.55689 1607.0352 324.17969 L 1607.0352 363.9043 C 1607.0352 417.552 1552.5167 443.37891 1532.6055 443.37891 C 1513.7377 443.37891 1458.1738 417.552 1458.1738 363.9043 L 1458.1738 324.17969 C 1458.1738 270.55689 1498.6774 244.70312 1532.6055 244.70312 z M 1747.6699 446.56836 L 1824.5898 446.56836 L 1824.5898 466.45312 L 1799.0801 466.45312 L 1799.0801 621.4707 L 1824.5898 621.4707 L 1824.5898 641.35547 L 1747.6699 641.35547 L 1747.6699 621.4707 L 1773.1797 621.4707 L 1773.1797 466.45312 L 1747.6699 466.45312 L 1747.6699 446.56836 z M 1868.9375 446.56836 L 1917.6016 446.56836 C 1936.6137 446.56836 1951.7001 447.96313 1962.8633 450.75391 C 1974.1135 453.45747 1983.6209 457.20921 1991.3828 462.00586 C 2004.6389 470.29097 2014.9737 481.32212 2022.3867 495.10156 C 2029.7997 508.881 2033.5059 525.23328 2033.5059 544.1582 C 2033.5059 561.86217 2029.6251 577.90891 2021.8633 592.29883 C 2014.1886 606.68875 2003.9412 617.8528 1991.1211 625.78906 C 1982.2255 631.2834 1972.2836 635.25143 1961.2949 637.69336 C 1950.3935 640.13529 1936.0034 641.35547 1918.125 641.35547 L 1868.9375 641.35547 L 1868.9375 446.56836 z M 1452.8633 468.24805 C 1468.7258 468.54487 1487.3253 484.65562 1507.8652 502.75 L 1515.1191 510.00391 C 1515.3606 510.24541 1523.3641 517.88477 1532.8965 517.88477 C 1542.5704 517.88477 1550.332 509.91797 1550.332 509.91797 L 1550.332 509.93164 L 1557.5117 502.75 C 1583.8028 479.592 1603.6884 460.06648 1625.1758 472.02148 C 1671.6445 497.87688 1681.6816 540.27093 1681.6816 567.55273 C 1681.6816 567.99123 1681.7346 592.00213 1681.6816 592.39062 C 1681.6816 628.43062 1669.5588 642.05859 1632.0176 642.05859 L 1433.3633 642.05859 C 1395.8193 642.05859 1383.6914 628.43062 1383.6914 592.39062 C 1383.6414 592.00212 1383.6914 567.99123 1383.6914 567.55273 C 1383.6914 540.26813 1396.1357 501.80358 1440.2012 472.02148 C 1444.1962 469.32132 1448.4218 468.16494 1452.8633 468.24805 z M 1894.8398 468.80859 L 1894.8398 619.11719 L 1919.1719 619.11719 C 1931.6431 619.11719 1942.4997 618.20059 1951.7441 616.36914 C 1961.0758 614.5377 1969.623 611.13708 1977.3848 606.16602 C 1987.0653 599.97399 1994.305 591.81968 1999.1016 581.70312 C 2003.9854 571.58658 2006.4258 558.94045 2006.4258 543.76562 C 2006.4258 528.50358 2003.7672 515.64118 1998.4473 505.17578 C 1993.1274 494.71039 1985.1913 486.46878 1974.6387 480.45117 C 1966.964 476.09059 1958.8097 473.08085 1950.1758 471.42383 C 1941.5418 469.67959 1931.2071 468.80859 1919.1719 468.80859 L 1894.8398 468.80859 z "
   id="rect24-2-1" /><path
   style="fill:#000000;stroke-width:1.09969962"
   d="M -1410.3047 1346.1113 C -1454.1759 1346.1113 -1489.7559 1381.0585 -1489.7559 1424.1582 L -1489.7559 1814.4316 C -1489.7559 1857.5285 -1454.1759 1892.4785 -1410.3047 1892.4785 L -774.52148 1892.4785 C -730.62248 1892.4785 -695.04297 1857.5285 -695.04297 1814.4316 L -695.04297 1424.1582 C -695.04297 1381.0585 -730.62248 1346.1113 -774.52148 1346.1113 L -1410.3047 1346.1113 z M -1266.3145 1420.6172 C -1231.2209 1420.6172 -1191.8848 1446.471 -1191.8848 1500.0938 L -1191.8848 1539.8184 C -1191.8848 1593.4661 -1246.4033 1619.293 -1266.3145 1619.293 C -1285.1823 1619.293 -1340.7461 1593.4661 -1340.7461 1539.8184 L -1340.7461 1500.0938 C -1340.7461 1446.4708 -1300.2426 1420.6172 -1266.3145 1420.6172 z M -803.19336 1617.9844 C -792.72796 1617.9844 -782.30593 1619.2502 -771.92773 1621.7793 C -761.46233 1624.3084 -749.86373 1628.7546 -737.13086 1635.1211 L -737.13086 1665.8633 L -739.0918 1665.8633 C -749.81886 1656.8805 -760.45912 1650.3411 -771.01172 1646.2422 C -781.56432 1642.1433 -792.85738 1640.0937 -804.89258 1640.0938 C -814.74751 1640.0937 -823.64381 1641.7068 -831.58008 1644.9336 C -839.42914 1648.0732 -846.45058 1652.9995 -852.64258 1659.7148 C -858.66018 1666.2557 -863.36826 1674.541 -866.76953 1684.5703 C -870.0836 1694.5124 -871.74023 1706.0257 -871.74023 1719.1074 C -871.74023 1732.7997 -869.90903 1744.5729 -866.24609 1754.4277 C -862.49603 1764.2827 -857.70062 1772.306 -851.85742 1778.498 C -845.75262 1784.9517 -838.64387 1789.749 -830.5332 1792.8887 C -822.33527 1795.9411 -813.70086 1797.4668 -804.63086 1797.4668 C -792.15959 1797.4668 -780.47373 1795.33 -769.57227 1791.0566 C -758.6708 1786.7833 -748.467 1780.3729 -738.96094 1771.8262 L -737.13086 1771.8262 L -737.13086 1802.1758 C -741.92746 1804.2688 -746.2864 1806.231 -750.21094 1808.0625 C -754.04827 1809.894 -759.10745 1811.8125 -765.38672 1813.8184 C -770.70659 1815.4754 -776.50589 1816.8702 -782.78516 1818.0039 C -788.97716 1819.2249 -795.82402 1819.8359 -803.32422 1819.8359 C -817.45255 1819.8359 -830.31493 1817.8738 -841.91406 1813.9492 C -853.426 1809.9375 -863.45522 1803.7017 -872.00195 1795.2422 C -880.37429 1786.9571 -886.9156 1776.4477 -891.625 1763.7148 C -896.33447 1750.8947 -898.68945 1736.0265 -898.68945 1719.1074 C -898.68945 1703.0605 -896.42179 1688.714 -891.88672 1676.0684 C -887.35172 1663.4226 -880.81041 1652.7387 -872.26367 1644.0176 C -863.97861 1635.558 -853.99304 1629.1041 -842.30664 1624.6562 C -830.53311 1620.2084 -817.49609 1617.9844 -803.19336 1617.9844 z M -1071.2383 1621.5176 L -1013.5469 1621.5176 C -999.33131 1621.5176 -988.69109 1622.0394 -981.62695 1623.0859 C -974.56282 1624.1325 -967.80523 1626.3129 -961.35156 1629.627 C -954.20023 1633.377 -949.01007 1638.218 -945.7832 1644.1484 C -942.5564 1649.9916 -940.94336 1657.0131 -940.94336 1665.2109 C -940.94336 1674.4554 -943.29841 1682.3478 -948.00781 1688.8887 C -952.71728 1695.3423 -958.99664 1700.5305 -966.8457 1704.4551 L -966.8457 1705.502 C -953.6767 1708.2055 -943.29834 1714.0048 -935.71094 1722.9004 C -928.12354 1731.7088 -924.33008 1742.8728 -924.33008 1756.3906 C -924.33008 1766.0711 -926.16135 1774.6163 -929.82422 1782.0293 C -933.48709 1789.4423 -938.4134 1795.547 -944.60547 1800.3438 C -951.93127 1806.0996 -959.99831 1810.1987 -968.80664 1812.6406 C -977.52784 1815.0826 -988.64824 1816.3047 -1002.166 1816.3047 L -1071.2383 1816.3047 L -1071.2383 1621.5176 z M -1045.3359 1643.625 L -1045.3359 1699.877 L -1011.8457 1699.877 C -1003.735 1699.877 -997.28293 1699.4841 -992.48633 1698.6992 C -987.68966 1697.8271 -983.24151 1696.0831 -979.14258 1693.4668 C -975.04364 1690.8505 -972.16488 1687.4935 -970.50781 1683.3945 C -968.76361 1679.2084 -967.89258 1674.2801 -967.89258 1668.6113 C -967.89258 1663.9019 -968.67629 1659.9338 -970.24609 1656.707 C -971.81589 1653.4802 -974.34552 1650.8633 -977.83398 1648.8574 C -981.93292 1646.5028 -986.90485 1645.0643 -992.74805 1644.541 C -998.59125 1643.9305 -1005.829 1643.625 -1014.4629 1643.625 L -1045.3359 1643.625 z M -1346.0566 1644.1621 C -1330.1941 1644.4589 -1311.5946 1660.5697 -1291.0547 1678.6641 L -1283.8008 1685.918 C -1283.5593 1686.1595 -1275.5558 1693.7988 -1266.0234 1693.7988 C -1256.3495 1693.7988 -1248.5879 1685.832 -1248.5879 1685.832 L -1248.5879 1685.8457 L -1241.4082 1678.6641 C -1215.1171 1655.5061 -1195.2315 1635.9805 -1173.7441 1647.9355 C -1127.2754 1673.7909 -1117.2383 1716.185 -1117.2383 1743.4668 C -1117.2383 1743.9053 -1117.1853 1767.9162 -1117.2383 1768.3047 C -1117.2383 1804.3447 -1129.3611 1817.9727 -1166.9023 1817.9727 L -1365.5566 1817.9727 C -1403.1006 1817.9727 -1415.2285 1804.3447 -1415.2285 1768.3047 C -1415.2785 1767.9162 -1415.2285 1743.9053 -1415.2285 1743.4668 C -1415.2285 1716.1822 -1402.7841 1677.7176 -1358.7188 1647.9355 C -1354.7237 1645.2354 -1350.4981 1644.079 -1346.0566 1644.1621 z M -1045.3359 1721.7227 L -1045.3359 1794.1953 L -1011.0625 1794.1953 C -999.72497 1794.1953 -990.43587 1793.6298 -983.19727 1792.4961 C -975.95873 1791.2752 -970.02845 1789.0947 -965.40625 1785.9551 C -960.52238 1782.5539 -956.94722 1778.6731 -954.67969 1774.3125 C -952.41222 1769.9519 -951.27734 1764.3253 -951.27734 1757.4355 C -951.27734 1749.5865 -952.45588 1743.3508 -954.81055 1738.7285 C -957.16528 1734.1063 -961.43879 1730.1819 -967.63086 1726.9551 C -971.81699 1724.7747 -976.91795 1723.38 -982.93555 1722.7695 C -988.86595 1722.0719 -996.10565 1721.7227 -1004.6523 1721.7227 L -1045.3359 1721.7227 z "
   id="rect24-2-1-6" /></svg>