<?xml version="1.0" encoding="UTF-8" standalone="no"?>
<!-- Generator: Adobe Illustrator 16.0.0, SVG Export Plug-In . SVG Version: 6.00 Build 0)  -->

<svg
   xmlns:dc="http://purl.org/dc/elements/1.1/"
   xmlns:cc="http://creativecommons.org/ns#"
   xmlns:rdf="http://www.w3.org/1999/02/22-rdf-syntax-ns#"
   xmlns:svg="http://www.w3.org/2000/svg"
   xmlns="http://www.w3.org/2000/svg"
   xmlns:sodipodi="http://sodipodi.sourceforge.net/DTD/sodipodi-0.dtd"
   xmlns:inkscape="http://www.inkscape.org/namespaces/inkscape"
   version="1.1"
   id="Capa_1"
   x="0px"
   y="0px"
   width="31.939px"
   height="31.939px"
   viewBox="0 0 31.939 31.939"
   style="enable-background:new 0 0 31.939 31.939;"
   xml:space="preserve"
   sodipodi:docname="noIDCard2.svg"
   inkscape:version="0.92.3 (2405546, 2018-03-11)"><metadata
   id="metadata43"><rdf:RDF><cc:Work
       rdf:about=""><dc:format>image/svg+xml</dc:format><dc:type
         rdf:resource="http://purl.org/dc/dcmitype/StillImage" /><dc:title></dc:title></cc:Work></rdf:RDF></metadata><defs
   id="defs41">
	

		
	</defs><sodipodi:namedview
   pagecolor="#ffffff"
   bordercolor="#666666"
   borderopacity="1"
   objecttolerance="10"
   gridtolerance="10"
   guidetolerance="10"
   inkscape:pageopacity="0"
   inkscape:pageshadow="2"
   inkscape:window-width="1920"
   inkscape:window-height="1017"
   id="namedview39"
   showgrid="false"
   inkscape:zoom="1.8472714"
   inkscape:cx="13.602215"
   inkscape:cy="-11.025407"
   inkscape:window-x="-8"
   inkscape:window-y="-8"
   inkscape:window-maximized="1"
   inkscape:current-layer="Capa_1" />
<path
   d="m -68.810391,45.829418 c -15.809,0 -28.63086,12.592047 -28.63086,28.123047 V 214.58724 c 0,15.53 12.82186,28.125 28.63086,28.125 H 126.51383 L 82.795076,197.96614 H 72.593904 c -4.946,0 -8.947266,-4.00917 -8.947266,-8.95117 0,-2.884 1.368275,-5.44148 3.486329,-7.07813 L 9.0255445,122.46028 c -3.880911,14.6988 -19.6781305,21.8086 -25.9492185,21.8086 -6.799,0 -26.822266,-9.30668 -26.822266,-28.63868 v -14.31445 c 0,-10.393819 4.225719,-17.889005 10.03125,-22.599613 L -65.845551,45.829418 Z m 38.224608,0 94.414062,96.634772 c 0.834348,-4.07679 4.438536,-7.14258 8.765625,-7.14258 h 80.542966 c 4.946,0 8.94727,4.00527 8.94727,8.94727 0.001,4.942 -4.00127,8.95117 -8.94727,8.95117 H 74.338045 l 26.228515,26.8457 h 52.57031 c 4.946,0 8.94727,4.00722 8.94727,8.94922 0.001,4.942 -4.00127,8.95117 -8.94727,8.95117 h -35.08008 l 41.65821,42.63867 c 0.63181,0.64668 1.17063,1.34522 1.63086,2.08008 15.33051,-0.54471 27.58789,-12.91413 27.58789,-28.09765 V 73.952465 c 0,-15.531 -12.82163,-28.123047 -28.64063,-28.123047 z M 72.593904,90.575512 h 80.542966 c 4.946,0 8.94727,4.005266 8.94727,8.947266 0.001,4.942002 -4.00127,8.951172 -8.94727,8.951172 H 72.593904 c -4.946,0 -8.947266,-4.00917 -8.947266,-8.951172 0,-4.942 4.001266,-8.947266 8.947266,-8.947266 z M -45.658049,153.23177 c 5.716057,0.10696 12.416797,5.91132 19.818359,12.43164 l 2.615235,2.61523 c 0.087,0.087 2.97125,2.83984 6.40625,2.83984 3.486,0 6.28125,-2.87109 6.28125,-2.87109 v 0.004 l 2.5878895,-2.58789 c 9.474,-8.345 16.639813,-15.38027 24.3828135,-11.07227 16.744999,9.317 20.361327,24.59283 20.361327,34.42383 0,0.158 0.019,8.81117 0,8.95117 0,12.987 -4.368483,17.89844 -17.896484,17.89844 h -71.583984 c -13.528998,0 -17.900388,-4.91144 -17.900388,-17.89844 -0.018,-0.14 0,-8.79317 0,-8.95117 0,-9.832 4.48428,-23.69183 20.363279,-34.42383 1.439594,-0.973 2.963957,-1.38932 4.564453,-1.35937 z"
   id="path2"
   inkscape:connector-curvature="0" />
<g
   id="g8">
</g>
<g
   id="g10">
</g>
<g
   id="g12">
</g>
<g
   id="g14">
</g>
<g
   id="g16">
</g>
<g
   id="g18">
</g>
<g
   id="g20">
</g>
<g
   id="g22">
</g>
<g
   id="g24">
</g>
<g
   id="g26">
</g>
<g
   id="g28">
</g>
<g
   id="g30">
</g>
<g
   id="g32">
</g>
<g
   id="g34">
</g>
<g
   id="g36">
</g>
</svg>