<?xml version="1.0" encoding="UTF-8" standalone="no"?>
<!-- Created with Inkscape (http://www.inkscape.org/) -->

<svg
   xmlns:dc="http://purl.org/dc/elements/1.1/"
   xmlns:cc="http://creativecommons.org/ns#"
   xmlns:rdf="http://www.w3.org/1999/02/22-rdf-syntax-ns#"
   xmlns:svg="http://www.w3.org/2000/svg"
   xmlns="http://www.w3.org/2000/svg"
   xmlns:sodipodi="http://sodipodi.sourceforge.net/DTD/sodipodi-0.dtd"
   xmlns:inkscape="http://www.inkscape.org/namespaces/inkscape"
   width="210mm"
   height="297mm"
   viewBox="0 0 210 297"
   version="1.1"
   id="svg74"
   inkscape:version="0.92.3 (2405546, 2018-03-11)"
   sodipodi:docname="camera_denied.svg">
  <defs
     id="defs68" />
  <sodipodi:namedview
     id="base"
     pagecolor="#ffffff"
     bordercolor="#666666"
     borderopacity="1.0"
     inkscape:pageopacity="0.0"
     inkscape:pageshadow="2"
     inkscape:zoom="0.35"
     inkscape:cx="-2.8571429"
     inkscape:cy="560"
     inkscape:document-units="mm"
     inkscape:current-layer="layer1"
     showgrid="false"
     inkscape:window-width="1920"
     inkscape:window-height="1017"
     inkscape:window-x="-8"
     inkscape:window-y="-8"
     inkscape:window-maximized="1" />
  <metadata
     id="metadata71">
    <rdf:RDF>
      <cc:Work
         rdf:about="">
        <dc:format>image/svg+xml</dc:format>
        <dc:type
           rdf:resource="http://purl.org/dc/dcmitype/StillImage" />
        <dc:title></dc:title>
      </cc:Work>
    </rdf:RDF>
  </metadata>
  <g
     inkscape:label="Layer 1"
     inkscape:groupmode="layer"
     id="layer1">
    <path
       style="fill:#010002;stroke-width:5.54586935"
       d="m 59.297091,7.49984 -2.20142,9.10746 2.09703,2.08979 h 29.67468 L 86.166771,7.49984 Z m 29.57029,11.19725 0.35501,1.51412 H 60.711471 L 112.38739,71.71918 V 49.22701 c 0,-2.42909 1.97477,-4.39767 4.40386,-4.39767 2.42908,0 4.39197,1.96858 4.39197,4.39767 v 31.25958 l 9.66815,9.63662 c 0.96804,-1.34795 1.53995,-2.99993 1.53995,-4.78677 V 26.90486 c -0.006,-4.54207 -3.67679,-8.20777 -8.20776,-8.20777 z m -26.31468,-7.05435 h 20.3476 l 1.06453,4.42557 h -22.47718 z m -42.19122,8.86302 c -1.87268,1.50289 -3.07424,3.80763 -3.07424,6.3991 v 58.43158 c 0,4.53652 3.68765,8.21345 8.21862,8.21345 h 14.35313 c -8.4519,-6.01727 -13.98674,-15.88888 -13.98674,-27.03608 0,-11.02651 5.41232,-20.81095 13.71699,-26.84281 z m 81.483399,7.39748 h 21.58988 v 9.7994 H 101.84488 Z M 40.684271,40.76292 c -7.77593,5.65975 -12.8323,14.833 -12.8323,25.19072 0,11.99017 6.77717,22.38853 16.69873,27.59056 h -4.69171 c 5.42386,3.84884 12.03443,6.12263 19.17196,6.12263 7.13754,0 13.74242,-2.26825 19.16628,-6.12263 h -4.79145 c 4.29533,-2.25324 7.99814,-5.47871 10.81899,-9.38288 l -1.26711,-1.26247 c -5.23687,7.6186 -14.01153,12.62507 -23.92671,12.62507 -15.99983,0.006 -29.02148,-13.01042 -29.02148,-29.01579 0,-9.888 4.97449,-18.6347 12.55065,-23.87554 z m 11.49439,11.45718 c -5.18098,2.52259 -8.75399,7.83812 -8.75399,13.99399 0,8.59609 6.96546,15.55615 15.55047,15.55615 6.17682,0 11.51002,-3.5892 14.02601,-8.79585 z m -4.59455,8.05999 c -0.19411,1.62493 -0.37131,3.17206 -0.29921,4.64726 0.0555,1.4752 0.34379,2.86734 0.88728,4.14289 0.55459,1.2811 1.36405,2.44568 2.39004,3.49385 1.02598,1.05926 2.24628,2.00743 3.64939,2.88923 -1.89114,-0.15528 -3.56042,-0.83718 -4.96352,-1.7689 -1.39756,-0.94279 -2.50712,-2.21852 -3.13935,-3.71036 -0.65441,-1.48628 -0.80932,-3.16671 -0.54312,-4.84156 0.28284,-1.67486 0.95922,-3.33284 2.01849,-4.85241 z m 38.3496,25.58499 c -2.13915,2.96427 -4.75289,5.56471 -7.7308,7.68481 h 15.4404 z"
       id="path2"
       inkscape:connector-curvature="0" />
  </g>
</svg>
