<?xml version="1.0" encoding="UTF-8" standalone="no"?>
<!-- Created with Inkscape (http://www.inkscape.org/) -->

<svg
   xmlns:dc="http://purl.org/dc/elements/1.1/"
   xmlns:cc="http://creativecommons.org/ns#"
   xmlns:rdf="http://www.w3.org/1999/02/22-rdf-syntax-ns#"
   xmlns:svg="http://www.w3.org/2000/svg"
   xmlns="http://www.w3.org/2000/svg"
   xmlns:sodipodi="http://sodipodi.sourceforge.net/DTD/sodipodi-0.dtd"
   xmlns:inkscape="http://www.inkscape.org/namespaces/inkscape"
   width="210mm"
   height="297mm"
   viewBox="0 0 210 297"
   version="1.1"
   id="svg23"
   inkscape:version="0.92.3 (2405546, 2018-03-11)"
   sodipodi:docname="camera_denied_FULL.svg">
  <defs
     id="defs17" />
  <sodipodi:namedview
     id="base"
     pagecolor="#ffffff"
     bordercolor="#666666"
     borderopacity="1.0"
     inkscape:pageopacity="0.0"
     inkscape:pageshadow="2"
     inkscape:zoom="0.35"
     inkscape:cx="-377.14286"
     inkscape:cy="560"
     inkscape:document-units="mm"
     inkscape:current-layer="layer1"
     showgrid="false"
     inkscape:window-width="1920"
     inkscape:window-height="1017"
     inkscape:window-x="-8"
     inkscape:window-y="-8"
     inkscape:window-maximized="1" />
  <metadata
     id="metadata20">
    <rdf:RDF>
      <cc:Work
         rdf:about="">
        <dc:format>image/svg+xml</dc:format>
        <dc:type
           rdf:resource="http://purl.org/dc/dcmitype/StillImage" />
        <dc:title />
      </cc:Work>
    </rdf:RDF>
  </metadata>
  <g
     inkscape:label="Layer 1"
     inkscape:groupmode="layer"
     id="layer1">
    <path
       id="path2"
       style="fill:#000000;stroke-width:5.54586935"
       d="m 97.850676,40.761744 -2.20143,9.10746 2.09703,2.08979 h 29.674684 l -2.70061,-11.19725 z m 29.570284,11.19725 0.35501,1.51412 H 99.265056 L 150.94098,104.98109 V 82.488914 c 0,-2.42908 1.97477,-4.39766 4.40386,-4.39766 2.42907,0 4.39196,1.96858 4.39196,4.39766 V 113.7485 l 9.66815,9.63662 c 0.96804,-1.34796 1.53995,-2.99993 1.53995,-4.78677 V 60.166764 c -0.006,-4.54207 -3.67679,-8.20777 -8.20776,-8.20777 z m -26.31467,-7.05435 h 20.34759 l 1.06453,4.42557 h -22.47717 z m -42.191234,8.86302 c -1.87268,1.50289 -3.07424,3.80763 -3.07424,6.3991 v 58.431586 c 0,4.53652 3.68765,8.21345 8.21862,8.21345 h 14.35313 c -8.4519,-6.01727 -13.98674,-15.88888 -13.98674,-27.036076 0,-11.02651 5.41232,-20.81095 13.71699,-26.84281 z m 81.483404,7.39748 h 21.58988 v 9.79941 h -21.58988 z m -61.160614,12.85969 c -7.77593,5.65974 -12.8323,14.83299 -12.8323,25.19072 0,11.990166 6.77717,22.388526 16.69873,27.590546 h -4.69171 c 5.42386,3.84885 12.03443,6.12263 19.17196,6.12263 7.137544,0 13.742434,-2.26824 19.166294,-6.12263 h -4.79146 c 4.29534,-2.25323 7.99814,-5.4787 10.81899,-9.38287 l -1.26711,-1.26247 c -5.23686,7.6186 -14.01153,12.62507 -23.926714,12.62507 -15.99983,0.006 -29.02148,-13.01042 -29.02148,-29.015796 0,-9.888 4.97449,-18.63469 12.55065,-23.87553 z m 11.49439,11.45718 c -5.18097,2.52259 -8.75399,7.83812 -8.75399,13.99399 0,8.596086 6.96547,15.556146 15.55048,15.556146 6.176814,0 11.510024,-3.5892 14.026004,-8.79585 z m -4.59454,8.05998 c -0.19412,1.62494 -0.37132,3.17207 -0.29922,4.64727 0.0555,1.4752 0.3438,2.867336 0.88728,4.142886 0.55459,1.2811 1.36406,2.44567 2.39005,3.49385 1.02598,1.05925 2.24627,2.00743 3.64939,2.88922 -1.89115,-0.15527 -3.56043,-0.83717 -4.96353,-1.76889 -1.39755,-0.94279 -2.50711,-2.21852 -3.13935,-3.71036 -0.65441,-1.48629 -0.80931,-3.16672 -0.54311,-4.841556 0.28283,-1.67486 0.95922,-3.33284 2.01849,-4.85242 z M 124.4873,119.12699 c -2.13916,2.96427 -4.75289,5.5647 -7.7308,7.68481 h 15.44039 z M 24.468534,87.018714 c 0.0962,49.032346 40.067414,88.844836 89.103156,88.748606 49.03084,-0.1003 88.84171,-40.0701 88.74551,-89.097586 C 202.221,37.638302 162.25303,-2.1730948 113.22161,-2.0768448 64.186968,-1.9806448 24.372314,37.987303 24.468514,87.018733 Z m 16.201055,-0.0318 c -0.0336,-17.137491 5.8985,-32.91768 15.829619,-45.380701 L 158.85319,143.56035 c -12.42287,9.97779 -28.17858,15.97071 -45.31388,16.00596 -40.101921,0.0787 -72.791071,-32.48027 -72.869741,-72.579367 z m 145.446551,-0.28539 c 0.0336,17.136916 -5.8985,32.918086 -15.82963,45.381626 L 67.933058,30.127993 C 80.35755,20.150189 96.115409,14.157257 113.25342,14.123627 c 40.09813,-0.07813 72.78404,32.479745 72.86273,72.577897 z" />
    <path
       id="path2-9"
       transform="scale(0.26458333)"
       style="fill:#000000;stroke-width:23.26922035"
       d="m -910.92578,-167.92383 -4.09961,16.95899 14.39844,14.39062 3.35937,-13.9668 h 85.375 l 4.46875,18.56836 h -88.59765 l 11.03515,11.0293 h 98.13086 l -11.33203,-46.98047 z m 124.07031,46.98047 1.49024,6.35352 h -93.26368 L -688.16992,75.759766 V 7.1542969 c 0,-10.1919181 8.28465,-18.4531249 18.47656,-18.4531249 10.19191,0 18.42774,8.2612068 18.42774,18.4531249 V 112.64258 l 47.0039,46.97461 c 0.009,-0.31888 0.0234,-0.63605 0.0234,-0.95703 V -86.503906 c -0.0227,-19.057494 -15.42652,-34.439454 -34.4375,-34.439454 z M -1082.4082,-104 c -3.0335,5.12456 -4.7832,11.10148 -4.7832,17.496094 V 158.66016 c 0,19.03422 15.4754,34.46093 34.4863,34.46093 h 60.22072 c -35.46232,-25.2471 -58.68552,-66.66637 -58.68552,-113.437496 0,-41.750568 18.493,-79.25893948 47.709,-104.78125 z m 350.0039,21.683594 h 90.58594 v 41.117187 h -90.58594 z m -266.42578,61.845703 c -27.00272,23.9308224 -44.03322,58.872244 -44.03322,97.804687 0,50.308056 28.4358,93.939096 70.06447,115.765626 h -19.68555 c 22.7573,16.14884 50.49391,25.6875 80.44141,25.6875 29.94747,0 57.66068,-9.51539 80.41797,-25.6875 h -20.10352 c 14.16998,-7.4333 26.80071,-17.39098 37.3086,-29.26758 l -5.125,-5.12305 c -22.3539,26.11511 -55.53763,42.69727 -92.49805,42.69727 -67.1317,0.0234 -121.76753,-54.58917 -121.76753,-121.744141 0,-36.959121 16.5638,-70.1189681 42.6523,-92.464843 z m 47.01563,46.988281 c -15.61887,11.9217 -25.70899,30.726696 -25.70899,51.910156 0,36.067296 29.2273,65.269536 65.24805,65.269536 21.20818,0 40.03712,-10.09096 51.9668,-25.72657 z m -8.25586,27.011719 c -0.81445,6.817878 -1.56033,13.310389 -1.25781,19.5 0.23281,6.189615 1.44423,12.030892 3.7246,17.382812 2.32695,5.375192 5.72254,10.260321 10.02735,14.658201 4.3048,4.44442 9.42539,8.4252 15.3125,12.125 -7.93482,-0.65154 -14.93907,-3.5146 -20.82617,-7.42383 -5.86383,-3.95576 -10.51723,-9.30698 -13.16993,-15.566402 -2.74578,-6.236152 -3.39817,-13.287147 -2.28125,-20.314453 1.18674,-7.027302 4.02629,-13.985564 8.47071,-20.361328 z M -807.21875,171.0293 c -7.22668,8.28162 -15.41175,15.70491 -24.38281,22.09179 h 46.48633 z M -1226.0918,26.17436 c 0.4115,209.73795 171.3901,380.03759 381.14254,379.62596 209.73146,-0.42901 380.02416,-171.40158 379.61265,-381.118734 -0.41152,-209.734046 -171.37618,-380.028936 -381.11014,-379.617236 -209.74775,0.41152 -380.05665,171.37607 -379.64515,381.110096 z m 69.3007,-0.136026 c -0.1436,-73.306338 25.2311,-140.806774 67.7119,-194.117874 l 437.82347,436.11316 c -53.13937,42.68039 -120.53507,68.31542 -193.83205,68.46623 -171.53772,0.33675 -311.36692,-138.93579 -311.70342,-310.461387 z m 622.15379,-1.220768 c 0.14362,73.303899 -25.23111,140.808524 -67.71194,194.121844 L -1040.1704,-217.1781 c 53.14624,-42.68047 120.55116,-68.31549 193.85971,-68.45934 171.52143,-0.33411 311.33681,138.93347 311.67342,310.455006 z" />
  </g>
</svg>
