<?xml version="1.0" encoding="UTF-8" standalone="no"?>
<!-- Generator: Adobe Illustrator 16.0.0, SVG Export Plug-In . SVG Version: 6.00 Build 0)  -->

<svg
   xmlns:dc="http://purl.org/dc/elements/1.1/"
   xmlns:cc="http://creativecommons.org/ns#"
   xmlns:rdf="http://www.w3.org/1999/02/22-rdf-syntax-ns#"
   xmlns:svg="http://www.w3.org/2000/svg"
   xmlns="http://www.w3.org/2000/svg"
   xmlns:sodipodi="http://sodipodi.sourceforge.net/DTD/sodipodi-0.dtd"
   xmlns:inkscape="http://www.inkscape.org/namespaces/inkscape"
   version="1.1"
   id="Capa_1"
   x="0px"
   y="0px"
   width="45.898px"
   height="45.898px"
   viewBox="0 0 45.898 45.898"
   style="enable-background:new 0 0 45.898 45.898;"
   xml:space="preserve"
   sodipodi:docname="no-cameras-sign.svg"
   inkscape:version="0.92.3 (2405546, 2018-03-11)"><metadata
   id="metadata51"><rdf:RDF><cc:Work
       rdf:about=""><dc:format>image/svg+xml</dc:format><dc:type
         rdf:resource="http://purl.org/dc/dcmitype/StillImage" /></cc:Work></rdf:RDF></metadata><defs
   id="defs49">
	

		
		
		
		
		
	</defs><sodipodi:namedview
   pagecolor="#ffffff"
   bordercolor="#666666"
   borderopacity="1"
   objecttolerance="10"
   gridtolerance="10"
   guidetolerance="10"
   inkscape:pageopacity="0"
   inkscape:pageshadow="2"
   inkscape:window-width="1920"
   inkscape:window-height="1017"
   id="namedview47"
   showgrid="false"
   inkscape:zoom="5.1418364"
   inkscape:cx="-1.2641398"
   inkscape:cy="22.948999"
   inkscape:window-x="-8"
   inkscape:window-y="-8"
   inkscape:window-maximized="1"
   inkscape:current-layer="Capa_1" />
<path
   id="path10"
   d="M 8.195,10.747 C 8.013,10.569 7.763,10.475 7.484,10.475 c -0.055,0 -0.11,0.003 -0.166,0.01 -0.346,0.045 -0.693,0.227 -0.964,0.502 l -0.943,0.96 c -0.565,0.575 -0.658,1.401 -0.206,1.845 l 32.396,31.834 c 0.182,0.177 0.434,0.272 0.713,0.272 0.053,0 0.109,-0.004 0.166,-0.011 0.344,-0.045 0.691,-0.226 0.963,-0.502 l 0.942,-0.96 c 0.563,-0.574 0.657,-1.4 0.206,-1.845 z m 14.704,9.844 c -0.147,0 -0.294,0.005 -0.439,0.014 l 8.026,7.889 c 0.004,-0.102 0.008,-0.204 0.008,-0.307 -0.002,-4.189 -3.408,-7.596 -7.595,-7.596 z m 0.439,15.177 -8.027,-7.888 c -0.003,0.103 -0.006,0.203 -0.006,0.308 0,4.188 3.407,7.594 7.595,7.594 0.147,-10e-4 0.293,-0.005 0.438,-0.014 z M 42.042,14.392 h -9.42 V 3.402 C 32.622,1.515 31.111,0 29.224,0 H 16.574 C 14.686,0 13.198,1.516 13.198,3.402 V 11.5 l 5.77,5.672 c 1.23,-0.44 2.554,-0.682 3.933,-0.682 6.451,0 11.696,5.247 11.696,11.698 0,1.309 -0.216,2.565 -0.614,3.739 l 8.688,8.538 c 0.364,0.357 0.659,0.775 0.856,1.234 1.164,-0.549 1.992,-1.725 1.992,-3.088 V 17.76 c 0.001,-1.887 -1.59,-3.368 -3.477,-3.368 z M 29.555,5.452 c 0,0.774 -0.64,1.39 -1.416,1.39 H 17.627 c -0.775,0 -1.441,-0.615 -1.441,-1.39 V 4.191 c 0,-0.774 0.667,-1.438 1.441,-1.438 h 10.512 c 0.776,0 1.416,0.664 1.416,1.438 z m -6.656,34.43 c -6.45,0 -11.697,-5.246 -11.697,-11.694 0,-1.309 0.217,-2.565 0.614,-3.742 L 3.125,15.907 C 2.758,15.545 2.492,15.125 2.299,14.672 c -1.137,0.549 -1.92,1.725 -1.92,3.089 v 20.853 c 0,1.889 1.489,3.384 3.377,3.384 h 25.956 l -2.88,-2.812 c -1.23,0.439 -2.554,0.696 -3.933,0.696 z" />
<g
   id="g16">
</g>
<g
   id="g18">
</g>
<g
   id="g20">
</g>
<g
   id="g22">
</g>
<g
   id="g24">
</g>
<g
   id="g26">
</g>
<g
   id="g28">
</g>
<g
   id="g30">
</g>
<g
   id="g32">
</g>
<g
   id="g34">
</g>
<g
   id="g36">
</g>
<g
   id="g38">
</g>
<g
   id="g40">
</g>
<g
   id="g42">
</g>
<g
   id="g44">
</g>
</svg>