<svg height="464pt" viewBox="0 0 464 464" width="464pt" xmlns="http://www.w3.org/2000/svg"><path d="m448 232c0 119.292969-96.707031 216-216 216s-216-96.707031-216-216 96.707031-216 216-216 216 96.707031 216 216zm0 0"/><path d="m336 144h-42.96875l-17.3125-36.070312c-.167969-.355469-.363281-.699219-.582031-1.027344-4.027344-6.734375-11.289063-10.871094-19.136719-10.902344h-47.199219c-8.089843.121094-15.664062 3.984375-20.511719 10.457031-.3125.410157-.582031.855469-.800781 1.328125l-16.609375 36.214844h-42.878906c-10.679688-.242188-20.996094 3.894531-28.550781 11.449219-7.554688 7.554687-11.691407 17.871093-11.449219 28.550781v96c-.222656 10.71875 3.953125 21.058594 11.554688 28.617188 7.605468 7.554687 17.96875 11.667968 28.683593 11.382812h207.761719c10.679688.242188 20.996094-3.894531 28.550781-11.449219 7.554688-7.554687 11.691407-17.871093 11.449219-28.550781v-96c.242188-10.679688-3.894531-20.996094-11.449219-28.550781-7.554687-7.554688-17.871093-11.691407-28.550781-11.449219zm-134.320312-28.664062c1.824218-1.898438 4.261718-3.078126 6.878906-3.335938h47.441406c1.648438 0 3.3125.273438 5.601562 3.433594l13.6875 28.566406h-86.800781zm158.320312 164.664062c.300781 6.453125-2.132812 12.734375-6.699219 17.300781-4.566406 4.566407-10.847656 7-17.300781 6.699219h-208c-6.453125.300781-12.734375-2.132812-17.300781-6.699219-4.566407-4.566406-7-10.847656-6.699219-17.300781v-96c-.300781-6.453125 2.132812-12.734375 6.699219-17.300781 4.566406-4.566407 10.847656-7 17.300781-6.699219h208c6.453125-.300781 12.734375 2.132812 17.300781 6.699219 4.566407 4.566406 7 10.847656 6.699219 17.300781zm0 0" fill="#fff"/><path d="m232 288c-30.929688 0-56-25.070312-56-56s25.070312-56 56-56 56 25.070312 56 56c-.035156 30.914062-25.085938 55.964844-56 56zm0-96c-22.089844 0-40 17.910156-40 40s17.910156 40 40 40 40-17.910156 40-40c-.027344-22.082031-17.917969-39.972656-40-40zm0 0" fill="#fff"/><path d="m232 0c-128.128906 0-232 103.871094-232 232s103.871094 232 232 232 232-103.871094 232-232c-.144531-128.070312-103.929688-231.855469-232-232zm0 32c47.523438-.039062 93.492188 16.917969 129.601562 47.816406l-281.785156 281.785156c-50.648437-59.332031-62.144531-142.707031-29.441406-213.527343 32.699219-70.824219 103.617188-116.148438 181.625-116.074219zm0 400c-47.507812.03125-93.460938-16.929688-129.558594-47.816406l281.742188-281.742188c50.621094 59.328125 62.101562 142.6875 29.40625 213.496094-32.699219 70.804688-103.597656 116.121094-181.589844 116.0625zm0 0" fill="#c1272d"/></svg>