<?xml version="1.0" encoding="iso-8859-1"?>
<!-- Generator: Adobe Illustrator 16.0.0, SVG Export Plug-In . SVG Version: 6.00 Build 0)  -->
<!DOCTYPE svg PUBLIC "-//W3C//DTD SVG 1.1//EN" "http://www.w3.org/Graphics/SVG/1.1/DTD/svg11.dtd">
<svg version="1.1" id="Capa_1" xmlns="http://www.w3.org/2000/svg" xmlns:xlink="http://www.w3.org/1999/xlink" x="0px" y="0px"
	 width="336.421px" height="336.421px" viewBox="0 0 336.421 336.421" style="enable-background:new 0 0 336.421 336.421;"
	 xml:space="preserve">
<g>
	<g>
		<path d="M300.203,77.372c-2.272-1.057-4.691-1.618-6.94-1.618c-3.265,0-5.988,1.143-7.692,3.203
			c-10.055,12.244-19.267,36.059-26.676,55.199c-3.412,8.845-7.994,20.686-11.088,26.246c-1.69-16.288,5.619-75.025,8.429-97.639
			l0.051-0.368c1.951-15.713,2.263-18.468,2.163-19.691c-0.763-8.754-3.815-14.676-9.093-17.595
			c-5.328-2.964-12.572-2.327-20.607,1.802c-4.035,2.081-5.668,10.064-11.54,46.379l-0.027,0.161
			c-3.23,19.948-10.67,65.892-16.386,73.226c-5.085-11.185-8.843-72.945-10.465-99.679c-1.129-18.726-1.8-29.472-2.525-32.762
			c-1.529-6.879-9.568-13.208-17.911-14.104c-6.938-0.83-12.903,2.327-16.057,8.312c-5.503,5.34-5.019,24.376-2.514,69.55
			c1.193,21.495,3.655,65.9-0.171,70.601c-6.901-1.249-16.906-29.658-29.737-84.46c-3.6-15.347-4.731-19.965-6.018-22.046
			c-2.341-7.089-11.546-13.067-20.17-13.067c-0.739,0-1.458,0.048-2.169,0.134c-4.558,0.578-15.1,4.016-14.248,23.349
			c4.187,27.009,9.413,46.981,14.462,66.378l0.103,0.385c3.031,11.609,5.893,22.588,8.417,34.718
			c5.939,28.642,1.649,45.862,1.602,46.061c-0.39,1.776-1.02,2.83-1.875,3.155c-0.314,0.109-0.696,0.178-1.127,0.178
			c-2.521,0-6.162-1.93-8.028-3.145c-3.834-8.812-23.031-50.84-42.606-57.857l-0.705-0.262l-0.732,0.018
			c-7.373,0.187-12.941,2.594-16.575,7.148c-5.742,7.206-4.257,17-3.872,18.969l0.247,0.713c0.144,0.308,14.104,30.74,15.632,44.556
			c1.321,11.848,11.49,25.29,19.662,36.091l0.337,0.444c2.669,3.532,4.969,6.591,6.755,9.391c23.9,28.825,63.1,54.405,63.421,54.61
			c4.825,4.131,7.397,7.967,7.474,11.14c0.05,2.067-1.1,3.217-1.134,3.258l-0.95,0.869l0.081,0.093h-0.389v7.008h113.918v-2.361
			l5.839-19.697c18.346-58.652,18.951-109.708,18.921-110.054c0.195-1.868,5.438-19.684,9.661-34.074l0.105-0.366
			c8.405-28.679,18.88-64.355,21.364-78.041C309.877,85.958,306.5,80.285,300.203,77.372z M301,90.409
			c-2.416,13.305-13.319,50.448-21.272,77.573c-6.893,23.477-9.723,33.291-9.959,35.926c0,0.493-0.212,49.361-18.603,108.13
			l-5.15,17.371h-97.362c0.396-1.19,0.683-2.562,0.669-4.172c-0.021-5.626-3.592-11.519-10.684-17.556
			c-0.397-0.253-39.28-25.868-61.722-52.875c-1.793-2.864-4.531-6.489-7.18-9.979c-7.181-9.507-17.027-22.538-18.096-32.188
			c-1.602-14.4-14.456-42.928-16.091-46.506c-0.207-1.447-0.876-7.821,2.411-11.921c1.983-2.481,5.277-3.869,9.78-4.115
			c17.535,7.31,37.569,53.829,37.766,54.301l0.431,0.986l0.854,0.664c1.207,0.875,7.503,5.263,13.608,5.263
			c1.395,0,2.715-0.226,3.886-0.678c2.435-0.91,5.607-3.176,6.815-8.733c0.2-0.753,4.805-18.907-1.552-49.525
			c-2.526-12.256-5.457-23.454-8.547-35.315l-0.05-0.18C95.97,97.806,90.808,78.081,86.691,51.722
			c-0.382-8.828,2.253-14.043,7.376-14.702c5.852-0.82,13.25,3.989,14.066,7.777l1.027,2.929c1.083,3.547,3.136,12.339,4.503,18.22
			c11.634,49.582,22.525,90.631,37.923,90.631c1.25,0,3.087-0.368,4.748-2.13c6.326-6.677,5.327-33.508,2.909-76.937
			c-1.17-21.033-2.657-59.31-0.294-63.067l0.95-1.973c1.451-3.123,5.056-4.524,7.918-4.524c0.418,0,0.813,0.029,1.207,0.074
			c4.883,0.525,10.245,4.384,11.022,7.938c0.609,2.722,1.399,15.833,2.334,31l0.027,0.51c5.256,86.761,8.74,107.944,17.686,107.944
			c10.164,0,15.133-20.192,24.934-80.85l0.048-0.257c2.406-14.859,6.017-37.206,7.632-40.488c5.25-2.637,10.027-3.282,12.799-1.76
			c3.518,1.945,4.675,7.167,5.01,11.158c0.014,1.083-1.074,9.788-2.114,18.206c-9.507,76.373-10.872,102.573-5.626,107.824
			c1.396,1.386,3.36,1.984,5.119,1.574c5.359-1.119,8.897-9.184,18.411-33.825c7.197-18.587,16.129-41.713,25.399-52.979
			c0.075-0.087,0.521-0.315,1.488-0.315c1.133,0,2.434,0.315,3.669,0.876C299.176,85.65,301.479,87.745,301,90.409z"/>
		<g>
			<path d="M245.691,4.16c-19.677-3.815-38.79,9.091-42.619,28.771c-3.401,17.547,6.502,34.617,22.634,40.821
				c-0.342-2.613-0.328-5.14-0.164-7.719c-11.416-5.775-18.138-18.604-15.592-31.763c3.091-15.893,18.528-26.308,34.414-23.223
				c15.885,3.08,26.303,18.512,23.216,34.405c-1.663,8.561-6.937,15.496-13.915,19.618c0.164,0.599,0.329,1.194,0.425,1.82
				c0.28,1.915,0.366,3.821,0.321,5.717c10.034-4.798,17.768-14.084,20.047-25.817C278.277,27.104,265.375,7.984,245.691,4.16z"/>
		</g>
	</g>
</g>
<g>
</g>
<g>
</g>
<g>
</g>
<g>
</g>
<g>
</g>
<g>
</g>
<g>
</g>
<g>
</g>
<g>
</g>
<g>
</g>
<g>
</g>
<g>
</g>
<g>
</g>
<g>
</g>
<g>
</g>
</svg>
