<?xml version="1.0" encoding="iso-8859-1"?>
<!-- Generator: Adobe Illustrator 16.0.0, SVG Export Plug-In . SVG Version: 6.00 Build 0)  -->
<!DOCTYPE svg PUBLIC "-//W3C//DTD SVG 1.1//EN" "http://www.w3.org/Graphics/SVG/1.1/DTD/svg11.dtd">
<svg version="1.1" id="Capa_1" xmlns="http://www.w3.org/2000/svg" xmlns:xlink="http://www.w3.org/1999/xlink" x="0px" y="0px"
	 width="368.576px" height="368.576px" viewBox="0 0 368.576 368.576" style="enable-background:new 0 0 368.576 368.576;"
	 xml:space="preserve">
<g>
	<g>
		<path d="M54.143,70.113c28.991-16.473,62.552-8.705,97.045,22.463c1.17,1.062,1.889,1.709,2.505,2.166
			c5.537,5.164,13.067,11.182,18.226,11.367c3.23,0.109,5.96-2.418,6.076-5.659c0.108-3.129-2.247-5.771-5.327-6.056
			c-1.795-0.595-7.096-4.604-11.294-8.547c-0.252-0.234-0.519-0.445-0.806-0.635c-0.301-0.255-0.946-0.833-1.514-1.352
			c-5.471-4.942-19.991-18.066-39.545-26.465c-25.249-10.847-49.218-9.995-71.229,2.544c-0.041,0.021-0.073,0.041-0.108,0.063
			C8.125,83.942,5.326,134.729,4.137,156.417l-0.128,2.271c-0.344,5.917-2.219,10.713-2.958,12.228
			c-0.294,0.431-0.539,0.907-0.726,1.431c-0.746,2.165-0.185,4.625,1.472,6.213c1.109,1.071,2.581,1.639,4.072,1.639
			c0.719,0,1.444-0.134,2.141-0.406c1.752-0.688,3.155-1.661,5.286-7.938c0.946-2.786,2.127-7.212,2.435-12.486l0.13-2.307
			C16.953,137.249,19.504,90.863,54.143,70.113z"/>
		<path d="M142.75,116.745c-2.471-11.666-8.74-21.229-17.2-26.239c-7.547-4.473-16.596-5.31-26.18-2.426
			c-14.06,4.233-23.868,20.179-26.891,43.692c-0.05,0.294-5.523,32.064-16.948,56.859c-0.081,0.182-8.617,18.224-20.689,32.12
			c-2.12,2.447-1.86,6.153,0.582,8.282c2.45,2.125,6.16,1.868,8.28-0.582c13.177-15.163,22.088-34.044,22.477-34.872
			c12.381-26.867,17.896-59.951,17.932-60.249c1.839-14.279,7.705-30.712,18.642-34.006c6.44-1.94,12.094-1.506,16.812,1.287
			c5.638,3.34,9.902,10.111,11.697,18.572c3.338,15.749-2.11,41.108-15.332,71.408c-6.634,15.198-23.647,52.985-38.383,75.609
			c-1.766,2.718-0.999,6.354,1.718,8.124c0.991,0.644,2.102,0.951,3.195,0.951c1.925,0,3.805-0.94,4.928-2.669
			c15.215-23.363,32.552-61.853,39.3-77.32C136.74,172.278,147.678,139.972,142.75,116.745z"/>
		<path d="M44.552,170.971c3.404-9.599,5.163-19.779,6.039-29.896c0.137-1.569,0.315-3.137,0.512-4.699
			c0.027-0.241,0.073-0.561,0.087-0.666c0.07-0.471,0.137-0.943,0.214-1.414c0.178-1.138,0.375-2.271,0.582-3.405
			c0.806-4.401,1.874-8.757,3.174-13.044c0.663-2.183,1.41-4.337,2.22-6.473c0.833-2.204,1.384-3.441,2.662-6.058
			c1.034-2.106,2.19-4.158,3.417-6.151c0.616-1.001,1.271-1.976,1.946-2.943c0.329-0.484,0.676-0.957,1.026-1.43
			c0.094-0.125,0.165-0.221,0.224-0.294c0.221-0.275,0.445-0.553,0.669-0.83c2.11-2.59,4.488-4.952,7.065-7.082
			c2.462-2.043,2.109-6.199,0-8.302c-2.415-2.418-5.838-2.043-8.302,0c-15.138,12.556-22.547,32.576-25.771,51.454
			c-0.683,4.012-1.198,8.066-1.535,12.121c-0.381,4.57-0.876,7.769-1.973,12.974c-1.097,5.203-2.527,10.359-4.437,15.328
			c0,0.003-0.357,0.879-0.431,1.075c-0.191,0.431-0.381,0.859-0.582,1.287c-0.479,1.027-1.027,2.026-1.573,3.017
			c-1.487,2.667-2.794,5.433-4.173,8.155c-1.69,3.342-3.663,6.993-5.915,9.728c-2.026,2.471-2.423,5.88,0,8.306
			c2.101,2.098,6.268,2.475,8.307,0c4.013-4.877,6.852-10.308,9.666-15.92C40.133,180.88,42.706,176.171,44.552,170.971z"/>
		<path d="M109.529,115.103c-3.217-0.089-5.946,2.452-6.045,5.694c-1.787,59.541-40.724,113.599-48.506,123.827
			c-0.173,0.216-0.267,0.353-0.301,0.4c-1.882,2.639-1.273,6.311,1.369,8.189c1.035,0.736,2.226,1.096,3.403,1.096
			c1.815,0,3.591-0.835,4.745-2.402l0.13-0.172c8.165-10.731,49.003-67.462,50.899-130.586
			C115.317,117.909,112.77,115.2,109.529,115.103z"/>
		<path d="M368.251,172.26c-0.178-0.519-0.424-0.998-0.726-1.429c-0.732-1.518-2.614-6.312-2.956-12.227l-0.124-2.271
			c-1.197-21.688-3.99-72.478-44.036-96.413c-0.041-0.022-0.071-0.042-0.109-0.063c-22.018-12.536-45.987-13.391-71.229-2.544
			c-19.551,8.4-34.078,21.527-39.543,26.464c-0.575,0.52-1.222,1.098-1.523,1.353c-0.28,0.187-0.555,0.399-0.801,0.631
			c-4.195,3.942-9.5,7.95-11.293,8.547c-3.08,0.284-5.441,2.926-5.328,6.056c0.116,3.241,2.816,5.76,6.067,5.659
			c5.171-0.185,12.689-6.203,18.227-11.367c0.616-0.457,1.341-1.105,2.512-2.167c34.499-31.167,68.057-38.934,97.039-22.463
			c34.639,20.749,37.191,67.136,38.287,86.949l0.13,2.31c0.301,5.271,1.492,9.7,2.437,12.486c2.122,6.28,3.524,7.25,5.284,7.936
			c0.69,0.274,1.416,0.407,2.142,0.407c1.492,0,2.957-0.568,4.072-1.639C368.433,176.886,369.001,174.422,368.251,172.26z"/>
		<path d="M313.065,188.576c-11.443-24.828-16.919-56.597-16.953-56.837c-3.039-23.57-12.84-39.514-26.905-43.747
			c-9.575-2.88-18.63-2.043-26.18,2.43c-8.452,5.01-14.729,14.573-17.199,26.239c-4.922,23.23,6.016,55.533,16.057,78.541
			c6.748,15.468,24.092,53.96,39.3,77.323c1.129,1.729,3.008,2.666,4.928,2.666c1.099,0,2.211-0.309,3.196-0.951
			c2.714-1.77,3.487-5.407,1.715-8.121c-14.729-22.624-31.747-60.415-38.383-75.612c-13.22-30.298-18.661-55.658-15.325-71.407
			c1.797-8.463,6.055-15.229,11.701-18.568c4.709-2.793,10.362-3.224,16.803-1.287c10.943,3.294,16.81,19.726,18.641,34.01
			c0.044,0.294,5.558,33.378,17.952,60.281c0.366,0.794,9.277,19.674,22.456,34.838c2.125,2.446,5.828,2.706,8.278,0.581
			c2.45-2.121,2.711-5.834,0.582-8.278C321.662,206.762,313.134,188.724,313.065,188.576z"/>
		<path d="M340.405,178.525c-1.112-2.214-2.382-4.36-3.433-6.608c-0.007-0.014-0.366-0.849-0.452-1.02
			c-0.185-0.464-0.365-0.929-0.544-1.395c-0.517-1.364-0.985-2.748-1.431-4.136c-1.629-5.071-2.812-10.295-3.733-15.542
			c-0.202-1.164-0.383-2.331-0.548-3.501c-0.014-0.057-0.014-0.094-0.02-0.144c-0.014-0.087-0.027-0.237-0.065-0.501
			c-0.072-0.522-0.12-1.044-0.178-1.566c-0.202-1.865-0.315-3.732-0.51-5.6c-2.047-19.007-7.687-38.229-19.935-53.237
			c-2.118-2.589-4.496-4.952-7.073-7.083c-2.457-2.043-5.88-2.417-8.303,0c-2.101,2.106-2.46,6.259,0,8.302
			c3.806,3.154,6.988,6.745,9.329,10.123c2.71,3.918,4.928,8.165,6.824,12.528c-0.014-0.027,0.424,1.044,0.438,1.064
			c0.216,0.537,0.418,1.076,0.623,1.617c0.403,1.071,0.79,2.151,1.149,3.237c0.784,2.298,1.465,4.629,2.088,6.973
			c1.102,4.165,1.954,8.392,2.607,12.645c0.075,0.465,0.144,0.934,0.209,1.401c0.007,0.043,0.014,0.07,0.021,0.104
			c0,0.046,0.007,0.089,0.014,0.147c0.116,0.866,0.216,1.735,0.312,2.604c0.198,1.893,0.321,3.795,0.523,5.688
			c0.562,5.298,1.479,10.562,2.687,15.749c1.263,5.434,2.943,10.744,5.133,15.874c2.119,4.965,4.854,9.753,7.345,14.546
			c2.005,3.863,4.318,7.467,7.091,10.83c2.039,2.475,6.2,2.102,8.298,0c2.423-2.422,2.033-5.834,0-8.305
			C345.426,189.147,342.94,183.527,340.405,178.525z"/>
		<path d="M313.606,244.539c-7.789-10.232-46.72-64.289-48.513-123.828c-0.096-3.241-2.83-5.782-6.047-5.694
			c-3.237,0.099-5.787,2.804-5.688,6.045c1.896,63.123,42.726,119.853,50.891,130.588l0.137,0.171
			c1.144,1.567,2.93,2.398,4.739,2.398c1.178,0,2.369-0.355,3.405-1.091c2.643-1.886,3.258-5.548,1.376-8.189
			C313.873,244.892,313.771,244.758,313.606,244.539z"/>
		<path d="M244.447,240.963c-9.448-22.449-15.574-36.449-20.998-41.61c-7.207-6.857-21.98-6.423-39.106-5.924
			c-0.512,0.014-1.027,0.027-1.539,0.045c-18.419-0.53-31-0.384-37.678,5.968c-5.422,5.157-11.548,19.157-20.992,41.606
			c-6.809,16.184-14.529,34.526-19.458,40.159c-2.135,2.443-1.882,6.15,0.553,8.285c1.114,0.976,2.491,1.451,3.862,1.451
			c1.636,0,3.267-0.681,4.43-2.009c6.173-7.06,13.586-24.677,21.435-43.331c6.34-15.064,14.231-33.814,18.269-37.657
			c3.304-3.146,16.309-3.08,26.356-2.817c0.452,0.103,0.924,0.154,1.408,0.145c1.234-0.031,2.471-0.069,3.698-0.106
			c12.039-0.353,27.015-0.791,30.676,2.696c4.031,3.84,11.923,22.59,18.268,37.658c7.851,18.647,15.264,36.268,21.437,43.331
			c1.157,1.328,2.786,2.006,4.422,2.006c1.368,0,2.744-0.479,3.86-1.451c2.443-2.133,2.693-5.842,0.554-8.282
			C258.981,275.485,251.261,257.143,244.447,240.963z"/>
		<path d="M227.83,283.425c-10.376-30.259-16.563-46.5-21.598-51.291c-3.504-3.337-9.846-4.955-22.588-5.767
			c-0.854-0.058-1.679,0.079-2.428,0.362c-10.191,0.877-15.72,2.495-18.872,5.489c-5.03,4.788-11.216,21.029-21.592,51.288
			c-2.005,5.835-3.729,10.872-4.841,13.768c-1.164,3.028,0.357,6.424,3.383,7.584c0.689,0.267,1.401,0.39,2.103,0.39
			c2.361,0,4.585-1.434,5.48-3.771c1.184-3.09,2.943-8.22,4.983-14.161c4.373-12.771,14.633-42.684,18.534-46.555
			c0.351-0.271,2.622-1.652,13.306-2.457c0.26-0.018,0.511-0.062,0.767-0.113c10.738,0.787,13.209,2.088,13.668,2.44
			c3.949,3.911,14.209,33.824,18.589,46.596c2.04,5.941,3.799,11.071,4.982,14.161c0.897,2.338,3.121,3.771,5.482,3.771
			c0.698,0,1.41-0.127,2.102-0.387c3.025-1.16,4.538-4.559,3.381-7.584C231.557,294.297,229.832,289.26,227.83,283.425z"/>
		<path d="M188.522,264.774c-1.545-1.472-3.689-1.934-5.614-1.406c-1.041,0.212-2.033,0.708-2.859,1.491
			c-7.289,6.937-11.423,35.44-12.867,47.373c-0.39,3.217,1.903,6.144,5.126,6.53c0.238,0.03,0.472,0.044,0.712,0.044
			c2.922,0,5.463-2.187,5.816-5.171c1.252-10.369,3.333-21.987,5.457-30.152c2.026,7.744,4.079,18.821,5.444,30.07
			c0.363,2.98,2.892,5.167,5.821,5.167c0.232,0,0.476-0.014,0.712-0.041c3.217-0.39,5.51-3.315,5.126-6.532
			C199.956,300.207,195.815,271.708,188.522,264.774z"/>
		<path d="M202.991,123.761c-8.141,8.627-18.016,7.878-28.83,5.793c-0.258-0.049-0.512-0.082-0.76-0.103
			c-2.729-1.164-5.33-2.96-7.814-5.607c-5.2-5.525-13.492,2.794-8.309,8.302c5.092,5.407,11.315,9.333,18.712,10.549
			c4.182,0.687,8.366,0.542,12.525,0.031c1.215-0.053,2.427-0.154,3.655-0.327c1.636-0.231,3.217-0.596,4.746-1.075
			c0.452-0.103,0.862-0.243,1.235-0.417c4.997-1.802,9.395-4.875,13.142-8.848C216.492,126.563,208.204,118.244,202.991,123.761z"/>
		<path d="M203.437,159.067c-7.036,2.733-14.894,4.141-22.571,3.763c-3.806-0.272-7.583-0.943-11.216-1.966
			c-3.424-1.075-6.694-2.599-9.712-4.625c-6.297-4.24-12.169,5.936-5.919,10.138c2.12,1.429,4.374,2.655,6.714,3.704
			c0.376,0.245,0.796,0.455,1.252,0.63c0.794,0.294,1.6,0.575,2.415,0.838c4.933,1.74,10.183,2.729,15.502,3.027
			c12.196,0.88,24.763-1.622,34.667-8.287c6.241-4.203,0.376-14.382-5.924-10.138C206.979,157.269,205.24,158.235,203.437,159.067z"
			/>
	</g>
</g>
<g>
</g>
<g>
</g>
<g>
</g>
<g>
</g>
<g>
</g>
<g>
</g>
<g>
</g>
<g>
</g>
<g>
</g>
<g>
</g>
<g>
</g>
<g>
</g>
<g>
</g>
<g>
</g>
<g>
</g>
</svg>
