<?xml version="1.0" encoding="iso-8859-1"?>
<!-- Generator: Adobe Illustrator 16.0.0, SVG Export Plug-In . SVG Version: 6.00 Build 0)  -->
<!DOCTYPE svg PUBLIC "-//W3C//DTD SVG 1.1//EN" "http://www.w3.org/Graphics/SVG/1.1/DTD/svg11.dtd">
<svg version="1.1" id="Capa_1" xmlns="http://www.w3.org/2000/svg" xmlns:xlink="http://www.w3.org/1999/xlink" x="0px" y="0px"
	 width="366.541px" height="366.541px" viewBox="0 0 366.541 366.541" style="enable-background:new 0 0 366.541 366.541;"
	 xml:space="preserve">
<g>
	<g>
		<path d="M125.844,141.048c1.167,0.251,2.247,0.238,5.564-2.313c1.472-1.129,3.652-3.039,5.664-5.695l0.879-1.17
			c7.534-10.027,25.178-33.484,50.657-32.215c21.012,1.539,35.905,17.405,43.071,45.892c0.243,0.97,0.387,1.567,0.551,2.019
			c1.099,4.661,2.933,10.463,5.581,12.373c0.657,0.474,1.414,0.698,2.167,0.698c1.149,0,2.286-0.525,3.011-1.535
			c1.153-1.602,0.846-3.827-0.67-5.049c-0.732-0.95-2.108-4.907-2.93-8.459c-0.048-0.207-0.113-0.411-0.198-0.609
			c-0.072-0.246-0.202-0.775-0.325-1.245c-1.133-4.516-4.151-16.509-11.465-27.795c-9.445-14.565-22.336-22.54-38.308-23.69
			c-0.021,0-0.048,0-0.071-0.007c-29.433-1.499-48.75,24.193-57,35.159l-0.869,1.157c-2.26,2.986-4.921,4.839-5.845,5.378
			c-0.31,0.123-0.611,0.287-0.892,0.501c-1.151,0.876-1.716,2.37-1.405,3.778C123.329,139.638,124.436,140.738,125.844,141.048z"/>
		<path d="M127.502,179.135c12.243-3.325,23.558-10.109,24.049-10.411c15.976-9.78,30.462-25.199,30.589-25.343
			c5.982-6.851,14.832-13.421,21.734-11.308c4.066,1.244,6.883,3.455,8.381,6.584c1.787,3.729,1.649,8.788-0.383,13.86
			c-3.774,9.443-15.551,20.846-33.139,32.111c-8.822,5.654-31.03,19.527-46.718,26.228c-1.885,0.805-2.758,2.988-1.956,4.866
			c0.602,1.41,1.973,2.256,3.412,2.256c0.487,0,0.982-0.096,1.458-0.295c16.197-6.93,38.828-21.053,47.803-26.802
			c13.363-8.549,30.454-21.678,36.028-35.604c2.799-6.993,2.871-14.222,0.185-19.819c-2.389-5.005-6.851-8.624-12.895-10.477
			c-8.87-2.711-19.624,2.217-29.472,13.503c-0.13,0.137-14.154,14.886-28.879,23.907c-0.104,0.063-10.888,6.528-22.146,9.594
			c-1.973,0.534-3.14,2.58-2.604,4.553C123.487,178.515,125.523,179.686,127.502,179.135z"/>
		<path d="M159.012,127.577c-1.679,1.859-3.195,3.854-4.818,5.75c-2.134,2.492-4.461,4.819-6.893,7.016
			c-2.505,2.26-4.524,3.872-7.479,5.564c-3.131,1.802-6.317,3.614-9.558,5.193c-1.116,0.541-2.079,0.898-3.333,1.273
			c-1.932,0.582-3.137,2.578-2.587,4.565c0.527,1.91,2.625,3.169,4.567,2.587c3.792-1.143,7.229-3.096,10.65-5.039
			c2.895-1.645,5.768-3.123,8.423-5.149c5.183-3.942,9.641-8.537,13.74-13.572c1.665-2.04,3.436-3.983,5.296-5.845
			c1.009-1.02,2.06-1.997,3.129-2.965c0.553-0.5,1.121-0.984,1.692-1.464c0.291-0.238,0.582-0.486,0.876-0.726
			c0.074-0.062,0.655-0.51,0.799-0.637c2.585-1.973,5.337-3.735,8.235-5.222c2.735-1.408,5.48-2.389,8.807-3.086
			c1.108-0.225,1.349-0.245,2.17-0.337c2.012-0.214,3.72-1.535,3.72-3.709c0-1.862-1.694-3.922-3.72-3.711
			C179.319,109.463,167.853,117.845,159.012,127.577z"/>
		<path d="M130.145,198.615c8.059-2.765,49.435-18.217,72.611-50.702c1.191-1.665,0.801-3.979-0.869-5.169
			c-1.663-1.193-3.983-0.806-5.174,0.862c-21.854,30.633-61.294,45.349-68.979,47.99c-0.167,0.059-0.267,0.086-0.301,0.1
			c-1.916,0.726-2.881,2.868-2.156,4.784c0.561,1.485,1.973,2.398,3.47,2.398c0.416,0,0.847-0.071,1.264-0.222L130.145,198.615z"/>
		<path d="M231.091,220.702c-5.141-1.718-11.437-6.2-17.521-10.533c-8.809-6.276-16.416-11.697-22.613-10.629
			c-4.66,0.808-12.796,6.009-25.646,14.476c-9.262,6.105-19.761,13.028-24.325,14.257c-1.977,0.533-3.15,2.566-2.616,4.544
			c0.445,1.656,1.944,2.745,3.578,2.745c0.318,0,0.644-0.041,0.963-0.123c5.722-1.547,15.811-8.192,26.486-15.229
			c8.621-5.681,19.349-12.758,22.823-13.354c3.145-0.541,10.858,4.941,17.053,9.356c6.529,4.646,13.277,9.459,19.479,11.525
			c1.944,0.65,4.042-0.403,4.688-2.348C234.089,223.443,233.028,221.345,231.091,220.702z"/>
		<path d="M221.803,238.874c-2.994-1.081-7.854-4.086-12.552-6.988c-9.932-6.139-16.242-9.862-20.773-9.082
			c-4.589,0.794-14.226,7.344-30.39,19.15c-1.985,1.444-3.69,2.689-4.878,3.531c-1.675,1.185-2.072,3.498-0.894,5.168
			c0.726,1.026,1.874,1.567,3.034,1.567c0.743,0,1.491-0.219,2.137-0.678c1.234-0.869,2.965-2.132,4.971-3.597
			c6.434-4.695,23.531-17.18,27.239-17.815c2.313-0.158,10.664,4.989,15.646,8.062c5.256,3.254,10.219,6.32,13.935,7.662
			c1.924,0.698,4.052-0.302,4.743-2.225C224.726,241.694,223.73,239.572,221.803,238.874z"/>
		<path d="M209.272,257.319c-2.088-1.362-3.997-2.73-5.853-4.052c-6.084-4.346-11.344-8.104-17.108-7.094
			c-6.494,1.112-16.827,11.509-18.833,13.586c-1.425,1.472-1.388,3.818,0.081,5.242c0.722,0.695,1.654,1.048,2.58,1.048
			c0.97,0,1.937-0.373,2.666-1.13c4.969-5.133,12.027-10.965,14.77-11.437c2.707-0.476,6.8,2.439,11.533,5.824
			c1.827,1.297,3.891,2.779,6.108,4.22c1.711,1.122,4.015,0.64,5.137-1.081C211.468,260.728,210.983,258.435,209.272,257.319z"/>
		<path d="M241.919,180.736c-3.094-1.307-6.331-2.678-8.933-4.846c-2.86-2.39-4.195-5.509-4.791-9.128
			c-0.78-4.71-7.926-2.702-7.152,1.977c1.581,9.616,8.669,14.83,17.132,18.406c1.861,0.787,3.952,0.582,5.071-1.334
			C244.17,184.242,243.781,181.525,241.919,180.736z"/>
		<path d="M234.715,200.093c-2.782-0.855-4.897-1.943-7.847-3.688c-5.4-3.189-10.321-7.81-12.717-13.716
			c-0.76-1.869-2.443-3.176-4.565-2.587c-1.779,0.488-3.351,2.683-2.587,4.565c4.414,10.896,14.564,19.137,25.748,22.586
			C237.33,208.663,239.277,201.503,234.715,200.093z"/>
		<path d="M267.838,0H98.7C87.475,0,78.347,8.788,78.347,19.595v327.351c0,10.807,9.125,19.595,20.353,19.595h169.139
			c11.225,0,20.355-8.788,20.355-19.595V19.595C288.194,8.788,279.063,0,267.838,0z M183.27,346.021
			c-6.28,0-11.382-5.099-11.382-11.382c0-6.256,5.102-11.361,11.382-11.361c6.279,0,11.382,5.105,11.382,11.361
			C194.652,340.922,189.549,346.021,183.27,346.021z M274.296,303.443H92.263V58.177h182.03v245.266H274.296z"/>
	</g>
</g>
<g>
</g>
<g>
</g>
<g>
</g>
<g>
</g>
<g>
</g>
<g>
</g>
<g>
</g>
<g>
</g>
<g>
</g>
<g>
</g>
<g>
</g>
<g>
</g>
<g>
</g>
<g>
</g>
<g>
</g>
</svg>
