<?xml version="1.0" encoding="iso-8859-1"?>
<!-- Generator: Adobe Illustrator 16.0.0, SVG Export Plug-In . SVG Version: 6.00 Build 0)  -->
<!DOCTYPE svg PUBLIC "-//W3C//DTD SVG 1.1//EN" "http://www.w3.org/Graphics/SVG/1.1/DTD/svg11.dtd">
<svg version="1.1" id="Capa_1" xmlns="http://www.w3.org/2000/svg" xmlns:xlink="http://www.w3.org/1999/xlink" x="0px" y="0px"
	 width="372.414px" height="372.414px" viewBox="0 0 372.414 372.414" style="enable-background:new 0 0 372.414 372.414;"
	 xml:space="preserve">
<g>
	<g>
		<path d="M299.328,30.854c-0.031-0.035-0.062-0.069-0.093-0.099C263.874-8.418,206.881-0.345,182.548,3.101l-2.555,0.359
			c-6.641,0.924-12.37-0.103-14.218-0.588c-0.546-0.233-1.141-0.404-1.759-0.497c-2.572-0.349-5.176,0.821-6.57,3.005
			c-1.388,2.183-1.388,4.989,0.007,7.166c1.156,1.793,2.547,3.138,9.974,4.12c3.297,0.431,8.473,0.773,14.389-0.055l2.594-0.366
			c22.229-3.145,74.27-10.52,104.918,23.36c24.66,28.544,23.432,67.492-3.565,112.633c-0.921,1.537-1.488,2.478-1.854,3.265
			c-4.511,7.283-9.534,16.96-8.607,22.73c0.229,1.427,0.907,2.676,1.862,3.635c0.287,0.284,0.619,0.523,0.951,0.753v88.568h3.124
			v101.214h3.812v-101.21h0.072v-88.251c2.248-1.273,3.624-3.771,3.34-6.454c0.273-2.122,3.552-8.891,7.002-14.414
			c0.208-0.329,0.38-0.678,0.526-1.034c0.219-0.39,0.719-1.235,1.164-1.978c4.284-7.159,15.652-26.166,20.666-49.71
			C324.313,78.939,318.091,52.53,299.328,30.854z"/>
		<path d="M279.349,93.753c-7.799-14.667-27.651-22.052-54.416-20.228c-0.332,0.014-36.768,0.938-66.828-6.3
			c-0.221-0.055-22.06-5.513-40.197-15.882c-3.183-1.824-7.248-0.712-9.062,2.46c-1.828,3.183-0.719,7.248,2.469,9.065
			c19.722,11.293,42.64,17.019,43.639,17.268c32.619,7.844,70.485,6.673,70.82,6.639c16.252-1.095,35.775,1.797,41.836,13.213
			c3.576,6.714,4.34,13.09,2.272,18.935c-2.464,6.995-9.038,13.217-18.035,17.07c-16.744,7.173-46.079,6.707-82.623-1.301
			c-18.324-4.011-64.01-14.568-92.361-25.943c-3.405-1.372-7.263,0.281-8.634,3.689c-1.023,2.546-0.358,5.353,1.464,7.173
			c0.618,0.616,1.367,1.123,2.226,1.472c29.278,11.735,75.815,22.511,94.465,26.59c27.741,6.084,66,11.115,90.698,0.534
			c12.398-5.311,21.639-14.373,25.334-24.865C285.721,113.975,284.657,103.75,279.349,93.753z"/>
		<path d="M137.932,39.827c6.247,3.354,13.074,5.236,19.873,7.101c5.748,1.581,11.259,3.347,17.186,4.151
			c11.546,1.574,23.017,1.386,34.584,0.212c4.682-0.479,9.391-0.688,14.096-0.705c2.566,0,5.141,0.082,7.707,0.223
			c1.338,0.068,2.669,0.171,4.007,0.287c0.668,0.062,1.349,0.124,2.022,0.199c0.182,0.014,1.482,0.165,1.817,0.208
			c5.773,0.767,11.488,2.02,17.039,3.806c5.246,1.68,9.965,3.915,15.061,7.245c1.684,1.109,2.026,1.386,3.173,2.32
			c2.816,2.279,6.643,2.758,9.4,0.007c2.368-2.368,2.82-7.108,0-9.404c-18.739-15.215-43.879-19.123-67.393-17.987
			c-4.477,0.219-8.915,0.825-13.381,1.17c-5.852,0.458-11.748,0.452-17.61,0.158c-6.028-0.308-10.629-0.821-16.517-2.413
			c-6.227-1.694-12.566-3.432-18.669-5.537c-2.103-0.726-3.764-1.492-5.831-2.598c-3.183-1.711-7.229-0.705-9.055,2.499
			C133.678,33.852,134.742,38.109,137.932,39.827z"/>
		<path d="M89.782,90.766l0.224,0.106c13.706,6.701,85.66,39.533,156.127,27.747c3.617-0.609,6.061-4.028,5.459-7.645
			c-0.606-3.621-4.031-6.064-7.652-5.462c-66.465,11.122-135.028-20.194-148.109-26.57c-0.274-0.144-0.445-0.226-0.508-0.253
			c-3.347-1.506-7.281-0.021-8.788,3.326c-1.17,2.59-0.532,5.53,1.364,7.426C88.434,89.976,89.065,90.427,89.782,90.766z"/>
		<path d="M189.861,246.649c-4.337-8.679-6.641-22.319-8.851-35.508c-3.203-19.117-5.979-35.604-15.177-42.1
			c-6.921-4.883-23.812-8.596-50.798-14.147c-19.458-3.994-41.515-8.531-48.85-12.754c-3.184-1.821-7.243-0.732-9.072,2.443
			c-1.535,2.663-1.02,5.941,1.054,8.015c0.404,0.397,0.87,0.76,1.384,1.054c9.206,5.301,30.391,9.644,52.811,14.257
			c18.117,3.723,40.664,8.35,45.811,11.984c4.671,3.306,7.486,20.013,9.743,33.441c2.134,12.73,4.358,25.816,8.581,35.933v20.17
			h-4.825v102.966h5.729V271.727h13.114V250.27c0.043-0.432,0.043-0.863,0-1.301v-0.021h-0.007
			C190.429,248.171,190.229,247.388,189.861,246.649z"/>
		<path d="M155.088,257.901c-2.414-5.16-4.765-15.115-7.048-24.742c-4.803-20.345-8.076-33.055-14.804-37.794
			c-6.81-4.805-27.298-8.713-62.725-14.24c-4.334-0.674-8.08-1.256-10.638-1.701c-3.621-0.616-7.055,1.807-7.674,5.42
			c-0.376,2.21,0.378,4.353,1.853,5.825c0.939,0.938,2.163,1.602,3.571,1.845c2.663,0.462,6.455,1.05,10.845,1.738
			c14.094,2.197,51.55,8.042,57.058,11.923c3.129,2.73,7.18,19.821,9.587,30.032c2.548,10.756,4.949,20.931,7.948,27.33
			c0.452,0.961,1.114,1.745,1.896,2.361v3.538h-14.519v102.966h16.221V271.727h8.811v-8.762h-0.147
			C155.898,261.372,155.867,259.561,155.088,257.901z"/>
		<path d="M115.876,265.385c-0.919-4.359-1.608-8.518-2.286-12.532c-2.197-13.213-4.106-24.619-12.674-30.648
			c-9.637-6.804-35.885-6.722-41.045-6.646c-3.67,0.064-6.596,3.086-6.537,6.758c0.033,1.794,0.769,3.409,1.946,4.586
			c1.227,1.226,2.929,1.979,4.805,1.944c12.79-0.206,29.109,1.352,33.174,4.216c4.023,2.844,5.517,11.711,7.233,21.984
			c0.662,3.955,1.412,8.445,2.383,13.076c0.329,1.566,1.208,2.867,2.368,3.791v100.499h9.161V271.733h1.352v-2.437h-0.245
			C116.006,268.092,116.16,266.744,115.876,265.385z"/>
		<path d="M242.923,168.131c-9.757,13.61-7.963,28.49-2.341,43.123v58.188h-4.247v102.966h8.382V271.73h9.883v-60.815h-0.15
			c-0.052-0.387-0.134-0.773-0.288-1.153c-2.262-5.567-4.612-11.406-5.171-17.442c-0.609-6.643,1.667-12.292,5.482-17.624
			C259.466,167.741,247.875,161.232,242.923,168.131z"/>
		<path d="M220.877,230.643c0.671-1.608,0.705-3.511-0.342-5.488c-2.437-4.613-3.744-8.665-5.267-14.606
			c-2.8-10.879-3.179-22.962,1.26-33.469c1.409-3.333,0.934-7.111-2.499-9.062c-2.864-1.629-7.645-0.835-9.062,2.505
			c-8.199,19.396-5.78,42.681,4.015,61.195c0.387,0.746,0.869,1.313,1.382,1.793v35.933h-0.906v102.97h3.438V271.733h5.462v100.681
			h4.729V269.441h-2.211V230.643z"/>
		<rect x="260.065" y="269.441" width="12.478" height="102.966"/>
		<rect x="119.173" y="269.441" width="5.737" height="102.966"/>
		<rect x="191.358" y="269.441" width="12.166" height="102.966"/>
		<rect x="162.131" y="269.441" width="3.811" height="102.966"/>
	</g>
</g>
<g>
</g>
<g>
</g>
<g>
</g>
<g>
</g>
<g>
</g>
<g>
</g>
<g>
</g>
<g>
</g>
<g>
</g>
<g>
</g>
<g>
</g>
<g>
</g>
<g>
</g>
<g>
</g>
<g>
</g>
</svg>
