<?xml version="1.0" encoding="iso-8859-1"?>
<!-- Generator: Adobe Illustrator 16.0.0, SVG Export Plug-In . SVG Version: 6.00 Build 0)  -->
<!DOCTYPE svg PUBLIC "-//W3C//DTD SVG 1.1//EN" "http://www.w3.org/Graphics/SVG/1.1/DTD/svg11.dtd">
<svg version="1.1" id="Capa_1" xmlns="http://www.w3.org/2000/svg" xmlns:xlink="http://www.w3.org/1999/xlink" x="0px" y="0px"
	 width="344.002px" height="344.002px" viewBox="0 0 344.002 344.002" style="enable-background:new 0 0 344.002 344.002;"
	 xml:space="preserve">
<g>
	<g>
		<g>
			<path d="M58.704,102.855c2.13,0.465,4.104,0.435,10.166-4.227c2.699-2.067,6.677-5.558,10.355-10.418l1.608-2.134
				c13.772-18.321,46.015-61.206,92.583-58.875c38.401,2.803,65.628,31.804,78.725,83.879c0.445,1.766,0.716,2.853,1.02,3.689
				c1.996,8.516,5.356,19.123,10.188,22.614c1.204,0.869,2.587,1.283,3.963,1.283c2.107,0,4.182-0.975,5.503-2.814
				c2.118-2.933,1.554-6.985-1.222-9.231c-1.339-1.73-3.857-8.98-5.349-15.459c-0.09-0.382-0.213-0.762-0.367-1.123
				c-0.123-0.438-0.365-1.401-0.585-2.271c-2.08-8.25-7.59-30.175-20.964-50.799c-17.271-26.625-40.819-41.192-70.007-43.295
				c-0.049-0.007-0.096-0.007-0.144-0.01C120.379,10.92,85.07,57.877,69.999,77.93l-1.584,2.104
				c-4.129,5.46-9.002,8.853-10.684,9.84c-0.568,0.221-1.115,0.525-1.63,0.912c-2.11,1.602-3.14,4.324-2.572,6.909
				C54.096,100.27,56.118,102.287,58.704,102.855z"/>
			<path d="M228.522,128.856c5.115-12.784,5.239-25.991,0.338-36.234c-4.373-9.135-12.524-15.755-23.568-19.14
				c-16.214-4.962-35.865,4.04-53.875,24.674c-0.231,0.251-25.865,27.213-52.782,43.694c-0.197,0.12-19.908,11.94-40.482,17.545
				c-3.612,0.985-5.742,4.71-4.759,8.323c0.986,3.616,4.711,5.75,8.323,4.762c22.386-6.097,43.061-18.499,43.965-19.045
				c29.198-17.882,55.684-46.061,55.908-46.32c10.934-12.523,27.108-24.534,39.729-20.668c7.426,2.274,12.58,6.323,15.311,12.031
				c3.269,6.825,3.012,16.067-0.698,25.339c-5.913,14.792-22.583,32.208-47.448,49.847h22.473
				C207.198,160.479,222.078,144.97,228.522,128.856z"/>
			<path d="M119.324,78.238c-3.08,3.388-5.841,7.029-8.815,10.502c-3.895,4.555-8.151,8.809-12.602,12.821
				c-4.57,4.128-8.266,7.082-13.66,10.177c-5.718,3.28-11.546,6.598-17.472,9.484c-2.04,0.993-3.788,1.638-6.081,2.327
				c-3.535,1.062-5.732,4.718-4.735,8.345c0.957,3.498,4.798,5.795,8.338,4.738c6.935-2.089,13.218-5.653,19.479-9.214
				c5.285-3.003,10.535-5.712,15.395-9.409c9.472-7.2,17.621-15.607,25.115-24.809c3.035-3.725,6.28-7.276,9.669-10.682
				c1.853-1.86,3.766-3.655,5.722-5.411c1.017-0.914,2.053-1.804,3.095-2.68c0.532-0.45,1.068-0.888,1.608-1.326
				c0.144-0.111,1.194-0.95,1.465-1.162c4.723-3.617,9.748-6.831,15.041-9.55c5-2.568,10.015-4.37,16.101-5.634
				c2.02-0.421,2.458-0.467,3.971-0.625c3.675-0.378,6.782-2.796,6.782-6.781c0-3.41-3.101-7.163-6.782-6.781
				C156.442,45.118,135.48,60.442,119.324,78.238z"/>
			<path d="M199.265,115.408c2.177-3.049,1.472-7.279-1.577-9.456c-3.046-2.175-7.282-1.468-9.455,1.581
				c-21.464,30.087-52.2,51.758-78.229,66.135h26.267C158.52,159.197,181.745,139.972,199.265,115.408z"/>
			<path d="M254.53,166.542c-5.239-4.358-7.676-10.082-8.764-16.687c-1.417-8.61-14.482-4.948-13.073,3.605
				c1.383,8.393,5.072,14.933,10.212,20.205h23.921C262.473,171.738,258.167,169.566,254.53,166.542z"/>
		</g>
		<rect x="39.822" y="172.823" width="267.495" height="4.449"/>
		<rect x="319.472" y="170.677" width="24.53" height="8.74"/>
		<rect y="170.677" width="24.53" height="8.74"/>
		<g>
			<path style="opacity:0.4;enable-background:new    ;" d="M185.112,177.25H161.86c-2.184,1.469-4.404,2.94-6.697,4.404
				c-16.127,10.328-56.721,35.68-85.392,47.938c-3.446,1.472-5.039,5.458-3.571,8.9c1.1,2.57,3.605,4.114,6.233,4.114
				c0.89,0,1.795-0.172,2.664-0.545c29.607-12.658,70.969-38.472,87.381-48.981C169.671,188.472,177.446,183.126,185.112,177.25z"/>
			<path style="opacity:0.4;enable-background:new    ;" d="M66.357,207.206c7.986-2.734,33.883-12.313,62.663-29.955h-27.55
				c-18.685,9.624-33.848,15.185-39.522,17.135c-0.301,0.1-0.482,0.168-0.546,0.195c-3.504,1.324-5.267,5.236-3.942,8.74
				c1.026,2.711,3.605,4.381,6.346,4.381c0.767,0,1.549-0.131,2.313-0.407L66.357,207.206z"/>
			<path style="opacity:0.4;enable-background:new    ;" d="M250.862,247.573c-9.401-3.138-20.899-11.324-32.021-19.242
				c-16.104-11.475-30.006-21.382-41.342-19.428c-8.514,1.472-23.39,10.975-46.873,26.453
				c-16.929,11.166-36.119,23.812-44.462,26.06c-3.615,0.972-5.761,4.695-4.782,8.31c0.812,3.024,3.552,5.023,6.542,5.023
				c0.582,0,1.177-0.075,1.766-0.236c10.458-2.816,28.89-14.965,48.405-27.825c15.762-10.39,35.38-23.322,41.714-24.417
				c5.76-0.979,19.849,9.044,31.173,17.11c11.933,8.501,24.273,17.289,35.594,21.063c3.556,1.188,7.392-0.736,8.575-4.288
				C256.333,252.6,254.411,248.757,250.862,247.573z"/>
			<path style="opacity:0.4;enable-background:new    ;" d="M233.887,280.789c-5.465-1.975-14.349-7.468-22.945-12.771
				c-18.151-11.218-29.684-18.024-37.964-16.591c-8.386,1.447-25.988,13.415-55.55,34.995c-3.619,2.642-6.742,4.921-8.908,6.454
				c-3.06,2.159-3.788,6.393-1.625,9.448c1.321,1.872,3.417,2.868,5.544,2.868c1.348,0,2.715-0.4,3.903-1.242
				c2.257-1.592,5.419-3.901,9.081-6.577c11.764-8.587,43.015-31.402,49.792-32.572c4.23-0.288,19.486,9.12,28.603,14.749
				c9.603,5.931,18.672,11.54,25.461,13.99c3.518,1.273,7.405-0.548,8.679-4.072C239.229,285.953,237.413,282.061,233.887,280.789z"
				/>
			<path style="opacity:0.4;enable-background:new    ;" d="M210.987,314.497c-3.81-2.484-7.311-4.982-10.701-7.396
				c-11.122-7.942-20.731-14.808-31.267-12.973c-11.867,2.05-30.753,21.046-34.422,24.834c-2.604,2.69-2.534,6.981,0.157,9.582
				c1.314,1.276,3.013,1.91,4.716,1.91c1.771,0,3.54-0.688,4.872-2.063c9.079-9.381,21.979-20.041,26.99-20.903
				c4.947-0.849,12.431,4.474,21.085,10.646c3.337,2.379,7.115,5.079,11.16,7.717c3.142,2.05,7.344,1.164,9.384-1.975
				C215,320.746,214.118,316.543,210.987,314.497z"/>
			<path style="opacity:0.4;enable-background:new    ;" d="M273.311,177.25h-25.588c4.733,3.611,10.226,6.52,16.084,8.99
				c3.405,1.441,7.231,1.062,9.274-2.43C274.156,181.987,274.249,179.322,273.311,177.25z"/>
			<path style="opacity:0.4;enable-background:new    ;" d="M257.491,209.916c-5.093-1.567-8.956-3.56-14.346-6.741
				c-9.87-5.832-18.87-14.284-23.244-25.071c-0.119-0.298-0.27-0.575-0.414-0.853h-12.364c-0.677,1.4-0.896,2.981-0.301,4.46
				c8.087,19.924,26.635,34.984,47.062,41.274C262.268,225.569,265.82,212.486,257.491,209.916z"/>
		</g>
	</g>
</g>
<g>
</g>
<g>
</g>
<g>
</g>
<g>
</g>
<g>
</g>
<g>
</g>
<g>
</g>
<g>
</g>
<g>
</g>
<g>
</g>
<g>
</g>
<g>
</g>
<g>
</g>
<g>
</g>
<g>
</g>
</svg>
