<?xml version="1.0" encoding="iso-8859-1"?>
<!-- Generator: Adobe Illustrator 16.0.0, SVG Export Plug-In . SVG Version: 6.00 Build 0)  -->
<!DOCTYPE svg PUBLIC "-//W3C//DTD SVG 1.1//EN" "http://www.w3.org/Graphics/SVG/1.1/DTD/svg11.dtd">
<svg version="1.1" id="Capa_1" xmlns="http://www.w3.org/2000/svg" xmlns:xlink="http://www.w3.org/1999/xlink" x="0px" y="0px"
	 width="334.879px" height="334.879px" viewBox="0 0 334.879 334.879" style="enable-background:new 0 0 334.879 334.879;"
	 xml:space="preserve">
<g>
	<g>
		<path d="M260.149,177.131c2.074,8.829,5.551,19.835,10.567,23.449c1.246,0.903,2.684,1.327,4.11,1.327
			c2.18,0,4.329-1.006,5.705-2.915c2.193-3.039,1.607-7.234-1.267-9.562c-1.39-1.804-4.001-9.315-5.551-16.03
			c-0.089-0.403-0.219-0.79-0.376-1.163c-0.131-0.458-0.384-1.458-0.609-2.354c-2.152-8.562-7.871-31.295-21.734-52.674
			c-17.908-27.603-42.325-42.707-72.588-44.89c-0.048,0-0.096-0.003-0.144-0.007c-55.776-2.849-92.381,45.838-108.01,66.626
			l-1.645,2.183c-4.278,5.657-9.336,9.179-11.076,10.198c-0.589,0.228-1.16,0.542-1.691,0.95c-2.185,1.656-3.254,4.481-2.666,7.159
			c0.588,2.681,2.688,4.772,5.364,5.357c2.209,0.484,4.252,0.448,10.542-4.38c2.792-2.144,6.921-5.765,10.733-10.804l1.668-2.214
			c14.275-18.99,47.703-63.452,95.984-61.038c39.817,2.909,68.04,32.974,81.622,86.962
			C259.554,175.146,259.842,176.269,260.149,177.131z"/>
		<path d="M185.286,102.29c-25.411,2.632-47.144,18.521-63.892,36.971c-3.188,3.518-6.056,7.29-9.139,10.888
			c-4.037,4.728-8.453,9.132-13.061,13.295c-4.741,4.283-8.571,7.349-14.164,10.552c-5.929,3.402-11.971,6.845-18.114,9.836
			c-2.113,1.033-3.929,1.697-6.304,2.416c-3.665,1.098-5.944,4.887-4.909,8.645c0.998,3.627,4.976,6.016,8.644,4.914
			c7.187-2.163,13.706-5.859,20.192-9.552c5.478-3.124,10.922-5.917,15.961-9.753c9.817-7.467,18.264-16.185,26.038-25.728
			c3.147-3.862,6.511-7.541,10.025-11.074c1.92-1.93,3.905-3.789,5.929-5.605c1.056-0.95,2.127-1.869,3.21-2.782
			c0.551-0.464,1.109-0.919,1.665-1.374c0.147-0.117,1.234-0.971,1.518-1.203c4.896-3.749,10.109-7.085,15.598-9.898
			c5.183-2.668,10.385-4.531,16.695-5.845c2.091-0.438,2.546-0.484,4.113-0.645c3.809-0.397,7.032-2.902,7.032-7.029
			C192.318,105.784,189.108,101.898,185.286,102.29z"/>
		<path d="M64.041,274.382c0.799,0,1.604-0.137,2.4-0.424l0.245-0.086c15.271-5.243,93.684-34.526,137.593-96.067
			c2.259-3.161,1.52-7.549-1.636-9.809c-3.162-2.257-7.553-1.521-9.809,1.641C151.42,227.69,76.684,255.574,62.119,260.57
			c-0.312,0.109-0.5,0.182-0.57,0.209c-3.631,1.372-5.46,5.427-4.086,9.062C58.528,272.65,61.202,274.382,64.041,274.382z"/>
		<path d="M278.492,239.996c-5.862-2.478-11.984-5.078-16.919-9.178c-5.432-4.518-7.96-10.452-9.083-17.303
			c-1.472-8.929-15.02-5.13-13.559,3.733c3.009,18.24,16.427,28.106,32.463,34.886c3.532,1.485,7.501,1.099,9.623-2.522
			C282.763,246.635,282.023,241.488,278.492,239.996z"/>
		<path d="M167.438,0C75.113,0,0.003,75.115,0.003,167.439c0,92.33,75.11,167.439,167.435,167.439
			c92.328,0,167.438-75.113,167.438-167.439C334.876,75.115,259.767,0,167.438,0z M177.23,319.719
			c-2.707,0.466-6.39,2.033-11.067,4.62c-11.555-0.096-22.807-1.465-33.642-3.936c2.81-1.841,5.655-3.713,8.537-5.616
			c16.344-10.772,36.675-24.17,43.25-25.313c5.972-1.013,20.577,9.38,32.318,17.744c2.857,2.039,5.736,4.065,8.624,6.061
			c-10.827,4.309-22.227,7.484-34.074,9.288C185.642,320.15,181.077,319.055,177.23,319.719z M268.787,287.112
			c1.93-3.583,1.122-8.877-3.942-10.438c-5.277-1.622-9.284-3.683-14.869-6.981c-10.236-6.05-19.564-14.811-24.103-26.001
			c-1.438-3.546-4.623-6.01-8.645-4.907c-3.367,0.934-6.354,5.092-4.911,8.65c8.381,20.66,27.607,36.278,48.79,42.801
			c1.383,0.422,2.625,0.4,3.724,0.113c-7.662,6.085-15.893,11.472-24.615,16.057c-5.075-3.285-10.291-6.971-15.438-10.633
			c-16.7-11.898-31.111-22.168-42.866-20.143c-8.826,1.526-24.248,11.372-48.591,27.422c-6.151,4.059-12.556,8.268-18.682,12.152
			c-8.747-3.139-17.12-7.039-25.074-11.611c28.626-14.065,62.191-35.029,76.773-44.372c25.313-16.214,57.704-41.079,68.269-67.472
			c5.305-13.264,5.435-26.949,0.349-37.571c-4.53-9.473-12.983-16.334-24.434-19.845c-16.81-5.144-37.188,4.196-55.857,25.586
			c-0.238,0.258-26.811,28.21-54.718,45.293c-0.204,0.131-20.638,12.389-41.971,18.199c-3.744,1.02-5.955,4.88-4.935,8.624
			c1.02,3.744,4.882,5.962,8.627,4.935c23.209-6.317,44.646-19.171,45.582-19.738c30.276-18.535,57.731-47.753,57.968-48.023
			c11.336-12.987,28.108-25.439,41.191-21.43c7.696,2.359,13.038,6.553,15.868,12.472c3.392,7.083,3.124,16.654-0.726,26.271
			c-7.162,17.897-29.461,39.512-62.797,60.859c-15.712,10.062-53.846,33.887-83.056,47.261
			c-39.447-28.534-65.185-74.904-65.185-127.202c0-86.533,70.394-156.927,156.921-156.927c86.527,0,156.925,70.394,156.925,156.927
			C324.362,215.356,302.752,258.305,268.787,287.112z"/>
	</g>
</g>
<g>
</g>
<g>
</g>
<g>
</g>
<g>
</g>
<g>
</g>
<g>
</g>
<g>
</g>
<g>
</g>
<g>
</g>
<g>
</g>
<g>
</g>
<g>
</g>
<g>
</g>
<g>
</g>
<g>
</g>
</svg>
