<?xml version="1.0" encoding="iso-8859-1"?>
<!-- Generator: Adobe Illustrator 16.0.0, SVG Export Plug-In . SVG Version: 6.00 Build 0)  -->
<!DOCTYPE svg PUBLIC "-//W3C//DTD SVG 1.1//EN" "http://www.w3.org/Graphics/SVG/1.1/DTD/svg11.dtd">
<svg version="1.1" id="Capa_1" xmlns="http://www.w3.org/2000/svg" xmlns:xlink="http://www.w3.org/1999/xlink" x="0px" y="0px"
	 width="317.77px" height="317.771px" viewBox="0 0 317.77 317.771" style="enable-background:new 0 0 317.77 317.771;"
	 xml:space="preserve">
<g>
	<g>
		<path d="M39.358,89.306c2.13,0.467,4.1,0.431,10.166-4.227c2.695-2.07,6.675-5.554,10.355-10.422l1.608-2.134
			c13.771-18.317,46.014-61.202,92.583-58.875c38.403,2.806,65.627,31.804,78.724,83.879c0.444,1.772,0.718,2.856,1.016,3.689
			c2.002,8.516,5.356,19.126,10.195,22.617c1.197,0.866,2.587,1.283,3.963,1.283c2.104,0,4.178-0.979,5.503-2.814
			c2.114-2.93,1.553-6.979-1.226-9.23c-1.338-1.728-3.856-8.981-5.353-15.458c-0.089-0.385-0.212-0.76-0.366-1.121
			c-0.119-0.445-0.366-1.41-0.588-2.272c-2.074-8.251-7.591-30.179-20.961-50.797c-17.269-26.63-40.819-41.198-70.007-43.302
			c-0.048,0-0.094-0.003-0.144-0.007c-53.792-2.748-89.1,44.209-104.176,64.261l-1.586,2.104c-4.129,5.457-9.003,8.854-10.682,9.837
			c-0.571,0.225-1.117,0.525-1.629,0.919c-2.11,1.598-3.14,4.324-2.572,6.906C34.753,86.724,36.774,88.743,39.358,89.306z"/>
		<path d="M209.181,115.311c5.119-12.783,5.243-25.991,0.342-36.234c-4.373-9.135-12.524-15.759-23.571-19.14
			c-16.218-4.962-35.87,4.043-53.874,24.674c-0.233,0.251-25.866,27.215-52.782,43.694c-0.197,0.12-19.905,11.943-40.482,17.547
			c-3.612,0.98-5.742,4.712-4.758,8.323c0.984,3.607,4.71,5.746,8.323,4.757c22.386-6.088,43.061-18.49,43.964-19.042
			c29.201-17.879,55.68-46.061,55.908-46.319c10.938-12.525,27.11-24.533,39.731-20.67c7.426,2.276,12.583,6.323,15.311,12.031
			c3.269,6.831,3.012,16.063-0.698,25.336c-6.909,17.267-28.418,38.109-60.57,58.704C119.897,179.3,79.3,204.645,50.627,216.902
			c-3.444,1.472-5.039,5.459-3.571,8.904c1.101,2.567,3.605,4.114,6.239,4.114c0.886,0,1.793-0.179,2.663-0.545
			c29.608-12.655,70.969-38.475,87.379-48.987C167.749,164.759,198.99,140.773,209.181,115.311z"/>
		<path d="M99.982,64.688c-3.077,3.395-5.842,7.029-8.814,10.506c-3.893,4.559-8.153,8.809-12.597,12.823
			c-4.57,4.127-8.268,7.081-13.663,10.172c-5.72,3.287-11.548,6.605-17.474,9.486c-2.04,0.994-3.789,1.643-6.08,2.331
			c-3.535,1.064-5.734,4.712-4.734,8.34c0.96,3.498,4.801,5.799,8.34,4.738c6.935-2.086,13.218-5.653,19.477-9.209
			c5.286-3.008,10.537-5.711,15.398-9.409c9.469-7.202,17.619-15.612,25.115-24.811c3.036-3.725,6.28-7.275,9.667-10.684
			c1.855-1.858,3.765-3.655,5.724-5.407c1.013-0.912,2.05-1.802,3.094-2.685c0.53-0.445,1.069-0.883,1.605-1.321
			c0.14-0.116,1.196-0.946,1.465-1.164c4.721-3.614,9.75-6.831,15.04-9.549c5.001-2.565,10.021-4.37,16.106-5.635
			c2.016-0.421,2.457-0.467,3.967-0.621c3.677-0.382,6.784-2.799,6.784-6.785c0-3.408-3.098-7.163-6.784-6.784
			C137.095,31.572,116.133,46.893,99.982,64.688z"/>
		<path d="M47.21,194.525c14.732-5.059,90.362-33.298,132.715-92.664c2.177-3.044,1.465-7.282-1.581-9.454
			c-3.043-2.176-7.279-1.468-9.455,1.58c-39.951,55.995-112.039,82.894-126.083,87.712c-0.301,0.103-0.484,0.171-0.551,0.201
			c-3.504,1.321-5.267,5.232-3.942,8.737c1.027,2.71,3.607,4.38,6.343,4.38c0.768,0,1.548-0.137,2.313-0.407L47.21,194.525z"/>
		<path d="M231.716,234.89c-9.397-3.135-20.896-11.324-32.018-19.243c-16.108-11.471-30.009-21.385-41.345-19.431
			c-8.516,1.472-23.392,10.979-46.87,26.46c-16.929,11.156-36.119,23.805-44.462,26.057c-3.617,0.972-5.761,4.695-4.788,8.309
			c0.816,3.025,3.554,5.021,6.543,5.021c0.585,0,1.177-0.075,1.766-0.232c10.46-2.813,28.894-14.969,48.405-27.829
			c15.763-10.39,35.375-23.315,41.711-24.414c5.763-0.979,19.848,9.041,31.176,17.111c11.93,8.504,24.27,17.292,35.597,21.062
			c3.553,1.191,7.389-0.738,8.573-4.287C237.188,239.91,235.268,236.07,231.716,234.89z"/>
		<path d="M214.746,268.108c-5.469-1.978-14.356-7.467-22.942-12.778c-18.154-11.208-29.693-18.015-37.967-16.58
			c-8.386,1.443-25.991,13.414-55.55,34.994c-3.621,2.636-6.744,4.918-8.908,6.455c-3.06,2.155-3.789,6.382-1.627,9.441
			c1.323,1.868,3.417,2.868,5.544,2.868c1.354,0,2.721-0.404,3.908-1.239c2.253-1.595,5.417-3.901,9.079-6.577
			c11.764-8.59,43.017-31.405,49.792-32.576c4.226-0.287,19.488,9.12,28.601,14.75c9.603,5.934,18.675,11.532,25.464,13.989
			c3.515,1.273,7.406-0.544,8.683-4.072C220.094,273.259,218.267,269.375,214.746,268.108z"/>
		<path d="M191.841,301.816c-3.812-2.491-7.31-4.989-10.698-7.398c-11.125-7.939-20.736-14.805-31.275-12.977
			c-11.861,2.046-30.753,21.046-34.422,24.831c-2.604,2.7-2.534,6.988,0.154,9.589c1.314,1.273,3.013,1.909,4.717,1.909
			c1.77,0,3.542-0.691,4.87-2.06c9.084-9.384,21.982-20.041,26.991-20.91c4.952-0.842,12.433,4.474,21.088,10.65
			c3.336,2.382,7.114,5.075,11.162,7.721c3.139,2.046,7.338,1.163,9.384-1.975C195.859,308.062,194.976,303.863,191.841,301.816z"/>
		<path d="M238.348,197.226c-5.089-1.564-8.959-3.553-14.346-6.735c-9.866-5.831-18.87-14.28-23.247-25.074
			c-1.389-3.422-4.459-5.801-8.339-4.736c-3.252,0.894-6.126,4.911-4.74,8.34c8.083,19.928,26.635,34.988,47.064,41.285
			C243.122,212.889,246.678,199.795,238.348,197.226z"/>
		<path d="M272.799,150.961c-12.557-20.932-35.313-5.085-50.751-27.315c-5.574,17.034,1.205,41.274,6.729,50.121
			c7.812,12.508,22.449,17.449,34.516,12.192C275.961,180.43,281.803,165.967,272.799,150.961z M260.417,148.742
			c2.978,0.862,7.156,3.778,9.141,6.757c1.992,2.978,2.139,6.905,0.336,8.774c-1.801,1.875-4.805,0.913-6.793-2.061
			C260.158,157.812,264.624,158.147,260.417,148.742z"/>
		<path d="M283.647,217.426c-2.114-9.931-13.195-6.772-16.266-17.586c-4.489,5.94-5.092,16.389-4.113,20.602
			c1.387,5.975,6.469,9.89,11.92,9.445C280.913,229.432,285.157,224.537,283.647,217.426z M280.714,222.266
			c-0.962,0.492-2.016-0.295-2.398-1.732c-0.565-2.125,1.146-1.386,0.763-5.66c1.055,0.746,2.3,2.457,2.684,3.901
			C282.145,220.205,281.672,221.772,280.714,222.266z"/>
	</g>
</g>
<g>
</g>
<g>
</g>
<g>
</g>
<g>
</g>
<g>
</g>
<g>
</g>
<g>
</g>
<g>
</g>
<g>
</g>
<g>
</g>
<g>
</g>
<g>
</g>
<g>
</g>
<g>
</g>
<g>
</g>
</svg>
