<?xml version="1.0" encoding="iso-8859-1"?>
<!-- Generator: Adobe Illustrator 16.0.0, SVG Export Plug-In . SVG Version: 6.00 Build 0)  -->
<!DOCTYPE svg PUBLIC "-//W3C//DTD SVG 1.1//EN" "http://www.w3.org/Graphics/SVG/1.1/DTD/svg11.dtd">
<svg version="1.1" id="Capa_1" xmlns="http://www.w3.org/2000/svg" xmlns:xlink="http://www.w3.org/1999/xlink" x="0px" y="0px"
	 width="317.769px" height="317.769px" viewBox="0 0 317.769 317.769" style="enable-background:new 0 0 317.769 317.769;"
	 xml:space="preserve">
<g>
	<g>
		<path d="M45.479,89.307c2.126,0.465,4.1,0.43,10.162-4.23c2.698-2.068,6.68-5.554,10.355-10.418l1.609-2.134
			c13.772-18.317,46.014-61.204,92.583-58.876c38.409,2.808,65.633,31.805,78.732,83.878c0.445,1.771,0.712,2.853,1.013,3.691
			c1.995,8.515,5.355,19.123,10.194,22.614c1.201,0.869,2.588,1.285,3.967,1.285c2.102,0,4.172-0.977,5.499-2.813
			c2.118-2.935,1.547-6.985-1.225-9.235c-1.342-1.728-3.856-8.981-5.353-15.458c-0.086-0.385-0.212-0.76-0.362-1.121
			c-0.13-0.441-0.37-1.405-0.589-2.271c-2.077-8.25-7.591-30.178-20.964-50.799C213.832,16.792,190.273,2.229,161.09,0.122
			c-0.043-0.003-0.088-0.007-0.144-0.007c-53.792-2.745-89.108,44.212-104.18,64.261l-1.588,2.11
			c-4.129,5.457-8.999,8.848-10.684,9.837c-0.568,0.221-1.116,0.525-1.631,0.914c-2.11,1.598-3.136,4.326-2.565,6.911
			C40.871,86.716,42.894,88.739,45.479,89.307z"/>
		<path d="M215.3,115.309c5.12-12.784,5.243-25.988,0.336-36.235c-4.367-9.136-12.519-15.754-23.565-19.137
			c-16.214-4.962-35.869,4.042-53.878,24.674c-0.224,0.253-25.858,27.214-52.778,43.696c-0.2,0.114-19.905,11.938-40.484,17.542
			c-3.607,0.985-5.744,4.714-4.757,8.323c0.985,3.616,4.71,5.75,8.323,4.762c22.389-6.094,43.058-18.496,43.962-19.042
			c29.205-17.882,55.686-46.065,55.91-46.324c10.93-12.523,27.109-24.53,39.733-20.668c7.423,2.278,12.573,6.324,15.301,12.034
			c3.274,6.826,3.019,16.063-0.694,25.336c-6.91,17.261-28.418,38.109-60.566,58.697c-16.127,10.332-56.728,35.68-85.396,47.938
			c-3.441,1.476-5.042,5.459-3.575,8.897c1.102,2.574,3.607,4.121,6.242,4.121c0.883,0,1.795-0.179,2.663-0.545
			c29.602-12.661,70.97-38.475,87.376-48.987C173.864,164.753,205.109,140.768,215.3,115.309z"/>
		<path d="M106.099,64.685c-3.073,3.393-5.836,7.031-8.816,10.506c-3.894,4.557-8.151,8.81-12.595,12.819
			c-4.572,4.127-8.266,7.082-13.666,10.176c-5.715,3.283-11.546,6.603-17.472,9.486c-2.033,0.992-3.785,1.641-6.078,2.327
			c-3.539,1.066-5.735,4.718-4.736,8.343c0.963,3.498,4.803,5.797,8.343,4.738c6.935-2.088,13.215-5.652,19.474-9.213
			c5.284-3.003,10.541-5.708,15.402-9.405c9.464-7.2,17.615-15.612,25.11-24.811c3.032-3.725,6.285-7.274,9.673-10.684
			c1.846-1.86,3.764-3.655,5.715-5.407c1.02-0.914,2.053-1.805,3.103-2.685c0.525-0.444,1.067-0.883,1.602-1.321
			c0.137-0.115,1.19-0.946,1.464-1.164c4.716-3.615,9.745-6.829,15.044-9.549c4.997-2.568,10.011-4.374,16.098-5.638
			c2.019-0.416,2.457-0.465,3.97-0.619c3.675-0.378,6.786-2.798,6.786-6.781c0-3.41-3.098-7.166-6.786-6.784
			C143.217,31.567,122.251,46.891,106.099,64.685z"/>
		<path d="M53.329,194.52c14.728-5.052,90.364-33.298,132.719-92.66c2.166-3.049,1.464-7.283-1.581-9.459
			c-3.053-2.177-7.289-1.465-9.459,1.581c-39.949,55.999-112.035,82.89-126.081,87.715c-0.301,0.103-0.486,0.168-0.553,0.195
			c-3.498,1.328-5.263,5.235-3.936,8.74c1.026,2.714,3.599,4.38,6.339,4.38c0.773,0,1.552-0.13,2.312-0.403L53.329,194.52z"/>
		<path d="M141.732,223.132c1.565-7.275,4.173-14.168,7.667-20.513c-8.151,4.562-18.618,11.362-31.792,20.051
			c-16.933,11.159-36.119,23.808-44.466,26.053c-3.612,0.979-5.758,4.702-4.782,8.312c0.812,3.028,3.552,5.023,6.542,5.023
			c0.582,0,1.177-0.075,1.766-0.232c10.458-2.819,28.89-14.965,48.405-27.829C130.401,230.476,136.173,226.671,141.732,223.132z"/>
		<path d="M140.576,248.402c-9.212,5.886-21.142,14.359-36.172,25.334c-3.612,2.642-6.742,4.918-8.904,6.454
			c-3.06,2.163-3.785,6.393-1.629,9.452c1.321,1.865,3.417,2.864,5.543,2.864c1.355,0,2.716-0.403,3.907-1.242
			c2.253-1.588,5.416-3.901,9.084-6.574c6.771-4.941,19.97-14.578,31.271-22.106C142.205,258.025,141.164,253.285,140.576,248.402z"
			/>
		<path d="M153.285,282.168c-11.84,4.034-28.314,20.591-31.718,24.102c-2.6,2.693-2.533,6.981,0.159,9.589
			c1.314,1.273,3.017,1.91,4.716,1.91c1.773,0,3.547-0.691,4.875-2.067c9.083-9.377,21.982-20.036,26.987-20.902
			c2.291-0.39,5.147,0.575,8.392,2.3C161.602,292.732,157.084,287.719,153.285,282.168z"/>
		<path d="M257.625,161.848c-5.653-2.389-11.56-4.898-16.316-8.854c-5.236-4.356-7.673-10.078-8.761-16.688
			c-1.424-8.61-14.489-4.943-13.079,3.607c1.926,11.663,8.274,19.759,16.84,25.81c6.975,1.91,13.565,4.777,19.603,8.47
			c1.643-0.346,3.121-1.311,4.147-3.069C261.746,168.248,261.034,163.286,257.625,161.848z"/>
		<path d="M198.531,160.678c-2.457,0.678-4.702,3.148-5.037,5.804c4.021-1.26,8.192-2.177,12.471-2.755
			C204.355,161.277,201.728,159.802,198.531,160.678z"/>
		<path d="M212.131,169.801c-36.227,0-65.704,29.479-65.704,65.706c0,36.233,29.477,65.705,65.704,65.705
			c36.234,0,65.706-29.472,65.706-65.705C277.837,199.284,248.361,169.801,212.131,169.801z M212.131,287.195
			c-28.499,0-51.687-23.185-51.687-51.688c0-28.5,23.188-51.688,51.687-51.688c28.5,0,51.688,23.188,51.688,51.688
			C263.819,264.01,240.627,287.195,212.131,287.195z"/>
		<path d="M233.314,246.006h-11.54v-45.269c0-1.711-1.386-3.101-3.101-3.101h-13.079c-1.714,0-3.101,1.39-3.101,3.101v45.271
			h-11.539c-1.249,0-2.389,0.753-2.864,1.913c-0.479,1.16-0.216,2.491,0.667,3.378l21.184,21.18
			c0.602,0.605,1.396,0.907,2.189,0.907c0.798,0,1.588-0.302,2.19-0.907l21.184-21.18c0.883-0.887,1.149-2.218,0.671-3.378
			C235.696,246.762,234.566,246.006,233.314,246.006z"/>
	</g>
</g>
<g>
</g>
<g>
</g>
<g>
</g>
<g>
</g>
<g>
</g>
<g>
</g>
<g>
</g>
<g>
</g>
<g>
</g>
<g>
</g>
<g>
</g>
<g>
</g>
<g>
</g>
<g>
</g>
<g>
</g>
</svg>
