<?xml version="1.0" encoding="iso-8859-1"?>
<!-- Generator: Adobe Illustrator 16.0.0, SVG Export Plug-In . SVG Version: 6.00 Build 0)  -->
<!DOCTYPE svg PUBLIC "-//W3C//DTD SVG 1.1//EN" "http://www.w3.org/Graphics/SVG/1.1/DTD/svg11.dtd">
<svg version="1.1" id="Capa_1" xmlns="http://www.w3.org/2000/svg" xmlns:xlink="http://www.w3.org/1999/xlink" x="0px" y="0px"
	 width="753.658px" height="753.658px" viewBox="0 0 753.658 753.658" style="enable-background:new 0 0 753.658 753.658;"
	 xml:space="preserve">
<g>
	<g>
		<path d="M672.523,173.331c-5.098-2.369-10.503-3.627-15.553-3.627c-7.321,0-13.401,2.561-17.22,7.177
			c-22.538,27.429-43.16,80.78-59.783,123.657c-7.634,19.815-17.893,46.34-24.822,58.799c-3.782-36.49,12.58-168.076,18.875-218.733
			l0.104-0.826c4.393-35.199,5.077-41.37,4.845-44.111c-1.687-19.61-8.539-32.877-20.346-39.417
			c-11.941-6.639-28.164-5.214-46.182,4.037c-9.044,4.661-12.695,22.546-25.852,103.898l-0.044,0.361
			c-7.262,44.687-23.912,147.612-36.716,164.04c-11.405-25.056-19.801-163.413-23.436-223.302
			c-2.529-41.95-4.056-66.022-5.667-73.394c-3.435-15.411-21.443-29.589-40.12-31.597c-15.545-1.859-28.907,5.212-35.971,18.621
			c-12.325,11.964-11.243,54.607-5.632,155.809c2.673,48.151,8.173,147.631-0.399,158.161
			c-15.438-2.799-37.872-66.441-66.615-189.21c-8.065-34.38-10.583-44.725-13.483-49.388c-5.228-15.879-25.85-29.274-45.17-29.274
			c-1.655,0-3.266,0.108-4.861,0.301c-10.211,1.294-33.843,8.995-31.933,52.307c9.399,60.506,21.101,105.247,32.412,148.702
			l0.23,0.861c6.775,26.008,13.187,50.602,18.841,77.776c13.321,64.165,3.699,102.74,3.586,103.186
			c-0.87,3.979-2.268,6.339-4.2,7.068c-0.689,0.245-1.561,0.396-2.527,0.396c-5.646,0-13.803-4.323-17.969-7.045
			c-8.606-19.74-51.609-113.891-95.447-129.61l-1.591-0.587l-1.625,0.038c-16.525,0.418-29.01,5.811-37.151,16.016
			c-12.864,16.142-9.538,38.083-8.668,42.495l0.537,1.595c0.323,0.689,31.597,68.868,35.021,99.817
			c2.974,26.541,25.74,56.652,44.062,80.85l0.755,0.994c5.965,7.914,11.117,14.768,15.118,21.039
			c53.543,64.571,141.356,121.878,142.094,122.338c10.794,9.254,16.57,17.85,16.747,24.955c0.106,4.628-2.468,7.205-2.561,7.297
			l-2.128,1.948l0.18,0.208h-0.855v15.701h255.229v-5.29l13.08-44.13c41.107-131.391,42.454-245.768,42.395-246.541
			c0.412-4.188,12.158-44.098,21.62-76.337l0.26-0.817c18.819-64.249,42.271-144.171,47.837-174.828
			C694.187,192.566,686.613,179.854,672.523,173.331z M674.31,202.537c-5.414,29.807-29.831,113.013-47.656,173.782
			c-15.425,52.589-21.784,74.579-22.293,80.481c0,1.103-0.481,110.581-41.697,242.233l-11.529,38.916H333.026
			c0.886-2.669,1.515-5.743,1.499-9.346c-0.062-12.604-8.062-25.804-23.951-39.328c-0.874-0.569-87.993-57.952-138.254-118.452
			c-4.017-6.42-10.15-14.539-16.085-22.357c-16.098-21.295-38.159-50.489-40.555-72.109c-3.587-32.26-32.366-96.166-36.047-104.181
			c-0.449-3.244-1.962-17.522,5.402-26.708c4.458-5.559,11.822-8.666,21.911-9.219c39.297,16.376,84.176,120.587,84.617,121.646
			l0.952,2.208l1.932,1.486c2.683,1.964,16.789,11.794,30.467,11.794c3.138,0,6.083-0.509,8.72-1.519
			c5.458-2.04,12.545-7.113,15.252-19.564c0.463-1.688,10.778-42.358-3.462-110.948c-5.672-27.457-12.238-52.542-19.146-79.115
			l-0.128-0.402c-11.161-42.728-22.722-86.917-31.934-145.967c-0.855-19.776,5.034-31.46,16.525-32.935
			c13.11-1.837,29.669,8.935,31.499,17.422l2.298,6.562c2.443,7.944,7.027,27.641,10.105,40.815
			c26.046,111.074,50.461,203.032,84.939,203.032c2.803,0,6.931-0.824,10.638-4.773c14.186-14.956,11.94-75.065,6.532-172.355
			c-2.637-47.117-5.965-132.866-0.675-141.284l2.144-4.42c3.25-6.995,11.312-10.135,17.723-10.135c0.936,0,1.841,0.066,2.703,0.167
			c10.95,1.176,22.957,9.82,24.696,17.781c1.366,6.1,3.146,35.47,5.229,69.447l0.061,1.142
			c11.777,194.362,19.58,241.816,39.621,241.816c22.771,0,33.902-45.234,55.855-181.122l0.116-0.575
			c5.366-33.288,13.477-83.349,17.08-90.7c11.777-5.907,22.478-7.354,28.665-3.945c7.891,4.358,10.475,16.058,11.248,24.996
			c0.017,2.427-2.416,21.927-4.753,40.786c-21.283,171.091-24.349,229.784-12.591,241.55c3.122,3.102,7.514,4.443,11.457,3.526
			c12.019-2.509,19.945-20.574,41.261-75.777c16.113-41.639,36.123-93.445,56.881-118.682c0.177-0.197,1.158-0.706,3.331-0.706
			c2.544,0,5.458,0.706,8.215,1.962C670.207,191.876,675.376,196.567,674.31,202.537z"/>
		<g>
			<path d="M216.394,16.412c-44.913,0-81.447,36.542-81.447,81.463c0,40.038,29.07,73.352,67.19,80.11
				c-1.869-5.596-2.913-11.163-3.653-16.909c-27.567-7.827-47.838-33.167-47.838-63.201c0-36.263,29.5-65.762,65.748-65.762
				c36.261,0,65.746,29.499,65.746,65.762c0,19.53-8.65,37.037-22.231,49.079c0.627,1.238,1.238,2.48,1.717,3.823
				c1.429,4.09,2.44,8.233,3.142,12.427c20.025-14.846,33.073-38.548,33.073-65.329C297.84,52.953,261.295,16.412,216.394,16.412z"
				/>
		</g>
	</g>
</g>
<g>
</g>
<g>
</g>
<g>
</g>
<g>
</g>
<g>
</g>
<g>
</g>
<g>
</g>
<g>
</g>
<g>
</g>
<g>
</g>
<g>
</g>
<g>
</g>
<g>
</g>
<g>
</g>
<g>
</g>
</svg>
