<?xml version="1.0" encoding="iso-8859-1"?>
<!-- Generator: Adobe Illustrator 16.0.0, SVG Export Plug-In . SVG Version: 6.00 Build 0)  -->
<!DOCTYPE svg PUBLIC "-//W3C//DTD SVG 1.1//EN" "http://www.w3.org/Graphics/SVG/1.1/DTD/svg11.dtd">
<svg version="1.1" id="Capa_1" xmlns="http://www.w3.org/2000/svg" xmlns:xlink="http://www.w3.org/1999/xlink" x="0px" y="0px"
	 width="361.39px" height="361.39px" viewBox="0 0 361.39 361.39" style="enable-background:new 0 0 361.39 361.39;"
	 xml:space="preserve">
<g>
	<g>
		<path d="M82.794,231.203c-0.021-0.007-0.036-0.007-0.063-0.014c-22.42-4.825-45.118,1.615-54.804,4.367l-1.02,0.287
			c-2.648,0.746-5.277,1.033-6.153,1.092c-0.274,0-0.553,0.014-0.84,0.048c-1.157,0.154-2.046,0.605-2.226,1.156
			c-0.178,0.555,0.357,1.116,1.364,1.431c0.827,0.267,1.672,0.418,5.01-0.021c1.487-0.195,3.75-0.562,6.105-1.235l1.034-0.287
			c8.848-2.519,29.572-8.395,48.997-4.23c15.872,3.614,22.708,11.492,19.768,22.799c-0.101,0.384-0.164,0.626-0.178,0.808
			c-0.541,1.834-0.842,4.195,0.643,5.264c0.365,0.267,0.892,0.458,1.48,0.567c0.89,0.171,1.93,0.144,2.792-0.116
			c1.384-0.403,1.809-1.242,0.993-1.909c-0.281-0.452-0.173-2.081,0.251-3.478c0.021-0.078,0.036-0.164,0.027-0.246
			c0.022-0.092,0.074-0.308,0.123-0.492c0.465-1.794,1.703-6.551-0.609-11.684C102.492,238.694,94.859,233.955,82.794,231.203z"/>
		<path d="M87.01,258.218c4.271-2.108,6.481-4.702,6.069-7.107c-0.365-2.146-2.751-4.107-6.894-5.65
			c-6.083-2.266-15.913-2.063-26.944,0.571c-0.137,0.031-15.439,3.306-29.586,4.411c-0.101,0.007-10.418,0.767-20.08,0.229
			c-1.688-0.093-3.21,0.473-3.381,1.256c-0.173,0.787,1.061,1.509,2.756,1.602c10.521,0.582,21.335-0.212,21.814-0.25
			c15.338-1.201,31.204-4.64,31.34-4.675c6.699-1.594,15.543-2.672,20.271-0.913c2.786,1.051,4.317,2.255,4.545,3.593
			c0.274,1.608-1.342,3.409-4.435,4.941c-5.765,2.848-18.317,5.243-35.36,6.742c-8.543,0.746-29.951,2.512-44.146,2.642
			c-1.711,0.014-3.039,0.671-2.979,1.472c0.049,0.589,0.862,1.099,1.983,1.301c0.375,0.075,0.796,0.109,1.22,0.103
			c14.662-0.13,36.472-1.923,45.166-2.69C61.31,264.662,78.515,262.427,87.01,258.218z"/>
		<path d="M48.852,239.55c-1.862,0.425-3.634,0.924-5.471,1.369c-2.397,0.588-4.898,1.092-7.446,1.522
			c-2.622,0.452-4.675,0.739-7.474,0.917c-2.972,0.192-5.989,0.384-8.985,0.479c-1.026,0.034-1.875,0.021-2.965-0.021
			c-1.679-0.075-3.21,0.465-3.381,1.26c-0.159,0.766,1.097,1.525,2.779,1.602c3.287,0.137,6.541-0.065,9.78-0.268
			c2.743-0.171,5.421-0.287,8.092-0.623c5.2-0.663,10.039-1.68,14.734-2.895c1.896-0.486,3.862-0.931,5.861-1.328
			c1.09-0.226,2.197-0.424,3.311-0.616c0.582-0.096,1.17-0.188,1.759-0.28c0.294-0.052,0.595-0.089,0.896-0.13
			c0.074-0.014,0.662-0.089,0.814-0.116c2.592-0.336,5.263-0.568,7.953-0.678c2.555-0.109,4.978-0.068,7.77,0.171
			c0.933,0.075,1.121,0.103,1.793,0.191c1.624,0.223,3.34-0.014,3.999-0.794c0.555-0.67-0.15-1.656-1.779-1.875
			C70.048,235.98,58.632,237.329,48.852,239.55z"/>
		<path d="M5.191,260.925c7.089,0.182,43.867,0.64,71.578-7.683c1.423-0.425,1.815-1.314,0.876-1.985
			c-0.946-0.67-2.859-0.876-4.285-0.444c-26.138,7.851-61.188,7.412-67.952,7.241c-0.144,0-0.231-0.007-0.267-0.007
			c-1.703-0.014-3.094,0.616-3.107,1.406c-0.007,0.619,0.819,1.149,1.99,1.372c0.322,0.062,0.676,0.093,1.041,0.106L5.191,260.925z"
			/>
		<path d="M77.043,283.583c-3.483-1.372-7.029-3.901-10.463-6.349c-4.976-3.549-9.262-6.607-14.407-7.125
			c-3.86-0.38-11.738,0.302-24.256,1.489c-9.019,0.845-19.245,1.813-23.167,1.584c-1.689-0.085-3.217,0.476-3.396,1.26
			c-0.144,0.66,0.698,1.27,1.966,1.513c0.247,0.044,0.512,0.071,0.789,0.096c4.913,0.271,14.736-0.653,25.139-1.633
			c8.396-0.794,18.851-1.779,21.724-1.491c2.614,0.267,6.959,3.367,10.456,5.852c3.691,2.628,7.497,5.346,11.697,6.988
			c1.314,0.513,3.266,0.444,4.353-0.165C78.551,285.003,78.364,284.093,77.043,283.583z"/>
		<path d="M64.403,288.768c-2.003-0.818-4.889-2.614-7.671-4.347c-5.881-3.654-9.679-5.916-13.428-6.289
			c-3.806-0.381-13.25,0.574-29.342,2.478c-1.973,0.222-3.675,0.424-4.846,0.561c-1.651,0.179-2.657,0.948-2.24,1.731
			c0.26,0.473,0.985,0.832,1.889,1.003c0.575,0.103,1.227,0.137,1.867,0.065c1.22-0.13,2.945-0.336,4.935-0.575
			c6.406-0.753,23.423-2.758,26.503-2.446c1.839,0.276,6.792,3.354,9.747,5.184c3.114,1.931,6.059,3.755,8.543,4.781
			c1.285,0.534,3.237,0.482,4.351-0.113C65.834,290.212,65.69,289.298,64.403,288.768z"/>
		<path d="M49.146,293.586c-1.213-0.798-2.284-1.561-3.333-2.313c-3.434-2.44-6.397-4.565-11.182-5.041
			c-5.378-0.541-16.516,1.701-18.692,2.146c-1.545,0.332-2.218,1.181-1.506,1.913c0.356,0.35,0.97,0.616,1.696,0.746
			c0.753,0.144,1.622,0.15,2.411-0.023c5.394-1.119,12.623-2.197,14.894-1.965c2.247,0.223,4.558,1.865,7.229,3.774
			c1.027,0.732,2.197,1.567,3.482,2.413c0.999,0.653,2.931,0.814,4.312,0.359C49.835,295.136,50.145,294.239,49.146,293.586z"/>
		<path d="M97.403,270.757c-2.019-0.924-4.113-1.883-5.494-3.046c-1.515-1.27-1.615-2.591-0.993-3.983
			c0.803-1.807-5.357-2.125-6.153-0.328c-1.645,3.695,2.305,6.598,7.814,9.123c1.213,0.555,2.902,0.783,4.337,0.253
			C98.105,272.352,98.617,271.317,97.403,270.757z"/>
		<path d="M86.021,276.688c-1.91-0.719-3.224-1.414-4.997-2.471c-3.246-1.938-5.688-4.315-5.791-6.794
			c-0.027-0.779-0.946-1.498-2.771-1.594c-1.528-0.082-3.409,0.479-3.375,1.266c0.18,4.565,5.607,9.011,13.264,11.882
			C85.496,280.15,89.144,277.851,86.021,276.688z"/>
		<path d="M247.446,189.069c-0.014-0.007-0.034-0.01-0.055-0.014c-22.429-4.828-45.118,1.612-54.803,4.363l-1.02,0.288
			c-2.648,0.745-5.277,1.029-6.153,1.091c-0.28-0.006-0.562,0.014-0.842,0.049c-1.156,0.144-2.046,0.605-2.225,1.156
			c-0.181,0.555,0.35,1.112,1.355,1.431c0.828,0.26,1.67,0.41,5.017-0.024c1.485-0.195,3.744-0.564,6.105-1.229l1.033-0.291
			c8.85-2.515,29.571-8.395,48.999-4.229c15.868,3.61,22.702,11.495,19.759,22.795c-0.096,0.384-0.164,0.623-0.171,0.808
			c-0.54,1.838-0.849,4.192,0.637,5.271c0.37,0.26,0.896,0.458,1.479,0.567c0.89,0.165,1.94,0.138,2.8-0.116
			c1.386-0.41,1.803-1.252,0.985-1.916c-0.281-0.445-0.165-2.074,0.253-3.47c0.027-0.082,0.034-0.172,0.027-0.25
			c0.021-0.1,0.075-0.312,0.123-0.496c0.473-1.794,1.704-6.551-0.609-11.677C267.151,196.551,259.513,191.808,247.446,189.069z"/>
		<path d="M251.669,216.081c4.265-2.111,6.485-4.706,6.071-7.115c-0.37-2.143-2.752-4.1-6.899-5.646
			c-6.077-2.266-15.913-2.06-26.942,0.575c-0.137,0.03-15.448,3.299-29.588,4.407c-0.1,0.004-10.417,0.764-20.08,0.233
			c-1.696-0.1-3.21,0.465-3.388,1.256c-0.171,0.79,1.061,1.509,2.765,1.598c10.514,0.585,21.335-0.212,21.808-0.246
			c15.338-1.198,31.21-4.641,31.347-4.678c6.693-1.592,15.537-2.673,20.273-0.907c2.785,1.04,4.308,2.252,4.544,3.586
			c0.274,1.609-1.352,3.409-4.445,4.942c-5.756,2.847-18.315,5.242-35.357,6.741c-8.542,0.75-29.953,2.512-44.148,2.642
			c-1.703,0.018-3.032,0.671-2.972,1.472c0.05,0.592,0.862,1.096,1.977,1.301c0.375,0.075,0.795,0.109,1.227,0.109
			c14.664-0.137,36.467-1.93,45.162-2.696C225.969,222.524,243.176,220.286,251.669,216.081z"/>
		<path d="M213.512,197.406c-1.868,0.428-3.634,0.924-5.472,1.368c-2.402,0.589-4.904,1.092-7.453,1.53
			c-2.611,0.448-4.675,0.735-7.475,0.913c-2.963,0.192-5.988,0.384-8.979,0.479c-1.026,0.038-1.882,0.024-2.974-0.021
			c-1.672-0.075-3.203,0.473-3.375,1.26c-0.164,0.773,1.097,1.526,2.772,1.598c3.289,0.144,6.543-0.064,9.787-0.264
			c2.738-0.171,5.414-0.287,8.087-0.626c5.205-0.66,10.044-1.673,14.736-2.888c1.902-0.493,3.859-0.935,5.858-1.335
			c1.095-0.223,2.204-0.421,3.315-0.609c0.582-0.1,1.164-0.195,1.753-0.284c0.301-0.048,0.605-0.082,0.906-0.133
			c0.072-0.011,0.657-0.086,0.805-0.113c2.601-0.336,5.263-0.568,7.96-0.678c2.546-0.109,4.976-0.065,7.768,0.171
			c0.932,0.075,1.123,0.103,1.787,0.195c1.629,0.216,3.347-0.014,3.997-0.798c0.554-0.67-0.15-1.659-1.779-1.875
			C234.709,193.84,223.286,195.188,213.512,197.406z"/>
		<path d="M169.844,218.788c7.089,0.174,43.874,0.636,71.586-7.69c1.424-0.428,1.817-1.313,0.876-1.988
			c-0.944-0.667-2.857-0.869-4.284-0.438c-26.146,7.851-61.19,7.405-67.954,7.237c-0.151,0-0.238-0.006-0.265-0.006
			c-1.704-0.015-3.103,0.615-3.109,1.406c-0.007,0.619,0.82,1.149,1.983,1.372c0.33,0.058,0.678,0.093,1.049,0.106H169.844z"/>
		<path d="M241.704,241.436c-3.484-1.369-7.036-3.895-10.465-6.345c-4.977-3.545-9.268-6.604-14.404-7.118
			c-3.863-0.387-11.741,0.302-24.256,1.479c-9.021,0.849-19.255,1.817-23.17,1.595c-1.696-0.096-3.217,0.469-3.395,1.256
			c-0.15,0.66,0.69,1.27,1.966,1.509c0.245,0.048,0.512,0.079,0.789,0.093c4.906,0.277,14.734-0.653,25.134-1.629
			c8.401-0.797,18.855-1.776,21.728-1.485c2.607,0.257,6.96,3.36,10.458,5.853c3.682,2.624,7.494,5.335,11.689,6.984
			c1.321,0.513,3.269,0.444,4.354-0.164C243.21,242.859,243.018,241.956,241.704,241.436z"/>
		<path d="M229.056,246.63c-1.995-0.828-4.88-2.614-7.666-4.346c-5.886-3.654-9.678-5.913-13.436-6.29
			c-3.798-0.383-13.243,0.575-29.343,2.471c-1.973,0.233-3.669,0.432-4.846,0.562c-1.651,0.185-2.649,0.958-2.233,1.731
			c0.253,0.473,0.979,0.839,1.882,1.006c0.582,0.11,1.227,0.138,1.869,0.069c1.227-0.138,2.943-0.34,4.933-0.575
			c6.408-0.753,23.43-2.759,26.503-2.45c1.849,0.28,6.797,3.347,9.747,5.181c3.124,1.938,6.061,3.761,8.545,4.784
			c1.283,0.534,3.244,0.486,4.359-0.109C230.486,248.067,230.349,247.161,229.056,246.63z"/>
		<path d="M213.807,251.448c-1.212-0.793-2.293-1.566-3.34-2.312c-3.43-2.451-6.393-4.569-11.174-5.041
			c-5.38-0.541-16.519,1.693-18.693,2.146c-1.554,0.328-2.227,1.181-1.508,1.902c0.357,0.356,0.971,0.62,1.689,0.757
			c0.759,0.141,1.623,0.144,2.414-0.024c5.394-1.122,12.624-2.196,14.894-1.968c2.248,0.223,4.555,1.872,7.224,3.775
			c1.026,0.735,2.197,1.566,3.483,2.409c1.007,0.656,2.937,0.811,4.315,0.358C214.494,252.995,214.806,252.099,213.807,251.448z"/>
		<path d="M262.059,228.619c-2.009-0.92-4.113-1.886-5.485-3.042c-1.516-1.273-1.615-2.594-0.999-3.983
			c0.804-1.813-5.353-2.132-6.153-0.335c-1.636,3.695,2.307,6.604,7.812,9.123c1.215,0.555,2.902,0.787,4.347,0.257
			C262.764,230.207,263.273,229.178,262.059,228.619z"/>
		<path d="M250.677,234.543c-1.909-0.719-3.224-1.413-4.996-2.471c-3.237-1.937-5.688-4.315-5.78-6.793
			c-0.038-0.783-0.951-1.499-2.772-1.595c-1.536-0.085-3.411,0.482-3.381,1.267c0.178,4.568,5.605,9.011,13.261,11.885
			C250.156,238.007,253.805,235.714,250.677,234.543z"/>
		<path d="M103.543,125.149c0.826,0.258,1.671,0.409,5.019-0.022c1.485-0.198,3.742-0.56,6.103-1.232l1.036-0.288
			c8.848-2.52,29.569-8.398,48.99-4.229c15.871,3.612,22.708,11.49,19.768,22.798c-0.096,0.382-0.164,0.616-0.171,0.806
			c-0.541,1.833-0.849,4.188,0.636,5.264c0.37,0.267,0.891,0.458,1.479,0.568c0.891,0.171,1.94,0.144,2.8-0.116
			c1.386-0.402,1.804-1.251,0.985-1.917c-0.28-0.445-0.171-2.076,0.254-3.47c0.027-0.081,0.033-0.164,0.027-0.245
			c0.02-0.101,0.075-0.308,0.123-0.501c0.465-1.793,1.704-6.549-0.609-11.677c-2.994-6.618-10.631-11.367-22.699-14.104
			c-0.014-0.007-0.034-0.007-0.057-0.014c-22.427-4.825-45.118,1.615-54.802,4.367l-1.027,0.288
			c-2.65,0.746-5.279,1.026-6.155,1.088c-0.272,0-0.553,0.016-0.84,0.05c-1.15,0.15-2.04,0.604-2.226,1.157
			C102.011,124.272,102.537,124.832,103.543,125.149z"/>
		<path d="M171.509,143.798c4.264-2.117,6.483-4.709,6.062-7.116c-0.364-2.143-2.751-4.102-6.892-5.646
			c-6.078-2.264-15.913-2.061-26.944,0.575c-0.137,0.029-15.441,3.297-29.588,4.41c-0.094,0.007-10.41,0.767-20.08,0.23
			c-1.689-0.096-3.21,0.466-3.381,1.258c-0.171,0.789,1.062,1.508,2.758,1.602c10.52,0.582,21.341-0.214,21.814-0.253
			c15.338-1.198,31.208-4.639,31.345-4.675c6.694-1.595,15.539-2.676,20.273-0.91c2.786,1.04,4.311,2.253,4.545,3.591
			c0.267,1.602-1.35,3.41-4.444,4.935c-5.758,2.852-18.317,5.25-35.358,6.741c-8.543,0.753-29.952,2.514-44.147,2.642
			c-1.703,0.022-3.032,0.676-2.972,1.472c0.043,0.597,0.862,1.097,1.977,1.307c0.375,0.074,0.795,0.109,1.227,0.103
			c14.662-0.13,36.467-1.925,45.161-2.691C145.808,150.238,163.008,148,171.509,143.798z"/>
		<path d="M133.35,125.12c-1.867,0.431-3.632,0.933-5.47,1.377c-2.402,0.589-4.906,1.083-7.454,1.521
			c-2.621,0.451-4.674,0.739-7.474,0.917c-2.972,0.193-5.989,0.383-8.981,0.48c-1.034,0.036-1.882,0.021-2.972-0.027
			c-1.679-0.073-3.21,0.473-3.375,1.265c-0.164,0.769,1.097,1.528,2.772,1.602c3.287,0.137,6.543-0.063,9.788-0.267
			c2.737-0.171,5.414-0.288,8.084-0.63c5.207-0.662,10.046-1.672,14.736-2.889c1.903-0.494,3.862-0.932,5.859-1.328
			c1.097-0.224,2.197-0.424,3.318-0.616c0.582-0.096,1.164-0.193,1.752-0.281c0.294-0.05,0.597-0.089,0.898-0.13
			c0.081-0.014,0.662-0.094,0.813-0.117c2.599-0.335,5.263-0.568,7.958-0.676c2.548-0.115,4.969-0.07,7.768,0.164
			c0.926,0.081,1.114,0.11,1.788,0.2c1.622,0.214,3.347-0.014,3.997-0.802c0.555-0.669-0.15-1.658-1.779-1.875
			C154.548,121.552,143.124,122.902,133.35,125.12z"/>
		<path d="M89.683,146.5c7.089,0.18,43.867,0.638,71.586-7.684c1.422-0.432,1.815-1.314,0.869-1.983
			c-0.939-0.678-2.853-0.876-4.279-0.445c-26.146,7.849-61.195,7.404-67.952,7.24c-0.151,0-0.238-0.007-0.265-0.007
			c-1.711-0.014-3.103,0.616-3.109,1.408c-0.007,0.616,0.813,1.149,1.983,1.37c0.323,0.063,0.677,0.094,1.049,0.101H89.683z"/>
		<path d="M87.816,161.533c0.245,0.043,0.511,0.074,0.787,0.087c4.907,0.281,14.735-0.645,25.134-1.622
			c8.403-0.796,18.849-1.78,21.729-1.492c2.608,0.265,6.96,3.36,10.458,5.852c3.682,2.628,7.495,5.337,11.69,6.986
			c1.321,0.512,3.265,0.446,4.351-0.165c1.083-0.602,0.892-1.514-0.423-2.033c-3.483-1.362-7.038-3.893-10.472-6.339
			c-4.969-3.545-9.262-6.605-14.398-7.124c-3.862-0.381-11.74,0.301-24.256,1.485c-9.028,0.849-19.253,1.815-23.168,1.588
			c-1.696-0.087-3.217,0.474-3.395,1.258C85.703,160.681,86.543,161.292,87.816,161.533z"/>
		<path d="M149.211,176.377c1.114-0.589,0.97-1.499-0.316-2.033c-1.997-0.82-4.889-2.613-7.667-4.345
			c-5.886-3.655-9.685-5.915-13.436-6.29c-3.798-0.382-13.242,0.575-29.341,2.471c-1.973,0.231-3.675,0.431-4.846,0.56
			c-1.651,0.187-2.655,0.958-2.233,1.731c0.253,0.472,0.979,0.842,1.882,1.006c0.582,0.108,1.227,0.144,1.869,0.07
			c1.218-0.137,2.943-0.337,4.933-0.575c6.406-0.753,23.43-2.758,26.503-2.451c1.841,0.281,6.794,3.347,9.746,5.183
			c3.123,1.938,6.059,3.764,8.543,4.784C146.138,177.019,148.085,176.972,149.211,176.377z"/>
		<path d="M130.306,176.851c-3.431-2.45-6.399-4.566-11.175-5.042c-5.38-0.541-16.524,1.696-18.701,2.147
			c-1.545,0.331-2.217,1.177-1.499,1.91c0.351,0.351,0.97,0.611,1.689,0.748c0.753,0.144,1.622,0.151,2.411-0.022
			c5.4-1.121,12.629-2.197,14.9-1.966c2.24,0.224,4.553,1.869,7.223,3.771c1.026,0.739,2.197,1.567,3.483,2.413
			c1,0.653,2.937,0.808,4.317,0.359c1.377-0.452,1.689-1.358,0.689-2.006C132.429,178.368,131.353,177.593,130.306,176.851z"/>
		<path d="M181.898,156.337c-2.011-0.926-4.114-1.882-5.488-3.046c-1.514-1.271-1.615-2.592-0.998-3.983
			c0.803-1.815-5.352-2.129-6.155-0.33c-1.643,3.69,2.307,6.598,7.815,9.125c1.213,0.547,2.901,0.782,4.346,0.253
			C182.604,157.925,183.113,156.889,181.898,156.337z"/>
		<path d="M170.516,162.262c-1.91-0.719-3.224-1.415-4.997-2.471c-3.244-1.937-5.688-4.317-5.782-6.794
			c-0.036-0.782-0.95-1.499-2.779-1.595c-1.528-0.081-3.403,0.481-3.374,1.266c0.178,4.565,5.605,9.012,13.263,11.882
			C169.987,165.727,173.635,163.429,170.516,162.262z"/>
		<path d="M273.592,75.657c0.828,0.259,1.673,0.409,5.021-0.022c1.484-0.199,3.74-0.56,6.104-1.232l1.034-0.288
			c8.846-2.52,29.567-8.396,48.994-4.23c15.865,3.612,22.707,11.49,19.764,22.799c-0.096,0.381-0.168,0.616-0.175,0.806
			c-0.537,1.833-0.845,4.187,0.64,5.264c0.366,0.267,0.891,0.458,1.479,0.568c0.89,0.171,1.938,0.144,2.8-0.116
			c1.386-0.402,1.8-1.244,0.985-1.91c-0.28-0.452-0.171-2.081,0.253-3.475c0.027-0.083,0.034-0.166,0.027-0.247
			c0.021-0.094,0.072-0.308,0.124-0.495c0.465-1.8,1.7-6.555-0.613-11.683c-2.991-6.619-10.626-11.367-22.695-14.104
			c-0.014-0.007-0.034-0.007-0.055-0.014c-22.43-4.825-45.118,1.615-54.807,4.367l-1.026,0.288c-2.648,0.746-5.271,1.026-6.153,1.09
			c-0.273,0-0.554,0.014-0.842,0.048c-1.149,0.15-2.039,0.604-2.217,1.157C272.055,74.781,272.589,75.341,273.592,75.657z"/>
		<path d="M302.913,101.883c12.942-1.136,30.146-3.375,38.643-7.577c4.264-2.11,6.481-4.709,6.061-7.109
			c-0.362-2.149-2.748-4.108-6.893-5.654c-6.074-2.264-15.912-2.06-26.942,0.575c-0.137,0.029-15.44,3.297-29.588,4.409
			c-0.096,0.007-10.41,0.767-20.078,0.231c-1.69-0.094-3.21,0.466-3.384,1.258c-0.172,0.789,1.064,1.507,2.758,1.602
			c10.52,0.582,21.341-0.221,21.816-0.253c15.338-1.198,31.207-4.639,31.344-4.675c6.693-1.593,15.54-2.676,20.272-0.91
			c2.786,1.04,4.312,2.253,4.545,3.591c0.267,1.602-1.349,3.41-4.442,4.941c-5.759,2.849-18.318,5.243-35.351,6.735
			c-8.549,0.755-29.951,2.514-44.156,2.642c-1.7,0.022-3.028,0.677-2.971,1.473c0.041,0.596,0.862,1.1,1.979,1.306
			c0.373,0.073,0.794,0.109,1.225,0.103C272.407,104.441,294.224,102.65,302.913,101.883z"/>
		<path d="M303.402,75.635c-1.869,0.424-3.642,0.926-5.473,1.371c-2.402,0.589-4.903,1.083-7.453,1.521
			c-2.621,0.452-4.675,0.739-7.474,0.919c-2.964,0.192-5.989,0.381-8.983,0.479c-1.034,0.036-1.882,0.022-2.971-0.027
			c-1.677-0.07-3.21,0.473-3.374,1.265c-0.164,0.768,1.095,1.528,2.771,1.602c3.285,0.137,6.543-0.063,9.788-0.267
			c2.737-0.171,5.413-0.288,8.083-0.623c5.201-0.669,10.047-1.679,14.735-2.896c1.903-0.486,3.864-0.931,5.859-1.328
			c1.099-0.224,2.196-0.424,3.319-0.616c0.582-0.096,1.163-0.193,1.752-0.281c0.301-0.05,0.603-0.089,0.903-0.13
			c0.075-0.014,0.66-0.087,0.808-0.116c2.601-0.335,5.264-0.566,7.957-0.676c2.549-0.115,4.969-0.07,7.768,0.164
			c0.928,0.081,1.116,0.11,1.79,0.2c1.629,0.221,3.347-0.014,3.997-0.802c0.555-0.662-0.15-1.658-1.779-1.874
			C324.599,72.062,313.176,73.418,303.402,75.635z"/>
		<path d="M259.735,97.008c7.087,0.18,43.865,0.638,71.585-7.685c1.423-0.424,1.813-1.314,0.869-1.983
			c-0.941-0.676-2.854-0.876-4.281-0.445c-26.146,7.849-61.188,7.411-67.95,7.24c-0.15,0-0.24-0.007-0.268-0.007
			c-1.707-0.014-3.1,0.616-3.107,1.408c-0.007,0.617,0.814,1.149,1.985,1.37c0.321,0.057,0.674,0.094,1.047,0.108L259.735,97.008z"
			/>
		<path d="M306.718,106.193c-3.867-0.381-11.737,0.301-24.256,1.485c-9.027,0.849-19.253,1.815-23.165,1.588
			c-1.697-0.087-3.22,0.474-3.397,1.258c-0.151,0.662,0.691,1.273,1.967,1.514c0.243,0.042,0.511,0.074,0.787,0.087
			c4.908,0.28,14.736-0.644,25.133-1.622c8.405-0.796,18.85-1.78,21.73-1.492c2.608,0.265,6.961,3.367,10.458,5.852
			c3.683,2.628,7.495,5.344,11.69,6.988c1.321,0.51,3.265,0.445,4.354-0.166c1.081-0.603,0.89-1.514-0.425-2.024
			c-3.483-1.37-7.039-3.901-10.472-6.348C316.149,109.775,311.861,106.715,306.718,106.193z"/>
		<path d="M319.257,126.886c1.115-0.589,0.972-1.499-0.314-2.031c-1.999-0.821-4.887-2.614-7.666-4.346
			c-5.89-3.655-9.682-5.915-13.438-6.29c-3.799-0.381-13.24,0.575-29.339,2.478c-1.975,0.224-3.672,0.424-4.849,0.553
			c-1.649,0.186-2.655,0.958-2.231,1.731c0.253,0.48,0.979,0.842,1.889,1.013c0.575,0.101,1.219,0.13,1.862,0.063
			c1.218-0.13,2.942-0.337,4.935-0.575c6.402-0.753,23.421-2.758,26.501-2.448c1.841,0.279,6.797,3.345,9.746,5.185
			c3.114,1.932,6.058,3.757,8.542,4.777C316.184,127.534,318.135,127.482,319.257,126.886z"/>
		<path d="M300.356,127.359c-3.433-2.441-6.393-4.567-11.177-5.042c-5.38-0.541-16.522,1.696-18.699,2.147
			c-1.543,0.33-2.217,1.177-1.499,1.911c0.35,0.349,0.969,0.616,1.688,0.746c0.756,0.144,1.626,0.151,2.413-0.022
			c5.399-1.121,12.628-2.197,14.899-1.966c2.245,0.226,4.552,1.869,7.221,3.778c1.027,0.732,2.197,1.567,3.484,2.411
			c0.999,0.652,2.936,0.813,4.318,0.357c1.376-0.451,1.688-1.355,0.691-2.003C302.481,128.877,301.4,128.102,300.356,127.359z"/>
		<path d="M351.945,106.845c-2.013-0.925-4.113-1.882-5.489-3.045c-1.52-1.271-1.622-2.592-0.996-3.983
			c0.801-1.809-5.352-2.129-6.156-0.331c-1.636,3.691,2.307,6.6,7.823,9.125c1.204,0.547,2.896,0.782,4.339,0.253
			C352.65,108.433,353.157,107.4,351.945,106.845z"/>
		<path d="M336.895,115.059c3.139,1.179,6.79-1.121,3.669-2.284c-1.91-0.719-3.224-1.415-4.996-2.471
			c-3.245-1.938-5.688-4.317-5.784-6.795c-0.034-0.78-0.948-1.499-2.778-1.595c-1.526-0.081-3.402,0.481-3.375,1.266
			C323.809,107.742,329.239,112.189,336.895,115.059z"/>
	</g>
</g>
<g>
</g>
<g>
</g>
<g>
</g>
<g>
</g>
<g>
</g>
<g>
</g>
<g>
</g>
<g>
</g>
<g>
</g>
<g>
</g>
<g>
</g>
<g>
</g>
<g>
</g>
<g>
</g>
<g>
</g>
</svg>
