<?xml version="1.0" encoding="iso-8859-1"?>
<!-- Generator: Adobe Illustrator 16.0.0, SVG Export Plug-In . SVG Version: 6.00 Build 0)  -->
<!DOCTYPE svg PUBLIC "-//W3C//DTD SVG 1.1//EN" "http://www.w3.org/Graphics/SVG/1.1/DTD/svg11.dtd">
<svg version="1.1" id="Capa_1" xmlns="http://www.w3.org/2000/svg" xmlns:xlink="http://www.w3.org/1999/xlink" x="0px" y="0px"
	 width="317.772px" height="317.772px" viewBox="0 0 317.772 317.772" style="enable-background:new 0 0 317.772 317.772;"
	 xml:space="preserve">
<g>
	<g>
		<path d="M53.931,89.307c2.127,0.465,4.1,0.438,10.169-4.223c2.691-2.068,6.673-5.557,10.355-10.418l1.608-2.134
			c13.772-18.324,46.016-61.21,92.581-58.876c38.404,2.801,65.627,31.805,78.728,83.878c0.444,1.766,0.719,2.853,1.013,3.691
			c2.002,8.515,5.355,19.123,10.194,22.612c1.201,0.87,2.587,1.28,3.967,1.28c2.101,0,4.171-0.97,5.499-2.815
			c2.118-2.929,1.554-6.979-1.225-9.226c-1.335-1.731-3.857-8.981-5.353-15.461c-0.086-0.381-0.212-0.76-0.363-1.121
			c-0.123-0.438-0.369-1.401-0.588-2.271c-2.077-8.253-7.591-30.175-20.965-50.799c-17.268-26.626-40.815-41.196-70.003-43.295
			c-0.052-0.007-0.096-0.007-0.145-0.014C115.606-2.629,80.297,44.328,65.222,64.383l-1.588,2.103
			c-4.129,5.463-8.999,8.855-10.677,9.844c-0.575,0.221-1.123,0.525-1.63,0.91c-2.108,1.602-3.14,4.324-2.572,6.907
			C49.326,86.727,51.352,88.746,53.931,89.307z"/>
		<path d="M56.947,158.933c22.39-6.09,43.064-18.492,43.97-19.043c4.237-2.592,8.403-5.421,12.457-8.33
			c1.795-15.877,11.476-28.738,26.455-35.652v-3.525c0-0.358,0.081-0.691,0.101-1.049c-9.392,9.112-27.41,25.55-46.064,36.968
			c-0.2,0.122-19.905,11.941-40.478,17.549c-3.614,0.985-5.751,4.708-4.764,8.323C49.614,157.79,53.335,159.928,56.947,158.933z"/>
		<path d="M112.558,200.173l2.738-9.538c-16.454,9.647-34.935,19.787-50.103,26.269c-3.441,1.472-5.039,5.466-3.567,8.904
			c1.097,2.574,3.6,4.117,6.235,4.117c0.89,0,1.793-0.175,2.662-0.548c12.689-5.42,27.526-13.264,41.649-21.278
			C111.709,205.508,111.801,202.815,112.558,200.173z"/>
		<path d="M223.752,115.315c5.119-12.784,5.243-25.995,0.342-36.235c-4.373-9.136-12.524-15.754-23.571-19.144
			c-13.408-4.1-29.171,1.377-44.413,15.057c0.416-0.034,0.813-0.128,1.241-0.128h13.639c2.378,0,4.634,0.486,6.693,1.341
			c6.479-3.461,13.056-5.079,18.874-3.297c7.422,2.271,12.579,6.317,15.307,12.027c3.269,6.829,3.012,16.07-0.694,25.343
			c-0.007,0.014-0.021,0.027-0.021,0.041c0.451,2.594,0.394,5.306-0.391,7.965l-4.489,15.304c-1.424,4.861-4.888,8.862-9.486,10.978
			c1.229,0.912,2.443,1.889,3.634,2.938C210.683,137.452,219.262,126.525,223.752,115.315z"/>
		<path d="M176.177,42.595c3.676-0.383,6.783-2.801,6.783-6.785c0-3.41-3.094-7.159-6.783-6.777
			c-24.507,2.541-45.466,17.863-61.626,35.659c-3.073,3.39-5.838,7.031-8.809,10.5c-3.895,4.558-8.158,8.81-12.602,12.826
			c-4.572,4.127-8.266,7.079-13.66,10.176c-5.722,3.28-11.546,6.6-17.472,9.486c-2.04,0.992-3.792,1.637-6.084,2.327
			c-3.539,1.063-5.729,4.718-4.738,8.343c0.965,3.498,4.805,5.797,8.345,4.738c6.935-2.088,13.214-5.652,19.474-9.213
			c5.291-3.003,10.54-5.715,15.4-9.412c9.465-7.202,17.617-15.605,25.112-24.811c3.039-3.725,6.285-7.274,9.673-10.677
			c1.853-1.86,3.762-3.655,5.722-5.414c1.013-0.912,2.046-1.802,3.095-2.678c0.525-0.452,1.068-0.89,1.602-1.328
			c0.144-0.109,1.198-0.946,1.465-1.157c4.722-3.621,9.751-6.837,15.043-9.556c4.997-2.565,10.017-4.367,16.104-5.631
			C174.227,42.793,174.672,42.752,176.177,42.595z"/>
		<path d="M61.781,194.527c7.905-2.707,33.325-12.102,61.727-29.376c-2.886-3.244-5.414-7.009-7.253-11.411
			c-27.05,16.407-51.331,25.373-58.876,27.961c-0.301,0.103-0.486,0.171-0.546,0.201c-3.504,1.321-5.27,5.236-3.942,8.74
			c1.026,2.707,3.605,4.381,6.346,4.381c0.767,0,1.545-0.13,2.312-0.411L61.781,194.527z"/>
		<path d="M246.29,234.894c-9.397-3.138-20.896-11.327-32.018-19.246c-2.799-1.991-5.523-3.929-8.192-5.776
			c-2.823,3.606-6.215,6.81-10.096,9.537c3.525,2.382,7.088,4.918,10.424,7.286c11.93,8.504,24.271,17.292,35.598,21.063
			c3.552,1.19,7.389-0.732,8.576-4.288C251.759,239.918,249.843,236.079,246.29,234.894z"/>
		<path d="M139.02,230.384c-0.07-0.641-0.193-1.26-0.193-1.917v-0.924c-4.749-1.149-9.165-2.744-13.127-4.63
			c-16.846,11.102-35.816,23.589-44.105,25.82c-3.621,0.972-5.765,4.698-4.791,8.309c0.821,3.025,3.554,5.027,6.543,5.027
			c0.589,0,1.177-0.075,1.766-0.239c10.465-2.813,28.896-14.962,48.408-27.829C135.312,232.817,137.151,231.609,139.02,230.384z"/>
		<path d="M229.316,268.11c-5.472-1.975-14.353-7.467-22.942-12.771c-10.108-6.249-18.116-11.054-24.701-13.904
			c-3.11,2.803-7.173,4.555-11.683,4.555h-13.643c-1.013,0-1.983-0.137-2.943-0.294c-9.693,5.845-22.999,15.235-40.546,28.048
			c-3.619,2.642-6.741,4.918-8.911,6.454c-3.06,2.156-3.785,6.393-1.629,9.445c1.328,1.872,3.424,2.871,5.544,2.871
			c1.355,0,2.722-0.403,3.906-1.242c2.253-1.595,5.422-3.901,9.084-6.577c11.764-8.59,43.015-31.402,49.791-32.572
			c4.223-0.287,19.489,9.116,28.596,14.749c9.603,5.931,18.678,11.54,25.468,13.986c3.511,1.273,7.405-0.544,8.682-4.068
			C234.662,273.267,232.842,269.383,229.316,268.11z"/>
		<path d="M206.415,301.818c-3.812-2.484-7.31-4.982-10.697-7.398c-11.122-7.939-20.738-14.805-31.271-12.977
			c-11.863,2.053-30.757,21.05-34.42,24.841c-2.606,2.69-2.539,6.979,0.15,9.579c1.323,1.279,3.019,1.909,4.718,1.909
			c1.772,0,3.547-0.691,4.875-2.06c9.083-9.384,21.982-20.041,26.984-20.902c4.955-0.85,12.439,4.469,21.091,10.643
			c3.333,2.382,7.117,5.078,11.162,7.721c3.139,2.046,7.341,1.163,9.388-1.975C210.439,308.064,209.55,303.865,206.415,301.818z"/>
		<path d="M266.077,161.848c-5.653-2.382-11.56-4.892-16.316-8.848c-5.236-4.36-7.673-10.082-8.761-16.688
			c-1.424-8.61-14.49-4.946-13.08,3.607c2.902,17.591,15.852,27.11,31.316,33.643c3.408,1.435,7.231,1.062,9.277-2.43
			C270.197,168.258,269.486,163.296,266.077,161.848z"/>
		<path d="M252.923,197.237c-5.093-1.567-8.963-3.562-14.35-6.741c-9.866-5.832-18.87-14.284-23.25-25.071
			c-0.883-2.183-2.457-3.929-4.483-4.641c2.916,5.729,4.784,12.621,4.784,20.938c0,2.464-0.191,4.869-0.547,7.21
			c9.236,9.959,21.357,17.412,34.238,21.382C257.689,212.89,261.252,199.803,252.923,197.237z"/>
		<path d="M170.764,230.364v-17.967c19.185-3.138,29.479-16.218,29.479-31.046c0-15.516-8.727-24.94-28.261-32.266
			c-14.821-5.926-21.104-9.938-21.104-17.09c0-5.932,4.367-12.208,16.57-12.208c11.861,0,19.541,4.013,23.726,5.925l4.709-16.043
			c-5.585-2.792-13.079-5.407-24.064-5.756V87.69h-14.303v17.09c-17.616,3.14-28.077,14.656-28.077,29.658
			c0,16.221,11.849,24.593,30.169,31.215c12.902,4.712,19.006,9.767,19.006,17.617c0,8.371-7.504,13.777-18.484,13.777
			c-10.636,0-20.41-3.661-27.208-7.669l-4.709,16.393c6.275,4.188,17.269,7.323,28.255,7.672v16.92H170.764z"/>
	</g>
</g>
<g>
</g>
<g>
</g>
<g>
</g>
<g>
</g>
<g>
</g>
<g>
</g>
<g>
</g>
<g>
</g>
<g>
</g>
<g>
</g>
<g>
</g>
<g>
</g>
<g>
</g>
<g>
</g>
<g>
</g>
</svg>
