<?xml version="1.0" encoding="iso-8859-1"?>
<!-- Generator: Adobe Illustrator 16.0.0, SVG Export Plug-In . SVG Version: 6.00 Build 0)  -->
<!DOCTYPE svg PUBLIC "-//W3C//DTD SVG 1.1//EN" "http://www.w3.org/Graphics/SVG/1.1/DTD/svg11.dtd">
<svg version="1.1" id="Capa_1" xmlns="http://www.w3.org/2000/svg" xmlns:xlink="http://www.w3.org/1999/xlink" x="0px" y="0px"
	 width="724.453px" height="724.453px" viewBox="0 0 724.453 724.453" style="enable-background:new 0 0 724.453 724.453;"
	 xml:space="preserve">
<g>
	<g>
		<path d="M115.38,196.017c4.669,1.01,9.005,0.934,22.317-9.285c5.911-4.555,14.649-12.205,22.718-22.876l3.535-4.691
			c30.222-40.188,100.985-134.316,203.19-129.195c84.284,6.149,144.035,69.795,172.768,184.071c0.982,3.879,1.571,6.27,2.232,8.095
			c4.393,18.691,11.762,41.982,22.378,49.64c2.62,1.902,5.674,2.805,8.696,2.805c4.604,0,9.169-2.146,12.074-6.163
			c4.645-6.44,3.41-15.333-2.686-20.27c-2.938-3.779-8.455-19.703-11.745-33.917c-0.192-0.85-0.461-1.671-0.798-2.461
			c-0.276-0.965-0.813-3.104-1.286-4.983c-4.553-18.131-16.659-66.245-46.006-111.485C484.868,36.854,433.171,4.879,369.117,0.271
			c-0.101-0.016-0.2-0.016-0.312-0.016C250.741-5.787,173.242,97.28,140.163,141.286l-3.477,4.623
			c-9.063,11.968-19.761,19.442-23.452,21.588c-1.238,0.491-2.446,1.158-3.568,2.01c-4.635,3.502-6.893,9.492-5.646,15.164
			C105.276,190.321,109.712,194.767,115.38,196.017z"/>
		<path d="M488.085,253.061c11.225-28.042,11.509-57.038,0.737-79.516c-9.586-20.055-27.479-34.574-51.72-41.996
			c-35.586-10.895-78.724,8.862-118.241,54.132c-0.503,0.567-56.757,59.736-115.831,95.905
			c-0.435,0.261-43.683,26.189-88.847,38.501c-7.927,2.146-12.607,10.349-10.449,18.262c2.154,7.927,10.335,12.611,18.27,10.441
			c49.117-13.355,94.503-40.587,96.489-41.782c64.083-39.237,122.206-101.075,122.693-101.656
			c23.999-27.493,59.508-53.826,87.191-45.348c16.307,4.983,27.615,13.862,33.603,26.381c7.177,14.996,6.616,35.266-1.527,55.627
			c-15.164,37.889-62.371,83.625-132.948,128.811c-35.383,22.662-124.475,78.313-187.413,105.215
			c-7.558,3.219-11.062,11.951-7.834,19.509c2.418,5.666,7.913,9.049,13.693,9.049c1.95,0,3.939-0.385,5.845-1.198
			c64.972-27.796,155.754-84.453,191.763-107.504C397.149,361.588,465.723,308.951,488.085,253.061z"/>
		<path d="M248.427,141.983c-6.751,7.43-12.81,15.425-19.342,23.045c-8.547,9.999-17.893,19.336-27.649,28.152
			c-10.037,9.061-18.15,15.539-29.983,22.339c-12.55,7.191-25.349,14.483-38.348,20.807c-4.474,2.178-8.321,3.603-13.354,5.122
			c-7.754,2.331-12.577,10.327-10.383,18.292c2.104,7.682,10.532,12.733,18.306,10.403c15.214-4.584,29.006-12.419,42.737-20.215
			c11.609-6.603,23.129-12.552,33.788-20.663c20.789-15.791,38.67-34.246,55.118-54.447c6.663-8.171,13.784-15.962,21.224-23.443
			c4.06-4.078,8.261-8.011,12.555-11.868c2.23-2.008,4.5-3.955,6.799-5.887c1.162-0.982,2.338-1.948,3.522-2.897
			c0.307-0.261,2.615-2.086,3.206-2.547c10.361-7.94,21.408-14.994,33.027-20.959c10.975-5.642,21.979-9.598,35.334-12.373
			c4.432-0.914,5.397-1.028,8.708-1.365c8.059-0.837,14.879-6.149,14.879-14.874c0-7.498-6.792-15.731-14.879-14.888
			C329.882,69.282,283.881,102.922,248.427,141.983z"/>
		<path d="M132.619,426.913c32.33-11.084,198.317-73.069,291.275-203.358c4.769-6.692,3.222-15.978-3.471-20.769
			c-6.696-4.761-15.993-3.212-20.762,3.48c-87.685,122.892-245.896,181.907-276.715,192.526c-0.659,0.205-1.068,0.353-1.21,0.397
			c-7.682,2.929-11.554,11.518-8.64,19.195c2.25,5.951,7.911,9.613,13.926,9.613c1.679,0,3.4-0.288,5.071-0.885L132.619,426.913z"/>
		<path d="M436.177,451.767c-22.41-14.543-42.379-24.089-59.639-21.127c-18.685,3.233-51.333,24.101-102.875,58.056
			c-37.146,24.485-79.263,52.253-97.577,57.174c-7.939,2.164-12.637,10.319-10.503,18.25c1.791,6.652,7.792,11.02,14.362,11.02
			c1.281,0,2.585-0.168,3.872-0.521c22.962-6.191,63.417-32.856,106.241-61.069c34.588-22.79,77.63-51.179,91.542-53.579
			c5.767-0.981,15.364,3.098,26.425,9.462c1.703-1.082,3.322-2.124,4.821-3.078C421.317,460.972,429.007,456.127,436.177,451.767z"
			/>
		<path d="M244.704,600.763c-7.941,5.795-14.795,10.808-19.552,14.166c-6.705,4.753-8.308,14.03-3.573,20.738
			c2.914,4.104,7.506,6.3,12.167,6.3c2.968,0,5.967-0.886,8.574-2.725c4.945-3.499,11.884-8.572,19.933-14.431
			c21.352-15.593,71.899-52.493,97.18-66.247c-4.164-10.731-7.41-20.606-9.147-28.577
			C328.698,540.612,294.428,564.472,244.704,600.763z"/>
		<path d="M388.914,622.568c-10.251-4.557-20.41-6.732-30.988-4.894c-26.042,4.492-67.499,46.198-75.552,54.485
			c-5.717,5.902-5.559,15.332,0.344,21.059c2.888,2.785,6.617,4.188,10.337,4.188c3.895,0,7.783-1.52,10.692-4.541
			c19.933-20.574,48.247-43.965,59.234-45.865c10.868-1.863,27.291,9.811,46.278,23.355c4.063,2.918,8.479,6.027,13.08,9.233
			c-7.858-11.653-16.391-25.607-25.659-42.459C394.227,632.663,391.602,627.757,388.914,622.568z"/>
		<path d="M580.977,355.208c-12.402-5.244-25.375-10.74-35.814-19.442c-11.493-9.552-16.835-22.109-19.228-36.614
			c-3.113-18.905-31.803-10.856-28.705,7.911c6.364,38.593,34.776,59.506,68.724,73.829c7.474,3.174,15.869,2.344,20.354-5.322
			C590.026,369.254,588.456,358.368,580.977,355.208z"/>
		<path d="M557.85,458.551c7.054-7.021,6.812-21.812-5.75-25.691c-11.169-3.45-19.656-7.803-31.486-14.795
			c-21.656-12.796-41.405-31.338-51.019-55.038c-3.046-7.496-9.782-12.724-18.311-10.372c-7.129,1.964-13.437,10.78-10.387,18.306
			c9.232,22.746,24.718,42.579,43.737,58.356c2.668-0.481,5.237-0.733,7.729-0.733C509.497,428.584,529.017,439.893,557.85,458.551z
			"/>
	</g>
	<g>
		<path d="M612.195,518.547c-1.109-1.948-2.965-3.019-5.214-3.019c-9.773,0-32.352-14.743-54.176-28.981
			c-24.602-16.037-47.829-31.201-60.437-31.201c-13.309,0-40.499,17.304-66.848,34.087c-20.133,12.831-40.972,26.096-47.769,26.096
			c-1.903,0-3.515,0.982-4.424,2.682c-0.594,1.122-0.882,2.524-0.882,4.296c0,25.19,79.7,194.096,119.918,194.096
			c37.963,0,121.028-161.592,121.028-192.497C613.401,521.777,613.008,519.946,612.195,518.547z M492.369,710.07
			c-11.368,0-31.229-21.556-54.497-59.138c-33.137-53.52-60.512-118.552-58.965-128.919c9.209-0.998,28.2-13.08,50.217-27.106
			c24.31-15.488,51.84-33.021,63.254-33.021c10.651,0,35.188,16.014,56.861,30.159c23.432,15.28,45.572,29.747,57.43,29.968
			c0.982,1.903,0.236,13.562-14.418,46.751C566.206,627.773,515.6,710.07,492.369,710.07z"/>
		<path d="M492.365,724.453c-11.967,0-25.643-9.715-41.808-29.698c-12.327-15.24-26.198-36.669-40.112-61.971
			c-28.319-51.499-45.849-97.34-45.849-110.277c0-3.081,0.587-5.688,1.794-7.968c2.287-4.275,6.483-6.822,11.256-6.859
			c5.698-0.675,29.449-15.812,43.656-24.866c33.492-21.334,56.532-35.317,71.066-35.317c14.905,0,37.898,14.988,64.521,32.344
			l0.338,0.22c16.857,10.999,42.334,27.619,49.753,27.619c5.046,0,9.546,2.611,12.036,6.984c1.499,2.577,2.239,5.694,2.227,9.469
			c0,19.231-24.384,71.928-47.327,111.731c-14.056,24.385-28.099,45.152-40.613,60.056
			C517.181,715.119,503.79,724.453,492.365,724.453z M387.524,527.798c4.509,17.407,26.928,70.395,57.022,119.001
			c33.919,54.786,47.688,55.42,47.822,55.42c4.476,0,18.436-9.489,42.373-45.057c17.763-26.393,37.046-61.479,50.327-91.568
			c9.012-20.41,12.246-31.556,13.402-37.086c-13.758-3.957-32.33-16.068-53.257-29.716l-0.264-0.172
			c-16.554-10.804-44.255-28.884-52.573-28.884c-9.139,0-39.166,19.131-59.036,31.791
			C412.704,514.675,397.993,523.875,387.524,527.798z"/>
	</g>
</g>
<g>
</g>
<g>
</g>
<g>
</g>
<g>
</g>
<g>
</g>
<g>
</g>
<g>
</g>
<g>
</g>
<g>
</g>
<g>
</g>
<g>
</g>
<g>
</g>
<g>
</g>
<g>
</g>
<g>
</g>
</svg>
