<?xml version="1.0" encoding="iso-8859-1"?>
<!-- Generator: Adobe Illustrator 16.0.0, SVG Export Plug-In . SVG Version: 6.00 Build 0)  -->
<!DOCTYPE svg PUBLIC "-//W3C//DTD SVG 1.1//EN" "http://www.w3.org/Graphics/SVG/1.1/DTD/svg11.dtd">
<svg version="1.1" id="Capa_1" xmlns="http://www.w3.org/2000/svg" xmlns:xlink="http://www.w3.org/1999/xlink" x="0px" y="0px"
	 width="317.771px" height="317.772px" viewBox="0 0 317.771 317.772" style="enable-background:new 0 0 317.771 317.772;"
	 xml:space="preserve">
<g>
	<g>
		<path d="M57.344,89.304c2.132,0.465,4.105,0.435,10.17-4.227c2.695-2.067,6.672-5.554,10.355-10.417l1.608-2.135
			c13.771-18.317,46.015-61.202,92.582-58.875c38.403,2.803,65.626,31.806,78.723,83.879c0.445,1.77,0.719,2.856,1.021,3.689
			c1.998,8.516,5.352,19.126,10.19,22.617c1.198,0.869,2.588,1.283,3.963,1.283c2.104,0,4.179-0.979,5.503-2.814
			c2.115-2.93,1.554-6.985-1.225-9.23c-1.335-1.731-3.854-8.981-5.353-15.461c-0.089-0.385-0.212-0.76-0.362-1.123
			c-0.123-0.441-0.37-1.405-0.589-2.269c-2.074-8.254-7.591-30.18-20.964-50.798c-17.269-26.626-40.82-41.194-70.004-43.299
			c-0.052-0.005-0.096-0.005-0.144-0.009C119.02-2.627,83.712,44.33,68.636,64.382l-1.584,2.106
			c-4.127,5.455-9.002,8.851-10.681,9.835c-0.571,0.221-1.117,0.527-1.629,0.916c-2.11,1.602-3.14,4.324-2.572,6.908
			C52.736,86.722,54.762,88.739,57.344,89.304z"/>
		<path d="M227.167,115.309c5.12-12.784,5.239-25.991,0.343-36.234c-4.374-9.135-12.522-15.759-23.575-19.14
			c-16.215-4.962-35.864,4.043-53.869,24.674c-0.226,0.245-24.545,25.788-50.67,42.349c2.781,3.578,4.868,7.71,6.078,12.202
			c21.45-13.362,41.263-32.026,50.023-40.745c1.521-17.701,16.385-31.643,34.472-31.643c19.092,0,34.622,15.53,34.622,34.619
			c0,16.753-11.968,30.76-27.802,33.938c-10.596,10.864-25.061,22.289-42.786,33.638c-16.122,10.332-56.719,35.68-85.391,47.938
			c-3.441,1.472-5.039,5.455-3.568,8.901c1.097,2.57,3.602,4.113,6.233,4.113c0.892,0,1.795-0.175,2.665-0.548
			c29.606-12.658,70.969-38.472,87.379-48.98C185.735,164.757,216.976,140.768,227.167,115.309z"/>
		<path d="M117.97,64.687c-3.077,3.391-5.842,7.029-8.814,10.506c-3.893,4.555-8.155,8.81-12.601,12.821
			c-4.574,4.128-8.268,7.083-13.661,10.177c-5.722,3.284-11.546,6.602-17.472,9.486c-2.04,0.994-3.792,1.639-6.083,2.331
			c-3.525,1.057-5.715,4.692-4.738,8.312c5.133-3.022,11.098-4.788,17.475-4.788c3.06,0,6.014,0.438,8.838,1.188
			c0.501-0.284,1.002-0.56,1.504-0.844c5.287-3.006,10.537-5.713,15.398-9.409c9.469-7.202,17.616-15.612,25.112-24.811
			c3.037-3.725,6.283-7.275,9.671-10.681c1.855-1.862,3.765-3.655,5.724-5.407c1.013-0.912,2.05-1.802,3.094-2.681
			c0.529-0.445,1.069-0.883,1.605-1.321c0.14-0.116,1.194-0.946,1.465-1.164c4.721-3.617,9.75-6.834,15.04-9.549
			c5.002-2.568,10.019-4.37,16.106-5.635c2.013-0.421,2.457-0.467,3.967-0.621c3.675-0.382,6.786-2.796,6.786-6.779
			c0-3.41-3.101-7.165-6.786-6.781C155.083,31.567,134.124,46.891,117.97,64.687z"/>
		<path d="M65.198,194.52c12.062-4.142,64.983-23.853,107.006-63.466c-3.922-2.358-7.33-5.464-10.043-9.125
			c-19.042,17.802-40.442,31.345-58.857,41.073c-5.571,11.666-17.451,19.77-31.227,19.77c-3.501,0-6.875-0.533-10.056-1.498
			c-0.438,0.153-0.862,0.301-1.227,0.428c-0.301,0.099-0.488,0.167-0.548,0.194c-3.504,1.325-5.27,5.239-3.942,8.744
			c1.027,2.71,3.607,4.38,6.347,4.38c0.768,0,1.545-0.133,2.313-0.41L65.198,194.52z"/>
		<path d="M249.702,234.887c-9.397-3.135-20.896-11.323-32.018-19.242c-16.104-11.472-30.006-21.382-41.347-19.428
			c-8.515,1.472-23.389,10.975-46.872,26.456c-16.924,11.164-36.118,23.809-44.462,26.057c-3.619,0.972-5.765,4.695-4.786,8.312
			c0.816,3.025,3.552,5.021,6.542,5.021c0.585,0,1.179-0.072,1.768-0.236c10.46-2.816,28.892-14.965,48.405-27.825
			c15.763-10.39,35.375-23.322,41.713-24.414c5.76-0.982,19.849,9.045,31.173,17.111c11.926,8.497,24.27,17.285,35.597,21.06
			c3.553,1.188,7.389-0.735,8.572-4.284C255.178,239.908,253.255,236.068,249.702,234.887z"/>
		<path d="M232.731,268.099c-4.309-1.553-10.742-5.301-17.48-9.414c-1.067,4.548-3.021,8.747-5.694,12.412
			c6.988,4.236,13.436,7.898,18.572,9.757c3.511,1.272,7.402-0.551,8.679-4.072C238.073,273.263,236.253,269.373,232.731,268.099z"
			/>
		<path d="M147.01,251.964c-8.333,5.574-18.497,12.836-30.736,21.771c-3.621,2.639-6.744,4.921-8.912,6.454
			c-3.059,2.159-3.785,6.393-1.627,9.448c1.324,1.872,3.42,2.872,5.544,2.872c1.354,0,2.721-0.404,3.905-1.246
			c2.257-1.591,5.42-3.901,9.082-6.574c5.778-4.22,16.264-11.868,26.233-18.702C148.415,261.724,147.178,256.981,147.01,251.964z"/>
		<path d="M209.827,301.811c-3.812-2.487-7.31-4.985-10.697-7.398c-4.873-3.48-9.459-6.755-13.963-9.179
			c-1.184,0.124-2.382,0.188-3.6,0.188c-5.479,0-10.65-1.313-15.26-3.597c-11.897,3.282-29.355,20.82-32.867,24.448
			c-2.607,2.689-2.538,6.984,0.154,9.585c1.317,1.277,3.013,1.913,4.717,1.913c1.77,0,3.542-0.691,4.87-2.066
			c9.084-9.381,21.983-20.037,26.989-20.903c4.955-0.849,12.437,4.477,21.088,10.65c3.333,2.378,7.118,5.078,11.163,7.721
			c3.138,2.046,7.337,1.163,9.384-1.972C213.845,308.06,212.962,303.858,209.827,301.811z"/>
		<path d="M269.496,161.848c-5.653-2.389-11.561-4.897-16.32-8.858c-5.236-4.355-7.669-10.079-8.761-16.683
			c-1.42-8.614-14.486-4.948-13.076,3.605c2.898,17.592,15.848,27.111,31.316,33.647c3.404,1.44,7.23,1.061,9.277-2.434
			C273.612,168.251,272.897,163.289,269.496,161.848z"/>
		<path d="M256.334,197.227c-5.092-1.567-8.959-3.556-14.346-6.738c-9.869-5.832-18.869-14.284-23.246-25.074
			c-1.386-3.419-4.459-5.805-8.34-4.733c-3.251,0.894-6.126,4.907-4.736,8.34c8.079,19.924,26.631,34.985,47.062,41.281
			C261.111,212.883,264.664,199.796,256.334,197.227z"/>
		<path d="M100.195,148.024c0-15.225-12.387-27.61-27.613-27.61c-15.225,0-27.614,12.388-27.614,27.61
			c0,15.223,12.389,27.612,27.614,27.612C87.808,175.636,100.195,163.251,100.195,148.024z M51.98,148.024
			c0-11.36,9.249-20.601,20.605-20.601c11.358,0,20.604,9.245,20.604,20.601c0,11.36-9.247,20.603-20.604,20.603
			C61.229,168.627,51.98,159.388,51.98,148.024z"/>
		<path d="M190.479,128.881c15.225,0,27.609-12.388,27.609-27.61s-12.385-27.61-27.609-27.61c-15.229,0-27.615,12.388-27.615,27.61
			S175.25,128.881,190.479,128.881z M190.479,80.666c11.354,0,20.602,9.244,20.602,20.602s-9.247,20.601-20.602,20.601
			c-11.362,0-20.608-9.243-20.608-20.601S179.116,80.666,190.479,80.666z"/>
		<path d="M209.687,250.677c0-15.225-12.385-27.609-27.613-27.609c-15.222,0-27.61,12.388-27.61,27.609s12.388,27.61,27.61,27.61
			C197.302,278.291,209.687,265.903,209.687,250.677z M161.476,250.677c0-11.361,9.243-20.602,20.602-20.602
			c11.361,0,20.604,9.243,20.604,20.602s-9.243,20.602-20.604,20.602C170.716,271.283,161.476,262.039,161.476,250.677z"/>
	</g>
</g>
<g>
</g>
<g>
</g>
<g>
</g>
<g>
</g>
<g>
</g>
<g>
</g>
<g>
</g>
<g>
</g>
<g>
</g>
<g>
</g>
<g>
</g>
<g>
</g>
<g>
</g>
<g>
</g>
<g>
</g>
</svg>
