<?xml version="1.0" encoding="iso-8859-1"?>
<!-- Generator: Adobe Illustrator 16.0.0, SVG Export Plug-In . SVG Version: 6.00 Build 0)  -->
<!DOCTYPE svg PUBLIC "-//W3C//DTD SVG 1.1//EN" "http://www.w3.org/Graphics/SVG/1.1/DTD/svg11.dtd">
<svg version="1.1" id="Capa_1" xmlns="http://www.w3.org/2000/svg" xmlns:xlink="http://www.w3.org/1999/xlink" x="0px" y="0px"
	 width="317.769px" height="317.769px" viewBox="0 0 317.769 317.769" style="enable-background:new 0 0 317.769 317.769;"
	 xml:space="preserve">
<g>
	<g>
		<path d="M45.476,89.307c2.127,0.465,4.1,0.431,10.167-4.23c2.693-2.067,6.675-5.554,10.354-10.418l1.608-2.134
			c13.772-18.317,46.016-61.202,92.585-58.875c38.408,2.806,65.629,31.804,78.729,83.879c0.445,1.77,0.715,2.853,1.013,3.689
			c1.999,8.517,5.355,19.123,10.198,22.614c1.197,0.87,2.584,1.287,3.963,1.287c2.102,0,4.172-0.979,5.499-2.814
			c2.118-2.933,1.551-6.984-1.225-9.235c-1.338-1.726-3.854-8.981-5.353-15.456c-0.086-0.385-0.212-0.761-0.362-1.123
			c-0.127-0.441-0.37-1.405-0.589-2.271c-2.074-8.249-7.591-30.178-20.964-50.799c-17.269-26.627-40.82-41.192-70.009-43.299
			c-0.047-0.003-0.091-0.007-0.145-0.007C107.152-2.627,71.839,44.33,56.768,64.378l-1.588,2.108
			c-4.127,5.457-8.999,8.85-10.681,9.837c-0.571,0.221-1.117,0.525-1.629,0.916c-2.11,1.598-3.14,4.324-2.57,6.91
			C40.872,86.718,42.894,88.736,45.476,89.307z"/>
		<path d="M215.299,115.305c5.12-12.783,5.243-25.988,0.339-36.234c-4.37-9.135-12.518-15.755-23.568-19.137
			c-16.214-4.962-35.871,4.04-53.876,24.674c-0.228,0.252-25.861,27.213-52.782,43.694c-0.199,0.116-19.903,11.94-40.481,17.542
			c-3.61,0.985-5.748,4.714-4.758,8.323c0.984,3.614,4.709,5.751,8.323,4.764c22.388-6.095,43.059-18.497,43.964-19.042
			c29.201-17.883,55.684-46.064,55.908-46.324c10.932-12.523,27.109-24.53,39.733-20.668c7.427,2.277,12.577,6.326,15.308,12.034
			c3.268,6.826,3.012,16.064-0.698,25.336c-6.913,17.261-28.421,38.109-60.57,58.697c-16.127,10.332-56.728,35.684-85.395,47.941
			c-3.441,1.472-5.039,5.455-3.571,8.897c1.097,2.57,3.602,4.117,6.237,4.117c0.887,0,1.795-0.175,2.665-0.544
			c29.603-12.662,70.969-38.476,87.375-48.988C173.867,164.754,205.108,140.768,215.299,115.305z"/>
		<path d="M106.098,64.687c-3.073,3.392-5.838,7.029-8.814,10.506c-3.893,4.555-8.155,8.809-12.599,12.818
			c-4.572,4.129-8.266,7.082-13.663,10.177c-5.718,3.284-11.546,6.602-17.472,9.485c-2.036,0.992-3.789,1.641-6.08,2.327
			c-3.54,1.066-5.734,4.718-4.738,8.345c0.963,3.498,4.805,5.795,8.343,4.738c6.935-2.089,13.214-5.653,19.474-9.214
			c5.287-3.003,10.54-5.708,15.401-9.406c9.464-7.201,17.616-15.61,25.112-24.809c3.034-3.725,6.283-7.275,9.671-10.686
			c1.852-1.86,3.765-3.655,5.72-5.407c1.015-0.914,2.05-1.804,3.097-2.683c0.525-0.445,1.069-0.883,1.602-1.321
			c0.14-0.116,1.191-0.948,1.465-1.164c4.721-3.617,9.748-6.831,15.044-9.549c4.996-2.568,10.015-4.374,16.103-5.638
			c2.016-0.417,2.457-0.467,3.967-0.621c3.675-0.378,6.786-2.796,6.786-6.781c0-3.411-3.098-7.166-6.786-6.785
			C143.215,31.567,122.256,46.891,106.098,64.687z"/>
		<path d="M53.33,194.52c14.732-5.051,90.365-33.297,132.72-92.66c2.173-3.049,1.465-7.283-1.581-9.459
			c-3.049-2.175-7.286-1.465-9.459,1.581c-39.95,55.999-112.036,82.89-126.081,87.715c-0.301,0.103-0.488,0.171-0.551,0.195
			c-3.5,1.327-5.267,5.238-3.938,8.743c1.026,2.71,3.602,4.38,6.343,4.38c0.771,0,1.548-0.133,2.313-0.407L53.33,194.52z"/>
		<path d="M141.729,223.133c1.569-7.275,4.173-14.168,7.667-20.513c-8.152,4.562-18.619,11.365-31.792,20.051
			c-16.929,11.159-36.118,23.808-44.462,26.053c-3.616,0.979-5.761,4.702-4.786,8.312c0.816,3.028,3.552,5.023,6.542,5.023
			c0.585,0,1.177-0.075,1.768-0.232c10.46-2.82,28.892-14.966,48.405-27.826C130.404,230.479,136.175,226.671,141.729,223.133z"/>
		<path d="M140.573,248.401c-9.212,5.89-21.139,14.363-36.167,25.335c-3.617,2.642-6.744,4.917-8.91,6.454
			c-3.058,2.163-3.783,6.393-1.629,9.452c1.324,1.868,3.42,2.864,5.544,2.864c1.357,0,2.719-0.4,3.908-1.242
			c2.251-1.588,5.417-3.901,9.082-6.574c6.771-4.941,19.972-14.578,31.272-22.107C142.202,258.024,141.162,253.285,140.573,248.401z
			"/>
		<path d="M153.283,282.172c-11.837,4.031-28.315,20.591-31.713,24.102c-2.604,2.69-2.537,6.979,0.154,9.586
			c1.317,1.273,3.017,1.909,4.716,1.909c1.774,0,3.547-0.688,4.875-2.066c9.083-9.377,21.982-20.037,26.988-20.903
			c2.294-0.39,5.151,0.575,8.396,2.301C161.599,292.732,157.081,287.723,153.283,282.172z"/>
		<path d="M257.624,161.852c-5.653-2.392-11.56-4.9-16.316-8.858c-5.236-4.355-7.669-10.079-8.761-16.687
			c-1.424-8.61-14.489-4.945-13.076,3.605c1.923,11.663,8.271,19.762,16.837,25.811c6.978,1.909,13.565,4.777,19.603,8.47
			c1.646-0.346,3.128-1.311,4.154-3.07C261.745,168.248,261.033,163.286,257.624,161.852z"/>
		<path d="M198.534,160.68c-2.461,0.676-4.702,3.146-5.037,5.803c4.021-1.256,8.195-2.177,12.474-2.755
			C204.358,161.28,201.727,159.804,198.534,160.68z"/>
		<path d="M212.134,169.802c-36.23,0-65.706,29.479-65.706,65.705c0,36.234,29.475,65.706,65.706,65.706
			s65.705-29.472,65.705-65.706C277.839,199.28,248.364,169.802,212.134,169.802z M212.134,287.195
			c-28.5,0-51.688-23.186-51.688-51.688c0-28.499,23.188-51.688,51.688-51.688c28.503,0,51.688,23.189,51.688,51.688
			C263.822,264.01,240.637,287.195,212.134,287.195z"/>
		<rect x="248.169" y="233.755" width="12.768" height="3.504"/>
		<rect x="166.694" y="233.755" width="12.768" height="3.504"/>
		<rect x="210.382" y="269.865" width="3.504" height="12.769"/>
		<rect x="210.382" y="188.391" width="3.504" height="12.769"/>
		<polygon points="209.779,232.913 214.488,238.102 243.08,208.794 241.872,207.113 		"/>
	</g>
</g>
<g>
</g>
<g>
</g>
<g>
</g>
<g>
</g>
<g>
</g>
<g>
</g>
<g>
</g>
<g>
</g>
<g>
</g>
<g>
</g>
<g>
</g>
<g>
</g>
<g>
</g>
<g>
</g>
<g>
</g>
</svg>
