<?xml version="1.0" encoding="iso-8859-1"?>
<!-- Generator: Adobe Illustrator 16.0.0, SVG Export Plug-In . SVG Version: 6.00 Build 0)  -->
<!DOCTYPE svg PUBLIC "-//W3C//DTD SVG 1.1//EN" "http://www.w3.org/Graphics/SVG/1.1/DTD/svg11.dtd">
<svg version="1.1" id="Capa_1" xmlns="http://www.w3.org/2000/svg" xmlns:xlink="http://www.w3.org/1999/xlink" x="0px" y="0px"
	 width="311.321px" height="311.321px" viewBox="0 0 311.321 311.321" style="enable-background:new 0 0 311.321 311.321;"
	 xml:space="preserve">
<g>
	<g>
		<path d="M52.835,87.496c2.089,0.452,4.022,0.418,9.967-4.143c2.635-2.024,6.535-5.441,10.145-10.211l1.573-2.087
			c13.492-17.946,45.077-59.963,90.702-57.677c37.624,2.743,64.296,31.157,77.129,82.165c0.432,1.738,0.698,2.799,0.992,3.621
			c1.958,8.336,5.25,18.733,9.986,22.153c1.177,0.849,2.542,1.25,3.888,1.25c2.053,0,4.093-0.949,5.386-2.75
			c2.074-2.875,1.52-6.844-1.197-9.042c-1.308-1.695-3.778-8.803-5.243-15.146c-0.089-0.375-0.208-0.746-0.359-1.1
			c-0.119-0.431-0.362-1.375-0.574-2.224c-2.029-8.092-7.44-29.569-20.537-49.766C217.772,16.451,194.7,2.177,166.104,0.12
			c-0.041-0.007-0.089-0.007-0.137-0.007C113.267-2.578,78.676,43.422,63.905,63.067l-1.554,2.068
			c-4.043,5.344-8.822,8.672-10.47,9.63c-0.555,0.225-1.09,0.519-1.588,0.897c-2.067,1.565-3.08,4.236-2.526,6.771
			C48.324,84.962,50.312,86.942,52.835,87.496z"/>
		<path d="M98.906,194.823c-12.058,6.735-24.386,13.128-35.029,17.68c-3.375,1.443-4.94,5.335-3.498,8.72
			c1.076,2.519,3.533,4.027,6.112,4.027c0.87,0,1.759-0.171,2.608-0.53c11.315-4.842,24.373-11.643,37.053-18.75
			C103.359,202.564,100.932,198.835,98.906,194.823z"/>
		<path d="M55.8,155.7c17.591-4.783,34.086-13.537,40.379-17.091c3.879-11.452,10.275-21.414,18.598-29.278
			c-7.072,5.723-14.879,11.512-22.813,16.372c-0.2,0.116-19.498,11.698-39.661,17.186c-3.541,0.963-5.625,4.618-4.661,8.15
			C48.605,154.586,52.253,156.672,55.8,155.7z"/>
		<path d="M192.559,71.426c7.282,2.225,12.33,6.196,15.002,11.784c3.162,6.613,2.943,15.531-0.574,24.51
			c3.49,3.561,6.481,7.597,8.945,12.027c1.235-2.247,2.371-4.503,3.281-6.777c5.011-12.525,5.141-25.462,0.329-35.495
			c-4.278-8.961-12.265-15.441-23.086-18.755c-15.886-4.861-35.139,3.963-52.787,24.172c-0.128,0.151-9.226,9.693-22.133,20.788
			c9.363-6.81,20.501-11.288,32.79-12.773C165.023,78.929,180.454,67.721,192.559,71.426z"/>
		<path d="M112.233,63.377c-3.019,3.318-5.724,6.885-8.64,10.295c-3.812,4.461-7.985,8.624-12.338,12.56
			c-4.481,4.043-8.105,6.935-13.386,9.972c-5.601,3.21-11.315,6.463-17.118,9.286c-1.999,0.979-3.718,1.608-5.961,2.286
			c-3.463,1.041-5.614,4.611-4.634,8.172c0.939,3.424,4.704,5.681,8.172,4.639c6.791-2.046,12.949-5.544,19.075-9.026
			c5.183-2.945,10.319-5.594,15.085-9.221c9.279-7.05,17.263-15.289,24.6-24.306c2.979-3.648,6.162-7.124,9.479-10.463
			c1.815-1.822,3.69-3.578,5.6-5.299c0.998-0.896,2.011-1.766,3.037-2.628c0.512-0.432,1.042-0.861,1.567-1.292
			c0.137-0.116,1.17-0.926,1.429-1.136c4.627-3.545,9.557-6.692,14.743-9.356c4.899-2.521,9.817-4.28,15.778-5.523
			c1.979-0.409,2.402-0.459,3.888-0.609c3.597-0.368,6.643-2.736,6.643-6.641c0-3.347-3.039-7.022-6.643-6.644
			C148.59,30.933,128.054,45.946,112.233,63.377z"/>
		<path d="M60.531,190.573c4.982-1.711,17.075-6.133,32.483-13.572c-0.703-3.97-1.107-8.072-1.107-12.316
			c0-0.667,0.074-1.307,0.089-1.971c-16.941,8.508-30.521,13.49-35.777,15.297c-0.294,0.093-0.479,0.157-0.539,0.185
			c-3.431,1.301-5.162,5.134-3.862,8.569c1.006,2.655,3.533,4.284,6.213,4.284c0.755,0,1.521-0.123,2.264-0.396L60.531,190.573z"/>
		<path d="M189.006,90.528c-2.994-2.135-7.139-1.438-9.273,1.545c-0.056,0.081-0.113,0.158-0.172,0.238
			c4.288,1.061,8.357,2.525,12.148,4.4C191.979,94.389,191.046,91.986,189.006,90.528z"/>
		<path d="M136.312,225.63c-5.222-1.472-10.104-3.606-14.607-6.297c-16.125,10.626-33.879,22.224-41.764,24.342
			c-3.545,0.959-5.645,4.604-4.688,8.139c0.796,2.97,3.477,4.921,6.407,4.921c0.575,0,1.156-0.075,1.731-0.227
			c10.246-2.765,28.306-14.667,47.422-27.264C132.6,228.063,134.443,226.855,136.312,225.63z"/>
		<path d="M241.29,230.12c-9.206-3.076-20.472-11.095-31.368-18.853c-4.743-3.389-9.291-6.619-13.641-9.449l4.415,11.868
			l-5.948,3.135c2.543,1.763,5.072,3.562,7.468,5.267c11.689,8.33,23.776,16.933,34.871,20.636c3.484,1.157,7.241-0.726,8.405-4.202
			C246.648,235.041,244.767,231.273,241.29,230.12z"/>
		<path d="M224.658,262.654c-5.353-1.937-14.059-7.316-22.477-12.508c-17.782-10.988-29.082-17.658-37.192-16.259
			c-8.213,1.417-25.461,13.141-54.417,34.29c-3.547,2.587-6.606,4.818-8.727,6.317c-2.996,2.122-3.709,6.263-1.593,9.264
			c1.292,1.824,3.345,2.807,5.427,2.807c1.328,0,2.663-0.397,3.833-1.219c2.206-1.561,5.306-3.826,8.897-6.44
			c11.519-8.411,42.134-30.766,48.779-31.908c4.145-0.287,19.089,8.932,28.014,14.448c9.415,5.811,18.299,11.304,24.948,13.709
			c3.442,1.246,7.255-0.54,8.5-3.997C229.894,267.709,228.114,263.91,224.658,262.654z"/>
		<path d="M202.219,295.682c-3.727-2.437-7.159-4.891-10.475-7.248c-10.896-7.782-20.314-14.503-30.636-12.71
			c-11.622,2.006-30.132,20.622-33.724,24.321c-2.555,2.646-2.484,6.845,0.15,9.4c1.294,1.242,2.959,1.876,4.62,1.876
			c1.737,0,3.468-0.678,4.769-2.026c8.897-9.191,21.537-19.633,26.447-20.478c4.849-0.836,12.179,4.38,20.659,10.43
			c3.265,2.328,6.968,4.97,10.931,7.563c3.072,2.005,7.193,1.136,9.198-1.937C206.154,301.797,205.292,297.69,202.219,295.682z"/>
		<path d="M260.673,158.56c-5.537-2.334-11.32-4.797-15.985-8.674c-5.133-4.271-7.518-9.875-8.589-16.343
			c-1.386-8.439-14.188-4.854-12.803,3.525c2.841,17.234,15.523,26.563,30.677,32.962c3.333,1.417,7.08,1.047,9.082-2.382
			C264.708,164.829,264.013,159.973,260.673,158.56z"/>
		<path d="M247.781,193.222c-4.989-1.536-8.774-3.477-14.051-6.598c-5.38-3.176-10.455-7.173-14.675-11.892
			c-1.841,4.497-4.182,8.438-6.896,11.854c8.85,8.993,20.129,15.762,32.086,19.448C252.467,208.567,255.94,195.741,247.781,193.222z
			"/>
		<path d="M114.777,109.328c2.348-1.91,4.602-3.792,6.756-5.645C119.158,105.413,116.915,107.309,114.777,109.328z"/>
		<path d="M184.729,137.843c-3.967-1.834-9.768-3.21-16.324-3.21c-21.221,0-36.172,17.248-36.172,36.17
			c0,12.053,7.631,19.226,16.479,19.226c9.157,0,16.182-4.421,21.521-13.429h0.612c-0.462,9.309,5.185,13.429,11.293,13.429
			c14.346,0,27.165-13.429,27.165-36.316c0-25.487-17.85-44.112-44.406-44.112c-33.888,0-55.706,27.165-55.706,58.611
			c0,29.297,21.212,47.616,46.239,47.616c10.227,0,18.775-1.684,27.167-6.105l-2.444-6.563c-6.255,3.511-14.346,5.335-23.044,5.335
			c-22.585,0-39.217-15.711-39.217-41.203c0-30.984,20.911-50.668,45.78-50.668c23.654,0,36.932,15.87,36.932,38.001
			c0,17.708-8.695,28.083-16.48,27.933c-5.038-0.157-6.865-5.496-4.579-17.097L184.729,137.843z M170.998,161.037
			c-1.684,9.458-9.773,20.755-18.623,20.755c-6.714,0-10.068-4.883-10.068-11.598c0-14.806,10.834-27.475,24.263-27.475
			c3.511,0,6.105,0.611,7.635,1.069L170.998,161.037z"/>
	</g>
</g>
<g>
</g>
<g>
</g>
<g>
</g>
<g>
</g>
<g>
</g>
<g>
</g>
<g>
</g>
<g>
</g>
<g>
</g>
<g>
</g>
<g>
</g>
<g>
</g>
<g>
</g>
<g>
</g>
<g>
</g>
</svg>
