<?xml version="1.0" encoding="iso-8859-1"?>
<!-- Generator: Adobe Illustrator 16.0.0, SVG Export Plug-In . SVG Version: 6.00 Build 0)  -->
<!DOCTYPE svg PUBLIC "-//W3C//DTD SVG 1.1//EN" "http://www.w3.org/Graphics/SVG/1.1/DTD/svg11.dtd">
<svg version="1.1" id="Capa_1" xmlns="http://www.w3.org/2000/svg" xmlns:xlink="http://www.w3.org/1999/xlink" x="0px" y="0px"
	 width="340.982px" height="340.983px" viewBox="0 0 340.982 340.983" style="enable-background:new 0 0 340.982 340.983;"
	 xml:space="preserve">
<g>
	<path d="M291.167,133.821l-0.653-1.033c0.021-2.147,0.058-4.311,0-6.497l0.075-1.552l-2.83-15.864
		c0-27.835-18.202-105.353-64.576-98.772c0,0-47.623-26.001-106.032,5.421c-56.594,23.022-64.59,65.512-64.59,93.351v20.99
		c-0.13,0.389-0.223,0.719-0.331,1.013c-1.853,5.277-1.976,5.66,5.478,45.116c-1.93,0.568-3.605,1.738-4.906,3.437
		c-6.379,8.429-0.813,30.683,0.89,36.658c1.608,10.447,5.66,16.46,9.363,19.869c8.194,58.812,58.739,105.025,103.163,105.025
		c51.956,0,101.097-50.904,109.776-104.957c3.683-3.36,7.748-9.278,9.268-19.288c1.848-6.639,7.412-28.944,1.013-37.362
		c-0.773-1.021-1.681-1.845-2.714-2.454c2.772-9.603,6.434-25.285,6.934-42.71C290.723,134.061,290.958,133.972,291.167,133.821z
		 M106.309,101.646c0.308-0.24,0.636-0.417,0.977-0.555c1.013-0.595,3.949-2.635,6.434-5.918l0.957-1.271
		c9.077-12.066,30.334-40.349,62.728-38.691c0.027,0,0.062,0,0.078,0.007c17.577,1.265,31.762,10.032,42.162,26.068
		c8.049,12.416,11.368,25.62,12.62,30.589c0.13,0.519,0.274,1.101,0.359,1.369c0.086,0.222,0.164,0.445,0.22,0.678
		c0.903,3.899,2.416,8.259,3.217,9.306c1.68,1.35,2.019,3.792,0.738,5.558c-0.793,1.1-2.046,1.689-3.309,1.689
		c-0.828,0-1.667-0.251-2.386-0.773c-2.915-2.103-4.941-8.487-6.139-13.615c-0.186-0.508-0.35-1.155-0.616-2.224
		c-7.885-31.354-24.277-48.822-47.397-50.504c-28.046-1.401-47.457,24.422-55.75,35.447l-0.972,1.285
		c-2.211,2.929-4.604,5.032-6.234,6.276c-3.648,2.808-4.832,2.829-6.119,2.548c-1.552-0.344-2.772-1.559-3.114-3.116
		C104.413,104.245,105.032,102.606,106.309,101.646z M185.569,76.705c0,2.397-1.872,3.855-4.086,4.08
		c-0.91,0.094-1.17,0.114-2.389,0.375c-3.66,0.76-6.685,1.839-9.698,3.396c-3.183,1.629-6.213,3.573-9.055,5.749
		c-0.164,0.13-0.795,0.631-0.876,0.698c-0.331,0.258-0.652,0.525-0.97,0.795c-0.631,0.532-1.252,1.068-1.862,1.615
		c-1.177,1.054-2.333,2.134-3.448,3.26c-2.04,2.054-3.992,4.187-5.817,6.434c-4.518,5.536-9.42,10.601-15.125,14.935
		c-2.922,2.233-6.083,3.862-9.269,5.667c-3.771,2.141-7.554,4.292-11.726,5.544c-2.134,0.644-4.451-0.746-5.024-2.849
		c-0.604-2.183,0.717-4.387,2.849-5.025c1.384-0.417,2.435-0.802,3.668-1.401c3.567-1.738,7.079-3.735,10.52-5.717
		c3.244-1.86,5.477-3.641,8.229-6.125c2.676-2.414,5.234-4.976,7.583-7.719c1.793-2.089,3.455-4.279,5.305-6.326
		c9.724-10.713,22.354-19.936,37.111-21.471C183.704,72.388,185.569,74.645,185.569,76.705z M107.245,169.926
		c-0.795-2.109,0.266-4.46,2.375-5.263c0.043-0.015,0.151-0.056,0.331-0.116c8.458-2.909,51.866-19.094,75.924-52.816
		c1.308-1.833,3.854-2.26,5.694-0.95c1.831,1.314,2.259,3.862,0.948,5.695c-25.5,35.742-71.042,52.749-79.911,55.791l-0.144,0.055
		c-0.458,0.164-0.933,0.24-1.388,0.24C109.419,172.562,107.868,171.559,107.245,169.926z M116.264,193.581
		c-1.587,0-3.093-0.928-3.755-2.478c-0.883-2.077,0.073-4.47,2.147-5.359c17.27-7.378,41.715-22.641,51.422-28.861
		c19.362-12.395,32.312-24.947,36.474-35.337c2.237-5.585,2.389-11.158,0.417-15.261c-1.646-3.434-4.746-5.873-9.223-7.24
		c-7.598-2.327-17.333,4.899-23.917,12.443c-0.137,0.158-16.086,17.126-33.659,27.891c-0.547,0.331-12.998,7.798-26.476,11.463
		c-2.183,0.597-4.421-0.689-5.019-2.859c-0.589-2.177,0.698-4.421,2.868-5.01c12.394-3.383,24.256-10.5,24.371-10.569
		c16.216-9.925,31.648-26.161,31.785-26.312c10.842-12.422,22.683-17.85,32.442-14.857c6.643,2.04,11.553,6.025,14.188,11.526
		c2.956,6.167,2.881,14.111-0.206,21.821c-6.132,15.332-24.947,29.773-39.647,39.184c-9.876,6.333-34.785,21.865-52.614,29.497
		C117.347,193.474,116.799,193.581,116.264,193.581z M200.88,242.521c-1.238,1.889-3.761,2.419-5.649,1.184
		c-2.437-1.588-4.72-3.21-6.722-4.646c-5.208-3.717-9.712-6.92-12.696-6.414c-3.018,0.527-10.779,6.94-16.25,12.587
		c-0.803,0.835-1.867,1.246-2.937,1.246c-1.02,0-2.046-0.384-2.842-1.144c-1.615-1.574-1.665-4.161-0.094-5.783
		c2.211-2.275,13.586-13.713,20.731-14.948c6.34-1.099,12.126,3.025,18.827,7.813c2.039,1.457,4.147,2.963,6.44,4.459
		C201.578,238.11,202.109,240.631,200.88,242.521z M215.931,221.796c-0.767,2.118-3.114,3.224-5.226,2.457
		c-4.086-1.479-9.551-4.863-15.331-8.433c-5.482-3.388-14.678-9.048-17.221-8.877c-4.079,0.705-22.894,14.441-29.979,19.619
		c-2.211,1.608-4.113,2.995-5.47,3.963c-0.719,0.5-1.539,0.739-2.354,0.739c-1.28,0-2.541-0.596-3.34-1.725
		c-1.301-1.841-0.854-4.387,0.979-5.688c1.307-0.924,3.188-2.293,5.364-3.888c17.802-12.99,28.402-20.197,33.447-21.073
		c4.986-0.855,11.93,3.237,22.859,9.992c5.175,3.196,10.527,6.502,13.819,7.693C215.603,217.34,216.701,219.674,215.931,221.796z
		 M226.279,201.739c-0.712,2.132-3.015,3.289-5.16,2.584c-6.817-2.276-14.25-7.57-21.437-12.689
		c-6.817-4.853-15.297-10.886-18.764-10.297c-3.822,0.66-15.626,8.445-25.119,14.698c-11.747,7.74-22.848,15.061-29.15,16.762
		c-0.349,0.089-0.704,0.137-1.061,0.137c-1.802,0-3.441-1.198-3.936-3.025c-0.588-2.173,0.705-4.415,2.88-5.003
		c5.025-1.355,16.575-8.967,26.77-15.688c14.147-9.322,23.1-15.044,28.226-15.934c6.824-1.171,15.194,4.788,24.896,11.704
		c6.697,4.767,13.627,9.698,19.28,11.587C225.842,197.287,226.991,199.593,226.279,201.739z M225.52,181.771
		c-12.299-3.792-23.469-12.861-28.335-24.861c-0.835-2.067,0.89-4.481,2.851-5.023c2.341-0.645,4.186,0.795,5.023,2.852
		c2.635,6.497,8.056,11.583,13.997,15.094c3.244,1.921,5.578,3.112,8.638,4.063C232.706,175.44,230.574,183.324,225.52,181.771z
		 M237.08,158.18c-1.232,2.109-3.532,2.334-5.585,1.458c-9.315-3.929-17.111-9.664-18.856-20.252
		c-0.849-5.146,7.022-7.357,7.878-2.168c0.657,3.977,2.118,7.418,5.271,10.046c2.867,2.384,6.427,3.895,9.828,5.33
		C237.668,153.462,238.1,156.448,237.08,158.18z"/>
</g>
<g>
</g>
<g>
</g>
<g>
</g>
<g>
</g>
<g>
</g>
<g>
</g>
<g>
</g>
<g>
</g>
<g>
</g>
<g>
</g>
<g>
</g>
<g>
</g>
<g>
</g>
<g>
</g>
<g>
</g>
</svg>
