<?xml version="1.0" encoding="iso-8859-1"?>
<!-- Generator: Adobe Illustrator 16.0.0, SVG Export Plug-In . SVG Version: 6.00 Build 0)  -->
<!DOCTYPE svg PUBLIC "-//W3C//DTD SVG 1.1//EN" "http://www.w3.org/Graphics/SVG/1.1/DTD/svg11.dtd">
<svg version="1.1" id="Capa_1" xmlns="http://www.w3.org/2000/svg" xmlns:xlink="http://www.w3.org/1999/xlink" x="0px" y="0px"
	 width="317.769px" height="317.769px" viewBox="0 0 317.769 317.769" style="enable-background:new 0 0 317.769 317.769;"
	 xml:space="preserve">
<g>
	<g>
		<path d="M45.479,89.307c2.126,0.465,4.1,0.43,10.162-4.23c2.698-2.068,6.678-5.554,10.355-10.418l1.609-2.134
			c13.771-18.317,46.014-61.204,92.583-58.876c38.409,2.808,65.633,31.805,78.729,83.878c0.445,1.771,0.712,2.853,1.014,3.691
			c1.998,8.515,5.358,19.123,10.197,22.614c1.198,0.869,2.588,1.285,3.963,1.285c2.105,0,4.176-0.977,5.503-2.813
			c2.118-2.935,1.547-6.985-1.225-9.235c-1.345-1.728-3.856-8.981-5.353-15.458c-0.089-0.385-0.212-0.76-0.366-1.121
			c-0.126-0.441-0.366-1.405-0.589-2.271c-2.073-8.25-7.59-30.178-20.96-50.799c-17.269-26.629-40.827-41.192-70.013-43.299
			c-0.041-0.003-0.087-0.007-0.144-0.007c-53.79-2.745-89.106,44.212-104.179,64.261l-1.586,2.11c-4.129,5.457-9,8.848-10.686,9.837
			c-0.568,0.221-1.114,0.525-1.629,0.914c-2.11,1.598-3.136,4.326-2.565,6.911C40.874,86.716,42.892,88.739,45.479,89.307z"/>
		<path d="M215.3,115.309c5.12-12.784,5.243-25.988,0.336-36.235c-4.367-9.136-12.519-15.754-23.565-19.137
			c-16.214-4.962-35.871,4.042-53.878,24.674c-0.224,0.253-25.859,27.214-52.778,43.696c-0.2,0.114-19.905,11.938-40.486,17.542
			c-3.605,0.985-5.742,4.714-4.755,8.323c0.985,3.616,4.71,5.75,8.323,4.762c22.389-6.094,43.058-18.496,43.961-19.042
			c29.205-17.882,55.687-46.065,55.911-46.324c10.93-12.523,27.109-24.53,39.73-20.668c7.426,2.278,12.576,6.324,15.304,12.034
			c3.274,6.826,3.019,16.063-0.698,25.336c-6.906,17.261-28.414,38.109-60.562,58.697c-16.127,10.332-56.728,35.68-85.396,47.938
			c-3.441,1.476-5.042,5.459-3.575,8.897c1.101,2.574,3.605,4.121,6.242,4.121c0.883,0,1.793-0.179,2.663-0.545
			c29.602-12.661,70.969-38.475,87.376-48.987C173.864,164.753,205.109,140.768,215.3,115.309z"/>
		<path d="M106.099,64.685c-3.073,3.393-5.838,7.031-8.817,10.506c-3.893,4.557-8.15,8.81-12.594,12.819
			c-4.574,4.127-8.266,7.082-13.666,10.176c-5.717,3.283-11.548,6.603-17.474,9.486c-2.033,0.992-3.785,1.641-6.076,2.327
			c-3.539,1.066-5.737,4.718-4.738,8.343c0.963,3.498,4.805,5.797,8.343,4.738c6.935-2.088,13.214-5.652,19.474-9.213
			c5.286-3.003,10.542-5.708,15.401-9.405c9.466-7.2,17.616-15.612,25.112-24.811c3.032-3.725,6.283-7.274,9.673-10.684
			c1.846-1.86,3.763-3.655,5.715-5.407c1.02-0.914,2.053-1.805,3.101-2.685c0.527-0.444,1.069-0.883,1.602-1.321
			c0.137-0.115,1.192-0.946,1.465-1.164c4.717-3.615,9.746-6.829,15.044-9.549c4.998-2.568,10.013-4.374,16.1-5.638
			c2.019-0.416,2.457-0.465,3.97-0.619c3.675-0.378,6.782-2.798,6.782-6.781c0-3.41-3.094-7.166-6.782-6.784
			C143.217,31.567,122.25,46.891,106.099,64.685z"/>
		<path d="M53.328,194.52c14.729-5.052,90.366-33.298,132.716-92.66c2.17-3.049,1.465-7.283-1.577-9.459
			c-3.053-2.177-7.289-1.465-9.459,1.581c-39.949,55.999-112.037,82.89-126.081,87.715c-0.301,0.103-0.488,0.168-0.555,0.195
			c-3.497,1.328-5.263,5.235-3.936,8.74c1.028,2.714,3.601,4.38,6.34,4.38c0.775,0,1.554-0.13,2.313-0.403L53.328,194.52z"/>
		<path d="M141.73,223.132c1.567-7.275,4.173-14.168,7.667-20.513c-8.15,4.562-18.619,11.362-31.791,20.051
			c-16.933,11.159-36.119,23.808-44.466,26.053c-3.614,0.979-5.758,4.702-4.784,8.312c0.813,3.028,3.554,5.023,6.543,5.023
			c0.582,0,1.177-0.075,1.766-0.232c10.457-2.819,28.89-14.965,48.405-27.829C130.405,230.476,136.173,226.671,141.73,223.132z"/>
		<path d="M140.574,248.402c-9.212,5.886-21.14,14.359-36.17,25.334c-3.614,2.642-6.742,4.918-8.904,6.454
			c-3.06,2.163-3.785,6.393-1.629,9.452c1.321,1.865,3.415,2.864,5.543,2.864c1.355,0,2.716-0.403,3.907-1.242
			c2.253-1.588,5.414-3.901,9.082-6.574c6.771-4.941,19.972-14.578,31.273-22.106C142.205,258.025,141.163,253.285,140.574,248.402z
			"/>
		<path d="M153.284,282.168c-11.841,4.034-28.313,20.591-31.716,24.102c-2.601,2.693-2.534,6.981,0.157,9.589
			c1.314,1.273,3.017,1.91,4.717,1.91c1.773,0,3.545-0.691,4.875-2.067c9.083-9.377,21.982-20.036,26.986-20.902
			c2.292-0.39,5.148,0.575,8.393,2.3C161.6,292.732,157.082,287.719,153.284,282.168z"/>
		<path d="M257.625,161.848c-5.653-2.389-11.563-4.898-16.316-8.854c-5.236-4.356-7.673-10.078-8.761-16.688
			c-1.424-8.61-14.489-4.943-13.079,3.607c1.923,11.663,8.274,19.759,16.84,25.81c6.971,1.91,13.562,4.777,19.603,8.47
			c1.643-0.346,3.121-1.311,4.147-3.069C261.746,168.248,261.034,163.286,257.625,161.848z"/>
		<path d="M198.531,160.678c-2.457,0.678-4.702,3.148-5.041,5.804c4.025-1.26,8.193-2.177,12.475-2.755
			C204.355,161.277,201.728,159.802,198.531,160.678z"/>
		<path d="M212.131,169.801c-36.227,0-65.705,29.479-65.705,65.706c0,36.233,29.479,65.705,65.705,65.705
			c36.234,0,65.706-29.472,65.706-65.705C277.837,199.284,248.365,169.801,212.131,169.801z M212.131,287.195
			c-28.499,0-51.688-23.185-51.688-51.688c0-28.5,23.188-51.688,51.688-51.688c28.5,0,51.688,23.188,51.688,51.688
			C263.819,264.01,240.631,287.195,212.131,287.195z"/>
		<path d="M190.955,225.014h11.539v45.269c0,1.711,1.387,3.101,3.101,3.101h13.079c1.712,0,3.101-1.386,3.101-3.101v-45.269h11.54
			c1.252,0,2.382-0.756,2.861-1.916c0.479-1.156,0.212-2.491-0.671-3.374l-21.184-21.184c-0.603-0.602-1.396-0.906-2.19-0.906
			s-1.581,0.305-2.189,0.906l-21.177,21.184c-0.89,0.883-1.157,2.218-0.678,3.374C188.566,224.258,189.699,225.014,190.955,225.014z
			"/>
	</g>
</g>
<g>
</g>
<g>
</g>
<g>
</g>
<g>
</g>
<g>
</g>
<g>
</g>
<g>
</g>
<g>
</g>
<g>
</g>
<g>
</g>
<g>
</g>
<g>
</g>
<g>
</g>
<g>
</g>
<g>
</g>
</svg>
