<?xml version="1.0" encoding="iso-8859-1"?>
<!-- Generator: Adobe Illustrator 16.0.0, SVG Export Plug-In . SVG Version: 6.00 Build 0)  -->
<!DOCTYPE svg PUBLIC "-//W3C//DTD SVG 1.1//EN" "http://www.w3.org/Graphics/SVG/1.1/DTD/svg11.dtd">
<svg version="1.1" id="Capa_1" xmlns="http://www.w3.org/2000/svg" xmlns:xlink="http://www.w3.org/1999/xlink" x="0px" y="0px"
	 width="344.002px" height="344.002px" viewBox="0 0 344.002 344.002" style="enable-background:new 0 0 344.002 344.002;"
	 xml:space="preserve">
<g>
	<g>
		<path d="M66.973,102.423c2.127,0.467,4.1,0.435,10.162-4.223c2.699-2.07,6.68-5.558,10.355-10.42l1.608-2.135
			c13.772-18.32,46.015-61.206,92.583-58.875c38.41,2.803,65.63,31.804,78.729,83.879c0.445,1.77,0.712,2.856,1.014,3.689
			c1.998,8.516,5.359,19.126,10.198,22.617c1.197,0.866,2.587,1.28,3.962,1.28c2.102,0,4.176-0.975,5.504-2.814
			c2.114-2.93,1.546-6.979-1.226-9.227c-1.342-1.731-3.856-8.981-5.353-15.461c-0.089-0.382-0.212-0.76-0.362-1.121
			c-0.13-0.441-0.37-1.406-0.589-2.272c-2.077-8.251-7.59-30.175-20.964-50.797c-17.269-26.626-40.827-41.198-70.011-43.302
			c-0.041-0.003-0.089-0.003-0.144-0.012c-53.79-2.743-89.106,44.214-104.178,64.27l-1.588,2.101
			c-4.129,5.46-8.999,8.857-10.684,9.84c-0.568,0.221-1.116,0.525-1.63,0.916c-2.11,1.602-3.137,4.324-2.565,6.906
			C62.365,99.845,64.384,101.864,66.973,102.423z"/>
		<path d="M236.793,128.432c5.119-12.783,5.242-25.995,0.335-36.234c-4.366-9.135-12.518-15.759-23.564-19.144
			c-16.215-4.962-35.871,4.043-53.88,24.674c-0.224,0.251-25.858,27.215-52.778,43.694c-0.2,0.123-19.905,11.943-40.486,17.55
			c-1.766,0.479-3.174,1.625-4.043,3.087h34.261c9.931-4.618,16.796-8.737,17.308-9.048c29.205-17.879,55.687-46.057,55.911-46.315
			c10.931-12.525,27.11-24.537,39.731-20.668c7.426,2.271,12.573,6.317,15.304,12.025c3.271,6.831,3.019,16.067-0.698,25.339
			c-4.661,11.652-15.995,24.934-32.743,38.667h20.479C222.871,151.613,232.084,140.185,236.793,128.432z"/>
		<path d="M183.571,185.032h-24.55c-18.304,11.588-54.524,33.771-80.786,44.995c-3.441,1.472-5.042,5.458-3.574,8.904
			c1.1,2.566,3.607,4.113,6.242,4.113c0.883,0,1.793-0.175,2.662-0.548c29.602-12.654,70.969-38.472,87.376-48.98
			C175.004,190.912,179.26,188.062,183.571,185.032z"/>
		<path d="M72.57,136.205c6.935-2.086,13.215-5.653,19.472-9.209c5.286-3.008,10.542-5.715,15.401-9.413
			c9.466-7.202,17.617-15.608,25.112-24.811c3.032-3.725,6.283-7.276,9.673-10.681c1.846-1.858,3.763-3.655,5.715-5.411
			c1.02-0.912,2.053-1.802,3.102-2.681c0.525-0.448,1.068-0.886,1.602-1.324c0.135-0.113,1.191-0.939,1.465-1.157
			c4.716-3.621,9.745-6.837,15.044-9.557c4.997-2.564,10.011-4.366,16.099-5.631c2.02-0.424,2.457-0.465,3.97-0.625
			c3.676-0.382,6.783-2.799,6.783-6.785c0-3.408-3.094-7.159-6.783-6.779c-24.509,2.543-45.475,17.864-61.628,35.659
			c-3.073,3.391-5.838,7.029-8.815,10.502c-3.895,4.558-8.151,8.809-12.595,12.826c-4.572,4.127-8.266,7.077-13.667,10.172
			c-5.715,3.284-11.546,6.602-17.472,9.486c-2.033,0.994-3.785,1.639-6.078,2.331c-3.539,1.061-5.736,4.712-4.738,8.34
			C65.194,134.968,69.03,137.27,72.57,136.205z"/>
		<path d="M74.824,207.643c6.794-2.334,26.583-9.619,50.071-22.61H94.753c-11.471,5.185-20.302,8.401-24.332,9.788
			c-0.301,0.099-0.486,0.171-0.552,0.198c-3.498,1.32-5.264,5.235-3.936,8.74c1.026,2.707,3.598,4.38,6.339,4.38
			c0.773,0,1.552-0.133,2.312-0.41L74.824,207.643z"/>
		<path d="M205.959,105.525c-3.053-2.176-7.289-1.472-9.459,1.58c-16.494,23.118-38.465,41.263-59.564,54.955h23.613
			c17.003-12.773,33.648-28.378,46.991-47.084C209.71,111.93,209.005,107.697,205.959,105.525z"/>
		<path d="M259.331,248.011c-9.397-3.139-20.896-11.327-32.018-19.246c-16.111-11.468-30.013-21.382-41.347-19.428
			c-8.518,1.472-23.389,10.975-46.872,26.457c-16.933,11.162-36.119,23.808-44.466,26.06c-3.614,0.968-5.758,4.695-4.784,8.309
			c0.813,3.021,3.554,5.021,6.543,5.021c0.582,0,1.177-0.075,1.766-0.236c10.457-2.812,28.89-14.965,48.405-27.825
			c15.762-10.39,35.38-23.319,41.714-24.414c5.763-0.979,19.849,9.045,31.176,17.11c11.93,8.501,24.271,17.289,35.591,21.061
			c3.552,1.191,7.388-0.736,8.575-4.284C264.8,253.031,262.884,249.191,259.331,248.011z"/>
		<path d="M242.357,281.226c-5.473-1.975-14.353-7.467-22.942-12.774c-18.154-11.215-29.694-18.021-37.966-16.587
			c-8.387,1.443-25.996,13.414-55.558,34.994c-3.612,2.639-6.742,4.922-8.905,6.455c-3.059,2.155-3.785,6.389-1.629,9.445
			c1.321,1.871,3.417,2.867,5.544,2.867c1.355,0,2.715-0.4,3.906-1.238c2.254-1.596,5.414-3.901,9.084-6.578
			c11.757-8.59,43.006-31.401,49.792-32.572c4.223-0.287,19.482,9.117,28.592,14.75c9.603,5.934,18.679,11.536,25.465,13.99
			c3.518,1.27,7.412-0.548,8.688-4.073C247.703,286.387,245.875,282.496,242.357,281.226z"/>
		<path d="M219.456,314.935c-3.812-2.488-7.316-4.986-10.697-7.396c-11.122-7.942-20.738-14.808-31.272-12.977
			c-11.864,2.05-30.76,21.046-34.428,24.834c-2.599,2.693-2.534,6.985,0.158,9.582c1.314,1.276,3.018,1.91,4.717,1.91
			c1.772,0,3.547-0.688,4.875-2.061c9.083-9.384,21.982-20.04,26.985-20.905c4.956-0.846,12.437,4.473,21.088,10.646
			c3.333,2.382,7.111,5.079,11.166,7.721c3.139,2.047,7.341,1.163,9.388-1.975C223.48,321.18,222.591,316.98,219.456,314.935z"/>
		<path d="M240.961,153.035c0.541,3.28,1.431,6.273,2.621,9.024h15.414c-2.693-3.641-4.182-7.905-4.955-12.629
			C252.617,140.816,239.551,144.481,240.961,153.035z"/>
		<path d="M272.273,186.679c3.121,1.32,6.578,1.081,8.71-1.649h-12.398C269.796,185.597,271.021,186.151,272.273,186.679z"/>
		<path d="M265.957,210.35c-5.086-1.567-8.953-3.556-14.346-6.738c-7.782-4.603-14.989-10.862-19.855-18.582h-15.182
			c8.638,18.483,26.345,32.411,45.782,38.394C270.734,226.006,274.293,212.92,265.957,210.35z"/>
		<rect x="39.825" y="168.122" width="267.491" height="8.954"/>
		<rect x="319.473" y="163.812" width="24.529" height="17.58"/>
		<rect y="163.812" width="24.53" height="17.58"/>
	</g>
</g>
<g>
</g>
<g>
</g>
<g>
</g>
<g>
</g>
<g>
</g>
<g>
</g>
<g>
</g>
<g>
</g>
<g>
</g>
<g>
</g>
<g>
</g>
<g>
</g>
<g>
</g>
<g>
</g>
<g>
</g>
</svg>
