<?xml version="1.0" encoding="iso-8859-1"?>
<!-- Generator: Adobe Illustrator 16.0.0, SVG Export Plug-In . SVG Version: 6.00 Build 0)  -->
<!DOCTYPE svg PUBLIC "-//W3C//DTD SVG 1.1//EN" "http://www.w3.org/Graphics/SVG/1.1/DTD/svg11.dtd">
<svg version="1.1" id="Capa_1" xmlns="http://www.w3.org/2000/svg" xmlns:xlink="http://www.w3.org/1999/xlink" x="0px" y="0px"
	 width="317.77px" height="317.769px" viewBox="0 0 317.77 317.769" style="enable-background:new 0 0 317.77 317.769;"
	 xml:space="preserve">
<g>
	<g>
		<path d="M51.296,89.305c2.134,0.467,4.107,0.432,10.169-4.225c2.698-2.072,6.673-5.556,10.355-10.422l1.608-2.134
			c13.772-18.319,46.016-61.204,92.584-58.876c38.404,2.808,65.624,31.805,78.724,83.878c0.445,1.773,0.719,2.856,1.021,3.689
			c1.998,8.516,5.352,19.126,10.19,22.617c1.198,0.866,2.587,1.283,3.963,1.283c2.102,0,4.183-0.979,5.503-2.815
			c2.115-2.929,1.551-6.979-1.229-9.229c-1.335-1.728-3.854-8.981-5.349-15.458c-0.089-0.385-0.209-0.76-0.366-1.121
			c-0.123-0.445-0.366-1.41-0.589-2.271c-2.073-8.253-7.59-30.18-20.961-50.799c-17.271-26.629-40.819-41.196-70.007-43.302
			c-0.048,0-0.096-0.003-0.144-0.007C112.972-2.629,77.663,44.328,62.588,64.38l-1.581,2.106c-4.127,5.457-9.005,8.852-10.684,9.837
			c-0.568,0.223-1.116,0.525-1.63,0.917c-2.108,1.598-3.14,4.324-2.572,6.907C46.692,86.723,48.718,88.743,51.296,89.305z"/>
		<path d="M221.118,115.312c5.119-12.785,5.242-25.991,0.345-36.235c-4.373-9.136-12.524-15.759-23.575-19.14
			c-16.214-4.962-35.86,4.043-53.871,24.674c-0.231,0.251-25.865,27.214-52.785,43.696c-0.193,0.118-19.905,11.941-40.478,17.545
			c-3.614,0.98-5.744,4.712-4.764,8.323c0.986,3.608,4.711,5.747,8.323,4.759c22.39-6.09,43.064-18.492,43.97-19.043
			c29.198-17.879,55.679-46.061,55.903-46.319c10.938-12.525,27.112-24.534,39.732-20.668c7.427,2.274,12.58,6.321,15.312,12.029
			c3.265,6.83,3.011,16.065-0.698,25.336c-6.906,17.266-28.414,38.109-60.572,58.702c-16.127,10.331-56.721,35.676-85.397,47.934
			c-3.441,1.472-5.039,5.459-3.566,8.901c1.101,2.57,3.605,4.12,6.234,4.12c0.89,0,1.795-0.182,2.662-0.548
			c29.609-12.658,70.971-38.475,87.383-48.987C179.692,164.76,210.937,140.773,221.118,115.312z"/>
		<path d="M111.925,64.688c-3.082,3.396-5.847,7.029-8.817,10.506c-3.895,4.559-8.151,8.811-12.602,12.823
			c-4.572,4.127-8.266,7.082-13.66,10.172c-5.722,3.287-11.546,6.606-17.472,9.486c-2.04,0.996-3.792,1.645-6.084,2.331
			c-3.532,1.066-5.729,4.712-4.729,8.34c0.957,3.498,4.796,5.799,8.336,4.738c6.935-2.084,13.214-5.652,19.48-9.209
			c5.284-3.006,10.534-5.711,15.393-9.409c9.472-7.202,17.617-15.612,25.112-24.811c3.039-3.725,6.285-7.273,9.672-10.684
			c1.854-1.858,3.763-3.655,5.722-5.407c1.013-0.912,2.053-1.802,3.095-2.685c0.532-0.445,1.068-0.883,1.608-1.321
			c0.137-0.116,1.191-0.946,1.465-1.163c4.723-3.618,9.745-6.831,15.037-9.55c5.003-2.565,10.02-4.37,16.104-5.635
			c2.019-0.421,2.457-0.465,3.973-0.619c3.676-0.383,6.783-2.801,6.783-6.786c0-3.409-3.101-7.163-6.783-6.783
			C149.042,31.572,128.08,46.893,111.925,64.688z"/>
		<path d="M59.157,194.527c14.727-5.059,90.357-33.298,132.711-92.666c2.177-3.044,1.465-7.281-1.581-9.454
			c-3.045-2.177-7.282-1.468-9.459,1.581c-39.948,55.993-112.034,82.89-126.081,87.712c-0.301,0.103-0.486,0.171-0.546,0.198
			c-3.504,1.324-5.27,5.235-3.942,8.74c1.026,2.71,3.605,4.38,6.346,4.38c0.767,0,1.545-0.133,2.312-0.407L59.157,194.527z"/>
		<path d="M172.608,209.584c4.675-0.798,14.846,5.66,24.564,12.436l3.535-10.868c0.277-0.855,0.637-1.674,1.02-2.468
			c-11.943-8.162-22.483-14.007-31.426-12.467c-8.514,1.472-23.394,10.979-46.876,26.46c-16.926,11.156-36.119,23.805-44.462,26.053
			c-3.621,0.976-5.765,4.699-4.782,8.312c0.812,3.025,3.552,5.021,6.541,5.021c0.582,0,1.177-0.075,1.766-0.232
			c10.458-2.816,28.89-14.966,48.405-27.829C146.651,223.608,166.271,210.679,172.608,209.584z"/>
		<path d="M153.436,245.497c0.207-0.627,0.488-1.205,0.746-1.801c-9.888,5.575-24.25,15.66-43.955,30.044
			c-3.619,2.638-6.741,4.917-8.911,6.454c-3.06,2.159-3.785,6.389-1.622,9.444c1.321,1.869,3.417,2.868,5.544,2.868
			c1.348,0,2.715-0.403,3.899-1.239c2.26-1.591,5.422-3.9,9.084-6.573c7.762-5.664,23.955-17.48,36.056-25.231
			C152.315,255.17,151.901,250.222,153.436,245.497z"/>
		<path d="M161.815,281.439c-11.863,2.047-30.75,21.047-34.42,24.831c-2.606,2.697-2.532,6.985,0.159,9.589
			c1.314,1.273,3.01,1.91,4.716,1.91c1.766,0,3.54-0.691,4.868-2.063c9.083-9.381,21.982-20.037,26.994-20.906
			c2.348-0.397,5.271,0.612,8.61,2.413l4.25-13.066C171.958,281.748,167.003,280.542,161.815,281.439z"/>
		<path d="M265.883,171.129c1.681-2.875,0.973-7.837-2.43-9.277c-5.649-2.389-11.56-4.896-16.32-8.855
			c-5.235-4.353-7.672-10.075-8.761-16.685c-1.417-8.613-14.485-4.943-13.079,3.602c2.902,17.593,15.848,27.112,31.319,33.652
			C260.011,174.997,263.837,174.624,265.883,171.129z"/>
		<path d="M235.946,190.489c-9.87-5.832-18.87-14.277-23.243-25.071c-1.39-3.422-4.463-5.801-8.344-4.736
			c-3.254,0.894-6.126,4.911-4.739,8.34c4.746,11.707,13.113,21.703,23.346,29.263c4.456,0.928,8.395,3.378,11.177,6.906
			c4.041,2.063,8.247,3.795,12.535,5.12c8.388,2.58,11.937-10.514,3.607-13.076C245.196,195.663,241.332,193.678,235.946,190.489z"
			/>
		<path d="M271.674,243.457c-0.941-2.889-3.635-4.842-6.667-4.842h-31.021l-9.579-29.496c-0.941-2.889-3.627-4.846-6.666-4.846
			c-3.032,0-5.729,1.957-6.663,4.846l-9.582,29.496h-31.012c-3.039,0-5.732,1.953-6.666,4.842c-0.938,2.889,0.085,6.054,2.546,7.837
			l25.091,18.227l-9.585,29.499c-0.941,2.885,0.086,6.05,2.546,7.833c2.457,1.786,5.783,1.786,8.24,0l25.092-18.227l25.091,18.227
			c1.235,0.89,2.677,1.342,4.121,1.342c1.443,0,2.895-0.452,4.123-1.342c2.454-1.786,3.48-4.948,2.546-7.833l-9.582-29.499
			l25.092-18.227C271.584,249.507,272.611,246.345,271.674,243.457z"/>
	</g>
</g>
<g>
</g>
<g>
</g>
<g>
</g>
<g>
</g>
<g>
</g>
<g>
</g>
<g>
</g>
<g>
</g>
<g>
</g>
<g>
</g>
<g>
</g>
<g>
</g>
<g>
</g>
<g>
</g>
<g>
</g>
</svg>
