<?xml version="1.0" encoding="iso-8859-1"?>
<!-- Generator: Adobe Illustrator 16.0.0, SVG Export Plug-In . SVG Version: 6.00 Build 0)  -->
<!DOCTYPE svg PUBLIC "-//W3C//DTD SVG 1.1//EN" "http://www.w3.org/Graphics/SVG/1.1/DTD/svg11.dtd">
<svg version="1.1" id="Capa_1" xmlns="http://www.w3.org/2000/svg" xmlns:xlink="http://www.w3.org/1999/xlink" x="0px" y="0px"
	 width="317.772px" height="317.772px" viewBox="0 0 317.772 317.772" style="enable-background:new 0 0 317.772 317.772;"
	 xml:space="preserve">
<g>
	<g>
		<path d="M53.931,89.306c2.127,0.467,4.1,0.438,10.169-4.223c2.691-2.067,6.671-5.558,10.355-10.417l1.608-2.135
			c13.772-18.324,46.014-61.209,92.584-58.875c38.404,2.799,65.624,31.806,78.724,83.879c0.445,1.766,0.719,2.853,1.013,3.689
			c2.006,8.516,5.359,19.123,10.198,22.614c1.198,0.869,2.584,1.28,3.963,1.28c2.102,0,4.172-0.972,5.503-2.815
			c2.115-2.929,1.551-6.979-1.229-9.226c-1.335-1.731-3.854-8.981-5.349-15.461c-0.089-0.381-0.216-0.76-0.366-1.121
			c-0.123-0.438-0.366-1.403-0.589-2.272c-2.073-8.251-7.59-30.175-20.964-50.797c-17.269-26.626-40.816-41.198-70.004-43.296
			c-0.048-0.007-0.096-0.007-0.144-0.014C115.607-2.629,80.297,44.328,65.221,64.384l-1.586,2.103
			c-4.129,5.464-9,8.855-10.679,9.844c-0.573,0.219-1.121,0.525-1.629,0.911c-2.109,1.602-3.14,4.324-2.572,6.906
			C49.323,86.727,51.348,88.746,53.931,89.306z"/>
		<path d="M223.752,115.315c5.12-12.785,5.243-25.996,0.346-36.235c-4.373-9.136-12.524-15.756-23.575-19.144
			c-16.214-4.962-35.871,4.043-53.871,24.674c-0.231,0.251-25.865,27.215-52.785,43.694c-0.2,0.123-19.905,11.943-40.479,17.55
			c-3.612,0.984-5.75,4.709-4.762,8.323c0.989,3.612,4.711,5.749,8.323,4.755c22.39-6.09,43.064-18.491,43.968-19.042
			c29.198-17.879,55.68-46.057,55.905-46.315c10.938-12.525,27.108-24.537,39.732-20.67c7.427,2.272,12.58,6.319,15.311,12.027
			c3.266,6.831,3.009,16.07-0.697,25.343c-6.913,17.263-28.425,38.109-60.572,58.699c-16.127,10.328-56.728,35.673-85.397,47.931
			c-3.441,1.472-5.039,5.465-3.567,8.904c1.097,2.573,3.6,4.113,6.235,4.113c0.89,0,1.793-0.171,2.663-0.544
			c29.608-12.655,70.969-38.476,87.376-48.981C182.32,164.761,213.558,140.776,223.752,115.315z"/>
		<path d="M114.548,64.695c-3.073,3.388-5.838,7.029-8.811,10.499c-3.893,4.558-8.156,8.81-12.6,12.826
			c-4.574,4.127-8.266,7.077-13.66,10.176c-5.724,3.28-11.546,6.598-17.474,9.486c-2.04,0.991-3.792,1.636-6.083,2.327
			c-3.538,1.061-5.729,4.716-4.738,8.343c0.963,3.498,4.805,5.796,8.343,4.738c6.935-2.089,13.215-5.653,19.474-9.212
			c5.292-3.003,10.542-5.715,15.401-9.413c9.466-7.202,17.616-15.605,25.112-24.811c3.039-3.726,6.283-7.276,9.672-10.677
			c1.853-1.862,3.763-3.655,5.722-5.414c1.013-0.912,2.046-1.802,3.093-2.678c0.527-0.452,1.07-0.89,1.602-1.328
			c0.144-0.11,1.193-0.939,1.465-1.157c4.724-3.62,9.753-6.837,15.044-9.556c4.998-2.565,10.022-4.367,16.106-5.631
			c2.013-0.424,2.457-0.465,3.963-0.624c3.679-0.382,6.786-2.8,6.786-6.785c0-3.409-3.094-7.159-6.786-6.776
			C151.666,31.575,130.709,46.9,114.548,64.695z"/>
		<path d="M61.78,194.526c14.736-5.058,90.366-33.298,132.72-92.665c2.176-3.044,1.465-7.273-1.581-9.45s-7.282-1.472-9.459,1.579
			c-39.949,55.995-112.037,82.892-126.081,87.71c-0.301,0.103-0.488,0.171-0.546,0.202c-3.504,1.321-5.271,5.232-3.942,8.736
			c1.027,2.711,3.605,4.381,6.345,4.381c0.769,0,1.547-0.127,2.313-0.407L61.78,194.526z"/>
		<path d="M150.18,223.136c1.574-7.269,4.173-14.161,7.667-20.509c-8.15,4.562-18.618,11.361-31.79,20.051
			c-16.926,11.163-36.119,23.811-44.462,26.056c-3.621,0.972-5.765,4.695-4.791,8.31c0.819,3.025,3.554,5.027,6.543,5.027
			c0.589,0,1.177-0.076,1.766-0.24c10.463-2.812,28.896-14.965,48.408-27.829C138.854,230.479,144.629,226.682,150.18,223.136z"/>
		<path d="M149.022,248.412c-9.212,5.879-21.133,14.359-36.164,25.334c-3.621,2.643-6.742,4.918-8.911,6.454
			c-3.06,2.156-3.785,6.393-1.629,9.442c1.328,1.875,3.422,2.874,5.544,2.874c1.355,0,2.722-0.403,3.906-1.242
			c2.253-1.595,5.421-3.901,9.083-6.577c6.771-4.941,19.972-14.578,31.273-22.11C150.653,258.035,149.611,253.289,149.022,248.412z"
			/>
		<path d="M161.732,282.175c-11.833,4.038-28.313,20.595-31.709,24.106c-2.608,2.692-2.541,6.98,0.15,9.582
			c1.321,1.279,3.017,1.909,4.717,1.909c1.773,0,3.545-0.691,4.875-2.061c9.083-9.384,21.984-20.04,26.987-20.902
			c2.3-0.396,5.153,0.575,8.395,2.3C170.049,292.742,165.531,287.723,161.732,282.175z"/>
		<path d="M266.078,161.852c-5.654-2.383-11.561-4.892-16.317-8.848c-5.235-4.36-7.669-10.082-8.761-16.688
			c-1.42-8.61-14.489-4.948-13.076,3.605c1.924,11.656,8.271,19.761,16.837,25.812c6.981,1.91,13.565,4.768,19.603,8.467
			c1.652-0.346,3.131-1.314,4.158-3.066C270.194,168.258,269.482,163.296,266.078,161.852z"/>
		<path d="M206.987,160.688c-2.461,0.678-4.702,3.148-5.041,5.797c4.021-1.259,8.199-2.17,12.478-2.751
			C212.812,161.28,210.18,159.806,206.987,160.688z"/>
		<path d="M183.908,203.438l-7.323-9.52c-0.523-0.685-1.308-0.897-1.981-0.521c-0.698,0.353-1.137,1.235-1.13,2.19l0.056,37.35
			c-0.008,1.3,0.804,2.354,1.823,2.354l28.709,0.041c0.739,0.011,1.396-0.564,1.684-1.464c0.287-0.89,0.13-1.903-0.397-2.577
			l-8.158-10.602c14.678-17.652,37.657-17.187,52.021,1.471c0.701,0.921,1.865,0.921,2.57-0.006l10.697-13.895
			c0.712-0.924,0.619-2.546-0.106-3.483C240.884,176.854,206.169,176.293,183.908,203.438z"/>
		<path d="M261.088,235.367l-28.712-0.038c-0.739-0.014-1.393,0.562-1.68,1.458c-0.281,0.893-0.13,1.896,0.387,2.573l8.165,10.602
			c-14.678,17.659-37.664,17.189-52.023-1.464c-0.705-0.921-1.869-0.921-2.574,0.006l-10.697,13.897
			c-0.712,0.925-0.609,2.547,0.109,3.484c21.484,27.918,56.206,28.479,78.463,1.335l7.324,9.52c0.526,0.685,1.307,0.896,1.991,0.514
			c0.691-0.346,1.13-1.229,1.123-2.184l-0.059-37.35C262.912,236.414,262.102,235.367,261.088,235.367z"/>
	</g>
</g>
<g>
</g>
<g>
</g>
<g>
</g>
<g>
</g>
<g>
</g>
<g>
</g>
<g>
</g>
<g>
</g>
<g>
</g>
<g>
</g>
<g>
</g>
<g>
</g>
<g>
</g>
<g>
</g>
<g>
</g>
</svg>
