<?xml version="1.0" encoding="iso-8859-1"?>
<!-- Generator: Adobe Illustrator 16.0.0, SVG Export Plug-In . SVG Version: 6.00 Build 0)  -->
<!DOCTYPE svg PUBLIC "-//W3C//DTD SVG 1.1//EN" "http://www.w3.org/Graphics/SVG/1.1/DTD/svg11.dtd">
<svg version="1.1" id="Capa_1" xmlns="http://www.w3.org/2000/svg" xmlns:xlink="http://www.w3.org/1999/xlink" x="0px" y="0px"
	 width="366.541px" height="366.541px" viewBox="0 0 366.541 366.541" style="enable-background:new 0 0 366.541 366.541;"
	 xml:space="preserve">
<g>
	<g>
		<path d="M267.833,0H98.698c-11.225,0-20.35,8.79-20.35,19.597v327.349c0,10.807,9.125,19.595,20.35,19.595h169.135
			c11.225,0,20.358-8.788,20.358-19.595V19.597C288.189,8.79,279.058,0,267.833,0z M183.267,346.021
			c-6.276,0-11.382-5.099-11.382-11.382c0-6.256,5.106-11.361,11.382-11.361c6.281,0,11.38,5.105,11.38,11.361
			C194.647,340.922,189.548,346.021,183.267,346.021z M274.294,303.443H92.265V58.178h182.03V303.443z"/>
	</g>
	<g>
		<path d="M255.658,204.864c-8.323-8.329-21.875-8.322-30.197,0c-5.756,5.757-7.525,14.011-5.325,21.307l-11.525,11.526
			c-0.37,0.376-0.521,0.924-0.384,1.437l1.602,6.133l-6.218-1.54c-0.51-0.13-1.044,0.021-1.41,0.391l-2.707,2.71
			c-0.366,0.362-0.513,0.883-0.403,1.376l0.773,3.497l-4.306-0.239c-0.417-0.021-0.835,0.13-1.129,0.431l-3.717,3.72
			c-0.273,0.271-0.424,0.637-0.438,1.021l-0.267,12.371c-0.014,0.438,0.171,0.862,0.499,1.149c0.335,0.288,0.773,0.418,1.212,0.359
			l11.204-1.704c0.314-0.048,0.602-0.191,0.828-0.414l28.685-28.688c7.733,3.165,16.96,1.629,23.229-4.641
			C263.98,226.732,263.98,213.187,255.658,204.864z M251.161,231.612l-0.523,0.527l-22.261-22.258l0.526-0.521
			c6.133-6.14,16.118-6.14,22.258,0C257.293,215.494,257.293,225.479,251.161,231.612z"/>
		<path d="M124.163,144.762c1.179,0.253,2.264,0.231,5.625-2.34c1.494-1.148,3.698-3.08,5.73-5.768l0.896-1.184
			c7.62-10.138,25.462-33.873,51.238-32.579c21.249,1.552,36.323,17.602,43.564,46.418c0.254,0.977,0.404,1.579,0.568,2.046
			c1.108,4.709,2.964,10.582,5.64,12.517c0.66,0.481,1.427,0.705,2.197,0.705c1.163,0,2.313-0.541,3.046-1.554
			c1.17-1.622,0.852-3.869-0.678-5.112c-0.746-0.957-2.136-4.969-2.964-8.554c-0.052-0.214-0.116-0.418-0.209-0.623
			c-0.071-0.24-0.209-0.775-0.325-1.252c-1.146-4.572-4.199-16.707-11.601-28.115c-9.562-14.734-22.594-22.799-38.746-23.962
			c-0.027-0.007-0.055-0.007-0.082-0.007c-29.771-1.521-49.312,24.467-57.655,35.562l-0.876,1.17
			c-2.285,3.019-4.983,4.899-5.916,5.443c-0.314,0.121-0.625,0.294-0.903,0.508c-1.164,0.883-1.738,2.396-1.424,3.826
			C121.62,143.327,122.734,144.451,124.163,144.762z"/>
		<path d="M218.151,159.151c2.837-7.079,2.901-14.382,0.185-20.054c-2.412-5.058-6.927-8.72-13.038-10.586
			c-8.98-2.745-19.854,2.238-29.821,13.653c-0.128,0.137-14.311,15.057-29.211,24.179c-0.108,0.07-11.021,6.604-22.403,9.71
			c-1.997,0.539-3.181,2.607-2.635,4.601c0.541,2.004,2.607,3.182,4.604,2.637c12.388-3.369,23.833-10.233,24.332-10.535
			c16.158-9.897,30.813-25.487,30.935-25.637c6.059-6.928,15.008-13.572,21.989-11.438c4.113,1.258,6.968,3.497,8.474,6.658
			c1.807,3.778,1.67,8.891-0.384,14.024c-3.826,9.557-15.725,21.089-33.52,32.486c-8.925,5.716-31.388,19.746-47.258,26.525
			c-1.91,0.814-2.792,3.019-1.977,4.928c0.609,1.421,1.997,2.276,3.448,2.276c0.494,0,0.992-0.093,1.478-0.302
			c16.387-7.009,39.28-21.292,48.357-27.106C195.215,186.521,212.511,173.242,218.151,159.151z"/>
		<path d="M157.713,131.139c-1.702,1.874-3.23,3.886-4.881,5.809c-2.154,2.527-4.511,4.875-6.973,7.096
			c-2.527,2.286-4.574,3.915-7.556,5.631c-3.167,1.816-6.391,3.657-9.671,5.25c-1.129,0.548-2.103,0.912-3.368,1.294
			c-1.959,0.582-3.169,2.601-2.622,4.611c0.532,1.938,2.656,3.21,4.611,2.621c3.84-1.156,7.317-3.136,10.778-5.099
			c2.931-1.663,5.832-3.161,8.523-5.207c5.243-3.983,9.753-8.638,13.902-13.729c1.682-2.061,3.475-4.023,5.351-5.916
			c1.02-1.026,2.081-2.019,3.161-2.993c0.568-0.508,1.136-0.999,1.718-1.485c0.294-0.246,0.589-0.487,0.89-0.732
			c0.074-0.063,0.659-0.52,0.806-0.645c2.607-1.999,5.393-3.778,8.323-5.286c2.765-1.422,5.544-2.415,8.911-3.121
			c1.115-0.233,1.362-0.26,2.197-0.344c2.032-0.214,3.75-1.545,3.75-3.749c0-1.889-1.711-3.972-3.75-3.758
			C178.255,112.808,166.652,121.288,157.713,131.139z"/>
		<path d="M128.512,202.989c8.152-2.8,50.01-18.425,73.444-51.284c1.209-1.682,0.814-4.023-0.876-5.228
			c-1.68-1.207-4.027-0.813-5.229,0.876c-22.112,30.991-62.006,45.869-69.774,48.549c-0.173,0.055-0.274,0.085-0.31,0.099
			c-1.937,0.732-2.914,2.902-2.175,4.839c0.566,1.503,1.99,2.423,3.511,2.423c0.424,0,0.854-0.068,1.278-0.222L128.512,202.989z"/>
		<path d="M191.3,211.326c3.183-0.545,10.985,5.006,17.248,9.465c0.835,0.596,1.677,1.198,2.519,1.787
			c-0.075-2.857,0.308-5.695,1.108-8.416c-8.604-6.125-16.057-11.282-22.154-10.231c-4.711,0.811-12.943,6.074-25.94,14.646
			c-9.37,6.177-19.992,13.179-24.604,14.414c-2.004,0.544-3.188,2.598-2.656,4.603c0.458,1.681,1.973,2.786,3.627,2.786
			c0.322,0,0.65-0.052,0.97-0.13c5.789-1.567,15.994-8.289,26.794-15.406C176.934,219.086,187.79,211.934,191.3,211.326z"/>
		<path d="M200.061,239.715c0.205-1.595,0.931-3.121,2.108-4.298l1.649-1.646c-7.386-4.441-12.484-6.971-16.297-6.311
			c-4.637,0.805-14.383,7.426-30.741,19.366c-2.004,1.458-3.729,2.724-4.933,3.576c-1.689,1.201-2.096,3.535-0.898,5.229
			c0.732,1.033,1.889,1.588,3.066,1.588c0.754,0,1.507-0.227,2.163-0.691c1.244-0.883,2.996-2.163,5.025-3.642
			c6.514-4.746,23.811-17.378,27.553-18.031c1.646-0.106,6.27,2.413,10.63,5C199.609,239.811,199.829,239.75,200.061,239.715z"/>
		<path d="M166.277,264.834c-1.442,1.491-1.401,3.866,0.081,5.311c0.732,0.705,1.672,1.062,2.608,1.062
			c0.985,0,1.966-0.38,2.702-1.146c3.153-3.262,7.146-6.797,10.362-9.1l0.063-2.547c0.034-1.923,0.812-3.736,2.184-5.099
			l2.354-2.361c-0.431,0.027-0.869,0.062-1.307,0.144C178.76,252.227,168.303,262.747,166.277,264.834z"/>
		<path d="M237.787,191.388c1.883,0.801,3.997,0.588,5.134-1.349c0.938-1.588,0.54-4.333-1.349-5.134
			c-3.128-1.32-6.399-2.71-9.027-4.9c-2.896-2.411-4.25-5.578-4.853-9.233c-0.78-4.764-8.015-2.738-7.234,1.99
			C222.059,182.503,229.225,187.774,237.787,191.388z"/>
		<path d="M213.49,186.884c-0.773-1.896-2.471-3.217-4.616-2.621c-1.804,0.492-3.392,2.717-2.622,4.619
			c2.413,5.928,6.499,11.067,11.52,15.105c0.407-0.472,0.804-0.958,1.249-1.41c1.396-1.393,2.923-2.597,4.552-3.647
			C219.246,195.85,215.488,191.819,213.49,186.884z"/>
	</g>
</g>
<g>
</g>
<g>
</g>
<g>
</g>
<g>
</g>
<g>
</g>
<g>
</g>
<g>
</g>
<g>
</g>
<g>
</g>
<g>
</g>
<g>
</g>
<g>
</g>
<g>
</g>
<g>
</g>
<g>
</g>
</svg>
