<?xml version="1.0" encoding="iso-8859-1"?>
<!-- Generator: Adobe Illustrator 16.0.0, SVG Export Plug-In . SVG Version: 6.00 Build 0)  -->
<!DOCTYPE svg PUBLIC "-//W3C//DTD SVG 1.1//EN" "http://www.w3.org/Graphics/SVG/1.1/DTD/svg11.dtd">
<svg version="1.1" id="Capa_1" xmlns="http://www.w3.org/2000/svg" xmlns:xlink="http://www.w3.org/1999/xlink" x="0px" y="0px"
	 width="336.425px" height="336.425px" viewBox="0 0 336.425 336.425" style="enable-background:new 0 0 336.425 336.425;"
	 xml:space="preserve">
<g>
	<g>
		<path d="M289.997,77.372c-2.272-1.057-4.691-1.618-6.94-1.618c-3.265,0-5.988,1.143-7.692,3.203
			c-10.055,12.244-19.268,36.059-26.676,55.199c-3.412,8.845-7.994,20.686-11.088,26.248c-1.69-16.288,5.619-75.027,8.429-97.641
			l0.051-0.368c1.951-15.713,2.263-18.468,2.163-19.691c-0.763-8.754-3.815-14.676-9.093-17.595
			c-5.328-2.964-12.573-2.326-20.608,1.802c-4.034,2.082-5.667,10.064-11.539,46.379l-0.027,0.162
			c-3.23,19.946-10.671,65.891-16.386,73.226c-5.085-11.187-8.843-72.946-10.465-99.681c-1.129-18.726-1.8-29.47-2.525-32.762
			c-1.53-6.879-9.568-13.206-17.912-14.104c-6.938-0.83-12.903,2.327-16.057,8.312c-5.503,5.34-5.019,24.376-2.514,69.55
			c1.192,21.495,3.655,65.9-0.171,70.601c-6.9-1.247-16.905-29.656-29.737-84.46c-3.6-15.345-4.731-19.965-6.018-22.046
			c-2.341-7.089-11.546-13.067-20.17-13.067c-0.739,0-1.458,0.05-2.169,0.134c-4.559,0.578-15.101,4.016-14.249,23.349
			c4.188,27.011,9.413,46.981,14.462,66.378l0.103,0.385c3.03,11.609,5.893,22.588,8.417,34.718
			c5.939,28.642,1.649,45.862,1.602,46.063c-0.39,1.773-1.02,2.827-1.875,3.152c-0.315,0.109-0.696,0.178-1.127,0.178
			c-2.521,0-6.162-1.93-8.029-3.145c-3.834-8.809-23.031-50.84-42.605-57.855l-0.705-0.264l-0.732,0.018
			c-7.373,0.187-12.941,2.594-16.575,7.148c-5.742,7.206-4.257,17-3.872,18.969l0.246,0.713c0.144,0.308,14.104,30.74,15.633,44.556
			c1.321,11.848,11.49,25.29,19.662,36.091l0.337,0.444c2.669,3.532,4.969,6.591,6.755,9.391
			c23.9,28.825,63.099,54.405,63.421,54.61c4.825,4.131,7.397,7.967,7.474,11.14c0.05,2.067-1.1,3.217-1.134,3.258l-0.95,0.869
			l0.08,0.096h-0.388v7.009H242.72v-2.365l5.838-19.694c18.347-58.655,18.952-109.711,18.922-110.057
			c0.194-1.868,5.438-19.684,9.66-34.074l0.106-0.366c8.405-28.679,18.88-64.355,21.364-78.041
			C299.671,85.962,296.294,80.285,289.997,77.372z M290.794,90.409c-2.416,13.305-13.318,50.448-21.271,77.573
			c-6.893,23.477-9.723,33.291-9.959,35.926c0,0.493-0.212,49.361-18.603,108.134l-5.15,17.371h-97.362
			c0.396-1.194,0.683-2.566,0.669-4.176c-0.021-5.626-3.591-11.519-10.684-17.556c-0.397-0.253-39.28-25.864-61.722-52.872
			c-1.793-2.867-4.531-6.492-7.18-9.982c-7.182-9.507-17.027-22.538-18.097-32.188c-1.602-14.4-14.455-42.928-16.091-46.506
			c-0.207-1.447-0.876-7.821,2.411-11.921c1.983-2.481,5.277-3.869,9.781-4.113c17.535,7.31,37.568,53.827,37.765,54.299
			l0.431,0.986l0.854,0.664c1.206,0.875,7.503,5.263,13.608,5.263c1.395,0,2.715-0.226,3.886-0.678
			c2.435-0.91,5.607-3.176,6.815-8.733c0.2-0.753,4.805-18.907-1.552-49.523c-2.525-12.258-5.457-23.456-8.547-35.317l-0.049-0.18
			c-4.983-19.073-10.145-38.798-14.262-65.158c-0.381-8.828,2.253-14.041,7.376-14.7c5.852-0.821,13.251,3.987,14.067,7.775
			l1.027,2.929c1.083,3.547,3.136,12.339,4.503,18.22c11.634,49.582,22.524,90.631,37.922,90.631c1.251,0,3.087-0.368,4.749-2.13
			c6.326-6.675,5.327-33.508,2.909-76.937c-1.17-21.033-2.657-59.31-0.294-63.067l0.949-1.973c1.451-3.121,5.057-4.524,7.919-4.524
			c0.417,0,0.813,0.029,1.207,0.074c4.881,0.525,10.246,4.384,11.021,7.938c0.609,2.722,1.401,15.833,2.336,31l0.027,0.512
			c5.256,86.759,8.74,107.942,17.686,107.942c10.164,0,15.133-20.191,24.934-80.85l0.048-0.257
			c2.406-14.857,6.017-37.204,7.632-40.488c5.249-2.637,10.026-3.28,12.799-1.76c3.518,1.945,4.675,7.167,5.01,11.158
			c0.014,1.083-1.074,9.789-2.114,18.206c-9.508,76.373-10.873,102.574-5.627,107.827c1.396,1.383,3.361,1.981,5.12,1.571
			c5.358-1.119,8.897-9.182,18.411-33.825c7.196-18.587,16.129-41.713,25.399-52.979c0.075-0.087,0.52-0.315,1.488-0.315
			c1.133,0,2.434,0.315,3.669,0.876C288.971,85.654,291.273,87.745,290.794,90.409z"/>
		<g>
			<path d="M300.582,60.104c-17.501-9.767-39.69-3.473-49.471,14.031c-8.703,15.609-4.617,34.917,8.761,45.851
				c0.503-2.593,1.293-4.99,2.262-7.391c-9.041-9.048-11.434-23.332-4.894-35.043c7.892-14.133,25.803-19.207,39.937-11.318
				c14.123,7.885,19.209,25.794,11.317,39.935c-4.251,7.614-11.431,12.556-19.343,14.294c-0.027,0.62-0.064,1.239-0.171,1.86
				c-0.332,1.903-0.835,3.739-1.472,5.53c11.03-1.43,21.27-7.833,27.101-18.276C324.386,92.07,318.097,69.878,300.582,60.104z"/>
		</g>
	</g>
</g>
<g>
</g>
<g>
</g>
<g>
</g>
<g>
</g>
<g>
</g>
<g>
</g>
<g>
</g>
<g>
</g>
<g>
</g>
<g>
</g>
<g>
</g>
<g>
</g>
<g>
</g>
<g>
</g>
<g>
</g>
</svg>
