<?xml version="1.0" encoding="iso-8859-1"?>
<!-- Generator: Adobe Illustrator 16.0.0, SVG Export Plug-In . SVG Version: 6.00 Build 0)  -->
<!DOCTYPE svg PUBLIC "-//W3C//DTD SVG 1.1//EN" "http://www.w3.org/Graphics/SVG/1.1/DTD/svg11.dtd">
<svg version="1.1" id="Capa_1" xmlns="http://www.w3.org/2000/svg" xmlns:xlink="http://www.w3.org/1999/xlink" x="0px" y="0px"
	 width="336.419px" height="336.419px" viewBox="0 0 336.419 336.419" style="enable-background:new 0 0 336.419 336.419;"
	 xml:space="preserve">
<g>
	<g>
		<path d="M310.059,77.375c-2.275-1.054-4.688-1.622-6.943-1.622c-3.265,0-5.985,1.15-7.687,3.203
			c-10.058,12.245-19.267,36.062-26.683,55.199c-3.411,8.848-7.99,20.689-11.084,26.247c-1.69-16.281,5.616-75.019,8.429-97.639
			l0.048-0.365c1.954-15.713,2.262-18.471,2.163-19.698c-0.757-8.747-3.812-14.669-9.086-17.592
			c-5.332-2.964-12.576-2.327-20.615,1.802c-4.035,2.074-5.664,10.061-11.539,46.375l-0.024,0.164
			c-3.233,19.944-10.67,65.892-16.386,73.222c-5.088-11.182-8.843-72.945-10.465-99.679c-1.126-18.719-1.803-29.465-2.525-32.759
			C196.132,7.356,188.09,1.03,179.75,0.13c-6.937-0.826-12.902,2.327-16.055,8.309c-5.501,5.344-5.019,24.379-2.512,69.552
			c1.191,21.5,3.651,65.905-0.176,70.606c-6.896-1.252-16.904-29.658-29.737-84.46c-3.598-15.345-4.728-19.972-6.016-22.046
			c-2.337-7.089-11.543-13.071-20.168-13.071c-0.739,0-1.458,0.048-2.168,0.137c-4.56,0.575-15.104,4.016-14.253,23.344
			c4.192,27.017,9.416,46.986,14.467,66.383l0.101,0.381c3.027,11.613,5.891,22.592,8.414,34.721
			c5.944,28.644,1.651,45.857,1.602,46.055c-0.389,1.773-1.017,2.834-1.874,3.155c-0.313,0.113-0.698,0.186-1.129,0.186
			c-2.519,0-6.16-1.938-8.025-3.155c-3.836-8.809-23.033-50.832-42.604-57.849l-0.708-0.265l-0.729,0.021
			c-7.373,0.187-12.944,2.587-16.579,7.146c-5.744,7.208-4.259,17.003-3.869,18.964l0.241,0.719
			c0.144,0.308,14.104,30.744,15.632,44.549c1.325,11.854,11.492,25.29,19.667,36.098l0.335,0.444
			c2.667,3.535,4.965,6.595,6.753,9.394c23.899,28.815,63.098,54.396,63.423,54.611c4.824,4.127,7.399,7.963,7.476,11.129
			c0.049,2.066-1.101,3.217-1.14,3.265l-0.95,0.869l0.08,0.089h-0.385v7.009h113.93v-2.361l5.839-19.698
			c18.35-58.648,18.951-109.707,18.924-110.057c0.188-1.861,5.432-19.684,9.654-34.07l0.113-0.37
			c8.401-28.678,18.873-64.354,21.357-78.032C319.733,85.965,316.353,80.284,310.059,77.375z M310.856,90.415
			c-2.413,13.306-13.316,50.448-21.27,77.574c-6.892,23.467-9.726,33.283-9.958,35.924c0,0.489-0.212,49.354-18.606,108.133
			l-5.146,17.364h-97.364c0.397-1.19,0.681-2.566,0.669-4.168c-0.024-5.63-3.595-11.525-10.688-17.556
			c-0.392-0.253-39.279-25.872-61.717-52.879c-1.795-2.868-4.531-6.489-7.181-9.979c-7.183-9.5-17.031-22.535-18.1-32.186
			c-1.602-14.396-14.452-42.935-16.091-46.51c-0.204-1.444-0.876-7.814,2.411-11.915c1.986-2.484,5.277-3.869,9.78-4.115
			c17.539,7.31,37.574,53.824,37.772,54.296l0.428,0.993l0.859,0.657c1.201,0.875,7.5,5.263,13.604,5.263
			c1.398,0,2.715-0.219,3.891-0.667c2.435-0.914,5.602-3.176,6.812-8.74c0.204-0.753,4.808-18.908-1.548-49.527
			c-2.531-12.25-5.46-23.447-8.547-35.315l-0.053-0.173c-4.983-19.074-10.145-38.799-14.258-65.158
			c-0.383-8.831,2.248-14.046,7.376-14.7c5.852-0.828,13.246,3.983,14.062,7.775l1.027,2.929c1.086,3.54,3.136,12.338,4.507,18.219
			c11.63,49.579,22.526,90.624,37.919,90.624c1.253,0,3.092-0.364,4.749-2.127c6.33-6.673,5.33-33.511,2.913-76.937
			c-1.174-21.033-2.659-59.306-0.298-63.071l0.953-1.966c1.451-3.123,5.055-4.524,7.915-4.524c0.418,0,0.818,0.022,1.205,0.07
			c4.887,0.525,10.249,4.38,11.026,7.934c0.608,2.729,1.399,15.84,2.333,31.007l0.027,0.51c5.257,86.76,8.74,107.943,17.687,107.943
			c10.163,0,15.133-20.192,24.934-80.857l0.048-0.253c2.402-14.857,6.02-37.206,7.632-40.491c5.253-2.628,10.026-3.273,12.795-1.752
			c3.518,1.944,4.675,7.166,5.017,11.156c0.011,1.083-1.077,9.781-2.118,18.206c-9.503,76.369-10.869,102.571-5.619,107.825
			c1.393,1.38,3.357,1.979,5.116,1.574c5.359-1.129,8.901-9.185,18.415-33.83c7.193-18.591,16.125-41.708,25.396-52.982
			c0.075-0.08,0.517-0.308,1.485-0.308c1.136,0,2.433,0.308,3.668,0.876C309.032,85.657,311.339,87.751,310.856,90.415z"/>
		<g>
			<path d="M51.312,189.649c-0.109-0.64-0.15-1.267-0.187-1.903c-11.43-1.102-21.666-8.818-25.259-20.457
				c-4.772-15.468,3.932-31.929,19.397-36.701c15.464-4.769,31.923,3.929,36.697,19.397c2.091,6.791,1.525,13.75-1.023,19.839
				c2.183,1.007,4.137,2.595,5.592,4.593c3.887-7.977,4.941-17.354,2.12-26.501c-5.912-19.15-26.303-29.937-45.457-24.029
				c-19.159,5.916-29.937,26.312-24.028,45.468c4.678,15.154,18.425,25.017,33.448,25.564
				C52.083,193.181,51.617,191.429,51.312,189.649z"/>
		</g>
	</g>
</g>
<g>
</g>
<g>
</g>
<g>
</g>
<g>
</g>
<g>
</g>
<g>
</g>
<g>
</g>
<g>
</g>
<g>
</g>
<g>
</g>
<g>
</g>
<g>
</g>
<g>
</g>
<g>
</g>
<g>
</g>
</svg>
