<?xml version="1.0" encoding="iso-8859-1"?>
<!-- Generator: Adobe Illustrator 19.0.0, SVG Export Plug-In . SVG Version: 6.00 Build 0)  -->
<svg version="1.1" id="Capa_1" xmlns="http://www.w3.org/2000/svg" xmlns:xlink="http://www.w3.org/1999/xlink" x="0px" y="0px"
	 viewBox="0 0 512 512" style="enable-background:new 0 0 512 512;" xml:space="preserve">
<g>
	<g>
		<path d="M428.719,63.242C387.937,22.46,333.714,0,276.04,0s-111.898,22.46-152.68,63.242
			c-40.362,40.362-62.777,93.883-63.234,150.892l-39.292,78.584c-1.756,3.512-0.512,7.784,2.855,9.804l36.43,21.858V440.36
			c0,4.15,3.365,7.515,7.515,7.515h72.642v56.611c0,4.15,3.365,7.515,7.515,7.515c4.15,0,7.515-3.365,7.515-7.515V440.36
			c0-4.15-3.365-7.515-7.515-7.515H75.147v-112.72c0-2.639-1.385-5.086-3.648-6.444l-34.112-20.467l36.966-73.932
			c0.522-1.044,0.794-2.193,0.794-3.361c0-110.772,90.12-200.892,200.892-200.892s200.892,90.12,200.892,200.892
			c0,62.247-28.164,119.965-77.27,158.356c-1.822,1.424-2.887,3.608-2.887,5.921v124.287c0,4.15,3.365,7.515,7.515,7.515
			c4.15,0,7.515-3.365,7.515-7.515V383.823c50.992-41.246,80.157-102.227,80.157-167.901
			C491.961,158.247,469.502,104.024,428.719,63.242z"/>
	</g>
</g>
<g>
	<g>
		<path d="M265.322,210.608l-72.141-72.141c-4.635-4.64-12.828-1.234-12.828,5.313v32.564h-64.626c-4.15,0-7.515,3.365-7.515,7.515
			v64.125c0,4.15,3.365,7.515,7.515,7.515h64.626v32.564c0,6.537,8.188,9.955,12.828,5.313l72.141-72.141
			C268.257,218.3,268.257,213.542,265.322,210.608z M195.382,269.921v-21.937c0-4.15-3.365-7.515-7.515-7.515h-64.626v-49.096
			h64.626c4.15,0,7.515-3.365,7.515-7.515v-21.937l53.999,53.999L195.382,269.921z"/>
	</g>
</g>
<g>
	<g>
		<path d="M436.353,176.344h-20.039c-4.15,0-7.515,3.365-7.515,7.515c0,4.15,3.365,7.515,7.515,7.515h12.524v49.096h-64.626
			c-4.15,0-7.515,3.365-7.515,7.515v21.937l-54-54l54-53.999v21.937c0,4.15,3.365,7.515,7.515,7.515h19.037
			c4.15,0,7.515-3.365,7.515-7.515c0-4.15-3.365-7.515-7.515-7.515h-11.522v-32.564c0-6.549-8.191-9.951-12.828-5.313
			l-72.141,72.141c-2.935,2.935-2.935,7.693,0,10.627l72.141,72.141c4.639,4.641,12.828,1.223,12.828-5.313v-32.564h64.626
			c4.15,0,7.515-3.365,7.515-7.515v-64.125C443.867,179.709,440.503,176.344,436.353,176.344z"/>
	</g>
</g>
<g>
	<g>
		<path d="M276.04,288.564c-4.15,0-7.515,3.365-7.515,7.515v16.031c0,4.095,3.42,7.515,7.515,7.515c4.095,0,7.515-3.42,7.515-7.515
			v-16.031C283.554,291.928,280.19,288.564,276.04,288.564z"/>
	</g>
</g>
<g>
	<g>
		<path d="M318.619,298.687l-8.017-13.883c-2.075-3.595-6.671-4.825-10.265-2.75c-3.594,2.075-4.825,6.671-2.75,10.265l8.016,13.883
			c2.208,3.825,7.402,4.914,10.967,2.292C319.614,306.256,320.506,301.957,318.619,298.687z"/>
	</g>
</g>
<g>
	<g>
		<path d="M251.742,282.053c-3.594-2.076-8.19-0.844-10.265,2.75l-8.016,13.883c-2.833,4.906,0.802,11.273,6.501,11.273
			c2.597,0,5.123-1.349,6.515-3.758l8.016-13.883C256.568,288.724,255.336,284.128,251.742,282.053z"/>
	</g>
</g>
<g>
	<g>
		<path d="M276.04,112.219c-4.15,0-7.515,3.365-7.515,7.515v16.031c0,4.15,3.365,7.515,7.515,7.515c4.15,0,7.515-3.365,7.515-7.515
			v-16.031C283.554,115.584,280.19,112.219,276.04,112.219z"/>
	</g>
</g>
<g>
	<g>
		<path d="M315.867,122.892c-3.594-2.076-8.19-0.844-10.265,2.75l-8.016,13.883c-2.833,4.905,0.801,11.273,6.501,11.273
			c2.597,0,5.123-1.349,6.515-3.758l8.016-13.883C320.693,129.563,319.462,124.967,315.867,122.892z"/>
	</g>
</g>
<g>
	<g>
		<path d="M254.492,139.526l-8.016-13.883c-2.075-3.594-6.671-4.825-10.265-2.75c-3.594,2.075-4.825,6.671-2.75,10.265l8.016,13.883
			c1.393,2.411,3.919,3.758,6.515,3.758C253.69,150.799,257.324,144.431,254.492,139.526z"/>
	</g>
</g>
<g>
</g>
<g>
</g>
<g>
</g>
<g>
</g>
<g>
</g>
<g>
</g>
<g>
</g>
<g>
</g>
<g>
</g>
<g>
</g>
<g>
</g>
<g>
</g>
<g>
</g>
<g>
</g>
<g>
</g>
</svg>
