<?xml version="1.0" encoding="UTF-8" standalone="no"?>
<!-- Created with Inkscape (http://www.inkscape.org/) -->

<svg
   xmlns:dc="http://purl.org/dc/elements/1.1/"
   xmlns:cc="http://creativecommons.org/ns#"
   xmlns:rdf="http://www.w3.org/1999/02/22-rdf-syntax-ns#"
   xmlns:svg="http://www.w3.org/2000/svg"
   xmlns="http://www.w3.org/2000/svg"
   xmlns:sodipodi="http://sodipodi.sourceforge.net/DTD/sodipodi-0.dtd"
   xmlns:inkscape="http://www.inkscape.org/namespaces/inkscape"
   width="210mm"
   height="297mm"
   viewBox="0 0 210 297"
   version="1.1"
   id="svg8"
   inkscape:version="0.92.3 (2405546, 2018-03-11)"
   sodipodi:docname="eror_final.svg">
  <defs
     id="defs2" />
  <sodipodi:namedview
     id="base"
     pagecolor="#ffffff"
     bordercolor="#666666"
     borderopacity="1.0"
     inkscape:pageopacity="0.0"
     inkscape:pageshadow="2"
     inkscape:zoom="0.35"
     inkscape:cx="294.64242"
     inkscape:cy="698.13355"
     inkscape:document-units="mm"
     inkscape:current-layer="layer1"
     showgrid="false"
     inkscape:window-width="1920"
     inkscape:window-height="1017"
     inkscape:window-x="-8"
     inkscape:window-y="-8"
     inkscape:window-maximized="1" />
  <metadata
     id="metadata5">
    <rdf:RDF>
      <cc:Work
         rdf:about="">
        <dc:format>image/svg+xml</dc:format>
        <dc:type
           rdf:resource="http://purl.org/dc/dcmitype/StillImage" />
        <dc:title></dc:title>
      </cc:Work>
    </rdf:RDF>
  </metadata>
  <g
     inkscape:label="Layer 1"
     inkscape:groupmode="layer"
     id="layer1">
    <g
       id="g7"
       transform="matrix(2.127466,0,0,2.127466,154.36526,169.39481)">
      <g
         id="x">
        <g
           id="g4">
          <path
             id="polygon2"
             style="fill:#030104"
             d="M 0,22.398 5.598,28 14,19.598 22.398,28 28,22.398 19.594,14 28,5.602 22.398,0 14,8.402 5.598,0 0,5.602 8.398,14 Z M 14.0001,-13.261191 A 27.150929,27.261296 0 0 0 -13.150925,14.000112 27.150929,27.261296 0 0 0 14.0001,41.261413 27.150929,27.261296 0 0 0 41.150882,14.000112 27.150929,27.261296 0 0 0 14.0001,-13.261191 Z m 0,5.0338871 A 22.137258,22.227245 0 0 1 36.137156,14.000112 22.137258,22.227245 0 0 1 14.0001,36.227284 22.137258,22.227245 0 0 1 -8.1371975,14.000112 22.137258,22.227245 0 0 1 14.0001,-8.2273039 Z M -66.276845,-63.638197 v 89.447199 h 51.861376 a 30.779394,30.904512 0 0 1 -2.363916,-11.80889 30.779394,30.904512 0 0 1 0.166388,-3.168891 H -51.298821 V -48.660173 H 8.1923295 v 32.335269 a 30.779394,30.904512 0 0 1 5.8077705,-0.579563 30.779394,30.904512 0 0 1 9.170255,1.40737 v -48.1411 z m 4.140496,4.140496 h 13.40038 v 3.280625 h -10.119998 v 10.119756 h -3.280382 z m 67.7658269,0 H 19.029858 V -46.09732 H 15.749476 V -56.217076 H 5.6294779 Z M -49.94829,-47.309398 V 9.4804463 h 33.538602 a 30.779394,30.904512 0 0 1 1.151594,-5.0161547 h -0.726517 V 0.01166662 H -18.21323 V -2.2123376 h -2.227163 v 4.4557813 h -2.224005 v 2.2208479 h -4.451167 V 2.2371284 h 4.449467 V 0.01628183 h -4.451167 V -4.4394995 h 4.451167 v -2.2288632 h 2.225705 v 2.2271619 0.0017 h 2.227163 v -2.2288632 h 6.678328 v -4.4557813 h -2.225705 v -2.224006 h 2.227162 v 2.224006 h 2.2257059 v 2.2286194 h 2.2286195 V -13.34815 h 2.2303195 v -2.224004 h -4.4574814 v 0.0015 h 0.00632 v 2.227162 h -2.2271628 v -2.227162 h -2.227162 v -2.22862 h 6.6751714 v -6.680029 h 2.2303195 v 4.455781 h 2.2257056 v 6.678572 h -2.2257056 v 2.932792 a 30.779394,30.904512 0 0 1 11.6905989,-5.608592 v -31.288606 z m 22.82641,5.015912 h 6.678329 v 4.454325 h 2.227162 v -4.454325 h 2.227163 v 6.672014 h -2.227163 v 4.456025 h 2.227163 v 8.905491 h 2.227162 v -2.227162 h 2.227162 v 4.455781 h -6.678328 v 4.456026 h 2.228619 v 2.227161 h -2.228619 v 2.224006 h 2.230319 v 2.2286194 h -4.457482 -0.0017 V -13.34815 h -2.225462 v 2.224006 h -2.224004 v 2.2286194 h 2.220846 v 2.2271619 h -4.451167 v -6.6751713 h 2.227163 v -2.227162 h -2.227163 v -6.681487 h -6.676872 v -2.227162 h 6.676872 v -4.454325 h 2.227163 v 2.225706 h 2.224004 v 4.454323 h 2.227162 v -4.452867 h -2.222547 v -2.227162 h 2.225705 v 2.225706 h 2.224004 v -2.227164 h -2.227162 v -6.680029 h -2.220847 v 2.230321 h -4.451167 v -2.230321 h 4.444852 v -4.451166 h -2.224004 v 2.227162 h -2.227163 z m 2.227163,26.72279 h 2.224004 v -4.455783 h -2.224004 z m 4.452624,2.222546 h 2.227161 v -2.227161 h -2.227161 z m -24.487612,-28.943635 h 15.585278 v 15.583821 h -15.585278 z m 31.169098,0 H 1.824914 v 15.585277 h -15.585521 z m -28.945094,2.227162 v 11.130953 h 11.134112 v -11.130953 z m 31.172256,0 v 11.130953 h 11.13119708 v -11.130953 z m -28.943636,2.227162 h 6.678329 v 6.676629 h -6.678329 z m 31.1707995,0 h 6.6768717 v 6.676629 h -6.6768717 z m -31.1722565,13.356658 h 4.455782 v 2.227162 h -2.22862 v 2.227162 h -2.227162 z m 37.8491282,0 h 4.4557813 v 2.227162 h -4.4557813 z m -42.3034532,0.0015 h 2.22862 v 11.134353 h -2.22862 z m 17.81414,0 v 2.227162 h 2.224006 v -2.227162 z m -11.131195,4.452866 h 4.456025 v 2.227163 h 2.222304 v -2.227163 h 2.227162 v 2.227163 h -2.225462 v 2.22862 h 2.227162 v 2.227162 h -11.134354 v -2.227162 h 2.227163 z m 37.84767008,0 H 1.8263715 v 2.227163 h -2.22861942 z m -44.53061508,8.902335 h 15.586979 V 4.4611339 h -15.586979 z m 2.22862,2.2286194 V 2.2388298 h 11.134354 V -8.8955246 Z m 35.628281,0 v 0.4012727 a 30.779394,30.904512 0 0 1 0.4549538,-0.4012727 z m -33.402576,2.2271619 h 6.678328 v 6.68002932 h -6.678328 z m 22.266764,2.2288632 v 2.2223042 h 2.228863 v 2.22716185 h 2.225462 v 0.72433191 a 30.779394,30.904512 0 0 1 0.345405,-0.71801663 h -0.343705 V -4.4394995 Z M -62.136349,8.2681254 h 3.280382 V 18.388124 h 10.119998 v 3.280626 h -13.40038 z" />
        </g>
      </g>
    </g>
  </g>
</svg>
