<?xml version="1.0" encoding="UTF-8" standalone="no"?>
<!-- Created with Inkscape (http://www.inkscape.org/) -->

<svg
   xmlns:dc="http://purl.org/dc/elements/1.1/"
   xmlns:cc="http://creativecommons.org/ns#"
   xmlns:rdf="http://www.w3.org/1999/02/22-rdf-syntax-ns#"
   xmlns:svg="http://www.w3.org/2000/svg"
   xmlns="http://www.w3.org/2000/svg"
   xmlns:sodipodi="http://sodipodi.sourceforge.net/DTD/sodipodi-0.dtd"
   xmlns:inkscape="http://www.inkscape.org/namespaces/inkscape"
   width="210mm"
   height="297mm"
   viewBox="0 0 210 297"
   version="1.1"
   id="svg8"
   inkscape:version="0.92.3 (2405546, 2018-03-11)"
   sodipodi:docname="wait.svg">
  <defs
     id="defs2" />
  <sodipodi:namedview
     id="base"
     pagecolor="#ffffff"
     bordercolor="#666666"
     borderopacity="1.0"
     inkscape:pageopacity="0.0"
     inkscape:pageshadow="2"
     inkscape:zoom="0.35"
     inkscape:cx="647.49956"
     inkscape:cy="698.13355"
     inkscape:document-units="mm"
     inkscape:current-layer="layer1"
     showgrid="false"
     inkscape:window-width="1920"
     inkscape:window-height="1017"
     inkscape:window-x="-8"
     inkscape:window-y="-8"
     inkscape:window-maximized="1" />
  <metadata
     id="metadata5">
    <rdf:RDF>
      <cc:Work
         rdf:about="">
        <dc:format>image/svg+xml</dc:format>
        <dc:type
           rdf:resource="http://purl.org/dc/dcmitype/StillImage" />
        <dc:title></dc:title>
      </cc:Work>
    </rdf:RDF>
  </metadata>
  <g
     inkscape:label="Layer 1"
     inkscape:groupmode="layer"
     id="layer1">
    <path
       style="fill:#000000;stroke-width:0.77559906"
       d="M 50.507812 128.5293 L 50.507812 847.75781 L 769.73633 847.75781 L 769.73633 128.5293 L 50.507812 128.5293 z M 83.800781 161.82227 L 191.55078 161.82227 L 191.55078 188.20117 L 110.17773 188.20117 L 110.17773 269.57227 L 83.800781 269.57227 L 83.800781 161.82227 z M 628.69336 161.82227 L 736.44336 161.82227 L 736.44336 269.57227 L 710.06641 269.57227 L 710.06641 188.20117 L 628.69336 188.20117 L 628.69336 161.82227 z M 170.94336 248.96484 L 649.30078 248.96484 L 649.30078 727.32422 L 170.94336 727.32422 L 170.94336 248.96484 z M 181.80273 259.82617 L 181.80273 716.46289 L 638.44141 716.46289 L 638.44141 259.82617 L 181.80273 259.82617 z M 365.3457 300.1582 L 419.04492 300.1582 L 419.04492 335.97461 L 436.95312 335.97461 L 436.95312 300.1582 L 454.86133 300.1582 L 454.86133 353.80664 L 436.95312 353.80664 L 436.95312 389.63672 L 454.86133 389.63672 L 454.86133 461.24414 L 472.76953 461.24414 L 472.76953 443.33594 L 490.67773 443.33594 L 490.67773 479.16406 L 436.97852 479.16406 L 436.97852 514.99414 L 454.89844 514.99414 L 454.89844 532.90234 L 436.97852 532.90234 L 436.97852 550.78516 L 454.91211 550.78516 L 454.91211 568.70508 L 419.07031 568.70508 L 419.05664 568.70508 L 419.05664 532.90234 L 401.16211 532.90234 L 401.16211 550.78516 L 383.2793 550.78516 L 383.2793 568.70508 L 401.13672 568.70508 L 401.13672 586.61328 L 365.3457 586.61328 L 365.3457 532.93945 L 383.25391 532.93945 L 383.25391 515.03125 L 365.3457 515.03125 L 365.3457 461.30664 L 311.6582 461.30664 L 311.6582 443.39844 L 365.3457 443.39844 L 365.3457 407.58203 L 383.25391 407.58203 L 383.25391 425.47852 L 401.13672 425.47852 L 401.13672 461.29492 L 419.04492 461.29492 L 419.04492 425.49023 L 401.17383 425.49023 L 401.17383 407.58203 L 419.07031 407.58203 L 419.07031 425.47852 L 436.95312 425.47852 L 436.95312 407.57031 L 419.04492 407.57031 L 419.04492 353.85742 L 401.1875 353.85742 L 401.1875 371.79102 L 365.39648 371.79102 L 365.39648 353.85742 L 401.13672 353.85742 L 401.13672 318.06641 L 383.25391 318.06641 L 383.25391 335.97461 L 365.3457 335.97461 L 365.3457 300.1582 z M 383.25391 515.03125 L 401.13672 515.03125 L 401.13672 479.20312 L 383.25391 479.20312 L 383.25391 515.03125 z M 419.05664 532.90234 L 436.96484 532.90234 L 436.96484 514.99414 L 419.05664 514.99414 L 419.05664 532.90234 z M 222.15625 300.17188 L 347.47461 300.17188 L 347.47461 425.47852 L 222.15625 425.47852 L 222.15625 300.17188 z M 472.78125 300.17188 L 598.10156 300.17188 L 598.10156 425.49023 L 472.78125 425.49023 L 472.78125 300.17188 z M 240.03906 318.08008 L 240.03906 407.58203 L 329.56641 407.58203 L 329.56641 318.08008 L 240.03906 318.08008 z M 490.68945 318.08008 L 490.68945 407.58203 L 580.19336 407.58203 L 580.19336 318.08008 L 490.68945 318.08008 z M 257.95898 335.98828 L 311.6582 335.98828 L 311.6582 389.67383 L 257.95898 389.67383 L 257.95898 335.98828 z M 508.59766 335.98828 L 562.28516 335.98828 L 562.28516 389.67383 L 508.59766 389.67383 L 508.59766 335.98828 z M 257.94727 443.38672 L 293.77539 443.38672 L 293.77539 461.29492 L 275.85547 461.29492 L 275.85547 479.20312 L 257.94727 479.20312 L 257.94727 443.38672 z M 562.28516 443.38672 L 598.11328 443.38672 L 598.11328 461.29492 L 562.28516 461.29492 L 562.28516 443.38672 z M 222.13086 443.39844 L 240.05078 443.39844 L 240.05078 532.92773 L 222.13086 532.92773 L 222.13086 443.39844 z M 365.37109 443.39844 L 365.37109 461.30664 L 383.25391 461.30664 L 383.25391 443.39844 L 365.37109 443.39844 z M 526.50586 443.39844 L 544.43945 443.39844 L 544.43945 479.22656 L 562.33594 479.22656 L 562.33594 532.92773 L 544.43945 532.92773 L 544.43945 568.70508 L 580.19336 568.70508 L 580.19336 586.61328 L 598.11328 586.61328 L 598.11328 604.52148 L 580.19336 604.52148 L 580.19336 586.61328 L 544.40234 586.61328 L 544.40234 568.70508 L 526.53125 568.70508 L 526.53125 604.53516 L 580.23047 604.53516 L 580.23047 622.44336 L 508.63672 622.44336 L 508.63672 658.2207 L 526.50586 658.2207 L 526.50586 676.12891 L 508.58594 676.12891 L 508.58594 658.27148 L 490.72852 658.27148 L 490.72852 640.36328 L 472.82031 640.36328 L 472.82031 604.53516 L 436.99023 604.53516 L 436.99023 622.4043 L 454.91211 622.4043 L 454.91211 640.3125 L 472.80664 640.3125 L 472.80664 676.12891 L 454.89844 676.12891 L 454.89844 640.32617 L 436.97852 640.32617 L 436.97852 622.44336 L 419.07031 622.44336 L 419.07031 658.27148 L 401.1875 658.27148 L 401.1875 676.12891 L 365.39648 676.12891 L 365.39648 658.2207 L 401.17383 658.2207 L 401.17383 640.36328 L 365.38281 640.36328 L 365.38281 604.53516 L 401.17383 604.53516 L 401.17383 586.61328 L 419.07031 586.61328 L 419.07031 604.52148 L 419.07031 604.53516 L 436.97852 604.53516 L 436.97852 586.61328 L 490.67773 586.61328 L 490.67773 550.78516 L 472.78125 550.78516 L 472.78125 532.90234 L 490.68945 532.90234 L 490.68945 550.78516 L 508.58594 550.78516 L 508.58594 568.70508 L 526.50586 568.70508 L 526.50586 532.90234 L 544.43945 532.90234 L 544.43945 515.01953 L 508.59766 515.01953 L 508.59766 515.03125 L 508.64844 515.03125 L 508.64844 532.93945 L 490.74023 532.93945 L 490.74023 515.03125 L 472.83203 515.03125 L 472.83203 497.11133 L 526.50586 497.11133 L 526.50586 443.39844 z M 275.86719 479.20312 L 311.69727 479.20312 L 311.69727 497.11133 L 329.56641 497.11133 L 329.56641 479.20312 L 347.47461 479.20312 L 347.47461 497.11133 L 329.58008 497.11133 L 329.58008 515.03125 L 347.48828 515.03125 L 347.48828 532.93945 L 257.95898 532.93945 L 257.95898 515.03125 L 275.86719 515.03125 L 275.86719 479.20312 z M 580.19336 479.20312 L 598.11328 479.20312 L 598.11328 497.11133 L 580.19336 497.11133 L 580.19336 479.20312 z M 222.13086 550.78516 L 347.46289 550.78516 L 347.46289 676.10352 L 222.13086 676.10352 L 222.13086 550.78516 z M 240.05078 568.70508 L 240.05078 658.23438 L 329.58008 658.23438 L 329.58008 568.70508 L 240.05078 568.70508 z M 257.94727 586.61328 L 311.64648 586.61328 L 311.64648 640.32617 L 257.94727 640.32617 L 257.94727 586.61328 z M 544.42773 640.32617 L 562.31055 640.32617 L 562.31055 658.23438 L 544.42773 658.23438 L 544.42773 640.32617 z M 580.19336 640.32617 L 598.11328 640.32617 L 598.11328 658.23438 L 580.19336 658.23438 L 580.19336 640.32617 z M 83.800781 706.71484 L 110.17773 706.71484 L 110.17773 788.08789 L 191.55078 788.08789 L 191.55078 814.4668 L 83.800781 814.4668 L 83.800781 706.71484 z M 710.06641 706.71484 L 736.44336 706.71484 L 736.44336 814.4668 L 628.69336 814.4668 L 628.69336 788.08789 L 710.06641 788.08789 L 710.06641 706.71484 z "
       transform="scale(0.26458333)"
       id="rect9" />
    <ellipse
       style="fill:#ffffff;stroke-width:0.26351213"
       id="path13"
       cx="184.14978"
       cy="199.17934"
       rx="65.482117"
       ry="65.748299" />
    <ellipse
       style="fill:#000000;stroke-width:0.2324477"
       id="path13-0"
       cx="184.14978"
       cy="199.17934"
       rx="57.76268"
       ry="57.997482" />
    <ellipse
       style="fill:#ffffff;stroke-width:0.19709851"
       id="path13-0-6"
       cx="184.14978"
       cy="199.17934"
       rx="48.978493"
       ry="49.177589" />
    <path
       id="path181-1-4"
       style="fill:#000000;stroke-width:0.03485923"
       d="m 171.39224,186.68039 12.33146,8.14902 13.07,-8.11742 v -7.00009 h -25.40146 z m 27.23639,1.49687 -14.82371,9.19338 -14.13365,-9.17393 v -17.03632 h 28.95498 v 17.01687 z m -15.1041,31.60908 -5.88762,2.39002 -6.98798,0.93998 v 2.67423 h 25.74647 v -2.67423 l -6.36384,-0.7748 z m 14.57228,-9.17482 v 16.52139 h -28.95256 v -17.04598 l 14.59279,-9.04769 z m 3.44048,-39.45177 h 6.4026 v -6.31758 h -6.4026 -2.97535 -28.95506 -2.9753 -6.27147 v 6.31758 h 3.71625 2.55522 v 18.63936 l 14.12896,9.41444 -14.76539,9.15696 0.0653,0.10681 -0.0341,0.0191 v 18.70253 h -1.95043 -3.71624 v 6.31755 h 47.57979 v -6.31755 h -7.0074 v -18.67826 l -14.32081,-9.28567 14.95233,-9.27115 -0.0653,-0.1068 0.0386,-0.0222 z"
       inkscape:connector-curvature="0" />
  </g>
</svg>
