<?xml version="1.0" encoding="UTF-8" standalone="no"?>
<!-- Created with Inkscape (http://www.inkscape.org/) -->

<svg
   xmlns:dc="http://purl.org/dc/elements/1.1/"
   xmlns:cc="http://creativecommons.org/ns#"
   xmlns:rdf="http://www.w3.org/1999/02/22-rdf-syntax-ns#"
   xmlns:svg="http://www.w3.org/2000/svg"
   xmlns="http://www.w3.org/2000/svg"
   xmlns:sodipodi="http://sodipodi.sourceforge.net/DTD/sodipodi-0.dtd"
   xmlns:inkscape="http://www.inkscape.org/namespaces/inkscape"
   width="210mm"
   height="297mm"
   viewBox="0 0 210 297"
   version="1.1"
   id="svg8"
   inkscape:version="0.92.3 (2405546, 2018-03-11)"
   sodipodi:docname="waitInit_final.svg">
  <defs
     id="defs2" />
  <sodipodi:namedview
     id="base"
     pagecolor="#ffffff"
     bordercolor="#666666"
     borderopacity="1.0"
     inkscape:pageopacity="0.0"
     inkscape:pageshadow="2"
     inkscape:zoom="0.35"
     inkscape:cx="294.64242"
     inkscape:cy="698.13355"
     inkscape:document-units="mm"
     inkscape:current-layer="layer1"
     showgrid="false"
     inkscape:window-width="1920"
     inkscape:window-height="1017"
     inkscape:window-x="1912"
     inkscape:window-y="-8"
     inkscape:window-maximized="1" />
  <metadata
     id="metadata5">
    <rdf:RDF>
      <cc:Work
         rdf:about="">
        <dc:format>image/svg+xml</dc:format>
        <dc:type
           rdf:resource="http://purl.org/dc/dcmitype/StillImage" />
        <dc:title></dc:title>
      </cc:Work>
    </rdf:RDF>
  </metadata>
  <g
     inkscape:label="Layer 1"
     inkscape:groupmode="layer"
     id="layer1">
    <path
       id="path61-01"
       style="fill:#000000;stroke-width:0.21497396"
       d="m 217.38356,209.30954 a 9.8273811,9.8273811 0 0 1 -9.82738,9.82738 9.8273811,9.8273811 0 0 1 -9.82738,-9.82738 9.8273811,9.8273811 0 0 1 9.82738,-9.82738 9.8273811,9.8273811 0 0 1 9.82738,9.82738 z m -23.64712,0 a 9.8273811,9.8273811 0 0 1 -9.82738,9.82738 9.8273811,9.8273811 0 0 1 -9.82738,-9.82738 9.8273811,9.8273811 0 0 1 9.82738,-9.82738 9.8273811,9.8273811 0 0 1 9.82738,9.82738 z m -23.64716,0 a 9.8273811,9.8273811 0 0 1 -9.82738,9.82738 9.8273811,9.8273811 0 0 1 -9.82738,-9.82738 9.8273811,9.8273811 0 0 1 9.82738,-9.82738 9.8273811,9.8273811 0 0 1 9.82738,9.82738 z M 184.15,141.18208 A 57.762679,57.997481 0 0 0 126.38711,199.17957 57.762679,57.997481 0 0 0 184.15,257.17706 57.762679,57.997481 0 0 0 241.91236,199.17957 57.762679,57.997481 0 0 0 184.15,141.18208 Z m 0,11.08769 a 46.719817,46.909733 0 0 1 46.71962,46.9098 A 46.719817,46.909733 0 0 1 184.15,246.08885 46.719817,46.909733 0 0 1 137.42985,199.17957 46.719817,46.909733 0 0 1 184.15,152.26977 Z M 13.363525,34.00671 V 224.30258 H 123.69684 a 65.482115,65.748299 0 0 1 -5.02915,-25.12301 65.482115,65.748299 0 0 1 0.35398,-6.74171 H 45.228763 V 65.871946 H 171.79416 v 68.792184 a 65.482115,65.748299 0 0 1 12.35584,-1.233 65.482115,65.748299 0 0 1 19.5094,2.99413 V 34.00671 Z m 8.808765,8.808765 h 28.508853 v 6.979417 H 29.151191 V 71.324329 H 22.17229 Z m 144.16949,0 h 28.50886 v 28.508854 h -6.9789 V 49.794892 H 166.34178 Z M 48.101972,68.745673 V 189.56414 h 71.352238 a 65.482115,65.748299 0 0 1 2.44997,-10.6717 h -1.54564 v -9.47281 h -4.74131 v -4.73149 h -4.73821 v 9.47952 h -4.7315 v 4.72478 h -9.469703 v -4.73822 h 9.466093 v -4.72477 h -9.469709 v -9.47952 h 9.469709 v -4.74183 h 4.73511 v 4.73821 0.004 h 4.73821 v -4.74183 h 14.20792 v -9.47953 h -4.73511 v -4.73149 h 4.73821 v 4.73149 h 4.73511 v 4.74131 h 4.74131 v -9.4728 h 4.74493 v -4.7315 h -9.48314 v 0.003 h 0.0134 v 4.73821 h -4.73822 v -4.73821 h -4.73821 v -4.74131 h 14.2012 v -14.21153 h 4.74493 v 9.47952 h 4.73512 v 14.20843 h -4.73512 v 6.23942 a 65.482115,65.748299 0 0 1 24.87135,-11.93209 V 68.745673 Z m 48.56241,10.671183 H 110.8723 v 9.476425 h 4.73821 v -9.476425 h 4.73822 v 14.194483 h -4.73822 v 9.480041 h 4.73822 v 18.94613 h 4.73821 v -4.73821 h 4.73821 v 9.47952 h -14.20792 v 9.48004 h 4.74131 v 4.73822 h -4.74131 v 4.73149 h 4.74493 v 4.74131 h -9.48314 -0.004 v -9.4728 h -4.73459 v 4.73149 h -4.7315 v 4.74131 h 4.72478 v 4.73822 h -9.469708 v -14.20121 h 4.738218 v -4.73821 H 96.664382 V 122.05405 H 82.459564 v -4.73821 h 14.204818 v -9.47643 h 4.738218 v 4.73511 h 4.73149 v 9.47643 h 4.73821 v -9.47333 h -4.72839 v -4.73821 h 4.73511 v 4.73511 h 4.73149 v -4.73821 H 110.8723 V 93.624775 h -4.72478 v 4.744931 h -9.469703 v -4.744931 h 9.456273 V 84.15507 h -4.73149 v 4.738211 h -4.738218 z m 4.738218,56.851824 h 4.73149 v -9.47952 h -4.73149 z m 9.4728,4.7284 h 4.73821 v -4.73822 H 110.8754 Z M 58.77884,79.420476 H 91.935989 V 112.57452 H 58.77884 Z m 66.3112,0 H 158.2477 V 112.57762 H 125.09004 Z M 63.510334,84.158687 V 107.83941 H 87.197778 V 84.158687 Z m 66.317916,0 v 23.680723 h 23.68124 V 84.158687 Z M 68.251646,88.896898 H 82.459564 V 103.1012 H 68.251646 Z m 66.314814,0 h 14.20482 V 103.1012 H 134.56646 Z M 68.248548,117.31273 h 9.479523 v 4.73822 h -4.741312 v 4.73821 h -4.738211 z m 80.522732,0 h 9.47952 v 4.73822 h -9.47952 z m -89.999157,0.003 h 4.741312 v 23.68795 h -4.741312 z m 37.898977,0 v 4.73821 h 4.7315 v -4.73821 z m -23.68124,9.47332 h 9.480042 v 4.73821 h 4.727876 v -4.73821 h 4.738211 v 4.73821 h -4.734594 v 4.74131 h 4.738211 v 4.73821 h -23.68796 v -4.73821 h 4.738214 z m 80.51963,0 h 4.74131 v 4.73821 h -4.74131 z m -94.737367,18.93941 h 33.160765 v 33.15715 H 58.772123 Z m 4.741312,4.74131 v 23.68796 h 23.68796 v -23.68796 z m 75.797955,0 v 0.8537 a 65.482115,65.748299 0 0 1 0.9679,-0.8537 z m -71.062842,4.73822 h 14.207915 v 14.21153 H 68.248548 Z m 47.371782,4.74183 v 4.72787 h 4.74183 v 4.73821 h 4.7346 v 1.541 a 65.482115,65.748299 0 0 1 0.73483,-1.52756 h -0.73122 v -9.47952 z m -93.44804,27.03504 h 6.978901 v 21.52995 h 21.529952 v 6.97942 H 22.17229 Z" />
  </g>
</svg>
